<svg xmlns="http://www.w3.org/2000/svg" width="18" height="18" viewBox="0 0 24 24" fill="#E5EDF5">
  <path d="M12 3c-4.97 0-9 3.58-9 8 0 3.55 3.06 6.75 7.02 7.76.46.12.98.24 1.53.24h3.07c1.66 0 3.01-1.35 3.01-3 0-1.07-.87-1.94-1.94-1.94h-1.45c-.8 0-1.24-.97-.66-1.56C14.82 10.34 16 8.31 16 6.5 16 4.01 14 3 12 3Zm-4 7c-.55 0-1-.45-1-1s.45-1 1-1 1 .45 1 1-.45 1-1 1Zm3-3c-.55 0-1-.45-1-1s.45-1 1-1 1 .45 1 1-.45 1-1 1Zm4 0c-.55 0-1-.45-1-1s.45-1 1-1 1 .45 1 1-.45 1-1 1Zm2 3c-.55 0-1-.45-1-1s.45-1 1-1 1 .45 1 1-.45 1-1 1Z"/>
</svg>

