<svg xmlns="http://www.w3.org/2000/svg" width="18" height="18" viewBox="0 0 24 24" fill="#E5EDF5">
  <path d="M12 3C7.03 3 3 6.58 3 11c0 2.66 1.36 5.02 3.44 6.56.31.23.46.61.39 1l-.2 1.22c-.09.54.36 1.02.9 1.02.03 0 .05 0 .08-.01l1.34-.27c.24-.05.49-.03.71.06.64.26 1.34.4 2.05.4 4.97 0 9-3.58 9-8 0-4.42-4.03-8-9-8Zm-3.75 7.5c-.55 0-1-.45-1-1s.45-1 1-1 1 .45 1 1-.45 1-1 1Zm3-3c-.55 0-1-.45-1-1s.45-1 1-1 1 .45 1 1-.45 1-1 1Zm3 3c-.55 0-1-.45-1-1s.45-1 1-1 1 .45 1 1-.45 1-1 1Zm2 2c-.55 0-1-.45-1-1s.45-1 1-1 1 .45 1 1-.45 1-1 1Z"/>
</svg>