<?xml version="1.0" encoding="UTF-8"?>
<svg id="Layer_1" data-name="Layer 1" xmlns="http://www.w3.org/2000/svg" width="64" height="64" viewBox="0 0 64 64">
  <defs>
    <style>
      .cls-1 {
        fill: #2ab5e8;
        fill-rule: evenodd;
      }
    </style>
  </defs>
  <path class="cls-1" d="M58.79,47.41L38.95,11.1c-2.14-3.91-7.74-3.98-9.97-.12l-3.01,5.21-5.98,2.33c-.37.14-.55.56-.41.93l.39,1.01c.14.37.56.55.93.41l3.05-1.19-5.13,8.89h-2.11v-1.46c1.64-.53,2.83-2.07,2.83-3.89,0-2.26-1.83-4.09-4.09-4.09-1.69,0-3.14,1.02-3.76,2.48l-3.87,1.43c-.37.14-.56.55-.42.92l.38,1.02c.14.37.55.56.92.42l2.83-1.05c.38,1.3,1.38,2.34,2.67,2.75v1.46h-6.6c-1.74,0-3.14,1.41-3.14,3.14v12.58c0,1.74,1.41,3.14,3.14,3.14h.34c-2.05,3.79.69,8.43,5.03,8.43h40.81c4.34,0,7.1-4.65,5.02-8.46ZM32.69,13.13c.56-.97,1.96-.95,2.49.03l5.41,9.9-.86.7c-.32.26-.78.2-1.03-.13l-1.35-1.81c-1.36-1.82-3.76-2.5-5.87-1.66l-3.71,1.49,4.91-8.51ZM13.89,23.22c0-.87.7-1.57,1.57-1.57s1.57.7,1.57,1.57-.7,1.57-1.57,1.57-1.57-.7-1.57-1.57ZM10.75,35.59l4.54.11,1.51-4.29c.11-.33.58-.31.68.02l1.3,4.36,4.54.11c.35,0,.48.45.19.65l-3.74,2.58,1.3,4.36c.1.33-.28.59-.56.38l-3.61-2.76-3.74,2.58c-.28.2-.65-.09-.54-.41l1.51-4.29-3.61-2.76c-.27-.21-.12-.65.23-.64ZM53.78,51.58H12.97c-1.1,0-1.79-1.19-1.24-2.14l1.16-2h13.58c1.74,0,3.14-1.41,3.14-3.14v-12.58c0-1.74-1.41-3.14-3.14-3.14h-2.69l.53-.92,8.77-3.51c.3-.12.65-.02.84.24l1.35,1.81c1.7,2.29,4.97,2.69,7.18.89l.23-.19,12.34,22.58c.52.95-.17,2.12-1.25,2.12Z"/>
</svg>