<?xml version="1.0" encoding="UTF-8"?>
<svg id="Expanded_Icons" data-name="Expanded Icons" xmlns="http://www.w3.org/2000/svg" viewBox="0 0 64 64">
  <defs>
    <style>
      .cls-1 {
        fill: #29b5e8;
        stroke-width: 0px;
      }
    </style>
  </defs>
  <path class="cls-1" d="M35.61,36.77h-7.42c-.41,0-.75.34-.75.75v5.97c0,.41.34.75.75.75h7.42c.41,0,.75-.34.75-.75v-5.97c0-.41-.34-.75-.75-.75ZM34.86,42.75h-5.92v-4.47h5.92v4.47Z"/>
  <polygon class="cls-1" points="30.22 33.43 33.73 33.43 33.73 29.92 37.24 29.92 37.24 26.41 33.73 26.41 33.73 22.9 30.22 22.9 30.22 26.41 26.72 26.41 26.72 29.92 30.22 29.92 30.22 33.43"/>
  <path class="cls-1" d="M16.05,49.55h-4.26c-.41,0-.75.34-.75.75v2.61c0,.41.34.75.75.75h4.26c.41,0,.75-.34.75-.75v-2.61c0-.41-.34-.75-.75-.75ZM15.3,52.16h-2.76v-1.11h2.76v1.11Z"/>
  <path class="cls-1" d="M16.05,42.96h-4.26c-.41,0-.75.34-.75.75v2.61c0,.41.34.75.75.75h4.26c.41,0,.75-.34.75-.75v-2.61c0-.41-.34-.75-.75-.75ZM15.3,45.57h-2.76v-1.11h2.76v1.11Z"/>
  <path class="cls-1" d="M47.71,53.66h4.26c.41,0,.75-.34.75-.75v-2.61c0-.41-.34-.75-.75-.75h-4.26c-.41,0-.75.34-.75.75v2.61c0,.41.34.75.75.75ZM48.46,51.05h2.76v1.11h-2.76v-1.11Z"/>
  <path class="cls-1" d="M47.71,47.07h4.26c.41,0,.75-.34.75-.75v-2.61c0-.41-.34-.75-.75-.75h-4.26c-.41,0-.75.34-.75.75v2.61c0,.41.34.75.75.75ZM48.46,44.46h2.76v1.11h-2.76v-1.11Z"/>
  <path class="cls-1" d="M57.61,37.3h-13.85v-19.37c0-.69-.56-1.25-1.25-1.25h-21.06c-.69,0-1.25.56-1.25,1.25v19.37H6.39c-.69,0-1.25.56-1.25,1.25v19.74c0,.69.56,1.25,1.25,1.25h36.12s.01,0,.02,0c0,0,.01,0,.02,0h15.06c.69,0,1.25-.56,1.25-1.25v-19.74c0-.69-.56-1.25-1.25-1.25ZM7.64,39.8h12.56v17.24H7.64v-17.24ZM34.36,57.05h-4.92v-7.82h4.92v7.82ZM41.26,57.05h-4.39v-9.07c0-.69-.56-1.25-1.25-1.25h-7.42c-.69,0-1.25.56-1.25,1.25v9.07h-4.25V19.19h18.56v37.86ZM56.36,57.05h-12.56v-17.24h12.56v17.24Z"/>
</svg>