<?xml version="1.0" encoding="UTF-8"?>
<svg id="Expanded_Icons" data-name="Expanded Icons" xmlns="http://www.w3.org/2000/svg" viewBox="0 0 64 64">
  <defs>
    <style>
      .cls-1 {
        fill: #29b5e8;
        stroke-width: 0px;
      }
    </style>
  </defs>
  <path class="cls-1" d="M10.14,4.25c-.69,0-1.25.56-1.25,1.25v53.09c0,.69.56,1.25,1.25,1.25s1.25-.56,1.25-1.25V5.5c0-.69-.56-1.25-1.25-1.25Z"/>
  <path class="cls-1" d="M44.45,20.88l9.72-8.34c.61-.52.85-1.35.61-2.12-.24-.76-.91-1.31-1.71-1.39L15.72,5.24c-.57-.06-1.12.13-1.54.51-.42.38-.66.92-.66,1.48v27.3c0,1.16,1.04,2.09,2.17,1.99.06,0,.11,0,.17,0,.07,0,.14,0,.21-.01l37.02-3.79c.8-.08,1.47-.63,1.71-1.39s0-1.59-.61-2.12l-9.72-8.34ZM17.51,32.35V9.44l30.52,3.1-7.95,6.82c-.44.38-.7.93-.7,1.52s.25,1.14.7,1.52l7.96,6.83-30.52,3.13Z"/>
</svg>