<?xml version="1.0" encoding="UTF-8"?>
<svg id="Expanded_Icons" data-name="Expanded Icons" xmlns="http://www.w3.org/2000/svg" viewBox="0 0 64 64">
  <defs>
    <style>
      .cls-1 {
        fill: #29b5e8;
        stroke-width: 0px;
      }
    </style>
  </defs>
  <path class="cls-1" d="M44.97,29.91l-18.89-10.85c-.62-.36-1.38-.35-1.99,0-.62.35-1,1.01-1,1.72l-.11,21.92c0,.72.38,1.38,1,1.74.31.18.66.27,1,.27s.7-.09,1.01-.27l19-11.07c.62-.36,1-1.02.99-1.73s-.38-1.37-1-1.73ZM27,39.22l.07-14.99,12.91,7.42-12.99,7.57Z"/>
  <path class="cls-1" d="M31.96,4.56c-15.16,0-27.5,12.34-27.5,27.5s12.34,27.5,27.5,27.5,27.5-12.34,27.5-27.5S47.13,4.56,31.96,4.56ZM31.96,55.56c-12.96,0-23.5-10.54-23.5-23.5S19.01,8.56,31.96,8.56s23.5,10.54,23.5,23.5-10.54,23.5-23.5,23.5Z"/>
</svg>