<?xml version="1.0" encoding="UTF-8"?>
<svg id="Expanded_Icons" data-name="Expanded Icons" xmlns="http://www.w3.org/2000/svg" viewBox="0 0 64 64">
  <defs>
    <style>
      .cls-1 {
        fill: #29b5e8;
        stroke-width: 0px;
      }
    </style>
  </defs>
  <path class="cls-1" d="M48.63,51.63h-31.04c-7.34,0-13.09-5.65-13.09-12.86s5.27-12.38,12.17-12.83c2.71-7.94,10.17-13.36,18.66-13.36,10.88,0,19.74,8.84,19.74,19.71,0,.03,0,.06,0,.09,2.8,2.04,4.44,5.17,4.44,8.6,0,5.96-4.77,10.64-10.87,10.64ZM17.57,29.91c-5.07,0-9.07,3.89-9.07,8.86s3.99,8.86,9.09,8.86h31.04c3.85,0,6.87-2.92,6.87-6.64,0-2.43-1.27-4.55-3.49-5.82-.67-.38-1.06-1.11-1-1.88l.02-.25c.02-.25.04-.49.04-.75,0-8.66-7.06-15.71-15.74-15.71-7.19,0-13.46,4.88-15.24,11.87-.23.92-1.09,1.55-2.03,1.51-.13,0-.26-.02-.39-.04h-.1Z"/>
</svg>