<?xml version="1.0" encoding="UTF-8"?>
<svg id="Layer_2" data-name="Layer 2" xmlns="http://www.w3.org/2000/svg" width="43.58" height="52.45" viewBox="0 0 43.58 52.45">
  <defs>
    <style>
      .cls-1, .cls-2 {
        fill: #5ab2e3;
      }

      .cls-2 {
        fill-rule: evenodd;
      }
    </style>
  </defs>
  <g id="outlined">
    <g id="snowpark_optimized_warehouse" data-name="snowpark optimized warehouse">
      <path class="cls-1" d="M43.06,17.29L22.69.33c-.53-.44-1.29-.44-1.81,0L.51,17.29c-.32.27-.51.67-.51,1.09v25.49c0,.78.63,1.42,1.42,1.42h6.11v.99c0,4.01,7.35,6.17,14.26,6.17s14.26-2.16,14.26-6.17v-.99h6.11c.78,0,1.42-.63,1.42-1.42v-25.49c0-.42-.19-.82-.51-1.09ZM33.8,43.87v2.41c0,1.59-4.68,3.91-12.01,3.91s-12.01-2.32-12.01-3.91v-17.08c2.71,1.79,7.46,2.72,12.01,2.72s9.3-.93,12.01-2.72v14.67ZM9.78,25.75c0-1.59,4.68-3.91,12.01-3.91s12.01,2.32,12.01,3.91-4.68,3.92-12.01,3.92-12.01-2.33-12.01-3.92ZM40.74,42.45h-4.69v-16.7c0-4.01-7.35-6.18-14.26-6.18s-14.26,2.17-14.26,6.18v16.7H2.83v-23.41L21.79,3.26l18.95,15.78v23.41Z"/>
      <path class="cls-2" d="M16.2,44.2c-.48.89.16,1.98,1.18,1.98h9.57c1.01,0,1.66-1.09,1.17-1.98l-4.65-8.51c-.26-.48-.73-.71-1.21-.7-.44.01-.87.23-1.13.67l-.35.6-.36.62M19.95,37.7l-1.2,2.08M22,36.16c.13-.23.46-.22.59,0l1.27,2.32-.2.16c-.08.06-.19.05-.24-.03l-.32-.43c-.32-.42-.89-.58-1.38-.39l-.87.35,1.15-1.99ZM19.91,39.78l.12-.21,2.06-.83c.07-.02.15,0,.19.06l.32.42c.4.54,1.17.63,1.68.21l.06-.05,2.89,5.29c.12.22-.04.5-.29.5h-9.57c-.26,0-.42-.28-.29-.5l.27-.47"/>
    </g>
  </g>
</svg>