<?xml version="1.0" encoding="UTF-8"?>
<svg id="Expanded_Icons" data-name="Expanded Icons" xmlns="http://www.w3.org/2000/svg" viewBox="0 0 64 64">
  <defs>
    <style>
      .cls-1 {
        fill: #29b5e8;
        stroke-width: 0px;
      }
    </style>
  </defs>
  <path class="cls-1" d="M32,4.51c-15.67,0-23.87,5.23-23.87,10.4v34.18c0,5.17,8.2,10.4,23.87,10.4s23.87-5.23,23.87-10.4V14.91c0-5.17-8.2-10.4-23.87-10.4ZM32,8.51c12.13,0,19.87,3.79,19.87,6.4s-7.74,6.4-19.87,6.4-19.87-3.79-19.87-6.4,7.74-6.4,19.87-6.4ZM32,55.49c-12.13,0-19.87-3.79-19.87-6.4v-28.23c3.88,2.59,10.54,4.45,19.87,4.45s15.99-1.86,19.87-4.45v28.23c0,2.61-7.74,6.4-19.87,6.4Z"/>
  <path class="cls-1" d="M42.6,37.7c.1-.38.05-.78-.15-1.12l-1.86-3.21c-.41-.7-1.31-.95-2.02-.54l-1.03.59c-.68-.53-1.42-.96-2.21-1.28v-1.19c0-.81-.66-1.48-1.48-1.48h-3.71c-.81,0-1.48.66-1.48,1.48v1.19c-.8.32-1.54.75-2.21,1.28l-1.03-.59c-.71-.41-1.61-.16-2.02.54l-1.86,3.21c-.2.34-.25.74-.15,1.12.1.38.35.7.69.9l1.03.59c-.06.42-.09.85-.09,1.28s.03.86.09,1.28l-1.03.59c-.34.19-.59.52-.69.9-.1.38-.05.79.15,1.12l1.86,3.21c.2.34.52.59.9.69.38.1.78.05,1.12-.15l1.03-.59c.68.53,1.42.96,2.21,1.28v1.19c0,.81.66,1.48,1.48,1.48h3.71c.81,0,1.48-.66,1.48-1.48v-1.19c.8-.32,1.54-.75,2.21-1.28l1.03.59c.34.2.74.25,1.12.15.38-.1.7-.35.9-.69l1.86-3.21c.2-.33.25-.74.15-1.12-.1-.38-.35-.7-.69-.9l-1.03-.59c.06-.42.09-.85.09-1.28s-.03-.86-.09-1.28l1.03-.59c.34-.19.59-.52.69-.9ZM39.68,38.15c-.28.16-.42.48-.36.8.1.5.15,1.01.15,1.52s-.05,1.02-.15,1.52c-.07.32.08.64.36.8l1.47.82-1.82,3.21-1.48-.86c-.28-.16-.63-.13-.87.09-.77.68-1.65,1.19-2.62,1.51-.31.1-.51.39-.51.71l.02,1.69-3.69.02v-1.71c0-.32-.21-.61-.51-.71-.97-.32-1.85-.83-2.62-1.51-.14-.13-.32-.19-.5-.19-.13,0-.26.03-.38.1l-1.45.86-1.87-3.18,1.48-.86c.28-.16.42-.48.36-.8-.1-.5-.15-1.01-.15-1.52s.05-1.02.15-1.51c.07-.32-.08-.64-.36-.8l-1.47-.82,1.82-3.21,1.48.86c.28.16.63.13.87-.09.77-.68,1.65-1.19,2.62-1.52.31-.1.51-.39.51-.71l-.02-1.69,3.69-.02v1.71c0,.32.21.61.51.71.97.32,1.85.83,2.62,1.52.24.22.59.25.87.09l1.45-.87,1.87,3.18-1.48.86Z"/>
  <path class="cls-1" d="M31.91,36.07c-2.38,0-4.31,1.93-4.31,4.31s1.93,4.31,4.31,4.31,4.31-1.93,4.31-4.31-1.93-4.31-4.31-4.31ZM31.91,43.19c-1.55,0-2.81-1.26-2.81-2.81s1.26-2.81,2.81-2.81,2.81,1.26,2.81,2.81-1.26,2.81-2.81,2.81Z"/>
</svg>