<?xml version="1.0" encoding="UTF-8"?>
<svg id="Expanded_Icons" data-name="Expanded Icons" xmlns="http://www.w3.org/2000/svg" viewBox="0 0 64 64">
  <defs>
    <style>
      .cls-1 {
        fill: #29b5e8;
        stroke-width: 0px;
      }
    </style>
  </defs>
  <path class="cls-1" d="M37.34,31.31l-1.67-.97,1.67-.97c.42-.24.59-.78.31-1.16-.24-.42-.78-.57-1.2-.33l-2.99,1.72c-.19.12-.33.31-.4.52,0,.07-.02.14-.02.21,0,.09.02.19.05.28.07.19.21.38.4.5l2.99,1.72c.42.24.97.09,1.2-.33s.09-.97-.33-1.2Z"/>
  <path class="cls-1" d="M35.76,34.05l-2.99-1.72c-.17-.09-.35-.12-.52-.09-.45.02-.83.42-.83.87v3.44c0,.5.4.87.87.87.5,0,.9-.4.9-.87v-1.93l1.67.97c.42.24.97.09,1.2-.33.26-.4.12-.94-.31-1.2Z"/>
  <path class="cls-1" d="M29.18,32.23c-.17-.02-.35.02-.52.12l-2.99,1.72c-.42.24-.57.78-.33,1.2s.78.57,1.2.33l1.67-.97v1.93c0,.5.4.87.9.87s.87-.4.87-.87v-3.47c0-.47-.35-.85-.8-.87Z"/>
  <path class="cls-1" d="M28.36,30.61c.02-.09.05-.19.05-.28,0-.07-.02-.14-.02-.21-.07-.21-.19-.4-.4-.52l-3.02-1.72c-.42-.24-.97-.09-1.2.33s-.09.97.33,1.2l1.67.97-1.67.97c-.42.24-.57.78-.33,1.2s.78.57,1.2.33l2.99-1.72c.21-.17.35-.33.4-.54Z"/>
  <path class="cls-1" d="M25.67,26.62l2.99,1.72c.17.09.33.12.52.12.45-.02.83-.42.83-.87v-3.44c0-.5-.4-.87-.87-.87-.5,0-.9.4-.9.87v1.93l-1.67-.97c-.42-.24-.97-.09-1.2.33-.26.4-.12.94.31,1.18Z"/>
  <path class="cls-1" d="M32.25,28.46c.17.02.35-.02.52-.12l2.99-1.72c.42-.24.57-.78.33-1.2-.24-.42-.78-.57-1.2-.33l-1.67.97v-1.91c0-.5-.4-.87-.9-.87s-.9.38-.9.87v3.44c0,.47.38.85.83.87Z"/>
  <path class="cls-1" d="M32.41,30.53v-.38c0-.07-.02-.12-.07-.17l-1.25-1.25s-.12-.07-.17-.07h-.38s-.12.02-.17.07l-1.25,1.25s-.07.12-.07.17v.38s.02.12.05.14l1.25,1.25s.12.07.17.07h.38s.12-.05.14-.07l1.25-1.25s.07-.09.12-.14ZM31.23,30.51l-.35.35s-.12.07-.17.07c-.07,0-.12-.02-.17-.07l-.35-.35s-.07-.12-.07-.17.02-.12.07-.17l.35-.35s.12-.07.17-.07c.07,0,.12.02.17.07l.35.35s.07.12.07.17-.02.12-.07.17Z"/>
  <path class="cls-1" d="M34.85,19.19v-.81h10.11c.42,1.55,1.83,2.71,3.52,2.71,2.02,0,3.66-1.64,3.66-3.66s-1.64-3.66-3.66-3.66c-1.83,0-3.34,1.36-3.61,3.12h-10.77c-.41,0-.75.34-.75.75v1.36c-.5-.05-.99-.07-1.48-.08v-3.28h10.11c.41,0,.75-.34.75-.75v-3.25c1.66-.35,2.91-1.82,2.91-3.58,0-2.02-1.64-3.66-3.66-3.66s-3.66,1.64-3.66,3.66c0,1.76,1.25,3.24,2.91,3.58v2.5h-10.11c-.41,0-.75.34-.75.75v4.07c-.54.03-1.08.08-1.61.13v-4.2c0-.41-.34-.75-.75-.75h-2.41v-2.63c1.66-.35,2.91-1.82,2.91-3.58,0-2.02-1.64-3.66-3.66-3.66s-3.66,1.64-3.66,3.66c0,1.76,1.25,3.24,2.91,3.58v3.38c0,.41.34.75.75.75h2.41v3.66c-.57.09-1.13.2-1.69.33l.03-2.11c0-.2-.08-.39-.22-.54-.14-.14-.33-.22-.53-.22h-8.59v-2.36c1.66-.35,2.91-1.82,2.91-3.58,0-2.02-1.64-3.66-3.66-3.66s-3.66,1.64-3.66,3.66c0,1.76,1.25,3.24,2.91,3.58v3.11c0,.41.34.75.75.75h8.58l-.02,1.76c-.93.27-1.83.59-2.69.95-.17,0-.34.06-.47.18-.01.01-.02.03-.03.04-1.69.75-3.24,1.67-4.55,2.74-.15,0-.3.03-.43.12-.18.13-.28.31-.31.51-.57.52-1.09,1.07-1.55,1.65-1.96,2.46-2.69,5.16-2.09,7.79.39,1.73,1.06,3.14,2,4.26.04.1.09.2.17.29.07.07.15.12.24.16,2.02,2.04,5.14,2.94,9.53,2.77.07,0,.15,0,.22,0v1.87h-5.36c-.41,0-.75.34-.75.75v2.62c-1.66.35-2.91,1.82-2.91,3.58,0,2.02,1.64,3.66,3.66,3.66s3.66-1.64,3.66-3.66c0-1.76-1.25-3.24-2.91-3.58v-1.87h5.36c.41,0,.75-.34.75-.75v-2.65c.53,0,1.09,0,1.66.02v11c-1.71.31-3.01,1.8-3.01,3.6,0,2.02,1.64,3.66,3.66,3.66s3.66-1.64,3.66-3.66c0-1.72-1.2-3.17-2.81-3.55v-10.99c.55.03,1.08.07,1.6.11v8.16c0,.41.34.75.75.75h7.43v1.98c-1.66.35-2.91,1.82-2.91,3.58,0,2.02,1.64,3.66,3.66,3.66s3.66-1.64,3.66-3.66c0-1.76-1.25-3.24-2.91-3.58v-2.73c0-.41-.34-.75-.75-.75h-7.43v-7.22c2.54.42,3.75,1.3,3.75,4.45,0,.69.56,1.25,1.25,1.25h4.61c.68,0,1.24-.54,1.25-1.23,0,0,.04-2.21.04-2.93,0-1.3.82-2.36,1.82-2.36,4.34,0,7.04-2.56,7.04-6.68,0-7.03-8.76-13.69-16.78-15.12ZM48.48,15.26c1.19,0,2.16.97,2.16,2.16s-.97,2.16-2.16,2.16-2.16-.97-2.16-2.16.97-2.16,2.16-2.16ZM39.83,8.05c0-1.19.97-2.16,2.16-2.16s2.16.97,2.16,2.16-.97,2.16-2.16,2.16-2.16-.97-2.16-2.16ZM22.7,7.91c0-1.19.97-2.16,2.16-2.16s2.16.97,2.16,2.16-.97,2.16-2.16,2.16-2.16-.97-2.16-2.16ZM13.36,10.8c0-1.19.97-2.16,2.16-2.16s2.16.97,2.16,2.16-.97,2.16-2.16,2.16-2.16-.97-2.16-2.16ZM20.93,50.29c0,1.19-.97,2.16-2.16,2.16s-2.16-.97-2.16-2.16.97-2.16,2.16-2.16,2.16.97,2.16,2.16ZM30.09,56.05c0,1.19-.97,2.16-2.16,2.16s-2.16-.97-2.16-2.16.97-2.16,2.16-2.16,2.16.97,2.16,2.16ZM41.48,56.09c0,1.19-.97,2.16-2.16,2.16s-2.16-.97-2.16-2.16.97-2.16,2.16-2.16,2.16.97,2.16,2.16ZM44.6,38.49c-1.35,0-2.53.68-3.31,1.74-1.05-.78-2.22-1.75-3.01-2.73-.26-.32-.73-.38-1.05-.12-.32.26-.38.73-.12,1.05.93,1.17,2.3,2.27,3.47,3.13-.19.55-.3,1.15-.3,1.78,0,.35,0,1.04-.02,1.66h-2.19c-.47-4.36-3.46-5.37-6.39-5.76-2.48-.33-5.69-.36-7.87-.28-3.77.13-5.98-.58-7.34-1.73.88-.87,1.83-1.6,3.02-1.6.41,0,.75-.34.75-.75s-.34-.75-.75-.75c-.55,0-1.06.1-1.52.28-.73-1.21-.87-2.48-.59-3.19.15-.39-.04-.82-.43-.97-.39-.15-.82.04-.97.43-.48,1.25-.21,2.96.67,4.45-.43.3-.82.65-1.18,1-.54-.81-.85-1.74-1.07-2.7-.54-2.36.58-4.39,1.6-5.68.31-.39.66-.76,1.03-1.12.48.5.97.94,1.42,1.35,1.21,1.09,2.16,1.95,2.35,3.34.05.38.37.65.74.65.03,0,.07,0,.1,0,.41-.06.7-.43.64-.84-.26-1.93-1.51-3.06-2.83-4.25-.43-.39-.87-.78-1.29-1.22,1.06-.83,2.28-1.55,3.63-2.16.2.4.29.75.25,1.03-.03.18-.12.44-.58.71-.36.21-.48.67-.27,1.03.14.24.39.37.65.37.13,0,.26-.03.38-.1.93-.55,1.22-1.27,1.3-1.77.1-.62-.06-1.24-.34-1.82,2.62-.97,5.59-1.52,8.64-1.52,2.82,0,5.81.89,8.51,2.29.06,1.27-.18,2.67-.89,3.6-.25.33-.19.8.14,1.05.14.1.3.15.45.15.23,0,.45-.1.6-.3.79-1.04,1.12-2.39,1.18-3.66,1.51.93,2.89,2.02,4.03,3.19-.73,1.32-2.38,3.04-6.03,3.34-.41.03-.72.4-.69.81.03.39.36.69.75.69.02,0,.04,0,.06,0,.18-.01.35-.05.53-.07.03.76.1,1.86.24,2.55.07.36.39.6.73.6.05,0,.1,0,.15-.02.41-.08.67-.48.58-.88-.14-.66-.2-1.83-.22-2.53,2.15-.56,3.86-1.71,4.91-3.31,1.41,1.76,2.27,3.63,2.27,5.41,0,2.77-1.53,4.18-4.54,4.18Z"/>
</svg>