<?xml version="1.0" encoding="UTF-8"?>
<svg id="Expanded_Icons" data-name="Expanded Icons" xmlns="http://www.w3.org/2000/svg" viewBox="0 0 64 64">
  <defs>
    <style>
      .cls-1 {
        fill: #29b5e8;
        stroke-width: 0px;
      }
    </style>
  </defs>
  <path class="cls-1" d="M57.55,11.85H6.4c-1.1,0-2,.9-2,2v26.6c0,1.1.9,2,2,2h51.15c1.1,0,2-.9,2-2V13.85c0-1.1-.9-2-2-2ZM8.4,25c4.65-.83,8.31-4.5,9.15-9.15h28.86c.83,4.65,4.5,8.31,9.15,9.15v4.31c-4.65.83-8.31,4.5-9.15,9.15h-28.86c-.83-4.65-4.5-8.31-9.15-9.15v-4.31ZM55.55,22.45c-3.27-.76-5.84-3.33-6.6-6.6h6.6v6.6ZM15,15.85c-.76,3.27-3.33,5.84-6.6,6.6v-6.6h6.6ZM8.4,31.86c3.27.76,5.84,3.33,6.6,6.6h-6.6v-6.6ZM48.96,38.45c.76-3.27,3.33-5.84,6.6-6.6v6.6h-6.6Z"/>
  <path class="cls-1" d="M55.22,44.95H8.74c-.69,0-1.25.56-1.25,1.25s.56,1.25,1.25,1.25h46.48c.69,0,1.25-.56,1.25-1.25s-.56-1.25-1.25-1.25Z"/>
  <path class="cls-1" d="M31.98,36.88c5.36,0,9.73-4.36,9.73-9.73s-4.36-9.73-9.73-9.73-9.73,4.36-9.73,9.73,4.36,9.73,9.73,9.73ZM31.98,19.93c3.98,0,7.23,3.24,7.23,7.23s-3.24,7.23-7.23,7.23-7.23-3.24-7.23-7.23,3.24-7.23,7.23-7.23Z"/>
  <circle class="cls-1" cx="18.09" cy="27.01" r="2.05"/>
  <path class="cls-1" d="M45.72,29.05c1.13,0,2.05-.92,2.05-2.05s-.92-2.05-2.05-2.05-2.05.92-2.05,2.05.92,2.05,2.05,2.05Z"/>
  <path class="cls-1" d="M51.37,49.57H12.58c-.69,0-1.25.56-1.25,1.25s.56,1.25,1.25,1.25h38.79c.69,0,1.25-.56,1.25-1.25s-.56-1.25-1.25-1.25Z"/>
</svg>