<?xml version="1.0" encoding="UTF-8"?>
<svg id="Expanded_Icons" data-name="Expanded Icons" xmlns="http://www.w3.org/2000/svg" viewBox="0 0 64 64">
  <defs>
    <style>
      .cls-1 {
        fill: #29b5e8;
        stroke-width: 0px;
      }
    </style>
  </defs>
  <path class="cls-1" d="M32.56,22.86c0,.33.27.6.6.6h24.24c.33,0,.6-.27.6-.6v-2.41c0-.33-.27-.6-.6-.6h-24.24c-.33,0-.6.27-.6.6v2.41Z"/>
  <path class="cls-1" d="M32.56,43.92c0,.33.27.6.6.6h24.24c.33,0,.6-.27.6-.6v-2.44c0-.33-.27-.6-.6-.6h-24.24c-.33,0-.6.27-.6.6v2.44Z"/>
  <path class="cls-1" d="M15.03,49.98l11.58-10.68c.25-.23.26-.63.02-.87l-1.93-1.93c-.23-.23-.59-.24-.83-.02l-10.04,9.2c-.22.2-.54.21-.78.03l-4.55-3.54c-.26-.2-.63-.16-.84.1l-1.53,1.91c-.21.26-.17.63.08.84l6.03,5.02c.82.68,2.01.65,2.79-.07Z"/>
  <path class="cls-1" d="M15.03,27.11l11.58-10.68c.25-.23.26-.63.02-.87l-1.93-1.93c-.23-.23-.59-.24-.83-.02l-10.04,9.2c-.22.2-.54.21-.78.03l-4.55-3.54c-.26-.2-.63-.16-.84.1l-1.53,1.91c-.21.26-.17.63.08.84l6.03,5.02c.82.68,2.01.65,2.79-.07Z"/>
</svg>