<?xml version="1.0" encoding="UTF-8"?>
<svg id="Expanded_Icons" data-name="Expanded Icons" xmlns="http://www.w3.org/2000/svg" viewBox="0 0 64 64">
  <defs>
    <style>
      .cls-1 {
        fill: #29b5e8;
        stroke-width: 0px;
      }
    </style>
  </defs>
  <path class="cls-1" d="M32,4.5c-13.12,0-27.08,4.08-27.08,11.63v31.74c0,7.55,13.95,11.63,27.08,11.63s27.08-4.08,27.08-11.63v-31.74c0-7.55-13.95-11.63-27.08-11.63ZM32,8.5c14.3,0,23.08,4.44,23.08,7.63s-8.78,7.63-23.08,7.63-23.08-4.44-23.08-7.63,8.78-7.63,23.08-7.63ZM32,55.5c-14.3,0-23.08-4.44-23.08-7.63v-25.45c5.08,3.49,14.26,5.33,23.08,5.33s17.99-1.84,23.08-5.33v25.45c0,3.19-8.78,7.63-23.08,7.63Z"/>
</svg>