<?xml version="1.0" encoding="UTF-8"?>
<svg id="Expanded_Icons" data-name="Expanded Icons" xmlns="http://www.w3.org/2000/svg" viewBox="0 0 64 64">
  <defs>
    <style>
      .cls-1 {
        fill: #29b5e8;
        fill-rule: evenodd;
        stroke-width: 0px;
      }
    </style>
  </defs>
  <path class="cls-1" d="M18.34,8.02c-3.93,1.41-7.9,4.08-7.9,8.81v28.17c0,5.51,3.54,8.83,7.77,10.66,4.16,1.79,9.35,2.34,13.78,2.34s9.62-.55,13.78-2.34c4.23-1.82,7.77-5.15,7.77-10.66v-28.17c0-4.84-3.94-7.51-7.91-8.9-4.1-1.44-9.22-1.93-13.64-1.93s-9.56.55-13.66,2.02ZM19.79,12.1c-3.61,1.3-5.04,2.96-5.04,4.73,0,1.9,1.45,3.56,5.02,4.81,3.44,1.21,8.02,1.69,12.22,1.69s8.78-.48,12.22-1.69c3.57-1.25,5.02-2.92,5.02-4.81s-1.45-3.56-5.02-4.81c-3.44-1.21-8.02-1.69-12.22-1.69s-8.76.53-12.21,1.77ZM14.76,45c0,3.15,1.85,5.25,5.16,6.68,3.38,1.46,7.89,1.99,12.08,1.99s8.7-.53,12.08-1.99c3.31-1.43,5.16-3.52,5.16-6.68v-20.98c-1.12.71-2.36,1.28-3.6,1.71-4.1,1.44-9.22,1.93-13.64,1.93s-9.54-.49-13.64-1.93c-1.24-.44-2.48-1-3.6-1.71v20.98Z"/>
</svg>