<?xml version="1.0" encoding="UTF-8"?>
<svg id="Expanded_Icons" data-name="Expanded Icons" xmlns="http://www.w3.org/2000/svg" viewBox="0 0 64 64">
  <defs>
    <style>
      .cls-1 {
        fill: #29b5e8;
        fill-rule: evenodd;
      }

      .cls-1, .cls-2, .cls-3 {
        stroke-width: 0px;
      }

      .cls-2 {
        fill: #11567f;
      }

      .cls-3 {
        fill: #fff;
      }
    </style>
  </defs>
  <rect class="cls-2" x="10.22" y="43.03" width="43.56" height="16.97" rx="3.96" ry="3.96"/>
  <path class="cls-3" d="M19.77,49.25v4.53h-.96v-4.53h.96Z"/>
  <path class="cls-3" d="M24.68,50.84h-.97c-.02-.13-.05-.24-.11-.33-.05-.1-.12-.18-.21-.25-.09-.07-.18-.12-.3-.16-.11-.04-.23-.06-.36-.06-.23,0-.44.06-.61.17-.17.11-.31.28-.4.5-.1.22-.14.49-.14.8s.05.59.14.81c.1.22.23.39.41.5s.37.17.6.17c.13,0,.25-.02.36-.05.11-.03.21-.08.29-.15.09-.07.16-.15.21-.24.06-.09.1-.2.12-.32h.97c-.03.21-.09.41-.19.61-.1.19-.23.36-.4.51-.17.15-.37.27-.6.36-.23.09-.49.13-.78.13-.4,0-.76-.09-1.08-.27-.32-.18-.57-.45-.75-.79-.18-.35-.27-.77-.27-1.26s.09-.91.28-1.26c.19-.35.44-.61.76-.79.32-.18.68-.27,1.07-.27.26,0,.51.04.73.11.23.07.42.18.6.32.17.14.32.31.42.51.11.2.18.44.21.7Z"/>
  <path class="cls-3" d="M25.49,53.78v-4.53h3.05v.79h-2.09v1.08h1.94v.79h-1.94v1.08h2.1v.79h-3.06Z"/>
  <path class="cls-3" d="M29.42,53.78v-4.53h1.81c.33,0,.61.05.83.15.22.1.39.24.5.41.11.17.17.37.17.6,0,.18-.04.33-.11.47-.07.13-.17.24-.29.33-.12.08-.26.14-.42.18v.04c.17,0,.33.06.48.15.15.09.27.22.37.38.09.16.14.35.14.57,0,.24-.06.45-.18.64-.12.19-.29.34-.52.44-.23.11-.52.16-.86.16h-1.93ZM30.38,53h.78c.27,0,.46-.05.58-.15.12-.1.18-.24.18-.41,0-.13-.03-.24-.09-.33-.06-.1-.15-.17-.26-.23-.11-.05-.24-.08-.4-.08h-.8v1.2ZM30.38,51.15h.71c.13,0,.25-.02.35-.07.1-.05.18-.11.24-.2.06-.09.09-.19.09-.31,0-.16-.06-.3-.17-.4-.11-.1-.28-.15-.49-.15h-.73v1.12Z"/>
  <path class="cls-3" d="M33.66,53.78v-4.53h3.05v.79h-2.09v1.08h1.94v.79h-1.94v1.08h2.1v.79h-3.06Z"/>
  <path class="cls-3" d="M37.59,53.78v-4.53h1.79c.34,0,.63.06.88.18.24.12.43.29.55.51.13.22.19.48.19.78s-.06.56-.19.78c-.13.22-.32.38-.56.49-.24.11-.54.17-.89.17h-1.2v-.77h1.04c.18,0,.33-.03.46-.08.12-.05.21-.13.27-.23.06-.1.09-.22.09-.37s-.03-.28-.09-.38c-.06-.1-.15-.18-.27-.23-.12-.05-.27-.08-.46-.08h-.65v3.74h-.96ZM40.04,51.72l1.12,2.06h-1.06l-1.1-2.06h1.03Z"/>
  <path class="cls-3" d="M44.8,50.72c-.03-.11-.07-.2-.13-.29-.06-.08-.12-.15-.21-.21-.08-.06-.17-.1-.27-.13-.1-.03-.21-.05-.34-.05-.23,0-.43.06-.61.17-.17.11-.31.28-.41.5-.1.22-.15.48-.15.8s.05.58.14.8c.1.22.23.39.41.51.18.11.38.17.62.17.22,0,.4-.04.55-.11.15-.08.27-.19.35-.33.08-.14.12-.31.12-.5l.19.03h-1.17v-.72h1.89v.57c0,.4-.08.74-.25,1.03-.17.28-.4.5-.69.66-.29.15-.63.23-1.01.23-.42,0-.8-.09-1.12-.28-.32-.19-.57-.46-.75-.8-.18-.35-.27-.76-.27-1.24,0-.37.05-.69.16-.98.11-.29.26-.53.45-.73.19-.2.42-.35.67-.46.26-.1.53-.16.83-.16.26,0,.49.04.72.11.22.07.42.18.59.31.17.14.31.3.42.48.11.19.18.39.21.61h-.97Z"/>
  <path class="cls-1" d="M19.27,4c-4.06,0-7.35,3.29-7.35,7.35v19.8c0,4.06,3.29,7.35,7.35,7.35h26.43c4.06,0,7.35-3.29,7.35-7.35V11.35c0-4.06-3.29-7.35-7.35-7.35h-26.43ZM15.31,11.35c0-2.19,1.77-3.96,3.96-3.96h26.43c2.19,0,3.96,1.77,3.96,3.96v1.83H15.31v-1.83ZM15.31,16.57v14.58c0,2.19,1.77,3.96,3.96,3.96h26.43c2.19,0,3.96-1.77,3.96-3.96v-14.58H15.31Z"/>
</svg>