<?xml version="1.0" encoding="UTF-8"?>
<svg id="Expanded_Icons" data-name="Expanded Icons" xmlns="http://www.w3.org/2000/svg" viewBox="0 0 64 64">
  <defs>
    <style>
      .cls-1 {
        fill: #29b5e8;
        stroke-width: 0px;
      }
    </style>
  </defs>
  <path class="cls-1" d="M30.06,35.21c-.2-.03-.42.03-.62.14l-3.59,2.06c-.51.28-.68.93-.4,1.44.28.51.93.68,1.44.4l2.01-1.16v2.32c0,.59.48,1.05,1.07,1.05s1.05-.48,1.05-1.05v-4.16c0-.57-.42-1.02-.96-1.05Z"/>
  <path class="cls-1" d="M34.7,32.69c0,.08-.03.17-.03.25,0,.11.03.23.06.34.08.23.25.45.48.59l3.59,2.06c.51.28,1.16.11,1.44-.4.28-.51.11-1.16-.4-1.44l-2.01-1.16,2.01-1.16c.51-.28.71-.93.37-1.39-.28-.51-.93-.68-1.44-.4l-3.59,2.06c-.23.14-.4.37-.48.62Z"/>
  <path class="cls-1" d="M33.74,30.68c.2.03.42-.03.62-.14l3.59-2.06c.51-.28.68-.93.4-1.44-.28-.51-.93-.68-1.44-.4l-2.01,1.16v-2.29c0-.59-.48-1.05-1.07-1.05s-1.07.45-1.07,1.05v4.13c0,.57.45,1.02.99,1.05Z"/>
  <path class="cls-1" d="M28.93,25.51v2.32l-2.01-1.16c-.51-.28-1.16-.11-1.44.4-.31.48-.14,1.13.37,1.41l3.59,2.06c.2.11.4.14.62.14.54-.03.99-.51.99-1.05v-4.13c0-.59-.48-1.05-1.05-1.05-.59,0-1.07.48-1.07,1.05Z"/>
  <path class="cls-1" d="M29.07,33.26c.03-.11.06-.23.06-.34,0-.08-.03-.17-.03-.25-.08-.25-.23-.48-.48-.62l-3.62-2.06c-.51-.28-1.16-.11-1.44.4-.28.51-.11,1.16.4,1.44l2.01,1.16-2.01,1.16c-.51.28-.68.93-.4,1.44.28.51.93.68,1.44.4l3.59-2.06c.25-.2.42-.4.48-.65Z"/>
  <path class="cls-1" d="M33.79,41.43c.59,0,1.07-.48,1.07-1.05v-2.32l2.01,1.16c.51.28,1.16.11,1.44-.4.31-.48.14-1.13-.37-1.44l-3.59-2.06c-.2-.11-.42-.14-.62-.11-.54.03-.99.51-.99,1.05v4.13c0,.59.48,1.05,1.05,1.05Z"/>
  <path class="cls-1" d="M33.93,33.17v-.45c0-.08-.03-.14-.08-.2l-1.5-1.5c-.06-.06-.14-.08-.2-.08h-.45c-.06,0-.14.03-.2.08l-1.5,1.5c-.06.06-.08.14-.08.2v.45c0,.06.03.14.06.17l1.5,1.5c.06.06.14.08.2.08h.45c.06,0,.14-.06.17-.08l1.5-1.5c.06-.03.08-.11.14-.17ZM32.52,33.14l-.42.42c-.06.06-.14.08-.2.08-.08,0-.14-.03-.2-.08l-.42-.42c-.06-.06-.08-.14-.08-.2s.03-.14.08-.2l.42-.42c.06-.06.14-.08.2-.08.08,0,.14.03.2.08l.42.42c.06.06.08.14.08.2s-.03.14-.08.2Z"/>
  <path class="cls-1" d="M31.21,20.18v-4.67c-2.99,2.24-7.46,3.62-14.92,3.8v13.76h2.77s0-.05,0-.08c0-6.86,5.38-12.45,12.15-12.81Z"/>
  <path class="cls-1" d="M32.98,45.78v5.59c8.31-2.15,13.68-7.92,14.53-15.01v-1.61h-2.9c-.81,5.91-5.63,10.53-11.63,11.03Z"/>
  <path class="cls-1" d="M53.6,12.41c-.25-.24-.59-.36-.93-.34-10.58.61-15.17-1.72-19.92-6.25-.48-.46-1.24-.46-1.72,0-4.76,4.52-9.35,6.86-19.92,6.25-.34-.02-.68.1-.93.34-.25.24-.39.56-.39.91v23.05c0,12.03,13.04,20.29,21.86,22.08.08.02.17.03.25.03s.17,0,.25-.03c8.82-1.8,21.86-10.06,21.86-22.08V13.32c0-.34-.14-.67-.39-.91ZM51.49,36.37c0,10.53-11.61,17.85-19.61,19.58-8-1.73-19.61-9.06-19.61-19.58V14.63c9.91.36,14.93-1.99,19.61-6.2,4.68,4.2,9.7,6.56,19.61,6.2v21.74Z"/>
</svg>