<?xml version="1.0" encoding="UTF-8"?>
<svg id="Expanded_Icons" data-name="Expanded Icons" xmlns="http://www.w3.org/2000/svg" viewBox="0 0 64 64">
  <defs>
    <style>
      .cls-1 {
        fill: #2ab5e8;
        fill-rule: evenodd;
        stroke-width: 0px;
      }
    </style>
  </defs>
  <g id="Layer_1-2" data-name="Layer 1-2">
    <g id="ICON-Security">
      <path class="cls-1" d="M35.8,4h-7.62c-7.22.01-13.07,5.86-13.07,13.08v9.58h-.18c-4.04.01-7.31,3.29-7.31,7.34v18.67c0,4.04,3.27,7.32,7.31,7.34h34.23c4.01-.06,7.22-3.33,7.22-7.34v-18.68c0-4.01-3.22-7.27-7.22-7.34h-.18v-9.57c-.02-7.23-5.89-13.09-13.12-13.08h-.06ZM19.55,17.08c0-4.81,3.9-8.71,8.71-8.71h7.62c4.81,0,8.71,3.9,8.71,8.71v9.58h-25.11l.07-9.58ZM49.15,31.1c1.64,0,2.96,1.33,2.96,2.96v18.61c0,1.64-1.33,2.96-2.96,2.96H14.92c-1.64,0-2.96-1.33-2.96-2.96v-18.68c.04-1.61,1.36-2.89,2.96-2.89h34.23Z"/>
      <path class="cls-1" d="M31.85,50.37c2.73-.04,4.93-2.24,4.97-4.97v-4.15c-.02-2.73-2.23-4.95-4.97-4.97-2.73-.02-4.96,2.17-4.98,4.89v4.23c0,2.74,2.22,4.97,4.97,4.97h.02ZM30.35,41.25c.03-.79.67-1.42,1.46-1.43.81.02,1.46.67,1.48,1.48v4.14c-.02.81-.67,1.47-1.48,1.5-.82,0-1.48-.66-1.48-1.48l.02-4.21h0Z"/>
    </g>
  </g>
</svg>