<?xml version="1.0" encoding="UTF-8"?>
<svg id="Expanded_Icons" data-name="Expanded Icons" xmlns="http://www.w3.org/2000/svg" viewBox="0 0 64 64">
  <defs>
    <style>
      .cls-1 {
        fill: #29b5e8;
      }

      .cls-1, .cls-2, .cls-3 {
        stroke-width: 0px;
      }

      .cls-2 {
        fill: #11567f;
      }

      .cls-3 {
        fill: #fff;
      }
    </style>
  </defs>
  <path class="cls-1" d="M14,7.16c.5-.15,1.03-.23,1.58-.23h2.15c.32,0,.59-.26.59-.59v-1.76c0-.32-.26-.59-.59-.59h-2.15c-.94,0-1.85.15-2.71.44-.31.1-.45.45-.32.75l.67,1.62c.12.3.47.44.78.35Z"/>
  <path class="cls-1" d="M28.68,6.93c.32,0,.59-.26.59-.59v-1.76c0-.32-.26-.59-.59-.59h-4.3c-.32,0-.59.26-.59.59v1.76c0,.32.26.59.59.59h4.3Z"/>
  <path class="cls-1" d="M39.62,6.93c.32,0,.59-.26.59-.59v-1.76c0-.32-.26-.59-.59-.59h-4.3c-.32,0-.59.26-.59.59v1.76c0,.32.26.59.59.59h4.3Z"/>
  <path class="cls-1" d="M46.27,6.93h2.15c.55,0,1.08.08,1.58.23.31.09.65-.05.78-.35l.67-1.62c.12-.3-.02-.64-.32-.75-.85-.29-1.76-.44-2.71-.44h-2.15c-.32,0-.59.26-.59.59v1.76c0,.32.26.59.59.59Z"/>
  <path class="cls-1" d="M10.24,10.92c.09-.31-.05-.65-.35-.78l-1.63-.67c-.3-.12-.64.02-.75.32-.29.85-.44,1.76-.44,2.71v2.1c0,.32.26.59.59.59h1.76c.32,0,.59-.26.59-.59v-2.1c0-.55.08-1.08.23-1.58Z"/>
  <path class="cls-1" d="M53.76,10.92c.15.5.23,1.03.23,1.58v2.1c0,.32.26.59.59.59h1.76c.32,0,.59-.26.59-.59v-2.1c0-.94-.15-1.85-.44-2.71-.1-.31-.45-.45-.75-.32l-1.62.67c-.3.12-.44.47-.35.78Z"/>
  <path class="cls-1" d="M10.01,21.15c0-.32-.26-.59-.59-.59h-1.76c-.32,0-.59.26-.59.59v4.2c0,.32.26.59.59.59h1.76c.32,0,.59-.26.59-.59v-4.2Z"/>
  <path class="cls-1" d="M53.99,25.35c0,.32.26.59.59.59h1.76c.32,0,.59-.26.59-.59v-4.2c0-.32-.26-.59-.59-.59h-1.76c-.32,0-.59.26-.59.59v4.2Z"/>
  <path class="cls-1" d="M10.01,31.9c0-.32-.26-.59-.59-.59h-1.76c-.32,0-.59.26-.59.59v4.2c0,.32.26.59.59.59h1.76c.32,0,.59-.26.59-.59v-4.2Z"/>
  <path class="cls-1" d="M53.99,36.1c0,.32.26.59.59.59h1.76c.32,0,.59-.26.59-.59v-4.2c0-.32-.26-.59-.59-.59h-1.76c-.32,0-.59.26-.59.59v4.2Z"/>
  <path class="cls-1" d="M10.01,42.65c0-.32-.26-.59-.59-.59h-1.76c-.32,0-.59.26-.59.59v2.1c0,.94.15,1.85.44,2.71.1.31.45.45.75.32l1.63-.67c.3-.12.44-.47.35-.78-.15-.5-.23-1.03-.23-1.58v-2.1Z"/>
  <path class="cls-1" d="M53.99,42.65v2.1c0,.55-.08,1.08-.23,1.58-.09.31.05.65.35.78l1.62.67c.3.12.64-.02.75-.32.29-.85.44-1.76.44-2.71v-2.1c0-.32-.26-.59-.59-.59h-1.76c-.32,0-.59.26-.59.59Z"/>
  <path class="cls-1" d="M26.14,19.25c0-.54.47-1.19,1.64-1.75,1.13-.54,2.72-.89,4.52-.89s3.39.35,4.52.89c1.17.56,1.64,1.22,1.64,1.75s-.47,1.19-1.64,1.75c-1.13.54-2.72.89-4.52.89s-3.39-.35-4.52-.89c-1.17-.56-1.64-1.22-1.64-1.75Z"/>
  <path class="cls-1" d="M27.27,22.06c-.41-.2-.8-.43-1.14-.7v8.15c0,1.62,2.76,2.93,6.16,2.93s6.16-1.31,6.16-2.93v-8.15c-.34.27-.72.5-1.14.7-1.32.63-3.09,1-5.02,1s-3.71-.37-5.02-1Z"/>
  <path class="cls-2" d="M16.17,41.24c-2.27,0-4.1,1.84-4.1,4.1v10.55c0,2.27,1.84,4.1,4.1,4.1h31.66c2.27,0,4.1-1.84,4.1-4.1v-10.55c0-2.27-1.84-4.1-4.1-4.1h-31.66Z"/>
  <path class="cls-3" d="M18.65,52.96v-4.69h3.11v.82h-2.11v1.12h1.91v.82h-1.91v1.94h-.99Z"/>
  <path class="cls-3" d="M23.41,48.27v4.69h-.99v-4.69h.99Z"/>
  <path class="cls-3" d="M28.15,48.27v4.69h-.86l-2.04-2.95h-.03v2.95h-.99v-4.69h.87l2.02,2.95h.04v-2.95h.99Z"/>
  <path class="cls-3" d="M29.78,52.96h-1.06l1.62-4.69h1.28l1.62,4.69h-1.06l-1.18-3.62h-.04l-1.18,3.62ZM29.71,51.12h2.51v.77h-2.51v-.77Z"/>
  <path class="cls-3" d="M37.72,48.27v4.69h-.86l-2.04-2.95h-.03v2.95h-.99v-4.69h.87l2.02,2.95h.04v-2.95h.99Z"/>
  <path class="cls-3" d="M42.68,49.91h-1c-.02-.13-.06-.25-.11-.35-.06-.1-.13-.19-.22-.26-.09-.07-.19-.13-.31-.16-.11-.04-.24-.06-.37-.06-.24,0-.45.06-.63.18-.18.12-.32.29-.42.52-.1.23-.15.5-.15.83s.05.62.15.84c.1.23.24.4.42.52.18.12.39.17.63.17.13,0,.26-.02.37-.05.11-.04.22-.09.3-.15.09-.07.16-.15.22-.25.06-.1.1-.21.12-.33h1c-.03.22-.09.43-.19.63-.1.2-.24.38-.41.53-.17.16-.38.28-.62.37-.24.09-.51.14-.81.14-.42,0-.79-.09-1.12-.28-.33-.19-.59-.46-.78-.82-.19-.36-.28-.79-.28-1.3s.1-.95.29-1.31c.19-.36.45-.63.78-.82.33-.19.7-.28,1.11-.28.27,0,.52.04.76.11.23.08.44.19.62.33.18.15.33.32.44.53.11.21.19.45.22.72Z"/>
  <path class="cls-3" d="M43.39,52.96v-4.69h3.16v.82h-2.17v1.12h2.01v.82h-2.01v1.12h2.18v.82h-3.17Z"/>
</svg>