<?xml version="1.0" encoding="UTF-8"?>
<svg id="Expanded_Icons" data-name="Expanded Icons" xmlns="http://www.w3.org/2000/svg" viewBox="0 0 64 64">
  <defs>
    <style>
      .cls-1 {
        fill-rule: evenodd;
      }

      .cls-1, .cls-2 {
        fill: #29b5e8;
        stroke-width: 0px;
      }
    </style>
  </defs>
  <path class="cls-2" d="M42.54,39.44c.34,0,.61-.27.61-.61v-2.45c0-.34-.27-.61-.61-.61h-21.08c-.34,0-.61.27-.61.61v2.45c0,.34.27.61.61.61h21.08Z"/>
  <path class="cls-1" d="M58,42.61v-12.07c0-1.9-.68-3.73-1.91-5.18l-7.85-9.16c-1.51-1.76-3.72-2.78-6.04-2.78h-20.4c-2.32,0-4.53,1.01-6.04,2.78l-7.85,9.16c-1.24,1.44-1.91,3.28-1.91,5.18v12.07c0,4.39,3.56,7.95,7.95,7.95h36.09c4.39,0,7.95-3.56,7.95-7.95ZM21.8,17.11c-1.25,0-2.44.55-3.25,1.5l-5.15,6.01c.18-.01.37-.02.55-.02h36.09c.18,0,.37,0,.55.02l-5.15-6.01c-.81-.95-2-1.5-3.25-1.5h-20.4ZM9.67,32.54c0-2.37,1.92-4.28,4.28-4.28h36.09c2.37,0,4.28,1.92,4.28,4.28v10.07c0,2.37-1.92,4.28-4.28,4.28H13.95c-2.37,0-4.28-1.92-4.28-4.28v-10.07Z"/>
</svg>