<?xml version="1.0" encoding="UTF-8"?>
<svg id="Expanded_Icons" data-name="Expanded Icons" xmlns="http://www.w3.org/2000/svg" viewBox="0 0 64 64">
  <defs>
    <style>
      .cls-1 {
        fill: #29b5e8;
        stroke-width: 0px;
      }
    </style>
  </defs>
  <path class="cls-1" d="M5.44,22.05c.69,0,1.25-.56,1.25-1.25v-5.14h5.14c.69,0,1.25-.56,1.25-1.25s-.56-1.25-1.25-1.25h-6.39c-.69,0-1.25.56-1.25,1.25v6.39c0,.69.56,1.25,1.25,1.25Z"/>
  <path class="cls-1" d="M58.37,13.16h-6.39c-.69,0-1.25.56-1.25,1.25s.56,1.25,1.25,1.25h5.14v5.14c0,.69.56,1.25,1.25,1.25s1.25-.56,1.25-1.25v-6.39c0-.69-.56-1.25-1.25-1.25Z"/>
  <path class="cls-1" d="M11.83,48.33h-5.14v-5.14c0-.69-.56-1.25-1.25-1.25s-1.25.56-1.25,1.25v6.39c0,.69.56,1.25,1.25,1.25h6.39c.69,0,1.25-.56,1.25-1.25s-.56-1.25-1.25-1.25Z"/>
  <path class="cls-1" d="M58.37,41.95c-.69,0-1.25.56-1.25,1.25v5.14h-5.14c-.69,0-1.25.56-1.25,1.25s.56,1.25,1.25,1.25h6.39c.69,0,1.25-.56,1.25-1.25v-6.39c0-.69-.56-1.25-1.25-1.25Z"/>
  <path class="cls-1" d="M57.34,33.32c.05-.08.1-.16.14-.24l.14-.29c.32-.65.26-1.42-.14-2.01-5.23-7.66-15.46-12.28-26.67-11.98-10.64.25-19.67,4.76-24.16,12.06-.19.31-.3.68-.3,1.05v.29c0,.37.1.73.3,1.05,4.49,7.3,13.5,11.81,24.1,12.06.31,0,.61.01.92.01,10.81,0,20.59-4.55,25.68-11.99ZM30.84,41.3c-8.77-.21-16.23-3.65-20.19-9.25,3.97-5.61,11.44-9.04,20.25-9.25,9.31-.23,17.8,3.26,22.48,9.16-4.65,6.01-13.18,9.55-22.54,9.34Z"/>
  <path class="cls-1" d="M31.84,25.7c-3.5,0-6.35,2.85-6.35,6.35s2.85,6.35,6.35,6.35,6.35-2.85,6.35-6.35-2.85-6.35-6.35-6.35ZM31.84,34.4c-1.3,0-2.35-1.05-2.35-2.35s1.05-2.35,2.35-2.35,2.35,1.05,2.35,2.35-1.05,2.35-2.35,2.35Z"/>
</svg>