<?xml version="1.0" encoding="UTF-8"?>
<svg id="Expanded_Icons" data-name="Expanded Icons" xmlns="http://www.w3.org/2000/svg" viewBox="0 0 64 64">
  <defs>
    <style>
      .cls-1 {
        fill: #29b5e8;
        stroke-width: 0px;
      }
    </style>
  </defs>
  <path class="cls-1" d="M46.37,36.66h-1.22v-8.42c.49-.06.91-.39,1.06-.87.16-.53-.05-1.1-.52-1.4l-13.18-8.55c-.41-.27-.95-.27-1.36,0l-13.18,8.55c-.46.3-.68.87-.52,1.4.14.48.57.82,1.06.87v8.42h-.88c-.69,0-1.25.56-1.25,1.25v3.83c0,.69.56,1.25,1.25,1.25h28.73c.69,0,1.25-.56,1.25-1.25v-3.83c0-.69-.56-1.25-1.25-1.25ZM39.11,36.66v-8.4h3.53v8.4h-3.53ZM30.58,28.26v8.4h-3.53v-8.4h3.53ZM33.08,28.26h3.53v8.4h-3.53v-8.4ZM31.83,19.95l8.95,5.81h-17.91l8.95-5.81ZM21.01,28.26h3.53v8.4h-3.53v-8.4ZM45.12,40.49h-26.23v-1.33h26.23v1.33Z"/>
  <path class="cls-1" d="M31.81,21.93c-.79,0-1.44.64-1.44,1.44s.64,1.44,1.44,1.44,1.44-.64,1.44-1.44-.64-1.44-1.44-1.44Z"/>
  <path class="cls-1" d="M31.95,4.16c-15.3,0-27.75,12.45-27.75,27.75s12.45,27.75,27.75,27.75,27.75-12.45,27.75-27.75S47.25,4.16,31.95,4.16ZM31.95,57.16c-13.92,0-25.25-11.33-25.25-25.25S18.03,6.66,31.95,6.66s25.25,11.33,25.25,25.25-11.33,25.25-25.25,25.25Z"/>
</svg>