<?xml version="1.0" encoding="UTF-8"?>
<svg id="Expanded_Icons" data-name="Expanded Icons" xmlns="http://www.w3.org/2000/svg" viewBox="0 0 64 64">
  <defs>
    <style>
      .cls-1 {
        fill: #29b5e8;
        stroke-width: 0px;
      }
    </style>
  </defs>
  <path class="cls-1" d="M31.97,49.52c2.28-.03,4.15-1.9,4.18-4.2v-3.78c0-2.3-1.89-4.18-4.18-4.19-1.09-.02-2.16.41-2.96,1.18-.79.78-1.24,1.82-1.25,2.89,0,.02,0,.08,0,.12v3.78c0,2.31,1.88,4.2,4.21,4.2ZM30.26,41.54v-.06c0-.44.18-.86.5-1.17.31-.3.72-.47,1.17-.47h.02c.93,0,1.7.77,1.7,1.7v3.76c-.01.95-.76,1.7-1.7,1.71-.93,0-1.69-.76-1.69-1.7v-3.78Z"/>
  <path class="cls-1" d="M51.3,27.8h-1.6v-7.8c0-8.84-7.04-15.51-16.37-15.51h-2.08c-9.62,0-17.16,6.81-17.16,15.51v7.8h-1.6c-1.1,0-2,.9-2,2v16.86c0,6.97,5.77,12.86,12.61,12.86h18.48c6.57,0,11.72-5.65,11.72-12.86v-16.86c0-1.1-.9-2-2-2ZM18.1,19.99c0-7.21,6.69-11.51,13.16-11.51h2.08c7.17,0,12.37,4.84,12.37,11.51v7.8h-27.6v-7.8ZM49.3,46.66c0,4.35-2.89,8.86-7.72,8.86h-18.48c-4.58,0-8.61-4.14-8.61-8.86v-14.86h34.81v14.86Z"/>
</svg>