<?xml version="1.0" encoding="UTF-8"?>
<svg id="Expanded_Icons" data-name="Expanded Icons" xmlns="http://www.w3.org/2000/svg" viewBox="0 0 64 64">
  <defs>
    <style>
      .cls-1 {
        fill: #29b5e8;
        stroke-width: 0px;
      }
    </style>
  </defs>
  <path class="cls-1" d="M22.96,38.97c.51.4,1.12,1.01,1.77,1.65,2.01,1.99,4.28,4.25,7.04,4.25s5.04-2.26,7.04-4.25c.65-.64,1.26-1.25,1.77-1.65,2.41-1.89,3.94-4.8,4.18-7.9,1.29-1.32,2-3.05,2-4.9v-1.07c0-1.58-.52-3.07-1.47-4.29-.11-5.84-1.54-10.16-4.24-12.85-3.22-3.21-7.38-3.21-9.11-3.2h-.35c-1.75,0-5.89-.01-9.11,3.2-2.7,2.69-4.12,7.01-4.24,12.85-.95,1.22-1.47,2.72-1.47,4.29v1.07c0,1.85.71,3.58,2,4.9.24,3.11,1.76,6.01,4.17,7.9ZM20.79,25.09c0-.79.32-1.56.88-2.12.38-.38.59-.88.59-1.42,0-5.12,1.03-8.75,3.07-10.78,1.96-1.95,4.47-2.03,6.06-2.03.07,0,.14,0,.21,0h.37c1.57,0,4.23-.01,6.28,2.03,2.04,2.03,3.07,5.66,3.07,10.78,0,.53.21,1.04.59,1.42.56.56.88,1.33.88,2.12v1.07c0,.79-.32,1.56-.88,2.12l-.5.5c-.38.38-.59.88-.59,1.41,0,2.2-1,4.3-2.68,5.62-.69.54-1.38,1.23-2.12,1.96-1.31,1.3-3.11,3.09-4.23,3.09s-2.91-1.79-4.23-3.09c-.74-.73-1.43-1.42-2.12-1.96-1.68-1.31-2.68-3.41-2.68-5.62,0-.53-.21-1.04-.59-1.41l-.5-.5c-.56-.56-.88-1.33-.88-2.12v-1.07Z"/>
  <path class="cls-1" d="M24.21,21.13c.17,0,.33-.03.5-.1,2.45-1.06,3.55-2.98,3.96-4.76,2.21,1.81,6.01,4.22,10.6,4.22.69,0,1.25-.56,1.25-1.25s-.56-1.25-1.25-1.25c-6.06,0-10.75-5.28-10.8-5.33-.37-.42-.98-.54-1.48-.3-.51.24-.79.8-.69,1.35.03.15.61,3.63-2.59,5.02-.63.28-.92,1.01-.65,1.64.21.47.66.75,1.15.75Z"/>
  <path class="cls-1" d="M57.84,56.96c-.06-.42-.11-.93-.17-1.5-.19-1.81-.43-4.07-1.06-5.59-.29-.71-1.07-2.6-13.23-6.08-.66-.19-1.36-.03-1.87.42l-9.5,8.35-9.5-8.35c-.51-.45-1.21-.61-1.87-.42-12.16,3.47-12.94,5.36-13.23,6.07-.61,1.47-.83,3.54-1.02,5.35-.07.64-.13,1.23-.21,1.72-.17,1.09.58,2.11,1.67,2.28.1.02.21.02.31.02.97,0,1.82-.7,1.97-1.69.08-.54.16-1.2.23-1.91.15-1.36.32-3.03.66-4.02,1.08-.82,5.57-2.46,9.68-3.68l9.9,8.7c.39.34.88.5,1.36.49.02,0,.04,0,.07,0,.01,0,.02,0,.03,0,.49.01.98-.15,1.37-.49l9.9-8.7c4.11,1.23,8.6,2.86,9.68,3.68.35,1.05.55,2.89.69,4.25.07.62.13,1.2.19,1.65.14,1,1,1.71,1.98,1.71.1,0,.19,0,.29-.02,1.09-.16,1.85-1.17,1.69-2.27Z"/>
</svg>