<?xml version="1.0" encoding="UTF-8"?>
<svg id="Expanded_Icons" data-name="Expanded Icons" xmlns="http://www.w3.org/2000/svg" viewBox="0 0 64 64">
  <defs>
    <style>
      .cls-1 {
        fill: #29b5e8;
        stroke-width: 0px;
      }
    </style>
  </defs>
  <path class="cls-1" d="M56.27,27.55l-15.15,15.39-12.71-4.3c-.35-.12-.73-.08-1.05.12l-11.21,6.83c-.59.36-.78,1.13-.42,1.72.24.39.65.6,1.07.6.22,0,.45-.06.65-.18l10.71-6.53,12.9,4.37c.45.16.96.04,1.29-.31l15.7-15.95c.48-.49.48-1.28-.01-1.77-.49-.49-1.28-.48-1.77.01Z"/>
  <path class="cls-1" d="M15.97,34.91h7.56c.11,0,.22-.01.33-.04l6.57-1.78h11.05c.25,0,.5-.08.71-.22l15.28-10.48c.57-.39.71-1.17.32-1.74-.39-.57-1.17-.71-1.74-.32l-14.96,10.26h-10.82c-.11,0-.22.01-.33.04l-6.57,1.78h-7.39c-.69,0-1.25.56-1.25,1.25s.56,1.25,1.25,1.25Z"/>
  <path class="cls-1" d="M16.56,25.66l8.95,1.99c.09.02.18.03.27.03.33,0,.66-.13.9-.38l8.19-8.46,5.84,4.39c.54.41,1.32.31,1.74-.23l6.35-8.13h8.43c.69,0,1.25-.56,1.25-1.25s-.56-1.25-1.25-1.25h-9.04c-.38,0-.75.18-.99.48l-5.97,7.65-5.74-4.32c-.5-.38-1.21-.32-1.65.13l-8.47,8.75-8.27-1.84c-.67-.16-1.34.27-1.49.95-.15.67.27,1.34.95,1.49Z"/>
  <path class="cls-1" d="M57.47,51.96H11.96V6.55c0-1.1-.9-2-2-2s-2,.9-2,2v45.41h-1.44c-1.1,0-2,.9-2,2s.9,2,2,2h1.44v1.44c0,1.1.9,2,2,2s2-.9,2-2v-1.44h45.51c1.1,0,2-.9,2-2s-.9-2-2-2Z"/>
</svg>