<?xml version="1.0" encoding="UTF-8"?>
<svg id="Expanded_Icons" data-name="Expanded Icons" xmlns="http://www.w3.org/2000/svg" viewBox="0 0 64 64">
  <defs>
    <style>
      .cls-1 {
        fill: #29b5e8;
        fill-rule: evenodd;
      }

      .cls-1, .cls-2, .cls-3 {
        stroke-width: 0px;
      }

      .cls-2 {
        fill: #11567f;
      }

      .cls-3 {
        fill: #fff;
      }
    </style>
  </defs>
  <path class="cls-1" d="M27.47,6c-5.01,0-9.07,4.06-9.07,9.07v33.86c0,5.01,4.06,9.07,9.07,9.07h21.16c5.01,0,9.07-4.06,9.07-9.07v-25.16c0-2.37-.93-4.64-2.58-6.34l-8.5-8.7c-1.71-1.75-4.05-2.73-6.49-2.73h-12.67ZM22.02,15.07c0-3.01,2.44-5.44,5.44-5.44h12.09v9.98c0,2.67,2.17,4.84,4.84,4.84h9.67v24.49c0,3.01-2.44,5.44-5.44,5.44h-21.16c-3.01,0-5.44-2.44-5.44-5.44V15.07ZM53.2,20.81c-.2-.3-.42-.59-.68-.85l-8.5-8.7c-.26-.26-.54-.5-.84-.7v9.04c0,.67.54,1.21,1.21,1.21h8.8Z"/>
  <rect class="cls-2" x="6.3" y="32" width="30.23" height="18.14" rx="4.23" ry="4.23"/>
  <path class="cls-3" d="M9.63,39.01v-1.07h5.06v1.07h-1.88v5.08h-1.29v-5.08h-1.88Z"/>
  <path class="cls-3" d="M15.94,44.09v-6.16h4.15v1.07h-2.85v1.47h2.63v1.07h-2.63v1.47h2.86v1.07h-4.16Z"/>
  <path class="cls-3" d="M22.77,37.94l1.24,2.1h.05l1.25-2.1h1.47l-1.88,3.08,1.92,3.08h-1.5l-1.26-2.1h-.05l-1.26,2.1h-1.49l1.93-3.08-1.89-3.08h1.48Z"/>
  <path class="cls-3" d="M27.78,39.01v-1.07h5.06v1.07h-1.88v5.08h-1.29v-5.08h-1.88Z"/>
</svg>