<?xml version="1.0" encoding="UTF-8"?>
<svg id="Expanded_Icons" data-name="Expanded Icons" xmlns="http://www.w3.org/2000/svg" viewBox="0 0 64 64">
  <defs>
    <style>
      .cls-1 {
        fill: #29b5e8;
        stroke-width: 0px;
      }
    </style>
  </defs>
  <path class="cls-1" d="M38.91,11.5h-19.53c-.69,0-1.25.56-1.25,1.25v12.92c0,.69.56,1.25,1.25,1.25h19.53c.69,0,1.25-.56,1.25-1.25v-12.92c0-.69-.56-1.25-1.25-1.25ZM37.66,24.43h-17.03v-10.42h17.03v10.42Z"/>
  <path class="cls-1" d="M57.71,21.16l-3.71-6.23c-.22-.38-.63-.61-1.07-.61h-4.27c-.69,0-1.25.56-1.25,1.25s.56,1.25,1.25,1.25h1.19v5.12c0,2.57,2.66,4.11,5.24,4.11h.3v13.64c0,1.12-.91,2.04-2.03,2.04s-2.04-.92-2.04-2.04v-9.72c0-1.02-.41-2.73-3.13-2.73h-1.4V6.46c0-1.1-.9-2-2-2H13.4c-1.1,0-2,.9-2,2v46.1h-3.54c-1.1,0-2,.9-2,2v3.23c0,1.1.9,2,2,2h42.46c1.1,0,2-.9,2-2v-3.23c0-1.1-.9-2-2-2h-3.54v-22.83h1.4c.4,0,.59.06.61.04,0,.03.01.09.01.19v9.72c0,2.5,2.04,4.54,4.54,4.54s4.53-2.04,4.53-4.54v-17.89c0-.23-.06-.45-.18-.64ZM15.4,8.46h27.39v44H15.4V8.46ZM55.09,23.55c-1.29,0-2.74-.69-2.74-1.61v-4.9l3.04,5.1v1.41h-.3Z"/>
</svg>