<?xml version="1.0" encoding="UTF-8"?>
<svg id="Expanded_Icons" data-name="Expanded Icons" xmlns="http://www.w3.org/2000/svg" viewBox="0 0 226 64">
  <defs>
    <style>
      .cls-1 {
        fill: #29b5e8;
        fill-rule: evenodd;
        stroke-width: 0px;
      }
    </style>
  </defs>
  <g id="Layer_1" data-name="Layer 1">
    <g>
      <g>
        <path class="cls-1" d="M76.88,39.73l-3.22,4.28h-1.52l-3.24-4.31v8.27h-3.59l.02-14.94h2.92l4.64,6.4,4.64-6.4h2.92l.02,14.94h-3.59v-8.24h.01Z"/>
        <path class="cls-1" d="M87.55,42.44h3.79l-1.9-5.52-1.89,5.52ZM97.13,47.97h-3.89l-.92-2.69h-5.74l-.92,2.69h-3.89l5.71-14.94h3.94l5.71,14.94Z"/>
        <path class="cls-1" d="M104.81,36.14h-2.74v3.86h2.77c1.27,0,2.24-.67,2.24-1.94s-.95-1.91-2.27-1.91ZM105.06,33.03c3.42,0,5.76,2.12,5.76,5.03,0,2.06-1.07,3.63-2.79,4.43v.27l3.37,4.95v.25h-4.11l-3.12-4.9h-2.09v4.9h-3.62v-14.93h6.6Z"/>
        <path class="cls-1" d="M117.03,39.28l5.66-6.25h4.42v.32l-5.51,6.07,5.51,8.19v.35h-4.09l-3.89-5.83-2.09,2.34v3.49h-3.62v-14.93h3.62v6.25h0Z"/>
        <path class="cls-1" d="M138.49,41.82h-6.08v3.04h7.26v3.11h-10.87v-14.94h10.87v3.11h-7.26v2.84h6.08v2.84h0Z"/>
        <path class="cls-1" d="M141.1,33.03h12.05v3.11h-4.21v11.82h-3.62v-11.82h-4.21v-3.11h0Z"/>
        <path class="cls-1" d="M161.63,36.14h-2.74v3.86h2.77c1.27,0,2.24-.67,2.24-1.94,0-1.29-.95-1.91-2.27-1.91ZM167.64,38.06c0,3.06-2.32,5-5.76,5h-2.99v4.9h-3.62v-14.93h6.61c3.41,0,5.76,2.12,5.76,5.03Z"/>
        <path class="cls-1" d="M169.69,47.96v-14.93h3.62v11.82h6.68v3.11h-10.3Z"/>
        <path class="cls-1" d="M186.23,42.44h3.79l-1.9-5.52-1.89,5.52ZM195.8,47.97h-3.89l-.92-2.69h-5.74l-.92,2.69h-3.89l5.71-14.94h3.94l5.71,14.94Z"/>
        <path class="cls-1" d="M208.75,46.47s-1.59,1.84-5.11,1.84c-4.84,0-7.71-3.54-7.71-7.82s2.87-7.79,7.71-7.79c3.51,0,5.11,1.82,5.11,1.82l-2.07,2.76s-1-1.12-2.99-1.12c-2.34,0-4.02,1.74-4.02,4.33s1.67,4.33,4.02,4.33c2,0,2.99-1.12,2.99-1.12l2.07,2.76Z"/>
        <path class="cls-1" d="M220.22,41.82h-6.08v3.04h7.26v3.11h-10.87v-14.94h10.87v3.11h-7.26v2.84h6.08v2.84Z"/>
        <path class="cls-1" d="M109.32,17.9h0c-.06-.02-.11-.03-.16-.03-.08,0-.16.03-.24.07-.07.04-.13.11-.17.19h0l-1.63,4.45-1.25-2.98h0c-.03-.08-.1-.15-.17-.19-.07-.04-.16-.07-.25-.07-.08,0-.17.03-.24.07s-.13.11-.17.19h0l-1.26,2.99-1.64-4.45h0c-.03-.08-.09-.15-.16-.2-.07-.04-.15-.07-.24-.07-.06,0-.11.01-.16.03h0c-.15.07-.25.22-.25.39,0,.05.01.11.03.16l2.01,5.41h0s.04.08.07.12c.02.03.06.05.1.07,0,0,.02.02.03.02.02.01.04.02.06.02.03.01.08.03.15.03.08,0,.16-.03.22-.07.06-.04.12-.11.15-.18h0s1.28-3.05,1.28-3.05l1.28,3.03h0c.03.08.08.15.14.19.06.05.13.08.21.09h.06c.05,0,.1-.01.14-.03.04-.02.08-.04.11-.06.07-.05.12-.12.16-.2h0l2-5.38c.02-.05.03-.1.03-.16,0-.17-.1-.32-.26-.39ZM100.11,20.98c0-.63-.25-1.21-.63-1.62-.39-.41-.92-.67-1.49-.67s-1.1.25-1.49.67c-.39.41-.63.99-.63,1.62s.25,1.2.63,1.62c.39.41.92.67,1.49.67s1.11-.25,1.49-.67c.39-.41.63-.98.63-1.62ZM100.1,18.78c.54.57.87,1.35.87,2.2s-.33,1.63-.87,2.2c-.54.57-1.28.93-2.12.93s-1.57-.36-2.11-.93-.87-1.35-.87-2.2.34-1.63.87-2.2c.54-.57,1.29-.93,2.11-.93s1.58.36,2.12.93ZM91.61,17.87c-.67,0-1.28.26-1.73.68v-.25c0-.11-.04-.22-.12-.3-.07-.08-.18-.13-.3-.13s-.23.05-.31.13-.12.18-.12.3v5.53l.02.02h0s.02.04.03.06c.06.1.15.18.27.21h.02s.09,0,.09,0c.06,0,.12-.01.18-.04.05-.02.1-.06.13-.11h0s0-.01.01-.02h0s.04-.07.06-.1c.01-.03.02-.06.03-.09v-.02s0-3.32,0-3.32c.01-.48.21-.91.52-1.21.31-.31.74-.5,1.21-.5s.91.19,1.22.5.5.74.5,1.21v3.26c0,.12.05.23.13.3.08.08.19.12.3.12s.22-.04.3-.12c.08-.07.13-.18.13-.3v-3.26c0-1.41-1.16-2.57-2.58-2.57ZM133.69,20.38c-.25-.98-1.11-1.68-2.09-1.68-1.01,0-1.86.68-2.13,1.68h4.23ZM134.63,20.78v.04c0,.12-.06.22-.13.3-.08.07-.18.11-.3.11h-4.79c.12,1.16,1.06,2.03,2.17,2.04h.29c.37,0,.73-.13,1.05-.34.32-.21.59-.5.78-.82.04-.07.1-.12.16-.15.06-.03.13-.05.2-.05.08,0,.15.02.22.06h.01c.12.1.2.23.2.37,0,.07-.02.15-.06.22h0c-.27.43-.63.82-1.06,1.1-.44.28-.93.46-1.48.46h-.29c-.84,0-1.6-.36-2.15-.93-.55-.57-.88-1.34-.88-2.19s.34-1.66.89-2.22c.55-.57,1.32-.92,2.17-.92s1.54.32,2.08.85c.54.53.89,1.25.95,2.08h-.01ZM114.98,15.28c-.12,0-.22.05-.3.13s-.12.18-.12.3v7.99c0,.12.05.22.12.3.08.07.18.13.3.13.24,0,.44-.19.44-.43v-8c0-.24-.2-.43-.44-.43ZM87.05,20.83c-.35-.16-.74-.28-1.12-.41-.36-.12-.72-.22-.98-.36-.13-.07-.24-.15-.3-.22-.07-.08-.1-.17-.1-.28,0-.16.04-.29.12-.4.12-.17.31-.3.53-.38s.44-.12.6-.12c.49,0,.79.16,1.02.33.12.08.21.17.31.24.05.04.09.07.15.1.05.02.11.04.17.04.04,0,.08,0,.12-.02s.07-.04.11-.07c.03-.03.06-.07.08-.11.02-.04.02-.08.02-.12,0-.07-.02-.15-.06-.21-.06-.12-.16-.23-.29-.34-.19-.17-.44-.32-.71-.45-.27-.12-.55-.2-.83-.2-.63,0-1.16.15-1.55.41-.2.14-.37.29-.5.5-.13.21-.2.47-.21.81v.04c0,.32.11.59.27.81.25.32.62.51.99.64.36.13.73.21.96.29.32.11.67.22.92.38.12.08.22.16.3.26.07.1.11.2.11.32h0c0,.19-.06.34-.14.46-.13.18-.35.31-.59.4-.24.08-.48.12-.63.12-.55,0-.92-.13-1.19-.27-.13-.07-.24-.13-.34-.19-.05-.03-.1-.05-.14-.07-.04-.02-.1-.03-.16-.03-.03,0-.07,0-.11.02-.03.02-.07.03-.1.06-.04.03-.07.08-.1.12s-.03.1-.03.15c0,.08.03.16.08.23.07.1.17.19.3.28.13.09.29.17.47.26.4.19.92.29,1.31.3h0c.61,0,1.14-.14,1.58-.46h0c.43-.32.71-.81.71-1.35,0-.3-.07-.55-.2-.77-.19-.34-.49-.55-.83-.72ZM121.41,20.98c0-.64-.24-1.21-.63-1.63-.39-.41-.92-.67-1.5-.67s-1.1.25-1.49.67c-.39.41-.63.99-.63,1.63s.25,1.21.63,1.62c.39.41.92.66,1.49.66s1.11-.25,1.5-.65c.39-.41.63-.98.63-1.63ZM122.14,17.97c.08.08.13.18.13.31v5.42c0,.12-.05.22-.12.3-.08.07-.18.13-.3.13s-.22-.05-.3-.13c-.08-.07-.13-.18-.13-.3v-.53c-.54.58-1.29.95-2.13.95s-1.58-.36-2.12-.93c-.54-.57-.87-1.35-.87-2.2s.33-1.64.87-2.2c.54-.57,1.29-.92,2.12-.92s1.59.36,2.13.94v-.51c0-.12.05-.23.13-.31.08-.07.18-.12.3-.12.11,0,.22.04.3.12ZM128.17,18.52c.08-.08.13-.2.13-.31s-.04-.22-.13-.3h0c-.08-.08-.19-.13-.3-.13-.11,0-.22.04-.3.13l-3.34,3.25v-5.46c0-.24-.2-.43-.44-.43-.12,0-.22.05-.3.13s-.13.18-.13.3v7.99c0,.12.05.22.13.3.08.07.18.13.3.13.24,0,.44-.19.44-.43v-1.32l1.09-1.09,2.22,2.67c.04.06.1.1.16.12.06.02.13.03.18.03.08,0,.18-.02.28-.09h0s0-.01,0-.01c.09-.09.14-.2.14-.32,0-.1-.04-.2-.11-.28h0l-2.26-2.74,2.23-2.16h0ZM113.21,15.3h-.17c-.25,0-.49.03-.71.1-.22.07-.43.2-.58.37h0c-.16.18-.27.4-.34.64-.07.25-.1.53-.1.84v.61h-.67c-.24,0-.42.19-.42.41,0,.12.04.24.12.31s.18.13.3.14h.67v4.97h0c0,.13.05.24.13.31s.19.12.31.12c.23,0,.41-.18.41-.42v-4.98h.73c.12,0,.22-.06.3-.13s.13-.19.13-.31v-.02c0-.22-.19-.41-.43-.41h-.73v-.61c0-.27.03-.47.07-.62s.1-.24.14-.3c.04-.05.11-.1.21-.13s.24-.06.43-.06h.19c.24,0,.44-.2.44-.44s-.18-.43-.43-.43ZM70.21,21.27c.03-.11.05-.22.04-.33,0-.08-.02-.16-.04-.24-.07-.25-.23-.47-.48-.61l-3.46-2c-.49-.28-1.11-.11-1.39.37-.29.49-.12,1.11.37,1.39l1.94,1.12-1.94,1.11c-.49.28-.65.9-.37,1.39.28.49.91.65,1.39.37l3.46-2c.24-.13.4-.35.47-.58ZM71.15,23.14c-.2-.02-.41.02-.59.13l-3.47,2c-.49.28-.65.91-.37,1.39.28.49.91.65,1.39.37l1.94-1.12v2.23c0,.57.46,1.02,1.02,1.02s1.02-.45,1.02-1.02v-4c0-.53-.41-.97-.94-1.01ZM74.7,18.8c.2.02.4-.03.59-.13l3.47-2c.49-.28.65-.9.37-1.39-.28-.49-.91-.65-1.39-.37l-1.94,1.12v-2.23c0-.56-.46-1.02-1.02-1.02s-1.02.45-1.02,1.02v4c-.01.54.4.97.93,1.01ZM67.09,16.67l3.47,2c.18.11.39.15.59.13.53-.04.95-.48.95-1.02v-4c0-.56-.46-1.02-1.02-1.02s-1.02.45-1.02,1.02v2.23l-1.94-1.12c-.49-.28-1.11-.12-1.39.37-.29.49-.12,1.11.37,1.4ZM73.6,20.96c0-.06-.03-.14-.08-.18l-.42-.41s-.12-.07-.18-.07h-.02c-.06,0-.14.03-.18.07l-.42.41s-.07.12-.07.18v.02c0,.06.03.14.07.18l.42.41s.12.07.18.07h.02c.06,0,.14-.03.18-.07l.42-.41s.08-.12.08-.18v-.02ZM74.76,21.36l-1.44,1.44s-.12.08-.18.08h-.43c-.06,0-.14-.03-.18-.08l-1.44-1.44s-.07-.12-.07-.18v-.43c0-.06.03-.14.07-.18l1.44-1.44s.12-.07.18-.07h.43c.06,0,.14.03.18.07l1.44,1.44s.07.12.07.18v.43c0,.06-.03.14-.07.18ZM78.76,25.27l-3.47-2c-.18-.11-.39-.15-.59-.13-.53.04-.95.48-.95,1.01v4c0,.57.45,1.02,1.02,1.02s1.02-.45,1.02-1.02v-2.23l1.94,1.12c.49.28,1.11.12,1.39-.37.29-.49.12-1.11-.36-1.39ZM80.59,19.85l-1.94,1.12,1.94,1.11c.49.28.65.9.37,1.39-.28.49-.91.65-1.39.37l-3.47-2c-.23-.13-.39-.35-.46-.58-.03-.11-.05-.22-.04-.33,0-.08.01-.16.03-.24.07-.25.24-.47.47-.61l3.47-2c.49-.28,1.11-.11,1.39.37.29.48.12,1.1-.37,1.39ZM136.81,17.86c0,.56-.37,1.03-1,1.03s-1-.47-1-1.03.37-1.03,1-1.03,1,.46,1,1.03ZM136.62,17.86c0-.48-.32-.84-.81-.84s-.79.35-.79.84.32.84.79.84c.49,0,.81-.36.81-.84ZM135.42,17.4h.43c.24,0,.39.13.39.32,0,.12-.06.22-.16.27l.17.24v.05h-.24l-.16-.24h-.19v.24h-.24v-.89h0ZM135.84,17.61h-.19v.24h.19c.09,0,.15-.04.15-.11,0-.08-.06-.12-.15-.12Z"/>
      </g>
      <path class="cls-1" d="M54.06,31.87c0-1.31-.94-2.4-2.18-2.63l-4.57-11.9c.43-.48.7-1.1.7-1.79,0-1.48-1.2-2.68-2.68-2.68-.59,0-1.14.2-1.58.52l-12.58-5.17c-.31-1.13-1.34-1.96-2.57-1.96-1.39,0-2.53,1.07-2.66,2.43l-11.69,4.96c-.49-.48-1.15-.78-1.89-.78-1.48,0-2.68,1.2-2.68,2.68,0,.79.35,1.49.89,1.98l-4.78,11.28c-1.34.15-2.4,1.27-2.4,2.65,0,1.27.89,2.33,2.08,2.61l-.03.02,4.61,11.77c-.63.49-1.04,1.25-1.04,2.11,0,1.48,1.2,2.68,2.68,2.68.59,0,1.12-.19,1.57-.51l12.46,4.9v.02c0,1.48,1.2,2.68,2.68,2.68,1.34,0,2.45-.98,2.64-2.27l12.64-5.48c.46.36,1.02.59,1.66.59,1.48,0,2.68-1.2,2.68-2.68,0-.59-.2-1.14-.53-1.58l4.82-11.93c1.02-.39,1.75-1.36,1.75-2.52ZM42.65,47.89c0,.27.05.53.12.77l-11.99,5.2c-.39-.77-1.13-1.32-2.01-1.44l-4.09-7.48c.62-.49,1.03-1.24,1.03-2.1,0-.02,0-.04,0-.06l14.52-5.69,3.27,8.85c-.52.49-.85,1.18-.85,1.95ZM21.32,40.78l-12.94-7.94c.24-.4.39-.87.39-1.38,0-.17-.02-.34-.05-.49l11.23-5.42c.31.3.69.52,1.11.65l1.11,14.1c-.31.11-.59.27-.85.48ZM14.99,15.05l11.29-4.79c.13.24.3.46.5.64l-4.37,10.12c-.19-.04-.38-.07-.58-.07-.59,0-1.12.2-1.57.51l-5.41-4.95c.12-.3.19-.63.19-.97,0-.17-.03-.34-.06-.5ZM43.37,17.37l-5.03,7.89c-.34-.18-.72-.29-1.13-.29-.04,0-.09.01-.13.01l-6.37-14.38c.17-.21.31-.45.41-.71l11.7,4.8c-.09.27-.15.55-.15.85,0,.71.27,1.35.72,1.82ZM24.12,40.39c-.12-.05-.25-.09-.37-.12l-1.11-14.07c.68-.21,1.24-.69,1.57-1.31l10.58,2.73c.04.53.25,1,.57,1.38l-11.24,11.39ZM28.6,11.63c.27,0,.53-.05.77-.12l6.25,14.07c-.17.15-.32.31-.45.5l-10.68-2.75c-.07-.58-.31-1.1-.69-1.51l4.42-10.24c.13.02.26.04.4.04ZM25.59,41.13l11.15-11.31c.15.03.3.04.46.04.12,0,.22-.02.34-.03l2.14,5.78-14.09,5.52ZM38.96,29.12c.11-.11.2-.23.29-.36l9.53,2.46c-.05.21-.09.43-.09.65,0,.07.02.13.02.2l-7.57,2.97-2.19-5.92ZM45.94,18.16l4.33,11.28c-.22.1-.42.24-.6.39l-10.02-2.59c-.02-.28-.08-.55-.18-.79l5.28-8.28c.19.04.39.07.6.07.21,0,.41-.03.6-.08ZM12.36,18.24c.56,0,1.08-.17,1.51-.47l5.45,4.98c-.1.28-.17.58-.17.9,0,.17.02.35.05.51l-11.22,5.41c-.18-.18-.39-.32-.61-.45l4.62-10.92c.12.02.24.04.37.04ZM7.08,33.94s.04-.01.06-.02l13.32,8.18c-.07.24-.11.48-.11.73,0,.33.07.64.17.93l-6.56,2.78c-.48-.76-1.31-1.26-2.27-1.26-.06,0-.11.01-.17.02l-4.44-11.35ZM14.22,48.82c.08-.24.13-.48.14-.73l7.16-3.04c.43.29.95.46,1.51.46.06,0,.11-.01.17-.02l3.93,7.2c-.37.2-.7.48-.94.83l-11.98-4.71ZM44.93,45.25l-3.23-8.74,7.59-2.98c.33.41.78.73,1.3.88l-4.42,10.93c-.26-.09-.54-.15-.84-.15-.13,0-.27.02-.4.04Z"/>
    </g>
  </g>
</svg>