<?xml version="1.0" encoding="UTF-8"?>
<svg id="Expanded_Icons" data-name="Expanded Icons" xmlns="http://www.w3.org/2000/svg" viewBox="0 0 64 64">
  <defs>
    <style>
      .cls-1 {
        fill: #29b5e8;
        stroke-width: 0px;
      }
    </style>
  </defs>
  <path class="cls-1" d="M32,4.54c-15.67,0-23.87,5.23-23.87,10.4v34.18c0,5.17,8.2,10.4,23.87,10.4s23.87-5.23,23.87-10.4V14.93c0-5.17-8.2-10.4-23.87-10.4ZM51.87,37.71c0,2.61-7.74,6.4-19.87,6.4s-19.87-3.79-19.87-6.4v-5.43c3.88,2.59,10.54,4.45,19.87,4.45s15.99-1.86,19.87-4.45v5.43ZM51.87,26.34c0,2.61-7.74,6.4-19.87,6.4s-19.87-3.79-19.87-6.4v-5.46c3.88,2.59,10.54,4.45,19.87,4.45s15.99-1.86,19.87-4.45v5.46ZM32,8.54c12.13,0,19.87,3.79,19.87,6.4s-7.74,6.4-19.87,6.4-19.87-3.79-19.87-6.4,7.74-6.4,19.87-6.4ZM32,55.51c-12.13,0-19.87-3.79-19.87-6.4v-5.46c3.88,2.59,10.54,4.45,19.87,4.45s15.99-1.86,19.87-4.45v5.46c0,2.61-7.74,6.4-19.87,6.4Z"/>
</svg>