<?xml version="1.0" encoding="UTF-8"?>
<svg id="Expanded_Icons" data-name="Expanded Icons" xmlns="http://www.w3.org/2000/svg" viewBox="0 0 64 64">
  <defs>
    <style>
      .cls-1 {
        fill: #29b5e8;
        stroke-width: 0px;
      }
    </style>
  </defs>
  <path class="cls-1" d="M31.38,31.44h-14.16c-.69,0-1.25.56-1.25,1.25v13.76c0,.69.56,1.25,1.25,1.25h14.16c.69,0,1.25-.56,1.25-1.25v-13.76c0-.69-.56-1.25-1.25-1.25ZM30.13,45.2h-11.66v-11.26h11.66v11.26Z"/>
  <path class="cls-1" d="M59.74,21.54c-.74-3.12-1.54-5.5-2.31-7.79-.75-2.23-1.46-4.36-2.13-7.13-.15-.95-.98-1.68-1.97-1.68H11.02c-.97,0-1.78.69-1.96,1.6h-.04c-.73,2.92-1.5,5.08-2.32,7.36-.81,2.25-1.64,4.59-2.42,7.67-.43,1.7-.08,3.43.94,4.76.92,1.18,2.27,1.93,3.79,2.13v28.73c0,1.1.9,2,2,2h42.31c1.1,0,2-.9,2-2v-28.79c1.36-.26,2.57-.98,3.41-2.05,1.04-1.33,1.41-3.07,1-4.79ZM45.64,14.9c.51,2.2,1.04,4.48,1.52,7.43h0c.12.73-.14,1.22-.37,1.5-.35.42-.89.65-1.49.65h0c-1.33,0-2.48-1.16-2.57-2.59-.19-3.04-.41-5.36-.63-7.6-.16-1.66-.32-3.36-.47-5.36h2.75c.42,2.26.85,4.14,1.27,5.96ZM38.06,14.68c.21,2.21.43,4.5.61,7.47.04.61-.17,1.19-.58,1.63-.43.46-1.02.71-1.66.71-1.27,0-2.36-1.03-2.46-2.28,0-.06,0-.12,0-.18l-.05-13.09h3.64c.16,2.16.33,3.98.5,5.74ZM29.97,22.04c0,.06,0,.12,0,.18-.04.58-.29,1.12-.71,1.54-.47.47-1.08.73-1.74.73h0c-.65,0-1.24-.25-1.67-.71-.41-.44-.62-1.01-.58-1.62.18-2.95.39-5.22.6-7.42.17-1.78.34-3.61.49-5.81h3.55l.05,13.1ZM16.84,22.39c.5-2.91,1.04-5.16,1.57-7.33.45-1.86.91-3.79,1.35-6.12h2.57c-.14,2-.3,3.68-.47,5.43-.21,2.23-.43,4.53-.61,7.55-.09,1.42-1.24,2.57-2.57,2.57h0c-.6,0-1.14-.24-1.49-.65-.23-.27-.48-.75-.36-1.45ZM8.16,22.54c.73-2.9,1.5-5.04,2.31-7.3.68-1.91,1.39-3.88,2.05-6.3h3.13c-.38,1.89-.77,3.51-1.17,5.18-.54,2.23-1.1,4.54-1.63,7.59-.27,1.54-1.61,2.79-3,2.79-.62,0-1.15-.23-1.47-.64-.27-.35-.35-.81-.22-1.31ZM45.73,55.17h-7.97v-21.23h7.97v21.23ZM48.23,55.17v-22.48c0-.69-.56-1.25-1.25-1.25h-10.47c-.69,0-1.25.56-1.25,1.25v22.48H13.02v-27.49c.49-.27.96-.59,1.38-.97,1.1,1.14,2.64,1.79,4.29,1.79h0c1.7,0,3.27-.68,4.44-1.79,1.16,1.14,2.75,1.79,4.39,1.79h0c1.67,0,3.24-.64,4.45-1.79,1.16,1.11,2.73,1.79,4.46,1.79,1.65,0,3.24-.65,4.41-1.8,1.18,1.12,2.74,1.8,4.45,1.8h0c1.65,0,3.19-.65,4.29-1.79.52.47,1.11.85,1.73,1.15v27.32h-3.09ZM55.6,23.84c-.32.41-.86.64-1.47.64-1.39,0-2.73-1.26-2.98-2.81-.51-3.07-1.05-5.42-1.58-7.68-.38-1.64-.75-3.23-1.1-5.06h3.29c.61,2.31,1.25,4.23,1.88,6.08.78,2.31,1.51,4.5,2.21,7.44h0c.13.53.04,1.01-.25,1.38Z"/>
</svg>