<?xml version="1.0" encoding="UTF-8"?>
<svg id="Expanded_Icons" data-name="Expanded Icons" xmlns="http://www.w3.org/2000/svg" viewBox="0 0 64 64">
  <defs>
    <style>
      .cls-1 {
        fill: #29b5e8;
        stroke-width: 0px;
      }
    </style>
  </defs>
  <path class="cls-1" d="M36.39,16.99c-.59,0-1.58-.14-1.58-1.1,0-.69-.56-1.25-1.25-1.25s-1.25.56-1.25,1.25c0,1.81,1.22,3.14,3.07,3.5v.58c0,.69.56,1.25,1.25,1.25s1.25-.56,1.25-1.25v-.7c1.57-.48,2.58-1.73,2.58-3.38,0-2.21-1.42-2.91-3.07-3.72l-.91-.45c-1.67-.83-1.67-.91-1.67-1.48,0-.98.99-1.12,1.58-1.12s1.53.15,1.53,1.12c0,.69.56,1.25,1.25,1.25s1.25-.56,1.25-1.25c0-1.71-1.08-3-2.73-3.44v-1.35c0-.69-.56-1.25-1.25-1.25s-1.25.56-1.25,1.25v1.32c-1.74.41-2.88,1.72-2.88,3.47,0,2.21,1.42,2.91,3.07,3.72l.91.45c1.67.83,1.67.91,1.67,1.48,0,.96-.99,1.1-1.57,1.1Z"/>
  <path class="cls-1" d="M58.23,24.5c-.37-.54-.99-.87-1.65-.87H23.22c-1.1,0-2,.9-2,2s.9,2,2,2h30.46l-6.02,15.68h-22.65l-9.38-24.12c-.3-.77-1.04-1.28-1.86-1.28h-6.41c-1.1,0-2,.9-2,2v3.46c0,1.1.9,2,2,2s2-.9,2-2v-1.46h3.04l9.38,24.12c.3.77,1.04,1.28,1.86,1.28h25.39c.83,0,1.57-.51,1.87-1.28l7.55-19.68c.24-.61.15-1.31-.22-1.85Z"/>
  <path class="cls-1" d="M29.67,48.97c-2.93,0-5.32,2.39-5.32,5.32s2.39,5.32,5.32,5.32,5.32-2.39,5.32-5.32-2.39-5.32-5.32-5.32ZM29.67,57.11c-1.56,0-2.82-1.26-2.82-2.82s1.26-2.82,2.82-2.82,2.82,1.26,2.82,2.82-1.26,2.82-2.82,2.82Z"/>
  <path class="cls-1" d="M43,48.87c-2.51,0-5.32,2.28-5.32,5.32s2.39,5.32,5.32,5.32,5.32-2.39,5.32-5.32-2.39-5.32-5.32-5.32ZM43,57.01c-1.56,0-2.82-1.26-2.82-2.82,0-1.29,1.26-2.82,2.82-2.82s2.82,1.26,2.82,2.82-1.27,2.82-2.82,2.82Z"/>
  <path class="cls-1" d="M28.69,38.37c-.69,0-1.25.56-1.25,1.25s.56,1.25,1.25,1.25h16.08c.69,0,1.25-.56,1.25-1.25s-.56-1.25-1.25-1.25h-16.08Z"/>
  <path class="cls-1" d="M47.68,35.27c0-.69-.56-1.25-1.25-1.25h-19.44c-.69,0-1.25.56-1.25,1.25s.56,1.25,1.25,1.25h19.44c.69,0,1.25-.56,1.25-1.25Z"/>
  <path class="cls-1" d="M49.53,30.93c0-.69-.56-1.25-1.25-1.25h-22.97c-.69,0-1.25.56-1.25,1.25s.56,1.25,1.25,1.25h22.97c.69,0,1.25-.56,1.25-1.25Z"/>
</svg>