<?xml version="1.0" encoding="UTF-8"?>
<svg id="Expanded_Icons" data-name="Expanded Icons" xmlns="http://www.w3.org/2000/svg" viewBox="0 0 64 64">
  <defs>
    <style>
      .cls-1 {
        fill: #29b5e8;
        stroke-width: 0px;
      }
    </style>
  </defs>
  <path class="cls-1" d="M21.45,24.59c-.69,0-1.25.56-1.25,1.25v24.62c0,.69.56,1.25,1.25,1.25h21.1c.69,0,1.25-.56,1.25-1.25v-24.62c0-.69-.56-1.25-1.25-1.25h-21.1ZM41.3,27.09v15.09h-18.6v-15.09h18.6ZM22.7,49.22v-4.53h18.6v4.53h-18.6Z"/>
  <path class="cls-1" d="M26.69,32.17h10.62c.69,0,1.25-.56,1.25-1.25s-.56-1.25-1.25-1.25h-10.62c-.69,0-1.25.56-1.25,1.25s.56,1.25,1.25,1.25Z"/>
  <path class="cls-1" d="M26.69,35.89h10.62c.69,0,1.25-.56,1.25-1.25s-.56-1.25-1.25-1.25h-10.62c-.69,0-1.25.56-1.25,1.25s.56,1.25,1.25,1.25Z"/>
  <path class="cls-1" d="M26.69,39.6h10.62c.69,0,1.25-.56,1.25-1.25s-.56-1.25-1.25-1.25h-10.62c-.69,0-1.25.56-1.25,1.25s.56,1.25,1.25,1.25Z"/>
  <path class="cls-1" d="M50.53,4.5h-25.74c-.56,0-1.1.24-1.48.65l-11.19,12.27c-.34.37-.52.85-.52,1.35v38.73c0,1.1.9,2,2,2h36.93c1.1,0,2-.9,2-2V6.5c0-1.1-.9-2-2-2ZM22.55,11.92v5.29h-4.82l4.82-5.29ZM48.53,55.5H15.6V21.21h8.95c1.1,0,2-.9,2-2v-10.71h21.98v47Z"/>
</svg>