<?xml version="1.0" encoding="UTF-8"?>
<svg id="Expanded_Icons" data-name="Expanded Icons" xmlns="http://www.w3.org/2000/svg" viewBox="0 0 64 64">
  <defs>
    <style>
      .cls-1 {
        fill: #29b5e8;
        stroke-width: 0px;
      }
    </style>
  </defs>
  <path class="cls-1" d="M55.11,20.88H8.85c-2.43,0-4.41,1.98-4.41,4.41v13.54c0,2.43,1.98,4.41,4.41,4.41h46.27c2.43,0,4.41-1.98,4.41-4.41v-13.54c0-2.43-1.98-4.41-4.41-4.41ZM55.52,38.83c0,.23-.18.41-.41.41H8.85c-.23,0-.41-.18-.41-.41v-13.54c0-.23.18-.41.41-.41h46.27c.23,0,.41.18.41.41v13.54Z"/>
  <path class="cls-1" d="M16.45,27.77c-2.45,0-4.43,1.99-4.43,4.43s1.99,4.43,4.43,4.43,4.43-1.99,4.43-4.43-1.99-4.43-4.43-4.43ZM16.45,32.64c-.24,0-.43-.2-.43-.43s.2-.43.43-.43.43.2.43.43-.19.43-.43.43Z"/>
  <path class="cls-1" d="M50.93,28.12h-24.96c-.69,0-1.25.56-1.25,1.25s.56,1.25,1.25,1.25h24.96c.69,0,1.25-.56,1.25-1.25s-.56-1.25-1.25-1.25Z"/>
  <path class="cls-1" d="M50.93,33.5h-24.96c-.69,0-1.25.56-1.25,1.25s.56,1.25,1.25,1.25h24.96c.69,0,1.25-.56,1.25-1.25s-.56-1.25-1.25-1.25Z"/>
</svg>