<?xml version="1.0" encoding="UTF-8"?>
<svg id="Expanded_Icons" data-name="Expanded Icons" xmlns="http://www.w3.org/2000/svg" viewBox="0 0 64 64">
  <defs>
    <style>
      .cls-1 {
        fill: #29b5e8;
        stroke-width: 0px;
      }
    </style>
  </defs>
  <path class="cls-1" d="M52.1,8.58h-22.05v-3.58c0-.69-.56-1.25-1.25-1.25s-1.25.56-1.25,1.25v2.93h-10.97c-.57,0-1.11.26-1.46.7l-7.33,9.04c-.11.13-.19.28-.26.44,0,0,0,.01-.01.02-.09.21-.12.43-.13.65,0,.03-.02.05-.02.08v30.15c0,2.24,0,6.41,5.45,6.41h14.73v3.6c0,.69.56,1.25,1.25,1.25s1.25-.56,1.25-1.25v-4.25h15.39c.69,0,1.25-.56,1.25-1.25s-.56-1.25-1.25-1.25h-15.39v-1.87h22.05c3.6,0,6.52-2.93,6.52-6.52V15.1c0-3.6-2.93-6.52-6.52-6.52ZM30.05,16.92h19.77v25.25h-19.77v-25.25ZM17.49,11.69h10.07v5.28h-14.34l4.28-5.28ZM11.14,20.74h16.41v8.49H11.14v-8.49ZM11.14,31.63h16.41v9.13H11.14v-9.13ZM12.82,51.64c-1.55,0-1.68,0-1.68-2.64v-5.82h16.41v8.46h-14.73ZM54.63,43.86c0,1.39-1.13,2.52-2.52,2.52h-22.05v-1.72h22.27V14.42h-22.27v-1.84h22.05c1.39,0,2.52,1.13,2.52,2.52v28.76Z"/>
  <path class="cls-1" d="M16.59,22.81c-1.04,0-1.88.84-1.88,1.88s.84,1.88,1.88,1.88,1.88-.84,1.88-1.88-.84-1.88-1.88-1.88Z"/>
  <path class="cls-1" d="M16.59,45.61c-1.04,0-1.88.84-1.88,1.88s.84,1.88,1.88,1.88,1.88-.84,1.88-1.88-.84-1.88-1.88-1.88Z"/>
  <path class="cls-1" d="M16.59,34.11c-1.04,0-1.88.84-1.88,1.88s.84,1.88,1.88,1.88,1.88-.84,1.88-1.88-.84-1.88-1.88-1.88Z"/>
</svg>