<?xml version="1.0" encoding="UTF-8"?>
<svg id="Expanded_Icons" data-name="Expanded Icons" xmlns="http://www.w3.org/2000/svg" viewBox="0 0 64 64">
  <defs>
    <style>
      .cls-1 {
        fill: #29b5e8;
        stroke-width: 0px;
      }
    </style>
  </defs>
  <path class="cls-1" d="M45.38,19.45c-.91-.62-2.16-.39-2.78.52l-13.26,19.31-8.27-7.95c-.79-.76-2.06-.74-2.83.06-.77.8-.74,2.06.06,2.83l9.97,9.59c.37.36.87.56,1.39.56.07,0,.13,0,.2-.01.58-.06,1.11-.37,1.45-.86l14.6-21.25c.63-.91.39-2.16-.52-2.78Z"/>
  <path class="cls-1" d="M31.96,4.56c-15.16,0-27.5,12.34-27.5,27.5s12.34,27.5,27.5,27.5,27.5-12.34,27.5-27.5S47.13,4.56,31.96,4.56ZM31.96,55.56c-12.96,0-23.5-10.54-23.5-23.5S19.01,8.56,31.96,8.56s23.5,10.54,23.5,23.5-10.54,23.5-23.5,23.5Z"/>
</svg>