<?xml version="1.0" encoding="UTF-8"?>
<svg id="Expanded_Icons" data-name="Expanded Icons" xmlns="http://www.w3.org/2000/svg" viewBox="0 0 64 64">
  <defs>
    <style>
      .cls-1 {
        fill: #29b5e8;
        stroke-width: 0px;
      }
    </style>
  </defs>
  <path class="cls-1" d="M29.17,32.48c.03-.11.05-.21.05-.32,0-.08-.03-.16-.03-.24-.08-.24-.21-.46-.46-.59l-3.44-1.96c-.48-.27-1.1-.11-1.37.38-.27.48-.11,1.1.38,1.37l1.91,1.1-1.91,1.1c-.48.27-.64.89-.38,1.37.27.48.89.64,1.37.38l3.41-1.96c.24-.19.4-.38.46-.62Z"/>
  <path class="cls-1" d="M30.11,34.33c-.19-.03-.4.03-.59.13l-3.41,1.96c-.48.27-.64.89-.38,1.37.27.48.89.64,1.37.38l1.91-1.1v2.2c0,.56.46.99,1.02.99s.99-.46.99-.99v-3.95c0-.54-.4-.97-.91-.99Z"/>
  <path class="cls-1" d="M26.1,27.94l3.41,1.96c.19.11.38.13.59.13.51-.03.94-.48.94-.99v-3.92c0-.56-.46-.99-.99-.99-.56,0-1.02.46-1.02.99v2.2l-1.91-1.1c-.48-.27-1.1-.11-1.37.38-.3.46-.13,1.07.35,1.34Z"/>
  <path class="cls-1" d="M33.6,30.04c.19.03.4-.03.59-.13l3.41-1.96c.48-.27.64-.89.38-1.37s-.89-.64-1.37-.38l-1.91,1.1v-2.18c0-.56-.46-.99-1.02-.99s-1.02.43-1.02.99v3.92c0,.54.43.97.94.99Z"/>
  <path class="cls-1" d="M39.75,29.77c-.27-.48-.89-.64-1.37-.38l-3.41,1.96c-.21.13-.38.35-.46.59,0,.08-.03.16-.03.24,0,.11.03.21.05.32.08.21.24.43.46.56l3.41,1.96c.48.27,1.1.11,1.37-.38.27-.48.11-1.1-.38-1.37l-1.91-1.1,1.91-1.1c.48-.27.67-.89.35-1.32Z"/>
  <path class="cls-1" d="M37.6,36.4l-3.41-1.96c-.19-.11-.4-.13-.59-.11-.51.03-.94.48-.94.99v3.92c0,.56.46.99.99.99.56,0,1.02-.46,1.02-.99v-2.2l1.91,1.1c.48.27,1.1.11,1.37-.38.3-.46.13-1.07-.35-1.37Z"/>
  <path class="cls-1" d="M33.79,32.4v-.43c0-.08-.03-.13-.08-.19l-1.42-1.42c-.05-.05-.13-.08-.19-.08h-.43c-.05,0-.13.03-.19.08l-1.42,1.42c-.05.05-.08.13-.08.19v.43c0,.05.03.13.05.16l1.42,1.42c.05.05.13.08.19.08h.43c.05,0,.13-.05.16-.08l1.42-1.42c.05-.03.08-.11.13-.16ZM32.44,32.37l-.4.4c-.05.05-.13.08-.19.08-.08,0-.13-.03-.19-.08l-.4-.4c-.05-.05-.08-.13-.08-.19s.03-.13.08-.19l.4-.4c.05-.05.13-.08.19-.08.08,0,.13.03.19.08l.4.4c.05.05.08.13.08.19s-.03.13-.08.19Z"/>
  <path class="cls-1" d="M53.7,10.67H10.29c-3.32,0-6.02,2.7-6.02,6.02v30.62c0,3.32,2.7,6.02,6.02,6.02h43.41c3.32,0,6.02-2.7,6.02-6.02v-30.62c0-3.32-2.7-6.02-6.02-6.02ZM57.21,47.3c0,1.94-1.58,3.52-3.52,3.52H10.29c-1.94,0-3.52-1.58-3.52-3.52v-30.62c0-1.94,1.58-3.52,3.52-3.52h43.41c1.94,0,3.52,1.58,3.52,3.52v30.62Z"/>
  <path class="cls-1" d="M52.17,30.86l-8.63-5.55c-.58-.37-1.35-.2-1.73.38-.37.58-.21,1.35.38,1.73l7,4.5-7,4.5c-.58.37-.75,1.15-.38,1.73.24.37.64.57,1.05.57.23,0,.47-.06.67-.2l8.63-5.55c.36-.23.57-.63.57-1.05s-.22-.82-.57-1.05Z"/>
  <path class="cls-1" d="M21.97,25.69c-.37-.58-1.15-.75-1.73-.38l-8.63,5.55c-.36.23-.57.63-.57,1.05s.22.82.57,1.05l8.63,5.55c.21.13.44.2.67.2.41,0,.81-.2,1.05-.57.37-.58.21-1.35-.38-1.73l-7-4.5,7-4.5c.58-.37.75-1.15.38-1.73Z"/>
</svg>