<?xml version="1.0" encoding="UTF-8"?>
<svg id="Expanded_Icons" data-name="Expanded Icons" xmlns="http://www.w3.org/2000/svg" viewBox="0 0 64 64">
  <defs>
    <style>
      .cls-1 {
        fill: #29b5e8;
        stroke-width: 0px;
      }
    </style>
  </defs>
  <path class="cls-1" d="M51.2,25.9c-1.1.03-1.97.95-1.94,2.06l.04,1.51c.02,1.14-.43,2.25-1.23,3.05l-22.66,22.66c-.45.45-1.19.45-1.64,0l-14.78-14.78c-.45-.45-.45-1.19,0-1.64l22.66-22.66c.78-.78,1.87-1.23,2.96-1.23l12.52.23c.83.09,1.87,1.15,1.94,1.94l.05,1.3c.04,1.1.98,1.94,2.08,1.92,1.1-.04,1.96-.98,1.92-2.08l-.05-1.22c0-.06,0-.18-.01-.23-.24-2.75-2.86-5.37-5.68-5.61-.03,0-.1,0-.13,0l-12.49-.23h-.13c-2.16,0-4.28.88-5.81,2.41L6.17,35.94c-2.01,2.01-2.01,5.28,0,7.3l14.78,14.78c.97.97,2.27,1.51,3.65,1.51s2.67-.54,3.65-1.51l22.66-22.66c1.57-1.57,2.44-3.74,2.4-5.98l-.04-1.54c-.03-1.1-.94-1.99-2.06-1.94Z"/>
  <path class="cls-1" d="M13.63,37.79c-.49.49-.49,1.28,0,1.77l10.76,10.75c.24.24.56.37.88.37s.64-.12.88-.37c.49-.49.49-1.28,0-1.77l-10.76-10.75c-.49-.49-1.28-.49-1.77,0Z"/>
  <path class="cls-1" d="M57.66,5.72c-3.55-3.18-10.14-1.72-14.68,3.26-.28.31-.26.78.05,1.06.31.28.78.26,1.06-.05,3.99-4.37,9.64-5.79,12.58-3.15,1.04.94,1.64,2.3,1.72,3.95.14,2.82-1.22,6.08-3.64,8.73-2.48,2.72-5.6,4.29-8.31,4.46.12-.45.21-.92.21-1.41,0-2.97-2.42-5.39-5.39-5.39s-5.39,2.42-5.39,5.39,2.42,5.39,5.39,5.39c1.9,0,3.57-1,4.53-2.49.04,0,.09.01.13.01,3.26,0,7.02-1.75,9.94-4.94,2.68-2.94,4.19-6.61,4.03-9.82-.1-2.06-.87-3.78-2.22-4.99ZM41.25,25.46c-1.59,0-2.89-1.29-2.89-2.89s1.29-2.89,2.89-2.89,2.89,1.29,2.89,2.89c0,.39-.08.76-.22,1.1-.65-.22-1.24-.55-1.75-1-.31-.28-.78-.25-1.06.06-.28.31-.25.78.06,1.06.53.48,1.14.82,1.79,1.1-.48.35-1.07.57-1.71.57Z"/>
</svg>