<?xml version="1.0" encoding="UTF-8"?>
<svg id="Expanded_Icons" data-name="Expanded Icons" xmlns="http://www.w3.org/2000/svg" viewBox="0 0 64 64">
  <defs>
    <style>
      .cls-1 {
        fill: #29b5e8;
        stroke-width: 0px;
      }
    </style>
  </defs>
  <path class="cls-1" d="M31.95,4.1c-15.43,0-27.95,12.52-27.95,27.95s12.52,27.95,27.95,27.95,27.95-12.52,27.95-27.95S47.39,4.1,31.95,4.1ZM53.32,42.84l-11.02-12.92c-.4-1.96-1.36-3.72-2.69-5.12l14.85-.93c.93,2.56,1.44,5.31,1.44,8.19,0,3.88-.93,7.54-2.58,10.79ZM31.95,40.12c-4.45,0-8.07-3.62-8.07-8.07s3.62-8.07,8.07-8.07,8.07,3.62,8.07,8.07-3.62,8.07-8.07,8.07ZM53.4,21.43l-16.98,1.07c-1.36-.64-2.87-1.01-4.47-1.01-.54,0-1.06.05-1.58.13l8.35-12.53c6.43,1.9,11.74,6.43,14.68,12.34ZM36.12,8.48l-9.73,14.61c-1.35.84-2.5,1.97-3.35,3.31l-4.1-14.43c3.75-2.44,8.22-3.86,13.01-3.86,1.42,0,2.82.13,4.17.37ZM16.79,13.53l4.76,16.75c-.1.58-.16,1.17-.16,1.77,0,1.33.26,2.61.71,3.78l-14.03-5.48c.48-6.76,3.77-12.76,8.72-16.82ZM8.02,33.02l16.36,6.39c1.11,1.14,2.47,2.02,3.99,2.57l-13.72,6.61c-3.91-4.09-6.39-9.54-6.63-15.57ZM16.61,50.42l15.24-7.34c.23-.11.38-.29.5-.49,1.75-.07,3.4-.55,4.83-1.38l-3.09,14.68c-.71.06-1.42.1-2.14.1-5.83,0-11.19-2.1-15.34-5.58ZM36.72,55.52l3.51-16.71c.02-.08,0-.15,0-.23,1.07-1.35,1.81-2.98,2.11-4.75l9.64,11.3c-3.45,5.26-8.9,9.09-15.27,10.39Z"/>
</svg>