<?xml version="1.0" encoding="UTF-8"?>
<svg id="Expanded_Icons" data-name="Expanded Icons" xmlns="http://www.w3.org/2000/svg" viewBox="0 0 64 64">
  <defs>
    <style>
      .cls-1 {
        fill: #29b5e8;
        stroke-width: 0px;
      }
    </style>
  </defs>
  <path class="cls-1" d="M59.46,57.59l-6.5-7.6c2.01-2.6,3.22-5.85,3.22-9.39,0-8.48-6.88-15.36-15.36-15.36s-15.36,6.88-15.36,15.36,6.88,15.36,15.36,15.36c2.52,0,4.89-.62,6.99-1.69l6.58,7.69c.56.65,1.34,1.05,2.2,1.11.08,0,.16,0,.24,0,.77,0,1.51-.27,2.09-.78l.19-.16c1.35-1.16,1.5-3.2.34-4.55ZM27.96,40.61c0-7.09,5.77-12.86,12.86-12.86s12.86,5.77,12.86,12.86-5.77,12.86-12.86,12.86-12.86-5.77-12.86-12.86Z"/>
  <path class="cls-1" d="M25.22,31.06c0-.69-.56-1.25-1.25-1.25h-12.01c-.69,0-1.25.56-1.25,1.25s.56,1.25,1.25,1.25h12.01c.69,0,1.25-.56,1.25-1.25Z"/>
  <path class="cls-1" d="M21.87,35.4h-9.9c-.69,0-1.25.56-1.25,1.25s.56,1.25,1.25,1.25h9.9c.69,0,1.25-.56,1.25-1.25s-.56-1.25-1.25-1.25Z"/>
  <path class="cls-1" d="M50.99,45.27c0-.69-.45-1.26-1.06-1.47v-4.53c.62-.21,1.06-.79,1.06-1.47s-.45-1.26-1.06-1.47v-1.57h-8.74c-.21-.62-.79-1.06-1.47-1.06s-1.26.45-1.47,1.06h-4.56c-.21-.62-.79-1.06-1.47-1.06-.86,0-1.56.7-1.56,1.56,0,.67.43,1.24,1.02,1.46v7.06c-.59.22-1.02.79-1.02,1.46,0,.86.7,1.56,1.56,1.56.67,0,1.24-.43,1.46-1.02h14.29c.21.61.79,1.06,1.47,1.06.86,0,1.56-.7,1.56-1.56ZM39.72,36.81c.37,0,.71-.14.98-.36l1.57.98c-.03.12-.05.23-.05.36,0,.49.23.93.59,1.21l-.48,1.33s-.02,0-.04,0c-.53,0-1.01.27-1.29.68l-2.98-.86c-.02-.33-.14-.64-.33-.89l1.64-2.51c.12.03.25.05.39.05ZM47.56,38.29l-4.24,2.44s-.04-.03-.06-.05l.48-1.33s.02,0,.03,0c.69,0,1.26-.45,1.47-1.06h2.31ZM48.67,43.91l-4.82-1.92s0-.06,0-.1c0-.11-.01-.21-.03-.31l4.58-2.63c.15.13.33.24.53.3v4.53c-.09.03-.18.07-.26.12ZM35.89,41.67c.18.07.37.11.58.11.53,0,1-.27,1.28-.67l2.71.78c-1.65.46-4.2,1.17-6.29,1.8l1.72-2.02ZM38.5,36.21l-1.64,2.51c-.13-.03-.25-.06-.39-.06-.19,0-.38.04-.55.1l-2.32-2.83c.03-.06.06-.12.08-.19h4.56c.06.17.14.32.25.46ZM32.89,36.65l2.26,2.75c-.15.24-.24.52-.24.82s.09.56.23.8l-2.35,2.76s-.07-.02-.11-.03v-7.01c.08-.02.15-.05.22-.09ZM41.01,42.78c.28.41.75.68,1.28.68.47,0,.89-.21,1.17-.54l4.51,1.8s-.01.04-.02.05h-13.89c2.26-.68,5.22-1.51,6.94-1.99ZM49.43,38.35c-.31,0-.56-.25-.56-.56s.25-.56.56-.56.56.25.56.56-.25.56-.56.56ZM48.93,36.32c-.46.16-.82.51-.97.97h-2.7c-.21-.62-.79-1.06-1.47-1.06-.37,0-.71.14-.98.36l-1.34-.84h7.47v.57ZM39.72,34.69c.31,0,.56.25.56.56s-.25.56-.56.56-.56-.25-.56-.56.25-.56.56-.56ZM32.21,34.69c.31,0,.56.25.56.56s-.25.56-.56.56-.56-.25-.56-.56.25-.56.56-.56ZM32.21,45.79c-.31,0-.56-.25-.56-.56s.25-.56.56-.56.56.25.56.56-.25.56-.56.56Z"/>
  <path class="cls-1" d="M21.56,40.8h-9.59c-.69,0-1.25.56-1.25,1.25s.56,1.25,1.25,1.25h9.59c.69,0,1.25-.56,1.25-1.25s-.56-1.25-1.25-1.25Z"/>
  <circle class="cls-1" cx="11.96" cy="16.73" r="1.21"/>
  <circle class="cls-1" cx="16.81" cy="16.73" r="1.21"/>
  <circle class="cls-1" cx="21.66" cy="16.73" r="1.21"/>
  <path class="cls-1" d="M25.25,50.08H8.42v-27.92h44.75v5.4c0,1.1.9,2,2,2s2-.9,2-2v-15.66c0-1.1-.9-2-2-2H6.42c-1.1,0-2,.9-2,2v40.17c0,1.1.9,2,2,2h18.84c1.1,0,2-.9,2-2s-.9-2-2-2ZM53.16,13.91v5.75H8.42v-5.75h44.75Z"/>
</svg>