<?xml version="1.0" encoding="UTF-8"?>
<svg id="Expanded_Icons" data-name="Expanded Icons" xmlns="http://www.w3.org/2000/svg" viewBox="0 0 64 64">
  <defs>
    <style>
      .cls-1 {
        fill: #29b5e8;
        stroke-width: 0px;
      }
    </style>
  </defs>
  <path class="cls-1" d="M31.21,26.09v7.09c0,1.72,3.15,2.65,6.1,2.65s6.1-.93,6.1-2.65v-7.09c0-1.72-3.14-2.65-6.1-2.65s-6.1.93-6.1,2.65ZM42.42,30.83c0,.67-1.99,1.65-5.1,1.65s-5.1-.98-5.1-1.65v-.96c1.16.76,3.17,1.16,5.1,1.16s3.94-.4,5.1-1.16v.96ZM42.42,28.37c0,.67-1.99,1.65-5.1,1.65s-5.1-.98-5.1-1.65v-.79c1.16.76,3.17,1.16,5.1,1.16s3.94-.4,5.1-1.16v.79ZM37.32,34.84c-3.12,0-5.1-.98-5.1-1.65v-.86c1.16.76,3.17,1.16,5.1,1.16s3.94-.4,5.1-1.16v.86c0,.67-1.99,1.65-5.1,1.65ZM42.42,26.09c0,.67-1.99,1.65-5.1,1.65s-5.1-.98-5.1-1.65,1.99-1.65,5.1-1.65,5.1.98,5.1,1.65Z"/>
  <path class="cls-1" d="M40.93,23.12c.12-.23.28-.44.47-.64l.21-.22-.24-.68s.05-.04.07-.05l.57.44.28-.13c.23-.11.49-.2.75-.25l.3-.06.21-.7s.06,0,.09,0l.21.7.3.06c.27.05.52.13.75.25l.28.13.57-.44s.05.04.07.05l-.24.68.21.22c.18.2.34.41.47.64l.15.27.72-.02s.02.06.03.09l-.6.41.04.3c.02.13.03.26.03.4s-.01.27-.03.4l-.04.3.6.41s-.02.06-.03.08l-.72-.02-.15.27c-.12.23-.28.45-.47.64l-.21.22.24.68s-.05.04-.07.05l-.57-.44-.28.13c-.24.11-.49.19-.75.24l.18.98c.25-.05.49-.11.71-.2l.64.5.29-.17c.28-.16.54-.35.77-.56l.25-.22-.27-.77c.09-.11.17-.23.25-.35l.81.02.13-.31c.13-.29.23-.6.29-.91l.07-.33-.67-.46c0-.07,0-.14,0-.21s0-.14,0-.21l.67-.46-.07-.33c-.07-.31-.17-.62-.29-.91l-.13-.31-.81.02c-.08-.12-.16-.23-.25-.35l.27-.77-.25-.22c-.23-.21-.49-.4-.77-.56l-.29-.17-.64.5c-.13-.05-.27-.1-.41-.13l-.23-.78-.33-.04c-.31-.03-.64-.03-.95,0l-.33.04-.23.78c-.14.04-.28.08-.41.13l-.64-.5-.29.17c-.28.16-.54.35-.77.56l-.25.22.27.76c-.16.19-.3.4-.41.62l.88.48Z"/>
  <path class="cls-1" d="M43.94,26.11l.22.97c1.18-.27,2.01-1.3,2.01-2.51,0-1.42-1.16-2.58-2.58-2.58-.92,0-1.77.5-2.23,1.3l.87.5c.29-.5.8-.8,1.36-.8.87,0,1.58.71,1.58,1.58,0,.74-.51,1.37-1.23,1.54Z"/>
  <path class="cls-1" d="M12.32,37.73c.15.12.31.23.47.32.02.01.05.03.07.04.02.01.05.02.07.03,1.04.45,1.9.45,2.46.39.25.25.58.51,1,.69.4.19.83.3,1.26.33.16.01.32,0,.48,0,0,.71,0,1.42,0,1.97,0,2.14,1.27,3.53,3.24,3.53,1.44,0,3-.99,3.02-3.75v-.11c.05-3.54.09-9.68-.18-11.14-.29-1.56-1.3-2.93-3.02-4.07,0,0,0,0-.01,0,0,0,0,0,0,0l-7.73-4.95c-.58-.37-1.36-.2-1.73.38-.37.58-.2,1.35.38,1.73l7.71,4.94s0,0,0,0c1.15.76,1.79,1.56,1.95,2.44.16.87.21,5.05.14,10.65v.13c0,.58-.1,1.27-.52,1.27-.31,0-.74,0-.74-1.03,0-.65,0-3.88-.05-4.71v-3.45c0-.69-.56-1.25-1.25-1.25s-1.25.56-1.25,1.25v3.38c-.01.1-.03.19-.05.29,0,0-.08.04-.22.03-.12,0-.25-.04-.37-.1,0,0-.02,0-.03-.01,0,0-.01,0-.02,0-.09-.04-.16-.09-.21-.15.06-.73.15-2.15.11-3.25-.03-.69-.62-1.22-1.3-1.2-.69.03-1.23.61-1.2,1.3.03.74-.02,1.71-.07,2.42-.21-.01-.45-.06-.74-.18,0,0-.01-.01-.02-.02.04-.58.08-1.5.04-2.44-.03-.69-.6-1.21-1.3-1.2-.69.03-1.23.61-1.2,1.3.02.6.01,1.2,0,1.69-.37-.16-.66-.52-.78-1-.1-.41-.05-1.36,0-2.28.02-.39.04-.8.06-1.23.02-.69-.52-1.27-1.21-1.29-.28-.02-.54.06-.76.21l-2.06-1.5c-.56-.4-1.34-.28-1.75.27-.41.56-.28,1.34.27,1.75l2.92,2.13c-.05,1.03-.07,1.88.1,2.55.33,1.33,1.25,2.37,2.45,2.79.53.18,1.07.23,1.58.15Z"/>
  <path class="cls-1" d="M59.09,40.59c.02-.08.04-.16.05-.25,0-.03.02-.06.02-.09V15.42c0-.69-.56-1.25-1.25-1.25H21.5c-.69,0-1.25.56-1.25,1.25v8.56c0,.69.56,1.25,1.25,1.25s1.25-.56,1.25-1.25v-7.31h33.91v22.33h-30.25c-.69,0-1.25.56-1.25,1.25s.56,1.25,1.25,1.25h27.66l-6.81,4.96H15.1l2.01-1.47c.56-.41.68-1.19.27-1.75-.41-.56-1.19-.68-1.75-.27l-5.11,3.73c-.4.29-.57.79-.47,1.26-.11.18-.18.39-.18.61,0,.69.56,1.25,1.25,1.25h36.71c.27,0,.52-.08.74-.24l10.18-7.44c.5-.37.63-1.03.36-1.56Z"/>
</svg>