<?xml version="1.0" encoding="UTF-8"?>
<svg id="Expanded_Icons" data-name="Expanded Icons" xmlns="http://www.w3.org/2000/svg" viewBox="0 0 64 64">
  <defs>
    <style>
      .cls-1 {
        fill: #29b5e8;
        fill-rule: evenodd;
      }

      .cls-1, .cls-2, .cls-3 {
        stroke-width: 0px;
      }

      .cls-2 {
        fill: #11567f;
      }

      .cls-3 {
        fill: #fff;
      }
    </style>
  </defs>
  <path class="cls-1" d="M26.86,6c-5.01,0-9.07,4.06-9.07,9.07v33.86c0,5.01,4.06,9.07,9.07,9.07h21.16c5.01,0,9.07-4.06,9.07-9.07v-25.16c0-2.37-.93-4.64-2.58-6.34l-8.5-8.7c-1.71-1.75-4.05-2.73-6.49-2.73h-12.67ZM21.42,15.07c0-3.01,2.44-5.44,5.44-5.44h12.09v9.98c0,2.67,2.17,4.84,4.84,4.84h9.67v24.49c0,3.01-2.44,5.44-5.44,5.44h-21.16c-3.01,0-5.44-2.44-5.44-5.44V15.07ZM52.59,20.81c-.2-.3-.42-.59-.68-.85l-8.5-8.7c-.26-.26-.54-.5-.84-.7v9.04c0,.67.54,1.21,1.21,1.21h8.8Z"/>
  <rect class="cls-2" x="6.91" y="32" width="38.09" height="18.14" rx="4.23" ry="4.23"/>
  <path class="cls-3" d="M13.58,37.94v6.16h-1.3v-6.16h1.3Z"/>
  <path class="cls-3" d="M15.08,37.94h1.61l1.7,4.14h.07l1.7-4.14h1.61v6.16h-1.26v-4.01h-.05l-1.59,3.98h-.86l-1.59-3.99h-.05v4.02h-1.26v-6.16Z"/>
  <path class="cls-3" d="M24.31,44.09h-1.39l2.13-6.16h1.68l2.12,6.16h-1.39l-1.54-4.75h-.05l-1.55,4.75ZM24.22,41.67h3.29v1.02h-3.29v-1.02Z"/>
  <path class="cls-3" d="M33.79,39.93c-.04-.15-.1-.28-.18-.39-.08-.11-.17-.21-.28-.29-.11-.08-.23-.14-.37-.18-.14-.04-.29-.06-.46-.06-.31,0-.59.08-.83.23-.24.16-.42.38-.55.68-.13.3-.2.66-.2,1.09s.07.79.2,1.09c.13.3.31.53.55.69.24.16.52.23.84.23.29,0,.55-.05.75-.16.21-.11.37-.26.48-.45.11-.19.17-.42.17-.68l.26.04h-1.59v-.98h2.58v.78c0,.54-.11,1.01-.34,1.39-.23.39-.54.69-.94.9-.4.21-.86.31-1.38.31-.58,0-1.08-.13-1.52-.38-.44-.26-.78-.62-1.02-1.09-.24-.47-.36-1.03-.36-1.68,0-.5.07-.94.22-1.33.15-.39.35-.73.61-1,.26-.27.57-.48.92-.62.35-.14.73-.21,1.13-.21.35,0,.67.05.97.15.3.1.57.24.8.43.23.18.43.4.57.66.15.25.24.53.29.84h-1.32Z"/>
  <path class="cls-3" d="M36.57,44.09v-6.16h4.15v1.07h-2.85v1.47h2.63v1.07h-2.63v1.47h2.86v1.07h-4.16Z"/>
</svg>