<?xml version="1.0" encoding="UTF-8"?>
<svg id="Expanded_Icons" data-name="Expanded Icons" xmlns="http://www.w3.org/2000/svg" viewBox="0 0 64 64">
  <defs>
    <style>
      .cls-1 {
        fill: #29b5e8;
        stroke-width: 0px;
      }
    </style>
  </defs>
  <path class="cls-1" d="M35.91,25.7v-15.44l2.72,2.03c.89.66,2.14.48,2.8-.41.66-.89.48-2.14-.41-2.8l-5.92-4.4c-.71-.53-1.68-.53-2.39,0l-5.92,4.4c-.89.66-1.07,1.91-.41,2.8.39.53,1,.81,1.61.81.41,0,.83-.13,1.19-.4l2.73-2.03v15.44c-4.49.56-7.2,3.14-7.2,7.02v24.98c0,1.1.9,2,2,2s2-.9,2-2v-24.98c0-2.59,2.78-3.14,5.1-3.14.03,0,.06,0,.09,0,.03,0,.06,0,.09,0,4.22,0,5.1,1.71,5.1,3.14v24.98c0,1.1.9,2,2,2s2-.9,2-2v-24.98c0-3.88-2.71-6.46-7.2-7.02Z"/>
</svg>