<?xml version="1.0" encoding="UTF-8"?>
<svg id="Expanded_Icons" data-name="Expanded Icons" xmlns="http://www.w3.org/2000/svg" viewBox="0 0 64 64">
  <defs>
    <style>
      .cls-1 {
        fill: #29b5e8;
        stroke-width: 0px;
      }
    </style>
  </defs>
  <path class="cls-1" d="M56.1,22.07c2.15,0,3.9-1.75,3.9-3.9s-1.75-3.9-3.9-3.9-3.9,1.75-3.9,3.9,1.75,3.9,3.9,3.9Z"/>
  <path class="cls-1" d="M13.44,29.17h2.64c.69,0,1.25-.56,1.25-1.25s-.56-1.25-1.25-1.25h-2.64c-.69,0-1.25.56-1.25,1.25s.56,1.25,1.25,1.25Z"/>
  <path class="cls-1" d="M21.3,29.17h5.8c.69,0,1.25-.56,1.25-1.25s-.56-1.25-1.25-1.25h-5.8c-.69,0-1.25.56-1.25,1.25s.56,1.25,1.25,1.25Z"/>
  <path class="cls-1" d="M32.28,29.17h4.77c.69,0,1.25-.56,1.25-1.25s-.56-1.25-1.25-1.25h-4.77c-.69,0-1.25.56-1.25,1.25s.56,1.25,1.25,1.25Z"/>
  <path class="cls-1" d="M8.2,31.22h-2.2c-.69,0-1.25.56-1.25,1.25s.56,1.25,1.25,1.25h2.2c.69,0,1.25-.56,1.25-1.25s-.56-1.25-1.25-1.25Z"/>
  <path class="cls-1" d="M13.44,33.72h14.87c.69,0,1.25-.56,1.25-1.25s-.56-1.25-1.25-1.25h-14.87c-.69,0-1.25.56-1.25,1.25s.56,1.25,1.25,1.25Z"/>
  <path class="cls-1" d="M34.54,31.78c-.05-.07-.1-.14-.16-.19-.29-.29-.72-.43-1.12-.34-.08,0-.16.04-.24.07-.07.03-.14.07-.21.11-.07.05-.13.1-.19.16-.06.05-.11.12-.16.19-.04.06-.08.14-.11.21-.04.08-.06.16-.08.24-.01.08-.02.16-.02.24,0,.33.13.65.37.88.06.06.12.11.19.16.07.04.14.08.21.11.08.03.16.06.24.07.08.02.16.03.24.03.33,0,.65-.13.88-.37.24-.23.37-.55.37-.88,0-.08-.01-.16-.02-.24-.02-.08-.04-.16-.07-.24-.04-.07-.08-.15-.12-.21Z"/>
  <path class="cls-1" d="M21.98,35.95h-9.35c-.69,0-1.25.56-1.25,1.25s.56,1.25,1.25,1.25h9.35c.69,0,1.25-.56,1.25-1.25s-.56-1.25-1.25-1.25Z"/>
  <path class="cls-1" d="M40.19,37.2c0-.69-.56-1.25-1.25-1.25h-12.55c-.69,0-1.25.56-1.25,1.25s.56,1.25,1.25,1.25h12.55c.69,0,1.25-.56,1.25-1.25Z"/>
  <path class="cls-1" d="M46.77,14.28c-2.15,0-3.9,1.75-3.9,3.9s1.75,3.9,3.9,3.9,3.9-1.75,3.9-3.9-1.75-3.9-3.9-3.9Z"/>
  <path class="cls-1" d="M37.42,14.28c-2.15,0-3.9,1.75-3.9,3.9s1.75,3.9,3.9,3.9,3.9-1.75,3.9-3.9-1.75-3.9-3.9-3.9Z"/>
  <path class="cls-1" d="M56.1,42.03c-2.15,0-3.9,1.75-3.9,3.9s1.75,3.9,3.9,3.9,3.9-1.75,3.9-3.9-1.75-3.9-3.9-3.9Z"/>
  <path class="cls-1" d="M37.42,42.03c-2.15,0-3.9,1.75-3.9,3.9s1.75,3.9,3.9,3.9,3.9-1.75,3.9-3.9-1.75-3.9-3.9-3.9Z"/>
  <path class="cls-1" d="M56.1,32.78c-2.15,0-3.9,1.75-3.9,3.9s1.75,3.9,3.9,3.9,3.9-1.75,3.9-3.9-1.75-3.9-3.9-3.9Z"/>
  <path class="cls-1" d="M56.04,23.81c-2.02,0-3.66,1.64-3.66,3.66s1.64,3.66,3.66,3.66,3.66-1.64,3.66-3.66-1.64-3.66-3.66-3.66ZM56.04,28.63c-.64,0-1.16-.52-1.16-1.16s.52-1.16,1.16-1.16,1.16.52,1.16,1.16-.52,1.16-1.16,1.16Z"/>
  <path class="cls-1" d="M46.77,23.56c-2.15,0-3.95,1.75-3.95,3.9s1.75,3.9,3.9,3.9,3.9-1.75,3.9-3.9-1.7-3.9-3.85-3.9Z"/>
  <path class="cls-1" d="M46.77,33c-2.02,0-3.66,1.64-3.66,3.66s1.64,3.66,3.66,3.66,3.66-1.64,3.66-3.66-1.64-3.66-3.66-3.66ZM46.77,37.83c-.64,0-1.16-.52-1.16-1.16s.52-1.16,1.16-1.16,1.16.52,1.16,1.16-.52,1.16-1.16,1.16Z"/>
  <path class="cls-1" d="M46.77,42.48c-2.02,0-3.66,1.64-3.66,3.66s1.64,3.66,3.66,3.66,3.66-1.64,3.66-3.66-1.64-3.66-3.66-3.66ZM46.77,47.3c-.64,0-1.16-.52-1.16-1.16s.52-1.16,1.16-1.16,1.16.52,1.16,1.16-.52,1.16-1.16,1.16Z"/>
</svg>