<?xml version="1.0" encoding="UTF-8"?>
<svg id="Expanded_Icons" data-name="Expanded Icons" xmlns="http://www.w3.org/2000/svg" viewBox="0 0 64 64">
  <defs>
    <style>
      .cls-1 {
        fill: #29b5e8;
        stroke-width: 0px;
      }
    </style>
  </defs>
  <path class="cls-1" d="M48.53,57.97l-8.96-22.39c-.03-.15-.08-.29-.16-.42,0,0,0,0,0,0l-4.99-12.47c1.11-.76,1.84-2.04,1.84-3.49,0-2.34-1.9-4.24-4.24-4.24s-4.24,1.9-4.24,4.24c0,1.45.73,2.73,1.84,3.49l-9.37,23.42c-.07.12-.13.25-.16.39l-4.6,11.49c-.07.18-.09.36-.08.54,0,.19.02.37.1.55.21.46.66.73,1.14.73.17,0,.35-.04.52-.11l14.78-6.76,14.9,6.76c.17.08.34.11.52.11.48,0,.93-.27,1.14-.73.08-.18.11-.37.1-.55.01-.18,0-.36-.08-.54ZM26.3,37.69l3.38,2.2-5.73,3.66,2.34-5.86ZM27.25,35.33l4.77-11.91,4.77,11.93-4.79,3.06-4.75-3.08ZM31.99,41.38l7.92,5.15-7.96,3.64-8.02-3.64,8.05-5.15ZM34.3,39.91l3.43-2.2,2.39,5.98-5.83-3.78ZM18.92,56.13l3.09-7.73,6.92,3.14-10.02,4.58ZM41.98,48.33l3.13,7.82-10.15-4.61,7.02-3.21Z"/>
  <path class="cls-1" d="M44.32,19.18c0,3.16-1.2,6.17-3.37,8.47-.47.5-.45,1.29.05,1.77.24.23.55.34.86.34.33,0,.66-.13.91-.39,2.62-2.76,4.06-6.38,4.06-10.19,0-4.21-1.8-8.24-4.95-11.05-.51-.46-1.3-.42-1.77.1-.46.52-.42,1.31.1,1.77,2.61,2.33,4.11,5.68,4.11,9.18Z"/>
  <path class="cls-1" d="M49.27,19.18c0,4.51-1.73,8.78-4.88,12.02-.48.5-.47,1.29.03,1.77.24.24.56.35.87.35s.65-.13.9-.38c3.6-3.71,5.58-8.59,5.58-13.76,0-5.53-2.34-10.85-6.43-14.58-.51-.46-1.3-.43-1.77.08-.47.51-.43,1.3.08,1.77,3.57,3.26,5.62,7.91,5.62,12.74Z"/>
  <path class="cls-1" d="M39.41,19.18c0,1.85-.68,3.62-1.92,4.98-.46.51-.43,1.3.08,1.77.24.22.54.33.84.33.34,0,.68-.14.92-.41,1.66-1.82,2.58-4.19,2.58-6.66,0-2.96-1.31-5.75-3.6-7.64-.53-.44-1.32-.36-1.76.17-.44.53-.36,1.32.17,1.76,1.71,1.41,2.69,3.5,2.69,5.71Z"/>
  <path class="cls-1" d="M18.67,33.25c.31,0,.62-.12.87-.35.5-.48.51-1.27.04-1.77-3.1-3.23-4.81-7.48-4.81-11.96,0-4.8,2.02-9.42,5.55-12.68.51-.47.54-1.26.07-1.77-.47-.51-1.26-.54-1.77-.07-4.04,3.73-6.35,9.02-6.35,14.51,0,5.13,1.96,9.99,5.51,13.69.25.26.57.38.9.38Z"/>
  <path class="cls-1" d="M21.17,29.27c.25.26.58.4.92.4.31,0,.61-.11.85-.34.5-.47.53-1.26.06-1.77-2.13-2.28-3.3-5.26-3.3-8.39,0-3.47,1.47-6.79,4.04-9.12.51-.46.55-1.25.09-1.77-.46-.51-1.25-.55-1.77-.09-3.09,2.8-4.86,6.8-4.86,10.97,0,3.76,1.41,7.34,3.97,10.09Z"/>
  <path class="cls-1" d="M24.61,25.76c.25.28.59.42.93.42.3,0,.59-.1.83-.32.52-.46.56-1.25.1-1.76-1.21-1.35-1.87-3.1-1.87-4.92,0-2.14.93-4.17,2.54-5.58.52-.45.57-1.24.12-1.76-.45-.52-1.24-.58-1.76-.12-2.16,1.88-3.4,4.6-3.4,7.47,0,2.43.89,4.77,2.5,6.58Z"/>
</svg>