<?xml version="1.0" encoding="UTF-8"?>
<svg id="Expanded_Icons" data-name="Expanded Icons" xmlns="http://www.w3.org/2000/svg" viewBox="0 0 64 64">
  <defs>
    <style>
      .cls-1 {
        fill: #29b5e8;
        stroke-width: 0px;
      }
    </style>
  </defs>
  <path class="cls-1" d="M58,5.98c-2.85-2.85-9.33-.74-12.94.77-5.98,2.5-12.21,6.74-17.09,11.62-.73.73-1.44,1.51-2.13,2.3l-9.98,2.81c-.21.06-.39.17-.54.32l-9.89,9.89c-.33.33-.45.83-.3,1.27.15.45.53.78,1,.85l9.48,1.46c-.49,1.14-.92,2.23-1.28,3.25-.26.73-.08,1.54.47,2.08l2.41,2.41-.61.61c-.98-.75-2.06-1.25-3.12-1.44-1.69-.3-3.29.21-4.5,1.42-3.03,3.04-5.2,12.31-5.43,13.36-.09.41.03.84.32,1.15.24.24.56.38.9.38.08,0,.16,0,.24-.02.41-.08,9.95-2.01,13.39-5.44,2.02-2.02,1.96-5.03-.03-7.62l.61-.61,2.41,2.41c.38.38.89.59,1.41.59.23,0,.45-.04.67-.12,1.01-.36,2.1-.79,3.23-1.28l1.46,9.47c.07.46.4.85.85,1,.13.04.26.06.39.06.33,0,.65-.13.88-.37l9.89-9.89c.15-.15.26-.34.32-.54l2.81-9.96c.8-.7,1.58-1.41,2.32-2.15,10.31-10.31,16.68-25.75,12.39-30.03ZM16.62,53.25c-1.94,1.94-6.95,3.51-10.16,4.31.89-3.3,2.54-8.46,4.28-10.2.52-.52,1.1-.77,1.77-.77.17,0,.34.02.53.05.91.16,1.88.72,2.73,1.57,1.36,1.36,2.39,3.49.85,5.03ZM55.17,8.81c.67.78.2,4.25-1.76,8.84-2.99-1.61-5.45-4.08-7.07-7.06,4.57-1.94,8.03-2.43,8.83-1.78ZM8.94,33.72l7.92-7.92,6.3-1.78c-2.63,3.56-4.81,7.37-6.49,10.88l-7.73-1.19ZM23.3,45.47l-1.51-1.51,13.42-13.43c.49-.49.49-1.28,0-1.77s-1.28-.49-1.77,0l-13.42,13.43-1.51-1.51c2.26-5.87,6.54-13.74,12.28-19.48,4.4-4.4,9.13-7.52,13.27-9.57,1.87,3.52,4.78,6.42,8.3,8.29-2.05,4.12-5.17,8.84-9.58,13.26-5.75,5.75-13.61,10.02-19.48,12.28ZM38.16,47.13l-7.92,7.92-1.19-7.72c3.51-1.67,7.32-3.85,10.87-6.48l-1.77,6.29Z"/>
  <path class="cls-1" d="M45.47,23.88c0-2.96-2.41-5.37-5.37-5.37s-5.37,2.41-5.37,5.37,2.41,5.37,5.37,5.37,5.37-2.41,5.37-5.37ZM40.1,26.75c-1.58,0-2.87-1.29-2.87-2.87s1.29-2.87,2.87-2.87,2.87,1.29,2.87,2.87-1.29,2.87-2.87,2.87Z"/>
</svg>