<?xml version="1.0" encoding="UTF-8"?>
<svg id="Expanded_Icons" data-name="Expanded Icons" xmlns="http://www.w3.org/2000/svg" viewBox="0 0 64 64">
  <defs>
    <style>
      .cls-1 {
        fill: #29b5e8;
        stroke-width: 0px;
      }
    </style>
  </defs>
  <path class="cls-1" d="M53.58,19.04h-7c-1.46,0-2.68.89-3.63,2.31h-18.33c-1.28-1.88-2.66-2.31-3.64-2.31h-7.33c-2.4,0-4.39,2.42-5.45,6.65-.17.67.24,1.35.91,1.52.1.03.21.04.31.04.56,0,1.07-.38,1.21-.94.83-3.27,2.15-4.76,3.03-4.76h3.56c-.69,1.07-1.26,2.46-1.69,4.15-.17.67.24,1.35.91,1.52.1.03.21.04.31.04.56,0,1.07-.38,1.21-.94.83-3.27,2.15-4.76,3.03-4.76.3,0,.62.16.95.47-.94.68-1.73,1.89-2.32,3.57-.23.65.11,1.36.77,1.59.14.05.28.07.41.07.52,0,1-.32,1.18-.84.62-1.75,1.4-2.55,1.86-2.55h.25s0,0,0,0h17.63c-.87,2.35-1.32,5.27-1.32,8.12s.45,5.77,1.32,8.12h-13.4c-.69,0-1.25.56-1.25,1.25s.56,1.25,1.25,1.25h14.64c.96,1.42,2.17,2.31,3.63,2.31h7c4.02,0,6.19-6.67,6.19-12.94s-2.17-12.94-6.19-12.94ZM42.88,31.98c0-6.37,2.19-10.44,3.69-10.44h3.24c-1.59,2.51-2.43,6.55-2.43,10.44s.84,7.93,2.43,10.44h-3.24c-1.5,0-3.69-4.07-3.69-10.44ZM53.58,42.42c-1.5,0-3.69-4.07-3.69-10.44s2.19-10.44,3.69-10.44,3.69,4.07,3.69,10.44-2.19,10.44-3.69,10.44Z"/>
  <path class="cls-1" d="M7.66,30.59h22.3l-.97,1.08c-.46.51-.42,1.3.09,1.77.24.22.54.32.84.32.34,0,.68-.14.93-.41l2.85-3.17c.06-.06.08-.14.12-.2.03-.06.08-.11.1-.17.12-.3.12-.63,0-.93-.03-.06-.07-.11-.1-.17-.04-.07-.07-.14-.12-.2l-2.85-3.17c-.46-.51-1.25-.55-1.77-.09-.51.46-.55,1.25-.09,1.77l.97,1.08H7.66c-.69,0-1.25.56-1.25,1.25s.56,1.25,1.25,1.25Z"/>
  <path class="cls-1" d="M6.09,34.98h9.65c.69,0,1.25-.56,1.25-1.25s-.56-1.25-1.25-1.25H6.09c-.69,0-1.25.56-1.25,1.25s.56,1.25,1.25,1.25Z"/>
  <path class="cls-1" d="M20.97,41.31H5.51c-.69,0-1.25.56-1.25,1.25s.56,1.25,1.25,1.25h15.46c.69,0,1.25-.56,1.25-1.25s-.56-1.25-1.25-1.25Z"/>
  <path class="cls-1" d="M28.17,38.62c.03-.06.08-.11.1-.17.12-.3.12-.63,0-.93-.03-.06-.07-.11-.1-.17-.04-.07-.07-.14-.12-.2l-2.85-3.17c-.46-.51-1.25-.55-1.77-.09-.51.46-.55,1.25-.09,1.77l.97,1.08h-15.7c-.69,0-1.25.56-1.25,1.25s.56,1.25,1.25,1.25h15.7l-.97,1.08c-.46.51-.42,1.3.09,1.77.24.22.54.32.84.32.34,0,.68-.14.93-.41l2.85-3.17c.06-.06.08-.14.12-.2Z"/>
  <path class="cls-1" d="M19.83,31.26c-.69.02-1.23.59-1.22,1.28.02.76.08,1.52.19,2.31.08.63.62,1.09,1.24,1.09.05,0,.11,0,.17-.01.68-.09,1.17-.72,1.08-1.4-.09-.71-.15-1.38-.17-2.05-.02-.69-.58-1.25-1.28-1.22Z"/>
</svg>