<?xml version="1.0" encoding="UTF-8"?>
<svg id="Expanded_Icons" data-name="Expanded Icons" xmlns="http://www.w3.org/2000/svg" viewBox="0 0 64 64">
  <defs>
    <style>
      .cls-1 {
        fill: #2ab5e8;
        opacity: .5;
      }

      .cls-1, .cls-2 {
        stroke-width: 0px;
      }

      .cls-2 {
        fill: #29b5e8;
      }
    </style>
  </defs>
  <g id="Layer_1-2" data-name="Layer 1-2">
    <g>
      <g>
        <path class="cls-2" d="M30.19,55.24H10.67c-1.72,0-3.13-1.4-3.13-3.13V11.89c0-1.72,1.4-3.13,3.13-3.13h40.22c1.72,0,3.13,1.4,3.13,3.13v13.89h.73c1.02,0,1.96.27,2.8.7v-14.59c0-3.67-2.99-6.67-6.67-6.67H10.67c-3.67,0-6.67,2.99-6.67,6.67v40.22c0,3.67,2.99,6.67,6.67,6.67h20.08c-.26-.68-.42-1.41-.42-2.19l-.13-1.35h0Z"/>
        <path class="cls-2" d="M33.9,12.71h-6.24c-1.41,0-2.55,1.15-2.55,2.55v6.24c0,1.41,1.15,2.55,2.55,2.55h6.24c1.41,0,2.55-1.15,2.55-2.55v-6.24c0-1.41-1.15-2.55-2.55-2.55ZM34.09,21.51c0,.11-.09.2-.2.2h-6.24c-.11,0-.2-.09-.2-.2v-6.24c0-.11.09-.2.2-.2h6.24c.11,0,.2.09.2.2v6.24Z"/>
        <path class="cls-1" d="M47.5,12.71h-6.24c-1.41,0-2.55,1.15-2.55,2.55v6.24c0,1.41,1.15,2.55,2.55,2.55h6.24c1.41,0,2.55-1.15,2.55-2.55v-6.24c0-1.41-1.15-2.55-2.55-2.55ZM47.69,21.51c0,.11-.09.2-.2.2h-6.24c-.11,0-.2-.09-.2-.2v-6.24c0-.11.09-.2.2-.2h6.24c.11,0,.2.09.2.2v6.24Z"/>
        <path class="cls-1" d="M20.3,12.71h-6.24c-1.41,0-2.55,1.15-2.55,2.55v6.24c0,1.41,1.15,2.55,2.55,2.55h6.24c1.41,0,2.55-1.15,2.55-2.55v-6.24c0-1.41-1.15-2.55-2.55-2.55ZM20.49,21.51c0,.11-.09.2-.2.2h-6.24c-.11,0-.2-.09-.2-.2v-6.24c0-.11.09-.2.2-.2h6.24c.11,0,.2.09.2.2v6.24Z"/>
        <path class="cls-1" d="M27.66,35.32c-.11,0-.2-.09-.2-.2v-6.24c0-.11.09-.2.2-.2h1.14c.65-1.03,1.58-1.85,2.69-2.36h-3.83c-1.41,0-2.55,1.15-2.55,2.55v6.24c0,1.41,1.15,2.55,2.55,2.55h.77l-.24-2.36h-.53Z"/>
        <path class="cls-2" d="M20.3,26.33h-6.24c-1.41,0-2.55,1.15-2.55,2.55v6.24c0,1.41,1.15,2.55,2.55,2.55h6.24c1.41,0,2.55-1.15,2.55-2.55v-6.24c0-1.41-1.15-2.55-2.55-2.55ZM20.49,35.12c0,.11-.09.2-.2.2h-6.24c-.11,0-.2-.09-.2-.2v-6.24c0-.11.09-.2.2-.2h6.24c.11,0,.2.09.2.2v6.24Z"/>
        <path class="cls-2" d="M27.66,48.92c-.11,0-.2-.09-.2-.2v-6.24c0-.11.09-.2.2-.2h1.23l-.24-2.36h-.99c-1.41,0-2.55,1.15-2.55,2.55v6.24c0,1.41,1.15,2.55,2.55,2.55h2.13l-.24-2.36h-1.9Z"/>
        <path class="cls-2" d="M20.3,39.94h-6.24c-1.41,0-2.55,1.15-2.55,2.55v6.24c0,1.41,1.15,2.55,2.55,2.55h6.24c1.41,0,2.55-1.15,2.55-2.55v-6.24c0-1.41-1.15-2.55-2.55-2.55ZM20.49,48.73c0,.11-.09.2-.2.2h-6.24c-.11,0-.2-.09-.2-.2v-6.24c0-.11.09-.2.2-.2h6.24c.11,0,.2.09.2.2v6.24Z"/>
      </g>
      <g>
        <path class="cls-2" d="M57.03,34.41h-22.76c-.65,0-1.18-.53-1.18-1.18,0-1.66,1.35-3,3-3h19.1c1.66,0,3,1.35,3,3,0,.65-.53,1.18-1.18,1.18h.01Z"/>
        <path class="cls-2" d="M52.15,56.28h-12.99c-1.72,0-3.13-1.4-3.13-3.12l-1.7-18.99c-.06-.65.42-1.22,1.07-1.28.65-.07,1.22.42,1.28,1.07l1.71,19.09c0,.52.35.87.77.87h12.99c.42,0,.77-.34.77-.76l1.71-19.2c.05-.65.63-1.13,1.28-1.07.65.05,1.13.63,1.07,1.28l-1.71,19.09c0,1.61-1.4,3.02-3.12,3.02h0Z"/>
        <path class="cls-2" d="M57.58,45.43c-.18,0-.35-.05-.51-.16l-11.93-8.39c-.4-.28-.49-.83-.21-1.23s.83-.49,1.23-.21l11.93,8.39c.4.28.49.83.21,1.23-.17.24-.44.38-.73.38h0Z"/>
        <path class="cls-2" d="M57.63,46.92c-.26,0-.52-.04-.77-.13-.41-.15-.78-.4-1.05-.73-.4-.49-.32-1.19.16-1.61.33-.29.79-.35,1.19-.2-.28-.31-.39-.76-.24-1.19.21-.62.88-.94,1.5-.74,1.23.43,1.89,1.78,1.46,3.01-.34.98-1.26,1.59-2.24,1.59h0Z"/>
        <path class="cls-2" d="M45.93,38.91h-.56c-1.27,0-2.3-1.03-2.3-2.3v-2.54c0-.49.4-.88.88-.88s.88.4.88.88v2.54c0,.29.24.53.53.53h.56c.29,0,.53-.24.53-.53v-1.24c0-.49.4-.88.88-.88s.88.4.88.88v1.24c0,1.27-1.03,2.3-2.3,2.3Z"/>
      </g>
    </g>
  </g>
</svg>