<?xml version="1.0" encoding="UTF-8"?>
<svg id="Expanded_Icons" data-name="Expanded Icons" xmlns="http://www.w3.org/2000/svg" viewBox="0 0 64 64">
  <defs>
    <style>
      .cls-1 {
        fill: #29b5e8;
      }

      .cls-1, .cls-2, .cls-3 {
        stroke-width: 0px;
      }

      .cls-2 {
        fill: #11567f;
      }

      .cls-3 {
        fill: #fff;
      }
    </style>
  </defs>
  <path class="cls-1" d="M15.58,6.93c-.55,0-1.08.08-1.58.23-.31.09-.65-.05-.78-.35l-.67-1.62c-.12-.3.02-.64.32-.75.85-.29,1.76-.44,2.71-.44h2.15c.32,0,.59.26.59.59v1.76c0,.32-.26.59-.59.59h-2.15Z"/>
  <path class="cls-1" d="M29.26,6.35c0,.32-.26.59-.59.59h-4.3c-.32,0-.59-.26-.59-.59v-1.76c0-.32.26-.59.59-.59h4.3c.32,0,.59.26.59.59v1.76Z"/>
  <path class="cls-1" d="M40.21,6.35c0,.32-.26.59-.59.59h-4.3c-.32,0-.59-.26-.59-.59v-1.76c0-.32.26-.59.59-.59h4.3c.32,0,.59.26.59.59v1.76Z"/>
  <path class="cls-1" d="M48.42,6.93h-2.15c-.32,0-.59-.26-.59-.59v-1.76c0-.32.26-.59.59-.59h2.15c.94,0,1.85.15,2.71.44.31.1.45.45.32.75l-.67,1.62c-.12.3-.47.44-.78.35-.5-.15-1.03-.23-1.58-.23Z"/>
  <path class="cls-1" d="M9.89,10.15c.3.12.44.47.35.78-.15.5-.23,1.03-.23,1.58v2.1c0,.32-.26.59-.59.59h-1.76c-.32,0-.59-.26-.59-.59v-2.1c0-.94.15-1.85.44-2.71.1-.31.45-.45.75-.32l1.63.67Z"/>
  <path class="cls-1" d="M53.99,12.5c0-.55-.08-1.08-.23-1.58-.09-.31.05-.65.35-.78l1.62-.67c.3-.12.64.02.75.32.29.85.44,1.76.44,2.71v2.1c0,.32-.26.59-.59.59h-1.76c-.32,0-.59-.26-.59-.59v-2.1Z"/>
  <path class="cls-1" d="M9.42,20.57c.32,0,.59.26.59.59v4.2c0,.32-.26.59-.59.59h-1.76c-.32,0-.59-.26-.59-.59v-4.2c0-.32.26-.59.59-.59h1.76Z"/>
  <path class="cls-1" d="M54.58,25.94c-.32,0-.59-.26-.59-.59v-4.2c0-.32.26-.59.59-.59h1.76c.32,0,.59.26.59.59v4.2c0,.32-.26.59-.59.59h-1.76Z"/>
  <path class="cls-1" d="M9.42,31.32c.32,0,.59.26.59.59v4.2c0,.32-.26.59-.59.59h-1.76c-.32,0-.59-.26-.59-.59v-4.2c0-.32.26-.59.59-.59h1.76Z"/>
  <path class="cls-1" d="M54.58,36.69c-.32,0-.59-.26-.59-.59v-4.2c0-.32.26-.59.59-.59h1.76c.32,0,.59.26.59.59v4.2c0,.32-.26.59-.59.59h-1.76Z"/>
  <path class="cls-1" d="M9.42,42.07c.32,0,.59.26.59.59v2.1c0,.55.08,1.08.23,1.58.09.31-.05.65-.35.78l-1.63.67c-.3.12-.64-.02-.75-.32-.29-.85-.44-1.76-.44-2.71v-2.1c0-.32.26-.59.59-.59h1.76Z"/>
  <path class="cls-1" d="M53.99,44.75v-2.1c0-.32.26-.59.59-.59h1.76c.32,0,.59.26.59.59v2.1c0,.94-.15,1.85-.44,2.71-.1.31-.45.45-.75.32l-1.62-.67c-.3-.12-.44-.47-.35-.78.15-.5.23-1.03.23-1.58Z"/>
  <path class="cls-1" d="M16.17,23.06c-.65,0-1.17.53-1.17,1.17v6.45c0,.65.53,1.17,1.17,1.17h7.04c.65,0,1.17-.53,1.17-1.17v-6.45c0-.65-.53-1.17-1.17-1.17h-7.04Z"/>
  <path class="cls-1" d="M27.31,24.23c0-.65.53-1.17,1.17-1.17h7.04c.65,0,1.17.53,1.17,1.17v6.45c0,.65-.53,1.17-1.17,1.17h-7.04c-.65,0-1.17-.53-1.17-1.17v-6.45Z"/>
  <path class="cls-1" d="M40.8,23.06c-.65,0-1.17.53-1.17,1.17v6.45c0,.65.53,1.17,1.17,1.17h7.04c.65,0,1.17-.53,1.17-1.17v-6.45c0-.65-.53-1.17-1.17-1.17h-7.04Z"/>
  <path class="cls-2" d="M12.06,45.34c0-2.27,1.84-4.1,4.1-4.1h31.66c2.27,0,4.1,1.84,4.1,4.1v10.55c0,2.27-1.84,4.1-4.1,4.1h-31.66c-2.27,0-4.1-1.84-4.1-4.1v-10.55Z"/>
  <path class="cls-3" d="M29.59,46.73v6.82h-1.44v-6.82h1.44Z"/>
  <path class="cls-3" d="M30.51,47.92v-1.19h5.6v1.19h-2.09v5.63h-1.43v-5.63h-2.09Z"/>
</svg>