<?xml version="1.0" encoding="UTF-8"?>
<svg id="Expanded_Icons" data-name="Expanded Icons" xmlns="http://www.w3.org/2000/svg" viewBox="0 0 64 64">
  <defs>
    <style>
      .cls-1 {
        fill: #29b5e8;
        stroke-width: 0px;
      }
    </style>
  </defs>
  <path class="cls-1" d="M58.19,27.39l-3.73-3.29c-1.71-1.5-4-1.59-5.22-.21l-13.43,15.23c-.12.14-.22.31-.27.49l-3.14,11.32c-.13.45.01.94.36,1.25.23.21.54.33.85.33.15,0,.29-.03.44-.08l10.85-4.04c.19-.07.37-.19.5-.34l13.67-15.5c.5-.57.75-1.33.7-2.15-.07-1.09-.64-2.18-1.57-3ZM43.01,46.41l-5.69,2.12-1.33-1.2,1.59-5.71,5.44,4.8ZM44.93,44.78l-2-1.77,6.84-7.75-1.88-1.65-6.84,7.75-2.2-1.94,8.54-9.68,6.07,5.35-8.54,9.69ZM57.18,30.88l-2.06,2.33-6.07-5.35,2.06-2.33c.18-.21.97-.2,1.69.44l3.73,3.29c.5.44.71.95.73,1.28,0,.09,0,.25-.08.34Z"/>
  <path class="cls-1" d="M29.94,45.76H8.54l8.79-10.52c.44-.53.37-1.32-.16-1.76-.53-.44-1.32-.37-1.76.16l-8.68,10.39v-24.97l19.19,14.81c.23.17.49.26.76.26s.55-.09.77-.27l19.05-14.95v1.78c0,.69.56,1.25,1.25,1.25s1.25-.56,1.25-1.25v-2.06c0-1.96-1.6-3.56-3.56-3.56H7.8c-1.96,0-3.56,1.6-3.56,3.56v26.08c0,1.96,1.6,3.56,3.56,3.56h22.14c.69,0,1.25-.56,1.25-1.25s-.56-1.25-1.25-1.25ZM26.68,31.28l-17.78-13.72h35.27l-17.49,13.72Z"/>
</svg>