<?xml version="1.0" encoding="UTF-8"?>
<svg id="Expanded_Icons" data-name="Expanded Icons" xmlns="http://www.w3.org/2000/svg" viewBox="0 0 64 64">
  <defs>
    <style>
      .cls-1 {
        fill: #29b5e8;
        stroke-width: 0px;
      }
    </style>
  </defs>
  <path class="cls-1" d="M58.96,51.15l-10.74-10.74,4.53-3.58c.55-.44.84-1.13.74-1.83s-.55-1.3-1.2-1.58l-28.27-12.08c-.75-.32-1.62-.15-2.2.42-.58.58-.75,1.45-.43,2.2l12.09,28.35c.28.65.87,1.1,1.56,1.2.7.1,1.39-.18,1.83-.72l3.61-4.47,10.64,10.65c.38.38.88.59,1.42.59s1.04-.21,1.42-.59l4.99-5c.78-.78.78-2.05,0-2.83ZM52.55,54.73l-10.79-10.8c-.38-.38-.89-.59-1.42-.59-.04,0-.07,0-.1,0-.57.03-1.09.3-1.45.74l-2.92,3.61-8.83-20.72,20.6,8.8-3.65,2.88c-.45.35-.72.88-.76,1.45-.03.57.18,1.13.58,1.53l10.91,10.92-2.17,2.17Z"/>
  <path class="cls-1" d="M23.47,14.14c4.31,0,8.09,3.06,8.97,7.27.14.67.81,1.1,1.48.97.68-.14,1.11-.81.97-1.48-1.13-5.37-5.93-9.26-11.42-9.26-6.44,0-11.67,5.24-11.67,11.67,0,5.45,3.7,10.12,9.01,11.36.1.02.19.03.29.03.57,0,1.08-.39,1.22-.97.16-.67-.26-1.34-.93-1.5-4.17-.97-7.07-4.64-7.07-8.93,0-5.06,4.11-9.17,9.17-9.17Z"/>
  <path class="cls-1" d="M23.47,39.96c-9.18,0-16.65-7.47-16.65-16.64S14.29,6.67,23.47,6.67s16.65,7.47,16.65,16.65c0,.69.56,1.25,1.25,1.25s1.25-.56,1.25-1.25c0-10.56-8.59-19.15-19.15-19.15S4.32,12.75,4.32,23.31s8.59,19.14,19.15,19.14c.69,0,1.25-.56,1.25-1.25s-.56-1.25-1.25-1.25Z"/>
</svg>