<?xml version="1.0" encoding="UTF-8"?>
<svg id="Expanded_Icons" data-name="Expanded Icons" xmlns="http://www.w3.org/2000/svg" viewBox="0 0 64 64">
  <defs>
    <style>
      .cls-1 {
        fill: #29b5e8;
        stroke-width: 0px;
      }
    </style>
  </defs>
  <g id="Not_Used" data-name="Not Used">
    <g>
      <path class="cls-1" d="M54.81,26.25l-13.95-7.72c-.2.81-.54,1.55-1.01,2.22l12.01,6.66-20.17,13.24-20.23-13.27,12.69-7.42c-.44-.7-.75-1.46-.96-2.25l-14.64,8.57c-.36.21-.59.6-.6,1.02-.01.42.2.81.55,1.05l22.53,14.78c.2.13.44.2.67.2s.46-.07.67-.2l22.53-14.78c.36-.24.56-.64.55-1.06-.02-.43-.25-.81-.63-1.02Z"/>
      <path class="cls-1" d="M31.7,51.86c-.24,0-.46-.07-.67-.2l-22.53-14.78c-.35-.23-.56-.63-.55-1.05.01-.42.24-.81.6-1.02l6.43-3.76c.58-.34,1.33-.14,1.66.44.34.58.14,1.33-.44,1.66l-4.73,2.77,20.23,13.27,20.18-13.24-5.3-2.94c-.59-.33-.8-1.07-.48-1.65s1.07-.8,1.65-.48l7.07,3.91c.37.21.61.59.63,1.02.02.42-.19.83-.55,1.06l-22.53,14.79c-.2.13-.44.2-.67.2Z"/>
      <path class="cls-1" d="M31.7,60c-.24,0-.46-.07-.67-.2l-22.53-14.79c-.35-.23-.56-.63-.55-1.05.01-.42.24-.81.6-1.02l5.99-3.51c.58-.34,1.33-.14,1.66.44.34.58.14,1.33-.44,1.66l-4.3,2.51,20.23,13.28,20.18-13.24-4.65-2.58c-.59-.33-.8-1.07-.48-1.65s1.07-.8,1.65-.48l6.41,3.55c.37.21.61.59.63,1.02.02.42-.19.83-.55,1.06l-22.53,14.79c-.2.13-.44.2-.67.2Z"/>
      <g>
        <path class="cls-1" d="M31.71,32.27h0c-.39,0-.76-.19-.99-.5l-7-9.68c-1.8-1.89-2.84-4.52-2.84-7.28,0-5.96,4.85-10.81,10.82-10.81s10.81,4.85,10.81,10.81c0,1.76-.43,3.49-1.24,5.03-.03.09-.09.18-.14.26l-.05.07c-.32.59-.81,1.27-1.38,1.9l-6.99,9.69c-.23.32-.6.5-.99.5ZM31.7,6.43c-4.62,0-8.38,3.76-8.38,8.38,0,2.13.81,4.17,2.28,5.73l6.11,8.43,6.09-8.42c.53-.6.92-1.13,1.22-1.68,0-.01.02-.03.03-.06,0,0,0,0,0,0,.67-1.22,1.02-2.6,1.02-4,0-4.62-3.76-8.38-8.38-8.38Z"/>
        <path class="cls-1" d="M31.7,19.63c-2.87,0-5.22-2.34-5.22-5.22s2.34-5.22,5.22-5.22,5.22,2.34,5.22,5.22-2.34,5.22-5.22,5.22ZM31.7,11.63c-1.54,0-2.78,1.25-2.78,2.78s1.25,2.78,2.78,2.78,2.78-1.25,2.78-2.78-1.25-2.78-2.78-2.78Z"/>
      </g>
      <path class="cls-1" d="M27.22,27.36c-7.01,0-8.1-5.96-8.11-6.02l.8-.14c.04.23,1.06,5.61,7.78,5.34l.03.81c-.17.01-.34.02-.5.02Z"/>
      <path class="cls-1" d="M24.38,29.88c-2.46,0-4.49-.53-6.06-1.6-2.47-1.66-2.83-4.02-2.85-4.12l.8-.12s.34,2.12,2.52,3.58c2.47,1.65,6.21,1.89,11.14.7l.19.79c-2.11.5-4.02.76-5.73.76Z"/>
      <path class="cls-1" d="M35.91,25.88l-.44-.69c.27-.17,6.7-4.18,12.26-2.21l-.27.76c-5.19-1.84-11.49,2.09-11.56,2.13Z"/>
      <path class="cls-1" d="M34.74,28.48l-.3-.75c.48-.2,11.79-4.7,17.38-1.29l-.42.69c-5.24-3.2-16.54,1.3-16.65,1.34Z"/>
      <path class="cls-1" d="M36.8,33.2c-.96,0-1.06-.26-1.14-.48-.2-.55.4-1.08,2.28-2.08,6.21-3.27,12.54-2.32,12.81-2.28l-.13.81c-.06-.01-6.34-.94-12.31,2.2-.98.51-1.45.83-1.68,1.02.52.02,1.83-.06,5.19-.8l.16-.03c2.93-.63,3.53.07,3.97.99l.09.18-.72.38-.1-.21c-.27-.56-.53-1.1-3.08-.55l-.15.03c-2.81.61-4.34.81-5.2.81Z"/>
      <path class="cls-1" d="M35.47,35.61c-7.62,0-16.62-2.18-17.13-2.31l.2-.79c.17.04,16.82,4.07,23.85,1.3l.3.75c-1.92.76-4.48,1.04-7.21,1.04Z"/>
      <path class="cls-1" d="M33.95,38.5c-4.31,0-9.69-1.5-9.97-1.58l.22-.78c.09.02,8.45,2.35,12.46,1.26l.21.78c-.84.23-1.84.32-2.91.32Z"/>
      <g>
        <path class="cls-1" d="M14.04,34.73s-.09,0-.13-.02l-.77-.26c-.21-.07-.33-.3-.25-.52.07-.21.3-.33.52-.25l.77.26c.21.07.33.3.25.52-.06.17-.22.28-.38.28Z"/>
        <path class="cls-1" d="M22.83,37.74s-.09,0-.13-.02l-1.47-.5c-.21-.07-.33-.3-.25-.52.07-.21.3-.33.52-.25l1.47.5c.21.07.33.3.25.52-.06.17-.22.28-.38.28ZM19.9,36.73s-.09,0-.13-.02l-1.47-.5c-.21-.07-.33-.3-.25-.52.07-.21.3-.33.52-.25l1.47.5c.21.07.33.3.25.52-.06.17-.22.28-.38.28ZM16.97,35.73s-.09,0-.13-.02l-1.47-.5c-.21-.07-.33-.3-.25-.52.07-.21.3-.33.52-.25l1.47.5c.21.07.33.3.25.52-.06.17-.22.28-.38.28Z"/>
        <path class="cls-1" d="M25.06,38.5s-.09,0-.13-.02l-.77-.26c-.21-.07-.33-.3-.25-.52.07-.21.3-.32.52-.25l.77.26c.21.07.33.3.25.52-.06.17-.22.28-.38.28Z"/>
      </g>
      <path class="cls-1" d="M35,47.42c-.2,0-.4,0-.59-.02-.22-.01-.4-.21-.38-.43.01-.22.21-.39.43-.38.48.03,1,.02,1.55-.04.22-.02.42.14.45.36.02.22-.14.42-.36.45-.38.04-.75.06-1.11.06ZM32.85,47.14s-.07,0-.11-.02c-.56-.15-1.09-.38-1.58-.65-.2-.11-.26-.36-.15-.55s.36-.26.55-.15c.44.25.91.44,1.41.58.22.06.34.28.28.5-.05.18-.21.3-.39.3ZM30.06,45.56c-.1,0-.2-.03-.28-.11-.41-.38-.77-.82-1.11-1.3-.13-.18-.08-.44.1-.56s.44-.08.56.1c.3.43.63.83.99,1.17.16.15.17.41.02.57-.07.08-.18.12-.29.12ZM28.21,42.91c-.15,0-.3-.09-.37-.24-.41-.91-.54-1.6-.55-1.63-.04-.22.1-.43.32-.48.22-.05.43.1.48.32,0,0,.13.63.49,1.45.09.21,0,.44-.21.53-.06.03-.11.04-.17.04Z"/>
      <path class="cls-1" d="M42.67,41.59c-.12,0-.24-.06-.32-.16l-.99-1.29c-.14-.18-.1-.43.07-.57s.43-.1.57.07l.99,1.29c.14.18.1.43-.07.57-.07.06-.16.09-.25.09ZM40.7,39.01c-.12,0-.24-.06-.32-.16l-.99-1.29c-.14-.18-.1-.43.07-.57s.43-.1.57.07l.99,1.29c.14.18.1.43-.07.57-.07.06-.17.09-.25.09Z"/>
      <path class="cls-1" d="M50.6,37.24h-.04l-1.61-.15c-.22-.02-.38-.22-.37-.44.02-.22.21-.38.44-.37l1.61.15c.22.02.38.22.37.44-.02.21-.2.37-.4.37ZM47.37,36.94h-.04l-1.62-.15c-.22-.02-.38-.22-.37-.44.02-.22.22-.38.44-.37l1.62.15c.22.02.38.22.37.44-.02.21-.2.37-.4.37ZM44.14,36.64h-.04l-1.61-.15c-.22-.02-.38-.22-.37-.44.02-.22.21-.37.44-.37l1.61.15c.22.02.38.22.37.44-.02.21-.2.37-.4.37Z"/>
      <path class="cls-1" d="M28.5,53.46c-.92,0-1.65-.51-1.65-1.16s.72-1.16,1.65-1.16,1.65.51,1.65,1.16-.72,1.16-1.65,1.16ZM28.5,51.95c-.55,0-.84.25-.84.35s.29.35.84.35.84-.25.84-.35c0-.1-.29-.35-.84-.35Z"/>
      <path class="cls-1" d="M19.57,45.15c-.92,0-1.65-.51-1.65-1.16s.72-1.16,1.65-1.16,1.65.51,1.65,1.16-.72,1.16-1.65,1.16ZM19.57,43.64c-.55,0-.84.25-.84.35s.29.35.84.35.84-.25.84-.35c0-.1-.3-.35-.84-.35Z"/>
      <path class="cls-1" d="M38.47,54.22c-.92,0-1.65-.51-1.65-1.16s.72-1.16,1.65-1.16,1.65.51,1.65,1.16-.72,1.16-1.65,1.16ZM38.47,52.71c-.51,0-.84.23-.84.35,0,.1.29.35.84.35s.84-.25.84-.35c0-.12-.33-.35-.84-.35Z"/>
      <path class="cls-1" d="M47.07,48.13c-.09,0-.18-.03-.25-.09-.53-.26-5.53-.16-10.03.09-.24.03-.41-.16-.42-.38s.16-.41.38-.42c3.65-.2,9.89-.46,10.58.09.18.14.21.4.06.57-.09.1-.2.15-.32.15Z"/>
      <path class="cls-1" d="M46.55,45.15h-2.05c-.22,0-.41-.18-.41-.41s.18-.41.41-.41h2.05c.22,0,.41.18.41.41,0,.23-.18.41-.41.41Z"/>
    </g>
  </g>
</svg>