<?xml version="1.0" encoding="UTF-8"?>
<svg id="Expanded_Icons" data-name="Expanded Icons" xmlns="http://www.w3.org/2000/svg" viewBox="0 0 64 64">
  <defs>
    <style>
      .cls-1 {
        fill-rule: evenodd;
      }

      .cls-1, .cls-2 {
        fill: #29b5e8;
      }

      .cls-1, .cls-2, .cls-3, .cls-4 {
        stroke-width: 0px;
      }

      .cls-3 {
        fill: #11567f;
      }

      .cls-4 {
        fill: #fff;
      }
    </style>
  </defs>
  <path class="cls-2" d="M31.96,22.23c1.89,0,3.42-1.53,3.42-3.42s-1.53-3.42-3.42-3.42-3.42,1.53-3.42,3.42,1.53,3.42,3.42,3.42Z"/>
  <path class="cls-2" d="M38.71,29.69c.27.9-.51,1.68-1.45,1.68h-10.66c-.94,0-1.72-.78-1.45-1.68.62-2.09,2.42-5.12,6.76-5.12s6.19,3.03,6.81,5.12Z"/>
  <path class="cls-1" d="M30.24,4v4.02h-6.29c-3.44,0-6.24,2.79-6.24,6.24v18.23c0,3.44,2.79,6.24,6.24,6.24h15.95c3.44,0,6.24-2.79,6.24-6.24V14.25c0-3.44-2.79-6.24-6.24-6.24h-6.3v-4.02h-3.36ZM21.08,14.25c0-1.59,1.29-2.88,2.88-2.88h15.95c1.59,0,2.88,1.29,2.88,2.88v18.23c0,1.59-1.29,2.88-2.88,2.88h-15.95c-1.59,0-2.88-1.29-2.88-2.88V14.25Z"/>
  <rect class="cls-3" x="10.44" y="43.2" width="43.12" height="16.8" rx="3.92" ry="3.92"/>
  <path class="cls-4" d="M20.6,53.84v-4.48h1.77c.34,0,.63.06.87.19.24.13.42.31.55.54.13.23.19.49.19.79s-.06.56-.19.79c-.13.23-.31.4-.56.53-.24.13-.54.19-.88.19h-1.13v-.76h.97c.18,0,.33-.03.45-.09.12-.06.21-.15.27-.26.06-.11.09-.24.09-.39s-.03-.28-.09-.39c-.06-.11-.15-.2-.27-.26-.12-.06-.27-.09-.46-.09h-.64v3.71h-.95Z"/>
  <path class="cls-4" d="M27.48,49.36h.95v2.91c0,.33-.08.61-.23.86-.15.25-.37.44-.65.57-.28.14-.6.2-.97.2s-.7-.07-.98-.2c-.28-.14-.5-.33-.65-.57-.15-.25-.23-.53-.23-.86v-2.91h.95v2.83c0,.17.04.32.11.46.08.13.18.24.32.31.14.08.3.11.48.11s.34-.04.48-.11c.14-.08.24-.18.32-.31.08-.13.11-.28.11-.46v-2.83Z"/>
  <path class="cls-4" d="M29.33,53.84v-4.48h1.79c.33,0,.6.05.82.15.22.1.39.23.5.41.11.17.17.37.17.59,0,.18-.03.33-.1.46-.07.13-.17.24-.29.32-.12.08-.26.14-.42.18v.04c.17,0,.33.06.48.14.15.09.27.21.37.37.09.16.14.35.14.57,0,.24-.06.45-.18.64-.12.19-.29.33-.52.44-.23.11-.51.16-.85.16h-1.91ZM30.27,53.07h.77c.26,0,.46-.05.58-.15.12-.1.18-.24.18-.41,0-.12-.03-.23-.09-.33-.06-.09-.15-.17-.26-.22-.11-.05-.24-.08-.39-.08h-.79v1.19ZM30.27,51.23h.7c.13,0,.24-.02.35-.07.1-.05.18-.11.24-.2.06-.08.09-.19.09-.3,0-.16-.06-.29-.17-.39-.11-.1-.28-.15-.49-.15h-.72v1.11Z"/>
  <path class="cls-4" d="M33.52,53.84v-4.48h.95v3.7h1.92v.78h-2.87Z"/>
  <path class="cls-4" d="M38.09,49.36v4.48h-.95v-4.48h.95Z"/>
  <path class="cls-4" d="M42.94,50.93h-.96c-.02-.12-.05-.23-.11-.33-.05-.1-.12-.18-.21-.25-.08-.07-.18-.12-.29-.16-.11-.04-.23-.05-.36-.05-.23,0-.43.06-.61.17-.17.11-.31.28-.4.5-.09.22-.14.48-.14.79s.05.59.14.81c.1.22.23.38.4.49s.37.17.6.17c.13,0,.24-.02.35-.05.11-.03.21-.08.29-.15.08-.07.15-.15.21-.24.06-.09.1-.2.12-.32h.96c-.02.21-.09.41-.19.6-.1.19-.23.36-.4.51-.16.15-.36.27-.59.35-.23.09-.48.13-.77.13-.4,0-.76-.09-1.07-.27-.31-.18-.56-.44-.74-.79-.18-.34-.27-.76-.27-1.24s.09-.9.28-1.25c.18-.34.43-.6.75-.78.31-.18.67-.27,1.06-.27.26,0,.5.04.72.11.22.07.42.18.59.32.17.14.31.31.42.51.11.2.18.43.21.69Z"/>
</svg>