<?xml version="1.0" encoding="UTF-8"?>
<svg id="Expanded_Icons" data-name="Expanded Icons" xmlns="http://www.w3.org/2000/svg" viewBox="0 0 64 64">
  <defs>
    <style>
      .cls-1 {
        opacity: .5;
      }

      .cls-2 {
        fill-rule: evenodd;
      }

      .cls-2, .cls-3 {
        fill: #29b5e8;
        stroke-width: 0px;
      }
    </style>
  </defs>
  <g class="cls-1">
    <path class="cls-3" d="M23.21,12.9c-2.03-.78-4.7-1.21-7.52-1.21-5.59,0-11.25,1.75-11.25,5.09v15.63c0,3.34,5.66,5.09,11.25,5.09.69,0,1.25-.56,1.25-1.25s-.56-1.25-1.25-1.25c-5.77,0-8.75-1.82-8.75-2.59v-1.91c2.17,1.17,5.47,1.78,8.75,1.78.69,0,1.25-.56,1.25-1.25s-.56-1.25-1.25-1.25c-5.77,0-8.75-1.82-8.75-2.59v-1.89c2.17,1.17,5.47,1.78,8.75,1.78.69,0,1.25-.56,1.25-1.25s-.56-1.25-1.25-1.25c-5.77,0-8.75-1.82-8.75-2.59v-1.91c2.17,1.17,5.47,1.78,8.75,1.78.69,0,1.25-.56,1.25-1.25s-.56-1.25-1.25-1.25c-5.77,0-8.75-1.82-8.75-2.59s2.98-2.59,8.75-2.59c2.52,0,4.87.37,6.62,1.04.64.25,1.37-.07,1.62-.72.25-.64-.07-1.37-.72-1.62Z"/>
    <path class="cls-3" d="M13.73,16.18c.16.03.32.04.49.04.43-.01.78-.12.78-.27v-1.04c0-.15-.38-.27-.84-.27s-.84.12-.84.27v.58l-1.6-.29c-.4-.07-.92-.03-1.15.1-.23.13-.1.29.31.37l2.86.52Z"/>
    <path class="cls-3" d="M18.06,14.91c0-.15-.38-.27-.84-.27s-.84.12-.84.27v1.04c0,.14.34.25.78.26.16,0,.34,0,.49-.04l.29-.05c.48-.32,1.02-.63,1.63-.91l-1.5.27v-.58Z"/>
    <path class="cls-3" d="M14.16,18.93c.47,0,.84-.12.84-.27v-1.04c0-.14-.35-.25-.78-.27-.17,0-.34,0-.49.04l-2.86.52c-.4.07-.54.24-.31.36.23.13.75.17,1.15.1l1.6-.29v.58c0,.15.38.27.84.27Z"/>
    <path class="cls-3" d="M9.05,17.44c.23.13.75.17,1.15.1l2.86-.52c.19-.03.32-.09.38-.15.03-.03.04-.06.04-.09,0-.02-.01-.04-.03-.06-.06-.06-.19-.12-.39-.16l-2.86-.52c-.4-.07-.92-.03-1.15.1-.23.13-.1.29.31.36l1.6.29-1.6.29c-.4.07-.54.24-.31.36Z"/>
    <path class="cls-3" d="M15.52,17.28h.35s.12,0,.15-.02l.86-.27c.1-.1.21-.21.33-.31,0,0,0,0,0,0l-1.19-.37s-.1-.02-.15-.02h-.35s-.12,0-.15.02l-1.19.37s-.06.03-.06.05v.11s.03.04.06.05l1.19.37s.1.02.15.02ZM15.13,16.79h0s.03-.04.06-.05l.34-.11s.1-.02.15-.02h.01s.12,0,.15.02l.34.11s.06.03.06.05h0s-.03.04-.06.05l-.34.11s-.1.02-.15.02h-.01s-.11,0-.15-.02l-.34-.11s-.06-.03-.06-.05Z"/>
    <path class="cls-3" d="M49.79,14.64c-.47,0-.84.12-.84.27v1.04c0,.14.34.25.78.26.16,0,.34,0,.49-.04l2.86-.52c.4-.07.54-.24.31-.36-.23-.13-.75-.17-1.15-.1l-1.6.29v-.58c0-.15-.38-.27-.84-.27Z"/>
    <path class="cls-3" d="M47.58,15.95v-1.04c0-.15-.38-.27-.84-.27s-.84.12-.84.27v.58l-.92-.17c.56.27,1.07.56,1.51.87.1.01.21.02.31.02.43-.01.78-.12.78-.27Z"/>
    <path class="cls-3" d="M50.22,17.39c-.16-.03-.32-.04-.49-.04-.44.01-.78.12-.78.27v1.04c0,.15.38.27.84.27s.84-.12.84-.27v-.58l1.6.29c.4.07.92.03,1.15-.1.23-.12.1-.29-.31-.36l-2.86-.52Z"/>
    <path class="cls-3" d="M54.9,16.13c-.24-.13-.75-.17-1.15-.1l-2.86.52c-.2.04-.33.1-.39.16-.02.02-.03.04-.03.06,0,.03.01.06.04.09.06.06.19.12.38.15l2.86.52c.4.07.92.03,1.15-.1.24-.13.1-.29-.31-.36l-1.6-.29,1.6-.29c.4-.07.54-.24.31-.37Z"/>
    <path class="cls-3" d="M48.44,16.29h-.35s-.12,0-.15.02l-.92.29c.22.18.41.37.59.56l.34.11s.1.02.15.02h.35s.12,0,.15-.02l1.19-.37s.06-.03.06-.05v-.11s-.03-.04-.06-.05l-1.19-.37s-.1-.02-.15-.02ZM48.82,16.78h0s-.03.04-.06.05l-.34.11s-.1.02-.15.02h-.01s-.11,0-.15-.02l-.34-.11s-.06-.03-.06-.05h0s.03-.04.06-.05l.34-.11s.1-.02.15-.02h.01s.12,0,.15.02l.34.11s.06.03.06.05Z"/>
    <path class="cls-3" d="M48.26,11.69c-2.82,0-5.49.43-7.52,1.21-.64.25-.97.97-.72,1.62.25.65.97.97,1.62.72,1.72-.66,4.14-1.04,6.62-1.04,5.77,0,8.75,1.82,8.75,2.59s-2.98,2.59-8.75,2.59c-.69,0-1.25.56-1.25,1.25s.56,1.25,1.25,1.25c3.28,0,6.58-.61,8.75-1.78v1.91c0,.77-2.98,2.59-8.75,2.59-.69,0-1.25.56-1.25,1.25s.56,1.25,1.25,1.25c3.28,0,6.58-.61,8.75-1.78v1.89c0,.77-2.98,2.59-8.75,2.59-.69,0-1.25.56-1.25,1.25s.56,1.25,1.25,1.25c3.28,0,6.58-.61,8.75-1.78v1.91c0,.77-2.98,2.59-8.75,2.59-.69,0-1.25.56-1.25,1.25s.56,1.25,1.25,1.25c5.59,0,11.25-1.75,11.25-5.09v-15.63c0-3.34-5.66-5.09-11.25-5.09Z"/>
  </g>
  <g>
    <path class="cls-2" d="M50.47,18.81c-.47-5.16-9.43-7.86-18.31-7.86s-17.84,2.7-18.31,7.86c-.03.13-.04.27-.04.42v25.55c0,5.44,9.23,8.28,18.35,8.28s18.35-2.84,18.35-8.28v-25.55c0-.14-.02-.28-.04-.42ZM46.51,36.25c0,1.28-4.88,4.28-14.35,4.28s-14.35-3-14.35-4.28v-3.16c3.54,1.94,8.96,2.94,14.35,2.94s10.81-1,14.35-2.94v3.16ZM46.51,27.75c0,1.28-4.88,4.28-14.35,4.28s-14.35-3-14.35-4.28v-3.19c3.54,1.94,8.96,2.94,14.35,2.94s10.81-1,14.35-2.94v3.19ZM32.16,14.94c9.47,0,14.35,3,14.35,4.28s-4.88,4.28-14.35,4.28-14.35-3-14.35-4.28,4.88-4.28,14.35-4.28ZM32.16,49.06c-9.47,0-14.35-3-14.35-4.28v-3.19c3.54,1.94,8.96,2.94,14.35,2.94s10.81-1,14.35-2.94v3.19c0,1.28-4.88,4.28-14.35,4.28Z"/>
    <path class="cls-2" d="M21.3,20.29c.38.21,1.22.28,1.88.16l4.68-.85c.32-.05.53-.14.63-.24.05-.05.07-.1.06-.14,0-.04-.02-.07-.05-.1-.09-.1-.31-.2-.64-.26l-4.68-.85c-.66-.12-1.5-.05-1.88.16-.38.21-.16.47.5.59l2.61.48-2.61.48c-.66.12-.89.38-.5.59Z"/>
    <path class="cls-2" d="M29.77,20.15c-.27,0-.55,0-.8.06l-4.68.85c-.66.12-.88.39-.5.59.38.21,1.22.28,1.88.16l2.62-.48v.96c0,.24.62.43,1.38.43s1.38-.19,1.38-.43v-1.71c0-.23-.57-.42-1.28-.43Z"/>
    <path class="cls-2" d="M34.56,18.3c.27,0,.55,0,.8-.06l4.68-.85c.66-.12.88-.38.5-.59-.38-.21-1.22-.28-1.88-.16l-2.62.48v-.96c0-.24-.62-.43-1.38-.43s-1.38.19-1.38.43v1.71c0,.23.56.41,1.28.43Z"/>
    <path class="cls-2" d="M24.28,17.39l4.68.85c.25.05.53.06.8.06.71-.02,1.28-.2,1.28-.43v-1.71c0-.24-.62-.43-1.38-.43s-1.38.19-1.38.43v.96l-2.62-.48c-.66-.12-1.5-.05-1.88.16-.38.21-.16.48.5.6Z"/>
    <path class="cls-2" d="M29.59,19.13v.18s.05.06.1.08l1.95.61c.05.02.17.03.24.03h.57c.08,0,.19-.01.24-.03l1.95-.61c.05-.02.1-.05.1-.08v-.18s-.05-.06-.1-.08l-1.95-.61c-.05-.02-.17-.03-.24-.03h-.57c-.08,0-.19.01-.24.03l-1.95.61c-.05.02-.1.05-.1.08ZM31.24,19.22s.05-.06.1-.08l.56-.18c.05-.02.16-.03.24-.03h.02c.08,0,.19.01.24.03l.56.18c.05.02.1.05.1.08h0s-.05.07-.1.09l-.56.18c-.05.02-.16.03-.24.03h-.02c-.08,0-.19-.01-.24-.03l-.56-.18c-.05-.02-.1-.05-.1-.08h0Z"/>
    <path class="cls-2" d="M40.04,21.06l-4.68-.85c-.25-.05-.53-.06-.8-.06-.72.02-1.28.2-1.28.43v1.71c0,.24.62.43,1.38.43s1.38-.19,1.38-.43v-.96l2.62.48c.66.12,1.5.05,1.88-.16.38-.2.16-.47-.5-.59Z"/>
    <path class="cls-2" d="M35.81,19.11s-.05.07-.05.1c0,.05.02.1.06.14.1.1.31.19.63.25l4.68.85c.66.12,1.5.05,1.88-.16.39-.21.16-.47-.5-.59l-2.61-.48,2.61-.48c.66-.12.89-.39.5-.6-.39-.21-1.23-.28-1.88-.16l-4.68.85c-.33.06-.54.16-.64.26Z"/>
  </g>
</svg>