<?xml version="1.0" encoding="UTF-8"?>
<svg id="Expanded_Icons" data-name="Expanded Icons" xmlns="http://www.w3.org/2000/svg" viewBox="0 0 64 64">
  <defs>
    <style>
      .cls-1 {
        fill: #29b5e8;
        stroke-width: 0px;
      }
    </style>
  </defs>
  <path class="cls-1" d="M57.4,5.51H6.58c-1.1,0-2,.9-2,2v48.9c0,1.1.9,2,2,2h50.82c1.1,0,2-.9,2-2V7.51c0-1.1-.9-2-2-2ZM55.4,9.51v35.2H8.58V9.51h46.82ZM8.58,54.41v-7.2h46.82v7.2H8.58Z"/>
  <path class="cls-1" d="M23.98,38.89c.19.11.41.17.62.17s.43-.06.63-.17l17.3-10.03c.39-.23.63-.64.62-1.09,0-.45-.25-.86-.64-1.08l-17.3-9.61c-.39-.22-.86-.21-1.24.02-.38.22-.62.63-.62,1.08v19.64c0,.45.24.86.63,1.08ZM25.85,20.29l13.52,7.51-13.52,7.84v-15.35Z"/>
</svg>