<?xml version="1.0" encoding="UTF-8"?>
<svg id="Expanded_Icons" data-name="Expanded Icons" xmlns="http://www.w3.org/2000/svg" viewBox="0 0 64 64">
  <defs>
    <style>
      .cls-1 {
        fill: #29b5e8;
        stroke-width: 0px;
      }
    </style>
  </defs>
  <path class="cls-1" d="M59.22,18.74l-.06-.05-15.63-13.38c-.4-.34-.91-.53-1.44-.53H6.21c-.59,0-1.15.23-1.57.65-.42.42-.65.98-.65,1.57l.15,35.41c0,.59.24,1.15.66,1.57l14.84,14.6c.4.41.97.64,1.55.64h36.58c1.22,0,2.21-.99,2.21-2.21V20.43c0-.67-.3-1.28-.78-1.68ZM8.57,41.47l-.12-29.5,10.54,9.44v30.26l-10.42-10.2ZM11.58,9.22h29.69s11.11,8.99,11.11,8.99h-30.36l-10.44-8.99ZM55.57,54.79H23.42V22.64h32.15v32.15Z"/>
</svg>