<?xml version="1.0" encoding="UTF-8"?>
<svg id="Expanded_Icons" data-name="Expanded Icons" xmlns="http://www.w3.org/2000/svg" viewBox="0 0 64 64">
  <defs>
    <style>
      .cls-1 {
        fill: #29b5e8;
        fill-rule: evenodd;
        stroke-width: 0px;
      }
    </style>
  </defs>
  <path class="cls-1" d="M5,17.35c0-4.67,3.78-8.45,8.45-8.45h25.41c4.67,0,8.45,3.78,8.45,8.45v3.23h3.23c4.67,0,8.45,3.78,8.45,8.45v17.62c0,4.67-3.78,8.45-8.45,8.45h-25.41c-4.67,0-8.45-3.78-8.45-8.45v-3.23h-3.23c-4.67,0-8.45-3.78-8.45-8.45v-17.62ZM43.94,17.35v3.23h-18.8c-4.67,0-8.45,3.78-8.45,8.45v11.01h-3.23c-2.8,0-5.07-2.27-5.07-5.07v-17.62c0-2.8,2.27-5.07,5.07-5.07h25.41c2.8,0,5.07,2.27,5.07,5.07ZM25.13,23.96c-2.8,0-5.07,2.27-5.07,5.07v2.1h35.56v-2.1c0-2.8-2.27-5.07-5.07-5.07h-25.41ZM55.62,34.51H20.06v12.14c0,2.8,2.27,5.07,5.07,5.07h25.41c2.8,0,5.07-2.27,5.07-5.07v-12.14Z"/>
</svg>