<?xml version="1.0" encoding="UTF-8"?>
<svg id="Expanded_Icons" data-name="Expanded Icons" xmlns="http://www.w3.org/2000/svg" viewBox="0 0 64 64">
  <defs>
    <style>
      .cls-1 {
        fill: #29b5e8;
        stroke-width: 0px;
      }
    </style>
  </defs>
  <path class="cls-1" d="M52.91,28.17h-4.45V6.44c0-1.1-.9-2-2-2h-27.3c-.59,0-1.15.26-1.53.71l-10.5,12.41c-.3.36-.47.82-.47,1.29v38.72c0,1.1.9,2,2,2h37.79c1.1,0,2-.9,2-2v-6.55h4.45c2.61,0,4.73-2.12,4.73-4.73v-13.39c0-2.61-2.12-4.73-4.73-4.73ZM17.51,11.49v5.86h-4.96l4.96-5.86ZM44.46,55.57H10.66V21.35h8.84c1.1,0,2-.9,2-2v-10.91h22.95v19.73h-25.15c-2.61,0-4.73,2.12-4.73,4.73v13.39c0,2.61,2.12,4.73,4.73,4.73h25.15v4.55ZM55.14,46.29c0,1.23-1,2.23-2.23,2.23H19.3c-1.23,0-2.23-1-2.23-2.23v-13.39c0-1.23,1-2.23,2.23-2.23h33.6c1.23,0,2.23,1,2.23,2.23v13.39Z"/>
  <polygon class="cls-1" points="18.78 36.18 21.69 36.18 21.69 45.03 23.4 45.03 23.4 36.18 26.32 36.18 26.32 34.66 18.78 34.66 18.78 36.18"/>
  <polygon class="cls-1" points="29.02 34.66 27.3 34.66 27.3 45.03 33.58 45.03 33.58 43.51 29.02 43.51 29.02 34.66"/>
  <path class="cls-1" d="M38.37,34.44c-2.87,0-4.77,2.4-4.77,5.43s1.9,5.41,4.77,5.41,4.79-2.42,4.79-5.41-1.9-5.43-4.79-5.43ZM38.37,43.62c-1.78,0-3.01-1.62-3.01-3.75s1.23-3.79,3.01-3.79,3.03,1.64,3.03,3.79-1.25,3.75-3.03,3.75Z"/>
  <path class="cls-1" d="M48.28,40.63h2.75v.14c-.03,1.71-.99,2.87-2.54,2.87-1.8,0-2.97-1.64-2.97-3.77s1.19-3.8,3.01-3.8c1.54,0,2.39,1.02,2.39,1.02l1.02-1.31s-1.02-1.33-3.39-1.33c-2.96,0-4.81,2.4-4.81,5.43s1.8,5.41,4.75,5.41c2.73,0,4.37-2.01,4.37-5.08v-1.02h-4.58v1.45Z"/>
</svg>