<?xml version="1.0" encoding="UTF-8"?>
<svg id="Expanded_Icons" data-name="Expanded Icons" xmlns="http://www.w3.org/2000/svg" viewBox="0 0 64 64">
  <defs>
    <style>
      .cls-1 {
        fill: #29b5e8;
        stroke-width: 0px;
      }
    </style>
  </defs>
  <path class="cls-1" d="M33.19,31.48l-1.38-.68c-2.5-1.23-2.9-1.53-2.9-2.82,0-2.18,2.32-2.35,3.04-2.35.9,0,2.98.23,2.98,2.35,0,.69.56,1.25,1.25,1.25s1.25-.56,1.25-1.25c0-2.51-1.66-4.31-4.23-4.74v-.97c0-.69-.56-1.25-1.25-1.25s-1.25.56-1.25,1.25v.97c-2.61.43-4.29,2.23-4.29,4.75,0,2.94,1.8,3.83,4.3,5.06l1.38.68c2.5,1.23,2.9,1.52,2.9,2.82,0,2.16-2.33,2.32-3.04,2.32s-3.04-.17-3.04-2.32c0-.69-.56-1.25-1.25-1.25s-1.25.56-1.25,1.25c0,2.5,1.68,4.29,4.29,4.72v1c0,.69.56,1.25,1.25,1.25s1.25-.56,1.25-1.25v-1c2.61-.43,4.29-2.22,4.29-4.72,0-2.95-1.8-3.84-4.29-5.06Z"/>
  <path class="cls-1" d="M58.48,44.36h-3.98v-26.93c0-2.03-1.65-3.68-3.68-3.68H13.08c-2.03,0-3.68,1.65-3.68,3.68v26.93h-3.98c-.69,0-1.25.56-1.25,1.25v.38c0,2.61,1.85,4.57,4.31,4.57h46.41c2.58,0,4.84-2.14,4.84-4.57v-.38c0-.69-.56-1.25-1.25-1.25ZM8.48,48.06c-.88,0-1.42-.54-1.66-1.21h17.4v1.06c0,.05,0,.1,0,.15h-15.75ZM37.18,45.61v1.06h-10.45v-1.06c0-.69-.56-1.25-1.25-1.25h-12.08v-26.61h37.1v26.61h-12.08c-.69,0-1.25.56-1.25,1.25ZM54.89,48.06h-15.22s0-.1,0-.15v-1.06h17.3c-.4.69-1.23,1.21-2.09,1.21Z"/>
</svg>