<?xml version="1.0" encoding="UTF-8"?>
<svg id="Expanded_Icons" data-name="Expanded Icons" xmlns="http://www.w3.org/2000/svg" viewBox="0 0 64 64">
  <defs>
    <style>
      .cls-1 {
        fill: #29b5e8;
        stroke-width: 0px;
      }
    </style>
  </defs>
  <g id="Not_Used" data-name="Not Used">
    <g>
      <g>
        <path class="cls-1" d="M27.95,48.85c-.11,0-.2-.09-.2-.2v-6.24c0-.11.09-.2.2-.2h.59c.04-.8.12-1.59.26-2.36h-.84c-1.41,0-2.56,1.15-2.56,2.55v6.24c0,1.41,1.15,2.56,2.56,2.56h2.47c-.38-.76-.71-1.54-.99-2.36h-1.49Z"/>
        <path class="cls-1" d="M20.58,39.86h-6.24c-1.41,0-2.56,1.15-2.56,2.55v6.24c0,1.41,1.15,2.56,2.56,2.56h6.24c1.41,0,2.56-1.15,2.56-2.56v-6.24c0-1.4-1.15-2.55-2.56-2.55ZM20.78,48.65c0,.11-.09.2-.2.2h-6.24c-.11,0-.2-.09-.2-.2v-6.24c0-.11.09-.2.2-.2h6.24c.11,0,.2.09.2.2v6.24Z"/>
        <path class="cls-1" d="M34.18,12.63h-6.24c-1.41,0-2.56,1.15-2.56,2.56v6.24c0,1.41,1.15,2.56,2.56,2.56h6.24c1.41,0,2.56-1.15,2.56-2.56v-6.24c0-1.41-1.15-2.56-2.56-2.56ZM34.37,21.42c0,.11-.09.2-.2.2h-6.24c-.11,0-.2-.09-.2-.2v-6.24c0-.11.09-.2.2-.2h6.24c.11,0,.2.09.2.2v6.24Z"/>
        <path class="cls-1" d="M27.95,35.13c-.11,0-.2-.09-.2-.2v-6.24c0-.11.09-.2.2-.2h6.24c.11,0,.2.09.2.2v1.06c.71-.64,1.45-1.24,2.25-1.77-.31-1.06-1.28-1.85-2.44-1.85h-6.24c-1.41,0-2.56,1.15-2.56,2.55v6.24c0,1.4,1.15,2.55,2.56,2.55h1.44c.26-.81.6-1.6.97-2.36h-2.4Z"/>
        <path class="cls-1" d="M33.26,55.32H10.6c-1.73,0-3.13-1.4-3.13-3.13V11.98c0-1.73,1.4-3.13,3.13-3.13h40.22c1.73,0,3.13,1.4,3.13,3.13v14.6c1.27.57,2.44,1.27,3.54,2.1V11.98c0-3.68-2.99-6.67-6.66-6.67H10.6c-3.68,0-6.66,2.99-6.66,6.67v40.21c0,3.68,2.99,6.66,6.66,6.66h27.11c-1.67-.93-3.16-2.13-4.44-3.53Z"/>
        <path class="cls-1" d="M47.78,12.63h-6.24c-1.41,0-2.56,1.15-2.56,2.56v6.24c0,1.41,1.15,2.56,2.56,2.56h6.24c1.41,0,2.56-1.15,2.56-2.56v-6.24c0-1.41-1.15-2.56-2.56-2.56ZM47.98,21.42c0,.11-.09.2-.2.2h-6.24c-.11,0-.2-.09-.2-.2v-6.24c0-.11.09-.2.2-.2h6.24c.11,0,.2.09.2.2v6.24Z"/>
        <path class="cls-1" d="M20.58,12.63h-6.24c-1.41,0-2.56,1.15-2.56,2.56v6.24c0,1.41,1.15,2.56,2.56,2.56h6.24c1.41,0,2.56-1.15,2.56-2.56v-6.24c0-1.41-1.15-2.56-2.56-2.56ZM20.78,21.42c0,.11-.09.2-.2.2h-6.24c-.11,0-.2-.09-.2-.2v-6.24c0-.11.09-.2.2-.2h6.24c.11,0,.2.09.2.2v6.24Z"/>
        <path class="cls-1" d="M20.58,26.15h-6.24c-1.41,0-2.56,1.15-2.56,2.55v6.24c0,1.4,1.15,2.55,2.56,2.55h6.24c1.41,0,2.56-1.15,2.56-2.55v-6.24c0-1.4-1.15-2.55-2.56-2.55ZM20.78,34.94c0,.11-.09.2-.2.2h-6.24c-.11,0-.2-.09-.2-.2v-6.24c0-.11.09-.2.2-.2h6.24c.11,0,.2.09.2.2v6.24Z"/>
      </g>
      <g>
        <path class="cls-1" d="M36.71,55.11c-.65,0-1.18-.53-1.18-1.18v-3.91c0-.65.53-1.18,1.18-1.18h3.65c.65,0,1.18.53,1.18,1.18s-.53,1.18-1.18,1.18h-2.47v2.73c0,.66-.53,1.18-1.18,1.18Z"/>
        <path class="cls-1" d="M46.66,56.33c-3.48,0-6.76-1.33-9.25-3.76-.47-.45-.48-1.2-.02-1.67.45-.47,1.2-.47,1.67-.03,2.05,2,4.75,3.09,7.61,3.09,6.01,0,10.9-4.89,10.9-10.9,0-1.28-.21-2.63-.55-3.44-.25-.6.04-1.29.64-1.54.6-.25,1.29.04,1.54.64.46,1.11.73,2.73.73,4.34-.01,7.32-5.96,13.26-13.27,13.26Z"/>
        <path class="cls-1" d="M52.74,37.15c-.57,0-1.06-.41-1.16-.99-.11-.64.33-1.25.97-1.35l2.51-.42-.1-2.46c-.03-.65.48-1.2,1.13-1.23.65-.03,1.2.48,1.23,1.13l.14,3.49c.03.59-.4,1.11-.98,1.21l-3.54.59c-.07.02-.13.03-.2.03Z"/>
        <path class="cls-1" d="M35.04,48.17c-.42,0-.83-.23-1.05-.63-.77-1.47-.77-4.3-.77-4.42.04-7.31,5.99-13.25,13.26-13.25,3.32,0,8.01,1.65,10.56,4.8.41.5.33,1.25-.18,1.66s-1.25.33-1.66-.18c-1.81-2.24-5.57-3.93-8.73-3.93-5.97,0-10.87,4.89-10.9,10.91,0,.98.16,2.68.5,3.31.3.57.08,1.29-.49,1.59-.18.09-.37.14-.55.14Z"/>
      </g>
    </g>
  </g>
</svg>