<?xml version="1.0" encoding="UTF-8"?>
<svg id="Expanded_Icons" data-name="Expanded Icons" xmlns="http://www.w3.org/2000/svg" viewBox="0 0 64 64">
  <defs>
    <style>
      .cls-1 {
        fill: #2ab5e8;
        stroke-width: 0px;
      }
    </style>
  </defs>
  <path class="cls-1" d="M7.56,37.28c.99-1.1,3-1.92,5.55-2.28v-3.39c-.03-.63-.03-1.26,0-1.89.12-.81.19-1.62.19-2.43,0-.77-.41-1.47-1.08-1.85l-3.14-1.82,4.16-7.08,2.93,1.71c.77.46,1.75.37,2.43-.21l.17-.14c1.79-1.75,3.95-3.08,6.32-3.89.88-.27,1.49-1.08,1.51-2.01v-3.43h8.57v3.43s1.92-2.61,4.22-3.81v-.64c0-2.31-.96-3.26-2.13-3.27h-12.79c-1.17,0-2.13.95-2.13,2.13v4.06c-1.94.83-3.74,1.95-5.33,3.34l-3.43-2.02c-.33-.19-.7-.29-1.08-.29-.75,0-1.45.39-1.83,1.05l-6.38,10.76c-.32.51-.4,1.14-.22,1.71.15.55.52,1.02,1.01,1.3l3.94,2.23s-.19,1.56-.19,3.1v3.21l-1.3,2.4ZM49.55,31.98c0,1.43-.04,2.45-.27,3.74-.22.93.22,1.89,1.06,2.33l3.17,1.71-4.22,7.28-3.27-1.71c-.31-.17-.66-.26-1.01-.26-.48,0-.94.16-1.32.45-2.02,1.79-4.39,3.14-6.96,3.96-.91.26-1.53,1.09-1.54,2.04v3.34h-6.61c-.65,2.4-2.74,4.28-3.15,4.28s11.85,0,11.85,0c1.17,0,2.12-.96,2.13-2.13v-4.11c2.07-.84,4.02-1.96,5.78-3.34l3.92,2.11c.32.17.67.27,1.03.27.76,0,1.46-.42,1.83-1.08l6.34-10.97c.26-.51.32-1.1.15-1.65-.16-.55-.54-1.02-1.05-1.3l-3.77-2.06c.1-1.09.14-2.19.12-3.29,0-.51,0-.71-.01-1.21.39-.21-1.51,1.06-4.21,1.58Z"/>
  <g>
    <g id="Art_2.0" data-name="Art 2.0">
      <path class="cls-1" d="M27.26,43.81l15.92-14.44c5.99,2.71,13.04.06,15.75-5.93,1.28-2.82,1.41-6.03.36-8.95-.19-.52-.62-.92-1.16-1.05-.54-.12-1.1.02-1.52.38l-5.26,4.78c-.44.4-1.02.6-1.61.57-1.23-.06-2.17-1.09-2.12-2.32.03-.59.29-1.15.73-1.55l5.28-4.78c.67-.62.72-1.67.1-2.34-.14-.16-.32-.28-.51-.38-5.89-2.86-12.99-.4-15.85,5.5-1.38,2.84-1.57,6.11-.53,9.09l-16.08,14.59M40.3,22.15c-1.97-4.32-.06-9.43,4.26-11.4,1.46-.67,3.08-.91,4.67-.7l-3.09,2.8c-2.25,2.06-2.42,5.54-.38,7.81,2.04,2.27,5.53,2.45,7.8.41.01,0,.02-.02.03-.03l3.08-2.8c.09,2.51-.93,4.93-2.8,6.6-2.75,2.55-6.85,3.01-10.1,1.11-.75-.44-1.43-1-2.01-1.65-.59-.64-1.08-1.37-1.46-2.16ZM23.72,38.77l14.7-13.33c.27.37.57.74.88,1.08.32.35.65.68,1,.99l-14.72,13.35s-.55-.89-1.86-2.09Z"/>
    </g>
    <g id="Art_2.0-2" data-name="Art 2.0">
      <path class="cls-1" d="M21.03,36.94c-5.99-2.71-13.04-.06-15.75,5.93-1.28,2.82-1.41,6.03-.36,8.95.19.52.62.92,1.16,1.05.54.12,1.1-.02,1.52-.38l5.26-4.78c.44-.4,1.02-.6,1.61-.57,1.23.06,2.17,1.09,2.12,2.32-.03.59-.29,1.15-.73,1.55l-5.28,4.78c-.67.62-.72,1.67-.1,2.34.14.16.32.28.51.38,5.89,2.86,12.99.4,15.85-5.5,1.38-2.84,1.59-6.33.55-9.31M23.91,44.16c1.97,4.32.06,9.43-4.26,11.4-1.46.67-3.08.91-4.67.7l3.09-2.8c2.25-2.06,2.42-5.54.38-7.81-2.04-2.27-5.53-2.45-7.8-.41-.01,0-.02.02-.03.03l-3.08,2.8c-.09-2.51.93-4.93,2.8-6.6,2.75-2.55,6.85-3.01,10.1-1.11.75.44,1.43,1,2.01,1.65.59.64,1.08,1.37,1.46,2.16Z"/>
    </g>
  </g>
</svg>