<?xml version="1.0" encoding="UTF-8"?>
<svg id="Expanded_Icons" data-name="Expanded Icons" xmlns="http://www.w3.org/2000/svg" viewBox="0 0 64 64">
  <defs>
    <style>
      .cls-1 {
        fill: #29b5e8;
        stroke-width: 0px;
      }
    </style>
  </defs>
  <circle class="cls-1" cx="38.19" cy="29.18" r="2.27"/>
  <path class="cls-1" d="M57.5,31.05c-1.1,0-2,.9-2,2,0,2.5-2.03,4.53-4.53,4.53s-4.52-2.03-4.52-4.54v-.59c.01-5.9.04-15.76-12.24-18.8-6.18-1.53-12.6-.52-18.08,2.84-5.61,3.44-9.51,8.87-11,15.29-1.42,6.14-.43,12.47,2.8,17.87.26.82,1.03,1.39,1.9,1.39h7.76c1.1,0,2-.9,2-2,0-2.29,1.86-4.15,4.15-4.15s4.15,1.86,4.15,4.15c0,1.1.9,2,2,2h7.55c.07,0,.15.01.22.01.19,0,.38-.03.56-.08.85-.25,1.44-1.03,1.44-1.92v-14.51c0-1.1-.9-2-2-2-.03,0-.05,0-.08,0-.67-.01-1.34.31-1.73.92-1.2,1.88-3.24,3-5.46,3-3.57,0-6.47-2.9-6.47-6.47s2.9-6.47,6.47-6.47c1.73,0,3.35.67,4.58,1.9.78.78,2.05.78,2.83,0,.78-.78.78-2.05,0-2.83-1.98-1.98-4.61-3.07-7.41-3.07-5.78,0-10.47,4.7-10.47,10.47s4.7,10.47,10.47,10.47c1.89,0,3.7-.51,5.27-1.43v8.01h-4.02c-.89-3.53-4.1-6.15-7.9-6.15s-7.01,2.62-7.9,6.15h-4.8c-2.43-4.38-3.15-9.44-2.01-14.35,1.24-5.36,4.51-9.9,9.2-12.78,4.56-2.8,9.9-3.64,15.03-2.37,9.23,2.28,9.21,8.99,9.2,14.91v.61c0,4.7,3.82,8.53,8.52,8.53s8.53-3.83,8.53-8.53c0-1.1-.9-2-2-2Z"/>
</svg>