<?xml version="1.0" encoding="UTF-8"?>
<svg id="Expanded_Icons" data-name="Expanded Icons" xmlns="http://www.w3.org/2000/svg" viewBox="0 0 64 64">
  <defs>
    <style>
      .cls-1 {
        fill: #29b5e8;
        stroke-width: 0px;
      }
    </style>
  </defs>
  <path class="cls-1" d="M50.53,4.5h-25.74c-.56,0-1.1.24-1.48.65l-11.19,12.27c-.34.37-.52.85-.52,1.35v38.73c0,1.1.9,2,2,2h36.93c1.1,0,2-.9,2-2V6.5c0-1.1-.9-2-2-2ZM22.55,11.92v5.29h-4.82l4.82-5.29ZM48.53,55.5H15.6V21.21h8.95c1.1,0,2-.9,2-2v-10.71h21.98v47Z"/>
  <path class="cls-1" d="M42.65,26.06h-21.16c-.37,0-.7.17-.92.43-.24.23-.38.54-.38.9v22.01c0,.69.56,1.25,1.25,1.25h21.28c.69,0,1.25-.56,1.25-1.25v-22.01c0-.35-.15-.67-.39-.9-.23-.26-.55-.43-.92-.43ZM41.46,35.92h-8.14v-3.49h8.14v3.49ZM30.82,32.43v3.49h-8.14v-3.49h8.14ZM22.68,38.42h8.14v3.5h-8.14v-3.5ZM33.32,38.42h8.14v3.5h-8.14v-3.5ZM22.68,44.42h8.14v3.72h-8.14v-3.72ZM33.32,48.14v-3.72h8.14v3.72h-8.14Z"/>
</svg>