<?xml version="1.0" encoding="UTF-8"?>
<svg id="Expanded_Icons" data-name="Expanded Icons" xmlns="http://www.w3.org/2000/svg" viewBox="0 0 64 64">
  <defs>
    <style>
      .cls-1 {
        fill: #29b5e8;
        stroke-width: 0px;
      }
    </style>
  </defs>
  <path class="cls-1" d="M58.97,19.31c-.78-.78-2.05-.78-2.83,0-.2.2-.42.39-.64.56-.06-.13-.13-.25-.24-.36l-10.97-10.97c.16-.19.33-.38.51-.57.78-.78.78-2.05,0-2.83-.78-.78-2.05-.78-2.83,0-4.26,4.26-4.04,9.84-3.41,15.38-5.1-.54-10.06-.41-13.72,3.25-4.28,4.28-4.48,9.73-4,14.94-5.82-.76-11.68-1.18-15.86,3-.78.78-.78,2.05,0,2.83.39.39.9.59,1.41.59s1.02-.2,1.41-.59c.23-.23.47-.43.72-.62l11.25,11.25c-.19.24-.4.48-.63.71-.78.78-.78,2.05,0,2.83.39.39.9.59,1.41.59s1.02-.2,1.41-.59c4.26-4.26,4.04-9.84,3.41-15.38,5.1.54,10.06.41,13.72-3.25,4.28-4.28,4.48-9.73,4-14.94,5.82.76,11.68,1.18,15.86-3,.78-.78.78-2.05,0-2.83ZM53.27,21.04c-.7.23-1.45.39-2.24.48l-8.61-8.61c.12-.75.3-1.47.57-2.15l10.29,10.29ZM47.53,21.56c-1.56-.09-3.2-.3-4.88-.53-.2-1.67-.37-3.27-.42-4.77l5.3,5.3ZM39.05,24.6c.18,1.67.3,3.31.24,4.86l-5.15-5.15c1.54-.04,3.19.09,4.91.3ZM37.42,35.88l-9.49-9.49c.89-.81,1.93-1.34,3.1-1.66l7.85,7.85c-.29,1.17-.76,2.28-1.46,3.3ZM32.98,39.11l-7.88-7.88c.26-1.03.65-2.01,1.22-2.92l9.42,9.42c-.81.65-1.74,1.09-2.76,1.38ZM21.31,42.81c.19,1.57.35,3.07.41,4.5l-5.01-5.01c1.47.1,3.02.3,4.59.51ZM10.9,42.75c.72-.22,1.48-.36,2.28-.44l8.41,8.41c-.11.76-.29,1.49-.54,2.18l-10.15-10.15ZM24.92,39.25c-.18-1.69-.3-3.34-.24-4.9l5.2,5.2c-1.55.05-3.22-.09-4.95-.29Z"/>
</svg>