<?xml version="1.0" encoding="UTF-8"?>
<svg id="Expanded_Icons" data-name="Expanded Icons" xmlns="http://www.w3.org/2000/svg" viewBox="0 0 64 64">
  <defs>
    <style>
      .cls-1 {
        fill: #29b5e8;
        stroke-width: 0px;
      }
    </style>
  </defs>
  <path class="cls-1" d="M56.84,28.04l-7.94-2.5c-1.03-.85-6.04-4.98-7.76-6.42-2.58-2.16-4.18-3.06-7.48-3.06h-10.47c-2.44,0-3.54.7-4.71,1.43l-.09.06c-2.94,1.86-7.53,6.24-8.72,7.39l-2.28.41c-2.04.34-3.64,2.25-3.64,4.36v7.39c0,.59.23,1.15.64,1.57l3.07,3.16c.42.43,1.01.68,1.62.68h1.68c.59,3.07,3.29,5.4,6.53,5.4s5.95-2.33,6.53-5.4h17.63c.59,3.07,3.29,5.4,6.53,5.4s5.94-2.33,6.53-5.4h1.42c.65,0,1.27-.28,1.69-.76l2.06-2.33c.36-.41.56-.94.56-1.49v-5.54c0-2.05-1.47-3.91-3.43-4.35ZM17.31,45.43c-2.29,0-4.15-1.86-4.15-4.15s1.86-4.15,4.15-4.15,4.15,1.86,4.15,4.15-1.86,4.15-4.15,4.15ZM48,45.43c-2.29,0-4.15-1.86-4.15-4.15s1.86-4.15,4.15-4.15,4.15,1.86,4.15,4.15-1.86,4.15-4.15,4.15ZM57.77,37.85l-1.92,2.18h-1.31c-.59-3.07-3.29-5.4-6.53-5.4s-5.94,2.33-6.53,5.4h-17.63c-.59-3.07-3.29-5.4-6.53-5.4s-5.94,2.33-6.53,5.4h-1.58l-2.93-3.01v-7.29c0-.91.69-1.76,1.56-1.9l2.67-.48c.25-.04.48-.16.66-.34,1.88-1.85,6.1-5.76,8.58-7.33l.1-.06c1.03-.65,1.65-1.05,3.37-1.05h10.47c2.51,0,3.62.59,5.87,2.47,1.92,1.61,7.96,6.59,7.96,6.59.12.1.27.18.42.23l8.22,2.59s.08.02.12.03c.83.17,1.5,1.03,1.5,1.92v5.45Z"/>
  <path class="cls-1" d="M37.79,22.45c-1.93-1.53-2.59-2.05-4.62-2.05h-8.92c-2.02,0-2.78.61-4.63,2.07l.71,1.03-.78-.98c-1.33,1.05-5.12,4.37-5.18,4.43l-.26.25c-.12.11-.21.24-.28.38-.32.69-.27,1.49.14,2.13.41.64,1.11,1.03,1.87,1.03h25.63c.92,0,1.75-.58,2.08-1.44s.08-1.84-.61-2.45c-.04-.03-3.83-3.35-5.15-4.4ZM16.69,28.23c1.13-.98,3.45-3,4.41-3.75l.06-.05c1.79-1.42,1.96-1.53,3.08-1.53h8.92c1.17,0,1.27.08,3.07,1.51.98.77,3.39,2.87,4.49,3.82h-24.04Z"/>
</svg>