<?xml version="1.0" encoding="UTF-8"?>
<svg id="Expanded_Icons" data-name="Expanded Icons" xmlns="http://www.w3.org/2000/svg" viewBox="0 0 64 64">
  <defs>
    <style>
      .cls-1 {
        fill: #29b5e8;
        stroke-width: 0px;
      }
    </style>
  </defs>
  <path class="cls-1" d="M57.15,25.98h-4.11c-.47-1.65-1.14-3.24-1.98-4.74l2.41-2.41c.38-.38.59-.88.59-1.41s-.21-1.04-.59-1.41l-5.63-5.63c-.78-.78-2.05-.78-2.83,0l-2.44,2.44c-1.51-.84-3.09-1.49-4.75-1.95v-4.07c0-1.1-.9-2-2-2h-7.97c-1.1,0-2,.9-2,2v4.11c-1.65.47-3.24,1.13-4.74,1.98l-2.41-2.41c-.38-.38-.88-.59-1.41-.59s-1.04.21-1.41.59l-5.63,5.63c-.38.38-.59.88-.59,1.41s.21,1.04.59,1.41l2.43,2.44c-.84,1.5-1.49,3.09-1.95,4.75h-4.07c-1.1,0-2,.9-2,2v7.97c0,1.1.9,2,2,2h4.11c.47,1.65,1.14,3.24,1.98,4.74l-2.41,2.41c-.38.38-.59.88-.59,1.41s.21,1.04.59,1.41l5.63,5.63c.78.78,2.05.78,2.83,0l2.44-2.44c1.5.84,3.09,1.49,4.75,1.95v4.07c0,1.1.9,2,2,2h7.97c1.1,0,2-.9,2-2v-4.11c1.65-.47,3.24-1.14,4.74-1.98l2.41,2.41c.78.78,2.05.78,2.83,0l5.63-5.63c.78-.78.78-2.05,0-2.83l-2.43-2.44c.84-1.51,1.49-3.09,1.95-4.75h4.07c1.1,0,2-.9,2-2v-7.97c0-1.1-.9-2-2-2ZM55.15,33.94h-3.65c-.95,0-1.78.67-1.96,1.61-.45,2.27-1.33,4.4-2.61,6.35-.52.79-.41,1.84.26,2.51l2.13,2.13-2.8,2.81-2.11-2.11c-.67-.67-1.73-.78-2.53-.25-1.93,1.29-4.06,2.18-6.33,2.65-.93.19-1.6,1.01-1.6,1.96v3.68h-3.97v-3.65c0-.95-.67-1.78-1.61-1.96-2.27-.45-4.4-1.33-6.35-2.61-.79-.52-1.84-.41-2.51.26l-2.13,2.13-2.81-2.81,2.11-2.11c.67-.67.78-1.73.25-2.53-1.29-1.93-2.18-4.06-2.65-6.33-.19-.93-1.01-1.6-1.96-1.6h-3.68v-3.97h3.65c.95,0,1.78-.67,1.96-1.61.45-2.27,1.33-4.4,2.61-6.35.52-.79.41-1.84-.26-2.51l-2.13-2.13,2.81-2.8,2.11,2.11c.67.67,1.73.78,2.53.25,1.93-1.29,4.06-2.18,6.33-2.65.93-.19,1.6-1.01,1.6-1.96v-3.68h3.97v3.65c0,.95.67,1.78,1.61,1.96,2.27.45,4.4,1.33,6.35,2.61.79.52,1.84.42,2.51-.26l2.13-2.13,2.81,2.8-2.11,2.11c-.67.67-.78,1.73-.25,2.53,1.29,1.93,2.18,4.06,2.65,6.33.19.93,1.01,1.6,1.96,1.6h3.68v3.97Z"/>
  <rect class="cls-1" x="21" y="31.61" width="5.49" height="12.75" rx=".75" ry=".75"/>
  <rect class="cls-1" x="29.25" y="26.32" width="5.49" height="18.04" rx=".75" ry=".75"/>
  <rect class="cls-1" x="37.51" y="19.64" width="5.49" height="24.72" rx=".75" ry=".75"/>
</svg>