<?xml version="1.0" encoding="UTF-8"?>
<svg id="Expanded_Icons" data-name="Expanded Icons" xmlns="http://www.w3.org/2000/svg" viewBox="0 0 64 64">
  <defs>
    <style>
      .cls-1 {
        fill: #29b5e8;
        fill-rule: evenodd;
        stroke-width: 0px;
      }
    </style>
  </defs>
  <path class="cls-1" d="M31.72,4.25c-15.44,0-28,12.56-28,28s12.56,28,28,28,28-12.56,28-28S47.16,4.25,31.72,4.25ZM31.72,55.53c-12.84,0-23.28-10.45-23.28-23.28S18.89,8.97,31.72,8.97s23.28,10.45,23.28,23.28-10.44,23.28-23.28,23.28Z"/>
  <path class="cls-1" d="M39.63,45.82h-5.22v-19.17c0-.97-.79-1.76-1.76-1.76h-4.65c-.97.03-1.74.84-1.71,1.81.03.93.78,1.69,1.71,1.71h2.89v17.42h-5.21c-.97-.03-1.79.74-1.81,1.71-.03.97.74,1.79,1.71,1.81.03,0,.07,0,.1,0h13.96c.97-.03,1.74-.84,1.71-1.81-.03-.93-.78-1.69-1.71-1.71h0Z"/>
  <path class="cls-1" d="M31.49,21.01c1.62,0,2.93-1.31,2.93-2.92,0-1.62-1.31-2.93-2.92-2.93-1.62,0-2.93,1.31-2.93,2.92h0c0,1.62,1.31,2.92,2.92,2.93Z"/>
</svg>