<?xml version="1.0" encoding="UTF-8"?>
<svg id="Expanded_Icons" data-name="Expanded Icons" xmlns="http://www.w3.org/2000/svg" viewBox="0 0 64 64">
  <defs>
    <style>
      .cls-1 {
        fill: #29b5e8;
        stroke-width: 0px;
      }
    </style>
  </defs>
  <path class="cls-1" d="M32.29,4.05c-.41,0-.75.34-.75.75v7.06c0,.41.34.75.75.75s.75-.34.75-.75v-7.06c0-.41-.34-.75-.75-.75Z"/>
  <path class="cls-1" d="M24.26,13.46l-3.28-6.25c-.32-.61-1.08-.85-1.69-.53-.61.32-.85,1.08-.53,1.69l3.28,6.25c.22.43.66.67,1.11.67.2,0,.39-.05.58-.14.61-.32.85-1.08.53-1.69Z"/>
  <path class="cls-1" d="M15.37,21.25c.22.15.46.22.71.22.4,0,.79-.19,1.03-.54.39-.57.25-1.35-.32-1.74l-5.81-4.01c-.57-.39-1.35-.25-1.74.32-.39.57-.25,1.35.32,1.74l5.81,4.01Z"/>
  <path class="cls-1" d="M12.53,30.23c.05,0,.1,0,.15,0,.62,0,1.16-.46,1.24-1.1.08-.68-.4-1.31-1.09-1.39l-7-.85c-.69-.08-1.31.4-1.39,1.09-.08.68.4,1.31,1.09,1.39l7,.85Z"/>
  <path class="cls-1" d="M15.74,37.57c-.42-1.1-1.64-1.65-2.74-1.23l-6.6,2.5c-1.1.42-1.65,1.64-1.23,2.74.32.85,1.13,1.37,1.99,1.37.25,0,.5-.04.75-.14l6.6-2.5c1.1-.42,1.65-1.64,1.23-2.74Z"/>
  <path class="cls-1" d="M17.44,44.68l-4.68,5.28c-.78.88-.7,2.22.18,3,.4.36.91.54,1.41.54.59,0,1.17-.24,1.59-.72l4.68-5.28c.78-.88.7-2.22-.18-3-.88-.78-2.22-.7-3,.18Z"/>
  <path class="cls-1" d="M27.83,48.45c-1.14-.28-2.29.42-2.57,1.55l-1.69,6.85c-.28,1.14.41,2.29,1.55,2.57.17.04.34.06.51.06.96,0,1.82-.65,2.06-1.62l1.69-6.85c.28-1.14-.41-2.29-1.55-2.57Z"/>
  <path class="cls-1" d="M38.66,50.1c-.26-1.07-1.35-1.73-2.42-1.46-1.07.26-1.73,1.35-1.46,2.42l1.69,6.85c.22.91,1.04,1.52,1.94,1.52.16,0,.32-.02.48-.06,1.07-.26,1.73-1.35,1.46-2.42l-1.69-6.85Z"/>
  <path class="cls-1" d="M46.56,44.94c-.73-.83-2-.9-2.82-.17-.83.73-.9,2-.17,2.82l4.68,5.28c.4.45.95.67,1.5.67.47,0,.94-.17,1.32-.5.83-.73.9-2,.17-2.82l-4.68-5.28Z"/>
  <path class="cls-1" d="M57.76,39.21l-6.6-2.5c-1.03-.39-2.19.13-2.58,1.16-.39,1.03.13,2.19,1.16,2.58l6.6,2.5c.23.09.47.13.71.13.81,0,1.57-.49,1.87-1.29.39-1.03-.13-2.19-1.16-2.58Z"/>
  <path class="cls-1" d="M48.39,21.2c.15,0,.3-.04.43-.13l5.81-4.01c.34-.24.43-.7.19-1.04-.24-.34-.7-.43-1.04-.19l-5.81,4.01c-.34.24-.43.7-.19,1.04.15.21.38.32.62.32Z"/>
  <path class="cls-1" d="M45.03,7.26c-.37-.19-.82-.05-1.01.32l-3.28,6.25c-.19.37-.05.82.32,1.01.11.06.23.09.35.09.27,0,.53-.15.66-.4l3.28-6.25c.19-.37.05-.82-.32-1.01Z"/>
</svg>