<?xml version="1.0" encoding="UTF-8"?>
<svg id="Expanded_Icons" data-name="Expanded Icons" xmlns="http://www.w3.org/2000/svg" viewBox="0 0 64 64">
  <defs>
    <style>
      .cls-1 {
        fill: #29b5e8;
        stroke-width: 0px;
      }
    </style>
  </defs>
  <path class="cls-1" d="M56.72,16.27s0,0,0,0c-.08-.07-.16-.14-.25-.2-.06-.04-.12-.05-.18-.08-.01,0-.02-.02-.04-.02l-23.45-11.06c-.54-.26-1.17-.26-1.71,0L7.84,15.97s-.05.04-.08.06c-.03.02-.07.03-.11.05-.06.03-.1.08-.15.12-.06.05-.12.09-.18.14-.08.07-.14.15-.2.24-.04.06-.09.11-.13.17-.06.1-.1.2-.14.3-.02.06-.06.12-.07.18-.04.13-.05.26-.06.4,0,.04-.02.08-.02.12,0,0,0,0,0,.01s0,0,0,.01v26.96c0,.74.41,1.42,1.06,1.76l23.33,12.48c.29.16.62.24.94.24,0,0,0,0,.01,0s0,0,.01,0c.32,0,.65-.08.94-.24l23.36-12.48c.65-.35,1.06-1.03,1.06-1.76v-26.96c0-.58-.27-1.12-.7-1.5ZM32.05,27.33l-5.8-2.93,18.64-9.37,5.95,2.81-18.79,9.49ZM31.95,8.93l4.79,2.26-18.38,9.23-5.11-2.58,18.71-8.9ZM30.03,53.88l-19.33-10.34v-22.51l5.45,2.75v9.98l7.9,4.01v-10l6,3.03v23.08ZM53.42,43.53l-19.36,10.35v-23.08s19.36-9.77,19.36-9.77v22.51Z"/>
</svg>