<?xml version="1.0" encoding="UTF-8"?>
<svg id="Expanded_Icons" data-name="Expanded Icons" xmlns="http://www.w3.org/2000/svg" viewBox="0 0 64 64">
  <defs>
    <style>
      .cls-1 {
        fill: #29b5e8;
        stroke-width: 0px;
      }
    </style>
  </defs>
  <path class="cls-1" d="M58.51,27.41h-.89v-5.59c0-.83-.67-1.5-1.5-1.5h-10.11c-.83,0-1.5.67-1.5,1.5v5.59h-.89c-.83,0-1.5.67-1.5,1.5v6.15h-13.72v-8.64c0-.83-.67-1.5-1.5-1.5h-.84v-11.04c0-.83-.67-1.5-1.5-1.5h-6.85v-5.86c0-.83-.67-1.5-1.5-1.5s-1.5.67-1.5,1.5v5.86h-6.85c-.83,0-1.5.67-1.5,1.5v11.04h-.84c-.83,0-1.5.67-1.5,1.5v30.93c0,.83.67,1.5,1.5,1.5h21.14c.09.02.17.03.26.03h31.59c.83,0,1.5-.67,1.5-1.5v-28.47c0-.83-.67-1.5-1.5-1.5ZM47.52,23.32h7.1v4.06h-7.1v-4.06ZM9.36,15.38h13.7v9.54h-13.7v-9.54ZM25.4,55.85H7.02v-27.93h18.39v27.93ZM28.42,38.06h13.7v17.81h-13.7v-17.81ZM57.01,55.87h-11.88v-25.46h11.88v25.46Z"/>
  <path class="cls-1" d="M20.71,31.62h-9c-.83,0-1.5.67-1.5,1.5s.67,1.5,1.5,1.5h9c.83,0,1.5-.67,1.5-1.5s-.67-1.5-1.5-1.5Z"/>
  <path class="cls-1" d="M18.97,18.64h-5.51c-.83,0-1.5.67-1.5,1.5s.67,1.5,1.5,1.5h5.51c.83,0,1.5-.67,1.5-1.5s-.67-1.5-1.5-1.5Z"/>
  <path class="cls-1" d="M20.71,36.88h-9c-.83,0-1.5.67-1.5,1.5s.67,1.5,1.5,1.5h9c.83,0,1.5-.67,1.5-1.5s-.67-1.5-1.5-1.5Z"/>
  <path class="cls-1" d="M20.71,42.13h-9c-.83,0-1.5.67-1.5,1.5s.67,1.5,1.5,1.5h9c.83,0,1.5-.67,1.5-1.5s-.67-1.5-1.5-1.5Z"/>
  <path class="cls-1" d="M20.71,47.39h-9c-.83,0-1.5.67-1.5,1.5s.67,1.5,1.5,1.5h9c.83,0,1.5-.67,1.5-1.5s-.67-1.5-1.5-1.5Z"/>
  <path class="cls-1" d="M48.66,39.88h4.8c.83,0,1.5-.67,1.5-1.5s-.67-1.5-1.5-1.5h-4.8c-.83,0-1.5.67-1.5,1.5s.67,1.5,1.5,1.5Z"/>
  <path class="cls-1" d="M48.66,45.14h4.8c.83,0,1.5-.67,1.5-1.5s-.67-1.5-1.5-1.5h-4.8c-.83,0-1.5.67-1.5,1.5s.67,1.5,1.5,1.5Z"/>
  <path class="cls-1" d="M48.66,50.39h4.8c.83,0,1.5-.67,1.5-1.5s-.67-1.5-1.5-1.5h-4.8c-.83,0-1.5.67-1.5,1.5s.67,1.5,1.5,1.5Z"/>
  <path class="cls-1" d="M37.62,42.13h-4.69c-.83,0-1.5.67-1.5,1.5s.67,1.5,1.5,1.5h4.69c.83,0,1.5-.67,1.5-1.5s-.67-1.5-1.5-1.5Z"/>
  <path class="cls-1" d="M37.62,47.39h-4.69c-.83,0-1.5.67-1.5,1.5s.67,1.5,1.5,1.5h4.69c.83,0,1.5-.67,1.5-1.5s-.67-1.5-1.5-1.5Z"/>
</svg>