<?xml version="1.0" encoding="UTF-8"?>
<svg id="Expanded_Icons" data-name="Expanded Icons" xmlns="http://www.w3.org/2000/svg" viewBox="0 0 64 64">
  <defs>
    <style>
      .cls-1 {
        fill: #29b5e8;
        fill-rule: evenodd;
      }

      .cls-1, .cls-2, .cls-3 {
        stroke-width: 0px;
      }

      .cls-2 {
        fill: #11567f;
      }

      .cls-3 {
        fill: #fff;
      }
    </style>
  </defs>
  <rect class="cls-2" x="10.22" y="43.03" width="43.56" height="16.97" rx="3.96" ry="3.96"/>
  <path class="cls-3" d="M15.71,53.78v-4.53h3.05v.79h-2.09v1.08h1.94v.79h-1.94v1.08h2.1v.79h-3.06Z"/>
  <path class="cls-3" d="M20.54,49.25l.91,1.54h.04l.92-1.54h1.08l-1.38,2.26,1.41,2.26h-1.1l-.93-1.54h-.04l-.93,1.54h-1.1l1.42-2.26-1.39-2.26h1.08Z"/>
  <path class="cls-3" d="M24.04,50.04v-.79h3.72v.79h-1.39v3.74h-.95v-3.74h-1.39Z"/>
  <path class="cls-3" d="M28.49,53.78v-4.53h3.05v.79h-2.09v1.08h1.94v.79h-1.94v1.08h2.1v.79h-3.06Z"/>
  <path class="cls-3" d="M32.43,53.78v-4.53h1.79c.34,0,.63.06.88.18.24.12.43.29.55.51.13.22.19.48.19.78s-.06.56-.19.78c-.13.22-.32.38-.56.49-.24.11-.54.17-.89.17h-1.2v-.77h1.04c.18,0,.33-.03.46-.08.12-.05.21-.13.27-.23.06-.1.09-.22.09-.37s-.03-.28-.09-.38c-.06-.1-.15-.18-.27-.23-.12-.05-.27-.08-.46-.08h-.65v3.74h-.96ZM34.87,51.72l1.12,2.06h-1.06l-1.1-2.06h1.03Z"/>
  <path class="cls-3" d="M40.42,49.25v4.53h-.83l-1.97-2.85h-.03v2.85h-.96v-4.53h.84l1.95,2.85h.04v-2.85h.95Z"/>
  <path class="cls-3" d="M42.12,53.78h-1.03l1.56-4.53h1.23l1.56,4.53h-1.03l-1.13-3.49h-.04l-1.14,3.49ZM42.05,52h2.42v.75h-2.42v-.75Z"/>
  <path class="cls-3" d="M46.12,53.78v-4.53h.96v3.74h1.94v.79h-2.9Z"/>
  <path class="cls-1" d="M19.09,4c-4.06,0-7.35,3.29-7.35,7.35v19.8c0,4.06,3.29,7.35,7.35,7.35h26.43c4.06,0,7.35-3.29,7.35-7.35V11.35c0-4.06-3.29-7.35-7.35-7.35h-26.43ZM15.13,11.35c0-2.19,1.77-3.96,3.96-3.96h26.43c2.19,0,3.96,1.77,3.96,3.96v1.83H15.13v-1.83ZM15.13,16.57v14.58c0,2.19,1.77,3.96,3.96,3.96h26.43c2.19,0,3.96-1.77,3.96-3.96v-14.58H15.13Z"/>
</svg>