<?xml version="1.0" encoding="UTF-8"?>
<svg id="uuid-2d75dc74-0646-4a60-b0b3-f3ac1804e6b9" data-name="Layer 3" xmlns="http://www.w3.org/2000/svg" width="64" height="64" viewBox="0 0 64 64">
  <defs>
    <style>
      .uuid-258ba6ed-7358-40f7-a312-595d077bc4fb {
        fill: #29b5e8;
        fill-rule: evenodd;
      }
    </style>
  </defs>
  <path class="uuid-258ba6ed-7358-40f7-a312-595d077bc4fb" d="M53.67,44.62c-.2.4-.59.69-.99.78-.4.09-.9,0-1.28-.2-.79-.49-1.1-1.48-.59-2.28.29-.49.9-.78,1.49-.78s.59,0,.79.2c.79.49,1.1,1.48.59,2.28ZM35.69,53.7c-.5-.98-1.39-1.77-2.48-2.17v-12.43c1.69-.29,3.08-1.19,4.16-2.46l10.82,6.22c-.29,1.19,0,2.37.59,3.26-3.38,4.05-7.94,6.62-13.12,7.49v.09h.02ZM31.93,57.16c-.9,0-1.69-.78-1.69-1.68s.79-1.68,1.69-1.68,1.69.78,1.69,1.68-.79,1.68-1.69,1.68ZM15.03,46.2c.29-.4.5-.78.59-1.28.2-.78.2-1.48,0-2.17l10.73-6.13c1.1,1.28,2.59,2.28,4.37,2.57v12.43c-1.1.29-1.98,1.09-2.48,2.17-5.17-.89-9.74-3.56-13.12-7.49l-.09-.09v-.02ZM11.16,45.42c-.4-.09-.79-.4-.99-.78-.2-.4-.29-.78-.2-1.28.09-.4.4-.78.79-.98.29-.2.59-.2.9-.2.59,0,1.19.29,1.49.78.2.4.29.78.2,1.28-.09.4-.4.78-.79.98-.4.2-.9.29-1.28.2h-.11ZM10.17,19.75c.29-.49.9-.89,1.49-.89s.59,0,.9.2c.4.2.7.58.79.98.09.4,0,.89-.2,1.28-.2.4-.59.69-.99.78-.4.09-.9,0-1.28-.2-.4-.2-.7-.58-.79-.98-.09-.4,0-.89.2-1.28l-.11.11ZM28.15,10.67c.5,1.09,1.39,1.77,2.48,2.17v12.43c-1.69.29-3.08,1.18-4.16,2.37l-10.82-6.22c.09-.58.09-1.28,0-1.97-.09-.49-.29-.89-.59-1.28,3.38-4.05,7.94-6.62,13.12-7.49l-.02-.02ZM31.93,7.2c.9,0,1.69.78,1.69,1.68s-.79,1.68-1.69,1.68-1.69-.78-1.69-1.68.79-1.68,1.69-1.68ZM48.81,18.16c-.59.89-.9,1.97-.7,3.06l-10.93,6.22c-.99-1.09-2.38-1.97-3.98-2.17v-12.43c1.1-.4,1.98-1.09,2.48-2.17,5.17.89,9.74,3.56,13.12,7.49h.02ZM53.67,19.75c.5.78.2,1.88-.59,2.28-.4.2-.79.29-1.28.2-.4-.09-.79-.4-.99-.78-.5-.78-.2-1.88.59-2.28.79-.49,1.78-.2,2.29.58h-.02ZM14.24,40.57c-.4-.4-.99-.69-1.6-.78-.5-.09-.9-.2-1.39-.09-.9-2.37-1.39-4.94-1.39-7.49s.5-5.14,1.39-7.49h.29c.4,0,.7,0,1.1-.09.7-.2,1.28-.49,1.78-.98l10.82,6.22c-.29.78-.4,1.59-.4,2.46s.09,1.48.4,2.17l-10.93,6.22-.09-.09.02-.04ZM31.93,36.72c-2.48,0-4.57-2.08-4.57-4.54s2.09-4.54,4.57-4.54,4.57,2.08,4.57,4.54-2.09,4.54-4.57,4.54ZM49.39,40.77l-10.82-6.22c.29-.69.4-1.48.4-2.37s-.2-1.77-.5-2.57l10.73-6.13c.5.49,1.19.89,1.89,1.09.4.09.7.09,1.1.09s.2,0,.29,0c.9,2.37,1.39,4.94,1.39,7.49s-.5,5.14-1.39,7.49c-.5,0-.99,0-1.39.09-.7.2-1.19.49-1.69.89v.09l-.02.04ZM54.86,40.57c.99-2.66,1.49-5.52,1.49-8.39s-.5-5.72-1.49-8.5c1.49-1.28,1.98-3.45.99-5.23-.99-1.77-3.17-2.46-5.06-1.77-3.78-4.54-8.93-7.49-14.69-8.5-.29-1.97-1.98-3.46-4.07-3.46s-3.78,1.48-4.07,3.46c-5.76.98-10.93,3.96-14.69,8.5-1.89-.69-4.07,0-5.06,1.77-.59.98-.7,2.08-.4,3.15.2.89.7,1.59,1.39,2.08-.99,2.68-1.5,5.54-1.5,8.5s.5,5.72,1.49,8.5c-.7.49-1.19,1.28-1.39,2.17-.29,1.09-.09,2.17.4,3.15.5.98,1.49,1.68,2.48,1.97.4,0,.7.2,1.1.2s.99,0,1.49-.29c3.78,4.54,8.93,7.49,14.69,8.5.29,1.97,1.98,3.45,4.07,3.45s3.78-1.48,4.07-3.45c5.76-.98,10.93-3.96,14.69-8.5.5.2.99.29,1.49.29s.7,0,1.1-.2c1.1-.29,1.98-.98,2.48-1.97.99-1.77.59-4.05-.99-5.23v-.2h.02Z"/>
  <path class="uuid-258ba6ed-7358-40f7-a312-595d077bc4fb" d="M46.02,27.24c-1.19,0-2.09.98-2.09,2.08s.99,2.08,2.09,2.08,2.09-.98,2.09-2.08-.99-2.08-2.09-2.08Z"/>
  <path class="uuid-258ba6ed-7358-40f7-a312-595d077bc4fb" d="M46.02,32.67c-1.19,0-2.09.98-2.09,2.08s.99,2.08,2.09,2.08,2.09-.98,2.09-2.08-.99-2.08-2.09-2.08Z"/>
  <path class="uuid-258ba6ed-7358-40f7-a312-595d077bc4fb" d="M17.82,32.67c-1.19,0-2.09.98-2.09,2.08s.99,2.08,2.09,2.08,2.09-.98,2.09-2.08-.99-2.08-2.09-2.08Z"/>
  <path class="uuid-258ba6ed-7358-40f7-a312-595d077bc4fb" d="M17.82,27.24c-1.19,0-2.09.98-2.09,2.08s.99,2.08,2.09,2.08,2.09-.98,2.09-2.08-.99-2.08-2.09-2.08Z"/>
  <path class="uuid-258ba6ed-7358-40f7-a312-595d077bc4fb" d="M34.81,17.47c-.59.98-.2,2.28.79,2.86.99.58,2.29.2,2.88-.78.59-.98.2-2.28-.79-2.86-.99-.58-2.29-.2-2.88.78Z"/>
  <path class="uuid-258ba6ed-7358-40f7-a312-595d077bc4fb" d="M40.37,23.01c.99.58,2.29.2,2.88-.78.59-.98.2-2.28-.79-2.86-.99-.58-2.29-.2-2.88.78-.59.98-.2,2.28.79,2.86Z"/>
  <path class="uuid-258ba6ed-7358-40f7-a312-595d077bc4fb" d="M29.05,46.6c.59-.98.2-2.28-.79-2.86-.99-.58-2.29-.2-2.88.78-.59.98-.2,2.28.79,2.86.99.58,2.29.2,2.88-.78Z"/>
  <path class="uuid-258ba6ed-7358-40f7-a312-595d077bc4fb" d="M23.47,41.06c-.99-.58-2.29-.2-2.88.78-.59.98-.2,2.28.79,2.86.99.58,2.29.2,2.88-.78.59-.98.2-2.28-.79-2.86Z"/>
  <path class="uuid-258ba6ed-7358-40f7-a312-595d077bc4fb" d="M23.47,23.01c.99-.58,1.39-1.88.79-2.86-.59-.98-1.89-1.39-2.88-.78-.99.58-1.39,1.88-.79,2.86.59.98,1.89,1.39,2.88.78Z"/>
  <path class="uuid-258ba6ed-7358-40f7-a312-595d077bc4fb" d="M28.24,20.33c.99-.58,1.39-1.88.79-2.86-.59-.98-1.89-1.39-2.88-.78-.99.58-1.39,1.88-.79,2.86.59.98,1.89,1.39,2.88.78Z"/>
  <path class="uuid-258ba6ed-7358-40f7-a312-595d077bc4fb" d="M40.37,41.06c-.99.58-1.39,1.88-.79,2.86.59.98,1.89,1.39,2.88.78.99-.58,1.39-1.88.79-2.86-.59-.98-1.89-1.39-2.88-.78Z"/>
  <path class="uuid-258ba6ed-7358-40f7-a312-595d077bc4fb" d="M35.6,43.74c-.99.58-1.39,1.88-.79,2.86.59.98,1.89,1.39,2.88.78.99-.58,1.39-1.88.79-2.86-.59-.98-1.89-1.39-2.88-.78Z"/>
</svg>