<?xml version="1.0" encoding="UTF-8"?>
<svg id="Expanded_Icons" data-name="Expanded Icons" xmlns="http://www.w3.org/2000/svg" viewBox="0 0 64 64">
  <defs>
    <style>
      .cls-1 {
        fill: #29b5e8;
        stroke-width: 0px;
      }
    </style>
  </defs>
  <path class="cls-1" d="M29.29,16.94c.44,0,.79-.35.79-.79s-.35-.79-.79-.79-.79.35-.79.79.36.79.79.79Z"/>
  <path class="cls-1" d="M32.46,16.94c.44,0,.79-.35.79-.79s-.35-.79-.79-.79-.79.35-.79.79.36.79.79.79Z"/>
  <path class="cls-1" d="M35.63,16.94c.44,0,.79-.35.79-.79s-.35-.79-.79-.79-.79.35-.79.79.36.79.79.79Z"/>
  <path class="cls-1" d="M57.54,10.99h-31.88c-1.1,0-2,.9-2,2v9.72H6.54c-1.1,0-2,.9-2,2v26.27c0,1.1.9,2,2,2h31.88c1.1,0,2-.9,2-2v-9.72h17.12c1.1,0,2-.9,2-2V12.99c0-1.1-.9-2-2-2ZM55.54,14.99v2.41h-27.88v-2.41h27.88ZM36.42,26.72v2.41H8.54v-2.41h27.88ZM8.54,48.99v-16.91h27.88v16.91H8.54ZM40.42,37.27v-12.55c0-1.1-.9-2-2-2h-10.76v-2.36h27.88v16.91h-15.12Z"/>
  <path class="cls-1" d="M10.17,28.66c.44,0,.79-.35.79-.79s-.35-.79-.79-.79-.79.35-.79.79.36.79.79.79Z"/>
  <path class="cls-1" d="M13.34,28.66c.44,0,.79-.35.79-.79s-.35-.79-.79-.79-.79.35-.79.79.36.79.79.79Z"/>
  <path class="cls-1" d="M16.51,28.66c.44,0,.79-.35.79-.79s-.35-.79-.79-.79-.79.35-.79.79.36.79.79.79Z"/>
</svg>