<?xml version="1.0" encoding="UTF-8"?>
<svg id="Expanded_Icons" data-name="Expanded Icons" xmlns="http://www.w3.org/2000/svg" viewBox="0 0 64 64">
  <defs>
    <style>
      .cls-1 {
        fill: #29b5e8;
        stroke-width: 0px;
      }
    </style>
  </defs>
  <path class="cls-1" d="M32.03,4.41c-15.17,0-27.51,12.37-27.51,27.57,0,6.22,2.07,11.96,5.54,16.58,0,.09,0,.16-.01.22-.06.18.47.68,1.21,1.26,5.05,5.83,12.48,9.52,20.77,9.52,15.17,0,27.51-12.37,27.51-27.57S47.2,4.41,32.03,4.41ZM53.1,21.52c-2.12-.76-4.71-1.23-7.83-1.43l-6.46-6.9c.08-.93.06-2.4,0-3.78,6.26,1.89,11.42,6.33,14.29,12.11ZM37.39,49.46s-.08.01-.12.01c-2.7.22-10.15-1.14-13.58-2.52l-3.14-8.69,9.44-9.47,8.8,1.37c2.61,3.74,4.98,9.23,5.06,12.69l-6.47,6.61ZM10.96,21.53l4.83-5.26c3.96.15,8.25.6,11.56,2.56l.65,8.42-9.62,9.64c-1.7-.49-4.16-1.19-5.74-1.57-1.56-3.8-2.48-7.81-2.65-11.55.29-.77.61-1.52.97-2.24ZM36.28,8.8c.07,1.47.1,2.98.06,3.87l-8.42,3.64c-3.29-1.73-7.15-2.27-10.82-2.47v-.05c4.07-3.36,9.27-5.38,14.94-5.38,1.45,0,2.87.14,4.25.39ZM8.55,30.9c.51,2.03,1.19,4.06,2.04,6.02.03.08.08.16.11.23l-.67,3.13c-.97-2.58-1.51-5.38-1.51-8.3,0-.36.01-.72.03-1.08ZM18.32,51.11l3.9-2.07c3.53,1.57,10.71,2.91,14.27,2.96l2.26,2.58c-2.13.64-4.38.98-6.71.98-5.12,0-9.85-1.65-13.72-4.44ZM52.7,43.21v-.1s-6.37-.87-6.37-.87c-.28-3.92-2.56-8.96-4.86-12.56l3.8-7.08c4.1.29,7.11,1.04,9.19,2.32.7,2.23,1.08,4.6,1.08,7.06,0,4.06-1.03,7.89-2.84,11.23Z"/>
</svg>