<?xml version="1.0" encoding="UTF-8"?>
<svg id="Expanded_Icons" data-name="Expanded Icons" xmlns="http://www.w3.org/2000/svg" viewBox="0 0 64 64">
  <defs>
    <style>
      .cls-1 {
        fill: #29b5e8;
        stroke-width: 0px;
      }
    </style>
  </defs>
  <path class="cls-1" d="M52.41,10.23H11.72c-3.94,0-7.15,3.21-7.15,7.15v21.8c0,3.94,3.21,7.15,7.15,7.15h18.46l-.08,3.83h-11.95c-1.1,0-2,.9-2,2s.9,2,2,2h27.82c1.1,0,2-.9,2-2s-.9-2-2-2h-11.87l.08-3.83h18.23c3.94,0,7.15-3.21,7.15-7.15v-21.8c0-3.94-3.21-7.15-7.15-7.15ZM11.72,14.23h40.69c1.74,0,3.15,1.41,3.15,3.15v18.92H8.56v-18.92c0-1.74,1.41-3.15,3.15-3.15ZM52.41,42.33H11.72c-1.74,0-3.15-1.41-3.15-3.15v-.38h47v.38c0,1.74-1.41,3.15-3.15,3.15Z"/>
</svg>