<?xml version="1.0" encoding="UTF-8"?>
<svg id="Expanded_Icons" data-name="Expanded Icons" xmlns="http://www.w3.org/2000/svg" viewBox="0 0 64 64">
  <defs>
    <style>
      .cls-1 {
        fill: #29b5e8;
        stroke-width: 0px;
      }
    </style>
  </defs>
  <path class="cls-1" d="M54.25,5.79c-.3-.77-1.04-1.28-1.87-1.28H11.83c-.79,0-1.5.47-1.82,1.19-.32.72-.19,1.57.34,2.16.01.01,1.32,1.5,1.32,3.44v40.86c0,4.05,3.29,7.34,7.34,7.34h26.19c4.05,0,7.34-3.29,7.34-7.34V11.29c0-2.12,1.16-3.27,1.19-3.3.61-.55.82-1.43.52-2.2ZM48.96,8.51c-.25.8-.41,1.73-.41,2.78v.12h-4.61c-.69,0-1.25.56-1.25,1.25s.56,1.25,1.25,1.25h4.61v3.5h-8.34c-.69,0-1.25.56-1.25,1.25s.56,1.25,1.25,1.25h8.34v3.5h-4.61c-.69,0-1.25.56-1.25,1.25s.56,1.25,1.25,1.25h4.61v3.5h-8.34c-.69,0-1.25.56-1.25,1.25s.56,1.25,1.25,1.25h8.34v3.5h-4.61c-.69,0-1.25.56-1.25,1.25s.56,1.25,1.25,1.25h4.61v2.73h-.22c-.82,1.35-2.29,2.25-3.98,2.25s-3.12-.92-3.95-2.25h-.28c-.82,1.34-2.26,2.25-3.95,2.25s-3.12-.92-3.95-2.25h-.28c-.82,1.34-2.26,2.25-3.95,2.25s-3.12-.92-3.95-2.25h-.28c-.82,1.34-2.26,2.25-3.95,2.25s-3.16-.91-3.98-2.25h-.18V11.29c0-1.03-.19-1.97-.46-2.78h33.74Z"/>
</svg>