<?xml version="1.0" encoding="UTF-8"?>
<svg id="Expanded_Icons" data-name="Expanded Icons" xmlns="http://www.w3.org/2000/svg" viewBox="0 0 64 64">
  <defs>
    <style>
      .cls-1 {
        fill: #29b5e8;
        stroke-width: 0px;
      }
    </style>
  </defs>
  <path class="cls-1" d="M50.7,53.32H12.58c-.69,0-1.25.56-1.25,1.25s.56,1.25,1.25,1.25h38.13c.69,0,1.25-.56,1.25-1.25s-.56-1.25-1.25-1.25Z"/>
  <path class="cls-1" d="M54.84,22.16c-2.42,0-4.39,1.97-4.39,4.39,0,.58.12,1.12.32,1.63l-5.72,2.97,1.97-13.15c2.35-.09,4.23-2.01,4.23-4.37s-1.97-4.39-4.39-4.39-4.39,1.97-4.39,4.39c0,1.01.35,1.92.92,2.66l-6.31,7.68-3.05-10.18c1.39-.74,2.36-2.18,2.36-3.87,0-2.42-1.97-4.39-4.39-4.39s-4.39,1.97-4.39,4.39c0,1.68.96,3.13,2.36,3.87l-3.05,10.18-6.32-7.69c.56-.74.91-1.65.91-2.65,0-2.42-1.97-4.39-4.39-4.39s-4.39,1.97-4.39,4.39,1.9,4.3,4.25,4.38l1.97,13.15-5.74-2.98c.2-.5.32-1.05.32-1.62,0-2.42-1.97-4.39-4.39-4.39s-4.39,1.97-4.39,4.39,1.97,4.39,4.39,4.39c.31,0,.61-.03.9-.09l3.87,15.49h-1.31c-1.1,0-2,.9-2,2s.9,2,2,2h38.13c1.1,0,2-.9,2-2s-.9-2-2-2h-.61l3.87-15.48c.29.06.58.09.88.09,2.42,0,4.39-1.97,4.39-4.39s-1.97-4.39-4.39-4.39ZM46.85,11.73c1.04,0,1.89.85,1.89,1.89s-.85,1.89-1.89,1.89-1.89-.85-1.89-1.89.85-1.89,1.89-1.89ZM31.99,8.02c1.04,0,1.89.85,1.89,1.89s-.85,1.89-1.89,1.89-1.89-.85-1.89-1.89.85-1.89,1.89-1.89ZM15.21,13.62c0-1.04.85-1.89,1.89-1.89s1.89.85,1.89,1.89-.85,1.89-1.89,1.89-1.89-.85-1.89-1.89ZM7.23,26.55c0-1.04.85-1.89,1.89-1.89s1.89.85,1.89,1.89-.85,1.89-1.89,1.89-1.89-.85-1.89-1.89ZM18.01,46.33l-3.2-12.81,5.75,2.99c.29.15.61.22.92.22.41,0,.82-.13,1.16-.37.61-.44.93-1.18.82-1.92l-1.53-10.21,4.26,5.18c.47.57,1.21.83,1.94.69.72-.15,1.31-.68,1.52-1.39l2.33-7.77,2.33,7.77c.21.71.8,1.24,1.52,1.39.73.15,1.47-.12,1.94-.69l4.26-5.18-1.53,10.21c-.11.74.2,1.49.82,1.92.35.25.75.37,1.16.37.32,0,.63-.07.92-.22l5.75-2.99-3.2,12.81h-27.95ZM54.84,28.44c-1.04,0-1.89-.85-1.89-1.89s.85-1.89,1.89-1.89,1.89.85,1.89,1.89-.85,1.89-1.89,1.89Z"/>
</svg>