<?xml version="1.0" encoding="UTF-8"?>
<svg id="Expanded_Icons" data-name="Expanded Icons" xmlns="http://www.w3.org/2000/svg" viewBox="0 0 64 64">
  <defs>
    <style>
      .cls-1 {
        fill: #29b5e8;
        fill-rule: evenodd;
      }

      .cls-1, .cls-2, .cls-3 {
        stroke-width: 0px;
      }

      .cls-2 {
        fill: #11567f;
      }

      .cls-3 {
        fill: #fff;
      }
    </style>
  </defs>
  <rect class="cls-2" x="10.22" y="43.03" width="43.56" height="16.97" rx="3.96" ry="3.96"/>
  <path class="cls-3" d="M20.84,53.78v-4.53h.96v1.87h1.94v-1.87h.95v4.53h-.95v-1.87h-1.94v1.87h-.96Z"/>
  <path class="cls-3" d="M25.34,49.25h1.07l1.03,1.95h.04l1.03-1.95h1.07l-1.65,2.93v1.6h-.95v-1.6l-1.65-2.93Z"/>
  <path class="cls-3" d="M30.24,53.78v-4.53h1.81c.33,0,.61.05.83.15.22.1.39.24.5.41.11.17.17.37.17.6,0,.18-.04.33-.11.47-.07.13-.17.24-.29.33-.12.08-.26.14-.42.18v.04c.17,0,.33.06.48.15.15.09.27.22.37.38.09.16.14.35.14.57,0,.24-.06.45-.18.64-.12.19-.29.34-.52.44-.23.11-.52.16-.86.16h-1.93ZM31.2,53h.78c.27,0,.46-.05.58-.15.12-.1.18-.24.18-.41,0-.13-.03-.24-.09-.33-.06-.1-.15-.17-.26-.23-.11-.05-.24-.08-.4-.08h-.8v1.2ZM31.2,51.15h.71c.13,0,.25-.02.35-.07.1-.05.18-.11.24-.2.06-.09.09-.19.09-.31,0-.16-.06-.3-.17-.4-.11-.1-.28-.15-.49-.15h-.73v1.12Z"/>
  <path class="cls-3" d="M34.48,53.78v-4.53h1.79c.34,0,.63.06.87.18.24.12.43.29.55.51.13.22.19.48.19.78s-.06.56-.19.78c-.13.22-.32.38-.56.49-.24.11-.54.17-.89.17h-1.2v-.77h1.04c.18,0,.33-.03.46-.08.12-.05.21-.13.27-.23.06-.1.09-.22.09-.37s-.03-.28-.09-.38c-.06-.1-.15-.18-.27-.23-.12-.05-.27-.08-.46-.08h-.65v3.74h-.96ZM36.92,51.72l1.12,2.06h-1.06l-1.1-2.06h1.03Z"/>
  <path class="cls-3" d="M39.64,49.25v4.53h-.96v-4.53h.96Z"/>
  <path class="cls-3" d="M42.16,53.78h-1.6v-4.53h1.62c.46,0,.85.09,1.18.27.33.18.58.44.76.78.18.34.27.74.27,1.21s-.09.88-.27,1.22c-.18.34-.43.6-.76.78-.33.18-.72.27-1.18.27ZM41.51,52.96h.61c.28,0,.52-.05.71-.15.19-.1.34-.26.44-.47.1-.21.15-.49.15-.83s-.05-.61-.15-.82c-.1-.21-.24-.37-.44-.47-.19-.1-.43-.15-.71-.15h-.61v2.89Z"/>
  <path class="cls-1" d="M19.27,4c-4.06,0-7.35,3.29-7.35,7.35v19.8c0,4.06,3.29,7.35,7.35,7.35h26.43c4.06,0,7.35-3.29,7.35-7.35V11.35c0-4.06-3.29-7.35-7.35-7.35h-26.43ZM15.31,11.35c0-2.19,1.77-3.96,3.96-3.96h26.43c2.19,0,3.96,1.77,3.96,3.96v1.83H15.31v-1.83ZM15.31,16.57v14.58c0,2.19,1.77,3.96,3.96,3.96h26.43c2.19,0,3.96-1.77,3.96-3.96v-14.58H15.31Z"/>
</svg>