<?xml version="1.0" encoding="UTF-8"?>
<svg id="Expanded_Icons" data-name="Expanded Icons" xmlns="http://www.w3.org/2000/svg" viewBox="0 0 64 64">
  <defs>
    <style>
      .cls-1 {
        fill: #29b5e8;
        fill-rule: evenodd;
        stroke-width: 0px;
      }
    </style>
  </defs>
  <path class="cls-1" d="M58,32c0-.09,0-.18,0-.27-.02-3.91-.59-7.89-1.77-10.97-1.14-3-3.19-5.91-6.53-5.91H14.3c-3.34,0-5.39,2.91-6.53,5.91-1.2,3.15-1.77,7.24-1.77,11.24,0,4,.57,8.09,1.77,11.24,1.14,3,3.19,5.91,6.53,5.91h35.38s.02,0,.02,0c.02,0,.04,0,.05,0,3.31-.03,5.34-2.92,6.48-5.91,1.17-3.08,1.74-7.06,1.77-10.97,0-.09,0-.18,0-.27ZM49.69,45.83c-.35,0-.83-.17-1.41-.74-.59-.58-1.2-1.51-1.75-2.79-1.09-2.55-1.81-6.19-1.81-10.3s.72-7.75,1.81-10.3c.55-1.28,1.16-2.21,1.75-2.79.59-.58,1.06-.74,1.42-.74s.83.16,1.42.74c.59.58,1.2,1.51,1.75,2.79,1.07,2.5,1.78,6.05,1.81,10.05,0,.08,0,.16,0,.24s0,.16,0,.25c-.03,4.01-.74,7.55-1.81,10.05-.55,1.28-1.16,2.21-1.75,2.79-.57.57-1.05.73-1.4.74,0,0-.01,0-.02,0h-.01ZM44.65,18.17c-.44.67-.83,1.42-1.17,2.22-1.31,3.05-2.08,7.16-2.08,11.61s.77,8.55,2.08,11.61c.34.8.73,1.55,1.17,2.22H14.3c-1.08,0-2.36-.96-3.43-3.77-1.01-2.66-1.55-6.31-1.55-10.06,0-3.75.54-7.4,1.55-10.06,1.07-2.81,2.35-3.77,3.43-3.77h30.35Z"/>
</svg>