<?xml version="1.0" encoding="UTF-8"?>
<svg id="Expanded_Icons" data-name="Expanded Icons" xmlns="http://www.w3.org/2000/svg" viewBox="0 0 64 64">
  <defs>
    <style>
      .cls-1 {
        fill: #29b5e8;
        stroke-width: 0px;
      }
    </style>
  </defs>
  <path class="cls-1" d="M48.29,41.08c-2.28,0-4.2,1.4-4.9,3.5h-3.15l.18-15.94h0c0-1.23-1.05-2.1-2.28-2.1h-11.91c-1.23,0-2.1,1.05-2.1,2.1h0l-.18,15.94h-3.33c-1.05-2.63-4.03-4.03-6.83-2.98-2.63,1.05-4.03,4.03-2.98,6.83,1.05,2.8,4.03,4.03,6.83,2.98,1.4-.53,2.45-1.58,2.98-2.98h5.25c.88,0,1.75-.88,1.75-1.75l.18-15.76h2.45v18.92c-2.63,1.05-4.03,4.03-2.98,6.83,1.05,2.63,4.03,4.03,6.83,2.98,2.63-1.05,4.03-4.03,2.98-6.83-.53-1.4-1.58-2.45-2.98-2.98v-18.92h2.28v15.59c0,.53.18,1.05.53,1.4s.88.53,1.4.53h5.08c1.23,2.63,4.2,3.85,6.83,2.63,2.63-1.23,3.85-4.2,2.63-6.83-.7-1.93-2.63-3.15-4.55-3.15ZM15.71,48.09c-.88,0-1.4-.7-1.4-1.4s.7-1.58,1.58-1.58,1.4.7,1.4,1.4-.7,1.58-1.58,1.58h0ZM32.18,56.15c-.88,0-1.4-.7-1.4-1.4s.7-1.4,1.4-1.4,1.4.7,1.4,1.4c.18.7-.53,1.4-1.4,1.4ZM48.29,47.74c-.88,0-1.4-.7-1.4-1.4s.7-1.4,1.4-1.4,1.4.7,1.4,1.4-.7,1.4-1.4,1.4h0ZM53.02,21.29c-.18-3.85-1.58-7.36-4.03-10.33-2.45-3.15-5.96-5.61-9.98-6.48-4.55-1.05-9.46-.35-13.49,2.1-3.68,2.1-6.66,5.43-8.23,9.28-2.28.18-4.38.88-6.31,2.28-2.28,1.58-4.03,4.03-4.73,6.66-.7,2.8-.35,5.78,1.05,8.41,1.4,2.63,3.85,4.55,6.66,5.61h.18c.35.18.7.18.88.18h3.68c1.23,0,2.1-1.05,2.1-2.1s-.53-2.28-1.75-2.28h-3.68c-3.5-1.23-5.61-5.08-4.73-8.76,1.05-3.5,4.38-5.96,8.23-5.61,1.05,0,1.93-.53,2.28-1.58,1.05-3.5,3.5-6.66,6.83-8.41,5.96-3.5,13.66-2.1,17.87,3.33,1.93,2.63,3.15,5.78,3.15,9.11,0,.88.53,1.58,1.23,1.93,2.1.88,3.68,2.98,3.68,5.25-.35,2.28-1.93,4.03-4.03,4.9h-4.73c-1.23,0-2.1,1.05-2.1,2.1s1.05,2.1,2.1,2.1h4.9c.35,0,.7-.18,1.05-.35h.18c3.85-1.23,6.48-4.73,6.83-8.58,0-3.5-1.93-7.01-5.08-8.76Z"/>
</svg>