<?xml version="1.0" encoding="UTF-8"?>
<svg id="Expanded_Icons" data-name="Expanded Icons" xmlns="http://www.w3.org/2000/svg" viewBox="0 0 64 64">
  <defs>
    <style>
      .cls-1 {
        fill-rule: evenodd;
      }

      .cls-1, .cls-2 {
        fill: #29b5e8;
        stroke-width: 0px;
      }
    </style>
  </defs>
  <path class="cls-2" d="M15.79,16.03c-.34,0-.61.27-.61.61v2.45c0,.34.27.61.61.61h20.85c.34,0,.61-.27.61-.61v-2.45c0-.34-.27-.61-.61-.61H15.79Z"/>
  <path class="cls-2" d="M15.18,25.65c0-.34.27-.61.61-.61h20.85c.34,0,.61.27.61.61v2.45c0,.34-.27.61-.61.61H15.79c-.34,0-.61-.27-.61-.61v-2.45Z"/>
  <path class="cls-2" d="M15.79,33.79c-.34,0-.61.27-.61.61v2.45c0,.34.27.61.61.61h11.54c.34,0,.61-.27.61-.61v-2.45c0-.34-.27-.61-.61-.61h-11.54Z"/>
  <path class="cls-1" d="M6.01,15.92v28.51c.02,5.46,4.01,9.89,8.92,9.88l22.64-.02c.35,0,.69-.02,1.02-.06,1.04,1.02,2.07,1.82,2.99,2.41.63.41,1.23.73,1.75.95.46.2,1.07.41,1.67.41s1.21-.22,1.67-.41c.53-.23,1.12-.55,1.75-.95,1.26-.81,2.74-2.02,4.15-3.65,2.84-3.28,5.43-8.27,5.43-15.14,0-1.03-.83-1.86-1.86-1.86-1.39,0-3.37-.9-5.43-2.27-1.84-1.23-3.44-2.63-4.24-3.39v-14.44c0-5.46-4-9.89-8.92-9.88l-22.64.02c-4.92,0-8.9,4.43-8.9,9.9ZM39.29,33.71c1.36-.91,2.59-1.91,3.46-2.68v-15.15c0-3.79-2.69-6.17-5.2-6.17l-22.64.02c-2.51,0-5.19,2.39-5.19,6.18v28.51c.02,3.79,2.7,6.17,5.21,6.17l20.69-.02c-2.04-3.15-3.62-7.37-3.62-12.73,0-.49.2-.96.54-1.31.35-.35.82-.54,1.31-.54,1.39,0,3.37-.9,5.43-2.27ZM40.23,50.55c-2.11-2.44-4.1-6.07-4.46-11.09,1.99-.48,3.98-1.59,5.58-2.66,1.4-.94,2.68-1.96,3.64-2.8.97.84,2.24,1.86,3.64,2.8,1.6,1.07,3.59,2.18,5.58,2.66-.36,5.02-2.35,8.66-4.46,11.09-1.17,1.35-2.38,2.33-3.36,2.96-.49.32-.9.53-1.2.66-.06.03-.11.05-.15.06-.02,0-.04.01-.05.02-.05-.02-.12-.04-.2-.08-.3-.13-.71-.34-1.2-.66-.98-.63-2.18-1.61-3.36-2.96Z"/>
</svg>