<?xml version="1.0" encoding="UTF-8"?>
<svg id="Expanded_Icons" data-name="Expanded Icons" xmlns="http://www.w3.org/2000/svg" viewBox="0 0 64 64">
  <defs>
    <style>
      .cls-1 {
        fill: #29b5e8;
        stroke-width: 0px;
      }
    </style>
  </defs>
  <path class="cls-1" d="M43.26,17.27h-22.93c-1.8,0-3.26,1.46-3.26,3.26v23.01c0,1.8,1.46,3.26,3.26,3.26h22.93c1.8,0,3.26-1.46,3.26-3.26v-23.01c0-1.8-1.46-3.26-3.26-3.26ZM43.64,43.54c0,.2-.17.37-.37.37h-22.93c-.2,0-.37-.17-.37-.37v-23.01c0-.2.17-.37.37-.37h22.93c.2,0,.37.17.37.37v23.01Z"/>
  <path class="cls-1" d="M57.53,30.04c1.1,0,2-.9,2-2s-.9-2-2-2h-4.67v-4.2h4.67c1.1,0,2-.9,2-2s-.9-2-2-2h-4.68c-.07-3.6-2.89-6.54-6.45-6.79v-4.63c0-1.1-.9-2-2-2s-2,.9-2,2v4.61h-4.2v-4.61c0-1.1-.9-2-2-2s-2,.9-2,2v4.61h-4.2v-4.61c0-1.1-.9-2-2-2s-2,.9-2,2v4.61h-4.2v-4.61c0-1.1-.9-2-2-2s-2,.9-2,2v4.61h-.12c-3.79,0-6.87,3.05-6.95,6.82h-4.35c-1.1,0-2,.9-2,2s.9,2,2,2h4.34v4.2h-4.34c-1.1,0-2,.9-2,2s.9,2,2,2h4.34v4.2h-4.34c-1.1,0-2,.9-2,2s.9,2,2,2h4.34v4.2h-4.34c-1.1,0-2,.9-2,2s.9,2,2,2h4.36c.18,3.68,3.22,6.62,6.94,6.62h.12v4.51c0,1.1.9,2,2,2s2-.9,2-2v-4.51h4.2v4.51c0,1.1.9,2,2,2s2-.9,2-2v-4.51h4.2v4.51c0,1.1.9,2,2,2s2-.9,2-2v-4.51h4.2v4.51c0,1.1.9,2,2,2s2-.9,2-2v-4.54c3.49-.25,6.27-3.08,6.44-6.59h4.69c1.1,0,2-.9,2-2s-.9-2-2-2h-4.67v-4.2h4.67c1.1,0,2-.9,2-2s-.9-2-2-2h-4.67v-4.2h4.67ZM48.86,46.12c0,1.63-1.33,2.95-2.95,2.95h-28.24c-1.63,0-2.95-1.33-2.95-2.95v-28.14c0-1.63,1.33-2.95,2.95-2.95h28.24c1.63,0,2.95,1.33,2.95,2.95v28.14Z"/>
</svg>