<?xml version="1.0" encoding="UTF-8"?>
<svg id="Expanded_Icons" data-name="Expanded Icons" xmlns="http://www.w3.org/2000/svg" viewBox="0 0 64 64">
  <defs>
    <style>
      .cls-1 {
        fill: #29b5e8;
        fill-rule: evenodd;
        stroke-width: 0px;
      }
    </style>
  </defs>
  <path class="cls-1" d="M23.96,21.75c3.47-.89,6.03-4.02,6.03-7.75,0-4.42-3.6-8-8.04-8s-8.04,3.58-8.04,8c0,3.73,2.56,6.86,6.03,7.75v20.5c-3.47.89-6.03,4.02-6.03,7.75,0,4.42,3.6,8,8.04,8s8.04-3.58,8.04-8c0-3.7-2.53-6.81-5.96-7.73.27-2.88,1.24-4.14,2.21-4.82,1.37-.96,3.31-1.2,5.96-1.46l.23-.02c2.34-.23,5.32-.53,7.64-2.14,2.29-1.59,3.63-4.19,3.93-8.06,3.5-.87,6.1-4.01,6.1-7.76,0-4.42-3.6-8-8.04-8s-8.04,3.58-8.04,8c0,3.7,2.53,6.81,5.96,7.73-.27,2.88-1.24,4.14-2.21,4.82-1.37.96-3.31,1.2-5.96,1.46l-.23.02c-2.33.23-5.3.52-7.62,2.13v-12.41ZM21.94,10c-2.22,0-4.02,1.79-4.02,4s1.8,4,4.02,4,4.02-1.79,4.02-4-1.8-4-4.02-4ZM42.06,14c-2.22,0-4.02,1.79-4.02,4s1.8,4,4.02,4,4.02-1.79,4.02-4-1.8-4-4.02-4ZM17.92,50c0-2.21,1.8-4,4.02-4s4.02,1.79,4.02,4-1.8,4-4.02,4-4.02-1.79-4.02-4Z"/>
</svg>