<?xml version="1.0" encoding="UTF-8"?>
<svg id="Expanded_Icons" data-name="Expanded Icons" xmlns="http://www.w3.org/2000/svg" viewBox="0 0 64 64">
  <defs>
    <style>
      .cls-1 {
        fill: #29b5e8;
        stroke-width: 0px;
      }
    </style>
  </defs>
  <path class="cls-1" d="M53.09,11.13H10.91c-3.55,0-6.44,2.89-6.44,6.44v28.87c0,3.55,2.89,6.44,6.44,6.44h42.19c3.55,0,6.44-2.89,6.44-6.44v-28.87c0-3.55-2.89-6.44-6.44-6.44ZM55.54,46.44c0,1.35-1.09,2.44-2.44,2.44H10.91c-1.35,0-2.44-1.09-2.44-2.44v-28.87c0-1.35,1.09-2.44,2.44-2.44h42.19c1.35,0,2.44,1.09,2.44,2.44v28.87Z"/>
  <path class="cls-1" d="M49.96,20.54l-13.75,15.05c-1.12,1.22-2.61,1.89-4.19,1.89s-3.07-.67-4.19-1.89l-13.78-15.07c-.47-.51-1.26-.54-1.77-.08-.51.47-.54,1.26-.08,1.77l10.21,11.17-9.32,8.33c-.51.46-.56,1.25-.1,1.76.25.28.59.42.93.42.3,0,.59-.11.83-.32l9.34-8.35,1.88,2.06c1.6,1.74,3.74,2.7,6.03,2.7s4.43-.96,6.03-2.7l1.79-1.96,9.23,8.25c.24.21.54.32.83.32.34,0,.68-.14.93-.42.46-.51.42-1.3-.1-1.76l-9.21-8.24,10.28-11.25c.47-.51.43-1.3-.08-1.77-.51-.46-1.3-.43-1.77.08Z"/>
</svg>