<?xml version="1.0" encoding="UTF-8"?>
<svg id="Expanded_Icons" data-name="Expanded Icons" xmlns="http://www.w3.org/2000/svg" viewBox="0 0 64 64">
  <defs>
    <style>
      .cls-1 {
        fill: #29b5e8;
      }

      .cls-1, .cls-2, .cls-3 {
        stroke-width: 0px;
      }

      .cls-2 {
        fill: #11567f;
      }

      .cls-3 {
        fill: #fff;
      }
    </style>
  </defs>
  <path class="cls-1" d="M24.84,9.74c.33-3.26,3.06-5.74,6.33-5.74h.33c3.19,0,5.79,2.48,6.02,5.6.02.32-.25.58-.57.57l-1.9-.04c-.32,0-.57-.28-.63-.59-.24-1.4-1.46-2.46-2.93-2.46h-.33c-1.69,0-3.11,1.29-3.28,2.97l-.56,5.61c-.03.34.24.64.58.64h5.36c2.17,0,4.25.93,5.7,2.55l3.22,3.59c.22.25.61.26.85.02l5.28-5.29c.23-.23.6-.23.83,0l1.35,1.35c.23.23.23.6,0,.82l-5.44,5.45c-.22.22-.23.57-.02.8l5.53,6.16c.21.24.2.61-.04.82l-1.41,1.28c-.24.22-.61.2-.82-.04l-5.38-5.99c-.22-.25-.61-.26-.85-.02l-6.08,6.09c-.23.23-.6.23-.83,0l-1.35-1.35c-.23-.23-.23-.6,0-.82l6.24-6.26c.22-.22.23-.57.02-.8l-3.37-3.76c-.87-.97-2.12-1.53-3.42-1.53h-5.78c-.3,0-.55.23-.58.53l-1.22,12.21c-.32,3.25-3.05,5.72-6.31,5.72h-.2c-3.19,0-5.82-2.44-6.11-5.57-.03-.32.23-.58.56-.58h1.9c.32,0,.58.26.64.58.27,1.42,1.52,2.5,3.01,2.5h.2c1.68,0,3.09-1.28,3.26-2.95l1.18-11.78c.03-.34-.24-.64-.58-.64h-3.52c-.32,0-.58-.26-.58-.58v-1.91c0-.32.26-.58.58-.58h3.94c.3,0,.55-.23.58-.53l.6-6.03Z"/>
  <rect class="cls-2" x="8.96" y="42.5" width="46.08" height="17.5" rx="4.08" ry="4.08"/>
  <path class="cls-3" d="M21.6,50.56c-.02-.17-.09-.3-.21-.39-.13-.09-.3-.14-.51-.14-.15,0-.27.02-.37.06-.1.04-.18.1-.23.17-.05.07-.08.15-.08.24,0,.08.01.14.05.2.04.06.08.11.15.15.06.04.13.08.22.11.08.03.17.05.26.07l.38.09c.19.04.35.1.51.17.15.07.29.15.4.25.11.1.2.22.26.36.06.14.1.29.1.47,0,.26-.07.48-.2.68-.13.19-.32.34-.56.44-.24.1-.54.16-.88.16s-.64-.05-.89-.16c-.25-.1-.45-.26-.59-.47-.14-.21-.21-.46-.22-.77h.87c0,.14.05.26.12.36.07.09.17.17.29.21.12.05.26.07.42.07s.28-.02.4-.07c.11-.04.2-.11.26-.18.06-.08.09-.17.09-.27,0-.1-.03-.18-.08-.24-.06-.06-.14-.12-.24-.17-.11-.05-.24-.09-.39-.12l-.46-.12c-.36-.09-.64-.22-.85-.41-.21-.19-.31-.43-.31-.75,0-.26.07-.48.21-.67.14-.19.33-.34.57-.45.24-.11.52-.16.83-.16s.59.05.82.16c.24.11.42.26.55.45.13.19.2.41.2.67h-.86Z"/>
  <path class="cls-3" d="M23.05,49.34h1l.97,1.83h.04l.97-1.83h1l-1.55,2.74v1.5h-.89v-1.5l-1.55-2.74Z"/>
  <path class="cls-3" d="M30,50.56c-.02-.17-.09-.3-.21-.39s-.3-.14-.51-.14c-.15,0-.27.02-.37.06-.1.04-.18.1-.23.17-.05.07-.08.15-.08.24,0,.08.01.14.05.2.04.06.08.11.15.15.06.04.13.08.22.11.08.03.17.05.26.07l.38.09c.19.04.35.1.51.17.15.07.29.15.4.25.11.1.2.22.26.36.06.14.1.29.1.47,0,.26-.07.48-.2.68-.13.19-.32.34-.56.44-.24.1-.54.16-.88.16s-.64-.05-.89-.16c-.25-.1-.45-.26-.59-.47-.14-.21-.21-.46-.22-.77h.87c0,.14.05.26.12.36.07.09.17.17.29.21.12.05.26.07.42.07s.28-.02.4-.07c.11-.04.2-.11.26-.18.06-.08.09-.17.09-.27,0-.1-.03-.18-.08-.24-.06-.06-.14-.12-.24-.17-.11-.05-.24-.09-.39-.12l-.46-.12c-.36-.09-.64-.22-.85-.41-.21-.19-.31-.43-.31-.75,0-.26.07-.48.21-.67.14-.19.33-.34.57-.45.24-.11.52-.16.83-.16s.59.05.82.16c.24.11.42.26.55.45.13.19.2.41.2.67h-.86Z"/>
  <path class="cls-3" d="M31.54,50.08v-.74h3.48v.74h-1.3v3.5h-.89v-3.5h-1.3Z"/>
  <path class="cls-3" d="M35.77,53.58v-4.24h2.86v.74h-1.96v1.01h1.81v.74h-1.81v1.01h1.97v.74h-2.87Z"/>
  <path class="cls-3" d="M39.52,49.34h1.11l1.17,2.85h.05l1.17-2.85h1.11v4.24h-.87v-2.76h-.04l-1.1,2.74h-.59l-1.1-2.75h-.04v2.77h-.87v-4.24Z"/>
</svg>