<?xml version="1.0" encoding="UTF-8"?>
<svg id="Expanded_Icons" data-name="Expanded Icons" xmlns="http://www.w3.org/2000/svg" viewBox="0 0 64 64">
  <defs>
    <style>
      .cls-1 {
        fill: #29b5e8;
        stroke-width: 0px;
      }
    </style>
  </defs>
  <path class="cls-1" d="M37.11,36.09l-7.77-4.32c-.39-.22-.86-.21-1.24.02-.38.22-.62.63-.62,1.08v8.82c0,.45.24.86.63,1.08.19.11.41.17.62.17s.43-.06.63-.17l7.77-4.51c.39-.23.63-.64.62-1.09,0-.45-.25-.86-.64-1.08ZM29.99,39.52v-4.53l3.99,2.22-3.99,2.31Z"/>
  <path class="cls-1" d="M50.23,24.98H13.63c-.69,0-1.25.56-1.25,1.25v20.46c0,.69.56,1.25,1.25,1.25h36.6c.69,0,1.25-.56,1.25-1.25v-20.46c0-.69-.56-1.25-1.25-1.25ZM14.88,45.45v-15.63h34.1v15.63H14.88Z"/>
  <path class="cls-1" d="M12.35,17.34c.7,0,1.26-.57,1.26-1.26s-.56-1.26-1.26-1.26-1.26.57-1.26,1.26.57,1.26,1.26,1.26Z"/>
  <path class="cls-1" d="M17.41,17.34c.7,0,1.26-.57,1.26-1.26s-.56-1.26-1.26-1.26-1.26.57-1.26,1.26.57,1.26,1.26,1.26Z"/>
  <path class="cls-1" d="M22.46,17.34c.7,0,1.26-.57,1.26-1.26s-.56-1.26-1.26-1.26-1.26.57-1.26,1.26.57,1.26,1.26,1.26Z"/>
  <path class="cls-1" d="M57.4,9.05H6.56c-1.1,0-2,.9-2,2v41.9c0,1.1.9,2,2,2h50.84c1.1,0,2-.9,2-2V11.05c0-1.1-.9-2-2-2ZM55.4,13.05v6.14H8.56v-6.14h46.84ZM8.56,50.95v-29.26h46.84v29.26H8.56Z"/>
</svg>