<?xml version="1.0" encoding="UTF-8"?>
<svg id="Expanded_Icons" data-name="Expanded Icons" xmlns="http://www.w3.org/2000/svg" viewBox="0 0 64 64">
  <defs>
    <style>
      .cls-1 {
        fill: #29b5e8;
        stroke-width: 0px;
      }
    </style>
  </defs>
  <path class="cls-1" d="M52.55,41.35v-10c0-1.1-.9-2-2-2h-16.63v-6.76c3.92-.91,6.86-4.43,6.86-8.62,0-4.89-3.97-8.86-8.86-8.86s-8.86,3.97-8.86,8.86c0,4.2,2.94,7.71,6.86,8.62v6.76H13.29c-1.1,0-2,.9-2,2v10c-3.92.91-6.86,4.43-6.86,8.62,0,4.88,3.97,8.86,8.86,8.86s8.86-3.97,8.86-8.86c0-4.2-2.94-7.71-6.86-8.62v-8h33.26v8c-3.92.91-6.86,4.43-6.86,8.62,0,4.88,3.97,8.86,8.86,8.86s8.86-3.97,8.86-8.86c0-4.2-2.94-7.71-6.86-8.62ZM27.06,13.97c0-2.68,2.18-4.86,4.86-4.86s4.86,2.18,4.86,4.86-2.18,4.86-4.86,4.86-4.86-2.18-4.86-4.86ZM18.15,49.98c0,2.68-2.18,4.86-4.86,4.86s-4.86-2.18-4.86-4.86,2.18-4.86,4.86-4.86,4.86,2.18,4.86,4.86ZM50.55,54.83c-2.68,0-4.86-2.18-4.86-4.86s2.18-4.86,4.86-4.86,4.86,2.18,4.86,4.86-2.18,4.86-4.86,4.86Z"/>
</svg>