<?xml version="1.0" encoding="UTF-8"?>
<svg id="Expanded_Icons" data-name="Expanded Icons" xmlns="http://www.w3.org/2000/svg" viewBox="0 0 64 64">
  <defs>
    <style>
      .cls-1 {
        fill: #29b5e8;
        stroke-width: 0px;
      }
    </style>
  </defs>
  <path class="cls-1" d="M59.49,48.4c-2.21-2.49-2.21-6.55,0-9.05,0-.01.01-.02.02-.04.01-.02.03-.03.05-.05.02-.03.02-.06.04-.09.06-.09.1-.19.14-.29.02-.05.03-.09.04-.14.02-.1.02-.21.01-.32,0-.04,0-.08,0-.12-.02-.14-.07-.28-.14-.41,0,0,0,0,0,0,0-.02-.02-.03-.03-.04-.07-.12-.16-.21-.27-.3-.01-.01-.02-.03-.03-.04l-15.21-11.29c1.19-3.73.95-7.42-.06-9.93-.42-1.06-.98-1.93-1.65-2.63.74-.66,1.33-.99,1.33-.99.35-.19.59-.55.64-.95s-.1-.8-.4-1.07c-.11-.1-2.67-2.42-6.61-1.85-2.51.36-4.25,2.04-5.37,3.64-.63-1.76-1.71-3.87-3.51-5.43-.52-.45-1.31-.39-1.76.13-.45.52-.39,1.31.13,1.76,1.08.93,1.84,2.16,2.37,3.33-.64-.18-1.4-.29-2.31-.29-2.49,0-4.95,1.78-5.97,4.34-.9,2.26-1.18,5.45-.37,8.77l-11.25,2.67c-3.33.64-5.56,4.06-4.99,7.63.24,1.47.93,2.78,1.96,3.76l15.31,15.63s.01,0,.02.01c.35.41.75.78,1.2,1.1,1.05.73,2.24,1.11,3.45,1.11.36,0,.73-.03,1.09-.1l31.46-6.42c.44-.09.79-.41.94-.83.14-.42.05-.89-.25-1.22ZM37.71,11.28c1.3-.18,2.38.07,3.16.39-.06.06-.13.11-.2.17-.33.29-.67.63-1.03,1-.03.03-.06.07-.09.1-.59.59-1.25,1.26-1.9,1.82-1.17.98-2.6,1.52-3.66,1.37-.17-.02-.33-.07-.48-.14-.04-.01-.07-.03-.1-.05-.14-.07-.27-.15-.39-.26,0,0,0,0,0,0,.56-1.25,2.09-4.04,4.7-4.41ZM23.25,17.22c.73-1.82,2.39-2.77,3.65-2.77,2.32,0,2.92.84,3.46,1.7.04.19.12.36.23.5.01.02.02.05.04.08.7,1.06,1.74,1.71,3,1.89.23.03.47.05.71.05,0,0,.01,0,.02,0,.21,0,.42-.01.63-.04.08,0,.16-.03.24-.04.14-.02.29-.04.43-.07.1-.02.19-.05.29-.08.13-.03.26-.07.39-.11.1-.03.2-.07.3-.11.13-.05.26-.1.39-.15.1-.04.19-.09.29-.13.13-.06.27-.13.4-.21.09-.05.18-.1.27-.15.15-.09.29-.18.44-.28.07-.05.14-.09.21-.14.21-.15.42-.31.63-.49.44-.38.87-.79,1.29-1.2.02-.02.05-.05.08-.07.43.46.79,1.07,1.09,1.81,1.16,2.89,1.06,7.7-1.78,11.93-1.46,2.18-2.86,3.34-4.05,3.34-1.07,0-1.85-1.02-1.91-1.11-.33-.5-.89-.8-1.5-.8s-1.13.28-1.48.76c-.01.02-.02.03-.03.05-.07.09-.82,1.1-1.91,1.1-.53,0-1.12-.24-1.74-.72-.73-.56-1.5-1.44-2.29-2.61-2.84-4.22-2.94-9.04-1.79-11.93ZM33.05,32.79s-.03.05-.05.07c.02-.02.03-.05.05-.07h0ZM31.96,32.84s-.05-.06-.08-.1h0s.04.06.07.1ZM22.96,30.55c.94,1.4,1.9,2.48,2.85,3.21,1.07.82,2.17,1.24,3.26,1.24,1.56,0,2.73-.84,3.41-1.54.69.69,1.87,1.54,3.42,1.54,2.08,0,4.13-1.49,6.11-4.44.42-.63.79-1.27,1.12-1.92l12.41,9.21-29.85,5.83-13.71-14,9.35-2.22c.42,1.05.96,2.09,1.64,3.09ZM6.78,34.97c-.32-2,.71-3.91,2.39-4.58l13.89,14.18c-1.69,1.04-2.85,2.9-3.07,4.99l-11.96-12.21c-.67-.63-1.1-1.46-1.25-2.38ZM26.86,54.42c-.89.17-1.82-.04-2.62-.6-.92-.64-1.55-1.66-1.73-2.79-.36-2.25.98-4.39,2.99-4.77l30.53-5.96c-1.03,2.59-.89,5.63.43,8.09l-29.59,6.04Z"/>
</svg>