<?xml version="1.0" encoding="UTF-8"?>
<svg id="Expanded_Icons" data-name="Expanded Icons" xmlns="http://www.w3.org/2000/svg" viewBox="0 0 64 64">
  <defs>
    <style>
      .cls-1 {
        fill-rule: evenodd;
      }

      .cls-1, .cls-2 {
        fill: #29b5e8;
      }

      .cls-1, .cls-2, .cls-3, .cls-4 {
        stroke-width: 0px;
      }

      .cls-3 {
        fill: #11567f;
      }

      .cls-4 {
        fill: #fff;
      }
    </style>
  </defs>
  <path class="cls-2" d="M32.24,22.23c1.89,0,3.42-1.53,3.42-3.42s-1.53-3.42-3.42-3.42-3.42,1.53-3.42,3.42,1.53,3.42,3.42,3.42Z"/>
  <path class="cls-2" d="M38.99,29.69c.27.9-.51,1.68-1.45,1.68h-10.66c-.94,0-1.72-.78-1.45-1.68.62-2.09,2.42-5.12,6.76-5.12s6.19,3.03,6.81,5.12Z"/>
  <path class="cls-1" d="M30.52,4v4.02h-6.29c-3.44,0-6.24,2.79-6.24,6.24v18.23c0,3.44,2.79,6.24,6.24,6.24h15.95c3.44,0,6.24-2.79,6.24-6.24V14.25c0-3.44-2.79-6.24-6.24-6.24h-6.3v-4.02h-3.36ZM21.36,14.25c0-1.59,1.29-2.88,2.88-2.88h15.95c1.59,0,2.88,1.29,2.88,2.88v18.23c0,1.59-1.29,2.88-2.88,2.88h-15.95c-1.59,0-2.88-1.29-2.88-2.88V14.25Z"/>
  <rect class="cls-3" x="4" y="43.2" width="56" height="16.8" rx="3.92" ry="3.92"/>
  <path class="cls-4" d="M7.91,53.84h-.92l1.41-4.07h1.11l1.4,4.07h-.92l-1.02-3.14h-.03l-1.02,3.14ZM7.85,52.24h2.18v.67h-2.18v-.67Z"/>
  <path class="cls-4" d="M14.97,51.19h-.87c-.02-.11-.05-.21-.1-.3-.05-.09-.11-.16-.19-.23-.08-.06-.17-.11-.27-.14-.1-.03-.21-.05-.32-.05-.21,0-.39.05-.55.16-.16.1-.28.25-.36.45-.09.2-.13.44-.13.72s.04.53.13.73c.09.2.21.35.37.45.16.1.34.15.54.15.12,0,.22-.02.32-.05.1-.03.19-.07.26-.13.08-.06.14-.13.19-.22.05-.08.09-.18.11-.29h.87c-.02.19-.08.37-.17.54-.09.17-.21.33-.36.46-.15.14-.33.24-.54.32-.21.08-.44.12-.7.12-.36,0-.69-.08-.97-.25-.28-.16-.51-.4-.68-.71-.16-.31-.25-.69-.25-1.13s.08-.82.25-1.13c.17-.31.39-.55.68-.71.29-.16.61-.25.97-.25.24,0,.45.03.66.1.2.07.38.16.54.29.16.13.28.28.38.46.1.18.16.39.19.63Z"/>
  <path class="cls-4" d="M19.35,51.19h-.87c-.02-.11-.05-.21-.1-.3-.05-.09-.11-.16-.19-.23-.08-.06-.17-.11-.27-.14-.1-.03-.21-.05-.32-.05-.21,0-.39.05-.55.16-.16.1-.28.25-.36.45-.09.2-.13.44-.13.72s.04.53.13.73c.09.2.21.35.37.45.16.1.34.15.54.15.12,0,.22-.02.32-.05.1-.03.19-.07.26-.13.08-.06.14-.13.19-.22.05-.08.09-.18.11-.29h.87c-.02.19-.08.37-.17.54-.09.17-.21.33-.36.46-.15.14-.33.24-.54.32-.21.08-.44.12-.7.12-.36,0-.69-.08-.97-.25-.29-.16-.51-.4-.68-.71-.16-.31-.25-.69-.25-1.13s.08-.82.25-1.13c.17-.31.39-.55.68-.71.29-.16.61-.25.97-.25.24,0,.45.03.66.1.2.07.38.16.54.29.16.13.28.28.38.46.1.18.16.39.19.63Z"/>
  <path class="cls-4" d="M23.88,51.8c0,.44-.08.82-.25,1.13-.17.31-.4.55-.68.71-.29.16-.61.24-.97.24s-.69-.08-.97-.25c-.29-.16-.52-.4-.68-.71-.17-.31-.25-.69-.25-1.13s.08-.82.25-1.13c.17-.31.39-.55.68-.71.29-.16.61-.25.97-.25s.68.08.97.25c.29.16.52.4.68.71.17.31.25.69.25,1.13ZM23,51.8c0-.29-.04-.53-.13-.73-.08-.2-.2-.35-.36-.45-.16-.1-.34-.15-.54-.15s-.39.05-.54.15c-.16.1-.28.25-.36.45-.08.2-.13.44-.13.73s.04.53.13.73c.09.2.21.35.36.45.16.1.34.15.54.15s.39-.05.54-.15c.16-.1.28-.25.36-.45.09-.2.13-.44.13-.73Z"/>
  <path class="cls-4" d="M27.2,49.77h.86v2.64c0,.3-.07.56-.21.78-.14.22-.34.4-.59.52-.25.12-.55.18-.88.18s-.63-.06-.89-.18c-.25-.12-.45-.3-.59-.52-.14-.22-.21-.48-.21-.78v-2.64h.86v2.57c0,.16.03.29.1.41.07.12.17.22.29.28s.27.1.44.1.31-.03.44-.1c.12-.07.22-.16.29-.28.07-.12.1-.26.1-.41v-2.57Z"/>
  <path class="cls-4" d="M32.34,49.77v4.07h-.74l-1.77-2.56h-.03v2.56h-.86v-4.07h.76l1.76,2.56h.04v-2.56h.86Z"/>
  <path class="cls-4" d="M33.07,50.48v-.71h3.34v.71h-1.25v3.36h-.85v-3.36h-1.25Z"/>
  <path class="cls-4" d="M37.33,53.84h-.92l1.41-4.07h1.11l1.4,4.07h-.92l-1.02-3.14h-.03l-1.02,3.14ZM37.28,52.24h2.18v.67h-2.18v-.67Z"/>
  <path class="cls-4" d="M42.43,53.84h-1.44v-4.07h1.46c.41,0,.76.08,1.06.24.3.16.52.39.68.7.16.3.24.67.24,1.09s-.08.79-.24,1.09c-.16.3-.39.54-.69.7-.3.16-.65.24-1.07.24ZM41.85,53.1h.55c.25,0,.47-.05.64-.14.17-.09.31-.23.39-.42.09-.19.13-.44.13-.74s-.04-.55-.13-.74c-.09-.19-.22-.33-.39-.42-.17-.09-.39-.14-.64-.14h-.55v2.6Z"/>
  <path class="cls-4" d="M45.23,49.77h1.06l1.12,2.74h.05l1.12-2.74h1.06v4.07h-.84v-2.65h-.03l-1.05,2.63h-.57l-1.05-2.64h-.03v2.66h-.84v-4.07Z"/>
  <path class="cls-4" d="M51.38,49.77v4.07h-.86v-4.07h.86Z"/>
  <path class="cls-4" d="M55.67,49.77v4.07h-.74l-1.77-2.56h-.03v2.56h-.86v-4.07h.76l1.76,2.56h.04v-2.56h.86Z"/>
</svg>