<?xml version="1.0" encoding="UTF-8"?>
<svg id="Expanded_Icons" data-name="Expanded Icons" xmlns="http://www.w3.org/2000/svg" viewBox="0 0 64 64">
  <defs>
    <style>
      .cls-1 {
        fill-rule: evenodd;
      }

      .cls-1, .cls-2 {
        fill: #29b5e8;
      }

      .cls-1, .cls-2, .cls-3, .cls-4 {
        stroke-width: 0px;
      }

      .cls-3 {
        fill: #11567f;
      }

      .cls-4 {
        fill: #fff;
      }
    </style>
  </defs>
  <path class="cls-2" d="M32.24,22.23c1.89,0,3.42-1.53,3.42-3.42s-1.53-3.42-3.42-3.42-3.42,1.53-3.42,3.42,1.53,3.42,3.42,3.42Z"/>
  <path class="cls-2" d="M38.99,29.69c.27.9-.51,1.68-1.45,1.68h-10.66c-.94,0-1.72-.78-1.45-1.68.62-2.09,2.42-5.12,6.76-5.12s6.19,3.03,6.81,5.12Z"/>
  <path class="cls-1" d="M30.52,4v4.02h-6.29c-3.44,0-6.24,2.79-6.24,6.24v18.23c0,3.44,2.79,6.24,6.24,6.24h15.95c3.44,0,6.24-2.79,6.24-6.24V14.25c0-3.44-2.79-6.24-6.24-6.24h-6.3v-4.02h-3.36ZM21.36,14.25c0-1.59,1.29-2.88,2.88-2.88h15.95c1.59,0,2.88,1.29,2.88,2.88v18.23c0,1.59-1.29,2.88-2.88,2.88h-15.95c-1.59,0-2.88-1.29-2.88-2.88V14.25Z"/>
  <rect class="cls-3" x="4" y="43.2" width="56" height="16.8" rx="3.92" ry="3.92"/>
  <path class="cls-4" d="M9.45,50.94c-.02-.16-.08-.29-.2-.37-.12-.09-.28-.13-.49-.13-.14,0-.26.02-.36.06-.1.04-.17.09-.22.16-.05.07-.08.15-.08.23,0,.07.01.14.05.19.03.05.08.1.14.14.06.04.13.07.21.1.08.03.16.05.25.07l.37.09c.18.04.34.09.49.16.15.07.28.15.39.24.11.1.19.21.25.34.06.13.09.28.09.45,0,.25-.06.47-.19.65-.12.18-.3.32-.54.42-.23.1-.52.15-.85.15s-.62-.05-.86-.15c-.24-.1-.43-.25-.57-.45-.14-.2-.21-.44-.21-.74h.83c0,.14.05.25.12.34.07.09.16.16.28.2.12.05.25.07.4.07s.27-.02.38-.06c.11-.04.19-.1.25-.18.06-.08.09-.16.09-.26,0-.09-.03-.17-.08-.23-.05-.06-.13-.12-.23-.16-.1-.04-.23-.08-.38-.12l-.44-.11c-.34-.08-.61-.21-.81-.39-.2-.18-.3-.42-.3-.72,0-.25.06-.46.2-.65.13-.18.32-.33.55-.43.23-.1.5-.16.8-.16s.57.05.79.16c.23.1.4.25.53.43.13.18.19.4.19.64h-.83Z"/>
  <path class="cls-4" d="M11.08,53.84v-4.07h2.74v.71h-1.88v.97h1.74v.71h-1.74v.97h1.89v.71h-2.75Z"/>
  <path class="cls-4" d="M18.27,51.19h-.87c-.02-.11-.05-.21-.1-.3-.05-.09-.11-.16-.19-.23-.08-.06-.17-.11-.27-.14-.1-.03-.21-.05-.32-.05-.21,0-.39.05-.55.16-.16.1-.28.25-.36.45-.09.2-.13.44-.13.72s.04.53.13.73c.09.2.21.35.37.45.16.1.34.15.54.15.12,0,.22-.02.32-.05.1-.03.19-.07.26-.13.08-.06.14-.13.19-.22.05-.08.09-.18.11-.29h.87c-.02.19-.08.37-.17.54-.09.17-.21.33-.36.46-.15.14-.33.24-.54.32-.21.08-.44.12-.7.12-.36,0-.69-.08-.97-.25-.29-.16-.51-.4-.68-.71-.16-.31-.25-.69-.25-1.13s.08-.82.25-1.13c.17-.31.39-.55.68-.71.29-.16.61-.25.97-.25.24,0,.45.03.66.1.2.07.38.16.54.29.16.13.28.28.38.46.1.18.16.39.19.63Z"/>
  <path class="cls-4" d="M21.57,49.77h.86v2.64c0,.3-.07.56-.21.78-.14.22-.34.4-.59.52-.25.12-.55.18-.88.18s-.63-.06-.89-.18c-.25-.12-.45-.3-.59-.52-.14-.22-.21-.48-.21-.78v-2.64h.86v2.57c0,.16.03.29.1.41.07.12.17.22.29.28.12.07.27.1.44.1s.31-.03.44-.1c.12-.07.22-.16.29-.28.07-.12.1-.26.1-.41v-2.57Z"/>
  <path class="cls-4" d="M23.3,53.84v-4.07h1.61c.31,0,.57.06.79.17.22.11.39.26.5.46.12.2.17.43.17.7s-.06.5-.18.7c-.12.19-.29.34-.51.45-.22.1-.49.16-.8.16h-1.08v-.69h.94c.16,0,.3-.02.41-.07.11-.05.19-.11.24-.2.05-.09.08-.2.08-.34s-.03-.25-.08-.34c-.05-.09-.13-.16-.24-.21-.11-.05-.25-.07-.41-.07h-.58v3.37h-.86ZM25.5,51.99l1.01,1.85h-.95l-.99-1.85h.93Z"/>
  <path class="cls-4" d="M28.01,49.77v4.07h-.86v-4.07h.86Z"/>
  <path class="cls-4" d="M28.73,50.48v-.71h3.34v.71h-1.25v3.36h-.85v-3.36h-1.25Z"/>
  <path class="cls-4" d="M32.55,49.77h.96l.93,1.75h.04l.93-1.75h.96l-1.49,2.63v1.44h-.86v-1.44l-1.49-2.63Z"/>
  <path class="cls-4" d="M37.31,53.84h-.92l1.41-4.07h1.11l1.4,4.07h-.92l-1.02-3.14h-.03l-1.02,3.14ZM37.25,52.24h2.18v.67h-2.18v-.67Z"/>
  <path class="cls-4" d="M42.4,53.84h-1.44v-4.07h1.46c.41,0,.76.08,1.06.24.3.16.52.39.68.7.16.3.24.67.24,1.09s-.08.79-.24,1.09c-.16.3-.39.54-.69.7-.3.16-.65.24-1.07.24ZM41.82,53.1h.55c.25,0,.47-.05.64-.14.17-.09.31-.23.39-.42.09-.19.13-.44.13-.74s-.04-.55-.13-.74c-.09-.19-.22-.33-.39-.42-.17-.09-.39-.14-.64-.14h-.55v2.6Z"/>
  <path class="cls-4" d="M45.2,49.77h1.06l1.12,2.74h.05l1.12-2.74h1.06v4.07h-.84v-2.65h-.03l-1.05,2.63h-.57l-1.05-2.64h-.03v2.66h-.84v-4.07Z"/>
  <path class="cls-4" d="M51.36,49.77v4.07h-.86v-4.07h.86Z"/>
  <path class="cls-4" d="M55.64,49.77v4.07h-.74l-1.77-2.56h-.03v2.56h-.86v-4.07h.76l1.76,2.56h.04v-2.56h.86Z"/>
</svg>