<?xml version="1.0" encoding="UTF-8"?>
<svg id="Expanded_Icons" data-name="Expanded Icons" xmlns="http://www.w3.org/2000/svg" viewBox="0 0 64 64">
  <defs>
    <style>
      .cls-1 {
        fill: #29b5e8;
        fill-rule: evenodd;
      }

      .cls-1, .cls-2, .cls-3 {
        stroke-width: 0px;
      }

      .cls-2 {
        fill: #11567f;
      }

      .cls-3 {
        fill: #fff;
      }
    </style>
  </defs>
  <path class="cls-1" d="M26.86,6c-5.01,0-9.07,4.06-9.07,9.07v33.86c0,5.01,4.06,9.07,9.07,9.07h21.16c5.01,0,9.07-4.06,9.07-9.07v-25.16c0-2.37-.93-4.64-2.58-6.34l-8.5-8.7c-1.71-1.75-4.05-2.73-6.49-2.73h-12.67ZM21.42,15.07c0-3.01,2.44-5.44,5.44-5.44h12.09v9.98c0,2.67,2.17,4.84,4.84,4.84h9.67v24.49c0,3.01-2.44,5.44-5.44,5.44h-21.16c-3.01,0-5.44-2.44-5.44-5.44V15.07ZM52.59,20.81c-.2-.3-.42-.59-.68-.85l-8.5-8.7c-.26-.26-.54-.5-.84-.7v9.04c0,.67.54,1.21,1.21,1.21h8.8Z"/>
  <rect class="cls-2" x="6.91" y="32" width="30.23" height="18.14" rx="4.23" ry="4.23"/>
  <path class="cls-3" d="M12.33,37.94h1.29v4.29c0,.4-.09.74-.27,1.03-.18.29-.42.52-.74.68-.31.16-.68.24-1.1.24-.37,0-.71-.07-1.01-.2-.3-.13-.54-.33-.72-.6-.18-.27-.26-.61-.26-1.02h1.3c0,.16.04.3.1.42.06.11.15.2.26.26.11.06.24.09.4.09.16,0,.3-.03.41-.1.11-.07.2-.17.26-.31.06-.13.09-.3.09-.5v-4.29Z"/>
  <path class="cls-3" d="M18.45,39.71c-.02-.24-.13-.43-.31-.57-.18-.13-.43-.2-.74-.2-.21,0-.39.03-.54.09-.15.06-.26.14-.34.24-.08.1-.11.22-.11.35,0,.11.02.21.07.29.05.08.12.15.21.21.09.06.19.11.31.15.12.04.24.08.38.11l.55.13c.27.06.52.14.74.24.22.1.42.22.58.37.16.15.29.32.38.52.09.2.14.43.14.68,0,.38-.1.7-.29.98-.19.27-.46.49-.82.64-.35.15-.78.23-1.28.23s-.93-.08-1.3-.23c-.37-.15-.65-.38-.86-.68-.2-.3-.31-.67-.32-1.12h1.26c.01.21.07.38.18.52.11.14.25.24.42.31.18.07.38.1.6.1s.41-.03.57-.1c.16-.06.29-.15.38-.27.09-.11.14-.25.14-.39,0-.14-.04-.25-.12-.35-.08-.09-.2-.17-.35-.24-.15-.07-.34-.13-.57-.18l-.67-.17c-.52-.13-.93-.32-1.23-.59-.3-.27-.45-.63-.45-1.09,0-.37.1-.7.3-.98.2-.28.48-.5.83-.65.35-.16.75-.23,1.2-.23s.86.08,1.2.23c.34.16.61.37.8.65s.29.6.29.97h-1.25Z"/>
  <path class="cls-3" d="M26.74,41.01c0,.67-.13,1.24-.38,1.71-.25.47-.6.83-1.03,1.08-.43.25-.92.37-1.47.37s-1.04-.12-1.47-.37c-.43-.25-.78-.61-1.03-1.08-.25-.47-.38-1.04-.38-1.71s.13-1.24.38-1.71c.25-.47.6-.83,1.03-1.08.43-.25.93-.37,1.47-.37s1.03.12,1.47.37c.44.25.78.61,1.03,1.08.25.47.38,1.04.38,1.71ZM25.42,41.01c0-.43-.07-.8-.2-1.1-.13-.3-.31-.53-.54-.68-.23-.15-.51-.23-.82-.23s-.59.08-.82.23c-.23.15-.42.38-.55.68-.13.3-.19.67-.19,1.1s.06.8.19,1.1c.13.3.31.53.55.68.23.15.51.23.82.23s.59-.08.82-.23c.23-.15.42-.38.54-.68.13-.3.2-.67.2-1.1Z"/>
  <path class="cls-3" d="M33.28,37.94v6.16h-1.12l-2.68-3.87h-.05v3.87h-1.3v-6.16h1.14l2.66,3.87h.05v-3.87h1.3Z"/>
</svg>