<?xml version="1.0" encoding="UTF-8"?>
<svg id="Expanded_Icons" data-name="Expanded Icons" xmlns="http://www.w3.org/2000/svg" viewBox="0 0 64 64">
  <defs>
    <style>
      .cls-1 {
        fill: #29b5e8;
        stroke-width: 0px;
      }
    </style>
  </defs>
  <path class="cls-1" d="M51.47,27.99h-2.02V6.44c0-1.1-.9-2-2-2h-27.3c-.59,0-1.15.26-1.53.71l-10.5,12.41c-.31.36-.47.82-.47,1.29v38.72c0,1.1.9,2,2,2h37.79c1.1,0,2-.9,2-2v-6.62h2.02c2.62,0,4.74-2.13,4.74-4.74v-13.47c0-2.62-2.13-4.74-4.74-4.74ZM18.5,11.49v5.86h-4.96l4.96-5.86ZM45.45,55.57H11.66V21.35h8.85c1.1,0,2-.9,2-2v-10.91h22.95v19.55h-20.92c-2.62,0-4.74,2.13-4.74,4.74v13.47c0,2.62,2.13,4.74,4.74,4.74h20.92v4.62ZM53.71,46.21c0,1.24-1.01,2.24-2.24,2.24h-26.94c-1.24,0-2.24-1.01-2.24-2.24v-13.47c0-1.24,1.01-2.24,2.24-2.24h26.94c1.24,0,2.24,1.01,2.24,2.24v13.47Z"/>
  <path class="cls-1" d="M30.08,36.2c1.39,0,2.21,1.01,2.21,1.01l.97-1.34s-1.01-1.3-3.2-1.3c-2.96,0-4.84,2.42-4.84,5.46s1.88,5.44,4.84,5.44c2.19,0,3.2-1.32,3.2-1.32l-.97-1.32s-.82.99-2.21.99c-1.81,0-3.08-1.65-3.08-3.79s1.27-3.83,3.08-3.83Z"/>
  <path class="cls-1" d="M38.08,39.05c-1.58-.52-2.02-.87-2.02-1.58,0-.83.59-1.3,1.63-1.3,1.51,0,2.42.87,2.42.87l.94-1.41s-.96-1.06-3.36-1.06-3.55,1.18-3.55,2.97c0,1.63.99,2.42,3.17,3.11,1.72.57,2.07.97,2.07,1.77,0,.85-.5,1.44-1.71,1.44-1.55,0-2.68-1.01-2.68-1.01l-.94,1.3s1.18,1.3,3.67,1.3,3.58-1.39,3.58-3.17c0-1.62-.89-2.54-3.24-3.25Z"/>
  <polygon class="cls-1" points="46.42 43.19 43.48 34.79 41.65 34.79 45.55 45.22 47.29 45.22 51.2 34.79 49.37 34.79 46.42 43.19"/>
</svg>