<?xml version="1.0" encoding="UTF-8"?>
<svg id="Expanded_Icons" data-name="Expanded Icons" xmlns="http://www.w3.org/2000/svg" viewBox="0 0 64 64">
  <defs>
    <style>
      .cls-1 {
        fill-rule: evenodd;
      }

      .cls-1, .cls-2 {
        fill: #29b5e8;
      }

      .cls-1, .cls-2, .cls-3, .cls-4 {
        stroke-width: 0px;
      }

      .cls-3 {
        fill: #11567f;
      }

      .cls-4 {
        fill: #fff;
      }
    </style>
  </defs>
  <path class="cls-2" d="M31.96,22.23c1.89,0,3.42-1.53,3.42-3.42s-1.53-3.42-3.42-3.42-3.42,1.53-3.42,3.42,1.53,3.42,3.42,3.42Z"/>
  <path class="cls-2" d="M38.71,29.69c.27.9-.51,1.68-1.45,1.68h-10.66c-.94,0-1.72-.78-1.45-1.68.62-2.09,2.42-5.12,6.76-5.12s6.19,3.03,6.81,5.12Z"/>
  <path class="cls-1" d="M30.24,4v4.02h-6.29c-3.44,0-6.24,2.79-6.24,6.24v18.23c0,3.44,2.79,6.24,6.24,6.24h15.95c3.44,0,6.24-2.79,6.24-6.24V14.25c0-3.44-2.79-6.24-6.24-6.24h-6.3v-4.02h-3.36ZM21.08,14.25c0-1.59,1.29-2.88,2.88-2.88h15.95c1.59,0,2.88,1.29,2.88,2.88v18.23c0,1.59-1.29,2.88-2.88,2.88h-15.95c-1.59,0-2.88-1.29-2.88-2.88V14.25Z"/>
  <rect class="cls-3" x="10.44" y="43.2" width="43.12" height="16.8" rx="3.92" ry="3.92"/>
  <path class="cls-4" d="M18.88,51.6c0,.49-.09.9-.28,1.25-.18.34-.43.6-.75.79-.32.18-.67.27-1.07.27s-.76-.09-1.07-.27-.57-.44-.75-.79c-.18-.34-.28-.76-.28-1.24s.09-.9.28-1.25c.18-.34.43-.6.75-.78.32-.18.67-.27,1.07-.27s.75.09,1.07.27c.32.18.57.44.75.78.19.34.28.76.28,1.25ZM17.92,51.6c0-.32-.05-.58-.14-.8-.09-.22-.23-.38-.4-.49-.17-.11-.37-.17-.6-.17s-.43.06-.6.17c-.17.11-.3.28-.4.49-.09.22-.14.48-.14.8s.05.58.14.8c.09.22.23.38.4.49.17.11.37.17.6.17s.43-.06.6-.17c.17-.11.3-.28.4-.49.09-.22.14-.48.14-.8Z"/>
  <path class="cls-4" d="M19.7,53.84v-4.48h1.77c.34,0,.63.06.87.18.24.12.42.29.55.51.13.22.19.48.19.77s-.06.55-.19.77c-.13.21-.31.38-.56.49-.24.11-.54.17-.88.17h-1.18v-.76h1.03c.18,0,.33-.02.45-.07.12-.05.21-.12.27-.22.06-.1.09-.22.09-.37s-.03-.27-.09-.38c-.06-.1-.15-.18-.27-.23-.12-.05-.27-.08-.45-.08h-.64v3.71h-.95ZM22.12,51.8l1.11,2.04h-1.05l-1.09-2.04h1.02Z"/>
  <path class="cls-4" d="M26.84,50.81c-.03-.11-.07-.2-.13-.28-.06-.08-.12-.15-.2-.21-.08-.06-.17-.1-.27-.13-.1-.03-.21-.05-.33-.05-.23,0-.43.06-.6.17-.17.11-.31.28-.4.5-.1.22-.14.48-.14.79s.05.58.14.8c.09.22.23.39.4.5.17.11.38.17.61.17.21,0,.4-.04.55-.11.15-.08.27-.19.35-.33.08-.14.12-.31.12-.5l.19.03h-1.15v-.71h1.87v.56c0,.39-.08.73-.25,1.02-.17.28-.4.5-.69.65-.29.15-.63.23-1,.23-.42,0-.79-.09-1.11-.28-.32-.19-.57-.45-.74-.79-.18-.34-.26-.75-.26-1.22,0-.36.05-.69.16-.97.11-.29.26-.53.45-.73.19-.2.41-.35.67-.45.25-.1.53-.16.82-.16.25,0,.49.04.71.11.22.07.41.18.58.31.17.13.31.29.42.48.11.18.18.39.21.61h-.96Z"/>
  <path class="cls-4" d="M29.31,53.84h-1.01l1.55-4.48h1.22l1.54,4.48h-1.01l-1.12-3.46h-.03l-1.12,3.46ZM29.25,52.08h2.4v.74h-2.4v-.74Z"/>
  <path class="cls-4" d="M34.86,53.84h-1.59v-4.48h1.6c.45,0,.84.09,1.16.27.33.18.58.43.75.77.18.33.26.73.26,1.2s-.09.87-.26,1.2c-.17.34-.43.59-.75.77-.33.18-.72.27-1.17.27ZM34.22,53.03h.6c.28,0,.52-.05.71-.15.19-.1.34-.26.43-.47.1-.21.15-.48.15-.82s-.05-.6-.15-.81c-.1-.21-.24-.36-.43-.46-.19-.1-.43-.15-.71-.15h-.6v2.86Z"/>
  <path class="cls-4" d="M37.88,49.36h1.17l1.23,3.01h.05l1.23-3.01h1.17v4.48h-.92v-2.92h-.04l-1.16,2.89h-.63l-1.16-2.9h-.04v2.93h-.92v-4.48Z"/>
  <path class="cls-4" d="M44.58,49.36v4.48h-.95v-4.48h.95Z"/>
  <path class="cls-4" d="M49.23,49.36v4.48h-.82l-1.95-2.82h-.03v2.82h-.95v-4.48h.83l1.93,2.82h.04v-2.82h.94Z"/>
</svg>