<?xml version="1.0" encoding="UTF-8"?>
<svg id="Expanded_Icons" data-name="Expanded Icons" xmlns="http://www.w3.org/2000/svg" viewBox="0 0 64 64">
  <defs>
    <style>
      .cls-1 {
        fill-rule: evenodd;
      }

      .cls-1, .cls-2 {
        fill: #29b5e8;
      }

      .cls-1, .cls-2, .cls-3, .cls-4 {
        stroke-width: 0px;
      }

      .cls-3 {
        fill: #11567f;
      }

      .cls-4 {
        fill: #fff;
      }
    </style>
  </defs>
  <path class="cls-2" d="M31.96,22.23c1.89,0,3.42-1.53,3.42-3.42s-1.53-3.42-3.42-3.42-3.42,1.53-3.42,3.42,1.53,3.42,3.42,3.42Z"/>
  <path class="cls-2" d="M38.71,29.69c.27.9-.51,1.68-1.45,1.68h-10.66c-.94,0-1.72-.78-1.45-1.68.62-2.09,2.42-5.12,6.76-5.12s6.19,3.03,6.81,5.12Z"/>
  <path class="cls-1" d="M30.24,4v4.02h-6.29c-3.44,0-6.24,2.79-6.24,6.24v18.23c0,3.44,2.79,6.24,6.24,6.24h15.95c3.44,0,6.24-2.79,6.24-6.24V14.25c0-3.44-2.79-6.24-6.24-6.24h-6.3v-4.02h-3.36ZM21.08,14.25c0-1.59,1.29-2.88,2.88-2.88h15.95c1.59,0,2.88,1.29,2.88,2.88v18.23c0,1.59-1.29,2.88-2.88,2.88h-15.95c-1.59,0-2.88-1.29-2.88-2.88V14.25Z"/>
  <rect class="cls-3" x="10.44" y="43.2" width="43.12" height="16.8" rx="3.92" ry="3.92"/>
  <path class="cls-4" d="M17.4,50.65c-.02-.18-.09-.31-.23-.41-.13-.1-.31-.15-.54-.15-.15,0-.29.02-.39.07-.11.04-.19.1-.25.18-.06.08-.08.16-.08.26,0,.08.01.15.05.21.04.06.09.11.16.16.07.04.14.08.23.11.09.03.18.06.28.08l.4.1c.2.04.37.1.54.17.16.07.3.16.42.27.12.11.21.23.28.38.07.14.1.31.1.5,0,.27-.07.51-.21.71-.14.2-.34.36-.59.47-.26.11-.57.16-.93.16s-.68-.06-.95-.17c-.27-.11-.48-.27-.63-.49-.15-.22-.23-.49-.23-.81h.92c.01.15.05.28.13.38.08.1.18.17.31.23.13.05.28.07.44.07s.3-.02.42-.07c.12-.05.21-.11.28-.19.07-.08.1-.18.1-.29,0-.1-.03-.19-.09-.25-.06-.07-.14-.13-.26-.17-.11-.05-.25-.09-.41-.13l-.49-.12c-.38-.09-.68-.24-.89-.43-.22-.2-.33-.46-.33-.79,0-.27.07-.51.22-.71.15-.2.35-.36.61-.47.26-.11.55-.17.88-.17s.62.06.87.17c.25.11.44.27.58.47.14.2.21.44.21.7h-.91Z"/>
  <path class="cls-4" d="M18.87,49.36h1.06l1.02,1.93h.04l1.02-1.93h1.06l-1.63,2.9v1.58h-.94v-1.58l-1.63-2.9Z"/>
  <path class="cls-4" d="M26.15,50.65c-.02-.18-.09-.31-.23-.41s-.31-.15-.54-.15c-.15,0-.29.02-.39.07-.11.04-.19.1-.24.18-.06.08-.08.16-.08.26,0,.08.01.15.05.21.04.06.09.11.16.16.07.04.14.08.23.11.09.03.18.06.28.08l.4.1c.2.04.37.1.54.17.16.07.3.16.42.27.12.11.21.23.28.38.07.14.1.31.1.5,0,.27-.07.51-.21.71-.14.2-.34.36-.59.47-.26.11-.57.16-.93.16s-.68-.06-.94-.17c-.27-.11-.48-.27-.63-.49-.15-.22-.23-.49-.23-.81h.92c.01.15.05.28.13.38.08.1.18.17.31.23.13.05.28.07.44.07s.3-.02.42-.07c.12-.05.21-.11.28-.19.07-.08.1-.18.1-.29,0-.1-.03-.19-.09-.25-.06-.07-.14-.13-.26-.17-.11-.05-.25-.09-.41-.13l-.49-.12c-.38-.09-.68-.24-.89-.43-.22-.2-.33-.46-.33-.79,0-.27.07-.51.22-.71.15-.2.35-.36.61-.47.26-.11.55-.17.88-.17s.62.06.87.17c.25.11.44.27.58.47.14.2.21.44.21.7h-.91Z"/>
  <path class="cls-4" d="M28.55,53.84h-1.01l1.55-4.48h1.22l1.54,4.48h-1.01l-1.12-3.46h-.03l-1.12,3.46ZM28.48,52.08h2.4v.74h-2.4v-.74Z"/>
  <path class="cls-4" d="M34.09,53.84h-1.59v-4.48h1.6c.45,0,.84.09,1.16.27.33.18.58.43.75.77.18.33.26.73.26,1.2s-.09.87-.26,1.2c-.18.34-.43.59-.75.77-.33.18-.72.27-1.17.27ZM33.45,53.03h.6c.28,0,.52-.05.71-.15.19-.1.34-.26.43-.47.1-.21.15-.48.15-.82s-.05-.6-.15-.81c-.1-.21-.24-.36-.43-.46-.19-.1-.43-.15-.71-.15h-.6v2.86Z"/>
  <path class="cls-4" d="M37.11,49.36h1.17l1.23,3.01h.05l1.23-3.01h1.17v4.48h-.92v-2.92h-.04l-1.16,2.89h-.63l-1.16-2.9h-.04v2.93h-.92v-4.48Z"/>
  <path class="cls-4" d="M43.82,49.36v4.48h-.95v-4.48h.95Z"/>
  <path class="cls-4" d="M48.47,49.36v4.48h-.82l-1.95-2.82h-.03v2.82h-.95v-4.48h.83l1.93,2.82h.04v-2.82h.94Z"/>
</svg>