<?xml version="1.0" encoding="UTF-8"?>
<svg id="Expanded_Icons" data-name="Expanded Icons" xmlns="http://www.w3.org/2000/svg" viewBox="0 0 64 64">
  <defs>
    <style>
      .cls-1 {
        fill: #29b5e8;
        stroke-width: 0px;
      }
    </style>
  </defs>
  <path class="cls-1" d="M43.45,30.3l-2.95,1.7,2.95,1.7c.75.43,1,1.38.57,2.12-.43.74-1.38.99-2.13.57l-5.29-3.04c-.35-.2-.6-.52-.71-.88-.05-.17-.08-.34-.07-.5,0-.12.02-.24.05-.37.11-.38.35-.72.72-.93l5.29-3.04c.74-.43,1.7-.17,2.13.57.43.74.18,1.69-.57,2.12ZM40.65,38.54l-5.29-3.04c-.28-.16-.6-.23-.9-.2-.81.06-1.44.73-1.44,1.54v6.08c0,.86.69,1.55,1.56,1.55s1.56-.69,1.56-1.55v-3.4l2.96,1.7c.74.43,1.7.18,2.13-.56.43-.74.18-1.69-.57-2.12ZM34.55,32.6l-2.2,2.19c-.06.06-.18.12-.28.12h-.65c-.09,0-.21-.05-.28-.12l-2.2-2.19c-.06-.06-.11-.19-.11-.27v-.64c0-.09.05-.21.11-.28l2.2-2.19c.06-.06.19-.11.28-.11h.65c.09,0,.21.05.28.11l2.2,2.19c.06.06.11.19.11.28v.64c0,.09-.05.21-.11.27ZM32.79,31.99c0-.09-.05-.21-.12-.28l-.64-.63c-.06-.06-.19-.11-.28-.11h-.03c-.09,0-.21.05-.27.11l-.64.63c-.06.07-.11.19-.11.28v.02c0,.09.05.21.11.27l.64.63c.06.06.19.11.27.11h.03c.09,0,.21-.05.28-.11l.64-.63c.06-.06.12-.19.12-.27v-.02ZM22.84,25.45l5.29,3.04c.28.16.6.23.9.2.81-.06,1.44-.73,1.44-1.55v-6.08c0-.85-.7-1.55-1.56-1.55s-1.56.69-1.56,1.55v3.4l-2.96-1.7c-.74-.43-1.69-.17-2.13.57-.43.74-.18,1.69.57,2.12ZM34.46,28.7c.3.02.62-.04.9-.2l5.29-3.04c.75-.43,1-1.38.57-2.12-.43-.74-1.38-.99-2.13-.57l-2.96,1.7v-3.4c0-.85-.7-1.55-1.56-1.55s-1.56.69-1.56,1.55v6.08c0,.82.63,1.49,1.44,1.55ZM29.04,35.3c-.3-.03-.62.04-.9.2l-5.29,3.04c-.74.43-1,1.38-.57,2.12.43.74,1.38.99,2.13.56l2.96-1.7v3.4c0,.86.7,1.55,1.56,1.55s1.56-.69,1.56-1.55v-6.08c0-.82-.64-1.49-1.44-1.54ZM27.6,32.46c.05-.17.07-.34.07-.5,0-.12-.02-.24-.06-.37-.1-.38-.35-.72-.72-.93l-5.29-3.04c-.75-.43-1.7-.17-2.13.57-.43.74-.18,1.69.57,2.12l2.95,1.7-2.95,1.7c-.75.43-1,1.38-.57,2.12.43.74,1.38.99,2.13.57l5.29-3.04c.36-.2.6-.52.71-.88Z"/>
  <path class="cls-1" d="M59.93,38.67c-.18-.59-.55-1.05-1.07-1.33l-3.84-2.1c.12-1.13.12-2.18.12-3.36s0-2.22-.11-3.28l3.86-2.19c.5-.28.89-.76,1.03-1.33.15-.56.07-1.14-.21-1.65l-6.48-10.99c-.39-.66-1.11-1.07-1.88-1.07-.36,0-.71.09-1.03.26l-3.93,2.15c-1.44-1.12-3.35-2.44-5.92-3.47v-4.13c0-1.2-.97-2.17-2.17-2.17h-13.05c-1.2,0-2.17.97-2.17,2.17v4.14c-2.25.92-3.89,2.13-5.45,3.4l-3.54-2.06c-.33-.19-.71-.3-1.09-.3-.77,0-1.48.41-1.87,1.07l-6.47,10.98c-.3.5-.38,1.11-.22,1.68.13.54.51,1.03,1.02,1.32l4.02,2.27c-.01.11-.02.21-.04.32l-.05.42c-.11.78-.18,1.62-.2,2.44v3.26s-4.06,2.22-4.06,2.22c-.51.27-.89.74-1.05,1.3-.16.59-.08,1.18.21,1.69l6.48,11.22c.39.67,1.11,1.09,1.88,1.09.36,0,.72-.09,1.04-.27l3.94-2.15c1.55,1.23,3.19,2.49,5.45,3.37v4.22c0,1.2.97,2.17,2.17,2.17h13.05c1.2,0,2.17-.97,2.17-2.17v-4.2c2.34-.9,4.22-2.15,5.89-3.41l3.95,2.16c.32.17.68.27,1.04.27.77,0,1.5-.42,1.88-1.09l6.48-11.21c.29-.52.37-1.11.22-1.67ZM25.82,49.96c-2.44-.69-4-1.94-5.82-3.39l-.81-.65c-.39-.3-.87-.47-1.35-.47-.36,0-.72.09-1.04.26l-3.34,1.83-4.3-7.45,3.24-1.78c.7-.38,1.13-1.11,1.13-1.91v-4.53c.02-.63.07-1.29.15-1.93.12-.8.19-1.64.2-2.47,0-.79-.43-1.51-1.11-1.89l-3.27-1.86,4.24-7.23,2.99,1.74c.32.2.71.3,1.1.3.51,0,1-.18,1.39-.5l.18-.15c2.16-1.81,3.72-3.11,6.48-3.98.91-.29,1.52-1.12,1.52-2.07v-3.5h8.71v3.49c0,.95.61,1.79,1.52,2.07,2.89.9,4.93,2.3,7.11,4.12.4.33.89.5,1.4.5.36,0,.72-.09,1.03-.26l3.36-1.83,4.28,7.28-3.28,1.86c-.87.49-1.29,1.51-1.02,2.47.26.96.26,2.42.26,3.83s0,2.72-.29,4.08c-.22.94.23,1.92,1.1,2.37l3.23,1.77-4.3,7.45-3.33-1.82c-.32-.17-.68-.27-1.05-.27-.48,0-.96.16-1.34.46-2.11,1.67-4.23,3.24-7.1,4.05-.93.26-1.58,1.11-1.59,2.07v3.62h-8.71v-3.61c0-.97-.66-1.83-1.59-2.08Z"/>
</svg>