<?xml version="1.0" encoding="UTF-8"?>
<svg id="Expanded_Icons" data-name="Expanded Icons" xmlns="http://www.w3.org/2000/svg" viewBox="0 0 64 64">
  <defs>
    <style>
      .cls-1 {
        fill: #29b5e8;
        stroke-width: 0px;
      }
    </style>
  </defs>
  <path class="cls-1" d="M48.82,17.99c.38.34.86.51,1.33.51.55,0,1.1-.23,1.49-.67.73-.83.66-2.09-.16-2.82l-7.88-7.02s-.04-.03-.06-.05c-.04-.03-.07-.06-.11-.08-.03-.02-.07-.05-.1-.07-.04-.02-.08-.05-.12-.07-.04-.02-.08-.04-.11-.06-.04-.02-.07-.03-.11-.05-.04-.02-.09-.03-.13-.05-.04-.01-.08-.02-.12-.03-.04,0-.08-.02-.12-.02-.05,0-.09-.01-.14-.02-.05,0-.09,0-.14,0-.02,0-.04,0-.06,0-.02,0-.04,0-.06,0-.04,0-.08,0-.12,0-.05,0-.1.01-.15.02-.04,0-.08.01-.12.02-.04,0-.07.02-.11.03-.05.01-.1.03-.14.05-.04.01-.08.03-.11.04-.04.02-.07.04-.11.05-.04.02-.08.05-.12.07-.04.02-.07.04-.1.07-.04.03-.07.05-.1.08-.02.02-.04.03-.06.04l-6.96,6.09c-.83.73-.92,1.99-.19,2.82.4.45.95.68,1.51.68.47,0,.94-.16,1.32-.5l3.64-3.19v33.3c0,1.1.9,2,2,2s2-.9,2-2V13.93l4.55,4.05Z"/>
  <path class="cls-1" d="M57.66,29.16h-7.39c-1.1,0-2,.9-2,2v23.57c0,1.1.9,2,2,2s2-.9,2-2v-21.57h5.39c1.1,0,2-.9,2-2s-.9-2-2-2Z"/>
  <path class="cls-1" d="M22.91,7.97s-.04-.03-.06-.05c-.03-.03-.07-.06-.1-.08-.03-.02-.07-.04-.1-.07-.04-.03-.08-.05-.12-.07-.04-.02-.07-.04-.11-.06-.04-.02-.08-.03-.11-.04-.05-.02-.09-.03-.14-.05-.04-.01-.08-.02-.12-.03-.04,0-.08-.01-.12-.02-.05,0-.09-.01-.14-.02-.04,0-.09,0-.13,0-.02,0-.04,0-.06,0-.02,0-.04,0-.06,0-.04,0-.09,0-.13,0-.05,0-.1.01-.14.02-.04,0-.08.01-.12.02-.04,0-.08.02-.11.03-.05.01-.09.03-.14.05-.04.01-.08.03-.12.05-.04.02-.07.04-.11.06-.04.02-.08.05-.12.07-.04.02-.07.04-.1.07-.04.03-.07.05-.11.08-.02.02-.04.03-.06.05l-7.88,7.02c-.82.73-.9,2-.16,2.82.4.44.94.67,1.49.67.47,0,.95-.17,1.33-.51l4.55-4.05v33.25c0,1.1.9,2,2,2s2-.9,2-2V13.9l3.86,3.4c.38.33.85.5,1.32.5.56,0,1.11-.23,1.5-.68.73-.83.65-2.09-.18-2.82l-7.18-6.32Z"/>
  <path class="cls-1" d="M13.57,29.16h-7.39c-1.1,0-2,.9-2,2s.9,2,2,2h5.39v21.57c0,1.1.9,2,2,2s2-.9,2-2v-23.57c0-1.1-.9-2-2-2Z"/>
</svg>