<?xml version="1.0" encoding="UTF-8"?>
<svg id="Expanded_Icons" data-name="Expanded Icons" xmlns="http://www.w3.org/2000/svg" viewBox="0 0 64 64">
  <defs>
    <style>
      .cls-1 {
        fill: #2ab5e8;
        stroke-width: 0px;
      }
    </style>
  </defs>
  <path class="cls-1" d="M7.67,49.34c0,7,12.24,10.66,24.33,10.66s24.33-3.66,24.33-10.66V14.66c0-7-12.24-10.66-24.33-10.66S7.67,7.66,7.67,14.66v34.68ZM23.38,47.47c-2.08-.33-4.12-.85-6.11-1.55v-6.27c1.99.66,4.04,1.16,6.11,1.49v6.32ZM23.38,39.39c-2.08-.34-4.12-.86-6.11-1.55v-6.14c2,.65,4.04,1.13,6.11,1.44v6.25ZM23.38,31.4c-2.07-.33-4.12-.84-6.11-1.52v-6.43c1.99.71,4.03,1.25,6.11,1.61v6.34ZM31.16,40.08c-2.04-.02-4.08-.17-6.11-.43v-6.27c2.03.25,4.07.38,6.11.4v6.3ZM38.95,47.73c-2.03.26-4.07.41-6.11.43v-6.35c2.04-.03,4.08-.17,6.11-.42v6.34ZM46.73,53.47c-1.69.62-3.74,1.17-6.11,1.57v-5.81c2.07-.33,4.11-.82,6.11-1.48v5.73ZM46.73,37.84c-1.99.7-4.03,1.22-6.11,1.55v-6.25c2.07-.31,4.11-.79,6.11-1.44v6.14ZM46.73,29.87c-1.99.69-4.03,1.2-6.11,1.52v-6.34c2.08-.36,4.12-.9,6.11-1.61v6.43ZM52.06,49.34c0,1.06-1.31,2.31-3.66,3.42v-5.65c1.44-.59,2.65-1.26,3.66-1.98v4.21ZM52.06,26.97c-.89.81-2.11,1.58-3.66,2.26v-6.45c.31-.14.59-.29.88-.44,1-.42,1.96-.88,2.78-1.39v6.02ZM32,8.27c12.24,0,20.06,3.78,20.06,6.39s-7.81,6.39-20.06,6.39-20.06-3.78-20.06-6.39,7.81-6.39,20.06-6.39ZM11.94,20.95c.82.51,1.77.97,2.77,1.39.29.15.57.3.88.44v6.45c-1.55-.68-2.77-1.45-3.66-2.26v-6.03ZM11.94,37.05c1.01.72,2.22,1.39,3.66,1.98v6.21c-1.55-.69-2.77-1.46-3.66-2.28v-5.91ZM11.94,45.13c1.01.72,2.22,1.39,3.66,1.98v5.65c-2.35-1.11-3.66-2.36-3.66-3.42v-4.21Z"/>
</svg>