<?xml version="1.0" encoding="UTF-8"?>
<svg id="Expanded_Icons" data-name="Expanded Icons" xmlns="http://www.w3.org/2000/svg" viewBox="0 0 64 64">
  <defs>
    <style>
      .cls-1 {
        fill: #29b5e8;
        stroke-width: 0px;
      }
    </style>
  </defs>
  <path class="cls-1" d="M52.36,56.17l-6.73-6.73c.82-1.34,1.27-2.87,1.27-4.48,0-2.29-.89-4.44-2.51-6.06-1.62-1.62-3.77-2.51-6.06-2.51s-4.44.89-6.06,2.51c-1.62,1.62-2.51,3.77-2.51,6.06s.89,4.45,2.51,6.06c1.67,1.67,3.87,2.51,6.06,2.51,1.56,0,3.11-.43,4.48-1.27l6.73,6.73c.39.39.9.59,1.41.59s1.02-.2,1.41-.59c.78-.78.78-2.05,0-2.83ZM35.09,48.2c-.86-.86-1.34-2.01-1.34-3.24s.48-2.37,1.34-3.24,2.01-1.34,3.24-1.34,2.37.48,3.23,1.34c0,0,0,0,0,0,.86.86,1.34,2.01,1.34,3.24s-.48,2.37-1.34,3.23c0,0,0,0,0,0,0,0,0,0,0,0-1.78,1.78-4.69,1.78-6.47,0Z"/>
  <path class="cls-1" d="M33.61,55.59H15.39V21.21h9.17c1.1,0,2-.9,2-2v-10.62h21.76v30.53c0,1.1.9,2,2,2s2-.9,2-2V6.59c0-1.1-.9-2-2-2h-25.74c-.56,0-1.1.24-1.48.65l-11.19,12.27c-.34.37-.52.85-.52,1.35v38.73c0,1.1.9,2,2,2h20.22c1.1,0,2-.9,2-2s-.9-2-2-2ZM17.6,17.21l4.96-5.44v5.44h-4.96Z"/>
</svg>