<?xml version="1.0" encoding="UTF-8"?>
<svg id="Expanded_Icons" data-name="Expanded Icons" xmlns="http://www.w3.org/2000/svg" viewBox="0 0 64 64">
  <defs>
    <style>
      .cls-1 {
        fill: #29b5e8;
        stroke-width: 0px;
      }
    </style>
  </defs>
  <path class="cls-1" d="M50.81,4.49H12.98c-4.73.01-8.58,3.86-8.58,8.59v37.82c0,4.73,3.85,8.58,8.58,8.58h37.83c4.73,0,8.58-3.85,8.58-8.58V13.07c0-4.73-3.85-8.58-8.58-8.58ZM55.4,50.91c0,2.53-2.06,4.58-4.58,4.58H12.98c-2.53,0-4.58-2.06-4.58-4.58V13.08c0-2.53,2.06-4.58,4.58-4.58h37.83c2.53-.01,4.58,2.04,4.58,4.57v37.83Z"/>
  <path class="cls-1" d="M46.36,17.45s0,0,0,0c-.08-.08-.18-.12-.27-.18-.04-.02-.08-.06-.13-.08-.17-.07-.35-.1-.53-.1h-7.25c-.69,0-1.25.56-1.25,1.25s.56,1.25,1.25,1.25h4.26l-10.54,10.54-10.54-10.54h4.26c.69,0,1.25-.56,1.25-1.25s-.56-1.25-1.25-1.25h-7.25c-.18,0-.36.02-.53.1-.05.02-.08.06-.13.08-.09.05-.19.1-.27.18,0,0,0,0,0,0-.23.23-.37.54-.37.89v7.29c0,.69.56,1.25,1.25,1.25s1.25-.56,1.25-1.25v-4.29l10.56,10.56-10.56,10.56v-4.26c0-.69-.56-1.25-1.25-1.25s-1.25.56-1.25,1.25v7.29c0,.69.56,1.25,1.25,1.25h7.3c.69,0,1.25-.56,1.25-1.25s-.56-1.25-1.25-1.25h-4.29l10.57-10.57,10.57,10.57h-4.29c-.69,0-1.25.56-1.25,1.25s.56,1.25,1.25,1.25h7.3c.69,0,1.25-.56,1.25-1.25v-7.29c0-.69-.56-1.25-1.25-1.25s-1.25.56-1.25,1.25v4.26l-10.56-10.56,10.56-10.56v4.29c0,.69.56,1.25,1.25,1.25s1.25-.56,1.25-1.25v-7.29c0-.35-.14-.66-.37-.89Z"/>
</svg>