<?xml version="1.0" encoding="UTF-8"?>
<svg id="Expanded_Icons" data-name="Expanded Icons" xmlns="http://www.w3.org/2000/svg" viewBox="0 0 64 64">
  <defs>
    <style>
      .cls-1 {
        fill: #29b5e8;
        stroke-width: 0px;
      }
    </style>
  </defs>
  <path class="cls-1" d="M54.05,39.91h0c-1.63-.94-3.62-.65-4.94.56l-2.21-1.28c1.07-2.19,1.69-4.64,1.69-7.24s-.6-4.98-1.64-7.15l2.16-1.25c.78.72,1.8,1.11,2.85,1.11.71,0,1.44-.18,2.1-.56h0c2.01-1.16,2.69-3.74,1.53-5.75-.56-.97-1.47-1.67-2.56-1.96-1.08-.29-2.22-.14-3.19.42-.97.56-1.67,1.47-1.96,2.56-.18.67-.17,1.35-.02,2.01l-2.15,1.24c-2.77-4.06-7.29-6.81-12.46-7.2v-2.47c1.71-.54,2.96-2.11,2.96-3.99,0-2.32-1.89-4.21-4.21-4.21s-4.21,1.89-4.21,4.21c0,1.88,1.25,3.46,2.96,3.99v2.47c-5.17.39-9.69,3.14-12.46,7.2l-2.15-1.24c.15-.66.16-1.34-.02-2.01-.29-1.09-.98-1.99-1.96-2.56-.97-.56-2.11-.71-3.19-.42-1.09.29-1.99.98-2.56,1.96-1.16,2.01-.48,4.59,1.53,5.75h0c.66.38,1.39.57,2.1.57,1.05,0,2.07-.4,2.85-1.11l2.16,1.25c-1.04,2.17-1.64,4.59-1.64,7.15s.62,5.05,1.69,7.24l-2.21,1.28c-1.32-1.21-3.31-1.5-4.94-.56h0c-2.01,1.16-2.69,3.74-1.53,5.75.56.97,1.47,1.67,2.56,1.96.36.1.73.14,1.09.14.73,0,1.45-.19,2.1-.57.97-.56,1.67-1.47,1.96-2.56.18-.67.17-1.35.02-2.01l2.21-1.28c2.77,4.01,7.26,6.73,12.4,7.12v2.58c-1.71.54-2.96,2.11-2.96,3.99,0,2.32,1.89,4.21,4.21,4.21s4.21-1.89,4.21-4.21c0-1.88-1.25-3.46-2.96-3.99v-2.58c5.14-.39,9.63-3.11,12.4-7.12l2.21,1.28c-.15.66-.16,1.34.02,2.01.29,1.09.98,1.99,1.96,2.56.65.38,1.37.57,2.1.57.36,0,.73-.05,1.09-.14,1.09-.29,1.99-.98,2.56-1.96,1.16-2.01.48-4.59-1.53-5.75ZM50.29,20.01c.12-.44.4-.81.79-1.04.26-.15.56-.23.85-.23.15,0,.3.02.44.06.44.12.81.4,1.04.79.47.81.19,1.86-.62,2.33-.81.47-1.86.19-2.33-.62-.23-.39-.29-.85-.17-1.29ZM11.2,21.93c-.81-.47-1.09-1.52-.62-2.33.23-.39.6-.68,1.04-.79.44-.12.9-.06,1.29.17s.68.6.79,1.04c.12.44.06.9-.17,1.29-.47.81-1.52,1.09-2.33.62ZM13.71,43.99c-.12.44-.4.81-.79,1.04-.39.23-.85.29-1.29.17-.44-.12-.81-.4-1.04-.79-.47-.81-.19-1.86.62-2.33.81-.47,1.86-.19,2.33.62.23.39.29.85.17,1.29ZM32,7.25c.94,0,1.71.77,1.71,1.71s-.77,1.71-1.71,1.71-1.71-.77-1.71-1.71.77-1.71,1.71-1.71ZM32,56.75c-.94,0-1.71-.77-1.71-1.71s.77-1.71,1.71-1.71,1.71.77,1.71,1.71-.77,1.71-1.71,1.71ZM32,46.03c-5.16,0-9.67-2.8-12.13-6.95,0-.01,0-.03-.02-.05-.01-.02-.03-.03-.04-.04-1.2-2.07-1.91-4.48-1.91-7.04,0-2.41.61-4.68,1.68-6.66.1-.09.19-.19.26-.31.06-.1.07-.2.1-.3,2.4-3.95,6.67-6.63,11.59-6.79.14.06.29.09.45.09s.31-.04.45-.09c4.91.16,9.19,2.84,11.59,6.79.03.1.05.21.1.3.07.12.16.22.26.31,1.07,1.99,1.68,4.25,1.68,6.66,0,2.57-.7,4.97-1.91,7.04-.01.02-.03.03-.04.04,0,.01,0,.03-.02.05-2.45,4.15-6.96,6.95-12.13,6.95ZM53.42,44.4c-.23.39-.6.68-1.04.79-.44.12-.9.06-1.29-.17-.39-.23-.68-.6-.79-1.04-.12-.44-.06-.9.17-1.29.32-.55.89-.85,1.48-.85.29,0,.58.07.85.23.81.47,1.09,1.52.62,2.33Z"/>
  <path class="cls-1" d="M32,21.68c-4.7,0-9.46,1.61-9.46,4.67v11.29c0,3.07,4.76,4.67,9.46,4.67s9.46-1.61,9.46-4.67v-11.29c0-3.07-4.76-4.67-9.46-4.67ZM25.04,29.62c1.82.93,4.39,1.41,6.96,1.41s5.14-.48,6.96-1.41v.38c0,.63-2.44,2.17-6.96,2.17s-6.96-1.54-6.96-2.17v-.38ZM25.04,33.25c1.82.93,4.39,1.41,6.96,1.41s5.14-.48,6.96-1.41v.65c0,.63-2.44,2.17-6.96,2.17s-6.96-1.54-6.96-2.17v-.65ZM32,24.18c4.52,0,6.96,1.54,6.96,2.17s-2.44,2.17-6.96,2.17-6.96-1.54-6.96-2.17,2.44-2.17,6.96-2.17ZM32,39.82c-4.52,0-6.96-1.54-6.96-2.17v-.48c1.82.93,4.39,1.41,6.96,1.41s5.14-.48,6.96-1.41v.48c0,.63-2.44,2.17-6.96,2.17Z"/>
</svg>