<?xml version="1.0" encoding="UTF-8"?>
<svg id="Expanded_Icons" data-name="Expanded Icons" xmlns="http://www.w3.org/2000/svg" viewBox="0 0 64 64">
  <defs>
    <style>
      .cls-1 {
        fill: #29b5e8;
        stroke-width: 0px;
      }
    </style>
  </defs>
  <path class="cls-1" d="M55.85,10.58l-5.08-4.48c-2.45-2.15-5.75-2.26-7.48-.3L10.71,40.83c-.22.23-.38.52-.46.83l-4.27,15.38c-.2.72.02,1.5.57,2.01.38.34.86.53,1.35.53.23,0,.47-.04.7-.13l14.74-5.48c.29-.11.56-.29.77-.51L57.06,18.01c.74-.83,1.1-1.95,1.03-3.14-.1-1.56-.91-3.12-2.23-4.29ZM20.91,50.6l-7.89,2.94-1.53-1.39,2.2-7.93,7.23,6.38ZM22.83,48.96l-2.86-2.52,22.02-23.67-1.83-1.7-22.07,23.72-3.08-2.72,26.35-28.33,7.8,6.88-26.35,28.34ZM50.88,18.79l-7.8-6.88,3.18-3.42c.1-.11.97-.18,1.88.62l5.07,4.48c.62.54.86,1.17.89,1.53.01.16-.02.24,0,.21l-3.22,3.46Z"/>
</svg>