<?xml version="1.0" encoding="UTF-8"?>
<svg id="Expanded_Icons" data-name="Expanded Icons" xmlns="http://www.w3.org/2000/svg" viewBox="0 0 64 64">
  <defs>
    <style>
      .cls-1 {
        fill: #29b5e8;
        stroke-width: 0px;
      }
    </style>
  </defs>
  <path class="cls-1" d="M53.24,14.59h-5.09V6.5c0-1.1-.9-2-2-2h-28.38c-1.1,0-2,.9-2,2v8.09h-5.09c-1.1,0-2,.9-2,2v40.99c0,1.1.9,2,2,2h42.57c1.1,0,2-.9,2-2V16.59c0-1.1-.9-2-2-2ZM19.76,8.5h24.38v6.09h-24.38v-6.09ZM35.77,55.58h-7.63v-7.29h7.63v7.29ZM51.24,55.58h-12.97v-8.54c0-.69-.56-1.25-1.25-1.25h-10.13c-.69,0-1.25.56-1.25,1.25v8.54h-12.97V18.59h38.57v36.99Z"/>
  <path class="cls-1" d="M40.72,10.29h-6.08c-.69,0-1.25.56-1.25,1.25s.56,1.25,1.25,1.25h6.08c.69,0,1.25-.56,1.25-1.25s-.56-1.25-1.25-1.25Z"/>
  <path class="cls-1" d="M29.54,10.29h-6.08c-.69,0-1.25.56-1.25,1.25s.56,1.25,1.25,1.25h6.08c.69,0,1.25-.56,1.25-1.25s-.56-1.25-1.25-1.25Z"/>
  <path class="cls-1" d="M21.82,24.91h-4.05c-.69,0-1.25.56-1.25,1.25s.56,1.25,1.25,1.25h4.05c.69,0,1.25-.56,1.25-1.25s-.56-1.25-1.25-1.25Z"/>
  <path class="cls-1" d="M21.82,28.95h-4.05c-.69,0-1.25.56-1.25,1.25s.56,1.25,1.25,1.25h4.05c.69,0,1.25-.56,1.25-1.25s-.56-1.25-1.25-1.25Z"/>
  <path class="cls-1" d="M21.82,32.98h-4.05c-.69,0-1.25.56-1.25,1.25s.56,1.25,1.25,1.25h4.05c.69,0,1.25-.56,1.25-1.25s-.56-1.25-1.25-1.25Z"/>
  <path class="cls-1" d="M21.82,37.02h-4.05c-.69,0-1.25.56-1.25,1.25s.56,1.25,1.25,1.25h4.05c.69,0,1.25-.56,1.25-1.25s-.56-1.25-1.25-1.25Z"/>
  <path class="cls-1" d="M33.98,24.91h-4.05c-.69,0-1.25.56-1.25,1.25s.56,1.25,1.25,1.25h4.05c.69,0,1.25-.56,1.25-1.25s-.56-1.25-1.25-1.25Z"/>
  <path class="cls-1" d="M33.98,28.95h-4.05c-.69,0-1.25.56-1.25,1.25s.56,1.25,1.25,1.25h4.05c.69,0,1.25-.56,1.25-1.25s-.56-1.25-1.25-1.25Z"/>
  <path class="cls-1" d="M33.98,32.98h-4.05c-.69,0-1.25.56-1.25,1.25s.56,1.25,1.25,1.25h4.05c.69,0,1.25-.56,1.25-1.25s-.56-1.25-1.25-1.25Z"/>
  <path class="cls-1" d="M33.98,37.02h-4.05c-.69,0-1.25.56-1.25,1.25s.56,1.25,1.25,1.25h4.05c.69,0,1.25-.56,1.25-1.25s-.56-1.25-1.25-1.25Z"/>
  <path class="cls-1" d="M42.09,24.91c-.69,0-1.25.56-1.25,1.25s.56,1.25,1.25,1.25h4.05c.69,0,1.25-.56,1.25-1.25s-.56-1.25-1.25-1.25h-4.05Z"/>
  <path class="cls-1" d="M46.14,28.95h-4.05c-.69,0-1.25.56-1.25,1.25s.56,1.25,1.25,1.25h4.05c.69,0,1.25-.56,1.25-1.25s-.56-1.25-1.25-1.25Z"/>
  <path class="cls-1" d="M46.14,32.98h-4.05c-.69,0-1.25.56-1.25,1.25s.56,1.25,1.25,1.25h4.05c.69,0,1.25-.56,1.25-1.25s-.56-1.25-1.25-1.25Z"/>
  <path class="cls-1" d="M46.14,37.02h-4.05c-.69,0-1.25.56-1.25,1.25s.56,1.25,1.25,1.25h4.05c.69,0,1.25-.56,1.25-1.25s-.56-1.25-1.25-1.25Z"/>
</svg>