<?xml version="1.0" encoding="UTF-8"?>
<svg id="Expanded_Icons" data-name="Expanded Icons" xmlns="http://www.w3.org/2000/svg" viewBox="0 0 64 64">
  <defs>
    <style>
      .cls-1 {
        fill-rule: evenodd;
      }

      .cls-1, .cls-2 {
        fill: #29b5e8;
        stroke-width: 0px;
      }
    </style>
  </defs>
  <path class="cls-2" d="M29.37,20.03c1.41-2.21,4.8-1.2,4.8,1.42v10.53s6.08,0,6.08,0c2.06,0,3.31,2.3,2.2,4.05l-7.83,12.28c-1.41,2.21-4.8,1.2-4.8-1.42v-10.53h-6.08c-2.06,0-3.31-2.3-2.2-4.05l7.83-12.28Z"/>
  <path class="cls-1" d="M35.52,6.96c-2.17-1.28-4.87-1.28-7.04,0l-16.89,9.93c-2.12,1.25-3.42,3.52-3.42,5.99v28.18c0,3.84,3.11,6.94,6.94,6.94h33.77c3.84,0,6.94-3.11,6.94-6.94v-28.18c0-2.46-1.3-4.74-3.42-5.99l-16.89-9.93ZM30.59,10.55c.87-.51,1.95-.51,2.82,0l16.89,9.93c.85.5,1.37,1.41,1.37,2.39v28.18c0,1.53-1.24,2.78-2.78,2.78H15.11c-1.53,0-2.78-1.24-2.78-2.78v-28.18c0-.98.52-1.9,1.37-2.39l16.89-9.93Z"/>
</svg>