<?xml version="1.0" encoding="UTF-8"?>
<svg id="Expanded_Icons" data-name="Expanded Icons" xmlns="http://www.w3.org/2000/svg" viewBox="0 0 64 64">
  <defs>
    <style>
      .cls-1 {
        fill: #29b5e8;
        stroke-width: 0px;
      }
    </style>
  </defs>
  <path class="cls-1" d="M59.25,24.61c0-9.25-7.56-16.79-16.85-16.79-3.92,0-7.53,1.35-10.4,3.6-2.87-2.25-6.47-3.6-10.4-3.6-9.29,0-16.86,7.53-16.86,16.79,0,6.99,4.32,13,10.43,15.52.39,8.92,7.77,16.06,16.82,16.06s16.43-7.14,16.81-16.05c6.12-2.52,10.43-8.52,10.43-15.52ZM44.65,37.19c-.73.13-1.48.21-2.25.21-2.82,0-5.42-.92-7.54-2.45,1.55-1.97,2.67-4.28,3.22-6.81,3.4,1.83,5.88,5.14,6.57,9.06ZM32,32.1c-1.12-1.54-1.91-3.33-2.25-5.28.73-.13,1.48-.21,2.25-.21s1.52.08,2.25.21c-.34,1.95-1.13,3.74-2.25,5.28ZM25.92,28.13c.55,2.53,1.67,4.84,3.22,6.81-2.12,1.54-4.72,2.45-7.54,2.45-.77,0-1.52-.08-2.25-.21.69-3.92,3.17-7.23,6.57-9.06ZM32,22.61c-.79,0-1.55.07-2.31.18.3-2.1,1.11-4.02,2.31-5.66,1.2,1.64,2.01,3.57,2.31,5.66-.76-.1-1.52-.18-2.31-.18ZM8.75,24.61c0-7.05,5.77-12.79,12.86-12.79,2.82,0,5.42.92,7.54,2.45-2.11,2.67-3.41,5.99-3.56,9.61-5.06,2.08-8.88,6.55-10.05,11.99-4.03-2.16-6.78-6.4-6.78-11.26ZM32,52.18c-6.46,0-11.81-4.77-12.71-10.96.76.1,1.53.18,2.31.18,3.92,0,7.53-1.35,10.4-3.6,2.87,2.25,6.47,3.6,10.4,3.6.78,0,1.55-.07,2.31-.18-.89,6.19-6.24,10.96-12.71,10.96ZM48.47,35.87c-1.17-5.44-4.99-9.91-10.05-11.99-.16-3.61-1.46-6.93-3.56-9.6,2.12-1.54,4.72-2.45,7.54-2.45,7.09,0,12.85,5.74,12.85,12.79,0,4.87-2.75,9.1-6.78,11.27Z"/>
</svg>