<?xml version="1.0" encoding="UTF-8"?>
<svg id="Expanded_Icons" data-name="Expanded Icons" xmlns="http://www.w3.org/2000/svg" viewBox="0 0 64 64">
  <defs>
    <style>
      .cls-1 {
        fill: #29b5e8;
        stroke-width: 0px;
      }
    </style>
  </defs>
  <g id="Not_Used" data-name="Not Used">
    <g>
      <path class="cls-1" d="M53.47,24.46h-2.94c-.96,0-1.74-.78-1.74-1.74v-2.94c0-.96.78-1.74,1.74-1.74h2.94c.96,0,1.74.78,1.74,1.74v2.94c0,.96-.78,1.74-1.74,1.74ZM50.53,19.64c-.08,0-.13.06-.13.13v2.94c0,.08.06.13.13.13h2.94c.08,0,.13-.06.13-.13v-2.94c0-.08-.06-.13-.13-.13h-2.94Z"/>
      <path class="cls-1" d="M54.88,50.26h-27.43c-2.5,0-4.55-2.04-4.55-4.54,0-.66.54-1.21,1.21-1.21s1.21.54,1.21,1.21c0,1.18.96,2.13,2.14,2.13h27.43c1.18,0,2.14-.96,2.14-2.13v-27.43c0-1.18-.96-2.14-2.14-2.14h-27.43c-1.18,0-2.14.96-2.14,2.14,0,.66-.54,1.21-1.21,1.21s-1.21-.54-1.21-1.21c0-2.5,2.04-4.55,4.55-4.55h27.43c2.5,0,4.55,2.04,4.55,4.55v27.43c0,2.5-2.04,4.54-4.55,4.54Z"/>
      <path class="cls-1" d="M53.47,38.79h-2.94c-.96,0-1.74-.78-1.74-1.74v-2.94c0-.96.78-1.74,1.74-1.74h2.94c.96,0,1.74.78,1.74,1.74v2.94c0,.96-.78,1.74-1.74,1.74ZM50.53,33.99c-.08,0-.13.06-.13.13v2.94c0,.08.06.13.13.13h2.94c.08,0,.13-.06.13-.13v-2.94c0-.08-.06-.13-.13-.13h-2.94Z"/>
      <path class="cls-1" d="M53.47,31.62h-2.94c-.96,0-1.74-.78-1.74-1.74v-2.94c0-.96.78-1.74,1.74-1.74h2.94c.96,0,1.74.78,1.74,1.74v2.94c0,.96-.78,1.74-1.74,1.74ZM50.53,26.82c-.08,0-.13.06-.13.13v2.94c0,.08.06.13.13.13h2.94c.08,0,.13-.06.13-.13v-2.94c0-.08-.06-.13-.13-.13h-2.94Z"/>
      <path class="cls-1" d="M53.47,45.96h-2.94c-.96,0-1.74-.78-1.74-1.74v-2.94c0-.96.78-1.74,1.74-1.74h2.94c.96,0,1.74.78,1.74,1.74v2.94c0,.96-.78,1.74-1.74,1.74ZM50.53,41.15c-.08,0-.13.06-.13.13v2.94c0,.08.06.13.13.13h2.94c.08,0,.13-.06.13-.13v-2.94c0-.08-.06-.13-.13-.13h-2.94Z"/>
      <path class="cls-1" d="M46.28,24.46h-2.94c-.96,0-1.74-.78-1.74-1.74v-2.94c0-.96.78-1.74,1.74-1.74h2.94c.96,0,1.74.78,1.74,1.74v2.94c0,.96-.78,1.74-1.74,1.74ZM43.35,19.64c-.08,0-.13.06-.13.13v2.94c0,.08.06.13.13.13h2.94c.08,0,.13-.06.13-.13v-2.94c0-.08-.06-.13-.13-.13h-2.94Z"/>
      <path class="cls-1" d="M46.28,38.79h-2.94c-.96,0-1.74-.78-1.74-1.74v-2.94c0-.96.78-1.74,1.74-1.74h2.94c.96,0,1.74.78,1.74,1.74v2.94c0,.96-.78,1.74-1.74,1.74ZM43.35,33.99c-.08,0-.13.06-.13.13v2.94c0,.08.06.13.13.13h2.94c.08,0,.13-.06.13-.13v-2.94c0-.08-.06-.13-.13-.13h-2.94Z"/>
      <path class="cls-1" d="M46.28,31.62h-2.94c-.96,0-1.74-.78-1.74-1.74v-2.94c0-.96.78-1.74,1.74-1.74h2.94c.96,0,1.74.78,1.74,1.74v2.94c0,.96-.78,1.74-1.74,1.74ZM43.35,26.82c-.08,0-.13.06-.13.13v2.94c0,.08.06.13.13.13h2.94c.08,0,.13-.06.13-.13v-2.94c0-.08-.06-.13-.13-.13h-2.94Z"/>
      <path class="cls-1" d="M46.28,45.96h-2.94c-.96,0-1.74-.78-1.74-1.74v-2.94c0-.96.78-1.74,1.74-1.74h2.94c.96,0,1.74.78,1.74,1.74v2.94c0,.96-.78,1.74-1.74,1.74ZM43.35,41.15c-.08,0-.13.06-.13.13v2.94c0,.08.06.13.13.13h2.94c.08,0,.13-.06.13-.13v-2.94c0-.08-.06-.13-.13-.13h-2.94Z"/>
      <g>
        <path class="cls-1" d="M14.29,26.21h-4.67c-.44,0-.8-.36-.8-.8s.36-.8.8-.8h4.67c.44,0,.8.36.8.8s-.36.8-.8.8Z"/>
        <path class="cls-1" d="M25.48,26.21h-7.35c-.44,0-.8-.36-.8-.8s.36-.8.8-.8h7.35c.44,0,.8.36.8.8s-.36.8-.8.8Z"/>
        <path class="cls-1" d="M35.49,26.21h-6.38c-.44,0-.8-.36-.8-.8s.36-.8.8-.8h6.38c.44,0,.8.36.8.8s-.36.8-.8.8Z"/>
        <path class="cls-1" d="M28.63,30.56H11.82c-.44,0-.8-.36-.8-.8s.36-.8.8-.8h16.81c.44,0,.8.36.8.8s-.36.8-.8.8Z"/>
        <path class="cls-1" d="M8.23,30.56h-3.99c-.44,0-.8-.36-.8-.8s.36-.8.8-.8h3.99c.44,0,.8.36.8.8s-.36.8-.8.8Z"/>
        <path class="cls-1" d="M20.41,34.98h-11.46c-.44,0-.8-.36-.8-.8s.36-.8.8-.8h11.46c.44,0,.8.36.8.8s-.36.8-.8.8Z"/>
        <path class="cls-1" d="M38.53,34.98h-14.27c-.44,0-.8-.36-.8-.8s.36-.8.8-.8h14.27c.44,0,.8.36.8.8s-.36.8-.8.8Z"/>
        <path class="cls-1" d="M32.03,30.56c-.21,0-.42-.08-.57-.23-.14-.16-.24-.35-.24-.58,0-.21.1-.42.24-.57.31-.31.84-.31,1.14,0,.14.14.23.35.23.57s-.08.42-.23.58c-.16.14-.35.23-.58.23Z"/>
        <path class="cls-1" d="M27.19,39.4h-11.18c-.44,0-.8-.36-.8-.8s.36-.8.8-.8h11.18c.44,0,.8.36.8.8s-.36.8-.8.8Z"/>
        <path class="cls-1" d="M37.19,39.4h-6.38c-.44,0-.8-.36-.8-.8s.36-.8.8-.8h6.38c.44,0,.8.36.8.8s-.36.8-.8.8Z"/>
      </g>
    </g>
  </g>
</svg>