<?xml version="1.0" encoding="UTF-8"?>
<svg id="Expanded_Icons" data-name="Expanded Icons" xmlns="http://www.w3.org/2000/svg" viewBox="0 0 64 64">
  <defs>
    <style>
      .cls-1 {
        fill: #29b5e8;
        fill-rule: evenodd;
        stroke-width: 0px;
      }
    </style>
  </defs>
  <path class="cls-1" d="M19.57,49.08h-1.45c-2.14,0-3.87-1.74-3.87-3.87v-6c0-2.85-1.27-5.46-3.34-7.21,2.07-1.75,3.34-4.36,3.34-7.21v-6c0-2.14,1.74-3.87,3.87-3.87h1.45c1.1,0,2-.9,2-2s-.9-2-2-2h-1.45c-4.34,0-7.87,3.53-7.87,7.87v6c0,2.49-1.68,4.65-4.09,5.27-.88.23-1.5,1.02-1.5,1.94s.62,1.71,1.5,1.94c2.41.62,4.09,2.79,4.09,5.27v6c0,4.34,3.53,7.87,7.87,7.87h1.45c1.1,0,2-.9,2-2s-.9-2-2-2Z"/>
  <path class="cls-1" d="M57.66,30.06c-2.41-.62-4.09-2.79-4.09-5.27v-6c0-4.34-3.53-7.87-7.87-7.87h-1.45c-1.1,0-2,.9-2,2s.9,2,2,2h1.45c2.14,0,3.87,1.74,3.87,3.87v6c0,2.85,1.27,5.46,3.34,7.21-2.07,1.75-3.34,4.36-3.34,7.21v6c0,2.14-1.74,3.87-3.87,3.87h-1.45c-1.1,0-2,.9-2,2s.9,2,2,2h1.45c4.34,0,7.87-3.53,7.87-7.87v-6c0-2.49,1.68-4.65,4.09-5.27.88-.23,1.5-1.02,1.5-1.94s-.62-1.71-1.5-1.94Z"/>
  <path class="cls-1" d="M21.81,28.67c-1.87,0-3.38,1.51-3.38,3.38s1.51,3.38,3.38,3.38,3.38-1.51,3.38-3.38-1.51-3.38-3.38-3.38Z"/>
  <path class="cls-1" d="M31.97,28.67c-1.87,0-3.38,1.51-3.38,3.38s1.51,3.38,3.38,3.38,3.38-1.51,3.38-3.38-1.51-3.38-3.38-3.38Z"/>
  <path class="cls-1" d="M45.52,32.05c0-1.87-1.51-3.38-3.38-3.38s-3.38,1.51-3.38,3.38,1.51,3.38,3.38,3.38,3.38-1.51,3.38-3.38Z"/>
</svg>