<?xml version="1.0" encoding="UTF-8"?>
<svg id="Expanded_Icons" data-name="Expanded Icons" xmlns="http://www.w3.org/2000/svg" viewBox="0 0 64 64">
  <defs>
    <style>
      .cls-1 {
        fill: #29b5e8;
        stroke-width: 0px;
      }
    </style>
  </defs>
  <path class="cls-1" d="M59.2,11.31c-.5-3.33-6.44-5.08-12.34-5.08s-11.84,1.74-12.34,5.08c-.02.08-.05.16-.05.24v40.84c0,3.63,6.23,5.53,12.38,5.53s12.39-1.9,12.39-5.53V11.55c0-.09-.03-.16-.05-.24ZM56.75,46.58c0,1.03-3.49,3.03-9.89,3.03s-9.88-2-9.88-3.03v-2.33c2.38,1.37,6.14,2.07,9.88,2.07s7.5-.71,9.89-2.07v2.33ZM56.75,40.79c0,1.03-3.49,3.03-9.89,3.03s-9.88-2-9.88-3.03v-2.38c2.38,1.37,6.14,2.07,9.88,2.07s7.5-.71,9.89-2.07v2.38ZM56.75,34.95c0,1.03-3.49,3.03-9.89,3.03s-9.88-2-9.88-3.03v-2.34c2.38,1.37,6.14,2.07,9.88,2.07s7.5-.71,9.89-2.07v2.34ZM56.75,29.16c0,1.03-3.49,3.03-9.89,3.03s-9.88-2-9.88-3.03v-2.36c2.38,1.37,6.14,2.07,9.88,2.07s7.5-.71,9.89-2.07v2.36ZM56.75,23.35c0,1.03-3.49,3.03-9.89,3.03s-9.88-2-9.88-3.03v-2.34c2.38,1.37,6.14,2.07,9.88,2.07s7.5-.71,9.89-2.07v2.34ZM56.75,17.56c0,1.03-3.49,3.03-9.89,3.03s-9.88-2-9.88-3.03v-2.35c2.38,1.37,6.14,2.07,9.88,2.07s7.5-.71,9.89-2.07v2.35ZM46.86,8.73c6.4,0,9.89,2,9.89,3.03s-3.49,3.03-9.89,3.03-9.88-2-9.88-3.03,3.49-3.03,9.88-3.03ZM46.86,55.41c-6.4,0-9.88-2-9.88-3.03v-2.35c2.38,1.37,6.14,2.07,9.88,2.07s7.5-.71,9.89-2.07v2.35c0,1.03-3.49,3.03-9.89,3.03Z"/>
  <path class="cls-1" d="M17.14,23.57c-6.15,0-12.39,1.9-12.39,5.53,0,.02,0,.03,0,.05,0,0,0,.02,0,.03v23.14c0,3.63,6.23,5.53,12.39,5.53s12.38-1.9,12.38-5.53v-23.14s0-.02,0-.03c0-.02,0-.03,0-.05,0-3.63-6.23-5.53-12.38-5.53ZM27.02,46.53c0,1.03-3.49,3.03-9.88,3.03s-9.89-2-9.89-3.03v-2.38c2.38,1.37,6.14,2.07,9.89,2.07s7.5-.71,9.88-2.07v2.38ZM27.02,40.69c0,1.03-3.49,3.03-9.88,3.03s-9.89-2-9.89-3.03v-2.34c2.38,1.37,6.14,2.07,9.89,2.07s7.5-.71,9.88-2.07v2.34ZM27.02,34.9c0,1.03-3.49,3.03-9.88,3.03s-9.89-2-9.89-3.03v-2.35c2.38,1.37,6.14,2.07,9.89,2.07s7.5-.71,9.88-2.07v2.35ZM17.14,26.07c6.4,0,9.88,2,9.88,3.03s-3.49,3.03-9.88,3.03-9.89-2-9.89-3.03,3.49-3.03,9.89-3.03ZM17.14,55.34c-6.4,0-9.89-2-9.89-3.03v-2.33c2.38,1.37,6.14,2.07,9.89,2.07s7.5-.71,9.88-2.07v2.33c0,1.03-3.49,3.03-9.88,3.03Z"/>
</svg>