<?xml version="1.0" encoding="UTF-8"?>
<svg id="Expanded_Icons" data-name="Expanded Icons" xmlns="http://www.w3.org/2000/svg" viewBox="0 0 64 64">
  <defs>
    <style>
      .cls-1 {
        fill: #29b5e8;
        stroke-width: 0px;
      }
    </style>
  </defs>
  <path class="cls-1" d="M44.34,25.24c-8.48,0-15.36,6.88-15.36,15.36s6.88,15.36,15.36,15.36,15.36-6.88,15.36-15.36-6.88-15.36-15.36-15.36ZM44.34,53.47c-7.09,0-12.86-5.77-12.86-12.86s5.77-12.86,12.86-12.86,12.86,5.77,12.86,12.86-5.77,12.86-12.86,12.86Z"/>
  <path class="cls-1" d="M53.45,43.8v-4.53c.62-.21,1.06-.79,1.06-1.47s-.45-1.26-1.06-1.47v-1.57h-8.74c-.21-.62-.79-1.06-1.47-1.06s-1.26.45-1.47,1.06h-4.56c-.21-.62-.79-1.06-1.47-1.06-.86,0-1.56.7-1.56,1.56,0,.67.43,1.24,1.02,1.46v7.06c-.59.22-1.02.79-1.02,1.46,0,.86.7,1.56,1.56,1.56.67,0,1.24-.43,1.46-1.02h14.29c.21.61.79,1.06,1.47,1.06.86,0,1.56-.7,1.56-1.56,0-.69-.45-1.26-1.06-1.47ZM43.23,36.81c.37,0,.71-.14.98-.36l1.57.98c-.03.12-.05.23-.05.36,0,.49.23.93.59,1.21l-.48,1.33s-.02,0-.04,0c-.53,0-1.01.27-1.29.68l-2.98-.86c-.02-.33-.14-.64-.33-.89l1.64-2.51c.12.03.25.05.39.05ZM51.08,38.29l-4.23,2.44s-.04-.03-.06-.05l.48-1.34s.02,0,.03,0c.69,0,1.26-.45,1.47-1.06h2.31ZM52.18,43.91l-4.82-1.92s0-.06,0-.1c0-.11-.01-.21-.03-.31l4.58-2.63c.15.13.33.24.53.3v4.53c-.09.03-.18.07-.26.12ZM39.41,41.67c.18.07.37.11.58.11.53,0,1-.27,1.28-.67l2.71.78c-1.65.46-4.2,1.17-6.29,1.8l1.72-2.02ZM42.01,36.21l-1.64,2.51c-.13-.03-.25-.06-.39-.06-.19,0-.38.04-.55.1l-2.32-2.83c.03-.06.06-.12.08-.19h4.56c.06.17.14.32.25.46ZM36.41,36.65l2.26,2.75c-.15.24-.24.52-.24.82s.09.56.23.8l-2.35,2.76s-.07-.02-.11-.03v-7.01c.08-.02.15-.05.22-.09ZM44.53,42.78c.28.41.75.68,1.28.68.47,0,.89-.21,1.17-.54l4.51,1.8s-.01.04-.02.05h-13.89c2.26-.68,5.22-1.51,6.94-1.99ZM52.95,38.35c-.31,0-.56-.25-.56-.56s.25-.56.56-.56.56.25.56.56-.25.56-.56.56ZM52.45,36.32c-.46.16-.82.51-.97.97h-2.7c-.21-.62-.79-1.06-1.47-1.06-.37,0-.71.14-.98.36l-1.34-.84h7.47v.57ZM43.23,34.69c.31,0,.56.25.56.56s-.25.56-.56.56-.56-.25-.56-.56.25-.56.56-.56ZM35.73,34.69c.31,0,.56.25.56.56s-.25.56-.56.56-.56-.25-.56-.56.25-.56.56-.56ZM35.73,45.79c-.31,0-.56-.25-.56-.56s.25-.56.56-.56.56.25.56.56-.25.56-.56.56Z"/>
  <path class="cls-1" d="M33.38,25.58c0-.69-.56-1.25-1.25-1.25h-12.44c-.69,0-1.25.56-1.25,1.25s.56,1.25,1.25,1.25h12.44c.69,0,1.25-.56,1.25-1.25Z"/>
  <path class="cls-1" d="M28.43,31.37c0-.69-.56-1.25-1.25-1.25h-7.49c-.69,0-1.25.56-1.25,1.25s.56,1.25,1.25,1.25h7.49c.69,0,1.25-.56,1.25-1.25Z"/>
  <path class="cls-1" d="M25.23,35.9h-5.53c-.69,0-1.25.56-1.25,1.25s.56,1.25,1.25,1.25h5.53c.69,0,1.25-.56,1.25-1.25s-.56-1.25-1.25-1.25Z"/>
  <path class="cls-1" d="M25.15,41.69h-5.46c-.69,0-1.25.56-1.25,1.25s.56,1.25,1.25,1.25h5.46c.69,0,1.25-.56,1.25-1.25s-.56-1.25-1.25-1.25Z"/>
  <path class="cls-1" d="M27.69,48.48h-11.19v-29.29h7.52c1.1,0,2-.9,2-2v-9.05h18.59v13.24c0,1.1.9,2,2,2s2-.9,2-2V6.14c0-1.1-.9-2-2-2h-22.38c-.56,0-1.1.24-1.48.65l-9.73,10.67c-.34.37-.52.85-.52,1.35v33.68c0,1.1.9,2,2,2h13.19c1.1,0,2-.9,2-2s-.9-2-2-2ZM18.68,15.19l3.34-3.66v3.66h-3.34Z"/>
</svg>