<?xml version="1.0" encoding="UTF-8"?>
<svg id="Expanded_Icons" data-name="Expanded Icons" xmlns="http://www.w3.org/2000/svg" viewBox="0 0 64 64">
  <defs>
    <style>
      .cls-1 {
        fill: #29b5e8;
        stroke-width: 0px;
      }
    </style>
  </defs>
  <path class="cls-1" d="M35.38,24.49c-.79,0-3.36-.19-3.36-2.59,0-.69-.56-1.25-1.25-1.25s-1.25.56-1.25,1.25c0,2.67,1.81,4.57,4.61,5v1.15c0,.69.56,1.25,1.25,1.25s1.25-.56,1.25-1.25v-1.15c2.81-.43,4.61-2.33,4.61-5,0-3.11-1.92-4.06-4.57-5.37l-1.48-.73c-2.74-1.35-3.18-1.67-3.18-3.12,0-2.44,2.57-2.63,3.36-2.63s3.3.19,3.3,2.63c0,.69.56,1.25,1.25,1.25s1.25-.56,1.25-1.25c0-2.68-1.78-4.59-4.55-5.03v-1.12c0-.69-.56-1.25-1.25-1.25s-1.25.56-1.25,1.25v1.12c-2.8.43-4.61,2.35-4.61,5.03,0,3.11,1.92,4.05,4.57,5.36l1.48.73c2.74,1.35,3.17,1.67,3.17,3.12,0,2.41-2.58,2.59-3.36,2.59Z"/>
  <path class="cls-1" d="M58.25,27.51c-1.87-1.62-4.7-1.42-6.27.39l-6.39,6.56c-.82-.97-2.04-1.6-3.41-1.6h-11.77c-1.11-.45-5.45-1.97-9.84-.4-4.03,1.44-6.79,3.74-8.23,6.8-.13-.01-.27-.04-.4-.04-1.08,0-2.09.42-2.86,1.18l-2.7,2.7c-1.58,1.58-1.58,4.14,0,5.72l8.2,8.2c.79.79,1.82,1.18,2.86,1.18s2.07-.39,2.86-1.18l2.7-2.7c.99-.99,1.36-2.37,1.1-3.65l1.26-1.26c.7-.69,1.26-.93,3.25-.93h13.14c3.29,0,5.84-1.18,7.79-3.6l9.15-11.06c.78-.9,1.17-2.06,1.08-3.25-.08-1.2-.63-2.29-1.53-3.07ZM21.23,52.55l-2.7,2.7c-.6.6-1.58.6-2.18,0l-8.2-8.2c-.29-.29-.45-.68-.45-1.09s.16-.8.45-1.09l2.7-2.7c.3-.3.7-.45,1.09-.45s.79.15,1.09.45l8.2,8.2c.6.6.6,1.58,0,2.18ZM56.78,32.21l-9.17,11.1c-1.5,1.85-3.3,2.68-5.85,2.68h-13.14c-2.23,0-3.62.26-5.02,1.66l-.77.78-8.02-8.02c-.05-.05-.11-.09-.17-.14,1.16-2.41,3.43-4.25,6.78-5.46,4.01-1.44,8.18.42,8.22.43.16.07.34.11.52.11h12.02c1.09,0,1.98.89,1.98,1.98s-.89,1.98-1.98,1.98h-8.79c-.69,0-1.25.56-1.25,1.25s.56,1.25,1.25,1.25h8.79c2.47,0,4.48-2.01,4.48-4.48,0-.12-.03-.24-.04-.36l7.19-7.38c.72-.83,1.97-.91,2.79-.2.4.34.64.83.67,1.36.04.53-.13,1.04-.5,1.46Z"/>
</svg>