<?xml version="1.0" encoding="UTF-8"?>
<svg id="Expanded_Icons" data-name="Expanded Icons" xmlns="http://www.w3.org/2000/svg" viewBox="0 0 64 64">
  <defs>
    <style>
      .cls-1 {
        fill: #29b5e8;
        fill-rule: evenodd;
      }

      .cls-1, .cls-2, .cls-3 {
        stroke-width: 0px;
      }

      .cls-2 {
        fill: #11567f;
      }

      .cls-3 {
        fill: #fff;
      }
    </style>
  </defs>
  <rect class="cls-2" x="10.22" y="43.03" width="43.56" height="16.97" rx="3.96" ry="3.96"/>
  <path class="cls-3" d="M15.75,53.78h-1.6v-4.53h1.62c.46,0,.85.09,1.18.27.33.18.58.44.76.78.18.34.27.74.27,1.21s-.09.88-.27,1.22c-.18.34-.43.6-.76.78-.33.18-.72.27-1.18.27ZM15.1,52.96h.61c.28,0,.52-.05.71-.15.19-.1.34-.26.44-.47.1-.21.15-.49.15-.83s-.05-.61-.15-.82c-.1-.21-.24-.37-.44-.47-.19-.1-.43-.15-.71-.15h-.61v2.89Z"/>
  <path class="cls-3" d="M19.75,49.25v4.53h-.96v-4.53h.96Z"/>
  <path class="cls-3" d="M20.67,53.78v-4.53h1.79c.34,0,.63.06.87.18.24.12.43.29.55.51.13.22.19.48.19.78s-.06.56-.19.78c-.13.22-.32.38-.56.49-.24.11-.54.17-.89.17h-1.2v-.77h1.04c.18,0,.33-.03.46-.08.12-.05.21-.13.27-.23.06-.1.09-.22.09-.37s-.03-.28-.09-.38c-.06-.1-.15-.18-.27-.23-.12-.05-.27-.08-.46-.08h-.65v3.74h-.96ZM23.11,51.72l1.12,2.06h-1.06l-1.1-2.06h1.03Z"/>
  <path class="cls-3" d="M24.87,53.78v-4.53h3.05v.79h-2.09v1.08h1.94v.79h-1.94v1.08h2.1v.79h-3.06Z"/>
  <path class="cls-3" d="M32.8,50.84h-.97c-.02-.13-.05-.24-.11-.33-.05-.1-.12-.18-.21-.25-.09-.07-.18-.12-.3-.16-.11-.04-.23-.06-.36-.06-.23,0-.44.06-.61.17-.17.11-.31.28-.4.5-.1.22-.14.49-.14.8s.05.59.14.81c.1.22.23.39.41.5s.37.17.6.17c.13,0,.25-.02.36-.05.11-.03.21-.08.29-.15.09-.07.16-.15.21-.24.06-.09.1-.2.12-.32h.97c-.03.21-.09.41-.19.61-.1.19-.23.36-.4.51-.17.15-.37.27-.6.36-.23.09-.49.13-.78.13-.4,0-.76-.09-1.08-.27-.32-.18-.57-.45-.75-.79-.18-.35-.27-.77-.27-1.26s.09-.91.28-1.26c.19-.35.44-.61.76-.79.32-.18.68-.27,1.07-.27.26,0,.51.04.73.11.23.07.42.18.6.32.17.14.32.31.42.51.11.2.18.44.21.7Z"/>
  <path class="cls-3" d="M33.44,50.04v-.79h3.72v.79h-1.39v3.74h-.95v-3.74h-1.39Z"/>
  <path class="cls-3" d="M41.84,51.52c0,.49-.09.91-.28,1.26-.19.35-.44.61-.76.79-.32.18-.68.27-1.08.27s-.76-.09-1.08-.27c-.32-.18-.57-.45-.76-.79-.19-.35-.28-.77-.28-1.26s.09-.91.28-1.26c.19-.35.44-.61.76-.79.32-.18.68-.27,1.08-.27s.76.09,1.08.27c.32.18.57.44.76.79.19.35.28.77.28,1.26ZM40.87,51.52c0-.32-.05-.59-.14-.81-.09-.22-.23-.39-.4-.5-.17-.11-.37-.17-.61-.17s-.43.06-.61.17c-.17.11-.31.28-.4.5-.09.22-.14.49-.14.81s.05.59.14.81c.1.22.23.39.4.5.17.11.37.17.61.17s.43-.06.61-.17c.17-.11.31-.28.4-.5.1-.22.14-.49.14-.81Z"/>
  <path class="cls-3" d="M42.68,53.78v-4.53h1.79c.34,0,.63.06.87.18.24.12.43.29.55.51.13.22.19.48.19.78s-.06.56-.19.78c-.13.22-.32.38-.56.49-.24.11-.54.17-.89.17h-1.2v-.77h1.04c.18,0,.33-.03.46-.08.12-.05.21-.13.27-.23.06-.1.09-.22.09-.37s-.03-.28-.09-.38c-.06-.1-.15-.18-.27-.23-.12-.05-.27-.08-.46-.08h-.65v3.74h-.96ZM45.12,51.72l1.12,2.06h-1.06l-1.1-2.06h1.03Z"/>
  <path class="cls-3" d="M46.43,49.25h1.07l1.03,1.95h.04l1.03-1.95h1.07l-1.65,2.93v1.6h-.95v-1.6l-1.65-2.93Z"/>
  <path class="cls-1" d="M19.27,4c-4.06,0-7.35,3.29-7.35,7.35v19.8c0,4.06,3.29,7.35,7.35,7.35h26.43c4.06,0,7.35-3.29,7.35-7.35V11.35c0-4.06-3.29-7.35-7.35-7.35h-26.43ZM15.31,11.35c0-2.19,1.77-3.96,3.96-3.96h26.43c2.19,0,3.96,1.77,3.96,3.96v1.83H15.31v-1.83ZM15.31,16.57v14.58c0,2.19,1.77,3.96,3.96,3.96h26.43c2.19,0,3.96-1.77,3.96-3.96v-14.58H15.31Z"/>
</svg>