<?xml version="1.0" encoding="UTF-8"?>
<svg id="Expanded_Icons" data-name="Expanded Icons" xmlns="http://www.w3.org/2000/svg" viewBox="0 0 64 64">
  <defs>
    <style>
      .cls-1 {
        fill: #29b5e8;
        stroke-width: 0px;
      }
    </style>
  </defs>
  <path class="cls-1" d="M46.42,32.18h-2.02l-1.64-4.14c-.19-.48-.65-.79-1.16-.79s-.97.31-1.16.79l-2.02,5.12-2.02-7.94c-.14-.56-.61-.94-1.23-.94-.58,0-1.08.41-1.2.98l-1.86,8.33-2.15-6.72c-.16-.52-.64-.87-1.18-.87h0c-.54,0-1.02.34-1.19.85l-2.4,7.19-2.37-5.56c-.21-.49-.71-.79-1.23-.76-.53.03-.98.4-1.12.91l-1,3.56h-1.8c-.69,0-1.25.56-1.25,1.25s.56,1.25,1.25,1.25h2.75c.56,0,1.05-.37,1.2-.91l.3-1.06,2.28,5.34c.2.48.69.77,1.2.76.52-.02.97-.36,1.14-.85l2.23-6.68,2.39,7.47c.17.52.65.87,1.19.87.02,0,.04,0,.06,0,.56-.02,1.04-.43,1.16-.98l1.73-7.73,1.69,6.62c.13.53.59.9,1.13.94.55.03,1.04-.28,1.24-.79l2.28-5.77.78,1.99c.19.48.65.79,1.16.79h2.87c.69,0,1.25-.56,1.25-1.25s-.56-1.25-1.25-1.25Z"/>
  <path class="cls-1" d="M58.48,44.36h-3.98v-26.93c0-2.03-1.65-3.68-3.68-3.68H13.08c-2.03,0-3.68,1.65-3.68,3.68v26.93h-3.98c-.69,0-1.25.56-1.25,1.25v.38c0,2.61,1.85,4.57,4.31,4.57h46.41c2.58,0,4.84-2.14,4.84-4.57v-.38c0-.69-.56-1.25-1.25-1.25ZM8.48,48.06c-.88,0-1.42-.54-1.66-1.21h17.4v1.06c0,.05,0,.1,0,.15h-15.75ZM37.18,45.61v1.06h-10.45v-1.06c0-.69-.56-1.25-1.25-1.25h-12.08v-26.61h37.1v26.61h-12.08c-.69,0-1.25.56-1.25,1.25ZM54.89,48.06h-15.22s0-.1,0-.15v-1.06h17.3c-.4.69-1.23,1.21-2.09,1.21Z"/>
</svg>