<?xml version="1.0" encoding="UTF-8"?>
<svg id="Expanded_Icons" data-name="Expanded Icons" xmlns="http://www.w3.org/2000/svg" viewBox="0 0 64 64">
  <defs>
    <style>
      .cls-1 {
        fill: #29b5e8;
        stroke-width: 0px;
      }
    </style>
  </defs>
  <path class="cls-1" d="M50.96,27.41c-1.75,0-3.33.69-4.5,1.81-1.17-1.12-2.76-1.81-4.5-1.81s-3.33.69-4.5,1.81c-1.17-1.12-2.76-1.81-4.5-1.81-.89,0-1.73.18-2.5.5v-8.54c0-3.58-2.92-6.5-6.5-6.5s-6.5,2.92-6.5,6.5v12.89c-1.78,1.74-7.18,7.04-8.61,8.47-1.21,1.21-1.9,2.75-1.94,4.35-.04,1.69.64,3.33,1.94,4.63l9.39,9.39c.38.38.88.59,1.41.59h30.85c4.29,0,6.96-2.74,6.96-7.16v-18.62c0-3.58-2.92-6.5-6.5-6.5ZM53.46,52.53c0,2.24-.86,3.16-2.96,3.16h-30.02l-8.8-8.8c-.53-.53-.79-1.1-.77-1.7.02-.57.29-1.15.77-1.63.92-.92,3.57-3.52,5.78-5.69v4.93c0,1.1.9,2,2,2s2-.9,2-2v-23.42c0-1.38,1.12-2.5,2.5-2.5s2.5,1.12,2.5,2.5v17.43c0,1.1.9,2,2,2s2-.9,2-2v-2.89c0-1.38,1.12-2.5,2.5-2.5s2.5,1.12,2.5,2.5v2.89c0,1.1.9,2,2,2s2-.9,2-2v-2.89c0-1.38,1.12-2.5,2.5-2.5s2.5,1.12,2.5,2.5v2.89c0,1.1.9,2,2,2s2-.9,2-2v-2.89c0-1.38,1.12-2.5,2.5-2.5s2.5,1.12,2.5,2.5v18.62Z"/>
  <path class="cls-1" d="M8.16,20.93h5.08c.69,0,1.25-.56,1.25-1.25s-.56-1.25-1.25-1.25h-3.83V6.75h28.64v11.69h-3.24c-.69,0-1.25.56-1.25,1.25s.56,1.25,1.25,1.25h4.49c.69,0,1.25-.56,1.25-1.25V5.5c0-.69-.56-1.25-1.25-1.25H8.16c-.69,0-1.25.56-1.25,1.25v14.19c0,.69.56,1.25,1.25,1.25Z"/>
  <path class="cls-1" d="M46.34,7.76h9.54c.69,0,1.25-.56,1.25-1.25s-.56-1.25-1.25-1.25h-9.54c-.69,0-1.25.56-1.25,1.25s.56,1.25,1.25,1.25Z"/>
  <path class="cls-1" d="M46.34,13.84h9.54c.69,0,1.25-.56,1.25-1.25s-.56-1.25-1.25-1.25h-9.54c-.69,0-1.25.56-1.25,1.25s.56,1.25,1.25,1.25Z"/>
  <path class="cls-1" d="M46.34,19.92h9.54c.69,0,1.25-.56,1.25-1.25s-.56-1.25-1.25-1.25h-9.54c-.69,0-1.25.56-1.25,1.25s.56,1.25,1.25,1.25Z"/>
</svg>