<?xml version="1.0" encoding="UTF-8"?>
<svg id="Expanded_Icons" data-name="Expanded Icons" xmlns="http://www.w3.org/2000/svg" viewBox="0 0 64 64">
  <defs>
    <style>
      .cls-1 {
        fill: #29b5e8;
        stroke-width: 0px;
      }
    </style>
  </defs>
  <path class="cls-1" d="M47.55,38.92h-2.27s.01-.03.01-.05v-15.77c0-1.23-1-2.24-2.24-2.24h-22.19c-1.23,0-2.24,1-2.24,2.24v15.81s0,0,0,.01h-2.27c-.41,0-.75.34-.75.75v.23c0,1.54,1.1,2.7,2.55,2.7h27.29c1.52,0,2.86-1.26,2.86-2.7v-.23c0-.41-.34-.75-.75-.75ZM18.15,41.1c-.5,0-.81-.3-.95-.68h10.2v.61s0,.05,0,.07h-9.25ZM35.01,39.67v.61h-6.11v-.61c0-.41-.34-.75-.75-.75h-7.03s0,0,0-.01v-15.54h21.67v15.5s.01.03.01.05h-7.04c-.41,0-.75.34-.75.75ZM45.44,41.1h-8.93s0-.05,0-.07v-.61h10.13c-.24.39-.71.68-1.2.68Z"/>
  <path class="cls-1" d="M37.82,34.02h-10.77v-6.01c0-.41-.34-.75-.75-.75s-.75.34-.75.75v6.75s0,0,0,.01c0,.41.34.75.75.75h11.52c.41,0,.75-.34.75-.75s-.34-.75-.75-.75Z"/>
  <rect class="cls-1" x="30.4" y="28.26" width="1.54" height="5.12" rx=".26" ry=".26"/>
  <rect class="cls-1" x="27.9" y="29.8" width="1.54" height="3.58" rx=".26" ry=".26"/>
  <rect class="cls-1" x="32.89" y="29.8" width="1.54" height="3.58" rx=".26" ry=".26"/>
  <path class="cls-1" d="M31.95,4.16c-15.3,0-27.75,12.45-27.75,27.75s12.45,27.75,27.75,27.75,27.75-12.45,27.75-27.75S47.25,4.16,31.95,4.16ZM31.95,57.16c-13.92,0-25.25-11.33-25.25-25.25S18.03,6.66,31.95,6.66s25.25,11.33,25.25,25.25-11.33,25.25-25.25,25.25Z"/>
</svg>