<?xml version="1.0" encoding="UTF-8"?>
<svg id="Expanded_Icons" data-name="Expanded Icons" xmlns="http://www.w3.org/2000/svg" viewBox="0 0 64 64">
  <defs>
    <style>
      .cls-1 {
        fill: #29b5e8;
      }

      .cls-1, .cls-2, .cls-3 {
        stroke-width: 0px;
      }

      .cls-2 {
        fill: #11567f;
      }

      .cls-3 {
        fill: #fff;
      }
    </style>
  </defs>
  <path class="cls-1" d="M14,7.16c.5-.15,1.03-.23,1.58-.23h2.15c.32,0,.59-.26.59-.59v-1.76c0-.32-.26-.59-.59-.59h-2.15c-.94,0-1.85.15-2.71.44-.31.1-.45.45-.32.75l.67,1.62c.12.3.47.44.78.35Z"/>
  <path class="cls-1" d="M28.68,6.93c.32,0,.59-.26.59-.59v-1.76c0-.32-.26-.59-.59-.59h-4.3c-.32,0-.59.26-.59.59v1.76c0,.32.26.59.59.59h4.3Z"/>
  <path class="cls-1" d="M39.62,6.93c.32,0,.59-.26.59-.59v-1.76c0-.32-.26-.59-.59-.59h-4.3c-.32,0-.59.26-.59.59v1.76c0,.32.26.59.59.59h4.3Z"/>
  <path class="cls-1" d="M46.27,6.93h2.15c.55,0,1.08.08,1.58.23.31.09.65-.05.78-.35l.67-1.62c.12-.3-.02-.64-.32-.75-.85-.29-1.76-.44-2.71-.44h-2.15c-.32,0-.59.26-.59.59v1.76c0,.32.26.59.59.59Z"/>
  <path class="cls-1" d="M10.24,10.92c.09-.31-.05-.65-.35-.78l-1.63-.67c-.3-.12-.64.02-.75.32-.29.85-.44,1.76-.44,2.71v2.1c0,.32.26.59.59.59h1.76c.32,0,.59-.26.59-.59v-2.1c0-.55.08-1.08.23-1.58Z"/>
  <path class="cls-1" d="M53.76,10.92c.15.5.23,1.03.23,1.58v2.1c0,.32.26.59.59.59h1.76c.32,0,.59-.26.59-.59v-2.1c0-.94-.15-1.85-.44-2.71-.1-.31-.45-.45-.75-.32l-1.62.67c-.3.12-.44.47-.35.78Z"/>
  <path class="cls-1" d="M10.01,21.15c0-.32-.26-.59-.59-.59h-1.76c-.32,0-.59.26-.59.59v4.2c0,.32.26.59.59.59h1.76c.32,0,.59-.26.59-.59v-4.2Z"/>
  <path class="cls-1" d="M53.99,25.35c0,.32.26.59.59.59h1.76c.32,0,.59-.26.59-.59v-4.2c0-.32-.26-.59-.59-.59h-1.76c-.32,0-.59.26-.59.59v4.2Z"/>
  <path class="cls-1" d="M10.01,31.9c0-.32-.26-.59-.59-.59h-1.76c-.32,0-.59.26-.59.59v4.2c0,.32.26.59.59.59h1.76c.32,0,.59-.26.59-.59v-4.2Z"/>
  <path class="cls-1" d="M53.99,36.1c0,.32.26.59.59.59h1.76c.32,0,.59-.26.59-.59v-4.2c0-.32-.26-.59-.59-.59h-1.76c-.32,0-.59.26-.59.59v4.2Z"/>
  <path class="cls-1" d="M10.01,42.65c0-.32-.26-.59-.59-.59h-1.76c-.32,0-.59.26-.59.59v2.1c0,.94.15,1.85.44,2.71.1.31.45.45.75.32l1.63-.67c.3-.12.44-.47.35-.78-.15-.5-.23-1.03-.23-1.58v-2.1Z"/>
  <path class="cls-1" d="M53.99,42.65v2.1c0,.55-.08,1.08-.23,1.58-.09.31.05.65.35.78l1.62.67c.3.12.64-.02.75-.32.29-.85.44-1.76.44-2.71v-2.1c0-.32-.26-.59-.59-.59h-1.76c-.32,0-.59.26-.59.59Z"/>
  <path class="cls-1" d="M26.14,19.25c0-.54.47-1.19,1.64-1.75,1.13-.54,2.72-.89,4.52-.89s3.39.35,4.52.89c1.17.56,1.64,1.22,1.64,1.75s-.47,1.19-1.64,1.75c-1.13.54-2.72.89-4.52.89s-3.39-.35-4.52-.89c-1.17-.56-1.64-1.22-1.64-1.75Z"/>
  <path class="cls-1" d="M27.27,22.06c-.41-.2-.8-.43-1.14-.7v8.15c0,1.62,2.76,2.93,6.16,2.93s6.16-1.31,6.16-2.93v-8.15c-.34.27-.72.5-1.14.7-1.32.63-3.09,1-5.02,1s-3.71-.37-5.02-1Z"/>
  <path class="cls-2" d="M16.17,41.24c-2.27,0-4.1,1.84-4.1,4.1v10.55c0,2.27,1.84,4.1,4.1,4.1h31.66c2.27,0,4.1-1.84,4.1-4.1v-10.55c0-2.27-1.84-4.1-4.1-4.1h-31.66Z"/>
  <path class="cls-3" d="M23.98,46.27c-.03-.11-.08-.21-.14-.3-.06-.09-.13-.16-.21-.22-.08-.06-.18-.11-.28-.14-.11-.03-.22-.05-.35-.05-.24,0-.45.06-.63.18-.18.12-.32.29-.42.52-.1.23-.15.5-.15.83s.05.6.15.83c.1.23.24.4.42.52.18.12.4.18.64.18.22,0,.42-.04.57-.12.16-.08.28-.19.37-.34.09-.15.13-.32.13-.52l.2.03h-1.21v-.75h1.96v.59c0,.41-.09.77-.26,1.06-.17.29-.41.52-.72.68-.31.16-.66.24-1.05.24-.44,0-.83-.1-1.16-.29-.33-.2-.59-.47-.78-.83-.18-.36-.28-.79-.28-1.28,0-.38.06-.72.16-1.02.11-.3.27-.55.47-.76.2-.21.43-.37.7-.47.27-.11.55-.16.86-.16.27,0,.51.04.74.12.23.08.43.18.61.33.18.14.32.31.44.5.11.19.19.4.22.64h-1.01Z"/>
  <path class="cls-3" d="M25.78,49.45v-4.69h1.85c.35,0,.66.06.91.19.25.13.44.3.57.53.13.23.2.5.2.81s-.07.58-.2.8c-.13.22-.33.39-.58.51-.25.12-.56.18-.92.18h-1.24v-.8h1.08c.19,0,.35-.03.47-.08.13-.05.22-.13.28-.23.06-.1.09-.23.09-.39s-.03-.29-.09-.39c-.06-.11-.15-.19-.28-.24-.13-.06-.28-.08-.47-.08h-.67v3.88h-.99ZM28.31,47.31l1.17,2.13h-1.09l-1.14-2.13h1.07Z"/>
  <path class="cls-3" d="M34.32,47.1c0,.51-.1.95-.29,1.31-.19.36-.46.63-.79.82-.33.19-.7.28-1.12.28s-.79-.09-1.12-.28c-.33-.19-.59-.46-.79-.82-.19-.36-.29-.79-.29-1.3s.1-.95.29-1.31c.19-.36.45-.63.79-.82.33-.19.71-.28,1.12-.28s.79.09,1.12.28c.33.19.6.46.79.82.19.36.29.79.29,1.31ZM33.32,47.1c0-.33-.05-.61-.15-.84-.1-.23-.24-.4-.41-.52s-.39-.18-.63-.18-.45.06-.63.18-.32.29-.42.52c-.1.23-.15.51-.15.84s.05.61.15.84c.1.23.24.4.42.52s.39.18.63.18.45-.06.63-.18.32-.29.41-.52c.1-.23.15-.51.15-.84Z"/>
  <path class="cls-3" d="M37.96,44.75h.99v3.05c0,.34-.08.64-.25.9-.16.26-.39.46-.68.6-.29.14-.63.21-1.02.21s-.73-.07-1.02-.21c-.29-.14-.52-.34-.68-.6-.16-.26-.24-.56-.24-.9v-3.05h.99v2.96c0,.18.04.34.12.48.08.14.19.25.33.33s.31.12.5.12.36-.04.5-.12c.14-.08.25-.19.33-.33.08-.14.12-.3.12-.48v-2.96Z"/>
  <path class="cls-3" d="M39.77,49.45v-4.69h1.85c.36,0,.66.07.91.2.25.13.44.32.57.56.13.24.2.51.2.82s-.07.59-.2.82c-.13.24-.33.42-.58.56-.25.13-.56.2-.92.2h-1.18v-.79h1.02c.19,0,.35-.03.47-.1.13-.07.22-.16.28-.28.06-.12.09-.26.09-.41s-.03-.29-.09-.41c-.06-.12-.15-.21-.28-.27-.13-.07-.28-.1-.48-.1h-.67v3.88h-.99Z"/>
  <path class="cls-3" d="M24.56,53.14c-.02-.18-.1-.33-.24-.43s-.33-.15-.57-.15c-.16,0-.3.02-.41.07-.11.04-.2.11-.26.19-.06.08-.09.17-.09.27,0,.08.01.16.05.22.04.06.09.12.16.16.07.04.15.08.24.12.09.03.19.06.29.08l.42.1c.2.05.39.11.56.18.17.08.32.17.44.28.13.11.22.24.29.39.07.15.11.32.11.52,0,.29-.07.54-.22.75-.14.21-.35.37-.62.49-.27.11-.6.17-.98.17s-.71-.06-.99-.17c-.28-.12-.5-.29-.66-.52-.16-.23-.24-.51-.25-.85h.96c.01.16.06.29.14.39.08.1.19.18.32.24.14.05.29.08.46.08s.31-.02.44-.07c.13-.05.22-.12.29-.2.07-.09.1-.19.1-.3,0-.11-.03-.19-.09-.27-.06-.07-.15-.13-.27-.18-.12-.05-.26-.1-.43-.14l-.51-.13c-.4-.1-.71-.25-.94-.45-.23-.2-.34-.48-.34-.83,0-.28.07-.53.23-.74.15-.21.37-.38.63-.5.27-.12.57-.18.92-.18s.65.06.91.18c.26.12.46.28.61.5.15.21.22.46.22.74h-.95Z"/>
  <path class="cls-3" d="M26.95,56.48h-1.06l1.62-4.69h1.28l1.62,4.69h-1.06l-1.18-3.62h-.04l-1.18,3.62ZM26.88,54.64h2.51v.77h-2.51v-.77Z"/>
  <path class="cls-3" d="M30.96,56.48v-4.69h.99v3.87h2.01v.82h-3Z"/>
  <path class="cls-3" d="M34.62,56.48v-4.69h3.16v.82h-2.17v1.12h2.01v.82h-2.01v1.12h2.18v.82h-3.17Z"/>
  <path class="cls-3" d="M41.12,53.14c-.02-.18-.1-.33-.24-.43-.14-.1-.33-.15-.57-.15-.16,0-.3.02-.41.07-.11.04-.2.11-.26.19-.06.08-.09.17-.09.27,0,.08.01.16.05.22.04.06.09.12.16.16.07.04.15.08.24.12.09.03.19.06.29.08l.42.1c.2.05.39.11.56.18.17.08.32.17.44.28.13.11.22.24.29.39.07.15.11.32.11.52,0,.29-.07.54-.22.75-.14.21-.35.37-.62.49-.27.11-.6.17-.98.17s-.71-.06-.99-.17c-.28-.12-.5-.29-.66-.52-.16-.23-.24-.51-.25-.85h.96c.01.16.06.29.14.39.08.1.19.18.32.24.14.05.29.08.46.08s.31-.02.44-.07c.13-.05.22-.12.29-.2.07-.09.1-.19.1-.3,0-.11-.03-.19-.09-.27-.06-.07-.15-.13-.27-.18-.12-.05-.26-.1-.43-.14l-.51-.13c-.4-.1-.71-.25-.94-.45-.23-.2-.34-.48-.34-.83,0-.28.07-.53.23-.74.15-.21.37-.38.63-.5.27-.12.57-.18.92-.18s.65.06.91.18c.26.12.46.28.61.5.15.21.22.46.22.74h-.95Z"/>
</svg>