<?xml version="1.0" encoding="UTF-8"?>
<svg id="Expanded_Icons" data-name="Expanded Icons" xmlns="http://www.w3.org/2000/svg" viewBox="0 0 64 64">
  <defs>
    <style>
      .cls-1 {
        fill: #29b5e8;
        fill-rule: evenodd;
      }

      .cls-1, .cls-2, .cls-3 {
        stroke-width: 0px;
      }

      .cls-2 {
        fill: #11567f;
      }

      .cls-3 {
        fill: #fff;
      }
    </style>
  </defs>
  <path class="cls-1" d="M26.86,6c-5.01,0-9.07,4.06-9.07,9.07v33.86c0,5.01,4.06,9.07,9.07,9.07h21.16c5.01,0,9.07-4.06,9.07-9.07v-25.16c0-2.37-.93-4.64-2.58-6.34l-8.5-8.7c-1.71-1.75-4.05-2.73-6.49-2.73h-12.67ZM21.42,15.07c0-3.01,2.44-5.44,5.44-5.44h12.09v9.98c0,2.67,2.17,4.84,4.84,4.84h9.67v24.49c0,3.01-2.44,5.44-5.44,5.44h-21.16c-3.01,0-5.44-2.44-5.44-5.44V15.07ZM52.59,20.81c-.2-.3-.42-.59-.68-.85l-8.5-8.7c-.26-.26-.54-.5-.84-.7v9.04c0,.67.54,1.21,1.21,1.21h8.8Z"/>
  <rect class="cls-2" x="6.91" y="32" width="36.88" height="18.14" rx="4.23" ry="4.23"/>
  <path class="cls-3" d="M12.79,37.94l1.49,4.68h.06l1.49-4.68h1.44l-2.12,6.16h-1.68l-2.13-6.16h1.45Z"/>
  <path class="cls-3" d="M19.73,37.94v6.16h-1.3v-6.16h1.3Z"/>
  <path class="cls-3" d="M23.41,44.09h-2.18v-6.16h2.2c.62,0,1.15.12,1.6.37.45.24.79.6,1.03,1.06.24.46.36,1.01.36,1.65s-.12,1.19-.36,1.65c-.24.46-.59.81-1.04,1.06-.45.25-.99.37-1.61.37ZM22.53,42.98h.83c.38,0,.71-.07.97-.2.26-.14.46-.35.6-.64.13-.29.2-.67.2-1.12s-.07-.83-.2-1.12c-.13-.29-.33-.5-.59-.64-.26-.14-.59-.2-.97-.2h-.83v3.93Z"/>
  <path class="cls-3" d="M27.81,44.09v-6.16h4.15v1.07h-2.85v1.47h2.63v1.07h-2.63v1.47h2.86v1.07h-4.16Z"/>
  <path class="cls-3" d="M39.07,41.01c0,.67-.13,1.24-.38,1.71-.25.47-.6.83-1.03,1.08-.43.25-.92.37-1.47.37s-1.04-.12-1.47-.37c-.43-.25-.78-.61-1.03-1.08-.25-.47-.38-1.04-.38-1.71s.13-1.24.38-1.71c.25-.47.6-.83,1.03-1.08.43-.25.93-.37,1.47-.37s1.03.12,1.47.37c.44.25.78.61,1.03,1.08.25.47.38,1.04.38,1.71ZM37.75,41.01c0-.43-.07-.8-.2-1.1-.13-.3-.31-.53-.54-.68-.23-.15-.51-.23-.82-.23s-.59.08-.82.23c-.23.15-.42.38-.55.68-.13.3-.19.67-.19,1.1s.06.8.19,1.1c.13.3.31.53.55.68.23.15.51.23.82.23s.59-.08.82-.23c.23-.15.42-.38.54-.68.13-.3.2-.67.2-1.1Z"/>
</svg>