<?xml version="1.0" encoding="UTF-8"?>
<svg id="Expanded_Icons" data-name="Expanded Icons" xmlns="http://www.w3.org/2000/svg" viewBox="0 0 64 64">
  <defs>
    <style>
      .cls-1 {
        fill: #29b5e8;
        stroke-width: 0px;
      }
    </style>
  </defs>
  <path class="cls-1" d="M58.48,43.9h-5.46v-5.46c0-.69-.56-1.25-1.25-1.25h-6.71c-.69,0-1.25.56-1.25,1.25v5.46h-5.46c-.69,0-1.25.56-1.25,1.25v6.71c0,.69.56,1.25,1.25,1.25h5.46v5.46c0,.69.56,1.25,1.25,1.25h6.71c.69,0,1.25-.56,1.25-1.25v-5.46h5.46c.69,0,1.25-.56,1.25-1.25v-6.71c0-.69-.56-1.25-1.25-1.25Z"/>
  <path class="cls-1" d="M34.2,55.5h-13.94c.96-1.47,1.52-3.23,1.52-5.11v-23.26c0-2.56,2.65-4.15,5.11-4.15h24.39c2.59,0,4.19,1.59,4.19,4.15v7.09c0,1.1.9,2,2,2s2-.9,2-2v-13.81c0-5.36-3.91-9.26-9.3-9.26h-16.96c-1.12-3.11-4.51-6.65-8.4-6.65h-11.09c-4.93,0-9.25,4.13-9.25,8.84v37.05c0,5.02,3.74,9.11,8.33,9.11h.42c.22,0,.44-.02.65-.04.12.02.24.04.36.04h19.95c1.1,0,2-.9,2-2s-.9-2-2-2ZM8.48,50.4V13.35c0-2.49,2.55-4.84,5.25-4.84h11.09c2.46,0,4.79,3.38,4.79,4.65,0,1.1.9,2,2,2h18.57c3.08,0,5.09,1.9,5.27,4.85-1.2-.66-2.61-1.03-4.16-1.03h-24.39c-5.02,0-9.11,3.66-9.11,8.15v23.26c0,2.67-2.17,5.11-4.56,5.11h-.42c-2.59,0-4.33-2.64-4.33-5.11Z"/>
</svg>