<?xml version="1.0" encoding="UTF-8"?>
<svg id="Expanded_Icons" data-name="Expanded Icons" xmlns="http://www.w3.org/2000/svg" viewBox="0 0 64 64">
  <defs>
    <style>
      .cls-1 {
        fill: #29b5e8;
        fill-rule: evenodd;
        stroke-width: 0px;
      }
    </style>
  </defs>
  <path class="cls-1" d="M57.03,14.57c-.34-6.87-13.06-10.57-25.04-10.57S6.94,7.8,6.94,14.86v34.29c0,7.05,12.91,10.86,25.06,10.86s25.06-3.8,25.07-10.86V14.86c0-.1-.02-.19-.03-.28ZM31.99,8.01c12.85,0,21.05,4.05,21.05,6.85s-8.2,6.85-21.05,6.85-20.98-4.02-21.05-6.81v-.03s0-.01,0-.02c.04-2.79,8.23-6.82,21.05-6.82ZM32,56c-12.85,0-21.05-4.06-21.05-6.85v-28.2c4.76,3.12,13.07,4.77,21.05,4.77s16.3-1.64,21.06-4.77v28.21c0,2.79-8.2,6.85-21.05,6.85Z"/>
  <path class="cls-1" d="M46.06,37.65l-7.58-4.21c-.15-.08-.3-.13-.47-.15-.16-.02-.33,0-.49.04-.16.05-.31.12-.44.22s-.24.23-.32.38c-.08.15-.13.3-.15.47-.02.16,0,.33.04.49.05.16.12.31.22.44.1.13.23.24.38.32l5.63,3.13-5.66,3.28c-.24.14-.43.36-.53.61-.1.25-.12.54-.05.81.07.27.23.5.45.67.22.17.49.26.77.26.22,0,.44-.06.63-.17l7.58-4.4c.19-.11.35-.27.47-.47.11-.19.17-.41.16-.64,0-.22-.06-.44-.18-.64-.11-.2-.27-.36-.47-.47Z"/>
  <path class="cls-1" d="M26.73,42.04l-5.63-3.13,5.66-3.28c.15-.08.27-.19.37-.33.1-.13.18-.28.22-.44s.05-.33.03-.49-.08-.32-.16-.47c-.08-.15-.19-.27-.33-.37-.13-.1-.28-.18-.44-.22-.16-.04-.33-.05-.49-.03-.16.02-.32.08-.47.16l-7.58,4.4c-.19.11-.35.27-.47.47-.11.19-.17.41-.16.64,0,.22.06.44.18.64.11.19.28.35.47.46l7.58,4.21c.29.16.64.2.96.11.32-.09.59-.31.76-.6s.2-.64.11-.96c-.1-.32-.32-.59-.61-.75Z"/>
  <path class="cls-1" d="M34.22,31.39c-.14-.09-.29-.16-.45-.2s-.33-.04-.49-.02c-.16.02-.32.08-.46.18-.14.08-.26.2-.36.34-.1.13-.16.29-.2.45l-2.98,12.83c-.04.16-.04.33-.02.5.03.16.08.32.18.46.09.14.21.26.34.36.13.1.29.16.45.2l.28.03c.28,0,.56-.1.79-.27.22-.18.38-.42.44-.7l2.98-12.83c.04-.16.04-.33.02-.5-.03-.16-.08-.32-.18-.46-.09-.14-.21-.26-.34-.36Z"/>
  <path class="cls-1" d="M17.47,15.92c.51.28,1.64.38,2.52.21l6.26-1.14c.42-.07.71-.19.84-.33.06-.06.09-.13.08-.19,0-.05-.02-.09-.07-.14-.12-.14-.42-.27-.86-.35l-6.26-1.14c-.88-.16-2.01-.07-2.52.21-.51.28-.21.63.67.79l3.5.64-3.5.64c-.88.16-1.19.51-.67.79Z"/>
  <path class="cls-1" d="M28.79,15.73c-.36-.01-.73.01-1.07.08l-6.26,1.14c-.88.16-1.18.52-.67.79s1.64.38,2.52.21l3.51-.64v1.28c0,.32.82.58,1.85.58s1.84-.26,1.84-.58v-2.28c0-.3-.76-.56-1.71-.58Z"/>
  <path class="cls-1" d="M35.2,13.25c.36.01.73-.01,1.07-.08l6.26-1.14c.88-.16,1.18-.51.67-.79-.51-.28-1.64-.38-2.51-.21l-3.51.64v-1.28c0-.32-.82-.58-1.85-.58s-1.84.26-1.84.58v2.28c0,.3.75.55,1.71.58Z"/>
  <path class="cls-1" d="M21.45,12.03l6.26,1.14c.34.06.71.08,1.07.08.95-.02,1.71-.27,1.71-.58v-2.28c0-.32-.83-.58-1.84-.58s-1.85.26-1.85.58v1.28l-3.51-.64c-.88-.16-2.01-.07-2.52.21-.51.28-.21.64.67.8Z"/>
  <path class="cls-1" d="M28.55,14.37v.24s.06.08.13.1l2.6.82c.07.02.22.04.33.04h.76c.11,0,.25-.02.33-.04l2.6-.82c.07-.02.13-.07.13-.1v-.24s-.06-.08-.13-.1l-2.6-.82c-.07-.02-.22-.04-.33-.04h-.76c-.1,0-.25.02-.33.04l-2.6.82c-.07.02-.13.07-.13.1ZM30.76,14.49s.06-.08.13-.1l.75-.24c.07-.02.22-.04.33-.04h.03c.1,0,.25.02.33.04l.75.24c.07.02.14.07.14.1h0s-.06.09-.14.12l-.75.24c-.07.02-.22.04-.33.04h-.03c-.1,0-.25-.02-.33-.04l-.75-.24c-.07-.02-.13-.07-.13-.1h0Z"/>
  <path class="cls-1" d="M42.53,16.95l-6.26-1.14c-.34-.06-.71-.08-1.07-.08-.96.02-1.71.27-1.71.58v2.28c0,.32.82.58,1.84.58s1.85-.26,1.85-.58v-1.28l3.51.64c.88.16,2.01.07,2.51-.21.51-.27.21-.63-.67-.79Z"/>
  <path class="cls-1" d="M36.88,14.33s-.06.09-.07.14c0,.06.02.13.08.19.13.13.42.25.84.33l6.26,1.14c.88.16,2.01.07,2.52-.21.51-.28.21-.63-.67-.79l-3.5-.64,3.5-.64c.88-.16,1.19-.52.67-.8-.51-.28-1.64-.38-2.52-.21l-6.26,1.14c-.44.08-.73.21-.85.35Z"/>
</svg>