<?xml version="1.0" encoding="UTF-8"?>
<svg id="uuid-5f4cade9-7b8a-4580-9091-4f1f7cc6f52f" data-name="Layer 3" xmlns="http://www.w3.org/2000/svg" width="64" height="64" xmlns:xlink="http://www.w3.org/1999/xlink" viewBox="0 0 64 64">
  <defs>
    <style>
      .uuid-09199610-97d5-43b2-9d94-356b37401183 {
        fill: none;
      }

      .uuid-2d25bba3-0799-474d-95d4-9ea83d8702e0 {
        fill: #29b5e8;
        fill-rule: evenodd;
      }

      .uuid-cd63cf8c-e366-4067-81c5-f9ccefb3df55 {
        clip-path: url(#uuid-401ae27c-97cc-4bc6-9211-9858380a272b);
      }

      .uuid-e23e1183-78e7-4f71-a084-d9c52783ef42 {
        clip-path: url(#uuid-8c7fe27d-7c53-4eb4-8a8c-c2cc0ba460e4);
      }

      .uuid-e1cf976c-666f-4326-b0fd-0927bad87da1 {
        clip-path: url(#uuid-38725e19-a380-4ae6-b85c-c28e40766cf5);
      }
    </style>
    <clipPath id="uuid-8c7fe27d-7c53-4eb4-8a8c-c2cc0ba460e4">
      <rect class="uuid-09199610-97d5-43b2-9d94-356b37401183" x="10.6" y="4.18" width="42.79" height="55.64" rx="6.96" ry="6.96"/>
    </clipPath>
    <clipPath id="uuid-38725e19-a380-4ae6-b85c-c28e40766cf5">
      <rect class="uuid-09199610-97d5-43b2-9d94-356b37401183" x="10.6" y="4.18" width="42.79" height="55.64"/>
    </clipPath>
    <clipPath id="uuid-401ae27c-97cc-4bc6-9211-9858380a272b">
      <rect class="uuid-09199610-97d5-43b2-9d94-356b37401183" x="10.6" y="4.18" width="42.8" height="55.64"/>
    </clipPath>
  </defs>
  <g class="uuid-e23e1183-78e7-4f71-a084-d9c52783ef42">
    <g class="uuid-e1cf976c-666f-4326-b0fd-0927bad87da1">
      <g class="uuid-cd63cf8c-e366-4067-81c5-f9ccefb3df55">
        <g>
          <path class="uuid-2d25bba3-0799-474d-95d4-9ea83d8702e0" d="M21.84,41.47l-3.91,11.59,3.8-1.6c.17-.08.36-.12.55-.12.47,0,.93.25,1.19.66l2.08,3.5,3.82-11.39c-.74.19-1.55.35-2.38.35-.53,0-1.08-.06-1.64-.23-1.61-.52-2.68-1.74-3.53-2.78ZM42.29,41.26h-.02c-.87,1.1-1.98,2.45-3.7,2.99-.55.17-1.08.25-1.61.25-.74,0-1.44-.12-2.12-.29l3.8,11.3,2.1-3.5c.25-.41.72-.66,1.19-.66.19,0,.36.04.55.1l3.8,1.62-3.99-11.8ZM26.98,8.43c-.11,0-.21,0-.32.04-.49.15-1.06.87-1.64,1.58-.59.73-1.25,1.53-2.12,2.16-.87.62-1.87,1-2.78,1.31-.85.31-1.72.64-2.02,1.02-.28.37-.32,1.33-.36,2.18-.04.93-.11,1.99-.42,2.99-.32.97-.91,1.85-1.42,2.59-.51.77-1.04,1.53-1.04,2.05s.53,1.31,1.04,2.05c.53.77,1.1,1.62,1.42,2.59.32,1.02.38,2.07.42,2.99.04.85.08,1.8.36,2.18.3.39,1.17.73,2.02,1.02.89.31,1.89.71,2.78,1.31.87.62,1.53,1.43,2.12,2.16.57.71,1.17,1.45,1.64,1.58.08.02.17.04.28.04.49,0,1.23-.19,1.89-.37.93-.25,2-.52,3.1-.52s2.17.27,3.12.52c.66.19,1.4.37,1.89.37.11,0,.21,0,.3-.04.49-.15,1.06-.87,1.64-1.58.59-.73,1.25-1.53,2.12-2.16.87-.62,1.87-1,2.78-1.31.85-.31,1.74-.62,2.04-1.02.28-.37.32-1.33.36-2.18.04-.93.09-1.99.42-2.99.32-.97.91-1.85,1.42-2.59.51-.77,1.04-1.53,1.04-2.05s-.53-1.31-1.04-2.05c-.53-.75-1.1-1.62-1.42-2.59-.34-1-.38-2.07-.42-2.99-.04-.85-.08-1.8-.36-2.18-.3-.37-1.19-.73-2.04-1.02-.89-.31-1.89-.71-2.78-1.31-.87-.62-1.55-1.43-2.12-2.16-.57-.71-1.17-1.43-1.66-1.58-.08-.02-.19-.04-.3-.04-.49,0-1.21.19-1.87.37-.93.25-2,.52-3.1.52s-2.17-.27-3.1-.52c-.66-.19-1.38-.37-1.87-.37ZM26.98,4.22c1.06,0,2.08.27,3.02.54.74.19,1.42.37,1.98.37s1.23-.19,1.98-.37c.93-.25,1.95-.54,3.02-.54.53,0,1.08.06,1.64.25,1.72.54,2.8,1.89,3.67,2.97.45.54.89,1.08,1.3,1.37.4.29,1.06.52,1.76.79,1.32.48,2.93,1.08,3.99,2.49,1.04,1.39,1.1,3.03,1.19,4.46.02.75.06,1.41.21,1.91.15.44.53.97.91,1.58.79,1.14,1.76,2.57,1.76,4.38s-.98,3.21-1.76,4.36c-.38.6-.76,1.14-.91,1.58-.17.48-.19,1.18-.21,1.91-.06,1.43-.15,3.05-1.19,4.44-1.04,1.41-2.68,2.01-3.99,2.49-.25.08-.51.19-.74.27l5.12,15.22c.28.83-.19,1.72-1.04,1.99-.15.04-.28.06-.42.06-.19,0-.36-.04-.53-.12l-5.18-2.2-2.87,4.75c-.17.27-.42.5-.74.6-.17.04-.34.08-.53.08-.26,0-.49-.04-.7-.17-.38-.19-.68-.52-.83-.91l-4.76-14.1-4.74,14.1c-.13.39-.42.73-.83.91-.21.1-.47.17-.7.17-.19,0-.34-.02-.53-.08-.32-.1-.59-.31-.74-.6l-2.87-4.75-5.18,2.2c-.17.08-.36.12-.55.12-.13,0-.28-.02-.4-.06-.85-.27-1.32-1.16-1.04-1.99l5.1-15.14c-.28-.12-.62-.25-.96-.37-1.32-.48-2.93-1.08-3.97-2.49-1.04-1.39-1.1-3.03-1.19-4.44-.04-.75-.06-1.43-.21-1.91-.15-.44-.53-.97-.91-1.58-.79-1.16-1.76-2.59-1.76-4.38s.98-3.21,1.76-4.38c.38-.6.76-1.14.91-1.58.15-.48.19-1.18.21-1.91.06-1.43.15-3.05,1.19-4.46,1.04-1.41,2.68-1.99,3.97-2.49.7-.27,1.34-.5,1.76-.79.4-.27.83-.83,1.27-1.37.87-1.08,1.95-2.43,3.67-2.97.55-.19,1.1-.25,1.64-.25l-.02.04Z"/>
          <path class="uuid-2d25bba3-0799-474d-95d4-9ea83d8702e0" d="M38.7,18.45l-.17.12-8.84,7.88-.13.08-.38.04-.17-.12-3.97-3.01-.21-.12-.38.04-.17.17-1.34,1.66-.08.17.04.37.13.15,5.27,4.29.3.21.64.21h.64l.64-.25.25-.21,10.17-9.15.13-.17v-.41l-.13-.17-1.68-1.66-.17-.12h-.38Z"/>
        </g>
      </g>
    </g>
  </g>
</svg>