<?xml version="1.0" encoding="UTF-8"?>
<svg id="Expanded_Icons" data-name="Expanded Icons" xmlns="http://www.w3.org/2000/svg" viewBox="0 0 64 64">
  <defs>
    <style>
      .cls-1 {
        fill: #29b5e8;
        stroke-width: 0px;
      }
    </style>
  </defs>
  <path class="cls-1" d="M49.6,35.45c0-2.39-1.17-4.49-2.95-5.82V11.94c0-2.43-1.62-4.57-3.84-5.11-1.43-.34-2.88-.05-4.06.75-.83-1.68-2.54-2.85-4.54-2.85s-3.69,1.16-4.53,2.83c-.81-.55-1.79-.88-2.84-.88-2.8,0-5.07,2.27-5.07,5.07v10.98c-.69-.36-1.47-.58-2.3-.58-2.8,0-5.07,2.27-5.07,5.07v17.41c0,2.56.56,5.02,1.64,7.32v7.38c0,.77.62,1.39,1.39,1.39h29.18c.77,0,1.39-.62,1.39-1.39v-7.55s-.02-.09-.03-.13c1.05-2.32,1.63-4.85,1.63-7.4v-8.81ZM40.16,9.95c.57-.45,1.28-.6,2.01-.42.99.24,1.71,1.25,1.71,2.41v16.41c-.5-.11-1.02-.18-1.56-.18h-3.03V11.76c0-.71.32-1.37.88-1.8ZM31.91,9.8c0-1.27,1.03-2.3,2.3-2.3s2.3,1.03,2.3,2.3v18.36h-4.59V9.8ZM24.54,11.76c0-1.27,1.03-2.3,2.3-2.3s2.3,1.03,2.3,2.3v16.41h-.09c-.77,0-1.39.62-1.39,1.39v1.57c0,3.15,2.56,5.71,5.71,5.71h4.6v1.67h-4.51c-4.14,0-7.75,2.94-8.58,6.99-.15.75.33,1.48,1.08,1.64.73.15,1.48-.33,1.64-1.08.57-2.77,3.03-4.77,5.86-4.77h5.89c.77,0,1.39-.62,1.39-1.39v-4.44c0-.77-.62-1.39-1.39-1.39h-5.99c-1.62,0-2.94-1.32-2.94-2.94v-.18h11.88c2.49,0,4.51,2.02,4.51,4.51v8.81c0,2.12-.47,4.21-1.33,6.15h-27.11c-.79-1.82-1.21-3.75-1.21-5.76v-6.66c.69.36,1.47.58,2.3.58,2.8,0,5.07-2.27,5.07-5.07V11.76ZM17.18,27.23c0-1.27,1.03-2.3,2.3-2.3s2.3,1.03,2.3,2.3v6.25c0,1.27-1.03,2.3-2.3,2.3s-2.3-1.03-2.3-2.3v-6.25ZM45.22,57.96h-26.41v-4.78h26.41v4.78Z"/>
</svg>