<?xml version="1.0" encoding="UTF-8"?>
<svg id="Expanded_Icons" data-name="Expanded Icons" xmlns="http://www.w3.org/2000/svg" viewBox="0 0 64 64">
  <defs>
    <style>
      .cls-1 {
        fill: #29b5e8;
        stroke-width: 0px;
      }
    </style>
  </defs>
  <path class="cls-1" d="M35.62,34.27c.26.47.85.62,1.32.36l3.29-1.89c.23-.18.39-.36.44-.59.03-.1.05-.21.05-.31,0-.08-.03-.16-.03-.23-.08-.23-.21-.44-.44-.57l-3.31-1.89c-.47-.26-1.06-.1-1.32.36-.26.47-.1,1.06.36,1.32l1.84,1.06-1.84,1.06c-.47.26-.62.85-.36,1.32Z"/>
  <path class="cls-1" d="M40.53,25.06v2.12l-1.84-1.06c-.47-.26-1.06-.1-1.32.36-.28.44-.13,1.03.34,1.29l3.29,1.89c.18.1.36.13.57.13.49-.03.91-.47.91-.96v-3.78c0-.54-.44-.96-.96-.96-.54,0-.98.44-.98.96Z"/>
  <path class="cls-1" d="M44.02,34.89v3.78c0,.54.44.96.96.96.54,0,.98-.44.98-.96v-2.12l1.84,1.06c.47.26,1.06.1,1.32-.36.28-.44.13-1.03-.34-1.32l-3.29-1.89c-.18-.1-.39-.13-.57-.1-.49.03-.91.47-.91.96Z"/>
  <path class="cls-1" d="M41.56,33.93c-.18-.03-.39.03-.57.13l-3.29,1.89c-.47.26-.62.85-.36,1.32.26.47.85.62,1.32.36l1.84-1.06v2.12c0,.54.44.96.98.96s.96-.44.96-.96v-3.8c0-.52-.39-.93-.88-.96Z"/>
  <path class="cls-1" d="M49.14,26.46c-.26-.47-.85-.62-1.32-.36l-1.84,1.06v-2.1c0-.54-.44-.96-.98-.96s-.98.41-.98.96v3.78c0,.52.41.93.91.96.18.03.39-.03.57-.13l3.29-1.89c.47-.26.62-.85.36-1.32Z"/>
  <path class="cls-1" d="M43.14,33.67h.31c.05,0,.13-.05.16-.08l1.37-1.37c.05-.03.08-.1.13-.16v-.41c0-.08-.03-.13-.08-.18l-1.37-1.37c-.05-.05-.13-.08-.18-.08h-.41c-.05,0-.13.03-.18.08l-1.37,1.37c-.05.05-.08.13-.08.18v.41c0,.05.03.13.05.16l1.37,1.37c.05.05.13.08.18.08h.1ZM42.68,32.04c-.05-.05-.08-.13-.08-.18s.03-.13.08-.18l.39-.39c.05-.05.13-.08.18-.08.08,0,.13.03.18.08l.39.39c.05.05.08.13.08.18s-.03.13-.08.18l-.39.39c-.05.05-.13.08-.18.08-.08,0-.13-.03-.18-.08l-.39-.39Z"/>
  <path class="cls-1" d="M50.85,29.53c-.26-.47-.85-.62-1.32-.36l-3.29,1.89c-.21.13-.36.34-.44.57,0,.08-.03.16-.03.23,0,.1.03.21.05.31.08.21.23.41.44.54l3.29,1.89c.47.26,1.06.1,1.32-.36s.1-1.06-.36-1.32l-1.84-1.06,1.84-1.06c.47-.26.65-.85.34-1.27Z"/>
  <path class="cls-1" d="M56.12,21.98c2.17,0,3.93-1.76,3.93-3.93s-1.76-3.93-3.93-3.93-3.93,1.76-3.93,3.93,1.76,3.93,3.93,3.93Z"/>
  <path class="cls-1" d="M46.7,21.98c2.17,0,3.93-1.76,3.93-3.93s-1.76-3.93-3.93-3.93-3.93,1.76-3.93,3.93,1.76,3.93,3.93,3.93Z"/>
  <path class="cls-1" d="M37.27,21.98c2.17,0,3.93-1.76,3.93-3.93s-1.76-3.93-3.93-3.93-3.93,1.76-3.93,3.93,1.76,3.93,3.93,3.93Z"/>
  <path class="cls-1" d="M56.12,42.12c-2.17,0-3.93,1.76-3.93,3.93s1.76,3.93,3.93,3.93,3.93-1.76,3.93-3.93-1.76-3.93-3.93-3.93Z"/>
  <path class="cls-1" d="M37.27,42.12c-2.17,0-3.93,1.76-3.93,3.93s1.76,3.93,3.93,3.93,3.93-1.76,3.93-3.93-1.76-3.93-3.93-3.93Z"/>
  <path class="cls-1" d="M56.12,32.78c-2.17,0-3.93,1.76-3.93,3.93s1.76,3.93,3.93,3.93,3.93-1.76,3.93-3.93-1.76-3.93-3.93-3.93Z"/>
  <path class="cls-1" d="M56.06,23.74c-2.03,0-3.68,1.65-3.68,3.68s1.65,3.68,3.68,3.68,3.68-1.65,3.68-3.68-1.65-3.68-3.68-3.68ZM56.06,28.61c-.65,0-1.18-.53-1.18-1.18s.53-1.18,1.18-1.18,1.18.53,1.18,1.18-.53,1.18-1.18,1.18Z"/>
  <path class="cls-1" d="M46.7,42.59c-2.03,0-3.68,1.65-3.68,3.68s1.65,3.68,3.68,3.68,3.68-1.65,3.68-3.68-1.65-3.68-3.68-3.68ZM46.7,47.46c-.65,0-1.18-.53-1.18-1.18s.53-1.18,1.18-1.18,1.18.53,1.18,1.18-.53,1.18-1.18,1.18Z"/>
  <path class="cls-1" d="M13.38,29.13h2.71c.69,0,1.25-.56,1.25-1.25s-.56-1.25-1.25-1.25h-2.71c-.69,0-1.25.56-1.25,1.25s.56,1.25,1.25,1.25Z"/>
  <path class="cls-1" d="M21.72,29.13h6.1c.69,0,1.25-.56,1.25-1.25s-.56-1.25-1.25-1.25h-6.1c-.69,0-1.25.56-1.25,1.25s.56,1.25,1.25,1.25Z"/>
  <path class="cls-1" d="M32.45,28.41c.07.05.14.09.22.12.08.03.15.05.23.07.08.01.17.02.25.02.33,0,.65-.13.88-.36.23-.24.37-.56.37-.89s-.14-.65-.37-.88c-.29-.29-.72-.42-1.13-.34-.08,0-.15.04-.23.07-.08.03-.15.07-.22.11-.06.05-.13.1-.19.16-.23.23-.36.55-.36.88s.13.65.36.89c.06.05.13.11.19.15Z"/>
  <path class="cls-1" d="M7.74,31.22h-2.31c-.69,0-1.25.56-1.25,1.25s.56,1.25,1.25,1.25h2.31c.69,0,1.25-.56,1.25-1.25s-.56-1.25-1.25-1.25Z"/>
  <path class="cls-1" d="M13.38,33.72h15.79c.69,0,1.25-.56,1.25-1.25s-.56-1.25-1.25-1.25h-15.79c-.69,0-1.25.56-1.25,1.25s.56,1.25,1.25,1.25Z"/>
  <path class="cls-1" d="M22.3,36h-9.93c-.69,0-1.25.56-1.25,1.25s.56,1.25,1.25,1.25h9.93c.69,0,1.25-.56,1.25-1.25s-.56-1.25-1.25-1.25Z"/>
  <path class="cls-1" d="M34.41,37.25c0-.69-.56-1.25-1.25-1.25h-6.29c-.69,0-1.25.56-1.25,1.25s.56,1.25,1.25,1.25h6.29c.69,0,1.25-.56,1.25-1.25Z"/>
</svg>