<?xml version="1.0" encoding="UTF-8"?>
<svg id="Expanded_Icons" data-name="Expanded Icons" xmlns="http://www.w3.org/2000/svg" viewBox="0 0 64 64">
  <defs>
    <style>
      .cls-1 {
        fill: #29b5e8;
        stroke-width: 0px;
      }
    </style>
  </defs>
  <path class="cls-1" d="M32,21.98c-8.82,0-16,7.18-16,16s7.18,16,16,16,16-7.18,16-16-7.18-16-16-16ZM32,51.48c-7.44,0-13.5-6.06-13.5-13.5s6.06-13.5,13.5-13.5,13.5,6.06,13.5,13.5-6.06,13.5-13.5,13.5Z"/>
  <path class="cls-1" d="M38.14,16.42v-2.67h.03c.69,0,1.25-.56,1.25-1.25v-6.96c0-.69-.56-1.25-1.25-1.25h-12.34c-.69,0-1.25.56-1.25,1.25v6.96c0,.69.56,1.25,1.25,1.25h.06v2.66c-9.4,2.67-16.31,11.33-16.31,21.57,0,12.37,10.06,22.42,22.42,22.42s22.42-10.06,22.42-22.42c0-10.24-6.9-18.88-16.28-21.56ZM27.08,6.78h9.84v4.46h-9.84v-4.46ZM28.38,13.75h7.26v2.11c-1.19-.19-2.4-.3-3.64-.3s-2.44.1-3.62.3v-2.1ZM32,56.4c-10.16,0-18.42-8.27-18.42-18.42s8.27-18.42,18.42-18.42,18.42,8.27,18.42,18.42-8.27,18.42-18.42,18.42Z"/>
  <path class="cls-1" d="M35.81,32.53l-4.69,4.55c-.24.24-.38.56-.38.9v9.49c0,.69.56,1.25,1.25,1.25s1.25-.56,1.25-1.25v-8.96l4.31-4.19c.5-.48.51-1.27.03-1.77-.48-.5-1.27-.51-1.77-.03Z"/>
</svg>