<?xml version="1.0" encoding="UTF-8"?>
<svg id="Expanded_Icons" data-name="Expanded Icons" xmlns="http://www.w3.org/2000/svg" viewBox="0 0 64 64">
  <defs>
    <style>
      .cls-1 {
        fill: #29b5e8;
        stroke-width: 0px;
      }
    </style>
  </defs>
  <path class="cls-1" d="M54.61,9.33c-.17-.67-.84-1.07-1.52-.91l-9.68,2.42c-.42.11-.76.43-.89.84l-1.22,3.94h-18.38c-.54,0-1.06.22-1.44.61-.38.39-.58.92-.56,1.46l1.46,39.94c.04,1.08.92,1.93,2,1.93h22.26c1.08,0,1.96-.85,2-1.93l1.45-39.94c.02-.54-.18-1.07-.56-1.46-.38-.39-.9-.61-1.44-.61h-4.18l.78-2.52,9-2.25c.67-.17,1.08-.85.91-1.52ZM40.05,19.62l-4.13,13.31c-1.02-.13-2.02-.29-2.98-.44-2.77-.43-5.25-.81-7.49-.48l-.45-12.4h15.06ZM26.3,55.56l-.77-21.02c1.9-.36,4.22-.01,7.01.43.83.13,1.71.26,2.62.38l-4.75,15.3c-.21.66.16,1.36.82,1.56.12.04.25.06.37.06.53,0,1.03-.34,1.19-.88l4.9-15.77c1.01.09,2.05.15,3.14.15,1.47,0,3.01-.11,4.6-.36l-.73,20.13h-18.4ZM46.02,19.62l-.48,13.24c-2.52.45-4.87.48-7.08.32l4.21-13.57h3.35Z"/>
  <path class="cls-1" d="M17.22,24.96c-3.31-1.65-5.36-4.95-5.36-8.59,0-5.32,4.33-9.64,9.64-9.64,3.65,0,6.94,2.05,8.59,5.36.31.62,1.06.87,1.68.56.62-.31.87-1.06.56-1.68-2.08-4.16-6.23-6.74-10.83-6.74-6.7,0-12.14,5.45-12.14,12.14,0,4.6,2.58,8.75,6.74,10.83.18.09.37.13.56.13.46,0,.9-.25,1.12-.69.31-.62.06-1.37-.56-1.68Z"/>
  <path class="cls-1" d="M16.98,16.7l-2.42,2.42c-.49.49-.49,1.28,0,1.77.24.24.56.37.88.37s.64-.12.88-.37l2.42-2.42c.49-.49.49-1.28,0-1.77s-1.28-.49-1.77,0Z"/>
  <path class="cls-1" d="M24.25,9.43l-2.42,2.42c-.49.49-.49,1.28,0,1.77.24.24.56.37.88.37s.64-.12.88-.37l2.42-2.42c.49-.49.49-1.28,0-1.77s-1.28-.49-1.77,0Z"/>
  <path class="cls-1" d="M17.56,10.66c-.48-.5-1.27-.51-1.77-.03-.5.48-.51,1.27-.03,1.77l2.42,2.5c.25.25.57.38.9.38s.63-.12.87-.35c.5-.48.51-1.27.03-1.77l-2.42-2.5Z"/>
</svg>