<?xml version="1.0" encoding="UTF-8"?>
<svg id="Expanded_Icons" data-name="Expanded Icons" xmlns="http://www.w3.org/2000/svg" viewBox="0 0 64 64">
  <defs>
    <style>
      .cls-1 {
        fill: #29b5e8;
        stroke-width: 0px;
      }
    </style>
  </defs>
  <path class="cls-1" d="M18.22,15.48l3.51.71-3.51.71c-.89.18-1.19.58-.68.89.51.31,1.64.42,2.53.24l6.28-1.27c.42-.09.71-.22.84-.37.06-.07.09-.14.08-.21,0-.05-.03-.1-.07-.15-.12-.16-.42-.3-.86-.39l-6.28-1.27c-.89-.18-2.02-.07-2.53.24-.51.31-.21.71.68.89Z"/>
  <path class="cls-1" d="M21.54,13.45l6.29,1.27c.34.07.71.1,1.07.08.96-.02,1.71-.31,1.71-.65v-2.55c0-.36-.83-.65-1.85-.65s-1.85.29-1.85.65v1.43l-3.52-.71c-.88-.18-2.01-.07-2.53.24-.51.31-.21.71.68.89Z"/>
  <path class="cls-1" d="M35.34,14.81c.36.01.73-.02,1.07-.08l6.29-1.27c.89-.18,1.19-.58.68-.89-.51-.31-1.64-.42-2.53-.24l-3.52.71v-1.43c0-.36-.83-.65-1.85-.65s-1.85.29-1.85.65v2.55c0,.34.75.62,1.71.65Z"/>
  <path class="cls-1" d="M28.9,17.58c-.36-.01-.74.02-1.07.08l-6.29,1.27c-.88.18-1.19.58-.68.89.51.31,1.64.42,2.53.24l3.52-.71v1.42c0,.36.83.65,1.85.65s1.85-.29,1.85-.65v-2.55c0-.34-.76-.62-1.71-.65Z"/>
  <path class="cls-1" d="M28.66,16.06v.27s.06.09.14.11l2.61.92c.08.03.22.05.33.05h.77c.11,0,.25-.02.33-.05l2.61-.92c.07-.03.14-.08.14-.11v-.27s-.06-.09-.14-.12l-2.61-.92c-.07-.03-.22-.05-.33-.05h-.77c-.11,0-.25.02-.33.05l-2.61.92c-.07.03-.14.08-.14.12ZM30.89,16.19s.06-.09.13-.12l.76-.26c.07-.03.22-.05.33-.05h.03c.11,0,.25.02.33.05l.76.26c.07.03.14.08.14.12h0s-.06.1-.14.12l-.76.27c-.07.03-.22.05-.33.05h-.03c-.11,0-.25-.02-.33-.05l-.76-.27c-.08-.03-.13-.08-.13-.11h0Z"/>
  <path class="cls-1" d="M42.7,18.94l-6.29-1.27c-.34-.07-.71-.1-1.07-.08-.96.02-1.71.3-1.71.65v2.55c0,.36.83.65,1.85.65s1.85-.29,1.85-.65v-1.42l3.52.71c.88.18,2.02.07,2.53-.24.51-.31.21-.71-.68-.89Z"/>
  <path class="cls-1" d="M37.03,16.02c-.04.05-.06.1-.07.15,0,.07.02.14.08.21.13.15.42.29.84.37l6.29,1.27c.88.18,2.02.07,2.53-.24.51-.31.21-.71-.68-.89l-3.51-.71,3.51-.71c.89-.18,1.19-.58.68-.89-.51-.31-1.64-.42-2.53-.24l-6.29,1.27c-.44.09-.73.23-.86.39Z"/>
  <path class="cls-1" d="M31.94,5.37c-14.98,0-26.28,4.67-26.28,10.86v31.68c0,6.19,11.3,10.86,26.28,10.86s26.28-4.67,26.28-10.86v-31.68c0-6.19-11.3-10.86-26.28-10.86ZM55.72,37.41c0,3.95-9.76,8.36-23.78,8.36s-23.78-4.41-23.78-8.36v-6.19c4.13,3.66,13,6.08,23.78,6.08s19.65-2.42,23.78-6.08v6.19ZM55.72,26.43c0,3.95-9.76,8.36-23.78,8.36s-23.78-4.41-23.78-8.36v-5.42c4.13,3.66,13,6.08,23.78,6.08s19.65-2.42,23.78-6.08v5.42ZM31.94,7.87c14.01,0,23.78,4.41,23.78,8.36s-9.76,8.36-23.78,8.36-23.78-4.41-23.78-8.36S17.93,7.87,31.94,7.87ZM31.94,56.27c-14.01,0-23.78-4.41-23.78-8.36v-5.73c4.13,3.66,13,6.08,23.78,6.08s19.65-2.42,23.78-6.08v5.73c0,3.95-9.76,8.36-23.78,8.36Z"/>
</svg>