<?xml version="1.0" encoding="UTF-8"?>
<svg id="Expanded_Icons" data-name="Expanded Icons" xmlns="http://www.w3.org/2000/svg" viewBox="0 0 64 64">
  <defs>
    <style>
      .cls-1 {
        fill: #29b5e8;
        stroke-width: 0px;
      }
    </style>
  </defs>
  <path class="cls-1" d="M34.38,36.65l-3.96-2.27c-.21-.12-.45-.17-.67-.15-.6.04-1.08.54-1.08,1.15v4.55c0,.64.52,1.16,1.16,1.16s1.17-.52,1.17-1.16v-2.54l2.21,1.27c.56.32,1.27.13,1.59-.42.32-.55.13-1.27-.43-1.59Z"/>
  <path class="cls-1" d="M29.75,29.29c.23.02.46-.03.67-.15l3.96-2.27c.56-.32.75-1.03.43-1.58-.32-.55-1.03-.74-1.59-.42l-2.21,1.27v-2.54c0-.64-.52-1.16-1.17-1.16s-1.16.52-1.16,1.16v4.55c0,.61.47,1.11,1.08,1.16Z"/>
  <path class="cls-1" d="M25.54,31.52v.48c0,.07.04.16.09.2l1.64,1.63s.14.09.21.09h.48c.07,0,.16-.04.21-.09l1.64-1.63s.08-.14.08-.2v-.48c0-.07-.04-.16-.08-.21l-1.64-1.63s-.14-.09-.21-.09h-.48c-.07,0-.16.04-.21.09l-1.64,1.63s-.09.14-.09.21ZM26.95,31.75c0-.07.04-.16.08-.21l.48-.47s.14-.09.2-.09h.02c.07,0,.16.04.21.09l.48.47s.09.14.09.21v.02c0,.07-.04.16-.09.2l-.48.47s-.14.09-.21.09h-.02c-.07,0-.16-.04-.2-.09l-.48-.47s-.08-.14-.08-.2v-.02Z"/>
  <path class="cls-1" d="M30.81,31.45c-.03.09-.04.18-.04.27,0,.13.01.25.05.38.08.27.26.51.53.66l3.96,2.27c.56.32,1.27.13,1.59-.42.32-.56.13-1.26-.43-1.58l-2.21-1.27,2.21-1.27c.56-.32.75-1.03.43-1.58-.32-.55-1.03-.74-1.59-.42l-3.96,2.27c-.27.16-.46.41-.54.7Z"/>
  <path class="cls-1" d="M25.7,34.23c-.23-.02-.46.03-.68.15l-3.96,2.27c-.56.32-.75,1.03-.43,1.59.32.55,1.03.74,1.59.42l2.22-1.27v2.54c0,.64.52,1.16,1.17,1.16s1.16-.52,1.16-1.16v-4.55c0-.61-.48-1.11-1.08-1.15Z"/>
  <path class="cls-1" d="M21.06,26.86l3.96,2.27c.21.12.45.17.68.15.6-.04,1.08-.55,1.08-1.16v-4.55c0-.64-.52-1.16-1.16-1.16s-1.17.52-1.17,1.16v2.54l-2.22-1.27c-.56-.32-1.27-.13-1.59.42-.32.56-.13,1.26.43,1.58Z"/>
  <path class="cls-1" d="M24.62,32.1c.04-.12.06-.25.05-.38,0-.09-.02-.18-.04-.27-.08-.28-.26-.54-.54-.7l-3.95-2.27c-.56-.32-1.27-.13-1.59.42-.32.55-.13,1.26.43,1.58l2.21,1.27-2.21,1.27c-.56.32-.75,1.03-.43,1.58.32.55,1.03.74,1.59.42l3.95-2.27c.27-.15.45-.39.53-.66Z"/>
  <path class="cls-1" d="M28.99,50.57v-2.52c8.43-.67,15.08-7.72,15.08-16.31,0-2.52-.59-4.9-1.61-7.03l2.18-1.26c.75.66,1.72,1.03,2.71,1.03.69,0,1.39-.18,2.04-.55,1.95-1.13,2.62-3.63,1.5-5.58-.55-.95-1.43-1.62-2.48-1.9-1.05-.28-2.16-.14-3.1.41-.95.55-1.62,1.43-1.9,2.48-.17.62-.17,1.25-.04,1.86l-2.18,1.26c-2.73-3.95-7.14-6.63-12.19-7.03v-2.52c1.62-.55,2.79-2.06,2.79-3.86,0-2.25-1.83-4.09-4.09-4.09s-4.09,1.83-4.09,4.09c0,1.8,1.17,3.31,2.79,3.86v2.52c-5.05.4-9.46,3.09-12.19,7.03l-2.17-1.25s-.01,0-.02,0c.34-1.67-.39-3.45-1.94-4.35-.95-.55-2.05-.69-3.1-.41-1.05.28-1.94.96-2.48,1.9-1.13,1.95-.46,4.46,1.5,5.58.63.36,1.33.55,2.04.55.36,0,.71-.05,1.06-.14.62-.17,1.17-.48,1.64-.89l2.19,1.26c-1.02,2.13-1.61,4.51-1.61,7.03s.59,4.9,1.61,7.03l-2.19,1.26c-.47-.41-1.02-.73-1.64-.9-1.05-.28-2.16-.14-3.1.41h0c-1.95,1.13-2.62,3.63-1.49,5.58.76,1.31,2.13,2.04,3.55,2.04.69,0,1.39-.18,2.04-.55.95-.54,1.62-1.43,1.9-2.48.17-.62.17-1.25.04-1.86l2.18-1.26c2.73,3.95,7.14,6.63,12.18,7.03v2.52c-1.62.55-2.79,2.06-2.79,3.86,0,2.25,1.83,4.09,4.09,4.09s4.09-1.83,4.09-4.09c0-1.8-1.17-3.31-2.79-3.86ZM45.82,19.97c.11-.41.37-.75.74-.96,0,0,0,0,0,0,.24-.14.52-.21.79-.21.14,0,.28.02.41.05.41.11.75.37.96.74.21.37.27.79.16,1.2-.11.41-.37.75-.74.96-.76.44-1.73.18-2.17-.58-.21-.37-.27-.79-.16-1.2ZM9.42,21.17c-.21.37-.55.63-.96.74-.41.11-.84.05-1.2-.16-.37-.21-.63-.55-.74-.96-.11-.41-.05-.84.16-1.2s.55-.63.96-.74c.14-.04.28-.05.41-.05.27,0,.55.07.79.21h0c.76.44,1.02,1.41.58,2.17ZM9.57,43.49c-.11.41-.37.75-.74.96-.37.21-.79.27-1.2.16-.41-.11-.75-.37-.96-.74-.44-.76-.18-1.73.58-2.17.37-.21.8-.27,1.2-.16.41.11.75.37.96.74.21.37.27.79.16,1.2ZM27.7,7.44c.88,0,1.59.71,1.59,1.59s-.71,1.59-1.59,1.59-1.59-.71-1.59-1.59.71-1.59,1.59-1.59ZM15.75,38.76s-.02-.09-.04-.13c-.03-.05-.08-.08-.11-.12-1.13-2.01-1.78-4.32-1.78-6.78s.63-4.72,1.74-6.71c.05-.06.1-.11.14-.18.03-.04.03-.1.05-.14,2.37-4.02,6.7-6.74,11.67-6.83.09.02.18.03.27.03s.18-.01.27-.03c4.96.1,9.28,2.81,11.66,6.81.01.03.01.07.03.11.05.1.12.19.2.27,1.1,1.98,1.72,4.26,1.72,6.69,0,7.56-6.08,13.72-13.61,13.87-.09-.02-.18-.03-.27-.03s-.18.01-.27.03c-4.97-.1-9.3-2.82-11.67-6.83ZM27.7,56.01c-.88,0-1.59-.71-1.59-1.59s.71-1.59,1.59-1.59,1.59.71,1.59,1.59-.71,1.59-1.59,1.59Z"/>
  <path class="cls-1" d="M9.29,36.44v-9.43c0-.69-.56-1.25-1.25-1.25s-1.25.56-1.25,1.25v9.43c0,.69.56,1.25,1.25,1.25s1.25-.56,1.25-1.25Z"/>
  <path class="cls-1" d="M46.1,27.09v7.13c0,.69.56,1.25,1.25,1.25s1.25-.56,1.25-1.25v-7.13c0-.69-.56-1.25-1.25-1.25s-1.25.56-1.25,1.25Z"/>
  <path class="cls-1" d="M22.52,49.99l-8.1-4.68c-.6-.35-1.36-.14-1.71.46-.35.6-.14,1.36.46,1.71l8.1,4.68c.2.11.41.17.62.17.43,0,.85-.22,1.08-.62.35-.6.14-1.36-.46-1.71Z"/>
  <path class="cls-1" d="M32.9,13.48l8.08,4.67c.2.11.41.17.62.17.43,0,.85-.22,1.08-.62.34-.6.14-1.36-.46-1.71l-8.08-4.67c-.6-.34-1.36-.14-1.71.46-.34.6-.14,1.36.46,1.71Z"/>
  <path class="cls-1" d="M39.97,45.89l-7.11,4.1c-.6.35-.8,1.11-.46,1.71.23.4.65.62,1.08.62.21,0,.43-.05.62-.17l7.11-4.1c.6-.35.8-1.11.46-1.71-.35-.6-1.11-.8-1.71-.46Z"/>
  <path class="cls-1" d="M13.8,18.31c.21,0,.43-.05.62-.17l8.07-4.66c.6-.35.8-1.11.46-1.71-.35-.6-1.11-.8-1.71-.46l-8.07,4.66c-.6.35-.8,1.11-.46,1.71.23.4.65.62,1.08.62Z"/>
  <path class="cls-1" d="M59,46.21h-.1v-2.41c0-3.59-2.84-6.29-6.61-6.29h-.78c-3.87,0-6.91,2.76-6.91,6.29v2.41h-.09c-.69,0-1.25.56-1.25,1.25v6.29c0,2.88,2.38,5.3,5.21,5.3h6.9c2.74,0,4.88-2.33,4.88-5.3v-6.29c0-.69-.56-1.25-1.25-1.25ZM47.11,43.8c0-2.38,2.24-3.79,4.41-3.79h.78c2.42,0,4.11,1.56,4.11,3.79v2.41h-9.3v-2.41ZM57.75,53.75c0,1.38-.89,2.8-2.38,2.8h-6.9c-1.42,0-2.71-1.34-2.71-2.8v-5.04h11.99v5.04Z"/>
  <path class="cls-1" d="M49.97,54.53c0,.79.65,1.44,1.44,1.44h.69c.79,0,1.44-.65,1.44-1.44v-1.4c.44-.46.69-1.06.69-1.71,0-1.36-1.11-2.47-2.47-2.47s-2.47,1.11-2.47,2.47c0,.64.25,1.25.69,1.71v1.4ZM51.75,50.45c.54,0,.97.44.97.97,0,.3-.14.58-.39.77-.19.14-.3.36-.3.6l.06,1.67-.63.06v-1.73c0-.23-.11-.46-.3-.6-.25-.19-.39-.47-.39-.77,0-.54.44-.97.97-.97Z"/>
</svg>