<?xml version="1.0" encoding="UTF-8"?>
<svg id="Layer_2" data-name="Layer 2" xmlns="http://www.w3.org/2000/svg" width="43.58" height="52.45" viewBox="0 0 43.58 52.45">
  <defs>
    <style>
      .cls-1 {
        fill: #5ab2e3;
      }
    </style>
  </defs>
  <g id="outlined">
    <g id="gen_2_warehouse" data-name="gen 2 warehouse">
      <path class="cls-1" d="M21.23,48.37c-.05,0-.11,0-.16-.02-.27-.08-.45-.34-.42-.62l.63-6.04h-2.99c-.17,0-.33-.07-.44-.21s-.16-.3-.13-.47l1.11-6.7c.05-.28.29-.48.57-.48h4.07c.2,0,.38.1.48.26s.13.37.05.55l-1.2,2.8h3.21c.2,0,.39.1.49.27.11.17.12.38.03.56l-4.79,9.77c-.1.2-.3.33-.52.33ZM18.98,40.53h2.95c.16,0,.32.07.43.19.11.12.16.29.15.45l-.36,3.43,2.94-6h-3.1c-.32,0-.58-.26-.58-.58v-.13c0-.08.02-.16.05-.23l1.14-2.67h-2.7l-.92,5.53Z"/>
      <path class="cls-1" d="M43.06,17.29L22.69.33c-.53-.44-1.29-.44-1.81,0L.51,17.29c-.32.27-.51.67-.51,1.09v25.49c0,.78.63,1.42,1.42,1.42h6.11v.99c0,4.01,7.35,6.17,14.26,6.17s14.26-2.16,14.26-6.17v-.99h6.11c.78,0,1.42-.63,1.42-1.42v-25.49c0-.42-.19-.82-.51-1.09ZM33.8,46.28c0,1.59-4.68,3.91-12.01,3.91s-12.01-2.32-12.01-3.91v-17.08c2.71,1.79,7.46,2.72,12.01,2.72s9.3-.93,12.01-2.72v17.08ZM9.78,25.75c0-1.59,4.68-3.91,12.01-3.91s12.01,2.32,12.01,3.91-4.68,3.92-12.01,3.92-12.01-2.33-12.01-3.92ZM40.74,42.45h-4.69v-16.7c0-4.01-7.35-6.18-14.26-6.18s-14.26,2.17-14.26,6.18v16.7H2.83v-23.41L21.79,3.26l18.95,15.78v23.41Z"/>
    </g>
  </g>
</svg>