<?xml version="1.0" encoding="UTF-8"?>
<svg id="outline" xmlns="http://www.w3.org/2000/svg" viewBox="0 0 64 64">
  <defs>
    <style>
      .cls-1 {
        fill: #29b5e8;
      }
    </style>
  </defs>
  <path class="cls-1" d="M32.672994821527027,11.213541267939945c.08203125-.0625.3232421875-.1611328125.43359375-.17822265625l5.1796875-.00146484375c.1064453125.01318359375.357421875.11767578125.4326171875.177734375l17.75390625,17.68994140625c.0703125.091796875.1826171875.36669921875.1953125.4482421875l.0029296875,5.18212890625c-.0166015625.10888671875-.1259765625.3720703125-.15625.42041015625l-2.544677734375,2.53704833984375c.522216796875.66162109375,1.13916015625,1.23358154296875,1.829833984375,1.705810546875l2.4892578125-2.48162841796875c.4765625-.48486328125.87890625-1.4619140625.87890625-2.1337890625v-5.22998046875c0-.689453125-.392578125-1.65869140625-.892578125-2.1787109375l-17.7734375-17.71142578125c-.490234375-.509765625-1.4697265625-.92431640625-2.18359375-.92431640625h-5.234375c-.7060546875,0-1.67578125.4013671875-2.1513671875.88525390625l-11.0531005859375,11.01556396484375h3.540771484375l9.2525634765625-9.22259521484375Z"/>
  <path class="cls-1" d="M41.497823923089527,49.924356697627445l-2.7877197265625,2.7794189453125c-.0810546875.06591796875-.330078125.1728515625-.396484375.18505859375l-5.18359375.00244140625c-.1103515625-.01611328125-.3701171875-.130859375-.4462890625-.193359375l-9.1666259765625-9.1356201171875h-3.5394287109375l10.9306640625,10.8958740234375c.5029296875.51318359375,1.4794921875.9306640625,2.17578125.9306640625h5.2294921875c.705078125,0,1.6796875-.416015625,2.15625-.91015625l2.703857421875-2.69561767578125c-.467529296875-.7032470703125-1.02880859375-1.33135986328125-1.6759033203125-1.85870361328125Z"/>
  <path class="cls-1" d="M58.016744821527027,42.857584236689945c-4.06640625-.90478515625-7.265625-4.185546875-8.15234375-8.35546875-.1513671875-.71826171875-.7646484375-1.22021484375-1.4921875-1.2216796875h-.001953125c-.7265625,0-1.3408203125.50048828125-1.4951171875,1.2177734375v.00244140625c-.8857421875,4.17138671875-4.0849609375,7.4521484375-8.154296875,8.357421875-.70703125.158203125-1.201171875.7744140625-1.201171875,1.49853515625s.494140625,1.34033203125,1.203125,1.4990234375c4.0673828125.90478515625,7.2666015625,4.185546875,8.15234375,8.359375.154296875.71728515625.7685546875,1.2177734375,1.4951171875,1.2177734375h.001953125c.7275390625-.00146484375,1.3408203125-.50341796875,1.4921875-1.2197265625.88671875-4.171875,4.0859375-7.45263671875,8.1533203125-8.357421875.7080078125-.158203125,1.2021484375-.7744140625,1.2021484375-1.4990234375s-.494140625-1.3408203125-1.203125-1.4990234375ZM48.370260446527027,50.830240486689945c-1.3134765625-2.8466796875-3.57421875-5.14599609375-6.369140625-6.4736328125,2.794921875-1.328125,5.0556640625-3.62744140625,6.369140625-6.4736328125,1.3125,2.84619140625,3.57421875,5.1455078125,6.3681640625,6.4736328125-2.7939453125,1.328125-5.0546875,3.626953125-6.3681640625,6.4736328125Z"/>
  <path class="cls-1" d="M11.308737009027027,27.489420174189945h23.171630859375l-.965576171875,1.07177734375c-.4619140625.51318359375-.4208984375,1.3037109375.091796875,1.765625.2392578125.21533203125.5380859375.3212890625.8369140625.3212890625.341796875,0,.681640625-.13916015625.9287109375-.4130859375l2.9130859375-3.2333984375c.4287109375-.4755859375.4287109375-1.1982421875,0-1.673828125l-2.7783203125-3.08349609375c-.462890625-.513671875-1.25390625-.55419921875-1.765625-.091796875-.5126953125.46240234375-.5537109375,1.25244140625-.091796875,1.765625l.96533203125,1.0712890625H11.308737009027027c-.6904296875,0-1.25.5595703125-1.25,1.25s.5595703125,1.25,1.25,1.25Z"/>
  <path class="cls-1" d="M27.141744821527027,40.080240486689945c-.4619140625.5126953125-.4208984375,1.30322265625.091796875,1.765625.2392578125.21533203125.5380859375.3212890625.8369140625.3212890625.3408203125,0,.681640625-.13916015625.9287109375-.4130859375l2.9140625-3.23291015625c.4287109375-.4755859375.4287109375-1.1982421875,0-1.673828125l-2.779296875-3.08349609375c-.4638671875-.5146484375-1.2529296875-.55419921875-1.765625-.091796875s-.5537109375,1.2529296875-.091796875,1.765625l.9658203125,1.0712890625h-12.3994140625c-.6904296875,0-1.25.5595703125-1.25,1.25s.5595703125,1.25,1.25,1.25h12.2646484375l-.9658203125,1.0712890625Z"/>
  <path class="cls-1" d="M18.171041696527027,31.999185799189945c0-.6904296875-.5595703125-1.25-1.25-1.25H5.697408884027027c-.6904296875,0-1.25.5595703125-1.25,1.25s.5595703125,1.25,1.25,1.25h11.2236328125c.6904296875,0,1.25-.5595703125,1.25-1.25Z"/>
</svg>