<?xml version="1.0" encoding="UTF-8"?>
<svg id="Expanded_Icons" data-name="Expanded Icons" xmlns="http://www.w3.org/2000/svg" viewBox="0 0 64 64">
  <defs>
    <style>
      .cls-1 {
        fill: #29b5e8;
        fill-rule: evenodd;
        stroke-width: 0px;
      }
    </style>
  </defs>
  <path class="cls-1" d="M32,4.54c-15.67,0-23.87,5.23-23.87,10.4v34.18c0,5.17,8.2,10.4,23.87,10.4s23.87-5.23,23.87-10.4V14.93c0-5.17-8.2-10.4-23.87-10.4ZM51.87,37.71c0,2.61-7.74,6.4-19.87,6.4s-19.87-3.79-19.87-6.4v-5.43c3.88,2.59,10.54,4.45,19.87,4.45s15.99-1.86,19.87-4.45v5.43ZM51.87,26.34c0,2.61-7.74,6.4-19.87,6.4s-19.87-3.79-19.87-6.4v-5.46c3.88,2.59,10.54,4.45,19.87,4.45s15.99-1.86,19.87-4.45v5.46ZM32,8.54c12.13,0,19.87,3.79,19.87,6.4s-7.74,6.4-19.87,6.4-19.87-3.79-19.87-6.4,7.74-6.4,19.87-6.4ZM32,55.51c-12.13,0-19.87-3.79-19.87-6.4v-5.46c3.88,2.59,10.54,4.45,19.87,4.45s15.99-1.86,19.87-4.45v5.46c0,2.61-7.74,6.4-19.87,6.4Z"/>
  <path class="cls-1" d="M17.48,16.36c.51.28,1.64.38,2.52.21l6.26-1.14c.42-.07.71-.19.84-.33.06-.06.09-.13.08-.19,0-.05-.02-.09-.07-.14-.12-.14-.42-.27-.86-.35l-6.26-1.14c-.88-.16-2.01-.07-2.52.21-.51.28-.21.63.67.79l3.5.64-3.5.64c-.88.16-1.19.51-.67.79Z"/>
  <path class="cls-1" d="M28.8,16.17c-.36-.01-.73.01-1.07.08l-6.26,1.14c-.88.16-1.18.52-.67.79.51.28,1.64.38,2.52.21l3.51-.64v1.28c0,.32.82.58,1.85.58s1.84-.26,1.84-.58v-2.28c0-.3-.76-.56-1.71-.58Z"/>
  <path class="cls-1" d="M35.21,13.7c.36.01.73-.01,1.07-.08l6.26-1.14c.88-.16,1.18-.51.67-.79-.51-.28-1.64-.38-2.51-.21l-3.51.64v-1.28c0-.32-.82-.58-1.85-.58s-1.84.26-1.84.58v2.28c0,.3.75.55,1.71.58Z"/>
  <path class="cls-1" d="M21.46,12.48l6.26,1.14c.34.06.71.08,1.07.08.95-.02,1.71-.27,1.71-.58v-2.28c0-.32-.83-.58-1.84-.58s-1.85.26-1.85.58v1.28l-3.51-.64c-.88-.16-2.01-.07-2.52.21-.51.28-.21.64.67.8Z"/>
  <path class="cls-1" d="M28.56,14.82v.24s.06.08.13.1l2.6.82c.07.02.22.04.33.04h.76c.11,0,.25-.02.33-.04l2.6-.82c.07-.02.13-.07.13-.1v-.24s-.06-.08-.13-.1l-2.6-.82c-.07-.02-.22-.04-.33-.04h-.76c-.1,0-.25.02-.33.04l-2.6.82c-.07.02-.13.07-.13.1ZM30.77,14.93s.06-.08.13-.1l.75-.24c.07-.02.22-.04.33-.04h.03c.1,0,.25.02.33.04l.75.24c.07.02.14.07.14.1h0s-.06.09-.14.12l-.75.24c-.07.02-.22.04-.33.04h-.03c-.1,0-.25-.02-.33-.04l-.75-.24c-.07-.02-.13-.07-.13-.1h0Z"/>
  <path class="cls-1" d="M42.54,17.39l-6.26-1.14c-.34-.06-.71-.08-1.07-.08-.96.02-1.71.27-1.71.58v2.28c0,.32.82.58,1.84.58s1.85-.26,1.85-.58v-1.28l3.51.64c.88.16,2.01.07,2.51-.21.51-.27.21-.63-.67-.79Z"/>
  <path class="cls-1" d="M36.89,14.78s-.06.09-.07.14c0,.06.02.13.08.19.13.13.42.25.84.33l6.26,1.14c.88.16,2.01.07,2.52-.21.51-.28.21-.63-.67-.79l-3.5-.64,3.5-.64c.88-.16,1.19-.52.67-.8-.51-.28-1.64-.38-2.52-.21l-6.26,1.14c-.44.08-.73.21-.85.35Z"/>
</svg>