<?xml version="1.0" encoding="UTF-8"?>
<svg id="Expanded_Icons" data-name="Expanded Icons" xmlns="http://www.w3.org/2000/svg" viewBox="0 0 64 64">
  <defs>
    <style>
      .cls-1 {
        fill: #29b5e8;
        stroke-width: 0px;
      }
    </style>
  </defs>
  <path class="cls-1" d="M59.9,43.85s.03-.1.05-.15c.01-.05.03-.09.04-.14,0-.05.01-.1.02-.15,0-.05.01-.1.01-.14,0-.05,0-.1-.01-.16,0-.04,0-.09-.01-.13,0-.05-.03-.1-.04-.15-.01-.05-.03-.09-.04-.14-.02-.04-.04-.08-.06-.12-.03-.05-.05-.1-.08-.15,0,0,0-.02-.01-.03-.02-.03-.05-.05-.07-.08-.03-.04-.07-.09-.11-.13-.04-.04-.08-.07-.13-.11-.03-.02-.05-.05-.08-.07l-2.81-1.95-1.04-3.22c-.16-.48-.54-.85-1.02-1-.48-.14-1.01-.03-1.4.29l-3.92,3.26v-.8c0-3.54-2.88-6.42-6.42-6.42h-11.7v-10.96c0-.19-.03-.38-.09-.56-.08-.22-.21-.41-.37-.57l-4.27-4.31v-3.72c0-.84-.68-1.52-1.52-1.52h-15.72c-.84,0-1.52.68-1.52,1.52v4.02l-3.41,7.54s0,.01,0,.01c-.03.06-.04.12-.06.18-.01.04-.03.07-.03.11,0,.04-.01.09-.02.13,0,.06-.02.11-.02.17,0,0,0,.01,0,.02v27.66c0,.84.68,1.52,1.52,1.52h15.72c.05,0,.1-.01.15-.02h26.25c.84,0,1.52-.68,1.52-1.52v-4.77l3.92,3.26c.28.23.62.35.97.35.14,0,.29-.02.43-.06.49-.14.87-.51,1.02-1l1.04-3.22,2.81-1.95s.05-.04.07-.06c.03-.03.07-.05.1-.08.06-.06.12-.12.17-.19.01-.02.03-.03.05-.05,0,0,0-.02.01-.03.03-.05.06-.1.08-.15.02-.04.04-.08.06-.12ZM17.88,50.39v-11.77c0-1.86,1.51-3.37,3.37-3.37h2.21v15.15h-5.59ZM10.06,17.94h12.37l-2.17,4.8H7.9l2.17-4.8ZM26.51,35.24h11.54v15.15h-11.54v-15.15ZM28,32.2h-5.23v-6.87l5.23-1.94v8.81ZM24.14,21.57l1.13-2.51,1.51,1.53-2.64.98ZM23.27,13.6v1.3h-12.67v-1.3h12.67ZM7.06,25.79h12.67v6.6c-2.8.69-4.9,3.22-4.9,6.23v11.79h-7.77v-24.61ZM46.12,50.39h-5.03v-15.15h1.65c1.86,0,3.37,1.51,3.37,3.37v11.77ZM54.39,44.27c-.27.19-.48.47-.58.78l-.5,1.56-4.02-3.34,4.02-3.34.5,1.56c.1.32.31.59.58.78l1.43.99-1.43.99Z"/>
</svg>