<?xml version="1.0" encoding="UTF-8"?>
<svg id="Expanded_Icons" data-name="Expanded Icons" xmlns="http://www.w3.org/2000/svg" viewBox="0 0 64 64">
  <defs>
    <style>
      .cls-1 {
        fill: #29b5e8;
        stroke-width: 0px;
      }
    </style>
  </defs>
  <path class="cls-1" d="M19.57,27.62c-.69,0-1.25.56-1.25,1.25s.56,1.25,1.25,1.25h24.67c.69,0,1.25-.56,1.25-1.25s-.56-1.25-1.25-1.25h-24.67Z"/>
  <path class="cls-1" d="M44.24,34.27h-24.67c-.69,0-1.25.56-1.25,1.25s.56,1.25,1.25,1.25h24.67c.69,0,1.25-.56,1.25-1.25s-.56-1.25-1.25-1.25Z"/>
  <path class="cls-1" d="M44.24,40.92h-24.67c-.69,0-1.25.56-1.25,1.25s.56,1.25,1.25,1.25h24.67c.69,0,1.25-.56,1.25-1.25s-.56-1.25-1.25-1.25Z"/>
  <path class="cls-1" d="M44.24,47.57h-24.67c-.69,0-1.25.56-1.25,1.25s.56,1.25,1.25,1.25h24.67c.69,0,1.25-.56,1.25-1.25s-.56-1.25-1.25-1.25Z"/>
  <path class="cls-1" d="M50.53,4.5h-25.74c-.56,0-1.1.24-1.48.65l-11.19,12.27c-.34.37-.52.85-.52,1.35v38.73c0,1.1.9,2,2,2h36.93c1.1,0,2-.9,2-2V6.5c0-1.1-.9-2-2-2ZM22.55,11.92v5.29h-4.82l4.82-5.29ZM48.53,55.5H15.6V21.21h8.95c1.1,0,2-.9,2-2v-10.71h21.98v47Z"/>
</svg>