<?xml version="1.0" encoding="UTF-8"?>
<svg id="Expanded_Icons" data-name="Expanded Icons" xmlns="http://www.w3.org/2000/svg" viewBox="0 0 64 64">
  <defs>
    <style>
      .cls-1 {
        fill: #29b5e8;
        stroke-width: 0px;
      }
    </style>
  </defs>
  <path class="cls-1" d="M59.46,57.99l-3.29-8.97c-.83-2.1-1.69-3.71-4.28-4.26.8-.92,1.3-2.11,1.3-3.42,0-2.9-2.36-5.27-5.27-5.27s-5.27,2.36-5.27,5.27c0,1.22.43,2.32,1.13,3.21h-5.33l-1.39-4.2c1.68-2.9-.35-6.45-.45-6.62-.19-.33-.52-.55-.89-.6-.35-.05-.69.05-.97.26L25.79,6.25c-.22-.66-.92-1.01-1.58-.79-.66.22-1.01.92-.79,1.58l.62,1.89-14.7,4.85c-.42.14-.74.49-.83.92-.09.43.05.88.38,1.18l4.11,3.78-1.07,5.43c-.09.44.07.88.4,1.18.23.2.53.31.83.31.13,0,.26-.02.39-.06l14.71-4.85,4.48,13.53-4.59,4.14-1.2.2c.28-.64.43-1.34.43-2.08,0-2.9-2.36-5.27-5.27-5.27s-5.27,2.36-5.27,5.27c0,1.62.75,3.06,1.91,4.03-.95.6-1.63,1.42-2.04,2.44l-2.19.44c.22-.58.35-1.19.35-1.85,0-2.9-2.36-5.27-5.27-5.27s-5.27,2.36-5.27,5.27c0,2.02,1.16,3.76,2.84,4.64-.54.66-.91,1.45-1.11,2.37l-1.7,7.92c-.14.67.29,1.34.96,1.48.09.02.18.03.26.03.58,0,1.1-.4,1.22-.99l1.7-7.92c.22-1.02.77-2.13,3.23-2.59l4.3-.86-2.32,10.85c-.14.67.29,1.34.96,1.48.09.02.18.03.26.03.58,0,1.1-.4,1.22-.99l2.68-12.51c.22-1.02.77-2.13,3.19-2.58l6.88-1.15c.24-.04.46-.15.63-.31l4.04-3.65.68,2.05-4.56,4.51-7.23,2.21c-.66.2-1.03.9-.83,1.56.2.66.9,1.03,1.56.83l2.7-.83-1.87,9.35c-.14.68.3,1.34.98,1.47.08.02.17.02.25.02.58,0,1.11-.41,1.22-1l2.13-10.68,2.11-.64c.19-.06.37-.16.51-.31l3.89-3.85.68,2.05h-.57c-.39,0-.77.19-1,.5-.24.32-.31.72-.2,1.1.05.17,1.04,3.38,3.84,4.65l2.29,6.94c.17.53.66.86,1.19.86.13,0,.26-.02.39-.06.66-.22,1.01-.92.79-1.58l-1.86-5.63,4.58.16,2.67,7.36c.18.51.66.82,1.17.82.14,0,.29-.02.43-.08.65-.24.98-.95.75-1.6l-2.33-6.41,1.64.06c.64.03,1.27-.51,1.29-1.21.02-.69-.51-1.27-1.21-1.29l-9.36-.33c-.17,0-.33-.01-.48-.04l-.57-1.72h10.36c2.92,0,3.36.74,4.19,2.86l3.28,8.94c.19.51.66.82,1.17.82.14,0,.29-.02.43-.08.65-.24.98-.96.74-1.6ZM22.12,34.7c1.53,0,2.77,1.24,2.77,2.77s-1.24,2.77-2.77,2.77-2.77-1.24-2.77-2.77,1.24-2.77,2.77-2.77ZM9.61,39.77c1.53,0,2.77,1.24,2.77,2.77s-1.24,2.77-2.77,2.77-2.77-1.24-2.77-2.77,1.24-2.77,2.77-2.77ZM14.79,23.48l.79-4.02c.08-.43-.06-.87-.38-1.16l-3.06-2.82,12.68-4.18,2.65,8-12.68,4.18ZM47.92,38.57c1.53,0,2.77,1.24,2.77,2.77s-1.24,2.77-2.77,2.77-2.77-1.24-2.77-2.77,1.24-2.77,2.77-2.77Z"/>
</svg>