<?xml version="1.0" encoding="UTF-8"?>
<svg id="Expanded_Icons" data-name="Expanded Icons" xmlns="http://www.w3.org/2000/svg" viewBox="0 0 64 64">
  <defs>
    <style>
      .cls-1 {
        fill: #29b5e8;
        stroke-width: 0px;
      }
    </style>
  </defs>
  <path class="cls-1" d="M33.29,31.31l-1.66-.83c-2.96-1.46-3.66-1.87-3.66-3.65,0-2.88,3.01-3.11,3.93-3.11s3.86.22,3.86,3.11c0,.69.56,1.25,1.25,1.25s1.25-.56,1.25-1.25c0-2.97-2.01-5.08-5.11-5.52v-1.4c0-.69-.56-1.25-1.25-1.25s-1.25.56-1.25,1.25v1.4c-3.15.44-5.18,2.54-5.18,5.52,0,3.4,2.12,4.44,5.05,5.89l1.66.83c2.96,1.46,3.65,1.87,3.65,3.65,0,2.85-3.01,3.07-3.94,3.07s-3.93-.22-3.93-3.07c0-.69-.56-1.25-1.25-1.25s-1.25.56-1.25,1.25c0,2.96,2.04,5.05,5.18,5.48v1.43c0,.69.56,1.25,1.25,1.25s1.25-.56,1.25-1.25v-1.43c3.15-.44,5.19-2.53,5.19-5.48,0-3.4-2.12-4.45-5.05-5.89Z"/>
  <path class="cls-1" d="M31.9,12.35c-10.84,0-19.67,8.82-19.67,19.67s8.82,19.67,19.67,19.67,19.67-8.82,19.67-19.67-8.82-19.67-19.67-19.67ZM31.9,49.18c-9.47,0-17.17-7.7-17.17-17.17s7.7-17.17,17.17-17.17,17.17,7.7,17.17,17.17-7.7,17.17-17.17,17.17Z"/>
  <path class="cls-1" d="M31.9,4.51c-15.16,0-27.5,12.34-27.5,27.5s12.34,27.5,27.5,27.5,27.5-12.34,27.5-27.5S47.06,4.51,31.9,4.51ZM31.9,55.51c-12.96,0-23.5-10.54-23.5-23.5S18.94,8.51,31.9,8.51s23.5,10.54,23.5,23.5-10.54,23.5-23.5,23.5Z"/>
</svg>