<?xml version="1.0" encoding="UTF-8"?>
<svg id="Expanded_Icons" data-name="Expanded Icons" xmlns="http://www.w3.org/2000/svg" viewBox="0 0 64 64">
  <defs>
    <style>
      .cls-1 {
        fill: #2ab5e8;
        stroke-width: 0px;
      }
    </style>
  </defs>
  <path class="cls-1" d="M55.43,16L34,3.63c-1.23-.71-2.77-.71-4,0l-21.43,12.37c-1.23.71-2,2.04-2,3.46v24.75c0,1.42.77,2.75,2,3.46l21.43,12.37c.62.36,1.31.53,2,.53s1.38-.18,2-.53l21.43-12.37c1.23-.71,2-2.04,2-3.46v-24.75c0-1.42-.77-2.75-2-3.46ZM53.43,44.21l-21.43,12.37-21.43-12.37v-24.75l21.43-12.37,21.43,12.37v24.75Z"/>
  <path class="cls-1" d="M32,17.26c-7.94,0-14.47,6.17-15.05,13.97h-2.99c-.69,0-1.25.56-1.25,1.25s.56,1.25,1.25,1.25h9.16c.27,1.85,1.1,3.62,2.52,5.04,1.75,1.75,4.05,2.63,6.36,2.63,1.12,0,2.24-.21,3.29-.62l.55.55,5.65,5.68c.68.68,1.58,1.05,2.54,1.05s1.86-.37,2.53-1.05l.07-.07c1.4-1.4,1.4-3.67,0-5.07l-5.64-5.67-.59-.59c.23-.6.39-1.23.48-1.87h9.16c.69,0,1.25-.56,1.25-1.25s-.56-1.25-1.25-1.25h-2.99c-.58-7.8-7.1-13.97-15.05-13.97ZM27.41,37.01c-2.53-2.53-2.53-6.65,0-9.18,1.23-1.23,2.86-1.9,4.59-1.9s3.36.68,4.59,1.9c1.23,1.23,1.9,2.85,1.9,4.59s-.67,3.36-1.9,4.59c-2.53,2.53-6.65,2.53-9.18,0ZM44.87,43.64c.42.42.42,1.11,0,1.53l-.08.08c-.21.21-.49.32-.76.32s-.55-.11-.76-.32l-5.65-5.68,1.61-1.61,5.65,5.67ZM40.9,31.24c-.26-1.95-1.13-3.76-2.55-5.17-1.7-1.7-3.96-2.63-6.36-2.63s-4.66.94-6.36,2.63c-1.45,1.45-2.29,3.28-2.54,5.17h-3.65c.58-6.42,5.98-11.47,12.55-11.47s11.94,5.02,12.55,11.47h-3.65Z"/>
</svg>