<?xml version="1.0" encoding="UTF-8"?>
<svg id="Expanded_Icons" data-name="Expanded Icons" xmlns="http://www.w3.org/2000/svg" viewBox="0 0 64 64">
  <defs>
    <style>
      .cls-1 {
        fill: #29b5e8;
        stroke-width: 0px;
      }
    </style>
  </defs>
  <path class="cls-1" d="M21.87,15.91c.47-4.7,4.38-8.27,9.06-8.27h.47c4.64,0,8.42,3.68,8.64,8.29.02.34-.27.61-.61.6l-3.16-.07c-.34,0-.61-.29-.65-.63-.26-2.12-2.05-3.77-4.22-3.77h-.47c-2.42,0-4.45,1.85-4.69,4.28l-.83,8.33c-.04.36.25.68.61.68h7.92c3.11,0,6.08,1.33,8.16,3.67l4.76,5.34c.24.27.65.28.9.02l7.87-7.94c.24-.24.63-.24.88,0l2.24,2.26c.24.24.24.63,0,.87l-8.09,8.16c-.23.23-.24.6-.02.84l8.21,9.2c.23.25.21.64-.05.87l-2.35,2.13c-.25.23-.65.21-.87-.05l-8-8.96c-.24-.27-.65-.28-.9-.02l-9.02,9.09c-.24.24-.63.24-.88,0l-2.24-2.26c-.24-.24-.24-.63,0-.87l9.24-9.32c.23-.23.24-.6.02-.84l-4.97-5.57c-1.25-1.4-3.03-2.2-4.9-2.2h-8.48c-.32,0-.58.24-.61.56l-1.76,17.78c-.46,4.68-4.37,8.24-9.03,8.24h-.29c-4.65,0-8.45-3.64-8.76-8.24-.02-.34.26-.62.6-.62h3.16c.34,0,.61.28.66.62.3,2.15,2.13,3.81,4.35,3.81h.29c2.41,0,4.42-1.84,4.66-4.25l1.71-17.21c.04-.36-.25-.68-.61-.68h-5.5c-.34,0-.62-.28-.62-.62v-3.2c0-.34.28-.62.62-.62h6.06c.32,0,.58-.24.61-.56l.88-8.89Z"/>
</svg>