<?xml version="1.0" encoding="UTF-8"?>
<svg id="Expanded_Icons" data-name="Expanded Icons" xmlns="http://www.w3.org/2000/svg" viewBox="0 0 64 64">
  <defs>
    <style>
      .cls-1 {
        fill: #29b5e8;
        stroke-width: 0px;
      }
    </style>
  </defs>
  <path class="cls-1" d="M51.47,27.99h-2.02V6.44c0-1.1-.9-2-2-2h-27.3c-.59,0-1.15.26-1.53.71l-10.5,12.41c-.31.36-.47.82-.47,1.29v38.72c0,1.1.9,2,2,2h37.79c1.1,0,2-.9,2-2v-6.62h2.02c2.62,0,4.74-2.13,4.74-4.74v-13.47c0-2.62-2.13-4.74-4.74-4.74ZM18.5,11.49v5.86h-4.96l4.96-5.86ZM45.45,55.57H11.66V21.35h8.85c1.1,0,2-.9,2-2v-10.91h22.95v19.55h-20.92c-2.62,0-4.74,2.13-4.74,4.74v13.47c0,2.62,2.13,4.74,4.74,4.74h20.92v4.62ZM53.71,46.21c0,1.24-1.01,2.24-2.24,2.24h-26.94c-1.24,0-2.24-1.01-2.24-2.24v-13.47c0-1.24,1.01-2.24,2.24-2.24h26.94c1.24,0,2.24,1.01,2.24,2.24v13.47Z"/>
  <polygon class="cls-1" points="27.54 34.79 25.82 34.79 25.82 45.22 32.13 45.22 32.13 43.69 27.54 43.69 27.54 34.79"/>
  <path class="cls-1" d="M36.6,34.56c-2.89,0-4.8,2.42-4.8,5.46s1.91,5.44,4.8,5.44,4.82-2.43,4.82-5.44-1.91-5.46-4.82-5.46ZM36.6,43.8c-1.79,0-3.03-1.63-3.03-3.77s1.24-3.81,3.03-3.81,3.04,1.65,3.04,3.81-1.25,3.77-3.04,3.77Z"/>
  <path class="cls-1" d="M46.68,40.79h2.77v.14c-.04,1.72-.99,2.89-2.56,2.89-1.81,0-2.99-1.65-2.99-3.79s1.2-3.83,3.03-3.83c1.55,0,2.4,1.03,2.4,1.03l1.03-1.32s-1.03-1.34-3.41-1.34c-2.97,0-4.84,2.42-4.84,5.46s1.81,5.44,4.78,5.44c2.75,0,4.4-2.02,4.4-5.11v-1.03h-4.61v1.46Z"/>
</svg>