<?xml version="1.0" encoding="UTF-8"?>
<svg id="Expanded_Icons" data-name="Expanded Icons" xmlns="http://www.w3.org/2000/svg" viewBox="0 0 64 64">
  <defs>
    <style>
      .cls-1 {
        fill: #29b5e8;
        stroke-width: 0px;
      }
    </style>
  </defs>
  <path class="cls-1" d="M50.24,25.01H13.64c-.69,0-1.25.56-1.25,1.25v20.46c0,.69.56,1.25,1.25,1.25h36.6c.69,0,1.25-.56,1.25-1.25v-20.46c0-.69-.56-1.25-1.25-1.25ZM27.07,39.44v-3.17h9.75v3.17h-9.75ZM36.82,41.94v3.54h-9.75v-3.54h9.75ZM48.99,33.77h-9.68v-3.25h9.68v3.25ZM36.82,30.52v3.25h-9.75v-3.25h9.75ZM24.57,30.52v3.25h-9.68v-3.25h9.68ZM14.89,36.27h9.68v3.17h-9.68v-3.17ZM39.32,36.27h9.68v3.17h-9.68v-3.17ZM14.89,41.94h9.68v3.54h-9.68v-3.54ZM39.32,45.48v-3.54h9.68v3.54h-9.68Z"/>
  <path class="cls-1" d="M12.36,17.37c.7,0,1.26-.57,1.26-1.26s-.56-1.26-1.26-1.26-1.26.57-1.26,1.26.57,1.26,1.26,1.26Z"/>
  <path class="cls-1" d="M17.42,17.37c.7,0,1.26-.57,1.26-1.26s-.56-1.26-1.26-1.26-1.26.57-1.26,1.26.57,1.26,1.26,1.26Z"/>
  <path class="cls-1" d="M22.47,17.37c.7,0,1.26-.57,1.26-1.26s-.56-1.26-1.26-1.26-1.26.57-1.26,1.26.57,1.26,1.26,1.26Z"/>
  <path class="cls-1" d="M57.41,9.08H6.57c-1.1,0-2,.9-2,2v41.9c0,1.1.9,2,2,2h50.84c1.1,0,2-.9,2-2V11.08c0-1.1-.9-2-2-2ZM55.41,13.08v6.14H8.57v-6.14h46.84ZM8.57,50.98v-29.26h46.84v29.26H8.57Z"/>
</svg>