<svg viewBox="0 0 16 16" xmlns="http://www.w3.org/2000/svg" width="16" height="16" fill="none"><g fill="#5D6A85" clip-path="url(#svg-177602__a)"><path d="M8.5 16h-1v-2h1zM4.113 12.602 2.7 14.016l-.707-.707 1.414-1.414zM14.013 13.309l-.707.707-1.414-1.414.707-.707z"/><path fill-rule="evenodd" d="M8 3a5 5 0 1 1 0 10A5 5 0 0 1 8 3m-.5 1.031a4 4 0 0 0 0 7.937z" clip-rule="evenodd"/><path d="M2.005 8.505h-2v-1h2zM16.005 8.505h-2v-1h2zM4.113 3.41l-.707.706-1.414-1.414.707-.707zM14.013 2.702l-1.414 1.414-.707-.707 1.414-1.414zM8.5 2h-1V0h1z"/></g><defs><clipPath id="svg-177602__a"><path fill="#fff" d="M0 0h16v16H0z"/></clipPath></defs></svg>