<svg width="50" height="48" viewBox="0 0 50 48" fill="none" xmlns="http://www.w3.org/2000/svg">
<path fill-rule="evenodd" clip-rule="evenodd" d="M27.4076 4C28.183 4 28.8323 4.58761 28.9095 5.35924L29.2866 9.12981C30.4096 9.45297 31.4803 9.89991 32.4828 10.4549L35.4166 8.05456C36.0167 7.5635 36.8914 7.60713 37.4397 8.15547L40.8445 11.5603C41.3929 12.1086 41.4365 12.9833 40.9454 13.5834L38.5451 16.5172C39.1001 17.5197 39.547 18.5904 39.8702 19.7134L43.6408 20.0905C44.4124 20.1677 45 20.817 45 21.5924V26.4076C45 27.183 44.4124 27.8323 43.6408 27.9095L39.8702 28.2866C39.547 29.4096 39.1001 30.4803 38.5451 31.4828L40.9454 34.4166C41.4365 35.0168 41.3929 35.8914 40.8445 36.4397L37.4397 39.8445C36.8914 40.3929 36.0167 40.4365 35.4166 39.9455L32.4828 37.5451C31.4803 38.1001 30.4096 38.547 29.2866 38.8702L28.9095 42.6408C28.8323 43.4124 28.183 44 27.4076 44H22.5924C21.817 44 21.1677 43.4124 21.0905 42.6408L20.7134 38.8702C19.5904 38.547 18.5197 38.1001 17.5172 37.5451L14.5835 39.9454C13.9833 40.4365 13.1086 40.3929 12.5603 39.8445L9.15548 36.4397C8.60713 35.8914 8.56351 35.0167 9.05457 34.4166L11.4549 31.4828C10.8999 30.4803 10.453 29.4096 10.1298 28.2866L6.35924 27.9095C5.58762 27.8323 5 27.183 5 26.4076V21.5924C5 20.817 5.58761 20.1677 6.35924 20.0905L10.1298 19.7134C10.453 18.5904 10.8999 17.5197 11.4549 16.5172L9.05456 13.5834C8.5635 12.9832 8.60713 12.1086 9.15547 11.5603L12.5603 8.15545C13.1086 7.60711 13.9833 7.56349 14.5834 8.05455L17.5172 10.4549C18.5197 9.89991 19.5904 9.45297 20.7134 9.12981L21.0905 5.35924C21.1677 4.58762 21.817 4 22.5924 4H27.4076ZM34.434 24C34.434 29.2102 30.2102 33.434 25 33.434C19.7898 33.434 15.566 29.2102 15.566 24C15.566 18.7898 19.7898 14.566 25 14.566C30.2102 14.566 34.434 18.7898 34.434 24Z" stroke="#BDC4D5" stroke-width="2"/>
</svg>




