<svg xmlns="http://www.w3.org/2000/svg" width="18" height="18" viewBox="0 0 24 24" fill="#E5EDF5">
  <path d="m3.41 2 19 19-1.41 1.41-3.16-3.16A9.8 9.8 0 0 1 12 21c-5 0-9-3.5-10-8a9.89 9.89 0 0 1 3.29-5.2L2 3.41 3.41 2Zm2.5 5.34A7.8 7.8 0 0 0 4.07 11c.74 3.31 4.06 6 7.93 6 1.42 0 2.76-.34 3.95-.96l-2.08-2.08c-.56.27-1.19.42-1.87.42-2.21 0-4-1.79-4-4 0-.68.15-1.31.42-1.87l-2.51-2.51Zm6.35 1.88a2 2 0 0 0-2.54 2.54l2.54-2.54ZM12 5c5 0 9 3.5 10 8-.22.98-.59 1.9-1.08 2.74l-1.47-1.47c.29-.43.52-.9.68-1.4C19.19 11.69 15.87 9 12 9c-.5 0-.99.04-1.46.12l-1.66-1.66C9.77 5.89 10.86 5 12 5Z"/>
</svg>

