<svg xmlns="http://www.w3.org/2000/svg" width="18" height="18" viewBox="0 0 24 24" fill="#E5EDF5">
  <path d="M4.59 6.89a1.5 1.5 0 0 1-2.12-2.12C3.98 3.26 5.93 2.5 8 2.5c2.36 0 4.26 1.25 5.63 3.06.58.77 1.45 1.94 2.56 3.48.38.53 1.09.65 1.62.28.53-.38.65-1.09.28-1.62-.51-.72-.95-1.31-1.32-1.8C18.2 4.92 20.22 3.5 22 3.5v2c-1.07 0-2.5 1.07-3.42 2.55.26.36.54.74.82 1.15 1.01 1.42.68 3.39-.74 4.4-.52.37-1.12.55-1.72.55-.97 0-1.92-.45-2.53-1.3-.99-1.37-1.82-2.47-2.54-3.4-.3-.39-.58-.74-.84-1.06-.54-.66-1.44-.89-2.23-.6-.89.33-1.39 1.21-1.22 2.14.13.71.64 1.3 1.33 1.54l.1.03c.45.14.92-.1 1.06-.55.14-.45-.1-.92-.55-1.06l-.1-.03a1.54 1.54 0 0 1-.99-1.2c-.1-.54.18-1.07.68-1.26.48-.18 1.02-.05 1.35.36.27.33.56.69.87 1.09.72.94 1.55 2.04 2.55 3.42.74 1.03 2.17 1.27 3.2.53a2.4 2.4 0 0 0 .52-3.34 78.9 78.9 0 0 0-.72-.99C17.16 7.87 17 8.94 17 10c0 3.31-2.69 6-6 6-2.08 0-4.01-.99-5.2-2.63-.64-.88-1.28-1.8-1.28-2.87 0-1.66 1.29-3 3-3 .66 0 1.26.21 1.75.56.53.37.66 1.08.29 1.61-.37.53-1.08.66-1.61.29a1 1 0 0 0-1.43.29c-.41.64-.29 1.34.24 2.09C8.65 13.98 10.23 15 12 15c2.21 0 4-1.79 4-4 0-.6.05-1.14.13-1.62-.6-.9-1.14-1.68-1.62-2.35C13.5 4.78 11.01 3.5 8 3.5c-1.52 0-2.98.56-3.41 1.02Z"/>
</svg>

