<?xml version="1.0" encoding="UTF-8"?>
<svg id="Expanded_Icons" data-name="Expanded Icons" xmlns="http://www.w3.org/2000/svg" viewBox="0 0 64 64">
  <defs>
    <style>
      .cls-1 {
        fill: #2ab5e8;
        stroke-width: 0px;
      }
    </style>
  </defs>
  <g id="Not_Used" data-name="Not Used">
    <g>
      <path class="cls-1" d="M58.66,25.34s-.01-.01-.02-.02L38.66,5.41c-.84-.88-2.36-1.51-3.6-1.51h-5.88c-1.24,0-2.76.64-3.58,1.49L5.58,25.34c-.85.87-1.46,2.37-1.46,3.58v5.88c0,1.21.62,2.71,1.48,3.57l19.99,19.93c.87.88,2.38,1.52,3.6,1.52h5.88c1.22,0,2.73-.64,3.58-1.51l20.01-19.95c.85-.86,1.47-2.35,1.47-3.56v-5.89c0-1.21-.61-2.71-1.46-3.58ZM57.08,34.8c0,.39-.31,1.14-.58,1.41l-20.01,19.95c-.3.3-1.02.61-1.43.61h-5.88c-.4,0-1.14-.31-1.44-.62L7.74,36.21c-.28-.28-.59-1.02-.59-1.42v-5.87c0-.41.31-1.16.58-1.44L27.76,7.52c.27-.28,1.01-.59,1.42-.59h5.88c.42,0,1.15.3,1.44.6l19.99,19.92c.29.3.59,1.04.59,1.45v5.88Z"/>
      <path class="cls-1" d="M40.97,16.31c-1.48.07-2.84.72-3.83,1.81-.99,1.09-1.5,2.51-1.42,3.99.06,1.28.58,2.46,1.42,3.4l-1.48,1.85c-.85-.45-1.8-.73-2.83-.73-.95,0-1.83.23-2.64.62l-2.87-3.4c.48-.69.76-1.53.76-2.43,0-2.36-1.92-4.29-4.29-4.29s-4.29,1.92-4.29,4.29,1.93,4.29,4.29,4.29c.35,0,.68-.05,1-.13l3.05,3.62c-.71,1-1.14,2.21-1.14,3.53,0,.16.03.31.05.47l-2.21.38c-.28-.5-.63-.96-1.07-1.36-1.09-.99-2.51-1.5-3.99-1.42-1.48.07-2.84.72-3.83,1.81-.99,1.09-1.5,2.51-1.42,3.99.15,2.96,2.6,5.26,5.53,5.26.09,0,.18,0,.28,0,1.48-.07,2.84-.72,3.83-1.81.88-.97,1.36-2.21,1.4-3.5l2.46-.43c1.09,1.64,2.96,2.72,5.08,2.72.79,0,1.53-.16,2.23-.43l1.62,2.19c-.49.7-.79,1.54-.79,2.46,0,2.36,1.92,4.29,4.29,4.29s4.29-1.92,4.29-4.29-1.93-4.29-4.29-4.29c-.34,0-.67.05-.99.13l-1.69-2.27c.88-1.06,1.43-2.4,1.43-3.88,0-1.24-.38-2.38-1.01-3.35l1.81-2.26c.49.14.99.23,1.52.23.09,0,.19,0,.28,0,1.48-.07,2.84-.72,3.83-1.81.99-1.09,1.5-2.51,1.42-3.99h0c-.16-3.05-2.76-5.42-5.81-5.25ZM22.55,21.43c0-.69.56-1.25,1.25-1.25s1.25.56,1.25,1.25c0,.25-.09.47-.22.66-.26.05-.52.13-.74.31-.09.07-.14.17-.21.26-.03,0-.06.02-.1.02-.7,0-1.25-.56-1.25-1.25ZM22.28,36.21c.03.67-.19,1.3-.64,1.8-.45.5-1.06.79-1.73.82-1.38.05-2.55-1-2.62-2.38-.03-.67.19-1.3.64-1.8.45-.5,1.07-.79,1.73-.82.05,0,.09,0,.13,0,.62,0,1.21.23,1.68.65.49.45.78,1.07.81,1.73h0ZM29.76,32.74c0-1.69,1.37-3.07,3.07-3.07s3.07,1.37,3.07,3.07-1.38,3.07-3.07,3.07-3.07-1.37-3.07-3.07ZM41.43,43.05c0,.69-.56,1.25-1.25,1.25s-1.25-.56-1.25-1.25.56-1.25,1.25-1.25,1.25.56,1.25,1.25ZM43.1,23.51c-.45.5-1.07.79-1.73.82-.68.03-1.3-.2-1.8-.64-.5-.45-.79-1.06-.82-1.73-.03-.67.19-1.31.64-1.8.45-.5,1.06-.79,1.73-.82.04,0,.09,0,.13,0,1.32,0,2.43,1.04,2.5,2.38.03.67-.19,1.31-.64,1.8Z"/>
    </g>
  </g>
</svg>