<?xml version="1.0" encoding="UTF-8"?>
<svg id="Expanded_Icons" data-name="Expanded Icons" xmlns="http://www.w3.org/2000/svg" viewBox="0 0 64 64">
  <defs>
    <style>
      .cls-1 {
        fill: #29b5e8;
        stroke-width: 0px;
      }
    </style>
  </defs>
  <path class="cls-1" d="M57.47,51.96H11.96V6.55c0-1.1-.9-2-2-2s-2,.9-2,2v45.41h-1.44c-1.1,0-2,.9-2,2s.9,2,2,2h1.44v1.44c0,1.1.9,2,2,2s2-.9,2-2v-1.44h45.51c1.1,0,2-.9,2-2s-.9-2-2-2Z"/>
  <rect class="cls-1" x="26.71" y="28.59" width="6.28" height="19.71" rx="1.05" ry="1.05"/>
  <rect class="cls-1" x="16.5" y="34.87" width="6.28" height="13.42" rx="1.05" ry="1.05"/>
  <rect class="cls-1" x="36.92" y="34.87" width="6.28" height="13.42" rx="1.05" ry="1.05"/>
  <rect class="cls-1" x="47.12" y="26.49" width="6.28" height="21.8" rx="1.05" ry="1.05"/>
  <path class="cls-1" d="M18.83,28.89c.28,0,.55-.09.78-.28l10.86-8.77,8.32,8.34c.48.48,1.26.49,1.75.02l10.41-10.01c.5-.48.51-1.27.04-1.77s-1.27-.51-1.77-.04l-9.53,9.16-8.25-8.27c-.45-.45-1.17-.49-1.67-.09l-11.74,9.47c-.54.43-.62,1.22-.19,1.76.25.31.61.46.97.46Z"/>
  <path class="cls-1" d="M39.49,15.54c-.53,0-1.41-.13-1.41-.96,0-.69-.56-1.25-1.25-1.25s-1.25.56-1.25,1.25c0,1.64,1.05,2.87,2.66,3.29v.45c0,.69.56,1.25,1.25,1.25s1.25-.56,1.25-1.25v-.45c1.61-.42,2.66-1.65,2.66-3.29,0-2.12-1.36-2.79-2.92-3.56l-.86-.42c-1.53-.76-1.53-.82-1.53-1.32,0-.85.88-.98,1.41-.98.62,0,1.37.17,1.37.98,0,.69.56,1.25,1.25,1.25s1.25-.56,1.25-1.25c0-1.65-1.04-2.88-2.62-3.31v-.44c0-.69-.56-1.25-1.25-1.25s-1.25.56-1.25,1.25v.43c-1.61.42-2.66,1.66-2.66,3.31,0,2.12,1.36,2.79,2.93,3.56l.86.42c1.53.76,1.53.82,1.53,1.32,0,.84-.88.96-1.41.96Z"/>
</svg>