<?xml version="1.0" encoding="UTF-8"?>
<svg id="Expanded_Icons" data-name="Expanded Icons" xmlns="http://www.w3.org/2000/svg" viewBox="0 0 64 64">
  <defs>
    <style>
      .cls-1 {
        fill: #29b5e8;
        stroke-width: 0px;
      }
    </style>
  </defs>
  <path class="cls-1" d="M26.6,4.24c-11.03,0-22.2,3.34-22.2,9.73v31.64c0,6.38,11.17,9.72,22.2,9.72,2.8,0,5.58-.24,8.22-.67.02,0,.04.01.07.01.11,0,.21-.05.32-.06.16-.03.32-.04.46-.1.69-.3,1.18-.99,1.18-1.79,0-.07,0-.15,0-.22-.11-.98-.95-1.74-1.96-1.74-.04,0-.09,0-.13.01,0,0,.01,0,.02,0,0,0-.03,0-.08.01-.03,0-.06,0-.1.01-.09.01-.22.03-.37.05-.99.12-3.14.36-5.2.5-.45.02-.88.06-1.34.07-.37.01-.73.02-1.07.02-11.17,0-18.3-3.45-18.3-5.83v-4.82c4.22,2.63,11.28,3.99,18.3,3.99,4.07,0,7.84-.37,11.38-1.27,0,0-.16.03-.31.05-.07,0-.13.02-.17.02.51,0,.97-.21,1.32-.53.32-.29.51-.69.58-1.14.02-.1.02-.19.02-.29,0-1.08-.84-1.96-1.92-1.96l-.57.1h-.08c-2.9.76-6.01,1.12-10.24,1.12-11.17,0-18.3-3.45-18.3-5.83v-4.79c4.22,2.63,11.28,3.99,18.3,3.99s14.09-1.36,18.3-3.99v.78c0,1.08.88,1.96,1.96,1.96.53,0,1.01-.22,1.37-.56.23-.23.38-.52.48-.84.05-.15.09-.3.09-.47V13.97c0-6.39-11.17-9.73-22.2-9.73ZM44.9,24.53c0,2.38-7.13,5.83-18.3,5.83s-18.3-3.45-18.3-5.83v-4.82c4.22,2.63,11.28,3.99,18.3,3.99s14.09-1.36,18.3-3.99v4.82ZM26.6,19.79c-11.17,0-18.3-3.45-18.3-5.83s7.13-5.83,18.3-5.83,18.3,3.45,18.3,5.83-7.13,5.83-18.3,5.83ZM56.79,44.58v-2.57c0-3.82-3.2-6.93-7.12-6.93h-1.06c-3.95,0-7.16,3.11-7.16,6.93v2.57c-1.65.7-2.81,2.31-2.81,4.17v6.95c0,2.51,2.09,4.55,4.67,4.55h11.62c2.57,0,4.67-2.04,4.67-4.55v-6.95c0-1.86-1.16-3.47-2.81-4.17ZM44.87,42.01c0-1.94,1.68-3.52,3.75-3.52h1.06c2.05,0,3.71,1.58,3.71,3.52v2.19h-8.52v-2.19ZM56.19,55.7c0,.63-.56,1.14-1.26,1.14h-11.62c-.69,0-1.26-.51-1.26-1.14v-6.95c0-.64.55-1.14,1.26-1.14h11.62c.7,0,1.26.5,1.26,1.14v6.95ZM49.14,48.44c-1.41,0-2.78,1.07-2.78,2.44v2.68c0,1.34,1.39,2.44,2.78,2.44s2.78-1.12,2.78-2.44v-2.68c0-1.34-1.39-2.44-2.78-2.44ZM49.64,53.01c0,.06,0,.45-.51.45s-.51-.37-.51-.45v-1.58c0-.14,0-.45.51-.45s.51.35.51.45v1.58Z"/>
</svg>