<?xml version="1.0" encoding="UTF-8"?>
<svg id="Expanded_Icons" data-name="Expanded Icons" xmlns="http://www.w3.org/2000/svg" viewBox="0 0 64 64">
  <defs>
    <style>
      .cls-1 {
        fill-rule: evenodd;
      }

      .cls-1, .cls-2 {
        fill: #29b5e8;
      }

      .cls-1, .cls-2, .cls-3, .cls-4 {
        stroke-width: 0px;
      }

      .cls-3 {
        fill: #11567f;
      }

      .cls-4 {
        fill: #fff;
      }
    </style>
  </defs>
  <rect class="cls-3" x="9.89" y="43.2" width="44.23" height="16.8" rx="3.92" ry="3.92"/>
  <path class="cls-4" d="M21.53,50.94c-.02-.16-.08-.28-.2-.37-.12-.09-.28-.13-.49-.13-.14,0-.26.02-.36.06-.1.04-.17.09-.22.16-.05.07-.08.15-.08.23,0,.07.01.14.05.19.03.05.08.1.14.14.06.04.13.07.21.1.08.03.16.05.25.07l.37.09c.18.04.34.09.49.16.15.07.28.15.39.24.11.1.19.21.25.34.06.13.09.28.09.45,0,.25-.06.47-.19.65-.12.18-.3.32-.54.42-.23.1-.52.15-.85.15s-.62-.05-.86-.15c-.24-.1-.43-.25-.57-.45-.14-.2-.21-.44-.21-.74h.83c0,.14.05.25.12.34.07.09.16.16.28.2.12.05.25.07.4.07s.27-.02.38-.06c.11-.04.19-.1.25-.18.06-.08.09-.16.09-.26,0-.09-.03-.17-.08-.23-.05-.06-.13-.12-.23-.16-.1-.04-.23-.08-.38-.12l-.44-.11c-.34-.08-.61-.21-.81-.39-.2-.18-.3-.42-.3-.72,0-.25.06-.46.2-.65.13-.18.32-.33.55-.43.23-.1.5-.16.8-.16s.57.05.79.16c.23.1.4.25.53.43.13.18.19.4.19.64h-.83Z"/>
  <path class="cls-4" d="M23.16,53.84v-4.07h2.74v.71h-1.88v.97h1.74v.71h-1.74v.97h1.89v.71h-2.75Z"/>
  <path class="cls-4" d="M28.96,50.94c-.02-.16-.08-.28-.2-.37-.12-.09-.28-.13-.49-.13-.14,0-.26.02-.36.06-.1.04-.17.09-.22.16-.05.07-.08.15-.08.23,0,.07.01.14.05.19.03.05.08.1.14.14.06.04.13.07.21.1.08.03.16.05.25.07l.37.09c.18.04.34.09.49.16.15.07.28.15.39.24.11.1.19.21.25.34.06.13.09.28.09.45,0,.25-.06.47-.19.65-.12.18-.3.32-.54.42-.23.1-.52.15-.85.15s-.62-.05-.86-.15c-.24-.1-.43-.25-.57-.45-.14-.2-.21-.44-.21-.74h.83c0,.14.05.25.12.34.07.09.16.16.28.2.12.05.25.07.4.07s.27-.02.38-.06c.11-.04.19-.1.25-.18.06-.08.09-.16.09-.26,0-.09-.03-.17-.08-.23-.05-.06-.13-.12-.23-.16-.1-.04-.23-.08-.38-.12l-.44-.11c-.34-.08-.61-.21-.81-.39-.2-.18-.3-.42-.3-.72,0-.25.06-.46.2-.65.13-.18.32-.33.55-.43.23-.1.5-.16.8-.16s.57.05.79.16c.23.1.4.25.53.43.13.18.19.4.19.64h-.83Z"/>
  <path class="cls-4" d="M32.8,50.94c-.02-.16-.08-.28-.2-.37-.12-.09-.28-.13-.49-.13-.14,0-.26.02-.36.06-.1.04-.17.09-.22.16-.05.07-.08.15-.08.23,0,.07.01.14.05.19.03.05.08.1.14.14.06.04.13.07.21.1.08.03.16.05.25.07l.37.09c.18.04.34.09.49.16.15.07.28.15.39.24.11.1.19.21.25.34.06.13.09.28.09.45,0,.25-.06.47-.19.65-.12.18-.3.32-.54.42-.23.1-.52.15-.85.15s-.62-.05-.86-.15c-.24-.1-.43-.25-.57-.45-.14-.2-.21-.44-.21-.74h.83c0,.14.05.25.12.34.07.09.16.16.28.2.12.05.25.07.4.07s.27-.02.38-.06c.11-.04.19-.1.25-.18.06-.08.09-.16.09-.26,0-.09-.03-.17-.08-.23-.05-.06-.13-.12-.23-.16-.1-.04-.23-.08-.38-.12l-.44-.11c-.34-.08-.61-.21-.81-.39-.2-.18-.3-.42-.3-.72,0-.25.06-.46.2-.65.13-.18.32-.33.55-.43.23-.1.5-.16.8-.16s.57.05.79.16c.23.1.4.25.53.43.13.18.19.4.19.64h-.83Z"/>
  <path class="cls-4" d="M35.29,49.77v4.07h-.86v-4.07h.86Z"/>
  <path class="cls-4" d="M39.9,51.81c0,.44-.08.82-.25,1.13-.17.31-.39.55-.68.71-.29.16-.61.24-.97.24s-.69-.08-.97-.25c-.29-.16-.51-.4-.68-.71-.17-.31-.25-.69-.25-1.13s.08-.82.25-1.13c.17-.31.39-.55.68-.71.29-.16.61-.25.97-.25s.68.08.97.25c.29.16.52.4.68.71.17.31.25.69.25,1.13ZM39.03,51.81c0-.29-.04-.53-.13-.73-.08-.2-.2-.35-.36-.45-.16-.1-.34-.15-.54-.15s-.39.05-.54.15c-.16.1-.28.25-.36.45-.08.2-.13.44-.13.73s.04.53.13.73c.09.2.21.35.36.45.16.1.34.15.54.15s.39-.05.54-.15c.16-.1.28-.25.36-.45.09-.2.13-.44.13-.73Z"/>
  <path class="cls-4" d="M44.12,49.77v4.07h-.74l-1.77-2.56h-.03v2.56h-.86v-4.07h.76l1.76,2.56h.04v-2.56h.86Z"/>
  <path class="cls-2" d="M39,14.09c.31,0,.56-.25.56-.56v-1.68c0-.31-.25-.56-.56-.56h-16.24c-.31,0-.56.25-.56.56v1.68c0,.31.25.56.56.56h16.24Z"/>
  <path class="cls-2" d="M39,20.25c.31,0,.56-.25.56-.56v-1.68c0-.31-.25-.56-.56-.56h-16.24c-.31,0-.56.25-.56.56v1.68c0,.31.25.56.56.56h16.24Z"/>
  <path class="cls-2" d="M31.16,25.85c0,.31-.25.56-.56.56h-7.84c-.31,0-.56-.25-.56-.56v-1.68c0-.31.25-.56.56-.56h7.84c.31,0,.56.25.56.56v1.68Z"/>
  <path class="cls-1" d="M46.83,11.67v14.69c.77.38,1.44.59,1.97.59.78,0,1.4.63,1.4,1.41,0,4.57-1.71,7.89-3.59,10.08-.93,1.09-1.91,1.89-2.75,2.44-.42.27-.82.49-1.17.64-.3.13-.73.29-1.16.29s-.86-.16-1.16-.29c-.35-.15-.75-.37-1.17-.64-.1-.06-.2-.13-.31-.21h-16.91c-3.88.02-7.03-3.42-7.03-7.66V11.7c-.01-4.24,3.13-7.68,7.01-7.68h17.85c3.88-.02,7.03,3.42,7.03,7.66ZM43.47,24.06c-.42-.36-.76-.67-.96-.88-.55-.55-1.44-.55-1.98,0-.46.47-1.56,1.45-2.84,2.31-1.34.9-2.6,1.46-3.44,1.46-.37,0-.73.15-.99.41-.26.26-.41.62-.41,1,0,3.84,1.21,6.81,2.71,8.95h-13.59c-1.75.01-3.66-1.63-3.67-4.31V11.7c-.01-2.67,1.9-4.32,3.65-4.32h17.85c1.75-.02,3.66,1.63,3.67,4.3v12.39ZM35.7,29.57c.26,3.17,1.52,5.47,2.86,7.02.75.88,1.53,1.51,2.15,1.91.31.2.57.34.76.42.02,0,.04.02.06.02.02,0,.04-.02.06-.02.19-.08.44-.22.76-.42.62-.4,1.4-1.04,2.15-1.91,1.33-1.55,2.6-3.85,2.86-7.02-1.28-.34-2.54-1.06-3.55-1.73-.86-.58-1.65-1.21-2.27-1.74-.62.54-1.41,1.16-2.27,1.74-1.01.67-2.26,1.39-3.55,1.73Z"/>
</svg>