<?xml version="1.0" encoding="UTF-8"?>
<svg id="Expanded_Icons" data-name="Expanded Icons" xmlns="http://www.w3.org/2000/svg" viewBox="0 0 64 64">
  <defs>
    <style>
      .cls-1 {
        fill: #29b5e8;
        stroke-width: 0px;
      }
    </style>
  </defs>
  <path class="cls-1" d="M48.84,11h-5.88v-1.09c0-1.79-1.33-3.78-3.25-3.78h-3.94c-.37-1.62-1.53-1.78-2.8-1.78h-1.78c-1,0-2.57,0-3.05,1.78h-3.74c-1.96,0-3.54,2.07-3.54,3.78v1.09h-5.88c-1.1,0-2,.9-2,2v44.56c0,1.1.9,2,2,2h33.86c1.1,0,2-.9,2-2V13c0-1.1-.9-2-2-2ZM23.36,9.91c0-.54.66-1.28,1.04-1.28h4.85c.69,0,1.25-.56,1.25-1.25,0-.26.02-.42.04-.52.17-.02.45-.02.66-.02h1.78c.13,0,.28,0,.4,0,.01.12.02.29.02.53,0,.69.56,1.25,1.25,1.25h5.07c.27,0,.75.65.75,1.28v1.09h-17.1v-1.09ZM46.84,55.55h-29.86V15h29.86v40.56Z"/>
  <path class="cls-1" d="M22.11,46.33h19.6c.69,0,1.25-.56,1.25-1.25v-23.17c0-.69-.56-1.25-1.25-1.25h-19.6c-.69,0-1.25.56-1.25,1.25v23.17c0,.69.56,1.25,1.25,1.25ZM23.36,43.83v-4.63h17.1v4.63h-17.1ZM40.47,23.16v13.54h-17.1v-13.54h17.1Z"/>
  <path class="cls-1" d="M28.35,28.51h7.13c.69,0,1.25-.56,1.25-1.25s-.56-1.25-1.25-1.25h-7.13c-.69,0-1.25.56-1.25,1.25s.56,1.25,1.25,1.25Z"/>
  <path class="cls-1" d="M28.35,33.85h7.13c.69,0,1.25-.56,1.25-1.25s-.56-1.25-1.25-1.25h-7.13c-.69,0-1.25.56-1.25,1.25s.56,1.25,1.25,1.25Z"/>
</svg>