<?xml version="1.0" encoding="UTF-8"?>
<svg id="Expanded_Icons" data-name="Expanded Icons" xmlns="http://www.w3.org/2000/svg" viewBox="0 0 64 64">
  <defs>
    <style>
      .cls-1 {
        fill: #29b5e8;
        fill-rule: evenodd;
      }

      .cls-1, .cls-2, .cls-3 {
        stroke-width: 0px;
      }

      .cls-2 {
        fill: #11567f;
      }

      .cls-3 {
        fill: #fff;
      }
    </style>
  </defs>
  <path class="cls-1" d="M27.47,6c-5.01,0-9.07,4.06-9.07,9.07v33.86c0,5.01,4.06,9.07,9.07,9.07h21.16c5.01,0,9.07-4.06,9.07-9.07v-25.16c0-2.37-.93-4.64-2.58-6.34l-8.5-8.7c-1.71-1.75-4.05-2.73-6.49-2.73h-12.67ZM22.02,15.07c0-3.01,2.44-5.44,5.44-5.44h12.09v9.98c0,2.67,2.17,4.84,4.84,4.84h9.67v24.49c0,3.01-2.44,5.44-5.44,5.44h-21.16c-3.01,0-5.44-2.44-5.44-5.44V15.07ZM53.2,20.81c-.2-.3-.42-.59-.68-.85l-8.5-8.7c-.26-.26-.54-.5-.84-.7v9.04c0,.67.54,1.21,1.21,1.21h8.8Z"/>
  <rect class="cls-2" x="6.3" y="32" width="42.33" height="18.14" rx="4.23" ry="4.23"/>
  <path class="cls-3" d="M9.78,43.49v-5.28h2.08c.4,0,.74.08,1.02.23.28.15.5.36.64.63.15.27.22.58.22.93s-.08.66-.23.93c-.15.27-.37.48-.66.63-.29.15-.63.22-1.04.22h-1.33v-.89h1.15c.21,0,.39-.04.53-.11.14-.08.25-.18.31-.31.07-.13.11-.29.11-.46s-.04-.33-.11-.46c-.07-.13-.17-.23-.31-.31-.14-.07-.32-.11-.54-.11h-.75v4.36h-1.12Z"/>
  <path class="cls-3" d="M15.15,43.49h-1.2l1.82-5.28h1.44l1.82,5.28h-1.2l-1.32-4.07h-.04l-1.32,4.07ZM15.07,41.41h2.82v.87h-2.82v-.87Z"/>
  <path class="cls-3" d="M20.03,43.49v-5.28h2.08c.4,0,.74.07,1.02.21.28.14.5.34.65.6.15.26.22.56.22.91s-.08.65-.23.9c-.15.25-.37.44-.66.58-.29.13-.63.2-1.04.2h-1.39v-.9h1.21c.21,0,.39-.03.53-.09.14-.06.25-.15.31-.26.07-.12.11-.26.11-.44s-.04-.32-.11-.44c-.07-.12-.17-.21-.32-.27-.14-.06-.32-.1-.53-.1h-.75v4.36h-1.12ZM22.88,41.09l1.31,2.4h-1.23l-1.28-2.4h1.2Z"/>
  <path class="cls-3" d="M27.14,41.65h.95l.48.61.47.55.88,1.11h-1.04l-.61-.75-.31-.44-.82-1.08ZM30,40.85c0,.58-.11,1.07-.33,1.47-.22.4-.51.71-.89.92-.37.21-.79.32-1.26.32s-.89-.11-1.26-.32c-.37-.21-.67-.52-.88-.92-.22-.4-.32-.89-.32-1.47s.11-1.07.32-1.47c.22-.4.51-.71.88-.92.37-.21.79-.32,1.26-.32s.88.11,1.26.32c.37.21.67.52.89.92.22.4.33.89.33,1.47ZM28.87,40.85c0-.37-.06-.69-.17-.94-.11-.26-.27-.45-.47-.58-.2-.13-.44-.2-.71-.2s-.51.07-.71.2c-.2.13-.36.33-.47.58-.11.26-.16.57-.16.94s.05.69.16.94c.11.26.27.45.47.58.2.13.44.2.71.2s.51-.07.71-.2c.2-.13.36-.33.47-.58.11-.26.17-.57.17-.94Z"/>
  <path class="cls-3" d="M34.45,38.21h1.12v3.43c0,.38-.09.72-.28,1.01-.18.29-.44.51-.77.68-.33.16-.71.24-1.15.24s-.82-.08-1.15-.24c-.33-.16-.58-.39-.77-.68-.18-.29-.27-.63-.27-1.01v-3.43h1.12v3.33c0,.2.04.38.13.54.09.16.21.28.38.37.16.09.35.13.56.13s.4-.04.56-.13c.16-.09.29-.21.37-.37.09-.16.13-.33.13-.54v-3.33Z"/>
  <path class="cls-3" d="M36.84,43.49v-5.28h3.56v.92h-2.44v1.26h2.26v.92h-2.26v1.26h2.45v.92h-3.57Z"/>
  <path class="cls-3" d="M41.45,39.13v-.92h4.33v.92h-1.62v4.36h-1.1v-4.36h-1.62Z"/>
</svg>