<?xml version="1.0" encoding="UTF-8"?>
<svg id="Expanded_Icons" data-name="Expanded Icons" xmlns="http://www.w3.org/2000/svg" viewBox="0 0 64 64">
  <defs>
    <style>
      .cls-1 {
        fill: #29b5e8;
        stroke-width: 0px;
      }
    </style>
  </defs>
  <path class="cls-1" d="M42.91,34.92l-17.18-9.54c-.39-.22-.86-.21-1.24.02-.38.22-.62.63-.62,1.08v19.5c0,.45.24.86.63,1.08.19.11.41.17.62.17s.43-.06.63-.17l17.18-9.96c.39-.23.63-.64.62-1.09,0-.45-.25-.86-.64-1.08ZM26.37,43.8v-15.21l13.39,7.44-13.39,7.77Z"/>
  <path class="cls-1" d="M57.17,9.26H6.83c-1.1,0-2,.9-2,2v41.49c0,1.1.9,2,2,2h50.34c1.1,0,2-.9,2-2V11.26c0-1.1-.9-2-2-2ZM55.17,13.26v7.05H8.83v-7.05h46.34ZM8.83,50.74v-27.94h46.34v27.94H8.83Z"/>
  <circle class="cls-1" cx="12.75" cy="16.93" r="1.47"/>
  <path class="cls-1" d="M17.36,18.4c.81,0,1.47-.66,1.47-1.47s-.66-1.47-1.47-1.47-1.47.66-1.47,1.47.66,1.47,1.47,1.47Z"/>
</svg>