<?xml version="1.0" encoding="UTF-8"?>
<svg id="Expanded_Icons" data-name="Expanded Icons" xmlns="http://www.w3.org/2000/svg" viewBox="0 0 64 64">
  <defs>
    <style>
      .cls-1 {
        fill: #29b5e8;
        stroke-width: 0px;
      }
    </style>
  </defs>
  <path class="cls-1" d="M19.94,30.16h24.15c6.95,0,12.6-5.65,12.6-12.6s-5.65-12.6-12.6-12.6h-24.15c-6.95,0-12.6,5.65-12.6,12.6s5.65,12.6,12.6,12.6ZM19.94,8.96h24.15c4.75,0,8.6,3.85,8.6,8.6s-3.85,8.6-8.6,8.6h-24.15c-4.75,0-8.6-3.85-8.6-8.6s3.85-8.6,8.6-8.6Z"/>
  <path class="cls-1" d="M44.09,33.83h-24.15c-6.95,0-12.6,5.65-12.6,12.6s5.65,12.6,12.6,12.6h24.15c6.95,0,12.6-5.65,12.6-12.6s-5.65-12.6-12.6-12.6ZM44.09,55.03h-24.15c-4.75,0-8.6-3.85-8.6-8.6s3.85-8.6,8.6-8.6h24.15c4.75,0,8.6,3.85,8.6,8.6s-3.85,8.6-8.6,8.6Z"/>
  <path class="cls-1" d="M20.22,23.84c3.47,0,6.28-2.81,6.28-6.28s-2.81-6.28-6.28-6.28-6.28,2.81-6.28,6.28,2.81,6.28,6.28,6.28ZM20.22,13.78c2.08,0,3.78,1.7,3.78,3.78s-1.7,3.78-3.78,3.78-3.78-1.7-3.78-3.78,1.7-3.78,3.78-3.78Z"/>
  <path class="cls-1" d="M43.84,40.15c-3.47,0-6.28,2.81-6.28,6.28s2.81,6.28,6.28,6.28,6.28-2.81,6.28-6.28-2.81-6.28-6.28-6.28ZM43.84,50.21c-2.08,0-3.78-1.7-3.78-3.78s1.7-3.78,3.78-3.78,3.78,1.7,3.78,3.78-1.7,3.78-3.78,3.78Z"/>
</svg>