<?xml version="1.0" encoding="UTF-8"?>
<svg id="Expanded_Icons" data-name="Expanded Icons" xmlns="http://www.w3.org/2000/svg" viewBox="0 0 64 64">
  <defs>
    <style>
      .cls-1 {
        fill: #29b5e8;
        stroke-width: 0px;
      }
    </style>
  </defs>
  <path class="cls-1" d="M52.31,26.39h-.66s0-.01,0-.02v-12.08c0-.61-.25-1.17-.65-1.57-1.66-5.42-11.84-8.24-21.91-8.24-14.67,0-22.35,4.94-22.35,9.82v35.37c0,4.88,7.68,9.81,22.35,9.81s22.35-4.94,22.35-9.81v-2.54h.88c2.46,0,4.47-2,4.47-4.47v-11.8c0-2.46-2-4.47-4.47-4.47ZM29.08,8.48c11,0,18.04,3.39,18.14,5.76,0,.02,0,.03,0,.05v.08c-.16,2.37-7.18,5.73-18.14,5.73s-18.35-3.5-18.35-5.81,7.32-5.82,18.35-5.82ZM47.43,49.66c0,2.31-7.32,5.81-18.35,5.81s-18.35-3.5-18.35-5.81v-29.59c3.67,2.36,9.82,4.03,18.35,4.03,6.93,0,13.91-1.34,18.14-3.94v6.2s0,.01,0,.02h-18.51c-2.46,0-4.47,2-4.47,4.47v11.8c0,2.46,2,4.47,4.47,4.47h18.72v2.54ZM54.27,42.66c0,1.09-.88,1.97-1.97,1.97h-23.6c-1.09,0-1.97-.88-1.97-1.97v-11.8c0-1.09.88-1.97,1.97-1.97h23.6c1.09,0,1.97.88,1.97,1.97v11.8Z"/>
  <path class="cls-1" d="M32.93,35.77c-1.39-.46-1.77-.76-1.77-1.39,0-.73.52-1.14,1.43-1.14,1.33,0,2.12.76,2.12.76l.82-1.23s-.84-.93-2.94-.93-3.11,1.04-3.11,2.61c0,1.43.87,2.12,2.77,2.73,1.51.5,1.81.85,1.81,1.55,0,.75-.44,1.26-1.49,1.26-1.36,0-2.35-.88-2.35-.88l-.82,1.14s1.04,1.14,3.22,1.14,3.14-1.22,3.14-2.77c0-1.42-.78-2.23-2.83-2.85Z"/>
  <path class="cls-1" d="M45.05,36.62c0-2.67-1.68-4.79-4.22-4.79s-4.21,2.12-4.21,4.79,1.68,4.77,4.21,4.77c.24,0,.47-.02.7-.06l.81,1.57h1.68l-1.11-2.06c1.34-.81,2.15-2.39,2.15-4.22ZM40.83,39.93c-1.57,0-2.65-1.43-2.65-3.31s1.08-3.34,2.65-3.34,2.67,1.45,2.67,3.34-1.1,3.31-2.67,3.31Z"/>
  <polygon class="cls-1" points="47.59 32.04 46.08 32.04 46.08 41.18 51.62 41.18 51.62 39.84 47.59 39.84 47.59 32.04"/>
</svg>