<?xml version="1.0" encoding="UTF-8"?>
<svg id="Expanded_Icons" data-name="Expanded Icons" xmlns="http://www.w3.org/2000/svg" viewBox="0 0 64 64">
  <defs>
    <style>
      .cls-1 {
        fill: #29b5e8;
        stroke-width: 0px;
      }
    </style>
  </defs>
  <path class="cls-1" d="M42.07,4.74h-20.14c-2.77,0-5.02,2.25-5.02,5.02v44.46c0,2.77,2.25,5.02,5.02,5.02h20.14c2.77,0,5.02-2.25,5.02-5.02V9.76c0-2.77-2.25-5.02-5.02-5.02ZM20.91,18.99h22.18v26h-22.18v-26ZM21.93,8.74h20.14c.56,0,1.02.46,1.02,1.02v6.73h-22.18v-6.73c0-.56.46-1.02,1.02-1.02ZM42.07,55.24h-20.14c-.56,0-1.02-.46-1.02-1.02v-6.73h22.18v6.73c0,.56-.46,1.02-1.02,1.02Z"/>
  <path class="cls-1" d="M32,14.24c.4,0,.78-.16,1.06-.44.28-.28.44-.66.44-1.06s-.16-.78-.44-1.06c-.56-.56-1.56-.56-2.12,0-.28.28-.44.67-.44,1.06s.16.78.44,1.06c.28.28.66.44,1.06.44Z"/>
  <path class="cls-1" d="M34.01,49.99h-4.03c-.69,0-1.25.56-1.25,1.25s.56,1.25,1.25,1.25h4.03c.69,0,1.25-.56,1.25-1.25s-.56-1.25-1.25-1.25Z"/>
</svg>