<?xml version="1.0" encoding="UTF-8"?>
<svg id="Expanded_Icons" data-name="Expanded Icons" xmlns="http://www.w3.org/2000/svg" viewBox="0 0 64 64">
  <defs>
    <style>
      .cls-1 {
        fill: #29b5e8;
        stroke-width: 0px;
      }
    </style>
  </defs>
  <path class="cls-1" d="M50.85,4.51H13.15c-4.77,0-8.65,3.88-8.65,8.65v37.7c0,4.77,3.88,8.65,8.65,8.65h37.7c4.77,0,8.65-3.88,8.65-8.65V13.16c0-4.77-3.88-8.65-8.65-8.65ZM55.5,50.85c0,2.57-2.09,4.65-4.65,4.65H13.15c-2.57,0-4.65-2.09-4.65-4.65V13.16c0-2.56,2.09-4.65,4.65-4.65h37.7c2.57,0,4.65,2.09,4.65,4.65v37.7Z"/>
  <path class="cls-1" d="M35.77,44.13c0,2.31-.79,3.29-2.45,3.29-1.25,0-2.14-.82-2.14-.82l-1.15,1.87s1.15,1.25,3.41,1.25c3.24,0,4.68-2.09,4.71-5.12v-9.63h-2.38v9.15Z"/>
  <path class="cls-1" d="M45.86,40.87c-2.19-.72-2.79-1.2-2.79-2.19,0-1.15.82-1.8,2.26-1.8,2.09,0,3.34,1.2,3.34,1.2l1.3-1.95s-1.32-1.46-4.64-1.46-4.9,1.63-4.9,4.11c0,2.26,1.37,3.34,4.37,4.3,2.38.79,2.86,1.34,2.86,2.45,0,1.18-.7,1.99-2.35,1.99-2.14,0-3.7-1.39-3.7-1.39l-1.3,1.8s1.63,1.8,5.07,1.8,4.95-1.92,4.95-4.37c0-2.23-1.23-3.51-4.47-4.49Z"/>
</svg>