<?xml version="1.0" encoding="UTF-8"?>
<svg id="Expanded_Icons" data-name="Expanded Icons" xmlns="http://www.w3.org/2000/svg" viewBox="0 0 64 64">
  <defs>
    <style>
      .cls-1 {
        fill: #29b5e8;
        stroke-width: 0px;
      }
    </style>
  </defs>
  <path class="cls-1" d="M38.59,30c-.22-.39-.72-.52-1.11-.31l-2.78,1.6c-.17.11-.31.28-.37.48,0,.07-.02.13-.02.2,0,.09.02.17.04.26.07.17.2.35.37.46l2.78,1.6c.39.22.9.09,1.12-.31s.09-.9-.31-1.12l-1.55-.9,1.55-.9c.39-.22.55-.72.28-1.07Z"/>
  <path class="cls-1" d="M33.65,25.41c-.46,0-.83.35-.83.81v3.19c0,.44.35.79.77.81.15.02.33-.02.48-.11l2.78-1.6c.39-.22.52-.72.31-1.12-.22-.39-.72-.52-1.11-.31l-1.55.9v-1.77c0-.46-.37-.81-.83-.81Z"/>
  <path class="cls-1" d="M25.71,34c.22.39.72.52,1.11.31l2.78-1.6c.2-.15.33-.31.37-.5.02-.09.04-.17.04-.26,0-.07-.02-.13-.02-.2-.07-.2-.18-.37-.37-.48l-2.8-1.6c-.39-.22-.9-.09-1.11.31-.22.39-.09.9.31,1.12l1.55.9-1.55.9c-.39.22-.52.72-.31,1.12Z"/>
  <path class="cls-1" d="M30.67,38.55c.46,0,.81-.37.81-.81v-3.21c0-.44-.33-.79-.74-.81-.15-.02-.33.02-.48.11l-2.78,1.6c-.39.22-.52.72-.31,1.12s.72.52,1.11.31l1.55-.9v1.79c0,.46.37.81.83.81Z"/>
  <path class="cls-1" d="M30.7,25.41c-.46,0-.83.37-.83.81v1.79l-1.55-.9c-.39-.22-.9-.09-1.12.31-.24.37-.11.87.28,1.09l2.78,1.6c.15.09.31.11.48.11.42-.02.77-.39.77-.81v-3.19c0-.46-.37-.81-.81-.81Z"/>
  <path class="cls-1" d="M34.06,33.8c-.15-.09-.33-.11-.48-.09-.42.02-.77.39-.77.81v3.19c0,.46.37.81.81.81.46,0,.83-.37.83-.81v-1.79l1.55.9c.39.22.9.09,1.12-.31.24-.37.11-.87-.28-1.12l-2.78-1.6Z"/>
  <path class="cls-1" d="M32.36,30.41h-.35s-.11.02-.15.07l-1.16,1.16s-.07.11-.07.15v.35s.02.11.04.13l1.16,1.16s.11.07.15.07h.35s.11-.04.13-.07l1.16-1.16s.07-.09.11-.13v-.35c0-.07-.02-.11-.07-.15l-1.16-1.16s-.11-.07-.15-.07ZM32.71,31.97s-.02.11-.07.15l-.33.33s-.11.07-.15.07c-.07,0-.11-.02-.15-.07l-.33-.33s-.07-.11-.07-.15.02-.11.07-.15l.33-.33s.11-.07.15-.07c.07,0,.11.02.15.07l.33.33s.07.11.07.15Z"/>
  <path class="cls-1" d="M53.6,19.03h-7.01c-1.46,0-2.68.89-3.64,2.32h-18.45c-1.22-1.79-2.53-2.27-3.49-2.31-.02,0-.03,0-.04,0h-7.34c-2.4,0-4.39,2.43-5.46,6.65-.17.67.24,1.35.91,1.52.1.03.21.04.31.04.56,0,1.07-.38,1.21-.94.83-3.27,2.15-4.77,3.03-4.77h3.47c-.69,1.07-1.26,2.47-1.69,4.15-.17.67.24,1.35.91,1.52.1.03.21.04.31.04.56,0,1.07-.38,1.21-.94.83-3.27,2.15-4.77,3.03-4.77.31,0,.66.18,1,.52-.05.04-.11.07-.16.12-.53.44-.6,1.23-.16,1.76.25.3.6.45.96.45.28,0,.57-.1.8-.29.19-.16.36-.24.51-.24h17.9c-.87,2.35-1.32,5.28-1.32,8.13s.45,5.78,1.32,8.13h-21.39c-.69,0-1.25.56-1.25,1.25s.56,1.25,1.25,1.25h22.63c.96,1.43,2.17,2.32,3.64,2.32h7.01c4.02,0,6.2-6.67,6.2-12.95s-2.17-12.95-6.2-12.95ZM42.9,31.98c0-6.38,2.19-10.45,3.69-10.45h3.25c-1.6,2.51-2.43,6.56-2.43,10.45s.84,7.94,2.43,10.45h-3.25c-1.51,0-3.69-4.07-3.69-10.45ZM53.6,42.43c-1.51,0-3.7-4.07-3.7-10.45s2.19-10.45,3.7-10.45,3.7,4.07,3.7,10.45-2.19,10.45-3.7,10.45Z"/>
  <path class="cls-1" d="M7.75,30.69h12.55l-.98,1.08c-.46.51-.42,1.3.09,1.77.24.22.54.32.84.32.34,0,.68-.14.93-.41l2.86-3.17c.43-.48.43-1.2,0-1.67l-2.86-3.17c-.46-.51-1.25-.55-1.77-.09s-.55,1.25-.09,1.77l.98,1.08H7.75c-.69,0-1.25.56-1.25,1.25s.56,1.25,1.25,1.25Z"/>
  <path class="cls-1" d="M6.08,34.98h6.05c.69,0,1.25-.56,1.25-1.25s-.56-1.25-1.25-1.25h-6.05c-.69,0-1.25.56-1.25,1.25s.56,1.25,1.25,1.25Z"/>
  <path class="cls-1" d="M12.13,41.22h-6.64c-.69,0-1.25.56-1.25,1.25s.56,1.25,1.25,1.25h6.64c.69,0,1.25-.56,1.25-1.25s-.56-1.25-1.25-1.25Z"/>
  <path class="cls-1" d="M19.48,37.15l-2.86-3.17c-.46-.51-1.25-.55-1.77-.09-.51.46-.55,1.25-.09,1.77l.98,1.08h-7.16c-.69,0-1.25.56-1.25,1.25s.56,1.25,1.25,1.25h7.16l-.98,1.08c-.46.51-.42,1.3.09,1.77.24.22.54.32.84.32.34,0,.68-.14.93-.41l2.86-3.17c.43-.48.43-1.2,0-1.67Z"/>
</svg>