<?xml version="1.0" encoding="UTF-8"?>
<svg id="Expanded_Icons" data-name="Expanded Icons" xmlns="http://www.w3.org/2000/svg" viewBox="0 0 64 64">
  <defs>
    <style>
      .cls-1 {
        fill-rule: evenodd;
      }

      .cls-1, .cls-2 {
        fill: #29b5e8;
      }

      .cls-1, .cls-2, .cls-3, .cls-4 {
        stroke-width: 0px;
      }

      .cls-3 {
        fill: #11567f;
      }

      .cls-4 {
        fill: #fff;
      }
    </style>
  </defs>
  <path class="cls-2" d="M31.96,22.23c1.89,0,3.42-1.53,3.42-3.42s-1.53-3.42-3.42-3.42-3.42,1.53-3.42,3.42,1.53,3.42,3.42,3.42Z"/>
  <path class="cls-2" d="M38.71,29.69c.27.9-.51,1.68-1.45,1.68h-10.66c-.94,0-1.72-.78-1.45-1.68.62-2.09,2.42-5.12,6.76-5.12s6.19,3.03,6.81,5.12Z"/>
  <path class="cls-1" d="M30.24,4v4.02h-6.29c-3.44,0-6.24,2.79-6.24,6.24v18.23c0,3.44,2.79,6.24,6.24,6.24h15.95c3.44,0,6.24-2.79,6.24-6.24V14.25c0-3.44-2.79-6.24-6.24-6.24h-6.3v-4.02h-3.36ZM21.08,14.25c0-1.59,1.29-2.88,2.88-2.88h15.95c1.59,0,2.88,1.29,2.88,2.88v18.23c0,1.59-1.29,2.88-2.88,2.88h-15.95c-1.59,0-2.88-1.29-2.88-2.88V14.25Z"/>
  <rect class="cls-3" x="8.76" y="43.2" width="46.48" height="16.8" rx="3.92" ry="3.92"/>
  <path class="cls-4" d="M16,49.36h.95v2.91c0,.33-.08.61-.23.86-.15.25-.37.44-.65.57-.28.14-.6.2-.97.2s-.7-.07-.98-.2c-.28-.14-.5-.33-.65-.57-.15-.24-.23-.53-.23-.86v-2.91h.95v2.83c0,.17.04.32.11.46.08.13.18.24.32.31s.3.11.48.11.34-.04.48-.11c.14-.08.24-.18.32-.31.08-.13.11-.28.11-.46v-2.83Z"/>
  <path class="cls-4" d="M20.28,50.65c-.02-.18-.09-.31-.23-.41-.13-.1-.31-.15-.54-.15-.15,0-.29.02-.39.07-.11.04-.19.1-.24.18-.06.08-.08.16-.08.26,0,.08.01.15.05.21.04.06.09.11.16.16.07.04.14.08.23.11.09.03.18.06.28.08l.4.1c.2.04.37.1.54.17.16.07.3.16.42.27.12.11.21.23.28.38.07.14.1.31.1.5,0,.27-.07.51-.21.71-.14.2-.34.36-.6.47-.26.11-.57.16-.93.16s-.68-.06-.95-.17c-.27-.11-.48-.27-.63-.49-.15-.22-.23-.49-.23-.81h.92c.01.15.05.28.13.38.08.1.18.17.31.23.13.05.28.07.44.07s.3-.02.42-.07c.12-.05.21-.11.28-.19.07-.08.1-.18.1-.29,0-.1-.03-.19-.09-.25-.06-.07-.14-.13-.26-.17-.11-.05-.25-.09-.41-.13l-.49-.12c-.38-.09-.68-.24-.89-.43-.22-.2-.33-.46-.33-.79,0-.27.07-.51.22-.71.15-.2.35-.36.61-.47.26-.11.55-.17.88-.17s.62.06.87.17c.25.11.44.27.58.47.14.2.21.44.21.7h-.91Z"/>
  <path class="cls-4" d="M22.01,53.84v-4.48h3.02v.78h-2.07v1.07h1.92v.78h-1.92v1.07h2.08v.78h-3.03Z"/>
  <path class="cls-4" d="M25.9,53.84v-4.48h1.77c.34,0,.63.06.87.18.24.12.42.29.55.51.13.22.19.48.19.77s-.06.55-.19.77c-.13.21-.31.38-.56.49-.24.11-.54.17-.88.17h-1.18v-.76h1.03c.18,0,.33-.02.45-.07.12-.05.21-.12.27-.22.06-.1.09-.22.09-.37s-.03-.27-.09-.38c-.06-.1-.15-.18-.27-.23-.12-.05-.27-.08-.45-.08h-.64v3.71h-.95ZM28.32,51.8l1.11,2.04h-1.05l-1.09-2.04h1.02Z"/>
  <path class="cls-4" d="M30.84,53.84h-1.01l1.55-4.48h1.22l1.54,4.48h-1.01l-1.12-3.46h-.03l-1.12,3.46ZM30.78,52.08h2.4v.74h-2.4v-.74Z"/>
  <path class="cls-4" d="M36.39,53.84h-1.59v-4.48h1.6c.45,0,.84.09,1.16.27.33.18.58.43.75.77.18.33.26.73.26,1.2s-.09.87-.26,1.2c-.17.34-.43.59-.75.77-.33.18-.72.27-1.17.27ZM35.75,53.03h.6c.28,0,.52-.05.71-.15.19-.1.34-.26.43-.47.1-.21.15-.48.15-.82s-.05-.6-.15-.81c-.1-.21-.24-.36-.43-.46-.19-.1-.43-.15-.71-.15h-.6v2.86Z"/>
  <path class="cls-4" d="M39.41,49.36h1.17l1.23,3.01h.05l1.23-3.01h1.17v4.48h-.92v-2.92h-.04l-1.16,2.89h-.63l-1.16-2.9h-.04v2.93h-.92v-4.48Z"/>
  <path class="cls-4" d="M46.11,49.36v4.48h-.95v-4.48h.95Z"/>
  <path class="cls-4" d="M50.76,49.36v4.48h-.82l-1.95-2.82h-.03v2.82h-.95v-4.48h.83l1.93,2.82h.04v-2.82h.94Z"/>
</svg>