<?xml version="1.0" encoding="UTF-8"?>
<svg id="Expanded_Icons" data-name="Expanded Icons" xmlns="http://www.w3.org/2000/svg" viewBox="0 0 64 64">
  <defs>
    <style>
      .cls-1 {
        fill: #29b5e8;
        stroke-width: 0px;
      }
    </style>
  </defs>
  <path class="cls-1" d="M33.51,44.05c2.55-.84,8.69-3.86,10.78-13.58.14-.67-.29-1.34-.96-1.48-.67-.14-1.34.29-1.48.96-1.81,8.46-6.98,11.02-9.12,11.73-.78.26-1.63.23-2.39-.1-2.23-.95-7.51-4.18-8.22-13.63-.05-.69-.66-1.23-1.34-1.15-.69.05-1.21.65-1.15,1.34.81,10.82,7.07,14.61,9.73,15.74.74.31,1.52.47,2.3.47.62,0,1.25-.1,1.85-.3Z"/>
  <path class="cls-1" d="M23.68,25.56c2.72-1.21,4.35-2.88,5.29-4.19,1.72,2.27,5.4,5.97,11.78,7.3.09.02.17.03.26.03.58,0,1.1-.4,1.22-.99.14-.68-.29-1.34-.97-1.48-8.05-1.68-11.13-7.59-11.26-7.83-.23-.45-.69-.71-1.21-.69-.5.04-.94.38-1.1.86,0,.03-1.07,2.96-5.02,4.72-.63.28-.92,1.02-.64,1.65.28.63,1.02.92,1.65.64Z"/>
  <path class="cls-1" d="M57.41,56.53c-.19-2.11-.43-4.74-1.18-6.55-.32-.76-1.06-2.55-12.81-5.93,1.33-.48,3.37-1.35,4.72-2.6.93-.85,2.37-3.37,1.6-10.53-.09-1.48-.93-14.57-2.66-18.5-1.46-3.32-3.58-5.46-6.32-6.37-2.89-.96-5.68-.22-7.23.38-2.4-1.52-6.83-2.81-11.76.02-10.34,5.93-7.79,21.58-7.23,24.41-1.25,6.87-.05,9.41.79,10.32,2,2.17,5.2,2.73,5.64,2.79-.05.01-.11,0-.16.02-11.97,3.42-12.72,5.22-13.03,5.99-.66,1.59-.88,3.8-1.08,5.75-.05.45-.09.89-.14,1.28-.13,1.1.65,2.09,1.74,2.23.08,0,.16.01.24.01,1,0,1.86-.74,1.98-1.76.05-.41.1-.87.15-1.35.15-1.48.34-3.3.71-4.4,1.07-.8,5.46-2.41,9.48-3.61l9.72,8.54c.39.34.87.5,1.35.49.03,0,.05,0,.07,0,.01,0,.02,0,.03,0,.48.01.98-.15,1.37-.49l9.72-8.54c4.02,1.2,8.42,2.8,9.48,3.61.45,1.3.65,3.51.8,5.15l.05.54c.1,1.04.97,1.81,1.99,1.81.06,0,.12,0,.19,0,1.1-.1,1.91-1.08,1.8-2.18l-.05-.53ZM21.66,43.95c.81-.15,1.47-.79,1.6-1.65.17-1.09-.58-2.11-1.67-2.28-.62-.1-2.41-.57-3.28-1.5-.46-.75-.35-4.23.23-7.31.05-.27.05-.55-.01-.81-.04-.15-3.39-15.54,5.23-20.48,4.69-2.69,8.04.18,8.17.29.63.58,1.58.69,2.33.27.03-.01,2.72-1.48,5.27-.62,1.61.54,2.92,1.95,3.89,4.17,1.08,2.47,2,11.82,2.34,17.23.33,3.11.16,6.59-.33,7.26-1.13,1.04-3.55,1.88-4.39,2.12-1.06.3-1.69,1.4-1.39,2.46.21.77.85,1.28,1.58,1.41l-9.23,8.11-9.32-8.19c-.29-.26-.65-.4-1.02-.46Z"/>
</svg>