<?xml version="1.0" encoding="UTF-8"?>
<svg id="Expanded_Icons" data-name="Expanded Icons" xmlns="http://www.w3.org/2000/svg" viewBox="0 0 64 64">
  <defs>
    <style>
      .cls-1 {
        fill: #29b5e8;
        fill-rule: evenodd;
      }

      .cls-1, .cls-2, .cls-3 {
        stroke-width: 0px;
      }

      .cls-2 {
        fill: #11567f;
      }

      .cls-3 {
        fill: #fff;
      }
    </style>
  </defs>
  <rect class="cls-2" x="10.22" y="43.03" width="43.56" height="16.97" rx="3.96" ry="3.96"/>
  <path class="cls-1" d="M19.27,4c-4.06,0-7.35,3.29-7.35,7.35v19.8c0,4.06,3.29,7.35,7.35,7.35h26.43c4.06,0,7.35-3.29,7.35-7.35V11.35c0-4.06-3.29-7.35-7.35-7.35h-26.43ZM15.31,11.35c0-2.19,1.77-3.96,3.96-3.96h26.43c2.19,0,3.96,1.77,3.96,3.96v1.83H15.31v-1.83ZM15.31,16.57v14.58c0,2.19,1.77,3.96,3.96,3.96h26.43c2.19,0,3.96-1.77,3.96-3.96v-14.58H15.31Z"/>
  <g>
    <path class="cls-3" d="M18.21,54.03h-1.69v-4.78h1.71c.48,0,.89.1,1.24.29s.61.46.8.82c.19.36.28.78.28,1.28s-.09.93-.28,1.28c-.19.36-.46.63-.81.82-.35.19-.77.29-1.25.29ZM17.53,53.17h.64c.3,0,.55-.05.75-.16.21-.11.36-.27.46-.5.1-.22.16-.52.16-.87s-.05-.64-.16-.87c-.1-.22-.26-.39-.46-.5-.2-.11-.46-.16-.75-.16h-.64v3.05Z"/>
    <path class="cls-3" d="M20.73,49.25h1.13l1.09,2.06h.05l1.09-2.06h1.13l-1.74,3.09v1.69h-1v-1.69l-1.74-3.09Z"/>
    <path class="cls-3" d="M29.77,49.25v4.78h-.87l-2.08-3.01h-.04v3.01h-1.01v-4.78h.89l2.06,3.01h.04v-3.01h1.01Z"/>
    <path class="cls-3" d="M31.42,54.03h-1.08l1.65-4.78h1.3l1.65,4.78h-1.08l-1.2-3.69h-.04l-1.2,3.69ZM31.36,52.15h2.56v.79h-2.56v-.79Z"/>
    <path class="cls-3" d="M35.51,49.25h1.25l1.32,3.21h.06l1.32-3.21h1.25v4.78h-.98v-3.11h-.04l-1.24,3.09h-.67l-1.24-3.1h-.04v3.12h-.98v-4.78Z"/>
    <path class="cls-3" d="M42.54,49.25v4.78h-1.01v-4.78h1.01Z"/>
    <path class="cls-3" d="M47.59,50.93h-1.02c-.02-.13-.06-.25-.11-.35s-.13-.19-.22-.26c-.09-.07-.19-.13-.31-.17-.12-.04-.25-.06-.38-.06-.25,0-.46.06-.65.18s-.33.3-.43.53c-.1.23-.15.51-.15.85s.05.63.15.86c.1.23.24.41.43.53s.4.18.64.18c.13,0,.26-.02.38-.05.12-.04.22-.09.31-.16.09-.07.17-.15.23-.25s.1-.21.12-.34h1.02c-.03.22-.09.44-.2.64-.11.2-.25.38-.42.54-.18.16-.39.29-.63.38-.24.09-.52.14-.83.14-.43,0-.81-.1-1.14-.29-.33-.19-.6-.47-.79-.84-.19-.37-.29-.81-.29-1.33s.1-.96.29-1.33c.2-.37.46-.64.8-.84s.71-.29,1.13-.29c.28,0,.53.04.77.12.24.08.45.19.63.34s.33.33.45.54c.12.21.19.46.22.74Z"/>
  </g>
</svg>