<?xml version="1.0" encoding="UTF-8"?>
<svg id="Expanded_Icons" data-name="Expanded Icons" xmlns="http://www.w3.org/2000/svg" viewBox="0 0 64 64">
  <defs>
    <style>
      .cls-1 {
        fill: #29b5e8;
        stroke-width: 0px;
      }
    </style>
  </defs>
  <path class="cls-1" d="M51.44,4.5H12.56c-4.45,0-8.06,3.62-8.06,8.06v38.87c0,4.45,3.62,8.06,8.06,8.06h38.87c4.45,0,8.06-3.62,8.06-8.06V12.56c0-4.45-3.62-8.06-8.06-8.06ZM55.5,51.44c0,2.24-1.82,4.06-4.06,4.06H12.56c-2.24,0-4.06-1.82-4.06-4.06V12.56c0-2.24,1.82-4.06,4.06-4.06h38.87c2.24,0,4.06,1.82,4.06,4.06v38.87Z"/>
  <path class="cls-1" d="M48.81,18.4h-3.63c-.57-2.31-2.64-4.03-5.12-4.03s-4.55,1.72-5.12,4.03H15.19c-.69,0-1.25.56-1.25,1.25s.56,1.25,1.25,1.25h19.75c.56,2.31,2.64,4.04,5.12,4.04s4.56-1.73,5.12-4.04h3.62c.69,0,1.25-.56,1.25-1.25s-.56-1.25-1.25-1.25ZM40.07,22.44c-1.53,0-2.78-1.24-2.78-2.77,0,0,0-.01,0-.02,0,0,0,0,0-.01.01-1.53,1.25-2.76,2.78-2.76s2.76,1.23,2.78,2.75c0,0,0,.01,0,.02,0,0,0,.02,0,.03-.01,1.53-1.25,2.76-2.78,2.76Z"/>
  <path class="cls-1" d="M48.81,30.75h-18.78c-.42-2.49-2.58-4.41-5.19-4.41s-4.77,1.91-5.19,4.41h-4.45c-.69,0-1.25.56-1.25,1.25s.56,1.25,1.25,1.25h4.64c.69,2.12,2.66,3.66,5,3.66s4.31-1.54,5-3.66h18.97c.69,0,1.25-.56,1.25-1.25s-.56-1.25-1.25-1.25ZM24.84,34.41c-1.53,0-2.78-1.25-2.78-2.78s1.25-2.78,2.78-2.78,2.78,1.25,2.78,2.78-1.25,2.78-2.78,2.78Z"/>
  <path class="cls-1" d="M48.81,43.1h-11.69c-.56-2.31-2.64-4.04-5.12-4.04s-4.56,1.73-5.12,4.04h-11.69c-.69,0-1.25.56-1.25,1.25s.56,1.25,1.25,1.25h11.69c.57,2.31,2.64,4.03,5.12,4.03s4.55-1.72,5.12-4.03h11.69c.69,0,1.25-.56,1.25-1.25s-.56-1.25-1.25-1.25ZM32,47.12c-1.53,0-2.78-1.25-2.78-2.78s1.25-2.78,2.78-2.78,2.78,1.25,2.78,2.78-1.25,2.78-2.78,2.78Z"/>
</svg>