<?xml version="1.0" encoding="UTF-8"?>
<svg id="Expanded_Icons" data-name="Expanded Icons" xmlns="http://www.w3.org/2000/svg" viewBox="0 0 64 64">
  <defs>
    <style>
      .cls-1 {
        opacity: .62;
      }

      .cls-2 {
        opacity: .82;
      }

      .cls-3 {
        fill: #2ab5e8;
      }

      .cls-3, .cls-4, .cls-5 {
        stroke-width: 0px;
      }

      .cls-4 {
        fill: #52c3ec;
      }

      .cls-5 {
        fill: #7fd2f1;
      }
    </style>
  </defs>
  <path class="cls-3" d="M34.94,59.95h-5.88c-1.22,0-2.73-.64-3.6-1.52L5.48,38.5c-.86-.86-1.48-2.36-1.48-3.57v-5.88c0-1.22.61-2.72,1.46-3.58L25.48,5.53c.83-.86,2.34-1.49,3.58-1.49h5.88c1.24,0,2.76.64,3.61,1.51l19.98,19.91s.01.01.02.02c.85.87,1.46,2.37,1.46,3.58v5.88c0,1.2-.62,2.7-1.47,3.56l-20.01,19.95c-.85.87-2.37,1.51-3.58,1.51h0ZM29.06,7.08c-.41,0-1.15.3-1.43.58L7.62,27.61c-.28.28-.58,1.03-.58,1.44v5.88c0,.4.31,1.14.58,1.42l20,19.94c.3.31,1.04.62,1.44.62h5.88c.41,0,1.14-.31,1.43-.61l20.01-19.95c.27-.28.58-1.02.58-1.41v-5.88c0-.41-.3-1.15-.59-1.45L36.39,7.68c-.3-.31-1.03-.61-1.44-.61h-5.88Z"/>
  <g>
    <path class="cls-3" d="M32.06,34.06l-5.47-2.84-9.5-4.93s-.03,0-.03,0c-.35-.16-.7.19-.57.53l4.92,12.26h0s.01.03.02.04c.2.46.64.74,1.11.85.04,0,.07.02.11.02.05.01.11.02.17.03h.12c6.11.62,12.27.57,18.37-.14h0c.07,0,.15,0,.22-.01.02,0,.05,0,.07,0h.01s.03,0,.05,0c.02,0,.05,0,.06-.01.05-.01.06-.02.12-.04s.15-.06.22-.09c.06-.03.1-.06.15-.09.06-.04.12-.08.18-.12.03-.02.05-.03.06-.05h-.01l-10.36-5.38h0Z"/>
    <g class="cls-1">
      <path class="cls-5" d="M46.93,26.07h-.01l-9.43,5.08,5.32,7.8,4.71-12.35v-.02c.12-.36-.26-.69-.6-.49"/>
    </g>
    <g class="cls-2">
      <path class="cls-4" d="M32.49,23.8c-.24-.35-.77-.35-1,0l-4.89,7.42,5.47,2.84,10.37,5.38c.06-.06.11-.12.17-.19.08-.1.15-.2.21-.32l-5.32-7.8-5.01-7.34h0Z"/>
    </g>
  </g>
</svg>