<?xml version="1.0" encoding="UTF-8"?>
<svg id="Expanded_Icons" data-name="Expanded Icons" xmlns="http://www.w3.org/2000/svg" viewBox="0 0 64 64">
  <defs>
    <style>
      .cls-1 {
        fill: #29b5e8;
        stroke-width: 0px;
      }
    </style>
  </defs>
  <path class="cls-1" d="M49.7,41.79c-.69,0-1.25.56-1.25,1.25v3.65l-9.21-9.59c-.48-.5-1.27-.51-1.77-.04-.5.48-.51,1.27-.04,1.77l9.33,9.72h-3.83c-.69,0-1.25.56-1.25,1.25s.56,1.25,1.25,1.25h6.76s0,0,0,0c.16,0,.32-.03.46-.09.08-.03.15-.09.22-.14.06-.04.12-.06.18-.11,0,0,0,0,0-.01.09-.09.16-.2.22-.31.02-.03.05-.06.06-.09.02-.04.02-.1.03-.14.03-.11.07-.22.07-.34,0,0,0,0,0-.01v-6.76c0-.69-.56-1.25-1.25-1.25Z"/>
  <path class="cls-1" d="M24.47,37.1l-9.21,9.59v-3.65c0-.69-.56-1.25-1.25-1.25s-1.25.56-1.25,1.25v6.76s0,0,0,.01c0,.11.04.23.07.34.01.05.01.1.03.14.01.03.04.06.06.09.06.11.13.22.22.31,0,0,0,0,0,.01.05.05.12.07.18.11.07.05.14.11.22.14.15.06.31.09.46.09,0,0,0,0,0,0h6.76c.69,0,1.25-.56,1.25-1.25s-.56-1.25-1.25-1.25h-3.83l9.33-9.72c.48-.5.46-1.29-.04-1.77-.5-.48-1.29-.46-1.77.04Z"/>
  <path class="cls-1" d="M50.95,14.17c0-.11-.04-.23-.07-.34-.01-.05-.01-.1-.03-.14-.01-.03-.04-.06-.06-.09-.06-.11-.13-.22-.22-.31,0,0,0,0,0-.01-.04-.04-.1-.06-.14-.09-.08-.06-.16-.12-.26-.16-.1-.04-.2-.05-.3-.06-.05,0-.1-.03-.16-.03h-6.76c-.69,0-1.25.56-1.25,1.25s.56,1.25,1.25,1.25h3.83l-9.33,9.72c-.48.5-.46,1.29.04,1.77.24.23.55.35.87.35.33,0,.66-.13.9-.38l9.21-9.59v3.65c0,.69.56,1.25,1.25,1.25s1.25-.56,1.25-1.25v-6.76s0,0,0-.01Z"/>
  <path class="cls-1" d="M17,15.43h3.83c.69,0,1.25-.56,1.25-1.25s-.56-1.25-1.25-1.25h-6.76c-.06,0-.11.03-.17.03-.1.01-.2.02-.3.06-.1.04-.17.1-.26.16-.05.03-.1.05-.14.09,0,0,0,0,0,.01-.09.09-.16.2-.22.31-.02.03-.05.06-.06.09-.02.04-.02.1-.03.14-.03.11-.07.22-.07.34,0,0,0,0,0,.01v6.76c0,.69.56,1.25,1.25,1.25s1.25-.56,1.25-1.25v-3.65l9.21,9.59c.25.26.57.38.9.38.31,0,.62-.12.87-.35.5-.48.51-1.27.04-1.77l-9.33-9.72Z"/>
</svg>