<?xml version="1.0" encoding="UTF-8"?>
<svg id="Expanded_Icons" data-name="Expanded Icons" xmlns="http://www.w3.org/2000/svg" viewBox="0 0 64 64">
  <defs>
    <style>
      .cls-1 {
        fill: #29b5e8;
        stroke-width: 0px;
      }
    </style>
  </defs>
  <path class="cls-1" d="M54.86,29.33c0-.06,0-.12,0-.18,0-10.73-8.78-19.46-19.56-19.46-8.41,0-15.79,5.31-18.48,13.09-6.73.48-12.06,6.16-12.06,13.07,0,4.67,2.53,9.03,6.59,11.38.32.18.66.27,1,.27.69,0,1.36-.36,1.73-1,.55-.96.23-2.18-.73-2.73-2.83-1.64-4.59-4.67-4.59-7.92,0-4.93,4.1-9.09,8.96-9.09h.01c.15.02.31.04.47.05.92.03,1.79-.58,2.03-1.5,1.75-6.84,7.95-11.61,15.07-11.61,8.58,0,15.56,6.94,15.56,15.46,0,.33-.03.7-.05,1.09-.05.77.34,1.5,1.01,1.88,2.12,1.2,3.44,3.47,3.44,5.9,0,2.27-1.13,4.42-3.01,5.73-.91.63-1.13,1.88-.5,2.78.63.91,1.88,1.13,2.78.5,2.96-2.06,4.73-5.43,4.73-9.01s-1.66-6.67-4.39-8.69Z"/>
  <path class="cls-1" d="M34.57,31.54c-.26.64.04,1.37.68,1.63.64.26,1.37-.04,1.63-.68.76-1.85,2.13-2.02,3.36-2.02h.2c.67,0,1.79,0,2.63.83.63.63,1.04,1.68,1.21,3.08-.13-.12-.31-.2-.5-.2-2.69,0-4.78-2.35-4.8-2.38-.22-.25-.58-.32-.89-.18-.3.15-.47.48-.41.81.03.16.23,1.53-1.08,2.1-.38.17-.55.61-.39.99.12.28.4.45.69.45.1,0,.2-.02.3-.06,1.06-.46,1.6-1.25,1.84-2.03,1.05.82,2.74,1.8,4.75,1.8.24,0,.44-.12.58-.29,0,.2.02.39.02.6,0,.33.13.65.37.88.19.19.3.46.3.73v.49c0,.28-.11.54-.3.73l-.23.23c-.23.23-.37.55-.37.88,0,.91-.41,1.77-1.1,2.31-.33.26-.66.58-1,.92-.43.43-1.33,1.31-1.7,1.31s-1.27-.89-1.7-1.31c-.34-.34-.67-.66-1-.92-.54-.43-1.33-.33-1.75.21-.43.54-.33,1.33.21,1.75.22.17.49.44.78.73.92.91,2.06,2.04,3.46,2.04s2.54-1.13,3.46-2.04c.29-.29.56-.56.78-.73,1.15-.9,1.88-2.27,2.03-3.73.6-.65.93-1.49.93-2.39v-.49c0-.75-.24-1.48-.67-2.08-.07-2.71-.75-4.72-2.03-6-1.57-1.57-3.54-1.56-4.4-1.56v1.25s-.16-1.25-.16-1.25c-1.04,0-4.24,0-5.71,3.57Z"/>
  <path class="cls-1" d="M52.02,48.81c-.19-.47-.55-1.34-6.27-2.97-.41-.11-.85-.02-1.17.26l-4.91,4.31c-.52.46-.57,1.25-.11,1.76.45.52,1.24.57,1.76.11l4.39-3.86c1.68.51,3.48,1.16,4.06,1.52.13.46.21,1.24.27,1.77.03.29.06.55.09.77.09.62.62,1.07,1.24,1.07.06,0,.12,0,.18-.01.68-.1,1.16-.73,1.06-1.42-.03-.19-.05-.42-.08-.67-.09-.85-.2-1.91-.51-2.65Z"/>
  <path class="cls-1" d="M26.91,46.34c1.21-.4,4.14-1.83,5.12-6.44.09-.41-.17-.8-.58-.89-.4-.09-.8.17-.89.58-.83,3.85-3.16,5.01-4.13,5.33-.33.11-.68.09-.99-.04-1.01-.43-3.4-1.89-3.72-6.2-.03-.41-.38-.71-.8-.69-.41.03-.72.39-.69.8.38,5.12,3.36,6.93,4.63,7.46.36.15.75.23,1.14.23.31,0,.62-.05.91-.15Z"/>
  <path class="cls-1" d="M22.35,37.74c1.18-.52,1.93-1.23,2.39-1.83.87,1.09,2.58,2.69,5.44,3.29.05.01.1.02.15.02.35,0,.66-.24.73-.6.08-.41-.18-.8-.58-.89-3.66-.77-5.06-3.44-5.12-3.55-.13-.27-.42-.43-.72-.41-.3.02-.56.22-.66.5-.02.05-.48,1.32-2.25,2.1-.38.17-.55.61-.38.99s.61.55.99.38Z"/>
  <path class="cls-1" d="M37.72,48.82c-.18-.44-.51-1.24-5.3-2.69.5-.24,1.04-.54,1.46-.92,1.11-1.02,1-3.7.85-5.15-.07-1.13-.46-6.87-1.26-8.71-1.63-3.72-4.78-3.97-6.7-3.49-1.16-.67-3.21-1.06-5.62.62-4.55,3.17-3.67,10.13-3.43,11.56-.32,1.79-.47,4.02.46,5.03.5.54,1.13.88,1.68,1.09-4.75,1.44-5.07,2.24-5.25,2.67-.32.79-.43,1.84-.53,2.77-.02.21-.04.41-.06.58-.08.69.41,1.31,1.09,1.39.05,0,.1,0,.15,0,.62,0,1.16-.47,1.24-1.1.02-.19.04-.41.07-.63.06-.6.14-1.39.28-1.88.57-.36,2.38-1.01,4.06-1.52l4.39,3.86c.22.19.49.27.76.29.04,0,.07.01.11.01.04,0,.07,0,.11-.01.27-.01.54-.1.76-.29l4.39-3.86c1.68.51,3.49,1.16,4.06,1.53.17.58.26,1.56.32,2.22l.02.25c.06.65.6,1.13,1.24,1.13.04,0,.08,0,.12,0,.69-.06,1.19-.67,1.13-1.36l-.02-.24c-.09-1-.21-2.26-.57-3.14ZM22.02,46.1c.19-.18.34-.41.38-.69.11-.68-.36-1.32-1.04-1.43-.23-.04-.94-.22-1.31-.57-.15-.43-.08-1.9.15-3.15.03-.16.03-.32,0-.47-.01-.07-1.26-6.74,2.36-9.27,1.93-1.35,3-.48,3.09-.4.35.35.88.45,1.34.27.47-.18,2.89-.95,4.16,1.95.49,1.11.91,5.41,1.06,7.92.13,1.27.08,2.74-.1,3.15-.45.38-1.37.73-1.86.87-.66.19-1.05.88-.87,1.54.08.27.24.5.45.66l-3.7,3.25-4.13-3.62s0,0,0,0Z"/>
</svg>