<?xml version="1.0" encoding="UTF-8"?>
<svg id="Expanded_Icons" data-name="Expanded Icons" xmlns="http://www.w3.org/2000/svg" viewBox="0 0 64 64">
  <defs>
    <style>
      .cls-1 {
        fill: #29b5e8;
        stroke-width: 0px;
      }
    </style>
  </defs>
  <path class="cls-1" d="M22.15,34.73c.41,0,.75-.34.75-.75v-1.08c0-.41-.34-.75-.75-.75s-.75.34-.75.75v1.08c0,.41.34.75.75.75Z"/>
  <path class="cls-1" d="M22.15,30.89c.41,0,.75-.34.75-.75v-1.08c0-.41-.34-.75-.75-.75s-.75.34-.75.75v1.08c0,.41.34.75.75.75Z"/>
  <path class="cls-1" d="M21.81,37.89l.41.21c.11.05.22.08.34.08.27,0,.54-.15.67-.41.19-.37.04-.82-.33-1.01h0c0-.42-.34-.75-.75-.75s-.75.34-.75.75v.46c0,.28.16.54.41.67Z"/>
  <path class="cls-1" d="M24.62,39.31l.93.47c.11.05.22.08.34.08.27,0,.54-.15.67-.41.19-.37.04-.82-.33-1.01l-.93-.47c-.37-.19-.82-.04-1.01.33-.19.37-.04.82.33,1.01Z"/>
  <path class="cls-1" d="M27.94,40.98l.93.47c.11.05.22.08.34.08.27,0,.54-.15.67-.41.19-.37.04-.82-.33-1.01l-.93-.47c-.37-.19-.82-.04-1.01.33-.19.37-.04.82.33,1.01Z"/>
  <path class="cls-1" d="M34.46,22.93l.93.47c.11.05.22.08.34.08.27,0,.54-.15.67-.41.19-.37.04-.82-.33-1.01l-.93-.47c-.37-.19-.82-.04-1.01.33-.19.37-.04.82.33,1.01Z"/>
  <path class="cls-1" d="M31.92,21.72l.08-.04.08.04c.11.05.22.08.34.08.27,0,.54-.15.67-.41.19-.37.04-.82-.33-1.01l-.41-.21c-.21-.11-.46-.11-.68,0l-.41.21c-.37.19-.52.64-.33,1.01.19.37.64.52,1.01.33Z"/>
  <path class="cls-1" d="M28.26,23.48c.11,0,.23-.03.34-.08l.93-.47c.37-.19.52-.64.33-1.01-.19-.37-.64-.52-1.01-.33l-.93.47c-.37.19-.52.64-.33,1.01.13.26.4.41.67.41Z"/>
  <path class="cls-1" d="M41.88,32.16c-.41,0-.75.34-.75.75v1.08c0,.41.34.75.75.75s.75-.34.75-.75v-1.08c0-.41-.34-.75-.75-.75Z"/>
  <path class="cls-1" d="M41.88,28.31c-.41,0-.75.34-.75.75v1.08c0,.41.34.75.75.75s.75-.34.75-.75v-1.08c0-.41-.34-.75-.75-.75Z"/>
  <path class="cls-1" d="M41.88,36.01c-.41,0-.75.34-.75.75h0c-.37.19-.52.64-.33,1.01.13.26.4.41.67.41.11,0,.23-.03.34-.08l.41-.21c.25-.13.41-.39.41-.67v-.46c0-.41-.34-.75-.75-.75Z"/>
  <path class="cls-1" d="M38.74,37.97l-.93.47c-.37.19-.52.64-.33,1.01.13.26.4.41.67.41.11,0,.23-.03.34-.08l.93-.47c.37-.19.52-.64.33-1.01-.19-.37-.64-.52-1.01-.33Z"/>
  <path class="cls-1" d="M35.41,39.65l-.93.47c-.37.19-.52.64-.33,1.01.13.26.4.41.67.41.11,0,.23-.03.34-.08l.93-.47c.37-.19.52-.64.33-1.01-.19-.37-.64-.52-1.01-.33Z"/>
  <path class="cls-1" d="M7.05,27.59c.69,0,1.25-.56,1.25-1.25v-1c0-.69-.56-1.25-1.25-1.25s-1.25.56-1.25,1.25v1c0,.69.56,1.25,1.25,1.25Z"/>
  <path class="cls-1" d="M7.05,23.48c.69,0,1.25-.56,1.25-1.25v-1c0-.69-.56-1.25-1.25-1.25s-1.25.56-1.25,1.25v1c0,.69.56,1.25,1.25,1.25Z"/>
  <path class="cls-1" d="M7.05,44.01c.69,0,1.25-.56,1.25-1.25v-1c0-.69-.56-1.25-1.25-1.25s-1.25.56-1.25,1.25v1c0,.69.56,1.25,1.25,1.25Z"/>
  <path class="cls-1" d="M7.05,31.7c.69,0,1.25-.56,1.25-1.25v-1c0-.69-.56-1.25-1.25-1.25s-1.25.56-1.25,1.25v1c0,.69.56,1.25,1.25,1.25Z"/>
  <path class="cls-1" d="M7.05,35.8c.69,0,1.25-.56,1.25-1.25v-1c0-.69-.56-1.25-1.25-1.25s-1.25.56-1.25,1.25v1c0,.69.56,1.25,1.25,1.25Z"/>
  <path class="cls-1" d="M7.05,39.91c.69,0,1.25-.56,1.25-1.25v-1c0-.69-.56-1.25-1.25-1.25s-1.25.56-1.25,1.25v1c0,.69.56,1.25,1.25,1.25Z"/>
  <path class="cls-1" d="M7.05,44.62c-.69,0-1.25.56-1.25,1.25v.53c0,.47.27.9.69,1.12l.47.24c.18.09.37.13.56.13.46,0,.9-.25,1.12-.69.28-.55.11-1.2-.36-1.56-.11-.58-.62-1.02-1.23-1.02Z"/>
  <path class="cls-1" d="M24.76,53.94l-1.01-.51c-.62-.31-1.37-.06-1.68.55-.31.62-.06,1.37.55,1.68l1.01.51c.18.09.37.13.56.13.46,0,.9-.25,1.12-.69.31-.62.06-1.37-.55-1.68Z"/>
  <path class="cls-1" d="M28.92,56.05l-1.01-.51c-.62-.31-1.37-.06-1.68.55-.31.62-.06,1.37.55,1.68l1.01.51c.18.09.37.13.56.13.46,0,.9-.25,1.12-.69.31-.62.06-1.37-.55-1.68Z"/>
  <path class="cls-1" d="M12.25,47.63l-1.01-.51c-.62-.31-1.37-.06-1.68.55-.31.62-.06,1.37.55,1.68l1.01.51c.18.09.37.13.56.13.46,0,.9-.25,1.12-.69.31-.62.06-1.37-.55-1.68Z"/>
  <path class="cls-1" d="M20.59,51.84l-1.01-.51c-.62-.31-1.37-.06-1.68.55-.31.62-.06,1.37.55,1.68l1.01.51c.18.09.37.13.56.13.46,0,.9-.25,1.12-.69.31-.62.06-1.37-.55-1.68Z"/>
  <path class="cls-1" d="M16.42,49.73l-1.01-.51c-.62-.31-1.37-.06-1.68.55-.31.62-.06,1.37.55,1.68l1.01.51c.18.09.37.13.56.13.46,0,.9-.25,1.12-.69.31-.62.06-1.37-.55-1.68Z"/>
  <path class="cls-1" d="M33.15,55.83c.07-.16.11-.32.11-.51v-1c0-.69-.56-1.25-1.25-1.25-.53,0-.97.33-1.16.78-.07.16-.11.32-.11.51v1c0,.69.56,1.25,1.25,1.25.53,0,.97-.33,1.16-.78Z"/>
  <path class="cls-1" d="M12.25,18.83l-1.01-.51c-.62-.31-1.37-.06-1.68.55-.31.62-.06,1.37.55,1.68l1.01.51c.18.09.37.13.56.13.46,0,.9-.25,1.12-.69.31-.62.06-1.37-.55-1.68Z"/>
  <path class="cls-1" d="M52.29,21.19c.19,0,.38-.04.56-.13l1.01-.51c.62-.31.86-1.06.55-1.68-.31-.62-1.06-.86-1.68-.55l-1.01.51c-.62.31-.86,1.06-.55,1.68.22.44.66.69,1.12.69Z"/>
  <path class="cls-1" d="M51.73,16.37l1.01.51c.18.09.37.13.56.13.46,0,.9-.25,1.12-.69.31-.62.06-1.37-.55-1.68l-1.01-.51c-.62-.31-1.37-.06-1.68.55-.31.62-.06,1.37.55,1.68Z"/>
  <path class="cls-1" d="M47.56,14.27l1.01.51c.18.09.37.13.56.13.46,0,.9-.25,1.12-.69.31-.62.06-1.37-.55-1.68l-1.01-.51c-.62-.31-1.37-.06-1.68.55-.31.62-.06,1.37.55,1.68Z"/>
  <path class="cls-1" d="M43.39,12.16l1.01.51c.18.09.37.13.56.13.46,0,.9-.25,1.12-.69.31-.62.06-1.37-.55-1.68l-1.01-.51c-.62-.31-1.37-.06-1.68.55-.31.62-.06,1.37.55,1.68Z"/>
  <path class="cls-1" d="M35.06,7.95l1.01.51c.18.09.37.13.56.13.46,0,.9-.25,1.12-.69.31-.62.06-1.37-.55-1.68l-1.01-.51c-.62-.31-1.37-.06-1.68.55-.31.62-.06,1.37.55,1.68Z"/>
  <path class="cls-1" d="M39.23,10.06l1.01.51c.18.09.37.13.56.13.46,0,.9-.25,1.12-.69.31-.62.06-1.37-.55-1.68l-1.01-.51c-.62-.31-1.37-.06-1.68.55-.31.62-.06,1.37.55,1.68Z"/>
  <path class="cls-1" d="M31.99,6.4c.15.06.31.09.47.09.46,0,.9-.25,1.12-.69.31-.62.06-1.37-.55-1.68l-.47-.24c-.35-.18-.77-.18-1.13,0l-.47.24c-.62.31-.86,1.06-.55,1.68.3.59.99.84,1.59.59Z"/>
  <path class="cls-1" d="M14.85,14.91c.19,0,.38-.04.56-.13l1.01-.51c.62-.31.86-1.06.55-1.68-.31-.62-1.06-.86-1.68-.55l-1.01.51c-.62.31-.86,1.06-.55,1.68.22.44.66.69,1.12.69Z"/>
  <path class="cls-1" d="M27.35,8.59c.19,0,.38-.04.56-.13l1.01-.51c.62-.31.86-1.06.55-1.68-.31-.62-1.06-.86-1.68-.55l-1.01.51c-.62.31-.86,1.06-.55,1.68.22.44.66.69,1.12.69Z"/>
  <path class="cls-1" d="M19.02,12.81c.19,0,.38-.04.56-.13l1.01-.51c.62-.31.86-1.06.55-1.68-.31-.62-1.06-.86-1.68-.55l-1.01.51c-.62.31-.86,1.06-.55,1.68.22.44.66.69,1.12.69Z"/>
  <path class="cls-1" d="M23.18,10.7c.19,0,.38-.04.56-.13l1.01-.51c.62-.31.86-1.06.55-1.68-.31-.62-1.06-.86-1.68-.55l-1.01.51c-.62.31-.86,1.06-.55,1.68.22.44.66.69,1.12.69Z"/>
  <path class="cls-1" d="M10.68,17.02c.19,0,.38-.04.56-.13l1.01-.51c.62-.31.86-1.06.55-1.68s-1.06-.86-1.68-.55l-1.01.51c-.62.31-.86,1.06-.55,1.68.22.44.66.69,1.12.69Z"/>
  <path class="cls-1" d="M8.64,16.8c-.31-.62-1.06-.86-1.68-.55l-.47.24s-.02.02-.03.02c-.02.01-.04.02-.06.03-.11.07-.2.15-.28.24-.02.02-.03.05-.05.07-.08.1-.13.2-.18.32,0,.03-.02.05-.03.08-.04.12-.06.24-.06.36v.53c0,.69.56,1.25,1.25,1.25.34,0,.65-.14.88-.36.3-.1.56-.32.71-.62.13-.26.14-.54.09-.8.05-.26.04-.54-.09-.8Z"/>
  <path class="cls-1" d="M57.29,16.38l-.26-.13c-.62-.31-1.37-.06-1.68.55-.13.26-.16.54-.11.8-.05.26-.02.54.11.8.17.34.49.57.83.65.21.17.47.29.77.29.69,0,1.25-.56,1.25-1.25v-.53c0-.57-.39-1.03-.91-1.18Z"/>
  <path class="cls-1" d="M56.95,24.06c-.69,0-1.25.56-1.25,1.25v1c0,.69.56,1.25,1.25,1.25s1.25-.56,1.25-1.25v-1c0-.69-.56-1.25-1.25-1.25Z"/>
  <path class="cls-1" d="M56.95,32.27c-.69,0-1.25.56-1.25,1.25v1c0,.69.56,1.25,1.25,1.25s1.25-.56,1.25-1.25v-1c0-.69-.56-1.25-1.25-1.25Z"/>
  <path class="cls-1" d="M56.95,19.95c-.69,0-1.25.56-1.25,1.25v1c0,.69.56,1.25,1.25,1.25s1.25-.56,1.25-1.25v-1c0-.69-.56-1.25-1.25-1.25Z"/>
  <path class="cls-1" d="M56.95,36.37c-.69,0-1.25.56-1.25,1.25v1c0,.69.56,1.25,1.25,1.25s1.25-.56,1.25-1.25v-1c0-.69-.56-1.25-1.25-1.25Z"/>
  <path class="cls-1" d="M56.95,28.16c-.69,0-1.25.56-1.25,1.25v1c0,.69.56,1.25,1.25,1.25s1.25-.56,1.25-1.25v-1c0-.69-.56-1.25-1.25-1.25Z"/>
  <path class="cls-1" d="M56.95,40.48c-.69,0-1.25.56-1.25,1.25v1c0,.69.56,1.25,1.25,1.25s1.25-.56,1.25-1.25v-1c0-.69-.56-1.25-1.25-1.25Z"/>
  <path class="cls-1" d="M56.95,44.58c-.61,0-1.12.44-1.23,1.02-.47.36-.64,1.01-.36,1.56.22.44.66.69,1.12.69.19,0,.38-.04.56-.13l.47-.24c.42-.21.69-.64.69-1.12v-.53c0-.69-.56-1.25-1.25-1.25Z"/>
  <path class="cls-1" d="M48.59,49.18l-1.01.51c-.62.31-.86,1.06-.55,1.68.22.44.66.69,1.12.69.19,0,.38-.04.56-.13l1.01-.51c.62-.31.86-1.06.55-1.68-.31-.62-1.06-.86-1.68-.55Z"/>
  <path class="cls-1" d="M40.25,53.4l-1.01.51c-.62.31-.86,1.06-.55,1.68.22.44.66.69,1.12.69.19,0,.38-.04.56-.13l1.01-.51c.62-.31.86-1.06.55-1.68-.31-.62-1.06-.86-1.68-.55Z"/>
  <path class="cls-1" d="M44.42,51.29l-1.01.51c-.62.31-.86,1.06-.55,1.68.22.44.66.69,1.12.69.19,0,.38-.04.56-.13l1.01-.51c.62-.31.86-1.06.55-1.68-.31-.62-1.06-.86-1.68-.55Z"/>
  <path class="cls-1" d="M52.76,47.08l-1.01.51c-.62.31-.86,1.06-.55,1.68.22.44.66.69,1.12.69.19,0,.38-.04.56-.13l1.01-.51c.62-.31.86-1.06.55-1.68s-1.06-.86-1.68-.55Z"/>
  <path class="cls-1" d="M36.09,55.5l-1.01.51c-.62.31-.86,1.06-.55,1.68.22.44.66.69,1.12.69.19,0,.38-.04.56-.13l1.01-.51c.62-.31.86-1.06.55-1.68-.31-.62-1.06-.86-1.68-.55Z"/>
  <path class="cls-1" d="M32.88,57.54c-.23-.22-.53-.36-.88-.36-.36,0-.68.16-.91.41-.29.1-.54.31-.69.61-.31.62-.06,1.37.55,1.68l.47.24c.18.09.37.13.56.13.23,0,.46-.06.66-.19.03-.02.06-.05.09-.07l.31-.16c.62-.31.86-1.06.55-1.68-.15-.3-.41-.52-.71-.62Z"/>
  <path class="cls-1" d="M49.97,20.39s-.07-.03-.1-.04c0,0,0,0,0,0l-16.93-8.55c-.18-.16-.4-.26-.65-.29,0,0,0,0,0,0-.06,0-.11-.03-.16-.03-.02,0-.03,0-.04,0-.22-.01-.44.02-.64.13l-17.31,8.74s-.03.02-.04.03c-.02,0-.03.01-.05.02-.04.02-.07.06-.11.09-.04.03-.08.06-.11.09-.05.05-.09.1-.13.15-.03.03-.05.07-.08.1-.04.06-.06.13-.09.2-.01.03-.03.06-.04.1-.03.11-.05.22-.05.33v19.99c0,.47.27.9.69,1.12l16.62,8.4v.3c0,.69.56,1.25,1.25,1.25.53,0,.97-.33,1.16-.78.07-.16.11-.32.11-.51v-.26l16.62-8.4c.42-.21.69-.64.69-1.12v-19.99c0-.43-.23-.84-.6-1.06ZM19.95,38.37c-.34-.6-1.11-.8-1.71-.46l-2.31,1.33v-15.75l2.52,1.27s0,0,0,0l1.01.51h0l1.94.98v.04c0,.41.34.75.75.75.18,0,.33-.08.46-.18h.01s0,0,0,0l.48.24,1.32.67c.05.05.11.1.17.14l.93.47c.06.03.12.03.19.04l2.03,1.03c.05.05.11.1.17.14l.93.47c.06.03.12.03.18.04l1.71.86v17.19l-13.47-6.8,2.22-1.28c.6-.35.8-1.11.46-1.71ZM30.86,14.68v2.49c0,.69.56,1.25,1.25,1.25s1.25-.56,1.25-1.25v-2.37l13.17,6.65-7.06,3.57c.1-.07.2-.16.26-.28.19-.37.04-.82-.33-1.01l-.93-.47c-.37-.19-.82-.04-1.01.33-.19.37-.04.82.33,1.01l.93.47c.11.05.22.08.34.08s.22-.04.33-.09l-4.26,2.15-.06.03h0l-3.07,1.55-3.07-1.55h0l-.06-.03-4.26-2.15c.1.05.22.09.33.09s.23-.03.34-.08l.93-.47c.37-.19.52-.64.33-1.01-.19-.37-.64-.52-1.01-.33l-.93.47c-.37.19-.52.64-.33,1.01.06.12.15.21.26.28l-7.07-3.57,13.41-6.77ZM33.26,30.97l1.7-.86c.07-.01.14-.02.2-.05l.93-.47c.07-.04.13-.09.19-.15l2-1.01c.07-.01.14-.02.2-.05l.93-.47c.07-.04.13-.09.19-.15l1.81-.91c.13.11.29.19.47.19.41,0,.75-.34.75-.75v-.06l5.44-2.75v16.04l-2.45-1.41c-.6-.35-1.36-.14-1.71.46-.35.6-.14,1.36.46,1.71l2.09,1.21-13.2,6.67v-17.19Z"/>
</svg>