<?xml version="1.0" encoding="UTF-8"?>
<svg id="Expanded_Icons" data-name="Expanded Icons" xmlns="http://www.w3.org/2000/svg" viewBox="0 0 64 64">
  <defs>
    <style>
      .cls-1 {
        fill: #29b5e8;
        stroke-width: 0px;
      }
    </style>
  </defs>
  <path class="cls-1" d="M15.53,36.19c.3.23.66.6,1.05.98,1.2,1.19,2.56,2.54,4.23,2.54s3.03-1.35,4.23-2.54c.39-.38.75-.74,1.05-.98,1.44-1.13,2.35-2.87,2.5-4.72.77-.79,1.19-1.83,1.19-2.94v-.64c0-.94-.31-1.84-.88-2.58-.07-3.48-.92-6.05-2.54-7.66-1.93-1.93-4.4-1.94-5.46-1.92h-.21c-1.04,0-3.53,0-5.46,1.92-1.61,1.61-2.47,4.19-2.54,7.66-.57.73-.88,1.63-.88,2.57v.64c0,1.11.42,2.15,1.19,2.94.15,1.85,1.06,3.59,2.5,4.72ZM20.57,18.23h.34c.93,0,2.49,0,3.69,1.19.91.91,1.48,2.36,1.7,4.33-.22-.35-.59-.59-1.04-.59-3.36,0-6.02-2.97-6.04-3-.37-.42-.97-.54-1.48-.3-.51.24-.79.79-.7,1.35.03.18.26,1.78-1.24,2.43-.23.1-.4.28-.53.48.19-2.15.77-3.74,1.73-4.7,1.15-1.14,2.62-1.19,3.56-1.19ZM14.33,27.89c0-.46.18-.89.5-1.22.23-.23.37-.55.37-.88,0-.14,0-.28.01-.42.22.42.64.67,1.09.67.17,0,.34-.03.5-.1,1.3-.57,2.04-1.5,2.42-2.45,1.42,1.04,3.54,2.17,6.04,2.17.5,0,.92-.3,1.12-.72.01.28.02.55.02.85,0,.33.13.65.37.88.33.33.5.76.5,1.22v.64c0,.46-.18.89-.5,1.22l-.3.3c-.23.23-.37.55-.37.88,0,1.29-.59,2.52-1.57,3.29-.41.32-.83.73-1.27,1.17-.73.72-1.83,1.82-2.47,1.82s-1.74-1.09-2.47-1.82c-.44-.44-.85-.85-1.27-1.17-.98-.77-1.57-2-1.57-3.29,0-.33-.13-.65-.37-.88l-.3-.3c-.33-.33-.5-.76-.5-1.22v-.64Z"/>
  <path class="cls-1" d="M29.51,19.21c.94-.67,1.62-.65,2.35-.63h.46c.91.02,2.4,0,3.55,1.15.85.85,1.39,2.2,1.62,4.03-.23-.28-.56-.47-.95-.47-3.25,0-5.81-2.87-5.83-2.89-.45-.52-1.24-.58-1.76-.12s-.58,1.24-.12,1.76c.13.15,3.32,3.75,7.72,3.75.46,0,.84-.26,1.06-.62,0,.23.02.46.02.71,0,.33.13.65.37.88.31.31.48.72.48,1.15v.62c0,.44-.17.85-.48,1.15l-.29.29c-.23.23-.37.55-.37.88,0,1.24-.56,2.42-1.51,3.17-.4.32-.81.71-1.23,1.14-.7.7-1.77,1.75-2.37,1.75-.51,0-.96-.45-1.64-1.18-.36-.39-.74-.79-1.19-1.14-.54-.43-1.33-.33-1.75.21-.43.54-.33,1.33.21,1.75.3.23.59.55.91.88.82.88,1.84,1.97,3.46,1.97s2.96-1.32,4.13-2.48c.37-.37.73-.72,1.01-.95,1.4-1.1,2.29-2.79,2.44-4.59.75-.77,1.16-1.79,1.16-2.87v-.62c0-.92-.3-1.79-.85-2.51-.07-3.38-.9-5.88-2.47-7.45-1.89-1.88-4.29-1.87-5.42-1.87h-.28c-.84-.03-2.25-.06-3.87,1.09-.56.4-.69,1.18-.29,1.74.4.56,1.18.69,1.74.29Z"/>
  <path class="cls-1" d="M46.61,42.17c-.19-.46-.64-1.54-7.7-3.56-.38-.11-.78-.03-1.09.2l-2.24,1.69c-.48.36-.6,1-.35,1.53-.63-.61-2.35-1.6-7.51-3.07-.41-.12-.85-.02-1.17.26l-5.61,4.93-5.61-4.93c-.32-.28-.76-.38-1.17-.26-7.26,2.07-7.71,3.18-7.91,3.65-.36.88-.5,2.12-.61,3.2-.04.38-.08.73-.12,1.02-.11.68.36,1.32,1.04,1.43.07,0,.13.01.19.01.61,0,1.14-.44,1.23-1.06.05-.32.09-.71.14-1.14.09-.8.19-1.77.38-2.36.66-.49,3.28-1.44,5.69-2.16l5.86,5.15c.23.21.52.29.81.3.02,0,.04,0,.07,0,.03,0,.05,0,.08,0,.29,0,.57-.09.81-.3l5.86-5.15c2.4.72,5.03,1.67,5.69,2.16.2.62.32,1.7.4,2.5.04.37.08.71.12.99.09.62.62,1.07,1.24,1.07.06,0,.12,0,.18-.01.68-.1,1.16-.73,1.06-1.42-.04-.25-.07-.55-.1-.89-.11-1.08-.26-2.43-.63-3.34-.02-.05-.04-.1-.08-.17.44.36,1.06.41,1.54.06l1.74-1.31c2.33.69,4.88,1.62,5.53,2.09.19.6.3,1.63.38,2.4.04.36.07.69.11.96.09.62.62,1.07,1.24,1.07.06,0,.12,0,.18-.01.68-.1,1.16-.73,1.06-1.42-.03-.24-.07-.54-.1-.86-.11-1.05-.25-2.36-.62-3.25Z"/>
  <path class="cls-1" d="M41.18,19.55c.9-.64,1.56-.63,2.25-.61h.34s.1,0,.1,0c.85,0,2.31,0,3.42,1.1.8.8,1.31,2.06,1.54,3.74-.22-.22-.53-.35-.86-.35-3.13,0-5.6-2.77-5.63-2.79-.45-.52-1.24-.57-1.76-.12-.52.45-.58,1.24-.12,1.76.13.15,3.23,3.65,7.51,3.65.41,0,.76-.21.99-.52,0,.19.01.37.01.57,0,.33.13.65.37.88.29.29.45.68.45,1.09v.6c0,.41-.16.8-.45,1.09l-.28.28c-.23.23-.37.55-.37.88,0,1.19-.54,2.33-1.45,3.04-.39.31-.78.7-1.2,1.11-.68.67-1.7,1.69-2.27,1.69-.48,0-.91-.43-1.56-1.13-.35-.38-.72-.77-1.16-1.11-.54-.43-1.33-.33-1.76.21s-.33,1.33.21,1.75c.29.23.57.53.88.85.8.86,1.8,1.92,3.39,1.92s2.89-1.28,4.03-2.42c.36-.36.7-.7.98-.91,1.37-1.07,2.23-2.71,2.38-4.47.73-.76,1.12-1.75,1.12-2.8v-.6c0-.9-.29-1.75-.82-2.45-.07-3.28-.88-5.71-2.41-7.24-1.84-1.84-4.19-1.84-5.29-1.83h-.27c-.82-.03-2.19-.06-3.77,1.07-.56.4-.69,1.18-.29,1.74s1.18.69,1.74.29Z"/>
  <path class="cls-1" d="M58.39,44.94c-.11-1.02-.24-2.29-.6-3.16-.19-.45-.62-1.51-7.49-3.48-.39-.11-.82-.03-1.13.23l-2.05,1.67c-.54.44-.62,1.22-.18,1.76.44.53,1.22.62,1.76.18l1.54-1.26c2.23.67,4.66,1.55,5.3,2,.18.58.29,1.57.37,2.31.04.35.07.67.11.93.09.62.62,1.07,1.24,1.07.06,0,.12,0,.18-.01.68-.1,1.16-.73,1.06-1.42-.03-.23-.06-.52-.1-.84Z"/>
</svg>