<?xml version="1.0" encoding="UTF-8"?>
<svg id="Expanded_Icons" data-name="Expanded Icons" xmlns="http://www.w3.org/2000/svg" viewBox="0 0 64 64">
  <defs>
    <style>
      .cls-1 {
        fill: #29b5e8;
        stroke-width: 0px;
      }
    </style>
  </defs>
  <path class="cls-1" d="M45.16,16.51c-.19-.66-.88-1.05-1.55-.86-.66.19-1.05.88-.86,1.55l1.59,5.58c.16.55.66.91,1.2.91.11,0,.23-.02.34-.05.66-.19,1.05-.88.86-1.55l-1.59-5.58Z"/>
  <path class="cls-1" d="M50.26,17.06c-.19-.66-.88-1.04-1.55-.86-.66.19-1.05.88-.86,1.55l1.59,5.58c.16.55.66.91,1.2.91.11,0,.23-.02.34-.05.66-.19,1.05-.88.86-1.55l-1.59-5.58Z"/>
  <path class="cls-1" d="M20.94,9.49c.68.07,1.3-.43,1.37-1.12.07-.69-.43-1.3-1.12-1.37-1.87-.18-6.82-.67-10.23,1.57-.29.19-.48.48-.54.82l-.22,1.22-4.55-1c-.67-.15-1.34.28-1.49.95-.15.67.28,1.34.95,1.49l4.64,1.02-.3,1.63c-.06.35.02.71.24.99,2.3,3,6.63,4.92,8.97,5.48.1.02.19.03.29.03.57,0,1.08-.39,1.21-.96.16-.67-.25-1.35-.93-1.51-1.94-.46-5.34-2.03-7.23-4.16l.77-4.18c2.69-1.45,6.64-1.06,8.18-.91Z"/>
  <path class="cls-1" d="M58.3,12.07c-1.12-1.58-2.78-2.62-4.66-2.94-.72-.13-17.77-3.17-20.33-3.42-.13-.01-.26-.01-.39,0l-7.35.72c-.9.09-1.63.77-1.78,1.66l-2.26,13.4c-.12.73.17,1.47.76,1.92.17.13.48.37,4.95,2.45.72,1.34,1.82,3.62.69,5.63-.08.18-.8,1.76.12,2.95.48.62,1.24.94,2.26.94.37,0,.77-.04,1.21-.12l1.48-.26v6.66c-3.9,1.32-5.9,3.51-6.92,5.21-.19.31-.28.66-.28,1.03v5.23c0,2.78,2.24,5.04,4.99,5.04h17.03c2.67,0,4.9-2.19,4.98-4.95v-8.97c0-1-.38-1.88-1.09-2.55-.97-.92-2.34-1.2-3.29-1.27v-10.28l1.6.27c1.9.32,3.81-.12,5.39-1.24s2.62-2.78,2.94-4.68l1.18-7.02c.32-1.9-.12-3.81-1.24-5.38ZM31.07,32.79c-.51.1-.81.09-.97.07.01-.09.04-.19.05-.22,1-1.76.93-3.54.51-5.06,1.02.75,2.34,2.17,2.34,4.52v.35l-1.94.34ZM47.83,54.15h-17.03c-.54,0-.99-.48-.99-1.04v-3.33h19v3.37c-.02.56-.46,1.01-.98,1.01ZM55.59,16.79l-1.18,7.02c-.14.84-.61,1.58-1.31,2.09-.7.5-1.56.7-2.4.56l-2.35-.39c-.09-.02-.19-.02-.29-.03-1.85-.05-3.25,1.13-3.6,2.99-.02.12-.04.25-.04.37v12.94c0,1.06.83,1.94,1.89,2l1.1.06c.07,0,.15,0,.21,0,.39-.02.89.05,1.17.14v2.76s-17.88,0-17.88,0c.98-.84,2.41-1.66,4.56-2.19.89-.22,1.52-1.02,1.52-1.94v-11.05c0-6.2-5.26-8.6-6.02-8.91-1.92-.89-4-1.87-5.27-2.48l1.76-10.45,5.62-.55c2.51.3,15.07,2.51,19.85,3.36.84.14,1.58.61,2.08,1.31.5.71.7,1.56.56,2.4Z"/>
</svg>