<?xml version="1.0" encoding="UTF-8"?>
<svg id="Expanded_Icons" data-name="Expanded Icons" xmlns="http://www.w3.org/2000/svg" viewBox="0 0 64 64">
  <defs>
    <style>
      .cls-1 {
        fill: #29b5e8;
        stroke-width: 0px;
      }
    </style>
  </defs>
  <path class="cls-1" d="M52.23,50.76c4.57-4.93,7.38-11.52,7.38-18.76,0-1.39-.11-2.75-.3-4.09,0-.01,0-.03,0-.04-.81-5.4-3.2-10.3-6.68-14.2-.06-.08-.12-.15-.19-.21-1.15-1.26-2.41-2.42-3.77-3.45-.1-.1-.21-.19-.34-.26-.01,0-.03-.01-.04-.02-4.57-3.35-10.2-5.34-16.29-5.34-3.75,0-7.32.75-10.58,2.11-.05.02-.09.03-.14.05-4.43,1.87-8.27,4.87-11.16,8.63,0,0-.02.02-.03.03-.06.07-.12.15-.17.22,0,.01-.02.02-.03.04-.12.13-.22.27-.3.43-3.27,4.54-5.2,10.1-5.2,16.1,0,4.25.97,8.27,2.69,11.87.02.05.05.11.08.16,4.48,9.21,13.93,15.58,24.85,15.58,7.89,0,15.01-3.33,20.04-8.65.07-.06.13-.13.19-.2ZM49.67,47.64c-1.85.34-3.75.53-5.64.53-3.75,0-7.38-.67-10.84-1.97.41-1.03.64-2.15.66-3.32,2.93-1.45,5.62-3.29,8.03-5.51.99.44,2.09.69,3.25.69,3.64,0,6.72-2.44,7.7-5.77.94-.29,1.85-.63,2.75-1.02,0,.24.02.48.02.72,0,6-2.25,11.47-5.95,15.64ZM20.06,23.63c.89,2.88,3.58,4.98,6.75,4.98,1.05,0,2.05-.24,2.95-.65,2.28,1.8,4.88,3.21,7.63,4.13.27,1,.72,1.92,1.32,2.73-1.75,1.54-3.66,2.88-5.7,3.98-1.49-3.26-4.78-5.53-8.59-5.53-2.07,0-3.98.68-5.53,1.81-3-4.29-4.87-9.3-5.4-14.52,2.04,1.33,4.25,2.37,6.58,3.07ZM47.72,14.4c.41.37.81.75,1.2,1.15-.28,2.31-.82,4.57-1.62,6.75-.69-.19-1.41-.3-2.16-.3-3.67,0-6.77,2.48-7.72,5.85-1.63-.67-3.18-1.54-4.61-2.59.25-.41.46-.84.63-1.29,5.72-1.42,10.78-4.82,14.28-9.56ZM52.92,28.05c-.36-1.43-1.11-2.71-2.12-3.72.57-1.48,1.05-2.99,1.42-4.53,1.34,2.22,2.33,4.68,2.89,7.3-.71.36-1.44.67-2.18.95ZM41.1,30.03c0-2.23,1.81-4.04,4.04-4.04s4.04,1.81,4.04,4.04-1.81,4.04-4.04,4.04-4.04-1.81-4.04-4.04ZM29.84,21.83c-.03.13-.05.25-.05.39-.3,1.37-1.52,2.4-2.98,2.4-1.69,0-3.06-1.37-3.06-3.06s1.37-3.06,3.06-3.06,3.06,1.37,3.06,3.06c0,.09-.02.18-.03.28ZM24.42,37.27c3,0,5.45,2.44,5.45,5.45s-2.44,5.45-5.45,5.45-5.45-2.44-5.45-5.45,2.44-5.45,5.45-5.45ZM44.52,11.99c-2.72,3.69-6.54,6.42-10.9,7.76-.8-3.02-3.55-5.26-6.82-5.26-.56,0-1.11.07-1.63.2-.53-1.61-.84-3.28-.97-4.98,2.44-.86,5.06-1.33,7.79-1.33,4.6,0,8.89,1.32,12.52,3.61ZM20.35,11.47c.24,1.8.67,3.57,1.3,5.28-.71.76-1.25,1.66-1.57,2.67-2.04-.74-3.97-1.79-5.7-3.12,1.71-1.92,3.73-3.55,5.97-4.83ZM9.89,23.71c.96,5.21,3.09,10.17,6.26,14.44-.69,1.23-1.1,2.64-1.17,4.13-1.57-.18-3.13-.49-4.66-.91-1.25-2.87-1.94-6.04-1.94-9.37,0-2.92.54-5.71,1.51-8.29ZM13.03,46.04c.88.14,1.77.24,2.66.31,1.43,3.41,4.8,5.82,8.72,5.82,2.51,0,4.78-.99,6.47-2.58,4.17,1.71,8.58,2.58,13.14,2.58.08,0,.16,0,.24,0-3.58,2.19-7.78,3.45-12.27,3.45-7.76,0-14.66-3.77-18.97-9.57Z"/>
</svg>