<?xml version="1.0" encoding="UTF-8"?>
<svg id="Expanded_Icons" data-name="Expanded Icons" xmlns="http://www.w3.org/2000/svg" viewBox="0 0 64 64">
  <defs>
    <style>
      .cls-1 {
        fill: #29b5e8;
      }

      .cls-1, .cls-2, .cls-3 {
        stroke-width: 0px;
      }

      .cls-2 {
        fill: #11567f;
      }

      .cls-3 {
        fill: #fff;
      }
    </style>
  </defs>
  <path class="cls-1" d="M24.84,9.74c.33-3.26,3.06-5.74,6.33-5.74h.33c3.19,0,5.79,2.48,6.02,5.6.02.32-.25.58-.57.57l-1.9-.04c-.32,0-.57-.28-.63-.59-.24-1.4-1.46-2.46-2.93-2.46h-.33c-1.69,0-3.11,1.29-3.28,2.97l-.56,5.61c-.03.34.24.64.58.64h5.36c2.17,0,4.25.93,5.7,2.55l3.22,3.59c.22.25.61.26.85.02l5.28-5.29c.23-.23.6-.23.83,0l1.35,1.35c.23.23.23.6,0,.82l-5.44,5.45c-.22.22-.23.57-.02.8l5.53,6.16c.21.24.2.61-.04.82l-1.41,1.28c-.24.22-.61.2-.82-.04l-5.38-5.99c-.22-.25-.61-.26-.85-.02l-6.08,6.09c-.23.23-.6.23-.83,0l-1.35-1.35c-.23-.23-.23-.6,0-.82l6.24-6.26c.22-.22.23-.57.02-.8l-3.37-3.76c-.87-.97-2.12-1.53-3.42-1.53h-5.78c-.3,0-.55.23-.58.53l-1.22,12.21c-.32,3.25-3.05,5.72-6.31,5.72h-.2c-3.19,0-5.82-2.44-6.11-5.57-.03-.32.23-.58.56-.58h1.9c.32,0,.58.26.64.58.27,1.42,1.52,2.5,3.01,2.5h.2c1.68,0,3.09-1.28,3.26-2.95l1.18-11.78c.03-.34-.24-.64-.58-.64h-3.52c-.32,0-.58-.26-.58-.58v-1.91c0-.32.26-.58.58-.58h3.94c.3,0,.55-.23.58-.53l.6-6.03Z"/>
  <rect class="cls-2" x="8.96" y="42.5" width="46.08" height="17.5" rx="4.08" ry="4.08"/>
  <path class="cls-3" d="M22.62,50.08v-.74h3.48v.74h-1.3v3.5h-.89v-3.5h-1.3Z"/>
  <path class="cls-3" d="M27.06,53.58h-.96l1.46-4.24h1.16l1.46,4.24h-.96l-1.06-3.27h-.03l-1.06,3.27ZM27,51.92h2.27v.7h-2.27v-.7Z"/>
  <path class="cls-3" d="M30.87,53.58v-4.24h1.7c.31,0,.57.05.78.14.21.09.37.22.47.39.1.16.16.35.16.56,0,.17-.03.31-.1.44-.07.12-.16.23-.27.31-.11.08-.25.13-.39.17v.04c.16,0,.31.05.45.14.14.08.26.2.35.35.09.15.13.33.13.54,0,.23-.06.43-.17.6-.11.18-.27.31-.49.42s-.48.15-.8.15h-1.81ZM31.77,52.85h.73c.25,0,.43-.05.55-.14.11-.1.17-.23.17-.39,0-.12-.03-.22-.08-.31s-.14-.16-.24-.21c-.1-.05-.23-.08-.37-.08h-.75v1.13ZM31.77,51.12h.66c.12,0,.23-.02.33-.06.1-.04.17-.11.23-.19.06-.08.08-.18.08-.29,0-.15-.05-.28-.16-.37-.11-.09-.26-.14-.46-.14h-.68v1.05Z"/>
  <path class="cls-3" d="M34.9,53.58v-4.24h.9v3.5h1.82v.74h-2.72Z"/>
  <path class="cls-3" d="M38.39,53.58v-4.24h2.86v.74h-1.96v1.01h1.81v.74h-1.81v1.01h1.97v.74h-2.87Z"/>
</svg>