<?xml version="1.0" encoding="UTF-8"?>
<svg id="Expanded_Icons" data-name="Expanded Icons" xmlns="http://www.w3.org/2000/svg" viewBox="0 0 64 64">
  <defs>
    <style>
      .cls-1 {
        fill: #29b5e8;
        stroke-width: 0px;
      }
    </style>
  </defs>
  <path class="cls-1" d="M52.91,28.17h-4.45V6.44c0-1.1-.9-2-2-2h-27.3c-.59,0-1.15.26-1.53.71l-10.5,12.41c-.31.36-.47.82-.47,1.29v38.72c0,1.1.9,2,2,2h37.79c1.1,0,2-.9,2-2v-6.55h4.45c2.61,0,4.73-2.12,4.73-4.73v-13.39c0-2.61-2.12-4.73-4.73-4.73ZM17.51,11.49v5.86h-4.96l4.96-5.86ZM44.46,55.57H10.66V21.35h8.84c1.1,0,2-.9,2-2v-10.91h22.95v19.73h-25.15c-2.61,0-4.73,2.12-4.73,4.73v13.39c0,2.61,2.12,4.73,4.73,4.73h25.15v4.55ZM55.14,46.29c0,1.23-1,2.23-2.23,2.23H19.3c-1.23,0-2.23-1-2.23-2.23v-13.39c0-1.23,1-2.23,2.23-2.23h33.6c1.23,0,2.23,1,2.23,2.23v13.39Z"/>
  <path class="cls-1" d="M22.94,41.25c0,1.66-.57,2.37-1.76,2.37-.9,0-1.54-.59-1.54-.59l-.83,1.35s.83.9,2.46.9c2.33,0,3.37-1.5,3.39-3.68v-6.93h-1.71v6.59Z"/>
  <path class="cls-1" d="M30.1,38.9c-1.57-.52-2.01-.86-2.01-1.57,0-.83.59-1.3,1.62-1.3,1.5,0,2.4.86,2.4.86l.93-1.4s-.95-1.05-3.34-1.05-3.53,1.18-3.53,2.96c0,1.62.99,2.4,3.15,3.09,1.71.57,2.06.97,2.06,1.76,0,.85-.5,1.43-1.69,1.43-1.54,0-2.66-1-2.66-1l-.93,1.3s1.18,1.3,3.65,1.3,3.56-1.38,3.56-3.15c0-1.61-.88-2.52-3.22-3.23Z"/>
  <path class="cls-1" d="M38.6,34.44c-2.87,0-4.77,2.4-4.77,5.43s1.9,5.41,4.77,5.41,4.79-2.42,4.79-5.41-1.9-5.43-4.79-5.43ZM38.6,43.62c-1.78,0-3.01-1.62-3.01-3.75s1.23-3.79,3.01-3.79,3.03,1.64,3.03,3.79-1.24,3.75-3.03,3.75Z"/>
  <polygon class="cls-1" points="51.1 41.89 45.81 34.66 44.55 34.66 44.55 45.03 46.25 45.03 46.25 37.84 51.54 45.03 52.82 45.03 52.82 34.66 51.1 34.66 51.1 41.89"/>
</svg>