<?xml version="1.0" encoding="UTF-8"?>
<svg id="Expanded_Icons" data-name="Expanded Icons" xmlns="http://www.w3.org/2000/svg" viewBox="0 0 64 64">
  <defs>
    <style>
      .cls-1 {
        fill: #29b5e8;
        stroke-width: 0px;
      }
    </style>
  </defs>
  <path class="cls-1" d="M32,5.52c-14.89,0-22.92,4.93-22.92,9.57v33.86c0,4.64,8.03,9.57,22.92,9.57s22.92-4.93,22.92-9.57V15.09c0-4.64-8.03-9.57-22.92-9.57ZM52.42,37.66c0,3.34-8.39,7.07-20.42,7.07s-20.42-3.73-20.42-7.07v-6.85c3.43,2.89,10.35,5.15,20.42,5.15s16.98-2.26,20.42-5.15v6.85ZM52.42,26.39c0,3.34-8.39,7.07-20.42,7.07s-20.42-3.73-20.42-7.07v-6.88c3.43,2.89,10.35,5.15,20.42,5.15s16.98-2.26,20.42-5.15v6.88ZM32,8.02c12.03,0,20.42,3.73,20.42,7.07s-8.39,7.07-20.42,7.07-20.42-3.73-20.42-7.07,8.39-7.07,20.42-7.07ZM32,56.02c-12.03,0-20.42-3.73-20.42-7.07v-6.88c3.43,2.89,10.35,5.15,20.42,5.15s16.98-2.26,20.42-5.15v6.88c0,3.34-8.39,7.07-20.42,7.07Z"/>
</svg>