<?xml version="1.0" encoding="UTF-8"?>
<svg id="Expanded_Icons" data-name="Expanded Icons" xmlns="http://www.w3.org/2000/svg" viewBox="0 0 64 64">
  <defs>
    <style>
      .cls-1 {
        fill: #2ab5e8;
        fill-rule: evenodd;
        stroke-width: 0px;
      }
    </style>
  </defs>
  <g id="Layer_1-2" data-name="Layer 1-2">
    <g id="ICON-Performance_Optimization" data-name="ICON-Performance Optimization">
      <path class="cls-1" d="M59.92,38.66c-.17-.57-.55-1.04-1.06-1.33l-3.85-2.1c.1-1.11.15-2.23.12-3.36,0-1.14,0-2.22-.11-3.27l3.86-2.18c.51-.29.88-.78,1.03-1.34.15-.55.07-1.14-.21-1.65l-6.49-10.98c-.4-.67-1.11-1.07-1.89-1.06-.35,0-.7.08-1.01.25l-3.94,2.15c-1.79-1.45-3.79-2.62-5.91-3.5v-4.1c-.01-1.19-.97-2.16-2.17-2.17h-13.05c-1.2,0-2.17.97-2.17,2.17v4.14c-1.98.84-3.82,1.99-5.44,3.41l-3.5-2.07c-.34-.2-.72-.3-1.1-.3-.77,0-1.48.4-1.87,1.06l-6.5,10.99c-.32.52-.41,1.16-.23,1.75.16.56.53,1.04,1.03,1.33l4.02,2.27c-.01.11-.01.21,0,.31v.42c-.12.81-.18,1.62-.19,2.43v3.27l-4.14,2.13c-.52.27-.9.74-1.07,1.29-.16.59-.08,1.22.21,1.75l6.49,11.21c.38.68,1.09,1.1,1.87,1.1.35-.03.69-.15.98-.35l3.95-2.13c1.63,1.4,3.46,2.54,5.44,3.38v4.22c0,1.2.97,2.17,2.17,2.17h13.1c1.19-.01,2.16-.97,2.17-2.17v-4.2c2.11-.86,4.1-2.01,5.89-3.41l4,2.15c.32.18.68.27,1.05.28.78,0,1.5-.43,1.87-1.1l6.47-11.2c.26-.52.32-1.12.16-1.68h.01ZM25.88,49.94c-2.16-.69-4.14-1.85-5.81-3.39l-.82-.63c-.38-.31-.86-.48-1.34-.47-.36,0-.72.09-1.03.26l-3.34,1.75-4.36-7.37,3.24-1.75c.76-.36,1.24-1.14,1.23-1.98v-4.5c-.03-.64-.03-1.28,0-1.93.13-.82.19-1.65.19-2.48,0-.78-.42-1.51-1.1-1.89l-3.2-1.85,4.25-7.23,2.99,1.75c.79.46,1.79.38,2.48-.21l.17-.14c1.83-1.79,4.03-3.14,6.45-3.97.9-.28,1.52-1.1,1.54-2.04v-3.5h8.74v3.5c0,.95.62,1.79,1.52,2.08,2.63.85,5.05,2.25,7.1,4.11.39.32.89.51,1.4.51.36,0,.72-.09,1.03-.26l3.36-1.75,4.28,7.28-3.29,1.85c-.87.48-1.29,1.51-1.01,2.46.24,1.26.32,2.55.26,3.83.05,1.37-.04,2.73-.28,4.08-.22.95.22,1.93,1.09,2.38l3.24,1.75-4.3,7.43-3.34-1.75c-.32-.17-.67-.26-1.03-.26-.49,0-.96.16-1.34.45-2.06,1.83-4.48,3.2-7.1,4.04-.92.27-1.57,1.11-1.57,2.08v3.41h-8.74v-3.5c.03-.99-.59-1.88-1.54-2.17h-.01Z"/>
      <path class="cls-1" d="M32,47.84c-8.75,0-15.84-7.1-15.84-15.84s7.1-15.84,15.84-15.84,15.84,7.1,15.84,15.84c-.02,8.74-7.1,15.83-15.84,15.84ZM32,17.9c-7.79,0-14.1,6.31-14.1,14.1s6.31,14.1,14.1,14.1,14.1-6.31,14.1-14.1c-.01-7.78-6.32-14.09-14.1-14.1Z"/>
      <path class="cls-1" d="M30.09,40.03c-.45,0-.88-.18-1.2-.49l-4.13-3.95c-.64-.72-.59-1.83.13-2.47.64-.58,1.61-.6,2.29-.05l2.59,2.48,6.8-10.6c.48-.84,1.55-1.13,2.39-.66.84.48,1.13,1.55.66,2.39-.03.06-.06.11-.1.16l-7.94,12.38c-.28.44-.74.72-1.26.79l-.21.02h0Z"/>
    </g>
  </g>
</svg>