<?xml version="1.0" encoding="UTF-8"?>
<svg id="Expanded_Icons" data-name="Expanded Icons" xmlns="http://www.w3.org/2000/svg" viewBox="0 0 64 64">
  <defs>
    <style>
      .cls-1 {
        fill: #29b5e8;
        stroke-width: 0px;
      }
    </style>
  </defs>
  <path class="cls-1" d="M50.17,30.81l-8.25-5.3c-.58-.37-1.35-.21-1.73.38-.37.58-.21,1.35.38,1.73l6.61,4.25-6.61,4.25c-.58.37-.75,1.15-.38,1.73.24.37.64.57,1.05.57.23,0,.47-.06.67-.2l8.25-5.3c.36-.23.57-.63.57-1.05s-.22-.82-.57-1.05Z"/>
  <path class="cls-1" d="M23.8,25.89c-.37-.58-1.15-.75-1.73-.38l-8.25,5.3c-.36.23-.57.63-.57,1.05s.22.82.57,1.05l8.25,5.3c.21.13.44.2.67.2.41,0,.81-.2,1.05-.57.37-.58.21-1.35-.38-1.73l-6.61-4.25,6.61-4.25c.58-.37.75-1.15.38-1.73Z"/>
  <path class="cls-1" d="M33.91,21.9c-.67-.16-1.34.27-1.49.94l-4,17.76c-.15.67.27,1.34.95,1.49.09.02.18.03.28.03.57,0,1.09-.4,1.22-.98l4-17.76c.15-.67-.27-1.34-.95-1.49Z"/>
  <path class="cls-1" d="M52.7,11.6H11.3c-3.2,0-5.8,2.6-5.8,5.8v29.2c0,3.2,2.6,5.8,5.8,5.8h41.41c3.2,0,5.8-2.6,5.8-5.8v-29.2c0-3.2-2.6-5.8-5.8-5.8ZM56,46.6c0,1.82-1.48,3.3-3.3,3.3H11.3c-1.82,0-3.3-1.48-3.3-3.3v-29.2c0-1.82,1.48-3.3,3.3-3.3h41.41c1.82,0,3.3,1.48,3.3,3.3v29.2Z"/>
</svg>