<?xml version="1.0" encoding="UTF-8"?>
<svg id="Expanded_Icons" data-name="Expanded Icons" xmlns="http://www.w3.org/2000/svg" viewBox="0 0 64 64">
  <defs>
    <style>
      .cls-1 {
        fill: #29b5e8;
        stroke-width: 0px;
      }
    </style>
  </defs>
  <path class="cls-1" d="M32.02,16.33c-7.97,0-14.46,6.43-14.46,14.34,0,4.49,1.83,8.45,5.06,11.04l.47,11.51c.04,1.07.92,1.92,2,1.92h1.2c.64,2.69,3.05,4.69,5.93,4.69s5.29-2.01,5.93-4.69h.6c1.06,0,1.94-.83,2-1.9l.6-11.5c3.16-2.35,5.08-5.2,5.08-11.08,0-7.91-6.46-14.34-14.39-14.34ZM37.08,46.37l-10.34-1.72-.09-2.27h10.64l-.21,3.99ZM36.83,51.13h-9.83l-.16-3.93,10.11,1.68-.12,2.25ZM32.2,57.32c-1.48,0-2.76-.9-3.31-2.19h6.62c-.55,1.29-1.83,2.19-3.31,2.19ZM38.26,39.02c-.32.22-.55.52-.7.86h-11.16c-.15-.34-.38-.65-.7-.86-2.67-1.82-4.14-4.79-4.14-8.35,0-5.7,4.69-10.34,10.46-10.34s10.39,4.64,10.39,10.34c0,4.7-1.34,6.44-4.15,8.35Z"/>
  <path class="cls-1" d="M13.71,27.47h-5.17c-1.1,0-2,.9-2,2s.9,2,2,2h5.17c1.1,0,2-.9,2-2s-.9-2-2-2Z"/>
  <path class="cls-1" d="M17.94,18.09c.39.39.9.59,1.41.59s1.02-.2,1.41-.59c.78-.78.78-2.05,0-2.83l-3.65-3.65c-.78-.78-2.05-.78-2.83,0-.78.78-.78,2.05,0,2.83l3.65,3.65Z"/>
  <path class="cls-1" d="M32.39,13.61c1.1,0,2-.9,2-2v-5.16c0-1.1-.9-2-2-2s-2,.9-2,2v5.16c0,1.1.9,2,2,2Z"/>
  <path class="cls-1" d="M50.26,12.19c-.78-.78-2.05-.78-2.83,0l-3.65,3.65c-.78.78-.78,2.05,0,2.83.39.39.9.59,1.41.59s1.02-.2,1.41-.59l3.65-3.65c.78-.78.78-2.05,0-2.83Z"/>
  <path class="cls-1" d="M55.42,28.29h-5.16c-1.1,0-2,.9-2,2s.9,2,2,2h5.16c1.1,0,2-.9,2-2s-.9-2-2-2Z"/>
</svg>