<?xml version="1.0" encoding="UTF-8"?>
<svg id="Expanded_Icons" data-name="Expanded Icons" xmlns="http://www.w3.org/2000/svg" viewBox="0 0 64 64">
  <defs>
    <style>
      .cls-1 {
        fill: #29b5e8;
        stroke-width: 0px;
      }
    </style>
  </defs>
  <path class="cls-1" d="M13.89,36.81c-.94,0-1.71.77-1.71,1.71s.77,1.71,1.71,1.71,1.71-.77,1.71-1.71-.77-1.71-1.71-1.71Z"/>
  <path class="cls-1" d="M13.89,28.79c.95,0,1.71-.77,1.71-1.71s-.77-1.71-1.71-1.71-1.71.77-1.71,1.71.77,1.71,1.71,1.71Z"/>
  <path class="cls-1" d="M41.31,31.17c-.88,0-3.74-.21-3.74-2.91,0-.69-.56-1.25-1.25-1.25s-1.25.56-1.25,1.25c0,2.86,1.96,4.89,4.99,5.32v1.34c0,.69.56,1.25,1.25,1.25s1.25-.56,1.25-1.25v-1.34c3.03-.43,5-2.46,5-5.32,0-3.31-2.05-4.32-4.89-5.72l-1.6-.8c-2.83-1.4-3.5-1.79-3.5-3.47,0-2.73,2.87-2.95,3.74-2.95s3.68.21,3.68,2.95c0,.69.56,1.25,1.25,1.25s1.25-.56,1.25-1.25c0-2.87-1.93-4.91-4.93-5.36v-1.31c0-.69-.56-1.25-1.25-1.25s-1.25.56-1.25,1.25v1.31c-3.03.44-4.99,2.48-4.99,5.36,0,3.3,2.05,4.31,4.89,5.72l1.61.8c2.83,1.39,3.49,1.79,3.49,3.47,0,2.7-2.87,2.91-3.75,2.91Z"/>
  <path class="cls-1" d="M58.44,5.25l-34.25-.14h0c-.33,0-.65.13-.88.36-.24.23-.37.55-.37.89v2.88h-9.01c-.6,0-1.17.27-1.55.74l-7.59,9.36s-.02.04-.03.05c-.2.26-.33.57-.39.91,0,.05-.01.09-.01.14,0,.05-.02.1-.02.16v31.21c0,2.34,0,6.68,5.69,6.68h37.07c2.97,0,6.51-1.16,6.51-6.68v-9.67h4.84c.69,0,1.25-.56,1.25-1.25V6.5c0-.69-.56-1.25-1.25-1.25ZM15.6,50.4c0,.95-.77,1.71-1.71,1.71s-1.71-.77-1.71-1.71.77-1.71,1.71-1.71,1.71.77,1.71,1.71ZM8.34,33.84h14.6v9.3h-14.6v-9.3ZM22.93,31.34h-14.6v-8.74h14.6v8.74ZM44.57,51.5h-10.92c-.69,0-1.25-.56-1.25-1.25s.56-1.25,1.25-1.25h10.92c.69,0,1.25.56,1.25,1.25s-.56,1.25-1.25,1.25ZM14.88,13.24h8.05v5.36h-12.4l4.35-5.36ZM49.6,43.13h-16.91l1.03-.99h15.88v.99ZM57.18,39.64h-23.97c-.32,0-.63.12-.87.35l-6.92,6.64v-25.64c.02-.13.04-.25.04-.39s-.01-.26-.04-.39v-8.59c.02-.13.04-.25.04-.39s-.01-.26-.04-.39v-3.24l31.75.13v31.9Z"/>
</svg>