<?xml version="1.0" encoding="UTF-8"?>
<svg id="Expanded_Icons" data-name="Expanded Icons" xmlns="http://www.w3.org/2000/svg" viewBox="0 0 64 64">
  <defs>
    <style>
      .cls-1 {
        fill: #29b5e8;
      }

      .cls-1, .cls-2, .cls-3 {
        stroke-width: 0px;
      }

      .cls-2 {
        fill: #11567f;
      }

      .cls-3 {
        fill: #fff;
      }
    </style>
  </defs>
  <path class="cls-1" d="M24.84,9.74c.33-3.26,3.06-5.74,6.33-5.74h.33c3.19,0,5.79,2.48,6.02,5.6.02.32-.25.58-.57.57l-1.9-.04c-.32,0-.57-.28-.63-.59-.24-1.4-1.46-2.46-2.93-2.46h-.33c-1.69,0-3.11,1.29-3.28,2.97l-.56,5.61c-.03.34.24.64.58.64h5.36c2.17,0,4.25.93,5.7,2.55l3.22,3.59c.22.25.61.26.85.02l5.28-5.29c.23-.23.6-.23.83,0l1.35,1.35c.23.23.23.6,0,.82l-5.44,5.45c-.22.22-.23.57-.02.8l5.53,6.16c.21.24.2.61-.04.82l-1.41,1.28c-.24.22-.61.2-.82-.04l-5.38-5.99c-.22-.25-.61-.26-.85-.02l-6.08,6.09c-.23.23-.6.23-.83,0l-1.35-1.35c-.23-.23-.23-.6,0-.82l6.24-6.26c.22-.22.23-.57.02-.8l-3.37-3.76c-.87-.97-2.12-1.53-3.42-1.53h-5.78c-.3,0-.55.23-.58.53l-1.22,12.21c-.32,3.25-3.05,5.72-6.31,5.72h-.2c-3.19,0-5.82-2.44-6.11-5.57-.03-.32.23-.58.56-.58h1.9c.32,0,.58.26.64.58.27,1.42,1.52,2.5,3.01,2.5h.2c1.68,0,3.09-1.28,3.26-2.95l1.18-11.78c.03-.34-.24-.64-.58-.64h-3.52c-.32,0-.58-.26-.58-.58v-1.91c0-.32.26-.58.58-.58h3.94c.3,0,.55-.23.58-.53l.6-6.03Z"/>
  <rect class="cls-2" x="8.96" y="42.5" width="46.08" height="17.5" rx="4.08" ry="4.08"/>
  <path class="cls-3" d="M19.26,53.58l-1.21-4.24h.98l.7,2.95h.04l.77-2.95h.84l.77,2.95h.04l.7-2.95h.98l-1.21,4.24h-.87l-.81-2.77h-.03l-.81,2.77h-.87Z"/>
  <path class="cls-3" d="M25.43,49.34v4.24h-.9v-4.24h.9Z"/>
  <path class="cls-3" d="M29.89,49.34v4.24h-.77l-1.85-2.67h-.03v2.67h-.9v-4.24h.79l1.83,2.67h.04v-2.67h.89Z"/>
  <path class="cls-3" d="M32.31,53.58h-1.5v-4.24h1.52c.43,0,.79.08,1.1.25.31.17.54.41.71.73.17.32.25.69.25,1.14s-.08.82-.25,1.14c-.17.32-.4.56-.71.73-.31.17-.68.25-1.11.25ZM31.7,52.81h.57c.27,0,.49-.05.67-.14.18-.1.32-.24.41-.44.09-.2.14-.46.14-.77s-.05-.57-.14-.77c-.09-.2-.23-.35-.41-.44-.18-.09-.4-.14-.67-.14h-.57v2.71Z"/>
  <path class="cls-3" d="M39.12,51.46c0,.46-.09.86-.26,1.18-.17.32-.41.57-.71.74-.3.17-.64.25-1.01.25s-.72-.09-1.02-.26c-.3-.17-.54-.42-.71-.74-.17-.32-.26-.72-.26-1.18s.09-.86.26-1.18c.17-.32.41-.57.71-.74.3-.17.64-.26,1.02-.26s.71.09,1.01.26c.3.17.54.42.71.74.18.32.26.72.26,1.18ZM38.21,51.46c0-.3-.04-.55-.13-.76-.09-.21-.21-.36-.37-.47-.16-.11-.35-.16-.57-.16s-.41.05-.57.16c-.16.11-.29.26-.38.47-.09.21-.13.46-.13.76s.04.55.13.76c.09.21.22.36.38.47.16.11.35.16.57.16s.41-.05.57-.16c.16-.11.29-.26.37-.47.09-.21.13-.46.13-.76Z"/>
  <path class="cls-3" d="M40.76,53.58l-1.21-4.24h.98l.7,2.95h.04l.77-2.95h.84l.77,2.95h.04l.7-2.95h.98l-1.21,4.24h-.87l-.81-2.77h-.03l-.81,2.77h-.87Z"/>
</svg>