<?xml version="1.0" encoding="UTF-8"?>
<svg id="Expanded_Icons" data-name="Expanded Icons" xmlns="http://www.w3.org/2000/svg" viewBox="0 0 64 64">
  <defs>
    <style>
      .cls-1 {
        fill: #29b5e8;
        fill-rule: evenodd;
        stroke-width: 0px;
      }
    </style>
  </defs>
  <path class="cls-1" d="M59.69,32.87s0-.04,0-.06c-.02-.12-.05-.24-.09-.35,0-.02-.01-.03-.02-.05-.04-.12-.1-.23-.16-.34l-.03-.05c-.07-.11-.15-.21-.23-.31,0,0-.01-.01-.02-.02,0,0-.01,0-.02-.01-.09-.09-.19-.18-.29-.26l-.04-.03c-.1-.07-.22-.14-.33-.19l-.04-.02c-.12-.05-.24-.09-.36-.12h-.04c-.12-.04-.24-.05-.37-.06h-8.95c-1.2,0-2.18.98-2.18,2.18s.98,2.18,2.18,2.18h3.29l-11.4,10.6-9.76-7.81c-.83-.66-2.02-.63-2.81.07L7.82,56.18c-.91.78-1.02,2.16-.23,3.07.78.91,2.16,1.02,3.07.23.02-.02.04-.03.06-.05l18.83-16.74,9.79,7.83c.84.68,2.05.63,2.85-.11l13.18-12.24v3.93c0,1.2.98,2.18,2.18,2.18s2.18-.98,2.18-2.18v-8.93c0-.1,0-.21-.03-.31Z"/>
  <path class="cls-1" d="M14.99,44.03c1.03.62,2.37.29,2.99-.75.62-1.03.29-2.37-.75-2.99-.06-.04-.13-.07-.2-.1-8.25-4.38-11.39-14.61-7.01-22.86,4.38-8.25,14.61-11.39,22.86-7.01,8.25,4.38,11.39,14.61,7.01,22.86-.33.63-.71,1.24-1.12,1.82-.71.97-.49,2.34.48,3.04.97.71,2.34.49,3.05-.48.01-.02.02-.03.03-.05,2.55-3.59,3.91-7.88,3.9-12.27,0-11.72-9.54-21.26-21.26-21.26S3.71,13.53,3.71,25.25c0,7.87,4.33,15.09,11.28,18.78Z"/>
  <path class="cls-1" d="M24.98,19.07c1.3,0,2.36,1.06,2.36,2.36-.03.8.61,1.47,1.41,1.5.8.03,1.47-.61,1.5-1.41,0-.03,0-.06,0-.09,0-2.35-1.56-4.41-3.82-5.06v-1.3c.03-.8-.61-1.47-1.41-1.5-.8-.03-1.47.61-1.5,1.41,0,.03,0,.06,0,.09v1.3c-2.8.79-4.42,3.71-3.62,6.5.64,2.27,2.72,3.83,5.08,3.82,1.31,0,2.37,1.06,2.37,2.36,0,1.31-1.06,2.37-2.36,2.37s-2.37-1.06-2.37-2.36c-.03-.8-.7-1.43-1.5-1.41-.77.02-1.38.64-1.41,1.41,0,2.35,1.56,4.41,3.82,5.06v1.3c.03.8.7,1.43,1.5,1.41.77-.02,1.38-.64,1.41-1.41v-1.3c2.8-.78,4.43-3.69,3.65-6.49-.64-2.29-2.73-3.86-5.1-3.84-1.3-.03-2.34-1.12-2.3-2.42.03-1.26,1.04-2.27,2.3-2.3h0Z"/>
</svg>