<?xml version="1.0" encoding="UTF-8"?>
<svg id="Expanded_Icons" data-name="Expanded Icons" xmlns="http://www.w3.org/2000/svg" viewBox="0 0 64 64">
  <defs>
    <style>
      .cls-1 {
        fill-rule: evenodd;
      }

      .cls-1, .cls-2 {
        fill: #29b5e8;
        stroke-width: 0px;
      }
    </style>
  </defs>
  <path class="cls-2" d="M38.98,37.71v-6.98c0-.35.28-.63.63-.63h2.54c.35,0,.63.28.63.63v6.98c0,3.85-3.12,6.98-6.98,6.98h-6.98c-3.85,0-6.98-3.12-6.98-6.98v-6.98c0-.35.28-.63.63-.63h2.54c.35,0,.63.28.63.63v6.98c0,1.75,1.42,3.17,3.17,3.17h6.98c1.75,0,3.17-1.42,3.17-3.17Z"/>
  <path class="cls-1" d="M14.37,9.05c4.6-1.51,10.83-2.42,17.63-2.42s13.03.9,17.63,2.42c2.29.75,4.28,1.69,5.74,2.83,1.43,1.11,2.63,2.65,2.63,4.59,0,.7-.15,1.34-.42,1.93l-6.56,29.69c-.49,2.2-1.56,4.88-4.14,6.26-3.32,1.78-8.53,3.02-14.89,3.02-6.8,0-12.3-1.76-15.59-4.05-2.07-1.44-2.93-3.75-3.36-5.65l-7-30.47h.01c-.04-.24-.06-.49-.06-.74,0-1.94,1.19-3.47,2.63-4.59,1.46-1.13,3.45-2.07,5.74-2.83ZM10.96,14.88c-1.01.78-1.16,1.33-1.16,1.58s.15.8,1.16,1.58c.98.76,2.52,1.53,4.59,2.21,4.12,1.36,9.94,2.23,16.45,2.23s12.32-.87,16.45-2.23c2.07-.68,3.61-1.45,4.59-2.21,1.01-.78,1.16-1.33,1.16-1.58s-.15-.8-1.16-1.58c-.98-.76-2.52-1.53-4.59-2.21-4.12-1.36-9.94-2.23-16.45-2.23s-12.32.87-16.45,2.23c-2.07.68-3.61,1.45-4.59,2.21ZM11.19,22.61l5.56,24.21c.37,1.61.94,2.76,1.83,3.37,2.51,1.74,7.19,3.36,13.42,3.36s10.48-1.17,13.09-2.57c1.09-.58,1.81-1.87,2.22-3.73l5.44-24.63c-.95.46-2,.87-3.11,1.24-4.6,1.51-10.83,2.42-17.63,2.42s-13.03-.9-17.63-2.42c-1.14-.38-2.21-.8-3.17-1.27Z"/>
</svg>