<?xml version="1.0" encoding="UTF-8"?>
<svg id="Expanded_Icons" data-name="Expanded Icons" xmlns="http://www.w3.org/2000/svg" viewBox="0 0 64 64">
  <defs>
    <style>
      .cls-1 {
        fill: #29b5e8;
        stroke-width: 0px;
      }
    </style>
  </defs>
  <path class="cls-1" d="M58.75,32.16l-7.29-9.77,3.91-11.55c.24-.72.06-1.52-.48-2.06-.54-.54-1.34-.72-2.06-.48l-11.54,3.91-9.77-7.29c-.61-.46-1.43-.52-2.1-.18-.68.35-1.1,1.05-1.09,1.81l.16,12.19-9.95,7.04c-.62.44-.94,1.19-.82,1.95s.65,1.37,1.38,1.6l11.64,3.62,3.62,11.64c.23.73.85,1.26,1.6,1.38.11.02.21.02.31.02.64,0,1.25-.31,1.63-.84l7.04-9.95,12.19.16c.72-.02,1.46-.41,1.81-1.09s.28-1.49-.18-2.1ZM43.93,31.18c-.65-.04-1.28.31-1.66.84l-5.31,7.5-2.73-8.77c-.2-.63-.69-1.12-1.32-1.32l-8.77-2.73,7.5-5.3c.54-.38.85-1,.85-1.66l-.12-9.19,7.36,5.49c.53.39,1.22.5,1.84.29l8.7-2.95-2.95,8.71c-.21.62-.1,1.31.29,1.84l5.49,7.36-9.19-.12Z"/>
  <path class="cls-1" d="M25.09,36.22L5.18,56.14c-.78.78-.78,2.05,0,2.83.39.39.9.59,1.41.59s1.02-.2,1.41-.59l19.92-19.92c.78-.78.78-2.05,0-2.83s-2.05-.78-2.83,0Z"/>
</svg>