<?xml version="1.0" encoding="UTF-8"?>
<svg id="Layer_1" data-name="Layer 1" xmlns="http://www.w3.org/2000/svg" viewBox="0 0 64 64">
  <defs>
    <style>
      .cls-1 {
        fill: #2ab5e8;
      }
    </style>
  </defs>
  <path class="cls-1" d="M58.28,28c-2.21-2.2-5.81-2.2-8.02,0-.58.58-1,1.26-1.29,2h-6.34c-.85-3.41-3.17-6.52-6.12-9.26-1.2.71-2.36,1.46-3.46,2.23,3.46,2.99,5.94,6.36,5.94,9.82,0,3.06-1.99,6.15-5.82,9.2-.54.43-1.11.86-1.73,1.28-1.12.78-2.36,1.55-3.72,2.32-.61.35-1.25.69-1.92,1.04-1.96,1.02-4.15,2.02-6.52,3.02-.06-.06-.1-.14-.16-.2-2.21-2.2-5.81-2.2-8.02,0-1.07,1.07-1.66,2.49-1.66,4s.59,2.93,1.66,4c1.11,1.1,2.56,1.65,4.01,1.65s2.9-.55,4.01-1.65c1.07-1.07,1.66-2.49,1.66-4,0-.03,0-.05,0-.07,3.3-1.38,6.23-2.78,8.79-4.21.68-.38,1.32-.76,1.94-1.14,1.36-.83,2.59-1.67,3.7-2.52.6-.46,1.16-.92,1.69-1.38,3.65-3.21,5.65-6.57,6.02-10.12h6.06c.28.74.71,1.42,1.29,2,1.11,1.1,2.56,1.65,4.01,1.65s2.9-.55,4.01-1.65c1.07-1.07,1.66-2.49,1.66-4s-.59-2.93-1.66-4ZM18.11,54.45c-.15.45-.4.87-.75,1.22-1.24,1.23-3.25,1.23-4.49,0-.6-.59-.93-1.38-.93-2.22s.33-1.63.93-2.22c.62-.62,1.43-.92,2.25-.92.53,0,1.06.15,1.54.41.25.14.49.3.7.51.6.59.93,1.38.93,2.22,0,.35-.07.68-.18,1ZM52.03,34.22c-.07-.07-.12-.15-.19-.22-.47-.56-.74-1.26-.74-2s.27-1.44.74-2c.06-.07.12-.15.19-.22.62-.62,1.43-.92,2.25-.92s1.63.31,2.25.92c.6.59.93,1.38.93,2.22s-.33,1.63-.93,2.22c-1.24,1.23-3.25,1.23-4.49,0Z"/>
  <path class="cls-1" d="M13.74,36c.58-.58,1-1.26,1.28-2h4.45c.38,3.48,2.39,6.79,6.11,9.93,1.39-.75,2.61-1.49,3.68-2.19-4.56-3.5-5.87-6.57-5.87-8.95,0-3.36,2.49-6.63,6.01-9.55.65-.54,1.33-1.07,2.04-1.58,1.11-.8,2.28-1.58,3.49-2.31.76-.46,1.53-.91,2.3-1.34,2.58-1.43,5.17-2.67,7.47-3.66.06.06.1.14.17.2,1.11,1.1,2.56,1.65,4.01,1.65s2.9-.55,4.01-1.65c1.07-1.07,1.67-2.49,1.67-4s-.59-2.93-1.66-4t0,0c-2.21-2.2-5.81-2.2-8.02,0-1.07,1.07-1.66,2.49-1.66,4,0,.03,0,.06,0,.1-2.55,1.1-5.8,2.63-9.08,4.53-.1.06-.19.11-.29.17-.82.48-1.59.96-2.34,1.44-1.27.81-2.44,1.63-3.51,2.46-.72.56-1.39,1.11-2.02,1.67-3.35,2.98-5.43,6.01-6.21,9.08h-4.75c-.28-.74-.71-1.42-1.28-2-2.21-2.2-5.81-2.2-8.02,0-1.07,1.07-1.66,2.49-1.66,4,0,1.51.59,2.93,1.66,4,1.11,1.1,2.56,1.65,4.01,1.65s2.9-.55,4.01-1.65ZM45.89,9.54c.15-.45.4-.87.75-1.22.62-.62,1.43-.92,2.25-.92s1.63.31,2.25.92c.6.59.93,1.38.93,2.22s-.33,1.63-.93,2.22c-1.03,1.03-2.6,1.19-3.82.5-.24-.14-.47-.29-.67-.5-.6-.59-.93-1.38-.93-2.22,0-.35.07-.69.18-1.01ZM11.97,29.78c.07.07.12.15.18.22.47.56.74,1.26.74,2s-.27,1.44-.74,2c-.06.07-.12.15-.18.22-1.24,1.23-3.25,1.23-4.49,0-.6-.59-.93-1.38-.93-2.22,0-.84.33-1.63.93-2.22.62-.62,1.43-.92,2.25-.92s1.63.31,2.25.92Z"/>
  <path class="cls-1" d="M44.87,49.45c-.09.09-.16.2-.25.3-2.62-1.02-4.93-2.03-6.97-3.01-1.1.9-2.31,1.78-3.65,2.65,2.69,1.4,5.76,2.76,9.21,4.1.01,1.49.6,2.9,1.66,3.95,1.11,1.1,2.56,1.65,4.01,1.65s2.9-.55,4.01-1.65c1.07-1.07,1.66-2.49,1.66-4s-.59-2.93-1.66-4c-2.21-2.2-5.81-2.2-8.02,0ZM46.64,55.67c-.34-.33-.58-.73-.73-1.16-.12-.34-.2-.69-.2-1.06,0-.84.33-1.63.93-2.22.19-.19.41-.34.63-.48.5-.29,1.05-.45,1.61-.45.81,0,1.63.31,2.25.92.6.59.93,1.38.93,2.22s-.33,1.63-.93,2.22c-1.24,1.23-3.25,1.23-4.49,0Z"/>
  <path class="cls-1" d="M15.12,16.2c1.45,0,2.9-.55,4.01-1.65.03-.03.05-.07.09-.1,2.17,1.01,4.6,2.25,7.01,3.69,1.11-.9,2.28-1.75,3.47-2.55-3.19-2.02-6.39-3.64-8.92-4.81,0-.07.02-.14.02-.22,0-1.51-.59-2.93-1.66-4-2.21-2.2-5.81-2.2-8.02,0-1.07,1.07-1.66,2.49-1.66,4,0,1.51.59,2.93,1.66,4,1.11,1.1,2.56,1.65,4.01,1.65ZM17.36,8.33c.36.36.61.8.77,1.28.1.3.16.62.16.95,0,.84-.33,1.63-.93,2.22-.22.22-.47.39-.73.53-1.2.65-2.74.49-3.76-.53-.6-.59-.93-1.38-.93-2.22,0-.84.33-1.63.93-2.22.62-.62,1.43-.92,2.25-.92s1.63.31,2.25.92Z"/>
</svg>