<?xml version="1.0" encoding="UTF-8"?>
<svg id="Expanded_Icons" data-name="Expanded Icons" xmlns="http://www.w3.org/2000/svg" viewBox="0 0 64 64">
  <defs>
    <style>
      .cls-1 {
        fill: #29b5e8;
        stroke-width: 0px;
      }
    </style>
  </defs>
  <path class="cls-1" d="M59.15,11.91c-.51-.67-1.39-.95-2.2-.69L5.72,27.71c-.68.22-1.19.78-1.34,1.48s.08,1.42.61,1.9l8.07,7.35c-.6,10.65-.45,10.77.53,11.51.53.4,1.23.52,1.86.31.52-.17.76-.25,5.99-5.73l9.65,8.89c.37.34.86.53,1.36.53.08,0,.17,0,.25-.02.58-.07,1.11-.4,1.43-.9L59.24,14.22c.46-.71.42-1.63-.09-2.3ZM10.23,30.46l30.45-9.8-25.14,14.63-5.3-4.83ZM16.82,43.57c.07-1.79.17-3.88.29-5.85,0-.15,0-.29-.02-.43l32.89-19.13-29.87,21.66c-.29.21-.46.52-.5.85-.94.98-1.9,1.99-2.78,2.9ZM32.05,48.88l-8.9-8.2,26.75-19.39-17.85,27.59Z"/>
</svg>