<?xml version="1.0" encoding="UTF-8"?>
<svg id="Expanded_Icons" data-name="Expanded Icons" xmlns="http://www.w3.org/2000/svg" viewBox="0 0 64 64">
  <defs>
    <style>
      .cls-1 {
        fill: #29b5e8;
        stroke-width: 0px;
      }
    </style>
  </defs>
  <path class="cls-1" d="M51.47,27.99h-2.02V6.44c0-1.1-.9-2-2-2h-27.3c-.59,0-1.15.26-1.53.71l-10.5,12.41c-.3.36-.47.82-.47,1.29v38.72c0,1.1.9,2,2,2h37.79c1.1,0,2-.9,2-2v-6.62h2.02c2.62,0,4.74-2.13,4.74-4.74v-13.47c0-2.62-2.13-4.74-4.74-4.74ZM18.5,11.49v5.86h-4.96l4.96-5.86ZM45.45,55.57H11.66V21.35h8.84c1.1,0,2-.9,2-2v-10.91h22.95v19.55h-20.92c-2.62,0-4.74,2.13-4.74,4.74v13.47c0,2.62,2.13,4.74,4.74,4.74h20.92v4.62ZM53.71,46.21c0,1.24-1.01,2.24-2.24,2.24h-26.94c-1.24,0-2.24-1.01-2.24-2.24v-13.47c0-1.24,1.01-2.24,2.24-2.24h26.94c1.24,0,2.24,1.01,2.24,2.24v13.47Z"/>
  <polygon class="cls-1" points="34.08 34.79 32.03 34.79 30.27 38.2 29.91 38.98 29.58 38.2 27.82 34.79 25.73 34.79 28.6 39.87 25.66 45.23 27.73 45.23 29.52 41.64 29.91 40.86 30.27 41.64 32.1 45.23 34.18 45.23 31.19 39.87 34.08 34.79"/>
  <polygon class="cls-1" points="37.21 34.79 35.49 34.79 35.49 45.23 41.81 45.23 41.81 43.69 37.21 43.69 37.21 34.79"/>
  <path class="cls-1" d="M46.76,39.05c-1.58-.52-2.02-.87-2.02-1.58,0-.83.59-1.3,1.63-1.3,1.51,0,2.42.87,2.42.87l.94-1.41s-.96-1.06-3.36-1.06-3.55,1.18-3.55,2.97c0,1.63.99,2.42,3.17,3.11,1.72.57,2.07.97,2.07,1.77,0,.85-.5,1.44-1.71,1.44-1.55,0-2.68-1.01-2.68-1.01l-.94,1.3s1.18,1.3,3.67,1.3,3.58-1.39,3.58-3.17c0-1.62-.89-2.54-3.24-3.25Z"/>
</svg>