<?xml version="1.0" encoding="UTF-8"?>
<svg id="Layer_2" data-name="Layer 2" xmlns="http://www.w3.org/2000/svg" width="43.58" height="52.44" viewBox="0 0 43.58 52.44">
  <defs>
    <style>
      .cls-1 {
        fill: #5ab2e3;
      }
    </style>
  </defs>
  <g id="outlined">
    <path id="data-warehouse" class="cls-1" d="M43.07,17.28L22.7.32c-.53-.43-1.29-.43-1.82,0L.51,17.28c-.32.27-.51.67-.51,1.09v25.49c0,.78.63,1.42,1.42,1.42h6.11v.99c0,4.01,7.35,6.17,14.26,6.17s14.26-2.16,14.26-6.17v-.99h6.11c.79,0,1.42-.64,1.42-1.42v-25.49c0-.42-.19-.82-.51-1.09ZM33.8,32.59c0,1.6-4.68,3.91-12.01,3.91s-12.01-2.31-12.01-3.91v-3.4c2.71,1.79,7.46,2.72,12.01,2.72s9.3-.93,12.01-2.72v3.4ZM9.78,39.42v-3.39c2.71,1.8,7.46,2.74,12.01,2.74s9.3-.94,12.01-2.74v3.39c0,.97-1.72,2.2-4.71,3.02-1.94.53-4.41.89-7.3.89s-5.36-.36-7.3-.89c-2.99-.82-4.71-2.05-4.71-3.02ZM21.79,29.66c-7.33,0-12.01-2.33-12.01-3.92s4.68-3.91,12.01-3.91,12.01,2.32,12.01,3.91-4.68,3.92-12.01,3.92ZM33.8,46.27c0,1.59-4.68,3.91-12.01,3.91s-12.01-2.32-12.01-3.91v-3.41c.9.6,2.04,1.1,3.31,1.5.32.1.64.2.98.29.33.09.68.17,1.03.25.7.15,1.42.28,2.16.38h.02c.36.05.73.1,1.1.14.38.03.76.06,1.14.09.36.03.74.05,1.1.06h.02c.39.01.77.02,1.15.02s.76,0,1.15-.02h.02c.36-.01.74-.03,1.1-.06.38-.03.76-.06,1.14-.09.37-.04.74-.09,1.1-.14h.02c.74-.1,1.46-.23,2.16-.38.35-.08.7-.16,1.03-.25.34-.09.66-.19.98-.29,1.27-.4,2.41-.9,3.31-1.5v3.41ZM40.75,42.44h-4.7v-16.7c0-4.01-7.35-6.18-14.26-6.18s-14.26,2.17-14.26,6.18v16.7H2.83v-23.4L21.79,3.26l18.96,15.78v23.4Z"/>
  </g>
</svg>