<?xml version="1.0" encoding="UTF-8"?>
<svg id="Expanded_Icons" data-name="Expanded Icons" xmlns="http://www.w3.org/2000/svg" viewBox="0 0 64 64">
  <defs>
    <style>
      .cls-1 {
        fill: #29b5e8;
        stroke-width: 0px;
      }
    </style>
  </defs>
  <path class="cls-1" d="M58.5,40.48c-3.74,0-5.61-2.04-5.68-2.12-.24-.27-.58-.43-.94-.43-.36.02-.71.15-.95.42-.08.09-1.94,2.13-5.68,2.13s-5.61-2.04-5.68-2.12c-.23-.27-.58-.42-.94-.43-.34.02-.71.15-.95.42-.08.09-1.94,2.13-5.68,2.13s-5.61-2.04-5.68-2.12c-.24-.27-.58-.43-.94-.43-.38.02-.71.15-.95.42-.08.09-1.94,2.13-5.68,2.13s-5.61-2.04-5.68-2.12c-.24-.27-.58-.43-.94-.43-.36.02-.71.15-.95.42-.08.09-1.94,2.13-5.68,2.13-.69,0-1.25.56-1.25,1.25s.56,1.25,1.25,1.25c3.26,0,5.47-1.25,6.62-2.13,1.16.88,3.37,2.13,6.62,2.13s5.47-1.25,6.62-2.13c1.16.88,3.37,2.13,6.62,2.13s5.47-1.25,6.62-2.13c1.16.88,3.37,2.13,6.62,2.13s5.47-1.25,6.62-2.13c1.16.88,3.37,2.13,6.62,2.13.69,0,1.25-.56,1.25-1.25s-.56-1.25-1.25-1.25Z"/>
  <path class="cls-1" d="M58.5,32.02c-3.74,0-5.61-2.04-5.68-2.12-.24-.27-.58-.43-.94-.43-.36,0-.71.15-.95.42-.08.09-1.94,2.13-5.68,2.13s-5.61-2.04-5.68-2.12c-.23-.27-.58-.42-.94-.43-.34,0-.71.15-.95.42-.08.09-1.94,2.13-5.68,2.13s-5.61-2.04-5.68-2.12c-.24-.27-.58-.43-.94-.43-.38,0-.71.15-.95.42-.08.09-1.94,2.13-5.68,2.13s-5.61-2.04-5.68-2.12c-.24-.27-.58-.43-.94-.43-.36,0-.71.15-.95.42-.08.09-1.94,2.13-5.68,2.13-.69,0-1.25.56-1.25,1.25s.56,1.25,1.25,1.25c3.26,0,5.47-1.25,6.62-2.13,1.16.88,3.37,2.13,6.62,2.13s5.47-1.25,6.62-2.13c1.16.88,3.37,2.13,6.62,2.13s5.47-1.25,6.62-2.13c1.16.88,3.37,2.13,6.62,2.13s5.47-1.25,6.62-2.13c1.16.88,3.37,2.13,6.62,2.13.69,0,1.25-.56,1.25-1.25s-.56-1.25-1.25-1.25Z"/>
  <path class="cls-1" d="M5.53,26.07c3.26,0,5.47-1.25,6.62-2.13,1.16.88,3.37,2.13,6.62,2.13s5.47-1.25,6.62-2.13c1.16.88,3.37,2.13,6.62,2.13s5.47-1.25,6.62-2.13c1.16.88,3.37,2.13,6.62,2.13s5.47-1.25,6.62-2.13c1.16.88,3.37,2.13,6.62,2.13.69,0,1.25-.56,1.25-1.25s-.56-1.25-1.25-1.25c-3.74,0-5.61-2.04-5.68-2.12-.24-.27-.58-.43-.94-.43-.36,0-.71.15-.95.42-.08.09-1.94,2.13-5.68,2.13s-5.61-2.04-5.68-2.12c-.23-.27-.58-.42-.94-.43-.34,0-.71.15-.95.42-.08.09-1.94,2.13-5.68,2.13s-5.61-2.04-5.68-2.12c-.24-.27-.58-.43-.94-.43-.38,0-.71.15-.95.42-.08.09-1.94,2.13-5.68,2.13s-5.61-2.04-5.68-2.12c-.24-.27-.58-.43-.94-.43-.36,0-.71.15-.95.42-.08.09-1.94,2.13-5.68,2.13-.69,0-1.25.56-1.25,1.25s.56,1.25,1.25,1.25Z"/>
</svg>