<?xml version="1.0" encoding="UTF-8"?>
<svg id="Expanded_Icons" data-name="Expanded Icons" xmlns="http://www.w3.org/2000/svg" viewBox="0 0 64 64">
  <defs>
    <style>
      .cls-1 {
        fill: #29b5e8;
        stroke-width: 0px;
      }
    </style>
  </defs>
  <path class="cls-1" d="M32.65,30.18h-1.32v-4.5c0-.28-.23-.51-.51-.51h-2.04c-.28,0-.51.23-.51.51v4.5h-1.91v-15.03c0-.28-.23-.51-.51-.51h-2.04c-.28,0-.51.23-.51.51v15.03h-1.91v-7.94c0-.28-.23-.51-.51-.51h-2.04c-.28,0-.51.23-.51.51v7.94h-1.32c-.69,0-1.25.56-1.25,1.25s.56,1.25,1.25,1.25h15.63c.69,0,1.25-.56,1.25-1.25s-.56-1.25-1.25-1.25Z"/>
  <path class="cls-1" d="M57.04,47.71l-13.26-13.31-.87-.87c3.64-7.53,2.38-16.87-3.84-23.11-3.8-3.82-8.86-5.92-14.24-5.92h0c-5.38,0-10.43,2.1-14.24,5.92-7.84,7.87-7.84,20.68,0,28.56,3.8,3.81,8.86,5.92,14.24,5.92h0c3.09,0,6.06-.71,8.76-2.03l.85.85,13.26,13.32c1.22,1.23,2.85,1.9,4.58,1.9s3.35-.67,4.57-1.9l.17-.17c2.53-2.53,2.53-6.64.01-9.17ZM24.83,40.9c-4.31,0-8.36-1.68-11.4-4.74-6.29-6.32-6.29-16.6,0-22.91,3.05-3.06,7.09-4.74,11.4-4.74h0c4.31,0,8.36,1.68,11.4,4.74h0c6.29,6.32,6.29,16.59,0,22.91-3.05,3.06-7.1,4.74-11.4,4.74h0ZM54.21,54.04l-.18.18c-.48.48-1.11.72-1.75.72s-1.26-.24-1.74-.72l-13.26-13.32,2.27-2.07,1.4-1.6,13.26,13.31c.97.97.96,2.54,0,3.5Z"/>
</svg>