<?xml version="1.0" encoding="UTF-8"?>
<svg id="Expanded_Icons" data-name="Expanded Icons" xmlns="http://www.w3.org/2000/svg" viewBox="0 0 64 64">
  <defs>
    <style>
      .cls-1 {
        fill-rule: evenodd;
      }

      .cls-1, .cls-2 {
        fill: #29b5e8;
        stroke-width: 0px;
      }
    </style>
  </defs>
  <g id="Not_Used" data-name="Not Used">
    <g>
      <path class="cls-2" d="M27.22,26.9H9.12c-1.26,0-2.28-1.02-2.28-2.28V6.53c0-1.26,1.02-2.28,2.28-2.28h18.1c1.26,0,2.28,1.02,2.28,2.28v18.1c0,1.26-1.02,2.28-2.28,2.28ZM9.12,6.35c-.1,0-.18.08-.18.18v18.1c0,.1.08.18.18.18h18.1c.1,0,.18-.08.18-.18V6.53c0-.1-.08-.18-.18-.18H9.12Z"/>
      <path class="cls-2" d="M27.26,52.9H9.16c-1.26,0-2.28-1.02-2.28-2.28v-18.1c0-1.26,1.02-2.28,2.28-2.28h18.1c1.26,0,2.28,1.02,2.28,2.28v18.1c0,1.26-1.02,2.28-2.28,2.28ZM9.16,32.34c-.1,0-.18.08-.18.18v18.1c0,.1.08.18.18.18h18.1c.1,0,.18-.08.18-.18v-18.1c0-.1-.08-.18-.18-.18H9.16Z"/>
      <path class="cls-2" d="M53.55,52.9h-18.1c-1.26,0-2.28-1.02-2.28-2.28v-18.1c0-1.26,1.02-2.28,2.28-2.28h18.1c1.26,0,2.28,1.02,2.28,2.28v18.1c0,1.26-1.02,2.28-2.28,2.28ZM35.46,32.34c-.1,0-.18.08-.18.18v18.1c0,.1.08.18.18.18h18.1c.1,0,.18-.08.18-.18v-18.1c0-.1-.08-.18-.18-.18h-18.1Z"/>
      <path class="cls-2" d="M58,60.24H6.29c-.88,0-1.58-.71-1.58-1.58s.71-1.58,1.58-1.58h51.7c.88,0,1.58.71,1.58,1.58,0,.87-.71,1.58-1.58,1.58Z"/>
      <g>
        <path class="cls-2" d="M13.16,47.03c-.58,0-1.06-.47-1.06-1.06v-8.74c0-.58.47-1.06,1.06-1.06s1.06.47,1.06,1.06v8.74c0,.58-.47,1.06-1.06,1.06Z"/>
        <path class="cls-2" d="M18.21,47.03c-.58,0-1.06-.47-1.06-1.06v-8.74c0-.58.47-1.06,1.06-1.06s1.06.47,1.06,1.06v8.74c0,.58-.47,1.06-1.06,1.06Z"/>
        <path class="cls-2" d="M23.27,47.03c-.58,0-1.06-.47-1.06-1.06v-8.74c0-.58.47-1.06,1.06-1.06s1.06.47,1.06,1.06v8.74c0,.58-.47,1.06-1.06,1.06Z"/>
      </g>
      <g>
        <path class="cls-2" d="M39.45,47.03c-.58,0-1.06-.47-1.06-1.06v-8.74c0-.58.47-1.06,1.06-1.06s1.06.47,1.06,1.06v8.74c0,.58-.47,1.06-1.06,1.06Z"/>
        <path class="cls-2" d="M44.5,47.03c-.58,0-1.06-.47-1.06-1.06v-8.74c0-.58.47-1.06,1.06-1.06s1.06.47,1.06,1.06v8.74c0,.58-.47,1.06-1.06,1.06Z"/>
        <path class="cls-2" d="M49.56,47.03c-.58,0-1.06-.47-1.06-1.06v-8.74c0-.58.47-1.06,1.06-1.06s1.06.47,1.06,1.06v8.74c0,.58-.47,1.06-1.06,1.06Z"/>
      </g>
      <g>
        <path class="cls-2" d="M13.16,21c-.58,0-1.06-.47-1.06-1.06v-8.74c0-.58.47-1.06,1.06-1.06s1.06.47,1.06,1.06v8.74c0,.59-.47,1.06-1.06,1.06Z"/>
        <path class="cls-2" d="M18.21,21c-.58,0-1.06-.47-1.06-1.06v-8.74c0-.58.47-1.06,1.06-1.06s1.06.47,1.06,1.06v8.74c0,.59-.47,1.06-1.06,1.06Z"/>
        <path class="cls-2" d="M23.27,21c-.58,0-1.06-.47-1.06-1.06v-8.74c0-.58.47-1.06,1.06-1.06s1.06.47,1.06,1.06v8.74c0,.59-.47,1.06-1.06,1.06Z"/>
      </g>
      <g>
        <path class="cls-1" d="M39.9,12.16c.23-.11.33-.39.22-.63-.1-.21-.35-.32-.58-.24l-1.52.62c.21.24.33.55.33.88l1.55-.63Z"/>
        <path class="cls-1" d="M55.12,24.39l-9.42-16.85c-.39-.69-1.27-.94-1.97-.56-.23.13-.42.32-.56.56l-4.44,7.94h-1.45c-.14-.03-.32-.21-.32-.33v-.82h.02c.16-.07.3-.16.43-.27.11-.1.21-.23.28-.36.01-.02.02-.04.03-.06.02-.04.03-.08.05-.12.19-.52.05-1.1-.36-1.47-.05-.05-.1-.08-.15-.12-.02-.01-.03-.02-.06-.03-.34-.21-.77-.25-1.15-.12l-.04.02c-.08.03-.15.07-.22.11-.02.01-.04.02-.06.03-.03.02-.06.04-.08.06-.07.06-.15.13-.21.2-.01.02-.03.03-.04.05-.03.03-.05.07-.07.11-.03.06-.06.11-.09.18-.02.04-.03.08-.05.12-.04.13-.06.27-.06.41v.05l-3.72,1.52c-.24.1-.36.37-.26.61.07.18.24.29.43.29.06,0,.12-.01.18-.03l3.72-1.52c.15.16.33.29.54.36v.81c0,.11.02.23.05.33h-1.07c-.62,0-1.12.5-1.12,1.12v6.27c0,.28.1.55.29.75l-.43.77c-.39.69-.14,1.58.56,1.97.21.12.46.18.71.18h18.84c.8,0,1.45-.65,1.45-1.45,0-.24-.06-.49-.18-.7ZM44.29,8.16c.05-.08.15-.11.23-.07.03.02.05.04.07.07l2.15,3.85-1.16,1.6-1.37-1.62-.03-.04c-.29-.29-.73-.35-1.08-.15l-1.23.69,2.42-4.34ZM35.9,13.05c0-.33.27-.6.6-.6s.6.27.6.6-.27.6-.6.6-.6-.27-.6-.6h0ZM36.19,16.55h4.52c.2,0,.37.15.37.35s-.15.37-.35.37h-4.54c-.2,0-.37-.15-.37-.35s.15-.37.35-.37h.02ZM37.66,20.09c-.2,0-.37-.15-.37-.35s.15-.37.35-.37h6.19c.2,0,.36.18.35.37,0,.19-.16.34-.35.35h-6.17ZM42.41,22.54c0,.2-.16.36-.36.36h-4.39c-.2,0-.36-.16-.36-.36s.16-.36.36-.36h4.39c.2,0,.37.16.37.36h0ZM43.83,18.68h-6.17c-.2,0-.36-.16-.36-.36s.16-.36.36-.36h6.17c.2,0,.36.16.36.36s-.16.36-.36.36ZM36.19,20.77h4.52c.2,0,.37.15.37.35s-.15.37-.35.37h-4.54c-.2,0-.37-.15-.37-.35s.15-.37.35-.37h.02ZM53.86,25.26h-18.84c-.1,0-.17-.07-.17-.17,0-.03,0-.06.02-.08l.58-1.03h8.99c.62,0,1.12-.5,1.12-1.12v-6.27c0-.62-.5-1.12-1.12-1.12h-4.23l.38-.69,2.85-1.6,1.51,1.78.03.04c.17.17.4.27.64.27h.07c.26-.02.5-.15.66-.37l1.14-1.58,6.53,11.69c.05.08.02.19-.07.23-.02,0-.05.02-.07.02h0Z"/>
      </g>
    </g>
  </g>
</svg>