<?xml version="1.0" encoding="UTF-8"?>
<svg id="Expanded_Icons" data-name="Expanded Icons" xmlns="http://www.w3.org/2000/svg" viewBox="0 0 64 64">
  <defs>
    <style>
      .cls-1 {
        fill: #29b5e8;
        stroke-width: 0px;
      }
    </style>
  </defs>
  <path class="cls-1" d="M53.46,4.43h-24.63c-.57,0-1.11.24-1.49.67l-4.85,5.41h-1.81c-.59,0-1.15.26-1.53.71l-10.13,11.97c-.3.36-.47.82-.47,1.29v33.07c0,1.1.9,2,2,2h36.47c1.1,0,2-.9,2-2v-2.29h4.44c1.1,0,2-.9,2-2V6.43c0-1.1-.9-2-2-2ZM19.28,17.27v6.12h-5.17l5.17-6.12ZM45.02,55.56H12.55v-28.18h8.73c1.1,0,2-.9,2-2v-10.87h21.74v41.05ZM51.46,51.27h-2.44V12.51c0-1.1-.9-2-2-2h-19.16l1.86-2.08h21.73v42.84Z"/>
</svg>