<?xml version="1.0" encoding="UTF-8"?>
<svg id="Expanded_Icons" data-name="Expanded Icons" xmlns="http://www.w3.org/2000/svg" viewBox="0 0 64 64">
  <defs>
    <style>
      .cls-1 {
        fill: #29b5e8;
        fill-rule: evenodd;
      }

      .cls-1, .cls-2, .cls-3 {
        stroke-width: 0px;
      }

      .cls-2 {
        fill: #11567f;
      }

      .cls-3 {
        fill: #fff;
      }
    </style>
  </defs>
  <path class="cls-1" d="M13.81,7.19c.5-.15,1.04-.23,1.6-.23h2.17c.33,0,.59-.27.59-.59v-1.78c0-.33-.27-.59-.59-.59h-2.17c-.95,0-1.87.16-2.73.44-.31.1-.45.45-.33.76l.68,1.64c.13.3.47.44.79.35ZM28.64,6.96c.33,0,.59-.27.59-.59v-1.78c0-.33-.27-.59-.59-.59h-4.35c-.33,0-.59.27-.59.59v1.78c0,.33.27.59.59.59h4.35ZM39.7,6.96c.33,0,.59-.27.59-.59v-1.78c0-.33-.27-.59-.59-.59h-4.35c-.33,0-.59.27-.59.59v1.78c0,.33.27.59.59.59h4.35ZM46.42,6.96h2.17c.56,0,1.09.08,1.6.23.31.09.66-.05.79-.35l.68-1.64c.13-.3-.02-.65-.33-.76-.86-.29-1.78-.44-2.73-.44h-2.17c-.33,0-.59.27-.59.59v1.78c0,.33.27.59.59.59ZM10.01,11c.09-.31-.05-.66-.35-.79l-1.64-.68c-.3-.13-.65.02-.76.33-.29.86-.44,1.78-.44,2.73v2.12c0,.33.27.59.59.59h1.78c.33,0,.59-.27.59-.59v-2.12c0-.56.08-1.09.23-1.6ZM53.99,11c.15.5.23,1.04.23,1.6v2.12c0,.33.27.59.59.59h1.78c.33,0,.59-.27.59-.59v-2.12c0-.95-.16-1.87-.44-2.73-.1-.31-.45-.45-.76-.33l-1.64.68c-.3.13-.44.47-.35.79ZM9.78,21.33c0-.33-.27-.59-.59-.59h-1.78c-.33,0-.59.27-.59.59v4.25c0,.33.27.59.59.59h1.78c.33,0,.59-.27.59-.59v-4.25ZM54.22,25.58c0,.33.27.59.59.59h1.78c.33,0,.59-.27.59-.59v-4.25c0-.33-.27-.59-.59-.59h-1.78c-.33,0-.59.27-.59.59v4.25ZM9.78,32.2c0-.33-.27-.59-.59-.59h-1.78c-.33,0-.59.27-.59.59v4.25c0,.33.27.59.59.59h1.78c.33,0,.59-.27.59-.59v-4.25ZM54.22,36.44c0,.33.27.59.59.59h1.78c.33,0,.59-.27.59-.59v-4.25c0-.33-.27-.59-.59-.59h-1.78c-.33,0-.59.27-.59.59v4.25ZM9.78,43.06c0-.33-.27-.59-.59-.59h-1.78c-.33,0-.59.27-.59.59v2.12c0,.95.16,1.87.44,2.73.1.31.45.45.76.33l1.64-.68c.3-.13.44-.47.35-.79-.15-.5-.23-1.04-.23-1.6v-2.12ZM54.22,43.06v2.12c0,.56-.08,1.09-.23,1.6-.09.31.05.66.35.79l1.64.68c.3.13.65-.02.76-.33.29-.86.44-1.78.44-2.73v-2.12c0-.33-.27-.59-.59-.59h-1.78c-.33,0-.59.27-.59.59ZM13.81,50.59c-.31-.09-.66.05-.79.35l-.68,1.64c-.13.3.02.65.33.76.86.29,1.78.44,2.73.44h2.17c.33,0,.59-.27.59-.59v-1.78c0-.33-.27-.59-.59-.59h-2.17c-.56,0-1.09-.08-1.6-.23ZM50.19,50.59c-.5.15-1.04.23-1.6.23h-2.17c-.33,0-.59.27-.59.59v1.78c0,.33.27.59.59.59h2.17c.95,0,1.87-.16,2.73-.44.31-.1.45-.45.33-.76l-.68-1.64c-.13-.3-.47-.44-.79-.35ZM24.3,50.81c-.33,0-.59.27-.59.59v1.78c0,.33.27.59.59.59h4.35c.33,0,.59-.27.59-.59v-1.78c0-.33-.27-.59-.59-.59h-4.35ZM35.36,50.81c-.33,0-.59.27-.59.59v1.78c0,.33.27.59.59.59h4.35c.33,0,.59-.27.59-.59v-1.78c0-.33-.27-.59-.59-.59h-4.35ZM21.33,12.79c0-.4.35-.89,1.23-1.31.84-.4,2.04-.66,3.38-.66s2.54.26,3.38.66c.87.42,1.23.91,1.23,1.31s-.35.89-1.23,1.31c-.84.4-2.04.66-3.38.66s-2.54-.26-3.38-.66c-.87-.42-1.23-.91-1.23-1.31ZM21.33,14.37c.25.2.54.38.85.52.98.47,2.31.75,3.76.75s2.77-.28,3.76-.75c.31-.15.6-.32.85-.52v6.1c0,1.21-2.06,2.19-4.61,2.19s-4.61-.98-4.61-2.19v-6.1ZM22.56,26.89c-.87.42-1.23.91-1.23,1.31s.35.89,1.23,1.31c.84.4,2.04.66,3.38.66s2.54-.26,3.38-.66c.87-.42,1.23-.91,1.23-1.31s-.35-.89-1.23-1.31c-.84-.4-2.04-.66-3.38-.66s-2.54.26-3.38.66ZM21.33,29.78c.25.2.54.38.85.52.98.47,2.31.75,3.76.75s2.77-.28,3.76-.75c.31-.15.6-.32.85-.52v6.1c0,1.21-2.06,2.19-4.61,2.19s-4.61-.98-4.61-2.19v-6.1ZM35.34,11.48c-.87.42-1.23.91-1.23,1.31s.35.89,1.23,1.31c.84.4,2.04.66,3.38.66s2.54-.26,3.38-.66c.87-.42,1.23-.91,1.23-1.31s-.35-.89-1.23-1.31c-.84-.4-2.04-.66-3.38-.66s-2.54.26-3.38.66ZM34.11,14.37c.25.2.54.38.85.52.98.47,2.31.75,3.76.75s2.77-.28,3.76-.75c.31-.15.6-.32.85-.52v6.1c0,1.21-2.06,2.19-4.61,2.19s-4.61-.98-4.61-2.19v-6.1ZM35.34,26.89c-.87.42-1.23.91-1.23,1.31s.35.89,1.23,1.31c.84.4,2.04.66,3.38.66s2.54-.26,3.38-.66c.87-.42,1.23-.91,1.23-1.31s-.35-.89-1.23-1.31c-.84-.4-2.04-.66-3.38-.66s-2.54.26-3.38.66ZM34.11,29.78c.25.2.54.38.85.52.98.47,2.31.75,3.76.75s2.77-.28,3.76-.75c.31-.15.6-.32.85-.52v6.1c0,1.21-2.06,2.19-4.61,2.19s-4.61-.98-4.61-2.19v-6.1Z"/>
  <rect class="cls-2" x="11.85" y="42.22" width="40.89" height="17.78" rx="4.15" ry="4.15"/>
  <path class="cls-3" d="M25.38,49.93h-1.68v-4.74h1.69c.48,0,.89.09,1.23.28.34.19.61.46.79.81.19.35.28.78.28,1.27s-.09.92-.28,1.27c-.19.35-.45.63-.8.82-.35.19-.76.28-1.24.28ZM24.7,49.07h.64c.3,0,.55-.05.75-.16.2-.11.36-.27.46-.49.1-.22.16-.51.16-.87s-.05-.64-.16-.86c-.1-.22-.25-.39-.46-.49-.2-.1-.45-.16-.75-.16h-.64v3.02Z"/>
  <path class="cls-3" d="M28.99,49.93h-1.07l1.64-4.74h1.29l1.63,4.74h-1.07l-1.19-3.66h-.04l-1.19,3.66ZM28.93,48.06h2.54v.78h-2.54v-.78Z"/>
  <path class="cls-3" d="M32.29,46.01v-.83h3.89v.83h-1.45v3.91h-.99v-3.91h-1.45Z"/>
  <path class="cls-3" d="M37.06,49.93h-1.07l1.64-4.74h1.29l1.63,4.74h-1.07l-1.19-3.66h-.04l-1.19,3.66ZM37,48.06h2.54v.78h-2.54v-.78Z"/>
  <path class="cls-3" d="M20.64,53.66c-.02-.19-.1-.33-.24-.44-.14-.1-.33-.16-.57-.16-.16,0-.3.02-.41.07-.11.04-.2.11-.26.19-.06.08-.09.17-.09.27,0,.08.01.16.05.22.04.06.09.12.16.16.07.04.15.08.24.12.09.03.19.06.29.08l.43.1c.21.05.4.11.57.19.17.08.32.17.45.28.13.11.22.25.29.4.07.15.11.33.11.53,0,.29-.08.54-.22.75-.15.21-.35.38-.63.49-.27.12-.6.17-.99.17s-.72-.06-1-.18c-.28-.12-.5-.29-.66-.52-.16-.23-.24-.52-.25-.86h.97c.01.16.06.29.14.4.08.1.19.18.33.24.14.05.29.08.47.08s.32-.02.44-.07c.13-.05.22-.12.29-.21.07-.09.1-.19.1-.3,0-.11-.03-.2-.09-.27-.06-.07-.15-.13-.27-.19-.12-.05-.26-.1-.44-.14l-.52-.13c-.4-.1-.72-.25-.95-.46-.23-.21-.35-.49-.34-.84,0-.29.07-.54.23-.75.16-.21.37-.38.64-.5.27-.12.58-.18.93-.18s.66.06.92.18c.26.12.47.29.62.5.15.21.22.46.23.75h-.96Z"/>
  <path class="cls-3" d="M26.53,53.96h-1.01c-.02-.13-.06-.25-.11-.35-.06-.1-.13-.19-.22-.26s-.19-.13-.31-.17c-.12-.04-.24-.06-.38-.06-.25,0-.46.06-.64.18-.18.12-.32.3-.42.53-.1.23-.15.51-.15.84s.05.62.15.85c.1.23.24.4.43.52s.39.18.63.18c.13,0,.26-.02.37-.05.12-.04.22-.09.31-.16.09-.07.16-.15.22-.25.06-.1.1-.21.12-.34h1.01c-.03.22-.09.43-.2.63-.1.2-.24.38-.42.54-.17.16-.38.28-.63.37-.24.09-.51.14-.82.14-.42,0-.8-.1-1.13-.29-.33-.19-.59-.47-.79-.83-.19-.36-.29-.8-.29-1.32s.1-.96.29-1.32c.19-.36.46-.64.79-.83.33-.19.71-.29,1.13-.29.27,0,.53.04.76.12.24.08.45.19.63.34.18.15.33.33.44.54.12.21.19.46.22.73Z"/>
  <path class="cls-3" d="M28.25,52.3v4.74h-1v-4.74h1Z"/>
  <path class="cls-3" d="M29.07,57.04v-4.74h3.19v.83h-2.19v1.13h2.03v.83h-2.03v1.13h2.2v.83h-3.2Z"/>
  <path class="cls-3" d="M37.03,52.3v4.74h-.87l-2.06-2.98h-.03v2.98h-1v-4.74h.88l2.05,2.98h.04v-2.98h1Z"/>
  <path class="cls-3" d="M42.04,53.96h-1.01c-.02-.13-.06-.25-.11-.35-.06-.1-.13-.19-.22-.26-.09-.07-.19-.13-.31-.17-.12-.04-.24-.06-.38-.06-.25,0-.46.06-.64.18-.18.12-.32.3-.42.53-.1.23-.15.51-.15.84s.05.62.15.85c.1.23.24.4.43.52.18.12.39.18.63.18.13,0,.26-.02.37-.05.12-.04.22-.09.31-.16.09-.07.16-.15.22-.25.06-.1.1-.21.12-.34h1.01c-.03.22-.09.43-.2.63-.1.2-.24.38-.42.54-.17.16-.38.28-.63.37-.24.09-.51.14-.82.14-.42,0-.8-.1-1.13-.29-.33-.19-.59-.47-.79-.83-.19-.36-.29-.8-.29-1.32s.1-.96.29-1.32c.19-.36.46-.64.79-.83.33-.19.71-.29,1.12-.29.27,0,.53.04.76.12.24.08.45.19.63.34.18.15.33.33.44.54.12.21.19.46.22.73Z"/>
  <path class="cls-3" d="M42.76,57.04v-4.74h3.19v.83h-2.19v1.13h2.03v.83h-2.03v1.13h2.2v.83h-3.2Z"/>
</svg>