<?xml version="1.0" encoding="UTF-8"?>
<svg id="Expanded_Icons" data-name="Expanded Icons" xmlns="http://www.w3.org/2000/svg" viewBox="0 0 64 64">
  <defs>
    <style>
      .cls-1 {
        fill: #29b5e8;
        stroke-width: 0px;
      }
    </style>
  </defs>
  <path class="cls-1" d="M12.33,17.29c.7,0,1.27-.57,1.27-1.27s-.56-1.27-1.27-1.27-1.27.57-1.27,1.27.57,1.27,1.27,1.27Z"/>
  <path class="cls-1" d="M17.39,17.29c.7,0,1.27-.57,1.27-1.27s-.56-1.27-1.27-1.27-1.27.57-1.27,1.27.57,1.27,1.27,1.27Z"/>
  <path class="cls-1" d="M22.46,17.29c.7,0,1.27-.57,1.27-1.27s-.56-1.27-1.27-1.27-1.27.57-1.27,1.27.57,1.27,1.27,1.27Z"/>
  <path class="cls-1" d="M57.46,8.98H6.53c-1.1,0-2,.9-2,2v41.97c0,1.1.9,2,2,2h50.92c1.1,0,2-.9,2-2V10.98c0-1.1-.9-2-2-2ZM55.46,12.98v6.26H8.53v-6.26h46.92ZM8.53,50.95v-29.21h46.92v29.21H8.53Z"/>
  <path class="cls-1" d="M45.9,35.06l-7.47-4.15c-.6-.34-1.37-.12-1.7.49-.33.6-.12,1.36.49,1.7l5.55,3.08-5.57,3.23c-.6.35-.8,1.11-.45,1.71.23.4.65.62,1.08.62.21,0,.43-.05.63-.17l7.47-4.33c.39-.23.63-.64.62-1.09,0-.45-.25-.86-.64-1.08Z"/>
  <path class="cls-1" d="M26.84,39.4l-5.55-3.08,5.57-3.23c.6-.35.8-1.11.45-1.71-.35-.6-1.11-.8-1.71-.45l-7.47,4.33c-.39.23-.63.64-.62,1.09,0,.45.25.86.64,1.08l7.47,4.15c.19.11.4.16.61.16.44,0,.87-.23,1.09-.64.33-.6.12-1.36-.49-1.7Z"/>
  <path class="cls-1" d="M33.78,28.71c-.67-.15-1.34.26-1.5.94l-2.94,12.65c-.16.67.26,1.34.94,1.5.09.02.19.03.28.03.57,0,1.08-.39,1.22-.97l2.94-12.65c.16-.67-.26-1.34-.94-1.5Z"/>
</svg>