<?xml version="1.0" encoding="UTF-8"?>
<svg id="Expanded_Icons" data-name="Expanded Icons" xmlns="http://www.w3.org/2000/svg" viewBox="0 0 64 64">
  <defs>
    <style>
      .cls-1 {
        fill: #29b5e8;
      }

      .cls-1, .cls-2, .cls-3 {
        stroke-width: 0px;
      }

      .cls-2 {
        fill: #11567f;
      }

      .cls-3 {
        fill: #fff;
      }
    </style>
  </defs>
  <path class="cls-1" d="M24.84,9.74c.33-3.26,3.06-5.74,6.33-5.74h.33c3.19,0,5.79,2.48,6.02,5.6.02.32-.25.58-.57.57l-1.9-.04c-.32,0-.57-.28-.63-.59-.24-1.4-1.46-2.46-2.93-2.46h-.33c-1.69,0-3.11,1.29-3.28,2.97l-.56,5.61c-.03.34.24.64.58.64h5.36c2.17,0,4.25.93,5.7,2.55l3.22,3.59c.22.25.61.26.85.02l5.28-5.29c.23-.23.6-.23.83,0l1.35,1.35c.23.23.23.6,0,.82l-5.44,5.45c-.22.22-.23.57-.02.8l5.53,6.16c.21.24.2.61-.04.82l-1.41,1.28c-.24.22-.61.2-.82-.04l-5.38-5.99c-.22-.25-.61-.26-.85-.02l-6.08,6.09c-.23.23-.6.23-.83,0l-1.35-1.35c-.23-.23-.23-.6,0-.82l6.24-6.26c.22-.22.23-.57.02-.8l-3.37-3.76c-.87-.97-2.12-1.53-3.42-1.53h-5.78c-.3,0-.55.23-.58.53l-1.22,12.21c-.32,3.25-3.05,5.72-6.31,5.72h-.2c-3.19,0-5.82-2.44-6.11-5.57-.03-.32.23-.58.56-.58h1.9c.32,0,.58.26.64.58.27,1.42,1.52,2.5,3.01,2.5h.2c1.68,0,3.09-1.28,3.26-2.95l1.18-11.78c.03-.34-.24-.64-.58-.64h-3.52c-.32,0-.58-.26-.58-.58v-1.91c0-.32.26-.58.58-.58h3.94c.3,0,.55-.23.58-.53l.6-6.03Z"/>
  <rect class="cls-2" x="7.21" y="42.5" width="49.58" height="17.5" rx="4.08" ry="4.08"/>
  <path class="cls-3" d="M12.73,45.84h.9v2.76c0,.31-.07.58-.22.81-.15.23-.35.41-.62.54-.26.13-.57.19-.92.19s-.66-.06-.92-.19c-.26-.13-.47-.31-.62-.54-.15-.23-.22-.5-.22-.81v-2.76h.9v2.68c0,.16.04.31.11.43.07.13.17.22.3.3.13.07.28.11.45.11s.33-.04.45-.11c.13-.07.23-.17.3-.3.07-.13.11-.27.11-.43v-2.68Z"/>
  <path class="cls-3" d="M16.84,47.06c-.02-.17-.09-.3-.21-.39-.13-.09-.3-.14-.51-.14-.15,0-.27.02-.37.06-.1.04-.18.1-.23.17-.05.07-.08.15-.08.24,0,.08.01.14.05.2.04.06.08.11.15.15.06.04.13.08.22.11.08.03.17.05.26.07l.38.09c.19.04.35.1.51.17.15.07.29.15.4.25.11.1.2.22.26.36.06.14.1.29.1.47,0,.26-.07.48-.2.68-.13.19-.32.34-.56.44-.24.1-.54.16-.88.16s-.64-.05-.89-.16c-.25-.1-.45-.26-.59-.47-.14-.21-.21-.46-.22-.77h.87c0,.14.05.26.12.36.07.09.17.17.29.21.12.05.26.07.42.07s.28-.02.4-.07c.11-.04.2-.11.26-.18.06-.08.09-.17.09-.27,0-.1-.03-.18-.08-.24-.06-.06-.14-.12-.24-.17-.11-.05-.24-.09-.39-.12l-.46-.12c-.36-.09-.64-.22-.85-.41-.21-.19-.31-.43-.31-.75,0-.26.07-.48.21-.67.14-.19.33-.34.57-.45.24-.11.52-.16.83-.16s.59.05.82.16c.24.11.42.26.55.45.13.19.2.41.2.67h-.86Z"/>
  <path class="cls-3" d="M18.54,50.08v-4.24h2.86v.74h-1.96v1.01h1.81v.74h-1.81v1.01h1.97v.74h-2.87Z"/>
  <path class="cls-3" d="M22.28,50.08v-4.24h1.67c.32,0,.59.06.82.17.23.11.4.27.52.48.12.21.18.45.18.73s-.06.52-.18.73c-.12.2-.3.36-.53.46-.23.11-.51.16-.83.16h-1.12v-.72h.98c.17,0,.31-.02.43-.07.11-.05.2-.12.25-.21.06-.09.08-.21.08-.35s-.03-.26-.08-.36c-.06-.1-.14-.17-.25-.22-.11-.05-.26-.08-.43-.08h-.6v3.51h-.9ZM24.57,48.15l1.05,1.93h-.99l-1.03-1.93h.97Z"/>
  <path class="cls-3" d="M28.25,47.61v.7h-1.93v-.7h1.93Z"/>
  <path class="cls-3" d="M30.7,50.08h-1.5v-4.24h1.52c.43,0,.79.08,1.1.25.31.17.54.41.71.73.17.32.25.69.25,1.14s-.08.82-.25,1.14c-.17.32-.4.56-.71.73-.31.17-.68.25-1.11.25ZM30.09,49.31h.57c.27,0,.49-.05.67-.14.18-.1.32-.24.41-.44.09-.2.14-.46.14-.77s-.05-.57-.14-.77c-.09-.2-.23-.35-.41-.44-.18-.09-.4-.14-.67-.14h-.57v2.71Z"/>
  <path class="cls-3" d="M33.61,50.08v-4.24h2.86v.74h-1.96v1.01h1.81v.74h-1.81v1.01h1.97v.74h-2.87Z"/>
  <path class="cls-3" d="M37.36,50.08v-4.24h2.81v.74h-1.91v1.01h1.73v.74h-1.73v1.75h-.9Z"/>
  <path class="cls-3" d="M41.84,45.84v4.24h-.9v-4.24h.9Z"/>
  <path class="cls-3" d="M46.31,45.84v4.24h-.77l-1.85-2.67h-.03v2.67h-.9v-4.24h.79l1.83,2.67h.04v-2.67h.89Z"/>
  <path class="cls-3" d="M47.22,50.08v-4.24h2.86v.74h-1.96v1.01h1.81v.74h-1.81v1.01h1.97v.74h-2.87Z"/>
  <path class="cls-3" d="M52.47,50.08h-1.5v-4.24h1.52c.43,0,.79.08,1.1.25.31.17.54.41.71.73.17.32.25.69.25,1.14s-.08.82-.25,1.14c-.17.32-.4.56-.71.73-.31.17-.68.25-1.11.25ZM51.87,49.31h.57c.27,0,.49-.05.67-.14.18-.1.32-.24.41-.44.09-.2.14-.46.14-.77s-.05-.57-.14-.77c-.09-.2-.23-.35-.41-.44-.18-.09-.4-.14-.67-.14h-.57v2.71Z"/>
  <path class="cls-3" d="M28.94,53.48c-.02-.17-.09-.3-.21-.39-.13-.09-.3-.14-.51-.14-.15,0-.27.02-.37.06-.1.04-.18.1-.23.17-.05.07-.08.15-.08.24,0,.08.01.14.05.2.04.06.08.11.15.15.06.04.13.08.22.11.08.03.17.05.26.07l.38.09c.19.04.35.1.51.17.15.07.29.15.4.25.11.1.2.22.26.36.06.14.1.29.1.47,0,.26-.07.48-.2.68-.13.19-.32.34-.56.44-.24.1-.54.16-.88.16s-.64-.05-.89-.16c-.25-.1-.45-.26-.59-.47-.14-.21-.21-.46-.22-.77h.87c0,.14.05.26.12.36.07.09.17.17.29.21.12.05.26.07.42.07s.28-.02.4-.07c.11-.04.2-.11.26-.18.06-.08.09-.17.09-.27,0-.1-.03-.18-.08-.24-.06-.06-.14-.12-.24-.17-.11-.05-.24-.09-.39-.12l-.46-.12c-.36-.09-.64-.22-.85-.41-.21-.19-.31-.43-.31-.75,0-.26.07-.48.21-.67.14-.19.33-.34.57-.45.24-.11.52-.16.83-.16s.59.05.82.16c.24.11.42.26.55.45.13.19.2.41.2.67h-.86Z"/>
  <path class="cls-3" d="M32.24,55.03h.76l.38.49.38.44.71.89h-.84l-.49-.6-.25-.36-.66-.87ZM34.53,54.38c0,.46-.09.86-.26,1.18-.17.32-.41.57-.71.74-.3.17-.64.25-1.01.25s-.72-.09-1.02-.26c-.3-.17-.54-.42-.71-.74-.17-.32-.26-.72-.26-1.18s.09-.86.26-1.18c.17-.32.41-.57.71-.74.3-.17.64-.26,1.02-.26s.71.09,1.01.26c.3.17.54.42.71.74.18.32.26.72.26,1.18ZM33.62,54.38c0-.3-.04-.55-.13-.76-.09-.21-.21-.36-.37-.47-.16-.11-.35-.16-.57-.16s-.41.05-.57.16c-.16.11-.29.26-.38.47-.09.21-.13.46-.13.76s.04.55.13.76c.09.21.22.36.38.47.16.11.35.16.57.16s.41-.05.57-.16c.16-.11.29-.26.37-.47.09-.21.13-.46.13-.76Z"/>
  <path class="cls-3" d="M35.37,56.5v-4.24h.9v3.5h1.82v.74h-2.72Z"/>
</svg>