<?xml version="1.0" encoding="UTF-8"?>
<svg id="Expanded_Icons" data-name="Expanded Icons" xmlns="http://www.w3.org/2000/svg" viewBox="0 0 64 64">
  <defs>
    <style>
      .cls-1 {
        fill: #29b5e8;
        stroke-width: 0px;
      }
    </style>
  </defs>
  <path class="cls-1" d="M43.06,19.87h-25.62c-.76,0-1.38.62-1.38,1.38v18.99c0,.76.62,1.38,1.38,1.38s1.38-.62,1.38-1.38v-17.61h24.24c.76,0,1.38-.62,1.38-1.38s-.62-1.38-1.38-1.38Z"/>
  <path class="cls-1" d="M58.48,44.36h-3.98v-26.93c0-2.03-1.65-3.68-3.68-3.68H13.08c-2.03,0-3.68,1.65-3.68,3.68v26.93h-3.98c-.69,0-1.25.56-1.25,1.25v.38c0,2.61,1.85,4.57,4.31,4.57h46.41c2.58,0,4.84-2.14,4.84-4.57v-.38c0-.69-.56-1.25-1.25-1.25ZM8.48,48.07c-.88,0-1.42-.54-1.66-1.21h17.4v1.06s0,.1,0,.15h-15.75ZM37.18,45.61v1.06h-10.45v-1.06c0-.69-.56-1.25-1.25-1.25h-12.08v-26.61h37.1v26.61h-12.08c-.69,0-1.25.56-1.25,1.25ZM54.89,48.07h-15.22s0-.1,0-.15v-1.06h17.3c-.4.69-1.23,1.21-2.09,1.21Z"/>
</svg>