<?xml version="1.0" encoding="UTF-8"?>
<svg id="Expanded_Icons" data-name="Expanded Icons" xmlns="http://www.w3.org/2000/svg" viewBox="0 0 64 64">
  <defs>
    <style>
      .cls-1 {
        fill: #29b5e8;
        stroke-width: 0px;
      }
    </style>
  </defs>
  <path class="cls-1" d="M50.13,35.47H13.89c-.69,0-1.25.56-1.25,1.25s.56,1.25,1.25,1.25h36.25c.69,0,1.25-.56,1.25-1.25s-.56-1.25-1.25-1.25Z"/>
  <path class="cls-1" d="M50.13,39.63H13.89c-.69,0-1.25.56-1.25,1.25s.56,1.25,1.25,1.25h36.25c.69,0,1.25-.56,1.25-1.25s-.56-1.25-1.25-1.25Z"/>
  <path class="cls-1" d="M50.13,43.8H13.89c-.69,0-1.25.56-1.25,1.25s.56,1.25,1.25,1.25h36.25c.69,0,1.25-.56,1.25-1.25s-.56-1.25-1.25-1.25Z"/>
  <path class="cls-1" d="M50.13,31.3h-16.36c-.69,0-1.25.56-1.25,1.25s.56,1.25,1.25,1.25h16.36c.69,0,1.25-.56,1.25-1.25s-.56-1.25-1.25-1.25Z"/>
  <circle class="cls-1" cx="12.28" cy="16" r="1.27"/>
  <path class="cls-1" d="M17.36,17.27c.7,0,1.27-.57,1.27-1.27s-.57-1.27-1.27-1.27-1.27.57-1.27,1.27.57,1.27,1.27,1.27Z"/>
  <path class="cls-1" d="M22.44,17.27c.7,0,1.27-.57,1.27-1.27s-.57-1.27-1.27-1.27-1.27.57-1.27,1.27.57,1.27,1.27,1.27Z"/>
  <path class="cls-1" d="M57.56,8.94H6.46c-1.1,0-2,.9-2,2v42.12c0,1.1.9,2,2,2h51.1c1.1,0,2-.9,2-2V10.94c0-1.1-.9-2-2-2ZM55.56,12.94v6.19H8.46v-6.19h47.1ZM8.46,51.06v-29.43h47.1v29.43H8.46Z"/>
  <path class="cls-1" d="M13.67,33.74h16.1c.69,0,1.25-.56,1.25-1.25v-7.23c0-.69-.56-1.25-1.25-1.25H13.67c-.69,0-1.25.56-1.25,1.25v7.23c0,.69.56,1.25,1.25,1.25ZM14.92,26.5h13.6v4.73h-13.6v-4.73Z"/>
</svg>