<?xml version="1.0" encoding="UTF-8"?>
<svg id="Expanded_Icons" data-name="Expanded Icons" xmlns="http://www.w3.org/2000/svg" viewBox="0 0 64 64">
  <defs>
    <style>
      .cls-1 {
        fill: #29b5e8;
        stroke-width: 0px;
      }
    </style>
  </defs>
  <path class="cls-1" d="M25.11,26.95l4.11,2.36c.22.13.47.18.7.16.63-.05,1.12-.57,1.12-1.2v-4.72c0-.66-.54-1.2-1.21-1.2s-1.21.54-1.21,1.2v2.64l-2.3-1.32c-.58-.33-1.32-.14-1.65.44-.33.58-.14,1.31.44,1.65Z"/>
  <path class="cls-1" d="M34.13,29.47c.24.02.48-.03.7-.16l4.11-2.36c.58-.33.78-1.07.44-1.65-.33-.58-1.07-.77-1.65-.44l-2.3,1.32v-2.64c0-.66-.54-1.2-1.21-1.2s-1.21.54-1.21,1.2v4.72c0,.63.49,1.16,1.12,1.2Z"/>
  <path class="cls-1" d="M28.81,32.39c.04-.13.06-.26.06-.39,0-.09-.02-.19-.04-.28-.08-.29-.27-.56-.56-.72l-4.11-2.36c-.58-.33-1.32-.13-1.65.44-.34.58-.14,1.31.44,1.64l2.3,1.32-2.3,1.32c-.58.33-.78,1.07-.44,1.65.33.57,1.07.77,1.65.44l4.11-2.36c.28-.16.47-.41.55-.69Z"/>
  <path class="cls-1" d="M29.92,34.6c-.24-.02-.48.03-.7.16l-4.11,2.36c-.58.33-.78,1.07-.44,1.65.34.57,1.07.77,1.65.44l2.3-1.32v2.64c0,.67.54,1.21,1.21,1.21s1.21-.54,1.21-1.21v-4.72c0-.63-.49-1.16-1.12-1.2Z"/>
  <path class="cls-1" d="M41.56,29.07c-.33-.58-1.07-.77-1.65-.44l-4.11,2.36c-.29.17-.48.43-.56.72-.03.09-.04.19-.04.28,0,.13.01.26.05.39.08.28.27.53.55.69l4.11,2.36c.58.33,1.32.14,1.65-.44.34-.58.14-1.31-.44-1.65l-2.3-1.32,2.3-1.32c.58-.33.78-1.07.44-1.64Z"/>
  <path class="cls-1" d="M38.94,37.12l-4.11-2.36c-.22-.13-.47-.18-.7-.16-.63.04-1.12.57-1.12,1.2v4.72c0,.67.54,1.21,1.21,1.21s1.21-.54,1.21-1.21v-2.64l2.3,1.32c.58.33,1.32.14,1.65-.44.33-.58.14-1.32-.44-1.65Z"/>
  <path class="cls-1" d="M34.29,32.28v-.5c0-.07-.04-.17-.09-.21l-1.71-1.7c-.05-.05-.14-.09-.21-.09h-.5c-.07,0-.16.04-.21.09l-1.71,1.7s-.09.14-.09.21v.5c0,.07.04.16.09.21l1.71,1.7c.05.05.15.09.21.09h.5c.07,0,.17-.04.21-.09l1.71-1.7s.09-.14.09-.21ZM32.84,32.04c0,.07-.04.16-.09.21l-.49.49s-.14.09-.21.09h-.02c-.07,0-.16-.04-.21-.09l-.49-.49s-.09-.14-.09-.21v-.02c0-.07.04-.16.09-.22l.49-.49s.14-.09.21-.09h.02c.07,0,.16.04.21.09l.49.49c.05.05.09.15.09.22v.02Z"/>
  <path class="cls-1" d="M54.52,40.16h0c-1.6-.93-3.56-.65-4.87.51l-2.32-1.44c1.04-2.2,1.64-4.64,1.64-7.23s-.64-5.2-1.75-7.46l2.22-1.38c.8.8,1.88,1.24,2.99,1.24.71,0,1.43-.18,2.09-.56,2-1.16,2.69-3.73,1.54-5.73-1.16-2-3.73-2.69-5.73-1.54,0,0,0,0,0,0-1.56.9-2.31,2.67-2.02,4.35l-2.34,1.45c-2.84-4.1-7.43-6.89-12.69-7.29v-2.7c1.69-.54,2.92-2.11,2.92-3.98,0-2.31-1.88-4.2-4.2-4.2s-4.2,1.88-4.2,4.2c0,1.89,1.26,3.47,2.98,4v2.68c-5.35.38-10.02,3.24-12.86,7.45l-2.27-1.41c.39-1.74-.35-3.61-1.98-4.55,0,0,0,0,0,0-2-1.15-4.58-.47-5.73,1.54-1.16,2-.47,4.58,1.54,5.74.66.38,1.38.56,2.09.56,1.04,0,2.06-.39,2.84-1.11l2.28,1.42c-1.06,2.21-1.67,4.67-1.67,7.28s.57,4.9,1.55,7.05l-2.38,1.48c-1.31-1.05-3.18-1.26-4.72-.37h0c-2,1.16-2.69,3.73-1.54,5.74.78,1.34,2.19,2.1,3.64,2.1.71,0,1.43-.18,2.09-.56,1.71-.99,2.45-3,1.92-4.82l2.19-1.36c2.82,4.32,7.55,7.27,12.99,7.66v2.68c-1.72.53-2.98,2.11-2.98,4,0,2.31,1.88,4.2,4.2,4.2s4.2-1.88,4.2-4.2c0-1.87-1.23-3.43-2.92-3.98v-2.7c5.35-.4,10.01-3.28,12.83-7.5l2.25,1.4c-.42,1.76.31,3.67,1.96,4.62.66.38,1.38.56,2.09.56,1.45,0,2.87-.75,3.64-2.1,1.16-2,.47-4.58-1.54-5.73ZM51.57,18.74c.81-.47,1.85-.19,2.32.62.47.81.19,1.85-.62,2.32-.81.47-1.85.19-2.32-.62s-.19-1.85.62-2.32ZM10.73,21.68c-.81-.47-1.09-1.51-.62-2.32.31-.54.89-.85,1.47-.85.29,0,.58.07.85.23.81.47,1.09,1.51.62,2.32-.47.81-1.51,1.09-2.32.62ZM12.43,45.26c-.81.47-1.85.19-2.32-.62s-.19-1.85.62-2.32c.81-.47,1.85-.19,2.32.62.47.81.19,1.85-.62,2.32ZM32,6.72c.94,0,1.7.76,1.7,1.7s-.76,1.7-1.7,1.7-1.7-.76-1.7-1.7.76-1.7,1.7-1.7ZM32,57.28c-.94,0-1.7-.76-1.7-1.7s.76-1.7,1.7-1.7,1.7.76,1.7,1.7-.76,1.7-1.7,1.7ZM32,46.47c-7.98,0-14.47-6.49-14.47-14.47s6.49-14.47,14.47-14.47,14.47,6.49,14.47,14.47-6.49,14.47-14.47,14.47ZM53.89,44.64c-.47.81-1.51,1.09-2.32.62-.81-.47-1.09-1.51-.62-2.32.31-.54.89-.85,1.47-.85.29,0,.58.07.85.23.81.47,1.09,1.51.62,2.32Z"/>
  <path class="cls-1" d="M12.83,36.89v-9.8c0-.69-.56-1.25-1.25-1.25s-1.25.56-1.25,1.25v9.8c0,.69.56,1.25,1.25,1.25s1.25-.56,1.25-1.25Z"/>
  <path class="cls-1" d="M51.17,27.18v9.7c0,.69.56,1.25,1.25,1.25s1.25-.56,1.25-1.25v-9.7c0-.69-.56-1.25-1.25-1.25s-1.25.56-1.25,1.25Z"/>
  <path class="cls-1" d="M26.6,51.02l-8.42-4.86c-.6-.34-1.36-.14-1.71.46-.35.6-.14,1.36.46,1.71l8.42,4.86c.2.11.41.17.62.17.43,0,.85-.22,1.08-.62.35-.6.14-1.36-.46-1.71Z"/>
  <path class="cls-1" d="M37.44,13l8.4,4.85c.2.11.41.17.62.17.43,0,.85-.22,1.08-.62.35-.6.14-1.36-.46-1.71l-8.4-4.85c-.6-.35-1.36-.14-1.71.46-.35.6-.14,1.36.46,1.71Z"/>
  <path class="cls-1" d="M45.78,46.18l-8.39,4.84c-.6.35-.8,1.11-.46,1.71.23.4.65.62,1.08.62.21,0,.43-.05.62-.17l8.39-4.84c.6-.35.8-1.11.46-1.71-.35-.6-1.11-.8-1.71-.46Z"/>
  <path class="cls-1" d="M17.56,18.01c.21,0,.43-.05.62-.17l8.38-4.84c.6-.34.8-1.11.46-1.71-.34-.6-1.11-.8-1.71-.46l-8.38,4.84c-.6.34-.8,1.11-.46,1.71.23.4.65.62,1.08.62Z"/>
</svg>