<?xml version="1.0" encoding="UTF-8"?>
<svg id="Expanded_Icons" data-name="Expanded Icons" xmlns="http://www.w3.org/2000/svg" viewBox="0 0 64 64">
  <defs>
    <style>
      .cls-1 {
        fill: #29b5e8;
        stroke-width: 0px;
      }
    </style>
  </defs>
  <path class="cls-1" d="M23.95,25.08c0-2.51,1.82-3.54,3.69-3.7l3.47,3.55c.24.25.59.39.92.38.34,0,.67-.16.9-.41l3.18-3.51c2.04.17,3.94,1.33,3.94,3.7v4.42h2.5v-4.42c0-3.6-2.93-6.22-6.97-6.22-.35,0-.69.15-.93.41l-2.68,2.96-2.92-3c-.24-.24-.56-.38-.89-.38-4.01,0-6.7,2.5-6.7,6.22v4.42h2.5v-4.42Z"/>
  <path class="cls-1" d="M54.7,30.84h-5.42v-11.94c0-.42-.21-.81-.56-1.04l-4.14-2.72s0-.05,0-.07c0-1.27-1.04-2.31-2.31-2.31s-2.31,1.04-2.31,2.31,1.04,2.31,2.31,2.31c.31,0,.61-.06.89-.18l3.62,2.38v11.26H9.3c-1.1,0-2,.9-2,2v4.21c0,.72.39,1.39,1.02,1.75l8.54,4.77v14.43c0,1.1.9,2,2,2s2-.9,2-2v-19.94c0-1.1-.9-2-2-2s-2,.9-2,2v.93l-5.57-3.11v-1.03h41.4v1.04l-5.57,3.11v-.93c0-1.1-.9-2-2-2s-2,.9-2,2v19.94c0,1.1.9,2,2,2s2-.9,2-2v-14.43l8.55-4.78c.63-.35,1.02-1.02,1.02-1.75v-4.21c0-1.1-.9-2-2-2Z"/>
  <path class="cls-1" d="M38.97,37.21h-13.94c-.69,0-1.25.56-1.25,1.25v15.69c0,.69.56,1.25,1.25,1.25s1.25-.56,1.25-1.25v-14.44h11.44v14.44c0,.69.56,1.25,1.25,1.25s1.25-.56,1.25-1.25v-15.69c0-.69-.56-1.25-1.25-1.25Z"/>
  <path class="cls-1" d="M32,17.55c3.05,0,5.53-2.51,5.53-5.59v-1.61c0-3.08-2.48-5.59-5.53-5.59s-5.53,2.51-5.53,5.59v1.61c0,3.08,2.48,5.59,5.53,5.59ZM28.97,10.34c0-1.71,1.36-3.09,3.03-3.09s3.03,1.39,3.03,3.09v1.61c0,1.71-1.36,3.09-3.03,3.09s-3.03-1.39-3.03-3.09v-1.61Z"/>
</svg>