<?xml version="1.0" encoding="UTF-8"?>
<svg id="Expanded_Icons" data-name="Expanded Icons" xmlns="http://www.w3.org/2000/svg" viewBox="0 0 64 64">
  <defs>
    <style>
      .cls-1 {
        fill: #29b5e8;
        fill-rule: evenodd;
        stroke-width: 0px;
      }
    </style>
  </defs>
  <g id="Layer_1-2" data-name="Layer 1-2">
    <g id="ICON-Sharing">
      <path class="cls-1" d="M26.98,57.29h4.32c1.02-.03,1.83-.88,1.8-1.91-.03-1.02-.88-1.83-1.91-1.8,0,0-4.13.13-6.43,0-10.56-.37-17.05-3.71-17.05-6.08v-5.25c3.85,2.48,10.18,3.88,16.2,4.15l6.24.34h.1c.99,0,1.8-.77,1.85-1.76.05-1.02-.73-1.89-1.74-1.95l-6.27-.35c-10.56-.46-16.39-3.8-16.39-6v-5.21c4.3,2.8,11.73,4.28,18.88,4.28s14.6-1.48,18.91-4.28v.92c0,1.02.83,1.85,1.85,1.85s1.85-.83,1.85-1.85V15.07c0-6.37-11.64-9.82-22.61-9.82S4.02,8.68,4,15.05v32.44c0,6.24,10.7,9.44,20.65,9.77.68.04,1.5.04,2.34.04h0ZM26.59,8.94c11.53,0,18.88,3.71,18.91,6.12,0,2.48-7.41,6.1-18.91,6.1s-18.88-3.6-18.88-6.1,7.36-6.12,18.88-6.12ZM7.71,20.62c4.3,2.78,11.73,4.26,18.88,4.26s14.6-1.46,18.91-4.26v5.3c0,2.48-7.41,6.1-18.91,6.1s-18.88-3.64-18.88-6.1v-5.3h0Z"/>
      <path class="cls-1" d="M54.55,47.92c-2.99.02-5.4,2.46-5.38,5.45.02,2.99,2.46,5.4,5.45,5.38,2.98-.02,5.39-2.45,5.38-5.43,0-2.98-2.42-5.4-5.4-5.4h-.05ZM54.55,56.15c-1.53,0-2.78-1.24-2.78-2.78s1.24-2.78,2.78-2.78,2.78,1.24,2.78,2.78c-.03,1.52-1.27,2.73-2.78,2.73v.05Z"/>
      <path class="cls-1" d="M54.55,33.65c-2.99.02-5.4,2.46-5.38,5.45.02,2.99,2.46,5.4,5.45,5.38,2.98-.02,5.39-2.45,5.38-5.43,0-2.98-2.42-5.4-5.4-5.4-.02,0-.03,0-.05,0ZM54.55,41.88c-1.53,0-2.78-1.24-2.78-2.78s1.24-2.78,2.78-2.78,2.78,1.24,2.78,2.78c-.03,1.52-1.27,2.73-2.78,2.73v.05Z"/>
      <path class="cls-1" d="M40.28,40.11c-2.99.02-5.4,2.46-5.38,5.45s2.46,5.4,5.45,5.38c2.98-.02,5.39-2.45,5.38-5.43,0-2.98-2.42-5.4-5.4-5.4h-.05ZM40.28,48.34c-1.53,0-2.78-1.24-2.78-2.78s1.24-2.78,2.78-2.78,2.78,1.24,2.78,2.78c-.03,1.52-1.27,2.73-2.78,2.73v.05Z"/>
      <path class="cls-1" d="M51.53,42.3l-6.69,2.93-1.27-2.89,6.69-2.93,1.27,2.89Z"/>
      <path class="cls-1" d="M51.53,49.4l-6.69-2.93-1.27,2.89,6.69,2.93,1.27-2.89Z"/>
    </g>
  </g>
</svg>