<?xml version="1.0" encoding="UTF-8"?>
<svg id="Expanded_Icons" data-name="Expanded Icons" xmlns="http://www.w3.org/2000/svg" viewBox="0 0 64 64">
  <defs>
    <style>
      .cls-1 {
        fill: #29b5e8;
        stroke-width: 0px;
      }
    </style>
  </defs>
  <path class="cls-1" d="M45.93,24.22h-20.67c-.69,0-1.25.56-1.25,1.25s.56,1.25,1.25,1.25h18.85l-3.62,9.44h-13.69l-5.68-14.6c-.19-.48-.65-.8-1.17-.8h-3.89c-.69,0-1.25.56-1.25,1.25v2.1c0,.69.56,1.25,1.25,1.25s1.25-.56,1.25-1.25v-.85h1.78l5.68,14.6c.19.48.65.8,1.17.8h15.4c.52,0,.98-.32,1.17-.8l4.58-11.94c.15-.38.1-.82-.14-1.16s-.62-.54-1.03-.54Z"/>
  <path class="cls-1" d="M29.6,40.01c-1.77,0-3.21,1.44-3.21,3.21s1.44,3.21,3.21,3.21,3.41-1.47,3.41-3.21-1.59-3.21-3.41-3.21ZM29.6,44.93c-.95,0-1.71-.77-1.71-1.71s.77-1.71,1.71-1.71,1.91.77,1.91,1.71-.97,1.71-1.91,1.71Z"/>
  <path class="cls-1" d="M37.89,40.01c-1.77,0-3.21,1.44-3.21,3.21s1.44,3.21,3.21,3.21,3.21-1.44,3.21-3.21-1.44-3.21-3.21-3.21ZM37.89,44.93c-.95,0-1.71-.77-1.71-1.71s.77-1.71,1.71-1.71,1.71.77,1.71,1.71-.77,1.71-1.71,1.71Z"/>
  <path class="cls-1" d="M28.9,33.2c-.41,0-.75.34-.75.75s.34.75.75.75h9.85c.41,0,.75-.34.75-.75s-.34-.75-.75-.75h-9.85Z"/>
  <path class="cls-1" d="M40.44,31.31c0-.41-.34-.75-.75-.75h-11.82c-.41,0-.75.34-.75.75s.34.75.75.75h11.82c.41,0,.75-.34.75-.75Z"/>
  <path class="cls-1" d="M41.5,28.68c0-.41-.34-.75-.75-.75h-13.91c-.41,0-.75.34-.75.75s.34.75.75.75h13.91c.41,0,.75-.34.75-.75Z"/>
  <path class="cls-1" d="M31.95,4.16c-15.3,0-27.75,12.45-27.75,27.75s12.45,27.75,27.75,27.75,27.75-12.45,27.75-27.75S47.25,4.16,31.95,4.16ZM31.95,57.16c-13.92,0-25.25-11.33-25.25-25.25S18.03,6.66,31.95,6.66s25.25,11.33,25.25,25.25-11.33,25.25-25.25,25.25Z"/>
</svg>