<?xml version="1.0" encoding="UTF-8"?>
<svg id="Expanded_Icons" data-name="Expanded Icons" xmlns="http://www.w3.org/2000/svg" viewBox="0 0 64 64">
  <defs>
    <style>
      .cls-1 {
        fill-rule: evenodd;
      }

      .cls-1, .cls-2 {
        fill: #29b5e8;
      }

      .cls-1, .cls-2, .cls-3, .cls-4 {
        stroke-width: 0px;
      }

      .cls-3 {
        fill: #11567f;
      }

      .cls-4 {
        fill: #fff;
      }
    </style>
  </defs>
  <rect class="cls-3" x="9.89" y="43.2" width="44.23" height="16.8" rx="3.92" ry="3.92"/>
  <path class="cls-4" d="M13.24,53.83v-3.96h1.56c.3,0,.55.05.77.16.21.11.37.26.49.45.11.19.17.42.17.68s-.06.49-.17.68c-.11.19-.28.33-.49.43-.21.1-.47.15-.78.15h-1.05v-.67h.91c.16,0,.29-.02.4-.07.11-.04.18-.11.24-.2.05-.09.08-.2.08-.33s-.03-.24-.08-.33c-.05-.09-.13-.16-.24-.21-.11-.05-.24-.07-.4-.07h-.57v3.28h-.84ZM15.39,52.02l.99,1.8h-.93l-.96-1.8h.9Z"/>
  <path class="cls-4" d="M20.63,51.85c0,.43-.08.8-.25,1.1-.16.3-.38.53-.67.69-.28.16-.59.24-.94.24s-.67-.08-.95-.24c-.28-.16-.5-.39-.66-.69-.16-.3-.24-.67-.24-1.1s.08-.8.24-1.1c.16-.3.38-.53.66-.69.28-.16.6-.24.95-.24s.66.08.94.24c.28.16.5.39.67.69.16.3.25.67.25,1.1ZM19.78,51.85c0-.28-.04-.52-.13-.71-.08-.19-.2-.34-.35-.44-.15-.1-.33-.15-.53-.15s-.38.05-.53.15c-.15.1-.27.25-.35.44-.08.19-.12.43-.12.71s.04.52.12.71c.08.19.2.34.35.44.15.1.33.15.53.15s.38-.05.53-.15c.15-.1.27-.25.35-.44.08-.19.13-.43.13-.71Z"/>
  <path class="cls-4" d="M22.15,53.83l-1.13-3.96h.92l.66,2.75h.03l.72-2.75h.78l.72,2.76h.03l.66-2.76h.92l-1.13,3.96h-.82l-.75-2.59h-.03l-.75,2.59h-.82Z"/>
  <path class="cls-4" d="M29.18,53.83h-.9l1.37-3.96h1.08l1.37,3.96h-.9l-.99-3.06h-.03l-.99,3.06ZM29.12,52.27h2.12v.65h-2.12v-.65Z"/>
  <path class="cls-4" d="M36.05,51.25h-.85c-.02-.11-.05-.21-.09-.29-.05-.09-.11-.16-.18-.22-.07-.06-.16-.11-.26-.14-.1-.03-.2-.05-.32-.05-.21,0-.38.05-.54.15-.15.1-.27.25-.35.44-.08.19-.13.43-.13.7s.04.52.13.71c.09.19.2.34.36.44.15.1.33.15.53.15.11,0,.22-.01.31-.04.1-.03.18-.07.26-.13.07-.06.14-.13.19-.21.05-.08.09-.18.1-.28h.85c-.02.19-.08.36-.16.53-.09.17-.2.32-.35.45-.15.13-.32.24-.52.31-.2.08-.43.11-.68.11-.35,0-.67-.08-.95-.24-.28-.16-.5-.39-.66-.69-.16-.3-.24-.67-.24-1.1s.08-.8.24-1.1c.16-.3.38-.53.66-.69.28-.16.59-.24.94-.24.23,0,.44.03.64.1.2.06.37.16.52.28.15.12.28.27.37.45.1.18.16.38.19.61Z"/>
  <path class="cls-4" d="M40.31,51.25h-.85c-.02-.11-.05-.21-.09-.29-.05-.09-.11-.16-.18-.22-.07-.06-.16-.11-.26-.14-.1-.03-.2-.05-.32-.05-.21,0-.38.05-.54.15-.15.1-.27.25-.35.44-.08.19-.13.43-.13.7s.04.52.13.71c.09.19.2.34.36.44.15.1.33.15.53.15.11,0,.22-.01.31-.04.1-.03.18-.07.26-.13.07-.06.14-.13.19-.21.05-.08.09-.18.1-.28h.85c-.02.19-.08.36-.16.53-.09.17-.2.32-.35.45-.15.13-.32.24-.52.31-.2.08-.43.11-.68.11-.35,0-.67-.08-.95-.24-.28-.16-.5-.39-.66-.69-.16-.3-.24-.67-.24-1.1s.08-.8.24-1.1c.16-.3.38-.53.66-.69.28-.16.59-.24.94-.24.23,0,.44.03.64.1.2.06.37.16.52.28.15.12.28.27.37.45.1.18.16.38.19.61Z"/>
  <path class="cls-4" d="M41.07,53.83v-3.96h2.67v.69h-1.83v.94h1.7v.69h-1.7v.95h1.84v.69h-2.68Z"/>
  <path class="cls-4" d="M46.72,51.01c-.02-.16-.08-.28-.2-.36-.12-.09-.28-.13-.48-.13-.14,0-.25.02-.35.06-.09.04-.17.09-.22.16-.05.07-.07.14-.07.23,0,.07.01.13.04.19.03.05.08.1.14.14.06.04.13.07.2.1.08.03.16.05.24.07l.36.09c.17.04.33.09.48.15.14.06.27.14.38.24.11.09.19.21.25.33.06.13.09.27.09.44,0,.24-.06.45-.19.63-.12.18-.3.31-.53.41-.23.1-.5.15-.83.15s-.6-.05-.84-.15c-.24-.1-.42-.24-.55-.44-.13-.19-.2-.43-.21-.72h.81c0,.13.05.24.11.33.07.09.16.15.27.2.11.04.24.07.39.07s.27-.02.37-.06c.11-.04.19-.1.25-.17.06-.07.09-.16.09-.25,0-.09-.03-.16-.08-.22-.05-.06-.13-.11-.23-.15-.1-.04-.22-.08-.37-.12l-.43-.11c-.33-.08-.6-.21-.79-.38-.19-.17-.29-.41-.29-.7,0-.24.06-.45.19-.63.13-.18.31-.32.54-.42.23-.1.49-.15.77-.15s.55.05.77.15c.22.1.39.24.51.42.12.18.19.39.19.62h-.8Z"/>
  <path class="cls-4" d="M50.46,51.01c-.02-.16-.08-.28-.2-.36-.12-.09-.28-.13-.48-.13-.14,0-.25.02-.35.06-.09.04-.17.09-.22.16-.05.07-.07.14-.07.23,0,.07.01.13.04.19.03.05.08.1.14.14.06.04.13.07.2.1.08.03.16.05.24.07l.36.09c.17.04.33.09.48.15.14.06.27.14.38.24.11.09.19.21.25.33.06.13.09.27.09.44,0,.24-.06.45-.19.63-.12.18-.3.31-.53.41-.23.1-.5.15-.83.15s-.6-.05-.84-.15c-.24-.1-.42-.24-.55-.44-.13-.19-.2-.43-.21-.72h.81c0,.13.05.24.11.33.07.09.16.15.27.2.11.04.24.07.39.07s.27-.02.37-.06c.11-.04.19-.1.25-.17.06-.07.09-.16.09-.25,0-.09-.03-.16-.08-.22-.05-.06-.13-.11-.23-.15-.1-.04-.22-.08-.37-.12l-.43-.11c-.33-.08-.6-.21-.79-.38-.19-.17-.29-.41-.29-.7,0-.24.06-.45.19-.63.13-.18.31-.32.54-.42.23-.1.49-.15.77-.15s.55.05.77.15c.22.1.39.24.51.42.12.18.19.39.19.62h-.8Z"/>
  <path class="cls-2" d="M39,14.09c.31,0,.56-.25.56-.56v-1.68c0-.31-.25-.56-.56-.56h-16.24c-.31,0-.56.25-.56.56v1.68c0,.31.25.56.56.56h16.24Z"/>
  <path class="cls-2" d="M39,20.25c.31,0,.56-.25.56-.56v-1.68c0-.31-.25-.56-.56-.56h-16.24c-.31,0-.56.25-.56.56v1.68c0,.31.25.56.56.56h16.24Z"/>
  <path class="cls-2" d="M31.16,25.85c0,.31-.25.56-.56.56h-7.84c-.31,0-.56-.25-.56-.56v-1.68c0-.31.25-.56.56-.56h7.84c.31,0,.56.25.56.56v1.68Z"/>
  <path class="cls-1" d="M46.83,11.67v14.69c.77.38,1.44.59,1.97.59.78,0,1.4.63,1.4,1.41,0,4.57-1.71,7.89-3.59,10.08-.93,1.09-1.91,1.89-2.75,2.44-.42.27-.82.49-1.17.64-.3.13-.73.29-1.16.29s-.86-.16-1.16-.29c-.35-.15-.75-.37-1.17-.64-.1-.06-.2-.13-.31-.21h-16.91c-3.88.02-7.03-3.42-7.03-7.66V11.7c-.01-4.24,3.13-7.68,7.01-7.68h17.85c3.88-.02,7.03,3.42,7.03,7.66ZM43.47,24.06c-.42-.36-.76-.67-.96-.88-.55-.55-1.44-.55-1.98,0-.46.47-1.56,1.45-2.84,2.31-1.34.9-2.6,1.46-3.44,1.46-.37,0-.73.15-.99.41-.26.26-.41.62-.41,1,0,3.84,1.21,6.81,2.71,8.95h-13.59c-1.75.01-3.66-1.63-3.67-4.31V11.7c-.01-2.67,1.9-4.32,3.65-4.32h17.85c1.75-.02,3.66,1.63,3.67,4.3v12.39ZM35.7,29.57c.26,3.17,1.52,5.47,2.86,7.02.75.88,1.53,1.51,2.15,1.91.31.2.57.34.76.42.02,0,.04.02.06.02.02,0,.04-.02.06-.02.19-.08.44-.22.76-.42.62-.4,1.4-1.04,2.15-1.91,1.33-1.55,2.6-3.85,2.86-7.02-1.28-.34-2.54-1.06-3.55-1.73-.86-.58-1.65-1.21-2.27-1.74-.62.54-1.41,1.16-2.27,1.74-1.01.67-2.26,1.39-3.55,1.73Z"/>
</svg>