<?xml version="1.0" encoding="UTF-8"?>
<svg id="Expanded_Icons" data-name="Expanded Icons" xmlns="http://www.w3.org/2000/svg" viewBox="0 0 64 64">
  <defs>
    <style>
      .cls-1 {
        fill: #29b5e8;
        fill-rule: evenodd;
      }

      .cls-1, .cls-2, .cls-3 {
        stroke-width: 0px;
      }

      .cls-2 {
        fill: #11567f;
      }

      .cls-3 {
        fill: #fff;
      }
    </style>
  </defs>
  <path class="cls-1" d="M26.86,6c-5.01,0-9.07,4.06-9.07,9.07v33.86c0,5.01,4.06,9.07,9.07,9.07h21.16c5.01,0,9.07-4.06,9.07-9.07v-25.16c0-2.37-.93-4.64-2.58-6.34l-8.5-8.7c-1.71-1.75-4.05-2.73-6.49-2.73h-12.67ZM21.42,15.07c0-3.01,2.44-5.44,5.44-5.44h12.09v9.98c0,2.67,2.17,4.84,4.84,4.84h9.67v24.49c0,3.01-2.44,5.44-5.44,5.44h-21.16c-3.01,0-5.44-2.44-5.44-5.44V15.07ZM52.59,20.81c-.2-.3-.42-.59-.68-.85l-8.5-8.7c-.26-.26-.54-.5-.84-.7v9.04c0,.67.54,1.21,1.21,1.21h8.8Z"/>
  <rect class="cls-2" x="6.91" y="32" width="30.23" height="18.14" rx="4.23" ry="4.23"/>
  <path class="cls-3" d="M18.32,40.09h-1.32c-.02-.17-.07-.32-.15-.45-.07-.13-.17-.25-.29-.34s-.25-.17-.4-.22c-.15-.05-.31-.08-.49-.08-.32,0-.6.08-.83.24-.24.16-.42.38-.55.69-.13.3-.2.66-.2,1.09s.07.81.2,1.11c.13.3.32.52.55.68s.51.23.82.23c.17,0,.34-.02.48-.07.15-.05.28-.11.4-.2.12-.09.21-.2.29-.33.08-.13.13-.27.16-.44h1.32c-.03.29-.12.56-.26.82-.13.26-.32.49-.54.7-.23.2-.5.37-.81.49-.31.12-.67.18-1.06.18-.55,0-1.04-.12-1.47-.37-.43-.25-.77-.61-1.02-1.08-.25-.47-.37-1.04-.37-1.71s.13-1.24.38-1.71c.25-.47.6-.83,1.03-1.08.43-.25.92-.37,1.46-.37.36,0,.69.05.99.15.31.1.58.25.81.44.24.19.43.42.58.7.15.28.25.59.29.95Z"/>
  <path class="cls-3" d="M23.01,39.71c-.02-.24-.13-.43-.31-.57-.18-.13-.43-.2-.74-.2-.21,0-.39.03-.54.09-.15.06-.26.14-.34.24-.08.1-.11.22-.11.35,0,.11.02.21.07.29.05.08.12.15.21.21.09.06.19.11.31.15.12.04.24.08.38.11l.55.13c.27.06.52.14.74.24.22.1.42.22.58.37.16.15.29.32.38.52.09.2.14.43.14.68,0,.38-.1.7-.29.98-.19.27-.46.49-.82.64-.35.15-.78.23-1.28.23s-.93-.08-1.3-.23c-.37-.15-.65-.38-.86-.68-.2-.3-.31-.67-.32-1.12h1.26c.01.21.07.38.18.52.11.14.25.24.42.31.18.07.38.1.6.1s.41-.03.57-.1c.16-.06.29-.15.38-.27.09-.11.14-.25.14-.39,0-.14-.04-.25-.12-.35-.08-.09-.2-.17-.35-.24-.15-.07-.34-.13-.57-.18l-.67-.17c-.52-.13-.93-.32-1.23-.59-.3-.27-.45-.63-.45-1.09,0-.37.1-.7.3-.98.2-.28.48-.5.83-.65.35-.16.75-.23,1.2-.23s.86.08,1.2.23c.34.16.61.37.8.65s.29.6.29.97h-1.25Z"/>
  <path class="cls-3" d="M26.76,37.94l1.49,4.68h.06l1.49-4.68h1.44l-2.12,6.16h-1.68l-2.13-6.16h1.45Z"/>
</svg>