<?xml version="1.0" encoding="UTF-8"?>
<svg id="Expanded_Icons" data-name="Expanded Icons" xmlns="http://www.w3.org/2000/svg" viewBox="0 0 64 64">
  <defs>
    <style>
      .cls-1 {
        fill: #29b5e8;
        stroke-width: 0px;
      }
    </style>
  </defs>
  <path class="cls-1" d="M58.16,32.4L31.64,5.89c-.99-.99-2.36-1.51-3.76-1.4l-17.64,1.29c-2.37.17-4.29,2.09-4.46,4.46l-1.29,17.64c-.1,1.4.41,2.77,1.4,3.76l26.52,26.52c.91.91,2.12,1.41,3.41,1.41s2.5-.5,3.41-1.41l18.92-18.92c.91-.91,1.41-2.12,1.41-3.41s-.5-2.5-1.41-3.41ZM55.33,36.4h0s-18.92,18.92-18.92,18.92c-.21.21-.46.24-.58.24s-.37-.03-.58-.24L8.71,28.81c-.17-.17-.26-.4-.24-.64l1.29-17.64c.03-.41.36-.74.76-.77l17.64-1.29s.04,0,.06,0c.22,0,.43.09.58.24l26.52,26.52c.21.21.24.46.24.58s-.03.37-.24.58Z"/>
  <path class="cls-1" d="M18.97,14.79c-2.31,0-4.18,1.87-4.18,4.18s1.87,4.18,4.18,4.18,4.18-1.87,4.18-4.18-1.87-4.18-4.18-4.18ZM18.97,20.64c-.92,0-1.68-.75-1.68-1.68s.75-1.68,1.68-1.68,1.68.75,1.68,1.68-.75,1.68-1.68,1.68Z"/>
</svg>