<?xml version="1.0" encoding="UTF-8"?>
<svg id="Expanded_Icons" data-name="Expanded Icons" xmlns="http://www.w3.org/2000/svg" viewBox="0 0 64 64">
  <defs>
    <style>
      .cls-1 {
        fill: #29b5e8;
        stroke-width: 0px;
      }
    </style>
  </defs>
  <path class="cls-1" d="M31.99,14.61c.41,0,.75-.34.75-.75v-5.4c0-.41-.34-.75-.75-.75s-.75.34-.75.75v5.4c0,.41.34.75.75.75Z"/>
  <path class="cls-1" d="M27.9,15.03c.14.24.39.38.65.38.13,0,.26-.03.37-.1.36-.21.48-.67.27-1.02l-2.7-4.67c-.21-.36-.67-.48-1.02-.27-.36.21-.48.67-.27,1.02l2.7,4.67Z"/>
  <path class="cls-1" d="M20.75,15.06l4.67,2.7c.12.07.25.1.37.1.26,0,.51-.13.65-.38.21-.36.08-.82-.27-1.02l-4.67-2.7c-.36-.21-.82-.08-1.02.27s-.08.82.27,1.02Z"/>
  <path class="cls-1" d="M35.07,15.3c.12.07.25.1.37.1.26,0,.51-.13.65-.38l2.7-4.67c.21-.36.08-.82-.27-1.02-.36-.21-.82-.08-1.02.27l-2.7,4.67c-.21.36-.08.82.27,1.02Z"/>
  <path class="cls-1" d="M37.54,17.48c.14.24.39.38.65.38.13,0,.26-.03.37-.1l4.67-2.7c.36-.21.48-.67.27-1.02-.21-.36-.67-.48-1.02-.27l-4.67,2.7c-.36.21-.48.67-.27,1.02Z"/>
  <path class="cls-1" d="M15.21,45.1c3.03,0,5.76-1.8,6.94-4.6.16-.38-.02-.82-.4-.98-.38-.16-.82.02-.98.4-.95,2.24-3.13,3.68-5.56,3.68-.41,0-.75.34-.75.75s.34.75.75.75Z"/>
  <path class="cls-1" d="M48.75,45.1c3.03,0,5.76-1.8,6.94-4.6.16-.38-.02-.82-.4-.98-.38-.16-.82.02-.98.4-.95,2.24-3.13,3.68-5.56,3.68-.41,0-.75.34-.75.75s.34.75.75.75Z"/>
  <path class="cls-1" d="M58.46,36.32h-2.83l-4.79-13.06h2.48c1.1,0,2-.9,2-2s-.9-2-2-2h-16.62c-.07,0-.14.01-.21.02-.76-1.72-2.48-2.93-4.48-2.93s-3.73,1.22-4.49,2.95c-.13-.03-.27-.04-.4-.04H10.68c-1.1,0-2,.9-2,2s.9,2,2,2h2.49l-4.79,13.06h-2.83c-.69,0-1.25.56-1.25,1.25,0,6.03,4.91,10.93,10.93,10.93s10.94-4.91,10.94-10.93c0-.69-.56-1.25-1.25-1.25h-2.83l-4.79-13.06h9.81c.14,0,.27-.01.41-.04.49,1.12,1.39,2.03,2.52,2.52,0,.08-.02.16-.02.24v22.95h-6.33c-1.69,0-3.06,1.37-3.06,3.06v1.56h-.83c-.69,0-1.25.56-1.25,1.25s.56,1.25,1.25,1.25h24.71c.69,0,1.25-.56,1.25-1.25s-.56-1.25-1.25-1.25h-1.23v-1.56c0-1.69-1.37-3.06-3.06-3.06h-6.2v-22.95c0-.08-.01-.16-.02-.24,1.12-.49,2.01-1.39,2.51-2.5.07,0,.14.02.21.02h10.02l-4.79,13.06h-2.83c-.69,0-1.25.56-1.25,1.25,0,6.03,4.91,10.93,10.94,10.93s10.93-4.91,10.93-10.93c0-.69-.56-1.25-1.25-1.25ZM40.75,51.98v1.56h-17.65v-1.56c0-.31.25-.56.56-.56h16.54c.31,0,.56.25.56.56ZM15.23,46c-4.23,0-7.74-3.12-8.34-7.18h16.69c-.61,4.06-4.12,7.18-8.34,7.18ZM11.04,36.32l4.19-11.43,4.19,11.43h-8.38ZM31.99,23.66c-1.33,0-2.41-1.08-2.41-2.41s1.08-2.41,2.41-2.41,2.41,1.08,2.41,2.41-1.08,2.41-2.41,2.41ZM48.77,24.89l4.19,11.43h-8.38l4.19-11.43ZM48.77,46c-4.23,0-7.74-3.12-8.34-7.18h16.69c-.61,4.06-4.12,7.18-8.34,7.18Z"/>
</svg>