<?xml version="1.0" encoding="UTF-8"?>
<svg id="Expanded_Icons" data-name="Expanded Icons" xmlns="http://www.w3.org/2000/svg" viewBox="0 0 64 64">
  <defs>
    <style>
      .cls-1 {
        fill: #29b5e8;
        stroke-width: 0px;
      }
    </style>
  </defs>
  <path class="cls-1" d="M23.95,25.08c0-2.51,1.82-3.54,3.69-3.7l3.46,3.55c.24.25.58.4.92.38.34,0,.67-.16.9-.41l3.18-3.51c2.04.17,3.94,1.33,3.94,3.7v4.42h2.5v-4.42c0-3.6-2.93-6.22-6.97-6.22-.35,0-.69.15-.93.41l-2.68,2.96-2.92-3c-.24-.24-.56-.38-.89-.38-4.01,0-6.7,2.5-6.7,6.22v4.42h2.5v-4.42Z"/>
  <path class="cls-1" d="M54.7,31.59h-5.42v-12.69c0-.42-.21-.81-.56-1.04l-4.14-2.72s0-.05,0-.07c0-1.27-1.04-2.31-2.31-2.31s-2.31,1.04-2.31,2.31,1.04,2.31,2.31,2.31c.32,0,.62-.06.89-.18l3.62,2.38v12.01H9.3c-.69,0-1.25.56-1.25,1.25v4.21c0,.45.25.87.64,1.09l8.93,4.98v14.87c0,.69.56,1.25,1.25,1.25s1.25-.56,1.25-1.25v-19.94c0-.69-.56-1.25-1.25-1.25s-1.25.56-1.25,1.25v2.21l-7.07-3.95v-2.22h42.9v2.22l-7.07,3.95v-2.21c0-.69-.56-1.25-1.25-1.25s-1.25.56-1.25,1.25v19.94c0,.69.56,1.25,1.25,1.25s1.25-.56,1.25-1.25v-14.87l8.93-4.99c.4-.22.64-.64.64-1.09v-4.21c0-.69-.56-1.25-1.25-1.25Z"/>
  <path class="cls-1" d="M38.97,37.21h-13.94c-.69,0-1.25.56-1.25,1.25v15.69c0,.69.56,1.25,1.25,1.25s1.25-.56,1.25-1.25v-14.44h11.44v14.44c0,.69.56,1.25,1.25,1.25s1.25-.56,1.25-1.25v-15.69c0-.69-.56-1.25-1.25-1.25Z"/>
  <path class="cls-1" d="M32,17.55c3.05,0,5.53-2.51,5.53-5.59v-1.61c0-3.08-2.48-5.59-5.53-5.59s-5.53,2.51-5.53,5.59v1.61c0,3.08,2.48,5.59,5.53,5.59ZM28.97,10.34c0-1.71,1.36-3.09,3.03-3.09s3.03,1.39,3.03,3.09v1.61c0,1.71-1.36,3.09-3.03,3.09s-3.03-1.39-3.03-3.09v-1.61Z"/>
</svg>