<?xml version="1.0" encoding="UTF-8"?>
<svg id="Expanded_Icons" data-name="Expanded Icons" xmlns="http://www.w3.org/2000/svg" viewBox="0 0 64 64">
  <defs>
    <style>
      .cls-1 {
        fill: #29b5e8;
        stroke-width: 0px;
      }
    </style>
  </defs>
  <path class="cls-1" d="M57.71,49.29l-24.04-24.04c2.26-5.59,1.01-12-3.33-16.34-4.35-4.35-10.83-5.62-16.5-3.24-.62.26-1.06.8-1.19,1.46-.13.65.08,1.33.55,1.8l6.43,6.43c1.16,1.16,1.16,3.04,0,4.2-1.13,1.13-3.08,1.13-4.2,0l-6.43-6.43c-.47-.47-1.15-.68-1.8-.55-.65.13-1.2.58-1.46,1.19-2.38,5.68-1.1,12.16,3.24,16.5,2.92,2.92,6.77,4.44,10.68,4.44,1.9,0,3.82-.38,5.65-1.12l24.05,24.05c1.11,1.11,2.6,1.73,4.18,1.73s3.07-.61,4.18-1.73c2.3-2.3,2.3-6.05,0-8.36ZM11.8,27.44c-2.42-2.42-3.55-5.75-3.18-9.03l3.98,3.98c1.32,1.32,3.07,2.04,4.93,2.04s3.61-.73,4.93-2.04c2.72-2.72,2.72-7.14,0-9.86l-3.98-3.98c3.28-.36,6.61.76,9.03,3.18,3.46,3.46,4.26,8.69,2,13.01-.52.98-1.19,1.89-2,2.7-.81.81-1.71,1.48-2.7,2-4.33,2.26-9.56,1.45-13.01-2ZM54.88,54.82c-.72.72-1.98.72-2.7,0l-23.28-23.28c.05-.04.1-.09.15-.13.44-.36.88-.73,1.28-1.14.41-.41.78-.84,1.14-1.29.04-.05.09-.1.13-.15l23.28,23.28c.75.75.75,1.96,0,2.7Z"/>
</svg>