<?xml version="1.0" encoding="UTF-8"?>
<svg id="Expanded_Icons" data-name="Expanded Icons" xmlns="http://www.w3.org/2000/svg" viewBox="0 0 64 64">
  <defs>
    <style>
      .cls-1 {
        fill: #29b5e8;
        stroke-width: 0px;
      }
    </style>
  </defs>
  <path class="cls-1" d="M51.47,27.99h-2.02V6.44c0-1.1-.9-2-2-2h-27.3c-.59,0-1.15.26-1.53.71l-10.5,12.41c-.31.36-.47.82-.47,1.29v38.72c0,1.1.9,2,2,2h37.79c1.1,0,2-.9,2-2v-6.62h2.02c2.62,0,4.74-2.13,4.74-4.74v-13.47c0-2.62-2.13-4.74-4.74-4.74ZM18.5,11.49v5.86h-4.96l4.96-5.86ZM45.45,55.57H11.66V21.35h8.85c1.1,0,2-.9,2-2v-10.91h22.95v19.55h-20.92c-2.62,0-4.74,2.13-4.74,4.74v13.47c0,2.62,2.13,4.74,4.74,4.74h20.92v4.62ZM53.71,46.21c0,1.24-1.01,2.24-2.24,2.24h-26.94c-1.24,0-2.24-1.01-2.24-2.24v-13.47c0-1.24,1.01-2.24,2.24-2.24h26.94c1.24,0,2.24,1.01,2.24,2.24v13.47Z"/>
  <polygon class="cls-1" points="32.58 34.79 30.53 34.79 28.77 38.2 28.41 38.98 28.08 38.2 26.32 34.79 24.23 34.79 27.1 39.87 24.16 45.22 26.23 45.22 28.02 41.64 28.41 40.86 28.77 41.64 30.6 45.22 32.69 45.22 29.69 39.87 32.58 34.79"/>
  <polygon class="cls-1" points="41.96 34.79 38.62 39.66 35.28 34.79 33.99 34.79 33.97 45.22 35.7 45.22 35.7 38.21 38.32 41.88 38.93 41.88 41.56 38.18 41.56 45.22 43.26 45.22 43.25 34.79 41.96 34.79"/>
  <polygon class="cls-1" points="47.27 34.79 45.54 34.79 45.54 45.22 51.86 45.22 51.86 43.69 47.27 43.69 47.27 34.79"/>
</svg>