<?xml version="1.0" encoding="UTF-8"?>
<svg id="Expanded_Icons" data-name="Expanded Icons" xmlns="http://www.w3.org/2000/svg" viewBox="0 0 64 64">
  <defs>
    <style>
      .cls-1 {
        fill: #29b5e8;
        stroke-width: 0px;
      }
    </style>
  </defs>
  <path class="cls-1" d="M59.51,16.78s0-.08-.01-.12c-.03-.17-.08-.33-.15-.48-.01-.03-.03-.06-.05-.09-.07-.13-.15-.25-.24-.37-.02-.02-.02-.04-.04-.06l-9.47-10.55c-.38-.42-.92-.66-1.49-.66H15.09c-.6,0-1.17.27-1.55.74L4.98,15.75s-.02.04-.03.05c-.2.26-.33.57-.38.91,0,.05-.01.09-.01.14,0,.05-.02.1-.02.16v35.17c0,3.52.48,7.28,6.16,7.28h41.77c4.7,0,7.08-2.45,7.08-7.28V17.01c0-.08-.01-.15-.02-.23ZM55.54,28.52H8.54v-9.51h47v9.51ZM8.54,32.52h47v9.47H8.54v-9.47ZM16.04,8.46h31.13l5.88,6.55H10.73l5.31-6.55ZM52.46,55.46H10.69c-2.16,0-2.16-.37-2.16-3.28v-6.2h47v6.2c0,2.78-.81,3.28-3.08,3.28Z"/>
  <path class="cls-1" d="M15.09,48.23c-1.21,0-2.2.98-2.2,2.2s.99,2.2,2.2,2.2,2.2-.98,2.2-2.2-.98-2.2-2.2-2.2Z"/>
  <circle class="cls-1" cx="15.09" cy="37.02" r="2.2"/>
  <path class="cls-1" d="M49.62,49.18h-12.31c-.69,0-1.25.56-1.25,1.25s.56,1.25,1.25,1.25h12.31c.69,0,1.25-.56,1.25-1.25s-.56-1.25-1.25-1.25Z"/>
  <path class="cls-1" d="M49.62,35.77h-12.31c-.69,0-1.25.56-1.25,1.25s.56,1.25,1.25,1.25h12.31c.69,0,1.25-.56,1.25-1.25s-.56-1.25-1.25-1.25Z"/>
  <path class="cls-1" d="M15.09,26.03c1.22,0,2.2-.98,2.2-2.2s-.98-2.2-2.2-2.2-2.2.98-2.2,2.2.99,2.2,2.2,2.2Z"/>
  <path class="cls-1" d="M37.31,25.08h12.31c.69,0,1.25-.56,1.25-1.25s-.56-1.25-1.25-1.25h-12.31c-.69,0-1.25.56-1.25,1.25s.56,1.25,1.25,1.25Z"/>
</svg>