<?xml version="1.0" encoding="UTF-8"?>
<svg id="Expanded_Icons" data-name="Expanded Icons" xmlns="http://www.w3.org/2000/svg" viewBox="0 0 64 64">
  <defs>
    <style>
      .cls-1 {
        fill: #29b5e8;
        stroke-width: 0px;
      }
    </style>
  </defs>
  <path class="cls-1" d="M32,16.36c-3.73,0-6.76,3.03-6.76,6.76s3.03,6.76,6.76,6.76,6.76-3.03,6.76-6.76-3.03-6.76-6.76-6.76ZM32,27.38c-2.35,0-4.26-1.91-4.26-4.26s1.91-4.26,4.26-4.26,4.26,1.91,4.26,4.26-1.91,4.26-4.26,4.26Z"/>
  <path class="cls-1" d="M32,4.44c-10.83,0-19.64,8.81-19.64,19.64,0,6.93,4.15,12,7.27,15.22,4.72,4.86,10.16,16.41,10.37,18.22h0v.02h0c.01,1.1.9,1.98,2,1.98s1.99-.89,2-1.99c.08-1.55,3.51-12.19,9.26-17.38,5.64-5.09,8.38-10.34,8.38-16.07,0-10.83-8.81-19.64-19.64-19.64ZM40.58,37.18c-4.05,3.65-7.05,9.44-8.81,13.97-2.27-4.89-5.92-11.19-9.27-14.64-4.19-4.31-6.14-8.26-6.14-12.43,0-8.62,7.01-15.64,15.64-15.64s15.64,7.01,15.64,15.64c0,4.53-2.31,8.81-7.06,13.1Z"/>
</svg>