<?xml version="1.0" encoding="UTF-8"?>
<svg id="Expanded_Icons" data-name="Expanded Icons" xmlns="http://www.w3.org/2000/svg" viewBox="0 0 64 64">
  <defs>
    <style>
      .cls-1 {
        fill: #29b5e8;
        stroke-width: 0px;
      }
    </style>
  </defs>
  <path class="cls-1" d="M32,4.75c-15.03,0-27.25,12.22-27.25,27.25s12.22,27.25,27.25,27.25,27.25-12.22,27.25-27.25S47.03,4.75,32,4.75ZM55.16,30h-8.76c-.29-7.95-2.32-14.86-5.39-19.43,7.77,3.28,13.4,10.67,14.15,19.43ZM30,9.2v20.8h-8.39c.42-9.18,3.67-18.66,8.39-20.8ZM30,34v20.8c-4.71-2.14-7.97-11.61-8.39-20.8h8.39ZM34,54.8v-20.8h8.39c-.42,9.18-3.67,18.66-8.39,20.8ZM34,30V9.2c4.71,2.14,7.97,11.61,8.39,20.8h-8.39ZM22.99,10.57c-3.07,4.57-5.09,11.48-5.39,19.43h-8.76c.75-8.76,6.38-16.15,14.15-19.43ZM8.84,34h8.76c.29,7.95,2.32,14.86,5.39,19.43-7.77-3.28-13.4-10.67-14.15-19.43ZM41.01,53.43c3.07-4.57,5.09-11.48,5.39-19.43h8.76c-.75,8.76-6.38,16.15-14.15,19.43Z"/>
</svg>