<?xml version="1.0" encoding="UTF-8"?>
<svg id="Expanded_Icons" data-name="Expanded Icons" xmlns="http://www.w3.org/2000/svg" viewBox="0 0 64 64">
  <defs>
    <style>
      .cls-1 {
        fill: #29b5e8;
        stroke-width: 0px;
      }
    </style>
  </defs>
  <path class="cls-1" d="M34.44,6.21c-1.36,0-2.47,1.11-2.47,2.47s1.11,2.47,2.47,2.47c11.4,0,20.67,9.27,20.67,20.67s-9.27,20.67-20.67,20.67c-9.67,0-17.78-6.68-20.03-15.66.46.4,1.03.59,1.6.59.69,0,1.38-.29,1.87-.85.89-1.03.78-2.59-.25-3.48l-4.69-4.06s-.04-.02-.05-.04c-.07-.06-.14-.11-.22-.15-.06-.04-.13-.09-.19-.12-.07-.04-.15-.07-.22-.1-.08-.03-.15-.06-.23-.09-.07-.02-.14-.03-.21-.05-.09-.02-.17-.04-.26-.04-.07,0-.14,0-.21,0-.09,0-.17,0-.26,0-.07,0-.14.02-.21.04-.09.02-.17.03-.25.05-.07.02-.13.05-.2.08-.08.03-.16.06-.24.11-.06.03-.12.08-.18.11-.08.05-.15.1-.22.16-.02.01-.04.02-.05.04l-4.72,4.05c-1.04.89-1.15,2.45-.27,3.48.49.57,1.18.86,1.88.86.57,0,1.14-.2,1.61-.6l.97-.84c1.99,12.15,12.56,21.45,25.27,21.45,14.12,0,25.61-11.49,25.61-25.61S48.56,6.21,34.44,6.21Z"/>
  <path class="cls-1" d="M35.92,44.3v-11.86l6.49-6.46c.58-.58.58-1.51,0-2.1-.58-.58-1.52-.58-2.1,0l-6.93,6.89c-.28.28-.44.66-.44,1.05v12.48c0,.82.66,1.48,1.48,1.48s1.48-.66,1.48-1.48Z"/>
</svg>