<?xml version="1.0" encoding="UTF-8"?>
<svg id="Expanded_Icons" data-name="Expanded Icons" xmlns="http://www.w3.org/2000/svg" viewBox="0 0 64 64">
  <defs>
    <style>
      .cls-1 {
        fill: #29b5e8;
        stroke-width: 0px;
      }
    </style>
  </defs>
  <path class="cls-1" d="M45.52,25.32h-7.96v-7.96c0-.69-.56-1.25-1.25-1.25h-9.68c-.69,0-1.25.56-1.25,1.25v7.96h-7.96c-.69,0-1.25.56-1.25,1.25v9.68c0,.69.56,1.25,1.25,1.25h7.96v7.96c0,.69.56,1.25,1.25,1.25h9.68c.69,0,1.25-.56,1.25-1.25v-7.96h7.96c.69,0,1.25-.56,1.25-1.25v-9.68c0-.69-.56-1.25-1.25-1.25ZM44.27,34.99h-7.96c-.69,0-1.25.56-1.25,1.25v7.96h-7.18v-7.96c0-.69-.56-1.25-1.25-1.25h-7.96v-7.18h7.96c.69,0,1.25-.56,1.25-1.25v-7.96h7.18v7.96c0,.69.56,1.25,1.25,1.25h7.96v7.18Z"/>
  <path class="cls-1" d="M31.95,4.16c-15.3,0-27.75,12.45-27.75,27.75s12.45,27.75,27.75,27.75,27.75-12.45,27.75-27.75S47.25,4.16,31.95,4.16ZM31.95,57.16c-13.92,0-25.25-11.33-25.25-25.25S18.03,6.66,31.95,6.66s25.25,11.33,25.25,25.25-11.33,25.25-25.25,25.25Z"/>
</svg>