<?xml version="1.0" encoding="UTF-8"?>
<svg id="Expanded_Icons" data-name="Expanded Icons" xmlns="http://www.w3.org/2000/svg" viewBox="0 0 64 64">
  <defs>
    <style>
      .cls-1 {
        fill: #29b5e8;
        stroke-width: 0px;
      }
    </style>
  </defs>
  <path class="cls-1" d="M53.82,12.21c-.25-.24-.59-.36-.93-.34-10.7.62-15.34-1.74-20.15-6.32-.48-.46-1.24-.46-1.72,0-4.81,4.58-9.45,6.94-20.15,6.32-.34-.02-.68.1-.93.34-.25.24-.39.56-.39.91v23.3c0,12.15,13.18,20.5,22.08,22.31.08.02.17.02.25.02s.17,0,.25-.03c8.91-1.81,22.08-10.16,22.08-22.31V13.12c0-.34-.14-.67-.39-.91ZM51.72,36.42c0,10.65-11.74,18.06-19.83,19.81-8.09-1.75-19.83-9.16-19.83-19.81V14.43c10.03.37,15.1-2.02,19.83-6.27,4.73,4.25,9.8,6.64,19.83,6.27v21.99Z"/>
  <path class="cls-1" d="M31.43,15.18c-.26-.13-.57-.1-.8.07-3.03,2.27-7.24,3.35-13.64,3.51-.41.01-.74.35-.74.76v13.26c0,.42.34.76.76.76h14.07c.42,0,.76-.34.76-.76V15.86c0-.29-.16-.55-.42-.68Z"/>
  <path class="cls-1" d="M46.8,33.64h-14c-.42,0-.76.34-.76.76v16.01c0,.24.11.46.3.6.13.1.3.16.47.16.06,0,.13,0,.19-.02,8.12-2.1,13.7-7.89,14.57-15.2v-1.55c0-.42-.34-.76-.76-.76Z"/>
</svg>