<?xml version="1.0" encoding="UTF-8"?>
<svg id="Expanded_Icons" data-name="Expanded Icons" xmlns="http://www.w3.org/2000/svg" viewBox="0 0 64 64">
  <defs>
    <style>
      .cls-1 {
        fill: #29b5e8;
        stroke-width: 0px;
      }
    </style>
  </defs>
  <path class="cls-1" d="M49.76,47.03h-8.98v-8.98c0-.69-.56-1.25-1.25-1.25-6.33,0-11.48,5.15-11.48,11.48s5.15,11.48,11.48,11.48,11.48-5.15,11.48-11.48c0-.69-.56-1.25-1.25-1.25ZM39.53,57.26c-4.95,0-8.98-4.03-8.98-8.98,0-4.53,3.37-8.28,7.73-8.89v8.89c0,.69.56,1.25,1.25,1.25h8.89c-.61,4.36-4.37,7.73-8.89,7.73Z"/>
  <path class="cls-1" d="M43.42,32.91c-.69,0-1.25.56-1.25,1.25v10.23c0,.69.56,1.25,1.25,1.25h10.23c.69,0,1.25-.56,1.25-1.25,0-6.33-5.15-11.48-11.48-11.48ZM44.67,43.14v-7.64c3.95.55,7.09,3.69,7.64,7.64h-7.64Z"/>
  <path class="cls-1" d="M25.79,55.5h-12.42V20.75h10.33c1.1,0,2-.9,2-2v-10.33h22.43v21.21c0,1.1.9,2,2,2s2-.9,2-2V6.41c0-1.1-.9-2-2-2h-27.11c-.55,0-1.07.23-1.45.62l-11.65,12.29c-.35.37-.55.86-.55,1.38v38.8c0,1.1.9,2,2,2h14.42c1.1,0,2-.9,2-2s-.9-2-2-2ZM21.7,10.71v6.03h-5.72l5.72-6.03Z"/>
</svg>