<?xml version="1.0" encoding="UTF-8"?>
<svg id="Expanded_Icons" data-name="Expanded Icons" xmlns="http://www.w3.org/2000/svg" viewBox="0 0 64 64">
  <defs>
    <style>
      .cls-1 {
        fill: #29b5e8;
        stroke-width: 0px;
      }
    </style>
  </defs>
  <path class="cls-1" d="M35.11,19.6v-.75h9.32c.43,1.8,2.04,3.15,3.97,3.15,2.26,0,4.1-1.84,4.1-4.1s-1.84-4.1-4.1-4.1c-2.07,0-3.77,1.55-4.04,3.55h-10.01c-.41,0-.75.34-.75.75v1.3c-.48-.04-.95-.07-1.41-.07v-3.16h9.87c.41,0,.75-.34.75-.75v-2.65c1.9-.35,3.35-2.02,3.35-4.02,0-2.26-1.84-4.1-4.1-4.1s-4.1,1.84-4.1,4.1c0,2,1.45,3.67,3.35,4.02v1.9h-9.87c-.41,0-.75.34-.75.75v3.95c-.52.03-1.03.07-1.54.13v-4.07c0-.41-.34-.75-.75-.75h-2.34v-2.04c1.9-.35,3.35-2.02,3.35-4.02,0-2.26-1.84-4.1-4.1-4.1s-4.1,1.84-4.1,4.1c0,2,1.45,3.67,3.35,4.02v2.79c0,.41.34.75.75.75h2.34v3.53c-.54.09-1.08.2-1.61.32l.03-2.03c0-.2-.08-.39-.22-.54-.14-.14-.33-.22-.53-.22h-8.38v-1.77c1.9-.35,3.35-2.02,3.35-4.02,0-2.26-1.84-4.1-4.1-4.1s-4.1,1.84-4.1,4.1c0,2,1.45,3.67,3.35,4.02v2.52c0,.41.34.75.75.75h8.37l-.02,1.68c-4.09,1.19-7.62,3.32-9.81,6.06-1.93,2.41-2.63,5.05-2.05,7.64,1.19,5.25,4.92,7.59,11.7,7.33.06,0,.13,0,.2,0v1.78h-5.22c-.41,0-.75.34-.75.75v2.04c-1.9.35-3.35,2.02-3.35,4.02,0,2.26,1.84,4.1,4.1,4.1s4.1-1.84,4.1-4.1c0-2-1.45-3.67-3.35-4.02v-1.29h5.22c.41,0,.75-.34.75-.75v-2.56c.51,0,1.05,0,1.59.02v10.21c-1.95.31-3.45,1.99-3.45,4.03,0,2.26,1.84,4.1,4.1,4.1s4.1-1.84,4.1-4.1c0-1.97-1.39-3.61-3.25-4v-10.18c.52.03,1.04.06,1.53.11v7.94c0,.41.34.75.75.75h7.24v1.4c-1.9.35-3.35,2.02-3.35,4.02,0,2.26,1.84,4.1,4.1,4.1s4.1-1.84,4.1-4.1c0-2-1.45-3.67-3.35-4.02v-2.15c0-.41-.34-.75-.75-.75h-7.24v-7c2.45.41,3.62,1.27,3.62,4.32,0,.69.56,1.25,1.25,1.25h4.5c.68,0,1.24-.54,1.25-1.23,0,0,.04-2.16.04-2.87,0-1.26.79-2.28,1.75-2.28,4.26,0,6.9-2.51,6.9-6.56,0-6.88-8.57-13.39-16.41-14.8ZM48.4,16.3c.88,0,1.6.72,1.6,1.6s-.72,1.6-1.6,1.6-1.6-.72-1.6-1.6.72-1.6,1.6-1.6ZM40.47,8.74c0-.88.72-1.6,1.6-1.6s1.6.72,1.6,1.6-.72,1.6-1.6,1.6-1.6-.72-1.6-1.6ZM23.73,8.6c0-.88.72-1.6,1.6-1.6s1.6.72,1.6,1.6-.72,1.6-1.6,1.6-1.6-.72-1.6-1.6ZM14.6,11.43c0-.88.72-1.6,1.6-1.6s1.6.72,1.6,1.6-.72,1.6-1.6,1.6-1.6-.72-1.6-1.6ZM20.96,50.01c0,.88-.72,1.6-1.6,1.6s-1.6-.72-1.6-1.6.72-1.6,1.6-1.6,1.6.72,1.6,1.6ZM29.92,55.64c0,.88-.72,1.6-1.6,1.6s-1.6-.72-1.6-1.6.72-1.6,1.6-1.6,1.6.72,1.6,1.6ZM41.04,55.68c0,.88-.72,1.6-1.6,1.6s-1.6-.72-1.6-1.6.72-1.6,1.6-1.6,1.6.72,1.6,1.6ZM24.29,38.92c-3.3.12-5.37-.43-6.73-1.35.93-.95,1.91-1.83,3.18-1.83.41,0,.75-.34.75-.75s-.34-.75-.75-.75c-1.88,0-3.21,1.22-4.29,2.32-.72-.88-1.09-1.94-1.34-3.03-.52-2.29.56-4.27,1.56-5.52.38-.47.8-.92,1.26-1.35.6.68,1.22,1.24,1.78,1.75,1.19,1.08,2.05,1.86,2.23,3.17.05.38.37.65.74.65.03,0,.07,0,.1,0,.41-.06.7-.43.64-.84-.25-1.85-1.44-2.93-2.71-4.08-.54-.49-1.09-1-1.62-1.59,1.52-1.12,3.36-2.04,5.38-2.7.04,3.13.32,5.15.89,6.74.49,1.35,1.99,3.25,3.53,4.82-.66.91-1.25,2.15-1.57,4.32-1.11-.02-2.16,0-3.05.03ZM44.62,38.45c-1.25,0-2.35.59-3.13,1.53-2.1-1.58-3.28-2.88-3.52-3.86-.1-.4-.5-.65-.9-.55-.4.1-.65.5-.55.9.41,1.72,2.41,3.47,4.21,4.81-.23.59-.36,1.25-.36,1.95,0,.34,0,1-.02,1.59h-2.09c-.49-4.29-3.56-5.27-6.27-5.63-.96-.13-2.05-.21-3.13-.26.28-1.74.75-2.71,1.15-3.32,1.09.97,2.08,1.65,2.63,1.71.03,0,.05,0,.08,0,.38,0,.72-.28.76-.67.04-.41-.24-.78-.65-.82-.84-.23-5.18-4.25-6.03-6.6-.54-1.49-.78-3.47-.81-6.66,1.46-.37,2.98-.61,4.55-.71-.06,1.28-.06,3.05.43,3.65.15.19.39.3.62.3.16,0,.32-.05.45-.15.32-.26.39-.7.13-1.03-.1-.22-.22-1.26-.13-2.82.02,0,.05,0,.07,0,1.91,0,3.92.42,5.84,1.13-.02,1.07.1,1.97.2,2.74l.07.55c.04.36-.02.44-.02.44-.02.02-.15.09-.47.08-.57,0-1.41-.04-2.16-.07-.7-.03-1.31-.05-1.55-.05-1.48,0-2,.47-2.15,1.93-.15,1.46.17,3.18.27,3.68.07.35.39.6.73.6.05,0,.1,0,.15-.02.41-.08.67-.48.58-.89-.19-.91-.35-2.23-.25-3.23.04-.42.1-.55.06-.53.04-.01.16-.05.6-.05.23,0,.82.02,1.49.05.76.03,1.61.06,2.19.07.71.02,1.26-.18,1.61-.57.46-.51.45-1.17.39-1.62l-.07-.57c-.08-.58-.15-1.21-.18-1.91,2.46,1.13,4.72,2.73,6.42,4.51-.76,1.36-2.63,3.37-7.1,3.25-.37.02-.76.32-.77.73,0,.41.32.76.73.77.13,0,.25,0,.38,0,.58,0,1.1-.04,1.61-.1.03.72.1,1.75.23,2.39.07.36.39.6.73.6.05,0,.1,0,.15-.02.41-.08.67-.48.58-.88-.12-.61-.18-1.68-.21-2.36,2.51-.64,3.91-2.02,4.69-3.2,1.3,1.67,2.1,3.44,2.1,5.12,0,2.69-1.48,4.06-4.4,4.06Z"/>
</svg>