<?xml version="1.0" encoding="UTF-8"?>
<svg id="Expanded_Icons" data-name="Expanded Icons" xmlns="http://www.w3.org/2000/svg" viewBox="0 0 64 64">
  <defs>
    <style>
      .cls-1 {
        fill: #29b5e8;
        stroke-width: 0px;
      }
    </style>
  </defs>
  <g id="Layer_6" data-name="Layer 6">
    <path class="cls-1" d="M33.04,18.47l5.27-5.88c.44-.49,1.17-.57,1.71-.2l4.8,3.38c-.26.92-.42,1.87-.49,2.83l-4.85-3.42-4.5,5.02c-.48.53-1.3.58-1.83.1-.53-.48-.58-1.3-.1-1.83h0ZM57.8,11.29c.42-.58.29-1.39-.3-1.81-.56-.4-1.33-.3-1.77.24l-4.48,5.87c.34,1.15.53,2.33.58,3.53l5.96-7.83ZM53.02,5.43h2.64c.17,0,.33.01.5.04.04,0,.09.01.13.01.45,0,.81-.36.82-.8,0-.4-.29-.75-.69-.81-.25-.04-.5-.06-.75-.06h-2.64c-.45-.02-.82.33-.84.78-.02.45.33.82.78.84.02,0,.04,0,.06,0h0ZM33.5,5.96c.15,0,.29-.04.41-.11.46-.27.99-.41,1.52-.41h1.24c.45-.02.8-.39.78-.84-.02-.42-.36-.76-.78-.78h-1.24c-.83,0-1.64.21-2.36.64-.39.23-.51.73-.28,1.11.15.25.41.4.7.4h0ZM39.94,5.43h3.26c.45.02.82-.33.84-.78.02-.45-.33-.82-.78-.84-.02,0-.04,0-.06,0h-3.27c-.45-.02-.82.33-.84.78-.02.45.33.82.78.84.02,0,.04,0,.06,0h0ZM31.9,11.91c.45,0,.81-.36.81-.81h0v-3.27c0-.45-.36-.81-.81-.81-.45,0-.81.36-.81.81v3.27c0,.45.36.81.81.81ZM46.48,5.43h3.27c.45.02.82-.33.84-.78.02-.45-.33-.82-.78-.84-.02,0-.04,0-.06,0h-3.27c-.45.02-.8.39-.78.84.02.42.36.76.78.78ZM31.9,18.45c.45,0,.81-.36.81-.81h0v-3.27c0-.45-.36-.81-.81-.81-.45,0-.81.36-.81.81v3.27c0,.45.36.81.81.81ZM59.19,12.15c-.45,0-.81.36-.81.81h0v3.27c-.02.45.33.82.78.84.45.02.82-.33.84-.78,0-.02,0-.04,0-.06v-3.27c0-.45-.36-.81-.81-.81,0,0,0,0,0,0ZM59.19,25.25c-.45,0-.81.38-.81.83,0,.8-.46,1.53-1.21,1.97-.38.24-.49.74-.26,1.12.23.36.7.49,1.08.28,1.26-.74,2.01-2,2.01-3.37v-.04c0-.44-.36-.79-.8-.79,0,0,0,0,0,0ZM59.19,18.69c-.45,0-.81.36-.81.81h0v3.27c-.02.45.33.82.78.84s.82-.33.84-.78c0-.02,0-.04,0-.06v-3.27c0-.45-.36-.81-.81-.81h0ZM59.59,6.1c-.2-.4-.68-.57-1.08-.37-.4.2-.57.68-.37,1.08,0,0,0,.02.01.03.15.3.23.63.23.97v1.88c.02.45.39.8.84.78.42-.02.76-.36.78-.78v-1.88c0-.59-.14-1.18-.41-1.71ZM42.13,29.27c0,.45-.36.81-.81.81h-2.54v22.64c0,2.22-1.97,4.21-5.55,5.58-3.19,1.22-7.39,1.9-11.84,1.9s-8.66-.67-11.84-1.9c-3.58-1.37-5.55-3.36-5.55-5.58v-25.15c0-2.22,1.97-4.21,5.55-5.58,3.19-1.22,7.39-1.9,11.84-1.9,3.52,0,6.87.42,9.7,1.2v-.39c0-.45.36-.81.81-.81s.81.36.81.81v.89c.18.06.35.13.52.19,3.58,1.37,5.55,3.36,5.55,5.58v.88h2.54c.45,0,.81.36.81.81,0,0,0,0,0,0ZM36.18,40.03c-.92.62-1.91,1.12-2.95,1.51-3.19,1.22-7.39,1.9-11.84,1.9s-8.66-.67-11.84-1.9c-1.04-.39-2.03-.89-2.95-1.51v4.3c0,1.02,1.49,2.24,3.88,3.16,2.9,1.11,6.77,1.72,10.91,1.72s8.02-.61,10.91-1.72c2.39-.92,3.88-2.13,3.88-3.16v-4.3ZM6.59,35.96c0,1.02,1.49,2.24,3.88,3.16,2.9,1.11,6.77,1.72,10.91,1.72s8.02-.61,10.91-1.72c2.39-.92,3.88-2.13,3.88-3.16v-4.32c-.92.62-1.91,1.12-2.95,1.51-3.19,1.22-7.39,1.9-11.84,1.9s-8.66-.67-11.84-1.9c-1.04-.39-2.03-.89-2.95-1.51v4.32ZM6.59,27.57c0,1.02,1.49,2.24,3.88,3.16,2.9,1.11,6.77,1.72,10.91,1.72s8.02-.61,10.91-1.72c2.39-.92,3.88-2.13,3.88-3.16s-1.49-2.24-3.88-3.16c-2.89-1.11-6.77-1.72-10.91-1.72s-8.02.61-10.91,1.72c-2.39.92-3.88,2.13-3.88,3.16h0ZM36.18,52.72v-4.32c-.92.62-1.91,1.12-2.95,1.51-3.19,1.22-7.39,1.9-11.84,1.9s-8.66-.67-11.84-1.9c-1.04-.39-2.03-.89-2.95-1.51v4.32c0,1.02,1.49,2.24,3.88,3.16,2.9,1.11,6.77,1.72,10.91,1.72s8.02-.61,10.91-1.72c2.39-.92,3.88-2.13,3.88-3.16h0ZM54.4,28.46h-3.27c-.45,0-.81.36-.81.81,0,.45.36.81.81.81h3.27c.45,0,.81-.36.81-.81,0-.45-.36-.81-.81-.81ZM47.86,28.46h-3.27c-.45,0-.81.36-.81.81,0,.45.36.81.81.81h3.27c.45,0,.81-.36.81-.81,0-.45-.36-.81-.81-.81h0ZM51.11,21.63c0-1.52-.99-2-2.13-2.57l-.31-.17-.33-.16c-1.18-.58-1.23-.66-1.23-1.11,0-.26.11-.87,1.19-.87,1.01,0,1.16.55,1.16.87,0,.45.36.81.81.81s.81-.36.81-.81c0-1.23-.77-2.13-1.97-2.4v-.21c.02-.45-.33-.82-.78-.84-.45-.02-.82.33-.84.78,0,.02,0,.04,0,.06v.21c-1.21.28-2,1.19-2,2.4,0,1.52.99,2,2.13,2.57l.32.16.33.16c1.18.58,1.23.66,1.23,1.11,0,.75-.75.86-1.19.86s-1.19-.11-1.19-.86c.02-.45-.33-.82-.78-.84s-.82.33-.84.78c0,.02,0,.04,0,.06,0,1.21.79,2.11,2,2.39v.28c-.02.45.33.82.78.84s.82-.33.84-.78c0-.02,0-.04,0-.06v-.28c1.21-.28,2-1.18,2-2.39h0Z"/>
  </g>
</svg>