<?xml version="1.0" encoding="UTF-8"?>
<svg id="Expanded_Icons" data-name="Expanded Icons" xmlns="http://www.w3.org/2000/svg" viewBox="0 0 64 64">
  <defs>
    <style>
      .cls-1 {
        fill: #29b5e8;
        stroke-width: 0px;
      }
    </style>
  </defs>
  <path class="cls-1" d="M59.63,5.42c0-.13-.03-.27-.08-.39-.05-.12-.13-.22-.21-.32-.02-.03-.03-.06-.06-.09,0,0,0,0,0,0-.11-.12-.25-.21-.41-.27-.15-.06-.31-.1-.48-.1,0,0,0,0,0,0h-9.87c-.69,0-1.25.56-1.25,1.25s.56,1.25,1.25,1.25h6.84l-8.43,8.36c-3.22-2.69-7.36-4.32-11.88-4.32-6.03,0-11.51,2.92-14.92,7.57L8.43,6.75h6.84c.69,0,1.25-.56,1.25-1.25s-.56-1.25-1.25-1.25H5.4s0,0,0,0c-.16,0-.32.03-.48.1-.15.06-.29.16-.41.27,0,0,0,0,0,0-.03.03-.03.06-.06.09-.08.1-.16.2-.21.32-.05.13-.07.26-.08.39,0,.03-.02.05-.02.08v9.87c0,.69.56,1.25,1.25,1.25s1.25-.56,1.25-1.25v-6.87l12.12,12.02c-.47.87-.87,1.78-1.2,2.73-6.45.46-11.38,5.6-11.38,12.08,0,5.66,3.77,10.29,9.03,11.68l-8.57,8.49v-6.87c0-.69-.56-1.25-1.25-1.25s-1.25.56-1.25,1.25v9.87s.01.05.02.08c0,.13.03.27.08.39.05.12.13.22.21.32.02.03.03.06.06.09,0,0,0,0,0,0,.12.12.25.21.41.27.15.06.32.1.48.1h9.87c.69,0,1.25-.56,1.25-1.25s-.56-1.25-1.25-1.25h-6.84l9.9-9.82c.06,0,.12,0,.19,0h26.95l9.89,9.81h-6.84c-.69,0-1.25.56-1.25,1.25s.56,1.25,1.25,1.25h9.87c.16,0,.33-.03.48-.1.15-.06.29-.16.41-.27,0,0,0,0,0,0,.03-.03.03-.06.06-.09.08-.1.16-.2.21-.32.05-.13.07-.26.08-.39,0-.03.02-.05.02-.08v-9.87c0-.69-.56-1.25-1.25-1.25s-1.25.56-1.25,1.25v6.87l-8.23-8.17c5.04-.68,8.8-4.79,8.8-9.94,0-3.22-1.52-6.16-4.13-8.08v-.02c0-4.79-1.85-9.15-4.85-12.44l8.42-8.35v6.87c0,.69.56,1.25,1.25,1.25s1.25-.56,1.25-1.25V5.5s-.01-.05-.02-.08ZM49.58,29.3c0,.24-.02.45-.03.68l-.02.25c-.05.76.34,1.49,1,1.87,2.02,1.16,3.18,3.09,3.18,5.3,0,3.39-2.75,6.05-6.26,6.05h-2.46l-5.1-5.05c-.49-.49-1.28-.48-1.77,0-.49.49-.48,1.28,0,1.77l3.31,3.28h-19.09l3.31-3.28c.49-.49.49-1.28,0-1.77-.49-.49-1.28-.49-1.77,0l-5.1,5.05h-.29c-4.67,0-8.33-3.57-8.33-8.12s3.65-8.11,8.37-8.11h.02c.12.01.25.03.38.03.93.04,1.8-.58,2.03-1.51.2-.78.46-1.53.78-2.26l2.14,2.12c.24.24.56.36.88.36s.64-.12.89-.37c.49-.49.48-1.28,0-1.77l-2.65-2.63c2.64-3.93,7.1-6.42,12.04-6.42,3.41,0,6.54,1.19,9.02,3.16l-5.94,5.89c-.49.49-.49,1.28,0,1.77.24.25.57.37.89.37s.64-.12.88-.36l6-5.95c2.29,2.56,3.69,5.93,3.69,9.63Z"/>
</svg>