<?xml version="1.0" encoding="UTF-8"?>
<svg id="Expanded_Icons" data-name="Expanded Icons" xmlns="http://www.w3.org/2000/svg" viewBox="0 0 64 64">
  <defs>
    <style>
      .cls-1 {
        fill: #29b5e8;
        stroke-width: 0px;
      }
    </style>
  </defs>
  <path class="cls-1" d="M56.43,32.37h-.64l-6.14-19.49h.49c.69,0,1.25-.56,1.25-1.25s-.56-1.25-1.25-1.25h-16.75v-5.38c0-.69-.56-1.25-1.25-1.25s-1.25.56-1.25,1.25v5.38H14.14c-.69,0-1.25.56-1.25,1.25s.56,1.25,1.25,1.25h.21l-6.14,19.49h-.64c-1.1,0-2,.9-2,2,0,6.27,4.21,10.49,10.49,10.49s10.49-4.22,10.49-10.49c0-1.1-.9-2-2-2h-.64l-6.15-19.49h13.13v1.59c0,.09.03.16.05.25-2.07.54-3.6,2.4-3.6,4.63s1.51,4.06,3.55,4.62v24.6c-5.58.53-9.24,4.58-9.24,10.43,0,1.1.9,2,2,2h16.97c1.1,0,2-.9,2-2,0-5.85-3.66-9.9-9.24-10.43v-24.6c2.04-.55,3.55-2.4,3.55-4.62s-1.54-4.1-3.6-4.63c.02-.08.05-.16.05-.25v-1.59h12.85l-6.15,19.49h-.64c-1.1,0-2,.9-2,2,0,6.27,4.22,10.49,10.49,10.49s10.49-4.22,10.49-10.49c0-1.1-.9-2-2-2ZM16.06,40.86c-3.34,0-5.58-1.64-6.26-4.49h12.53c-.69,2.85-2.92,4.49-6.27,4.49ZM10.83,32.37l5.23-16.58,5.23,16.58h-10.45ZM38.4,57h-12.53c.69-2.85,2.92-4.49,6.26-4.49s5.58,1.64,6.26,4.49ZM34.44,19.35c0,1.27-1.03,2.3-2.3,2.3s-2.3-1.03-2.3-2.3,1.03-2.3,2.3-2.3,2.3,1.03,2.3,2.3ZM47.94,15.79l5.23,16.58h-10.45l5.23-16.58ZM47.94,40.86c-3.34,0-5.58-1.64-6.27-4.49h12.53c-.69,2.85-2.92,4.49-6.26,4.49Z"/>
</svg>