<?xml version="1.0" encoding="UTF-8"?>
<svg id="Expanded_Icons" data-name="Expanded Icons" xmlns="http://www.w3.org/2000/svg" viewBox="0 0 64 64">
  <defs>
    <style>
      .cls-1 {
        fill: #29b5e8;
        stroke-width: 0px;
      }
    </style>
  </defs>
  <path class="cls-1" d="M55.33,20.95c-.47-1-1.67-1.42-2.66-.95-1,.47-1.42,1.67-.95,2.66,1.39,2.92,2.09,6.05,2.09,9.31,0,11.99-9.75,21.74-21.74,21.74-4.78,0-9.34-1.56-13.09-4.41l6.05-1.74c1.06-.31,1.67-1.41,1.37-2.48-.31-1.06-1.42-1.67-2.48-1.37l-9.17,2.64c-.77.22-1.33.88-1.43,1.68l-1.12,9.28c-.13,1.1.65,2.09,1.74,2.23.08.01.16.01.24.01,1,0,1.86-.74,1.98-1.76l.62-5.13c4.4,3.26,9.72,5.03,15.29,5.03,14.2,0,25.74-11.55,25.74-25.74,0-3.86-.83-7.57-2.47-11.02Z"/>
  <path class="cls-1" d="M12.07,41.39c-1.39-2.92-2.09-6.05-2.09-9.31,0-11.99,9.75-21.74,21.74-21.74,4.78,0,9.34,1.56,13.09,4.41l-6.05,1.74c-1.06.31-1.67,1.41-1.37,2.48.25.88,1.05,1.45,1.92,1.45.18,0,.37-.03.56-.08l9.17-2.64c.77-.22,1.33-.88,1.43-1.68l1.12-9.28c.13-1.1-.65-2.09-1.74-2.23-1.11-.14-2.09.65-2.23,1.74l-.62,5.13c-4.4-3.26-9.72-5.03-15.29-5.03-14.2,0-25.74,11.55-25.74,25.74,0,3.86.83,7.56,2.47,11.02.34.72,1.06,1.14,1.81,1.14.29,0,.58-.06.86-.19,1-.47,1.42-1.67.95-2.66Z"/>
</svg>