<?xml version="1.0" encoding="UTF-8"?>
<svg id="Expanded_Icons" data-name="Expanded Icons" xmlns="http://www.w3.org/2000/svg" viewBox="0 0 64 64">
  <defs>
    <style>
      .cls-1 {
        fill: #29b5e8;
        stroke-width: 0px;
      }
    </style>
  </defs>
  <path class="cls-1" d="M58.25,20.45l-25.53-10.3c-.48-.19-1.02-.19-1.5,0L5.7,20.45c-.76.31-1.25,1.04-1.25,1.85s.5,1.55,1.25,1.85l5.97,2.41v12.45c0,2.94,2.52,5.19,6.29,6.7v7.58c0,.69.56,1.25,1.25,1.25s1.25-.56,1.25-1.25v-6.73c3.42.98,7.47,1.48,11.52,1.48,10.09,0,20.3-3.1,20.3-9.03v-12.46l5.97-2.41c.76-.31,1.25-1.04,1.25-1.85s-.5-1.55-1.25-1.85ZM31.97,14.17l20.18,8.14-20.18,8.14-.1-.04-8.32-3.35,8.89-3.58c.64-.26.95-.99.69-1.63-.26-.64-.99-.95-1.63-.69l-11.29,4.56-.25-.1s0,0,0,0l-8.16-3.29,20.18-8.14ZM15.67,39.03v-10.84l2.29.92v12.21c-1.51-.82-2.29-1.66-2.29-2.29ZM48.28,39.03c0,1.71-5.75,5.03-16.3,5.03-4.92,0-8.78-.72-11.52-1.67v-12.27l10.76,4.34c.12.05.24.08.37.11.13.02.25.04.38.04,0,0,0,0,0,0,.17,0,.34-.03.51-.08.04-.01.08-.02.12-.04.04-.01.08-.02.11-.03l15.56-6.28v10.84Z"/>
</svg>