<?xml version="1.0" encoding="UTF-8"?>
<svg id="Expanded_Icons" data-name="Expanded Icons" xmlns="http://www.w3.org/2000/svg" viewBox="0 0 64 64">
  <defs>
    <style>
      .cls-1 {
        fill: #29b5e8;
        fill-rule: evenodd;
      }

      .cls-1, .cls-2, .cls-3 {
        stroke-width: 0px;
      }

      .cls-2 {
        fill: #11567f;
      }

      .cls-3 {
        fill: #fff;
      }
    </style>
  </defs>
  <path class="cls-1" d="M26.86,6c-5.01,0-9.07,4.06-9.07,9.07v33.86c0,5.01,4.06,9.07,9.07,9.07h21.16c5.01,0,9.07-4.06,9.07-9.07v-25.16c0-2.37-.93-4.64-2.58-6.34l-8.5-8.7c-1.71-1.75-4.05-2.73-6.49-2.73h-12.67ZM21.42,15.07c0-3.01,2.44-5.44,5.44-5.44h12.09v9.98c0,2.67,2.17,4.84,4.84,4.84h9.67v24.49c0,3.01-2.44,5.44-5.44,5.44h-21.16c-3.01,0-5.44-2.44-5.44-5.44V15.07ZM52.59,20.81c-.2-.3-.42-.59-.68-.85l-8.5-8.7c-.26-.26-.54-.5-.84-.7v9.04c0,.67.54,1.21,1.21,1.21h8.8Z"/>
  <rect class="cls-2" x="6.91" y="32" width="30.23" height="18.14" rx="4.23" ry="4.23"/>
  <path class="cls-3" d="M13.5,37.94l1.24,2.1h.05l1.25-2.1h1.47l-1.88,3.08,1.92,3.08h-1.5l-1.26-2.1h-.05l-1.26,2.1h-1.49l1.93-3.08-1.89-3.08h1.48Z"/>
  <path class="cls-3" d="M18.75,44.09v-6.16h1.3v5.08h2.64v1.07h-3.94Z"/>
  <path class="cls-3" d="M25.02,44.09l-1.76-6.16h1.42l1.02,4.28h.05l1.12-4.28h1.22l1.12,4.29h.05l1.02-4.29h1.42l-1.76,6.16h-1.27l-1.17-4.03h-.05l-1.17,4.03h-1.27Z"/>
</svg>