<?xml version="1.0" encoding="UTF-8"?>
<svg id="Expanded_Icons" data-name="Expanded Icons" xmlns="http://www.w3.org/2000/svg" viewBox="0 0 64 64">
  <defs>
    <style>
      .cls-1 {
        fill: #29b5e8;
        stroke-width: 0px;
      }
    </style>
  </defs>
  <path class="cls-1" d="M53.29,5.34H10.9c-3.49,0-6.33,2.84-6.33,6.33v26.99c0,3.49,2.84,6.33,6.33,6.33h6.81c.55,0,1,.45,1,1v9.13c0,1.33.81,2.9,2.35,3.32.32.09.7.14,1.09.14.8,0,1.67-.23,2.29-.89h0s12.27-12.42,12.27-12.42c.18-.19.44-.29.71-.29h15.87c3.49,0,6.33-2.84,6.33-6.33V11.67c0-3.49-2.84-6.33-6.33-6.33ZM55.61,38.64c0,1.28-1.04,2.33-2.33,2.33h-15.87c-1.33,0-2.62.54-3.55,1.49l-11.15,11.29v-7.76c0-2.76-2.24-5-5-5h-6.81c-1.28,0-2.33-1.04-2.33-2.33V11.67c0-1.28,1.04-2.33,2.33-2.33h42.39c1.28,0,2.33,1.04,2.33,2.33v26.97Z"/>
  <path class="cls-1" d="M49.83,19.86H14.35c-.69,0-1.25.56-1.25,1.25s.56,1.25,1.25,1.25h35.48c.69,0,1.25-.56,1.25-1.25s-.56-1.25-1.25-1.25Z"/>
  <path class="cls-1" d="M39.19,27.38H14.35c-.69,0-1.25.56-1.25,1.25s.56,1.25,1.25,1.25h24.84c.69,0,1.25-.56,1.25-1.25s-.56-1.25-1.25-1.25Z"/>
</svg>