<?xml version="1.0" encoding="UTF-8"?>
<svg id="Expanded_Icons" data-name="Expanded Icons" xmlns="http://www.w3.org/2000/svg" viewBox="0 0 64 64">
  <defs>
    <style>
      .cls-1 {
        fill: #29b5e8;
        fill-rule: evenodd;
      }

      .cls-1, .cls-2, .cls-3 {
        stroke-width: 0px;
      }

      .cls-2 {
        fill: #11567f;
      }

      .cls-3 {
        fill: #fff;
      }
    </style>
  </defs>
  <path class="cls-1" d="M26.86,6c-5.01,0-9.07,4.06-9.07,9.07v33.86c0,5.01,4.06,9.07,9.07,9.07h21.16c5.01,0,9.07-4.06,9.07-9.07v-25.16c0-2.37-.93-4.64-2.58-6.34l-8.5-8.7c-1.71-1.75-4.05-2.73-6.49-2.73h-12.67ZM21.42,15.07c0-3.01,2.44-5.44,5.44-5.44h12.09v9.98c0,2.67,2.17,4.84,4.84,4.84h9.67v24.49c0,3.01-2.44,5.44-5.44,5.44h-21.16c-3.01,0-5.44-2.44-5.44-5.44V15.07ZM52.59,20.81c-.2-.3-.42-.59-.68-.85l-8.5-8.7c-.26-.26-.54-.5-.84-.7v9.04c0,.67.54,1.21,1.21,1.21h8.8Z"/>
  <rect class="cls-2" x="6.91" y="33.21" width="30.23" height="15.12" rx="4.23" ry="4.23"/>
  <path class="cls-3" d="M12.51,43.49h-1.2l1.82-5.28h1.44l1.82,5.28h-1.2l-1.32-4.07h-.04l-1.32,4.07ZM12.43,41.41h2.82v.87h-2.82v-.87Z"/>
  <path class="cls-3" d="M17.68,38.21l1.28,4.01h.05l1.28-4.01h1.24l-1.82,5.28h-1.44l-1.82-5.28h1.24Z"/>
  <path class="cls-3" d="M22.52,43.49v-5.28h2.08c.4,0,.74.07,1.02.21.28.14.5.34.65.6.15.26.22.56.22.91s-.08.65-.23.9c-.15.25-.37.44-.66.58-.29.13-.63.2-1.04.2h-1.39v-.9h1.21c.21,0,.39-.03.53-.09.14-.06.25-.15.31-.26.07-.12.11-.26.11-.44s-.04-.32-.11-.44c-.07-.12-.17-.21-.32-.27-.14-.06-.32-.1-.53-.1h-.75v4.36h-1.12ZM25.37,41.09l1.31,2.4h-1.23l-1.28-2.4h1.2Z"/>
  <path class="cls-3" d="M32.49,40.85c0,.58-.11,1.07-.33,1.47-.22.4-.51.71-.89.92-.37.21-.79.32-1.26.32s-.89-.11-1.26-.32c-.37-.21-.67-.52-.88-.92-.22-.4-.32-.89-.32-1.47s.11-1.07.32-1.47c.22-.4.51-.71.88-.92.37-.21.79-.32,1.26-.32s.88.11,1.26.32c.37.21.67.52.89.92.22.4.33.89.33,1.47ZM31.36,40.85c0-.37-.06-.69-.17-.94-.11-.26-.27-.45-.47-.58-.2-.13-.44-.2-.71-.2s-.51.07-.71.2c-.2.13-.36.33-.47.58-.11.26-.16.57-.16.94s.06.69.16.94c.11.26.27.45.47.58.2.13.44.2.71.2s.51-.07.71-.2c.2-.13.36-.33.47-.58.11-.26.17-.57.17-.94Z"/>
</svg>