<?xml version="1.0" encoding="UTF-8"?>
<svg id="Expanded_Icons" data-name="Expanded Icons" xmlns="http://www.w3.org/2000/svg" viewBox="0 0 64 64">
  <defs>
    <style>
      .cls-1 {
        fill: #29b5e8;
        stroke-width: 0px;
      }
    </style>
  </defs>
  <path class="cls-1" d="M54.88,28.33h-21.39c.08-.81.16-1.64.24-2.5.16-1.56.3-2.85.43-3.96.25-2.13.42-3.66.42-5.26,0-2.41-1.96-4.37-4.37-4.37s-4.38,1.96-4.38,4.38c0,1.76-.74,4.44-2.11,5.95-.96,1.05-2.05,1.72-3.21,2.42-.57.35-1.17.71-1.76,1.13-.09.07-.19.12-.28.18l-.23.15s-.02.02-.03.03c-.56.38-1.07.82-1.55,1.3-.22-.33-.59-.57-1.02-.57H6c-.69,0-1.25.56-1.25,1.25v24.05c0,.69.56,1.25,1.25,1.25h9.67c.42,0,.78-.23,1.01-.55,2.11,2.08,4.97,3.31,8.05,3.31h14.4c2.42,0,4.38-2,4.38-4.46,0-.74-.19-1.43-.51-2.04,2.09-.34,3.69-2.17,3.69-4.38,0-1.01-.34-1.93-.9-2.68,1.21-.79,2.02-2.17,2.02-3.75,0-.69-.16-1.37-.45-1.97h7.52c2.41,0,4.37-2.01,4.37-4.47s-1.96-4.46-4.37-4.46ZM14.42,51.29h-7.17v-21.55h7.17v21.55ZM39.13,54.05h-4.04c-1.04,0-1.88-.88-1.88-1.96s.84-1.97,1.88-1.97h4.04c1.04,0,1.88.89,1.88,1.97s-.85,1.96-1.88,1.96ZM42.31,47.62h-4.06c-1.03,0-1.87-.88-1.87-1.96s.84-1.97,1.87-1.97h4.06c1.04,0,1.88.89,1.88,1.97s-.84,1.96-1.88,1.96ZM44.56,37.68c.47.36.76.94.76,1.56,0,1.08-.84,1.96-1.87,1.96h-4.27c-.16,0-.29-.01-.41-.04-.84-.19-1.45-1-1.45-1.91,0-.62.28-1.21.79-1.58.21-.17.43-.28.65-.33.05-.01.1-.02.15-.04.02,0,.09-.03.28-.03h4.27c.4,0,.77.13,1.11.42ZM54.88,34.76h-15.7c-.25,0-.63.01-1.02.14-.59.14-1.14.41-1.59.78-1.1.81-1.76,2.14-1.76,3.56,0,1.03.35,2,.95,2.77-1.13.81-1.87,2.15-1.87,3.66,0,.73.19,1.42.5,2.03-2.09.34-3.69,2.18-3.69,4.4,0,.7.18,1.36.46,1.96h-6.44c-3.27,0-6.22-1.75-7.81-4.57v-17.93c.69-1.22,1.63-2.26,2.74-3l.18-.12c.1-.07.22-.14.36-.25,0,0,0,0,.01,0,.54-.38,1.08-.71,1.62-1.04,1.26-.77,2.55-1.56,3.75-2.87,1.9-2.08,2.76-5.42,2.76-7.65,0-1.03.84-1.87,1.88-1.87s1.87.84,1.87,1.88c0,1.43-.16,2.83-.41,4.95-.13,1.12-.28,2.42-.45,4.09-.14,1.49-.28,2.97-.44,4.4-.07.66-.12,1.33-.18,2-.49,6.02-1.2,9.7-6.86,10.14-.69.05-1.2.65-1.15,1.34.05.66.6,1.15,1.25,1.15.03,0,.06,0,.1,0,8.2-.63,8.74-7.17,9.16-12.43.04-.49.08-.97.13-1.45h21.64c1.03,0,1.87.88,1.87,1.96s-.84,1.97-1.87,1.97Z"/>
  <path class="cls-1" d="M47.62,23.04c.12.59.64.99,1.22.99.08,0,.17,0,.26-.03l8.01-1.67c.68-.14,1.11-.8.97-1.48-.14-.67-.81-1.11-1.48-.97l-8.01,1.67c-.68.14-1.11.8-.97,1.48Z"/>
  <path class="cls-1" d="M45.24,19.07c.21.14.45.2.68.2.41,0,.81-.2,1.05-.57l4.48-6.85c.38-.58.22-1.35-.36-1.73-.58-.38-1.35-.22-1.73.36l-4.48,6.85c-.38.58-.22,1.35.36,1.73Z"/>
  <path class="cls-1" d="M39.26,16.97c.12.59.64.99,1.22.99.08,0,.17,0,.26-.03.68-.14,1.11-.8.97-1.48l-1.67-8.01c-.14-.68-.81-1.1-1.48-.97-.68.14-1.11.8-.97,1.48l1.67,8.01Z"/>
</svg>