<?xml version="1.0" encoding="UTF-8"?>
<svg id="Expanded_Icons" data-name="Expanded Icons" xmlns="http://www.w3.org/2000/svg" viewBox="0 0 64 64">
  <defs>
    <style>
      .cls-1 {
        fill: #29b5e8;
        stroke-width: 0px;
      }
    </style>
  </defs>
  <path class="cls-1" d="M58.47,33.92h-14.11v-8.25c0-1.1-.9-2-2-2h-9.49v-6.05c0-.69-.56-1.25-1.25-1.25h-8.05c-.69,0-1.25.56-1.25,1.25v6.05h-3.2l-.63-11.63c-.06-1.06-.93-1.89-2-1.89H7.51c-1.07,0-1.95.84-2,1.9l-1.96,39.57c-.03.55.17,1.08.55,1.48.38.4.9.62,1.45.62h52.92c1.1,0,2-.9,2-2v-15.81c0-1.1-.9-2-2-2ZM24.82,18.87h5.55v4.8h-5.55v-4.8ZM14.6,14.15l.12,2.23h-5.41l.11-2.23h5.18ZM7.66,49.73l1.53-30.84h5.67l1.68,30.84H7.66ZM19.34,27.67h21.02v22.05h-19.82l-1.2-22.05ZM56.47,49.73h-12.11v-11.81h12.11v11.81Z"/>
  <path class="cls-1" d="M24.91,39.19c-.69,0-1.25.56-1.25,1.25v6.71c0,.69.56,1.25,1.25,1.25s1.25-.56,1.25-1.25v-6.71c0-.69-.56-1.25-1.25-1.25Z"/>
  <path class="cls-1" d="M30.28,39.19c-.69,0-1.25.56-1.25,1.25v6.71c0,.69.56,1.25,1.25,1.25s1.25-.56,1.25-1.25v-6.71c0-.69-.56-1.25-1.25-1.25Z"/>
  <path class="cls-1" d="M35.65,39.19c-.69,0-1.25.56-1.25,1.25v6.71c0,.69.56,1.25,1.25,1.25s1.25-.56,1.25-1.25v-6.71c0-.69-.56-1.25-1.25-1.25Z"/>
  <path class="cls-1" d="M47.73,48.4c.69,0,1.25-.56,1.25-1.25v-6.71c0-.69-.56-1.25-1.25-1.25s-1.25.56-1.25,1.25v6.71c0,.69.56,1.25,1.25,1.25Z"/>
  <path class="cls-1" d="M53.1,48.4c.69,0,1.25-.56,1.25-1.25v-6.71c0-.69-.56-1.25-1.25-1.25s-1.25.56-1.25,1.25v6.71c0,.69.56,1.25,1.25,1.25Z"/>
</svg>