<?xml version="1.0" encoding="UTF-8"?>
<svg id="Expanded_Icons" data-name="Expanded Icons" xmlns="http://www.w3.org/2000/svg" viewBox="0 0 64 64">
  <defs>
    <style>
      .cls-1 {
        fill: #29b5e8;
        stroke-width: 0px;
      }
    </style>
  </defs>
  <path class="cls-1" d="M54.52,40.16c-1.6-.92-3.56-.65-4.87.51l-2.32-1.44c1.04-2.2,1.64-4.64,1.64-7.23s-.64-5.2-1.75-7.46l2.22-1.38c.8.8,1.88,1.24,2.99,1.24.71,0,1.43-.18,2.09-.56,2-1.16,2.69-3.73,1.54-5.73-.56-.97-1.47-1.67-2.55-1.96-1.08-.29-2.21-.14-3.19.42-1.57.9-2.31,2.67-2.02,4.36l-2.34,1.45c-2.84-4.1-7.43-6.89-12.69-7.29v-2.7c1.69-.54,2.92-2.11,2.92-3.98,0-2.31-1.88-4.2-4.2-4.2s-4.2,1.88-4.2,4.2c0,1.89,1.26,3.47,2.98,4v2.68c-5.35.38-10.02,3.24-12.86,7.45l-2.27-1.41c.39-1.74-.35-3.61-1.98-4.55-.97-.56-2.1-.71-3.19-.42-1.08.29-1.99.98-2.55,1.96-1.16,2-.47,4.58,1.54,5.73.66.38,1.38.56,2.09.56,1.04,0,2.06-.39,2.84-1.11l2.28,1.42c-1.06,2.21-1.67,4.67-1.67,7.28s.57,4.9,1.55,7.05l-2.38,1.48c-1.31-1.05-3.18-1.26-4.72-.37-2,1.16-2.69,3.73-1.54,5.73.56.97,1.47,1.67,2.55,1.96.36.1.73.15,1.09.15.73,0,1.45-.19,2.09-.56,1.71-.99,2.45-3,1.92-4.82l2.19-1.36c2.82,4.32,7.55,7.27,12.99,7.66v2.68c-1.72.53-2.98,2.11-2.98,4,0,2.31,1.88,4.2,4.2,4.2s4.2-1.88,4.2-4.2c0-1.87-1.23-3.43-2.92-3.98v-2.7c5.35-.4,10.01-3.28,12.83-7.5l2.25,1.4c-.42,1.76.31,3.67,1.96,4.62.65.37,1.36.56,2.09.56.36,0,.73-.05,1.09-.15,1.08-.29,1.99-.98,2.55-1.96,1.16-2,.47-4.58-1.54-5.73ZM51.57,18.74c.39-.23.85-.29,1.29-.17.44.12.8.4,1.03.79.47.81.19,1.85-.62,2.32-.81.47-1.85.19-2.32-.62-.47-.81-.19-1.85.62-2.32ZM10.73,21.68c-.81-.47-1.09-1.51-.62-2.32.23-.39.59-.67,1.03-.79.15-.04.29-.06.44-.06.29,0,.58.08.85.23.81.47,1.09,1.51.62,2.32-.47.81-1.51,1.09-2.32.62ZM12.43,45.26c-.39.23-.85.29-1.29.17-.44-.12-.8-.4-1.03-.79-.47-.81-.19-1.85.62-2.32.81-.47,1.85-.19,2.32.62.47.81.19,1.85-.62,2.32ZM32,6.72c.94,0,1.7.76,1.7,1.7s-.76,1.7-1.7,1.7-1.7-.76-1.7-1.7.76-1.7,1.7-1.7ZM32,57.28c-.94,0-1.7-.76-1.7-1.7s.76-1.7,1.7-1.7,1.7.76,1.7,1.7-.76,1.7-1.7,1.7ZM32,46.47c-7.98,0-14.47-6.49-14.47-14.47s6.49-14.47,14.47-14.47,14.47,6.49,14.47,14.47-6.49,14.47-14.47,14.47ZM53.89,44.64c-.23.39-.59.67-1.03.79-.44.12-.9.06-1.29-.17-.81-.47-1.09-1.51-.62-2.32.31-.54.89-.85,1.47-.85.29,0,.58.07.85.23.81.47,1.09,1.51.62,2.32Z"/>
  <path class="cls-1" d="M12.83,36.89v-9.8c0-.69-.56-1.25-1.25-1.25s-1.25.56-1.25,1.25v9.8c0,.69.56,1.25,1.25,1.25s1.25-.56,1.25-1.25Z"/>
  <path class="cls-1" d="M51.17,27.18v9.7c0,.69.56,1.25,1.25,1.25s1.25-.56,1.25-1.25v-9.7c0-.69-.56-1.25-1.25-1.25s-1.25.56-1.25,1.25Z"/>
  <path class="cls-1" d="M26.6,51.02l-8.42-4.86c-.6-.34-1.36-.14-1.71.46-.35.6-.14,1.36.46,1.71l8.42,4.86c.2.11.41.17.62.17.43,0,.85-.22,1.08-.62.35-.6.14-1.36-.46-1.71Z"/>
  <path class="cls-1" d="M37.44,13l8.4,4.85c.2.11.41.17.62.17.43,0,.85-.22,1.08-.62.35-.6.14-1.36-.46-1.71l-8.4-4.85c-.6-.35-1.36-.14-1.71.46-.35.6-.14,1.36.46,1.71Z"/>
  <path class="cls-1" d="M45.78,46.18l-8.39,4.84c-.6.35-.8,1.11-.46,1.71.23.4.65.62,1.08.62.21,0,.43-.05.62-.17l8.39-4.84c.6-.35.8-1.11.46-1.71-.35-.6-1.11-.8-1.71-.46Z"/>
  <path class="cls-1" d="M17.56,18.01c.21,0,.43-.05.62-.17l8.38-4.84c.6-.35.8-1.11.46-1.71-.34-.6-1.11-.8-1.71-.46l-8.38,4.84c-.6.35-.8,1.11-.46,1.71.23.4.65.62,1.08.62Z"/>
</svg>