<?xml version="1.0" encoding="UTF-8"?>
<svg id="Expanded_Icons" data-name="Expanded Icons" xmlns="http://www.w3.org/2000/svg" viewBox="0 0 64 64">
  <defs>
    <style>
      .cls-1 {
        fill: #29b5e8;
        stroke-width: 0px;
      }
    </style>
  </defs>
  <path class="cls-1" d="M47.51,28.58l-3.32-.55c-.2-.63-.46-1.24-.76-1.83l1.96-2.76c.35-.5.3-1.18-.14-1.61l-3.09-3.09c-.43-.43-1.11-.49-1.61-.14l-2.76,1.96c-.59-.3-1.2-.55-1.83-.76l-.55-3.33c-.1-.6-.62-1.05-1.23-1.05h-4.37c-.61,0-1.13.44-1.23,1.05l-.55,3.33c-.63.2-1.24.46-1.83.76l-2.76-1.96c-.5-.35-1.18-.3-1.61.14l-3.09,3.09c-.43.43-.49,1.11-.14,1.61l1.96,2.76c-.3.58-.55,1.19-.75,1.81l-3.34.57c-.6.1-1.04.62-1.04,1.23v4.37c0,.61.44,1.13,1.04,1.23l3.34.57c.21.63.46,1.24.76,1.83l-1.96,2.74c-.36.5-.3,1.18.13,1.61l3.09,3.09c.43.43,1.11.49,1.61.13l2.74-1.96c.59.3,1.2.55,1.83.76l.57,3.34c.1.6.62,1.04,1.23,1.04h4.37c.61,0,1.13-.44,1.23-1.04l.57-3.34c.63-.21,1.24-.46,1.83-.76l2.74,1.97c.5.36,1.18.3,1.61-.13l3.09-3.09c.43-.43.49-1.12.13-1.61l-1.96-2.74c.3-.6.56-1.21.77-1.85l3.32-.55c.6-.1,1.05-.62,1.05-1.23v-4.37c0-.61-.44-1.13-1.05-1.23ZM46.06,33.12l-3.06.5c-.49.08-.89.44-1.01.93-.24.96-.62,1.87-1.12,2.71-.25.43-.23.96.06,1.37l1.81,2.51-1.59,1.59-2.52-1.81c-.4-.29-.94-.31-1.37-.06-.84.5-1.75.88-2.69,1.12-.48.12-.84.51-.92,1l-.52,3.07h-2.26l-.52-3.07c-.08-.49-.44-.88-.92-1-.95-.24-1.85-.62-2.69-1.12-.43-.25-.96-.23-1.37.06l-2.52,1.81-1.59-1.59,1.81-2.52c.29-.4.31-.94.06-1.37-.5-.84-.87-1.74-1.12-2.69-.12-.48-.51-.84-1-.92l-3.07-.52v-2.26l3.07-.52c.49-.08.88-.44,1-.92.24-.94.61-1.84,1.11-2.67.25-.42.23-.96-.06-1.36l-1.8-2.54,1.6-1.6,2.54,1.8c.4.29.94.31,1.36.06.84-.5,1.74-.87,2.69-1.11.48-.12.85-.52.93-1.01l.5-3.06h2.25l.5,3.06c.08.49.44.89.92,1.01.95.24,1.86.62,2.69,1.11.42.25.96.23,1.36-.06l2.54-1.8,1.6,1.6-1.8,2.54c-.29.4-.31.94-.06,1.36.5.84.87,1.75,1.11,2.69.12.48.52.85,1.01.93l3.06.5v2.25Z"/>
  <path class="cls-1" d="M32,25.71c-3.47,0-6.29,2.82-6.29,6.29s2.82,6.29,6.29,6.29,6.29-2.82,6.29-6.29-2.82-6.29-6.29-6.29ZM32,35.79c-2.09,0-3.79-1.7-3.79-3.79s1.7-3.79,3.79-3.79,3.79,1.7,3.79,3.79-1.7,3.79-3.79,3.79Z"/>
  <path class="cls-1" d="M31.95,4.16c-15.3,0-27.75,12.45-27.75,27.75s12.45,27.75,27.75,27.75,27.75-12.45,27.75-27.75S47.25,4.16,31.95,4.16ZM31.95,57.16c-13.92,0-25.25-11.33-25.25-25.25S18.03,6.66,31.95,6.66s25.25,11.33,25.25,25.25-11.33,25.25-25.25,25.25Z"/>
</svg>