<?xml version="1.0" encoding="UTF-8"?>
<svg id="Expanded_Icons" data-name="Expanded Icons" xmlns="http://www.w3.org/2000/svg" viewBox="0 0 64 64">
  <defs>
    <style>
      .cls-1 {
        fill: #29b5e8;
        stroke-width: 0px;
      }
    </style>
  </defs>
  <path class="cls-1" d="M33.04,31.21l-1.18-.59c-2.17-1.07-2.39-1.28-2.39-2.27,0-1.71,1.86-1.84,2.43-1.84.72,0,2.38.18,2.38,1.84,0,.69.56,1.25,1.25,1.25s1.25-.56,1.25-1.25c0-2.2-1.42-3.78-3.63-4.21v-.7c0-.69-.56-1.25-1.25-1.25s-1.25.56-1.25,1.25v.7c-2.21.44-3.68,2.04-3.68,4.21,0,2.64,1.67,3.46,3.79,4.51l1.18.59c2.17,1.07,2.39,1.28,2.39,2.27,0,1.64-1.7,1.82-2.43,1.82s-2.43-.18-2.43-1.82c0-.69-.56-1.25-1.25-1.25s-1.25.56-1.25,1.25c0,2.2,1.44,3.77,3.68,4.19v.72c0,.69.56,1.25,1.25,1.25s1.25-.56,1.25-1.25v-.72c2.24-.43,3.68-2,3.68-4.19,0-2.64-1.67-3.46-3.79-4.51Z"/>
  <path class="cls-1" d="M43.26,17.27h-22.93c-1.8,0-3.26,1.46-3.26,3.26v23.01c0,1.8,1.46,3.26,3.26,3.26h22.93c1.8,0,3.26-1.46,3.26-3.26v-23.01c0-1.8-1.46-3.26-3.26-3.26ZM43.63,43.54c0,.2-.17.37-.37.37h-22.93c-.2,0-.38-.17-.38-.37v-23.01c0-.2.17-.37.38-.37h22.93c.2,0,.37.17.37.37v23.01Z"/>
  <path class="cls-1" d="M57.53,30.04c1.1,0,2-.9,2-2s-.9-2-2-2h-4.67v-4.2h4.67c1.1,0,2-.9,2-2s-.9-2-2-2h-4.68c-.07-3.6-2.89-6.54-6.45-6.79v-4.63c0-1.1-.9-2-2-2s-2,.9-2,2v4.61h-4.2v-4.61c0-1.1-.9-2-2-2s-2,.9-2,2v4.61h-4.2v-4.61c0-1.1-.9-2-2-2s-2,.9-2,2v4.61h-4.2v-4.61c0-1.1-.9-2-2-2s-2,.9-2,2v4.61h-.13c-3.79,0-6.87,3.05-6.95,6.82h-4.35c-1.1,0-2,.9-2,2s.9,2,2,2h4.34v4.2h-4.34c-1.1,0-2,.9-2,2s.9,2,2,2h4.34v4.2h-4.34c-1.1,0-2,.9-2,2s.9,2,2,2h4.34v4.2h-4.34c-1.1,0-2,.9-2,2s.9,2,2,2h4.36c.18,3.68,3.22,6.62,6.94,6.62h.13v4.51c0,1.1.9,2,2,2s2-.9,2-2v-4.51h4.2v4.51c0,1.1.9,2,2,2s2-.9,2-2v-4.51h4.2v4.51c0,1.1.9,2,2,2s2-.9,2-2v-4.51h4.2v4.51c0,1.1.9,2,2,2s2-.9,2-2v-4.54c3.49-.25,6.27-3.08,6.44-6.59h4.69c1.1,0,2-.9,2-2s-.9-2-2-2h-4.67v-4.2h4.67c1.1,0,2-.9,2-2s-.9-2-2-2h-4.67v-4.2h4.67ZM48.86,46.12c0,1.63-1.33,2.95-2.95,2.95h-28.24c-1.63,0-2.95-1.33-2.95-2.95v-28.14c0-1.63,1.33-2.95,2.95-2.95h28.24c1.63,0,2.95,1.33,2.95,2.95v28.14Z"/>
</svg>