<?xml version="1.0" encoding="UTF-8"?>
<svg id="Expanded_Icons" data-name="Expanded Icons" xmlns="http://www.w3.org/2000/svg" viewBox="0 0 64 64">
  <defs>
    <style>
      .cls-1 {
        fill: #29b5e8;
        stroke-width: 0px;
      }
    </style>
  </defs>
  <path class="cls-1" d="M59.64,38.9l-2.45-7.15c-.04-.11-.1-.22-.17-.32-.87-1.21-3.17-4.42-5.12-6.89-.72-.91-1.59-1.43-2.54-1.59v-7.52c0-.69-.56-1.25-1.25-1.25h-14.13c-1.15-1.6-3-2.58-5.01-2.58-.9,0-1.78.19-2.59.57-1.86-1.27-4.4-1.4-6.37-.33-.89-.48-1.88-.73-2.91-.73-2.31,0-4.43,1.33-5.47,3.33-.21-.02-.42-.03-.63-.03-3.4,0-6.17,2.77-6.17,6.17,0,.64.1,1.27.3,1.87-.53.17-.91.65-.89,1.23l.41,9.76c.03.62.51,1.13,1.13,1.19l5.71.56,2.28,4.43c-2.16,1.24-3.62,3.56-3.62,6.22,0,3.95,3.21,7.17,7.17,7.17s7.17-3.21,7.17-7.17c0-.48-.05-.95-.14-1.41h15.38c-.09.45-.14.92-.14,1.41,0,3.95,3.21,7.17,7.17,7.17s7.17-3.21,7.17-7.17c0-.47-.05-.93-.14-1.38.01,0,.03,0,.04,0h3.96c1.05,0,1.91-.86,1.91-1.91v-3.25c0-.14-.02-.27-.07-.41ZM11.02,16.9c.35,0,.7.05,1.04.15.66.19,1.35-.18,1.55-.84.46-1.54,1.9-2.61,3.51-2.61.78,0,1.53.25,2.17.72.44.32,1.04.32,1.48,0,1.38-1.02,3.39-.9,4.66.27.42.39,1.06.44,1.54.12.6-.4,1.3-.61,2.02-.61.27,0,.53.04.78.09-.38.04-.72.24-.93.57l-2.88,4.56-18.3,2.71c-.2-.46-.31-.96-.31-1.47,0-2.02,1.64-3.67,3.67-3.67ZM6.8,24.68l20.09-2.98c.36-.05.68-.26.88-.57l2.81-4.47h16.28v6.2h-8.44s-.06.02-.09.02c-.09,0-.16.03-.25.05-.08.02-.15.04-.22.08-.07.04-.13.08-.19.13-.07.05-.13.1-.18.16-.05.06-.09.12-.13.19-.04.07-.08.15-.11.23-.01.03-.03.05-.04.09l-2.81,11.1-27.29-2.69-.32-7.55ZM17.34,50.49c-2.57,0-4.67-2.09-4.67-4.67s2.09-4.67,4.67-4.67,4.67,2.09,4.67,4.67-2.09,4.67-4.67,4.67ZM46.77,50.49c-2.57,0-4.67-2.09-4.67-4.67s2.09-4.67,4.67-4.67,4.67,2.09,4.67,4.67-2.09,4.67-4.67,4.67ZM57.21,41.96h-3.37c-.33,0-.62.13-.84.34-1.23-2.17-3.56-3.64-6.23-3.64s-4.77,1.33-6.04,3.33c-.11-.03-.23-.07-.35-.07h-16.63c-.13,0-.24.04-.36.07-1.27-2-3.5-3.33-6.04-3.33-.4,0-.79.04-1.17.1l-1.7-3.29,20.76,2.04s.08,0,.12,0c.57,0,1.07-.38,1.21-.94l2.84-11.2h8.68s.03,0,.04,0,.03,0,.04,0h.66c.47,0,.87.38,1.13.71,1.84,2.33,4.01,5.35,4.94,6.64l2.33,6.78v2.45Z"/>
  <path class="cls-1" d="M48.69,28.06s-.05-.06-.08-.09c-.45-.48-1.22-.8-1.86-.8h-3.58c-.99.01-1.8.83-1.8,1.83v4.36c0,1,.81,1.82,1.81,1.82h7.49c.64,0,1.24-.42,1.52-1.07.27-.62.19-1.28-.21-1.75l-3.29-4.29ZM43.88,32.67v-3h2.83s.05.01.08.02l2.29,2.98h-5.2Z"/>
</svg>