<?xml version="1.0" encoding="UTF-8"?>
<svg id="Expanded_Icons" data-name="Expanded Icons" xmlns="http://www.w3.org/2000/svg" viewBox="0 0 64 64">
  <defs>
    <style>
      .cls-1 {
        fill: #29b5e8;
        stroke-width: 0px;
      }
    </style>
  </defs>
  <path class="cls-1" d="M21.02,33.78c-3.63,0-6.58,2.95-6.58,6.58s2.95,6.58,6.58,6.58,6.58-2.95,6.58-6.58-2.95-6.58-6.58-6.58ZM21.02,44.45c-2.25,0-4.08-1.83-4.08-4.08s1.83-4.08,4.08-4.08,4.08,1.83,4.08,4.08-1.83,4.08-4.08,4.08Z"/>
  <path class="cls-1" d="M37.15,36.38c.16-.6.08-1.23-.23-1.77l-2.78-4.82c-.31-.54-.82-.93-1.42-1.09-.6-.16-1.23-.08-1.77.23l-1.47.85c-.98-.76-2.05-1.38-3.2-1.85v-1.69c0-1.29-1.05-2.34-2.34-2.34h-5.56c-1.29,0-2.34,1.05-2.34,2.34v1.69c-1.15.47-2.22,1.09-3.2,1.85l-1.47-.85c-.54-.31-1.17-.4-1.77-.23-.6.16-1.11.55-1.42,1.09l-2.78,4.82c-.31.54-.4,1.17-.23,1.78.16.59.56,1.11,1.09,1.42l1.47.85c-.08.61-.13,1.23-.13,1.85s.04,1.24.13,1.85l-1.47.85c-.54.31-.93.82-1.09,1.42-.16.6-.08,1.23.23,1.77l2.78,4.82c.64,1.12,2.08,1.5,3.19.86l1.47-.85c.98.77,2.05,1.38,3.2,1.85v1.69c0,1.29,1.05,2.34,2.34,2.34h5.56c1.29,0,2.34-1.05,2.34-2.34v-1.69c1.15-.47,2.22-1.09,3.2-1.85l1.47.85c1.12.64,2.55.26,3.19-.86l2.78-4.82c.31-.54.4-1.17.23-1.78-.16-.6-.55-1.11-1.09-1.42l-1.47-.85c.08-.61.12-1.23.12-1.85s-.04-1.24-.12-1.85l1.46-.85c.53-.31.93-.82,1.09-1.42ZM32.59,36.91c-.47.27-.71.81-.6,1.33.15.73.23,1.49.23,2.25s-.08,1.51-.23,2.25c-.11.53.13,1.07.6,1.33l2.08,1.2-2.62,4.54-2.08-1.2c-.46-.27-1.05-.21-1.46.15-1.14,1.01-2.45,1.77-3.88,2.25-.51.17-.86.65-.86,1.19v2.4h-5.24v-2.4c0-.54-.35-1.02-.86-1.19-1.44-.48-2.74-1.23-3.88-2.25-.4-.36-.99-.42-1.46-.15l-2.08,1.2-2.62-4.54,2.08-1.2c.47-.27.71-.81.6-1.33-.15-.74-.23-1.49-.23-2.25s.08-1.51.23-2.25c.11-.53-.13-1.07-.6-1.33l-2.08-1.2,2.62-4.54,2.08,1.2c.47.27,1.05.21,1.46-.15,1.14-1.01,2.44-1.77,3.88-2.25.51-.17.86-.65.86-1.19v-2.4h5.24v2.4c0,.54.35,1.02.86,1.19,1.44.48,2.75,1.23,3.88,2.25.4.36.99.42,1.46.15l2.08-1.2,2.62,4.54-2.08,1.2Z"/>
  <path class="cls-1" d="M58.15,20.22l-.58-.33c.04-.39.07-.79.07-1.18s-.02-.79-.07-1.18l.58-.33c.56-.32.95-.84,1.12-1.46.17-.62.08-1.27-.24-1.82l-1.69-2.92c-.32-.56-.84-.95-1.46-1.12-.62-.16-1.27-.08-1.82.24l-.58.33c-.63-.47-1.32-.87-2.04-1.18v-.67c0-1.33-1.08-2.4-2.4-2.4h-3.37c-1.33,0-2.4,1.08-2.4,2.4v.67c-.73.31-1.41.71-2.04,1.18l-.58-.33c-.56-.32-1.21-.4-1.82-.24-.62.17-1.14.56-1.46,1.12l-1.69,2.92c-.32.56-.4,1.2-.24,1.82s.56,1.14,1.12,1.46l.58.33c-.04.39-.07.78-.07,1.18s.02.79.07,1.18l-.58.33c-.56.32-.96.84-1.12,1.46-.17.62-.08,1.27.24,1.82l1.69,2.92c.32.56.84.95,1.46,1.12.62.17,1.27.08,1.82-.24l.58-.33c.63.47,1.32.87,2.04,1.18v.67c0,1.33,1.08,2.4,2.4,2.4h3.37c1.33,0,2.4-1.08,2.4-2.4v-.67c.72-.31,1.41-.71,2.04-1.18l.58.33c1.15.66,2.62.27,3.28-.88l1.69-2.92c.32-.56.41-1.2.24-1.82-.17-.62-.56-1.14-1.12-1.46ZM54.98,17.13c.11.52.16,1.05.16,1.58s-.05,1.06-.16,1.58c-.11.53.13,1.07.6,1.33l1.24.71-1.59,2.75-1.24-.72c-.46-.27-1.05-.21-1.46.15-.8.71-1.72,1.25-2.73,1.58-.51.17-.86.65-.86,1.19v1.43h-3.18v-1.43c0-.54-.35-1.02-.86-1.19-1.01-.33-1.93-.87-2.73-1.58-.4-.36-.99-.42-1.46-.15l-1.24.72-1.59-2.75,1.24-.72c.47-.27.71-.81.6-1.33-.11-.52-.16-1.05-.16-1.58s.05-1.07.16-1.58c.11-.53-.13-1.07-.6-1.33l-1.24-.72,1.59-2.75,1.24.72c.47.27,1.05.21,1.46-.15.8-.71,1.72-1.25,2.73-1.58.51-.17.86-.65.86-1.19v-1.43h3.18v1.43c0,.54.35,1.02.86,1.19,1.01.34,1.93.87,2.74,1.58.4.36.99.42,1.46.15l1.24-.72,1.59,2.75-1.24.71c-.47.27-.71.81-.6,1.34Z"/>
  <path class="cls-1" d="M47.35,13.2c-3.04,0-5.5,2.47-5.5,5.5s2.47,5.5,5.5,5.5,5.5-2.47,5.5-5.5-2.47-5.5-5.5-5.5ZM47.35,21.71c-1.66,0-3-1.35-3-3s1.35-3,3-3,3,1.35,3,3-1.35,3-3,3Z"/>
</svg>