<?xml version="1.0" encoding="UTF-8"?>
<svg id="Expanded_Icons" data-name="Expanded Icons" xmlns="http://www.w3.org/2000/svg" viewBox="0 0 64 64">
  <defs>
    <style>
      .cls-1 {
        fill: #29b5e8;
        stroke-width: 0px;
      }
    </style>
  </defs>
  <path class="cls-1" d="M58.59,34.32l-8.54-6.35c-.71-.53-1.68-.53-2.39,0l-8.54,6.35c-.89.66-1.07,1.91-.41,2.8.66.88,1.91,1.07,2.8.41l5.29-3.94v12.95c0,3.55-2.9,6.44-6.47,6.44s-6.47-2.92-6.47-6.51v-29.03c0-5.76-4.7-10.44-10.47-10.44s-10.47,4.71-10.47,10.51v12.27l-5.29-3.95c-.88-.66-2.14-.48-2.8.41-.66.89-.48,2.14.41,2.8l8.52,6.35c.35.26.77.4,1.2.4s.84-.13,1.2-.4l8.52-6.35c.89-.66,1.07-1.91.41-2.8-.66-.88-1.91-1.07-2.8-.41l-5.36,4v-12.32c0-3.59,2.9-6.51,6.47-6.51s6.47,2.89,6.47,6.44v29.03c0,5.79,4.7,10.51,10.47,10.51s10.47-4.68,10.47-10.44v-13.04l5.41,4.02c.36.27.78.4,1.19.4.61,0,1.21-.28,1.61-.81.66-.89.48-2.14-.41-2.8Z"/>
</svg>