<?xml version="1.0" encoding="UTF-8"?>
<svg id="Expanded_Icons" data-name="Expanded Icons" xmlns="http://www.w3.org/2000/svg" viewBox="0 0 64 64">
  <defs>
    <style>
      .cls-1 {
        fill: #29b5e8;
        stroke-width: 0px;
      }
    </style>
  </defs>
  <path class="cls-1" d="M55.84,44.35c-.17-.67-.86-1.07-1.53-.89-.67.17-1.07.86-.89,1.53.2.75.29,1.52.29,2.3,0,5-4.06,9.06-9.06,9.06-1.73,0-3.38-.49-4.81-1.39l1.86-.54c.66-.19,1.05-.88.85-1.55-.19-.66-.88-1.04-1.55-.85l-3.98,1.15c-.48.14-.83.55-.89,1.05l-.49,4.03c-.08.69.41,1.31,1.09,1.39.05,0,.1,0,.15,0,.62,0,1.16-.47,1.24-1.1l.19-1.59c1.87,1.23,4.05,1.89,6.33,1.89,6.37,0,11.56-5.19,11.56-11.56,0-.99-.13-1.98-.38-2.93Z"/>
  <path class="cls-1" d="M35.72,49.53c-.18-.72-.27-1.46-.27-2.2,0-5,4.06-9.06,9.06-9.06,1.73,0,3.38.49,4.81,1.39l-1.86.53c-.66.19-1.05.88-.86,1.55.16.55.66.9,1.2.9.12,0,.23-.02.35-.05l3.98-1.15c.48-.14.83-.55.9-1.05l.49-4.03c.08-.69-.41-1.31-1.09-1.39-.67-.08-1.31.41-1.39,1.09l-.19,1.59c-1.87-1.23-4.05-1.89-6.33-1.89-6.37,0-11.56,5.19-11.56,11.56,0,.95.12,1.89.34,2.8.14.57.65.95,1.21.95.1,0,.2-.01.3-.04.67-.17,1.08-.84.91-1.51Z"/>
  <path class="cls-1" d="M28.14,50.59c-10.67-.36-16.02-3.75-16.02-5.55v-4.57c3.75,2.27,9.6,3.53,15.19,3.79.03,0,.06,0,.09,0,1.06,0,1.95-.83,2-1.91.05-1.1-.8-2.04-1.91-2.09-9.53-.44-15.38-3.51-15.38-5.52v-4.5c4.15,2.52,10.98,3.81,17.76,3.81s13.61-1.29,17.76-3.81v.38c0,1.1.9,2,2,2s2-.9,2-2v-6.14s0-.01,0-.02c0,0,0,0,0,0v-10.28s0-.01,0-.02c0-6.29-10.95-9.59-21.76-9.59S8.17,7.85,8.12,14.12c0,.01,0,.03,0,.04v30.88c0,6.1,10.31,9.23,19.97,9.55,1.09,0,1.97-.88,1.99-1.97.02-1.09-.85-2-1.94-2.03ZM29.88,30.05c-10.68,0-17.76-3.36-17.76-5.59,0,0,0-.01,0-.02v-4.51c4.15,2.52,10.98,3.81,17.76,3.81s13.61-1.29,17.76-3.81v4.53c-.01,2.22-7.09,5.58-17.76,5.58ZM29.88,8.57c10.67,0,17.75,3.36,17.76,5.58,0,0,0,0,0,0h0c-.01,2.23-7.09,5.59-17.76,5.59s-17.76-3.36-17.76-5.59,7.08-5.59,17.76-5.59Z"/>
</svg>