<?xml version="1.0" encoding="UTF-8"?>
<svg id="Expanded_Icons" data-name="Expanded Icons" xmlns="http://www.w3.org/2000/svg" viewBox="0 0 64 64">
  <defs>
    <style>
      .cls-1 {
        fill: #29b5e8;
        stroke-width: 0px;
      }
    </style>
  </defs>
  <path class="cls-1" d="M28.29,24.44c.05-.15.07-.3.06-.45,0-.11-.02-.22-.05-.33-.09-.34-.32-.64-.65-.84l-4.73-2.73c-.67-.38-1.52-.16-1.9.51-.39.67-.16,1.52.51,1.9l2.64,1.53-2.64,1.52c-.67.39-.89,1.24-.51,1.9.38.66,1.23.89,1.9.51l4.73-2.73c.32-.18.54-.47.64-.8Z"/>
  <path class="cls-1" d="M24.04,18.15l4.73,2.73c.25.15.54.2.81.18.72-.05,1.29-.66,1.29-1.39v-5.46c0-.77-.62-1.39-1.39-1.39s-1.39.62-1.39,1.39v3.06l-2.65-1.53c-.66-.39-1.52-.16-1.9.51-.38.67-.16,1.52.51,1.9Z"/>
  <path class="cls-1" d="M34.42,21.06c.27.02.55-.04.81-.18l4.73-2.73c.67-.39.89-1.24.51-1.9-.38-.67-1.24-.89-1.9-.51l-2.65,1.53v-3.06c0-.77-.62-1.39-1.39-1.39s-1.39.62-1.39,1.39v5.46c0,.73.57,1.34,1.29,1.39Z"/>
  <path class="cls-1" d="M29.58,27c-.27-.02-.55.03-.81.18l-4.73,2.73c-.67.39-.89,1.24-.51,1.91.39.67,1.24.89,1.9.51l2.65-1.53v3.06c0,.77.62,1.39,1.39,1.39s1.39-.62,1.39-1.39v-5.46c0-.73-.57-1.34-1.29-1.39Z"/>
  <path class="cls-1" d="M34.6,24.32v-.58c0-.08-.05-.19-.1-.25l-1.97-1.96c-.06-.06-.17-.1-.25-.1h-.58c-.08,0-.19.05-.25.1l-1.97,1.96c-.06.06-.1.17-.1.25v.58c0,.08.05.19.1.25l1.97,1.96c.06.06.17.11.25.11h.58c.08,0,.19-.05.25-.11l1.97-1.96c.06-.06.1-.17.1-.25ZM32.93,24.04c0,.08-.05.19-.1.25l-.57.57c-.06.06-.17.1-.25.1h-.02c-.08,0-.19-.05-.25-.1l-.57-.57c-.06-.06-.1-.17-.1-.25v-.02c0-.08.04-.19.1-.25l.57-.57c.06-.06.17-.1.25-.1h.02c.08,0,.19.05.25.1l.57.57c.06.06.1.17.1.25v.02Z"/>
  <path class="cls-1" d="M39.96,29.91l-4.73-2.73c-.25-.15-.54-.2-.81-.18-.72.05-1.29.65-1.29,1.39v5.46c0,.77.62,1.39,1.39,1.39s1.39-.62,1.39-1.39v-3.06l2.65,1.53c.67.39,1.52.16,1.9-.51.38-.67.16-1.52-.51-1.91Z"/>
  <path class="cls-1" d="M42.97,20.6c-.39-.67-1.24-.89-1.9-.51l-4.73,2.73c-.33.19-.55.5-.65.84-.03.11-.05.22-.05.33,0,.15.02.3.06.45.1.32.32.61.63.8l4.73,2.73c.66.38,1.52.16,1.9-.51.39-.67.16-1.52-.51-1.9l-2.64-1.52,2.64-1.53c.67-.39.9-1.24.51-1.9Z"/>
  <path class="cls-1" d="M50.43,20.09c-.42-.63-.82-1.23-.99-1.77-.19-.58-.22-1.33-.26-2.12-.06-1.31-.13-2.79-.99-3.98-.87-1.2-2.27-1.72-3.5-2.18-.73-.27-1.42-.53-1.91-.89-.48-.35-.93-.92-1.41-1.52-.82-1.04-1.75-2.21-3.18-2.67-1.38-.45-2.79-.06-4.04.29-.77.21-1.5.41-2.14.41s-1.37-.2-2.14-.41c-1.25-.34-2.67-.73-4.04-.29-1.43.46-2.36,1.64-3.18,2.67-.48.61-.93,1.18-1.41,1.52-.49.35-1.18.61-1.91.89-1.23.46-2.63.99-3.5,2.18-.86,1.19-.93,2.67-.99,3.98-.04.79-.07,1.53-.26,2.12-.18.54-.57,1.14-.99,1.77-.74,1.11-1.57,2.36-1.57,3.89s.83,2.78,1.57,3.89c.42.63.82,1.23.99,1.77.19.58.22,1.33.26,2.12.06,1.31.13,2.79.99,3.98.87,1.2,2.27,1.72,3.5,2.18.34.13.68.26.98.39l-5.22,15.88c-.12.38-.09.78.09,1.14.18.36.49.62.87.74.29.09.61.08.89-.04l5.11-2.22,2.82,4.81c.15.26.4.46.69.56.15.05.31.08.46.08.23,0,.46-.05.67-.16.35-.18.62-.49.74-.86l4.7-14.3,4.7,14.3c.21.63.79,1.03,1.42,1.03.15,0,.31-.02.46-.07.29-.1.54-.29.69-.56l2.82-4.81,5.11,2.22c.28.12.6.14.89.04.38-.12.68-.39.86-.74.18-.36.21-.76.09-1.14l-5.25-15.96c.25-.1.5-.2.77-.3,1.23-.46,2.63-.98,3.5-2.18.86-1.19.93-2.67.99-3.98.04-.79.07-1.53.26-2.12.18-.54.57-1.14.99-1.77.74-1.11,1.57-2.36,1.57-3.89s-.83-2.78-1.57-3.89ZM25.77,55.24l-2.14-3.65c-.23-.39-.65-.62-1.08-.62-.17,0-.34.03-.5.1l-3.87,1.68,4.19-12.75c.09.11.17.21.26.33.82,1.04,1.75,2.21,3.18,2.67.52.17,1.05.22,1.57.2.86-.02,1.7-.24,2.49-.45l-4.11,12.49ZM42.19,51.07c-.58-.25-1.26-.03-1.58.51l-2.14,3.65-4.1-12.45c.78.21,1.62.42,2.47.42.03,0,.06,0,.08,0,.46,0,.92-.05,1.37-.2,1.43-.46,2.36-1.64,3.18-2.67.12-.15.23-.29.35-.43l4.23,12.85-3.87-1.68ZM48.35,26.49c-.5.75-1.01,1.52-1.29,2.38-.29.9-.34,1.85-.38,2.77-.05,1.05-.1,2.04-.52,2.62-.43.59-1.37.94-2.35,1.31-.86.32-1.74.65-2.5,1.21-.75.55-1.33,1.28-1.9,1.99-.66.83-1.29,1.62-2,1.85-.15.05-.32.07-.5.07-.58,0-1.27-.19-2-.39-.74-.2-1.51-.42-2.32-.48-.06,0-.13,0-.19,0-.14,0-.28-.03-.42-.03-.11,0-.22.01-.34.02,0,0-.02,0-.03,0,0,0-.02,0-.02,0-.83.05-1.64.26-2.41.48-.72.2-1.41.38-1.98.39-.18,0-.35-.02-.51-.07-.71-.23-1.34-1.02-2-1.85-.56-.71-1.15-1.44-1.89-1.99-.1-.08-.21-.15-.32-.21-.12-.07-.24-.12-.37-.15-.62-.35-1.29-.6-1.94-.85-.99-.37-1.92-.72-2.35-1.31-.42-.58-.47-1.57-.52-2.62-.04-.92-.09-1.87-.38-2.77-.28-.87-.79-1.64-1.29-2.38-.59-.89-1.15-1.74-1.15-2.51s.56-1.62,1.15-2.51c.5-.75,1.01-1.52,1.29-2.38.29-.9.34-1.85.38-2.77.05-1.05.1-2.04.52-2.62.43-.59,1.37-.94,2.36-1.31.86-.32,1.74-.65,2.5-1.21.75-.55,1.33-1.28,1.9-1.99.66-.83,1.29-1.62,2-1.85.66-.21,1.61.05,2.61.32.9.25,1.83.5,2.8.5s1.9-.25,2.8-.5c1-.27,1.95-.53,2.61-.32.71.23,1.34,1.02,2,1.85.56.71,1.15,1.44,1.9,1.99.76.55,1.65.89,2.5,1.21.99.37,1.92.72,2.36,1.31.42.58.47,1.57.52,2.62.04.92.09,1.87.38,2.77.28.87.79,1.64,1.29,2.38.59.89,1.15,1.74,1.15,2.51s-.56,1.62-1.15,2.51Z"/>
</svg>