<?xml version="1.0" encoding="UTF-8"?>
<svg id="Expanded_Icons" data-name="Expanded Icons" xmlns="http://www.w3.org/2000/svg" viewBox="0 0 64 64">
  <defs>
    <style>
      .cls-1 {
        fill: #29b5e8;
        fill-rule: evenodd;
        stroke-width: 0px;
      }
    </style>
  </defs>
  <path class="cls-1" d="M7.68,49.34c0,7,12.25,10.66,24.32,10.66s24.32-3.66,24.32-10.66V14.66c0-7-12.25-10.66-24.32-10.66S7.68,7.66,7.68,14.66v34.68ZM32,8.27c12.25,0,20.12,3.78,20.12,6.39s-7.87,6.39-20.12,6.39-20.12-3.78-20.12-6.39,7.88-6.39,20.12-6.39ZM14.51,28.51c.85,0,1.53.69,1.53,1.53v17.14c0,.85-.69,1.53-1.53,1.53s-1.53-.69-1.53-1.53v-17.14c0-.85.69-1.53,1.53-1.53ZM20.93,26.17c0-.85-.69-1.53-1.53-1.53s-1.53.69-1.53,1.53v24.94c0,.85.69,1.53,1.53,1.53s1.53-.69,1.53-1.53v-24.94ZM24.36,28.58c.85,0,1.53.69,1.53,1.53v17.21c0,.85-.69,1.53-1.53,1.53s-1.53-.69-1.53-1.53v-17.21c0-.85.69-1.53,1.53-1.53ZM30.85,34.05c0-.85-.69-1.53-1.53-1.53s-1.53.69-1.53,1.53v9.34c0,.85.69,1.53,1.53,1.53s1.53-.69,1.53-1.53v-9.34ZM34.28,30.91c.85,0,1.53.69,1.53,1.53v12.54c0,.85-.69,1.53-1.53,1.53s-1.53-.69-1.53-1.53v-12.54c0-.85.69-1.53,1.53-1.53ZM40.62,30.11c0-.85-.69-1.53-1.53-1.53s-1.53.69-1.53,1.53v17.21c0,.85.69,1.53,1.53,1.53s1.53-.69,1.53-1.53v-17.21ZM44.05,24.64c.85,0,1.53.69,1.53,1.53v25.09c0,.85-.69,1.53-1.53,1.53s-1.53-.69-1.53-1.53v-25.09c0-.85.69-1.53,1.53-1.53ZM50.54,30.11c0-.85-.69-1.53-1.53-1.53s-1.53.69-1.53,1.53v17.21c0,.85.69,1.53,1.53,1.53s1.53-.69,1.53-1.53v-17.21Z"/>
</svg>