<?xml version="1.0" encoding="UTF-8"?>
<svg id="Expanded_Icons" data-name="Expanded Icons" xmlns="http://www.w3.org/2000/svg" viewBox="0 0 64 64">
  <defs>
    <style>
      .cls-1 {
        fill: #29b5e8;
        stroke-width: 0px;
      }
    </style>
  </defs>
  <path class="cls-1" d="M58.75,30.12l-14.17-9.11c-.93-.6-2.17-.33-2.76.6-.6.93-.33,2.17.6,2.76l11.56,7.43-11.56,7.43c-.93.6-1.2,1.83-.6,2.76.38.59,1.03.92,1.68.92.37,0,.74-.1,1.08-.32l14.17-9.11c.57-.37.92-1,.92-1.68s-.35-1.31-.92-1.68Z"/>
  <path class="cls-1" d="M22.15,21.61c-.6-.93-1.83-1.2-2.76-.6l-14.17,9.11c-.57.37-.92,1-.92,1.68s.35,1.31.92,1.68l14.17,9.11c.33.21.71.32,1.08.32.66,0,1.3-.32,1.68-.92.6-.93.33-2.17-.6-2.76l-11.56-7.43,11.56-7.43c.93-.6,1.2-1.83.6-2.76Z"/>
  <path class="cls-1" d="M35.44,16.72c-1.08-.24-2.15.43-2.39,1.51l-6.01,26.66c-.24,1.08.43,2.15,1.51,2.39.15.03.3.05.44.05.91,0,1.74-.63,1.95-1.56l6.01-26.66c.24-1.08-.43-2.15-1.51-2.39Z"/>
</svg>