<?xml version="1.0" encoding="UTF-8"?>
<svg id="Expanded_Icons" data-name="Expanded Icons" xmlns="http://www.w3.org/2000/svg" viewBox="0 0 64 64">
  <defs>
    <style>
      .cls-1 {
        fill-rule: evenodd;
      }

      .cls-1, .cls-2 {
        fill: #29b5e8;
        stroke-width: 0px;
      }
    </style>
  </defs>
  <path class="cls-2" d="M32.04,33.7c2.87,0,5.19-2.33,5.19-5.19s-2.33-5.19-5.19-5.19-5.19,2.33-5.19,5.19,2.33,5.19,5.19,5.19Z"/>
  <path class="cls-2" d="M42.29,45.05c.41,1.37-.77,2.56-2.21,2.56h-16.21c-1.43,0-2.61-1.18-2.21-2.56.94-3.17,3.68-7.78,10.27-7.78s9.41,4.6,10.35,7.78Z"/>
  <path class="cls-1" d="M30.2,6v6.87h-10.32c-4.81,0-8.71,3.9-8.71,8.71v27.7c0,4.81,3.9,8.71,8.71,8.71h24.24c4.81,0,8.71-3.9,8.71-8.71v-27.7c0-4.81-3.9-8.71-8.71-8.71h-10.35v-6.87h-3.57ZM14.74,21.58c0-2.84,2.3-5.14,5.14-5.14h24.24c2.84,0,5.14,2.3,5.14,5.14v27.7c0,2.84-2.3,5.14-5.14,5.14h-24.24c-2.84,0-5.14-2.3-5.14-5.14v-27.7Z"/>
</svg>