<?xml version="1.0" encoding="UTF-8"?>
<svg id="Expanded_Icons" data-name="Expanded Icons" xmlns="http://www.w3.org/2000/svg" viewBox="0 0 64 64">
  <defs>
    <style>
      .cls-1 {
        fill: #29b5e8;
        fill-rule: evenodd;
      }

      .cls-1, .cls-2, .cls-3 {
        stroke-width: 0px;
      }

      .cls-2 {
        fill: #11567f;
      }

      .cls-3 {
        fill: #fff;
      }
    </style>
  </defs>
  <rect class="cls-2" x="4" y="45.86" width="56" height="14.14" rx="3.96" ry="3.96"/>
  <path class="cls-3" d="M10.23,51.36h1.07l1.13,2.76h.05l1.13-2.76h1.07v4.11h-.84v-2.68h-.03l-1.06,2.66h-.57l-1.06-2.67h-.03v2.69h-.84v-4.11Z"/>
  <path class="cls-3" d="M16.29,55.47h-.93l1.42-4.11h1.12l1.42,4.11h-.93l-1.03-3.17h-.03l-1.03,3.17ZM16.23,53.86h2.2v.68h-2.2v-.68Z"/>
  <path class="cls-3" d="M19.32,52.08v-.72h3.38v.72h-1.26v3.4h-.86v-3.4h-1.26Z"/>
  <path class="cls-3" d="M23.42,55.47v-4.11h2.77v.72h-1.9v.98h1.76v.72h-1.76v.98h1.91v.72h-2.78Z"/>
  <path class="cls-3" d="M27.06,55.47v-4.11h1.62c.31,0,.58.06.8.17.22.11.39.27.5.47.12.2.17.44.17.71s-.06.51-.18.71c-.12.2-.29.35-.51.45-.22.1-.49.16-.81.16h-1.09v-.7h.95c.17,0,.3-.02.41-.07s.19-.11.25-.2c.05-.09.08-.2.08-.34s-.03-.25-.08-.35c-.05-.09-.14-.16-.25-.21-.11-.05-.25-.07-.42-.07h-.59v3.4h-.87ZM29.28,53.6l1.02,1.87h-.96l-1-1.87h.94Z"/>
  <path class="cls-3" d="M31.81,51.36v4.11h-.87v-4.11h.87Z"/>
  <path class="cls-3" d="M33.4,55.47h-.93l1.42-4.11h1.12l1.42,4.11h-.93l-1.03-3.17h-.03l-1.03,3.17ZM33.34,53.86h2.2v.68h-2.2v-.68Z"/>
  <path class="cls-3" d="M37.09,55.47v-4.11h.87v3.4h1.76v.72h-2.63Z"/>
  <path class="cls-3" d="M41.34,51.36v4.11h-.87v-4.11h.87Z"/>
  <path class="cls-3" d="M42.18,55.47v-.52l2.05-2.88h-2.06v-.72h3.15v.52l-2.05,2.88h2.06v.72h-3.15Z"/>
  <path class="cls-3" d="M46.17,55.47v-4.11h2.77v.72h-1.9v.98h1.76v.72h-1.76v.98h1.91v.72h-2.78Z"/>
  <path class="cls-3" d="M51.26,55.47h-1.46v-4.11h1.47c.41,0,.77.08,1.07.25.3.16.53.4.69.71.16.31.24.67.24,1.1s-.08.8-.24,1.1c-.16.31-.39.54-.69.71-.3.16-.66.25-1.08.25ZM50.67,54.73h.55c.26,0,.47-.05.65-.14.18-.09.31-.23.4-.43.09-.19.13-.44.13-.75s-.04-.55-.13-.75c-.09-.19-.22-.33-.4-.43-.18-.09-.39-.14-.65-.14h-.55v2.62Z"/>
  <path class="cls-1" d="M9.09,11.35c0-4.06,3.29-7.35,7.35-7.35h21.6c4.06,0,7.35,3.29,7.35,7.35v2.52h2.52c4.06,0,7.35,3.29,7.35,7.35v15.02c0,4.06-3.29,7.35-7.35,7.35h-21.6c-4.06,0-7.35-3.29-7.35-7.35v-2.52h-2.52c-4.06,0-7.35-3.29-7.35-7.35v-15.02ZM42,11.35v2.52h-15.68c-4.06,0-7.35,3.29-7.35,7.35v9.1h-2.52c-2.19,0-3.96-1.77-3.96-3.96v-15.02c0-2.19,1.77-3.96,3.96-3.96h21.6c2.19,0,3.96,1.77,3.96,3.96ZM26.32,17.27c-2.19,0-3.96,1.77-3.96,3.96v1.39h29.52v-1.39c0-2.19-1.77-3.96-3.96-3.96h-21.6ZM51.87,26.01h-29.52v10.23c0,2.19,1.77,3.96,3.96,3.96h21.6c2.19,0,3.96-1.77,3.96-3.96v-10.23Z"/>
</svg>