<?xml version="1.0" encoding="UTF-8"?>
<svg id="Expanded_Icons" data-name="Expanded Icons" xmlns="http://www.w3.org/2000/svg" viewBox="0 0 64 64">
  <defs>
    <style>
      .cls-1 {
        fill: #29b5e8;
        stroke-width: 0px;
      }
    </style>
  </defs>
  <path class="cls-1" d="M53.77,11.92h-8.33v-4.04c0-.69-.56-1.25-1.25-1.25s-1.25.56-1.25,1.25v4.04h-21.88v-4.04c0-.69-.56-1.25-1.25-1.25s-1.25.56-1.25,1.25v4.04h-8.33c-3.02,0-5.48,2.46-5.48,5.48v35.24c0,3.02,2.46,5.48,5.48,5.48h43.54c3.02,0,5.48-2.46,5.48-5.48V17.4c0-3.02-2.46-5.48-5.48-5.48ZM55.25,52.64c0,.8-.68,1.48-1.48,1.48H10.23c-.8,0-1.48-.68-1.48-1.48V17.4c0-.8.68-1.48,1.48-1.48h8.33v.61c0,.69.56,1.25,1.25,1.25s1.25-.56,1.25-1.25v-.61h21.88v.61c0,.69.56,1.25,1.25,1.25s1.25-.56,1.25-1.25v-.61h8.33c.8,0,1.48.68,1.48,1.48v35.24Z"/>
  <path class="cls-1" d="M49.41,25.08H14.59c-.69,0-1.25.56-1.25,1.25s.56,1.25,1.25,1.25h34.83c.69,0,1.25-.56,1.25-1.25s-.56-1.25-1.25-1.25Z"/>
  <path class="cls-1" d="M21.55,32.04h-6.97c-.69,0-1.25.56-1.25,1.25s.56,1.25,1.25,1.25h6.97c.69,0,1.25-.56,1.25-1.25s-.56-1.25-1.25-1.25Z"/>
  <path class="cls-1" d="M35.48,32.04h-6.96c-.69,0-1.25.56-1.25,1.25s.56,1.25,1.25,1.25h6.96c.69,0,1.25-.56,1.25-1.25s-.56-1.25-1.25-1.25Z"/>
  <path class="cls-1" d="M49.41,32.04h-6.97c-.69,0-1.25.56-1.25,1.25s.56,1.25,1.25,1.25h6.97c.69,0,1.25-.56,1.25-1.25s-.56-1.25-1.25-1.25Z"/>
  <path class="cls-1" d="M21.55,39.01h-6.97c-.69,0-1.25.56-1.25,1.25s.56,1.25,1.25,1.25h6.97c.69,0,1.25-.56,1.25-1.25s-.56-1.25-1.25-1.25Z"/>
  <path class="cls-1" d="M35.48,39.01h-6.96c-.69,0-1.25.56-1.25,1.25s.56,1.25,1.25,1.25h6.96c.69,0,1.25-.56,1.25-1.25s-.56-1.25-1.25-1.25Z"/>
  <path class="cls-1" d="M49.41,39.01h-6.97c-.69,0-1.25.56-1.25,1.25s.56,1.25,1.25,1.25h6.97c.69,0,1.25-.56,1.25-1.25s-.56-1.25-1.25-1.25Z"/>
  <path class="cls-1" d="M21.55,45.97h-6.97c-.69,0-1.25.56-1.25,1.25s.56,1.25,1.25,1.25h6.97c.69,0,1.25-.56,1.25-1.25s-.56-1.25-1.25-1.25Z"/>
  <path class="cls-1" d="M35.48,45.97h-6.96c-.69,0-1.25.56-1.25,1.25s.56,1.25,1.25,1.25h6.96c.69,0,1.25-.56,1.25-1.25s-.56-1.25-1.25-1.25Z"/>
  <path class="cls-1" d="M49.41,45.97h-6.97c-.69,0-1.25.56-1.25,1.25s.56,1.25,1.25,1.25h6.97c.69,0,1.25-.56,1.25-1.25s-.56-1.25-1.25-1.25Z"/>
</svg>