<?xml version="1.0" encoding="UTF-8"?>
<svg id="Expanded_Icons" data-name="Expanded Icons" xmlns="http://www.w3.org/2000/svg" viewBox="0 0 64 64">
  <defs>
    <style>
      .cls-1 {
        fill: #29b5e8;
        stroke-width: 0px;
      }
    </style>
  </defs>
  <path class="cls-1" d="M44.26,30.74c0-2.41-1.77-4.39-4.07-4.77v-5.49c0-.81-.39-1.48-1.03-1.81-.65-.33-1.47-.24-2.06.21-.44.3-6.43,3.87-10.15,6.08h-7.54c-1,0-1.86.53-2.35,1.32h-1.11c-1.57,0-2.85,1.28-2.85,2.85v3.12c0,1.57,1.28,2.85,2.85,2.85h1.1c.42.69,1.12,1.18,1.95,1.3.58,2.51,1.63,7.04,1.77,7.46.13.41.54,1.66,2.3,1.66h1.41c.75,0,1.34-.24,1.74-.72.42-.5.56-1.18.41-2.02l-.1-.51c-.23-1.15-.67-3.43-.57-5.83h.86l.06.04c3.71,2.2,9.77,5.81,10.2,6.1.37.28.81.42,1.24.42.29,0,.58-.06.84-.2.65-.32,1.03-1,1.03-1.81v-5.49c2.3-.37,4.07-2.36,4.07-4.77ZM19.13,27.73c0-.15.12-.27.27-.27h6.86v6.48h-6.86c-.15,0-.27-.12-.27-.27v-5.94ZM15.59,32.25v-3.12c0-.19.16-.35.35-.35h.69v3.82h-.69c-.19,0-.35-.16-.35-.35ZM24.07,42.75l.05.26h-1c-.13-.47-.92-3.87-1.55-6.57h1.88c-.1,2.65.38,5.07.62,6.31ZM28.76,34.69v-7.9c2.58-1.53,7.03-4.18,8.93-5.34v18.58c-1.9-1.16-6.34-3.8-8.93-5.34ZM37.69,41s0,0,0,0h1.25-1.25ZM40.19,32.94v-4.41c.91.32,1.57,1.18,1.57,2.21s-.66,1.88-1.57,2.21Z"/>
  <path class="cls-1" d="M49.57,29.57h-2.75c-.69,0-1.25.56-1.25,1.25s.56,1.25,1.25,1.25h2.75c.69,0,1.25-.56,1.25-1.25s-.56-1.25-1.25-1.25Z"/>
  <path class="cls-1" d="M45.14,27.49c.32,0,.64-.12.89-.37l1.94-1.95c.49-.49.48-1.28,0-1.77-.49-.49-1.28-.48-1.77,0l-1.94,1.95c-.49.49-.48,1.28,0,1.77.24.24.56.36.88.36Z"/>
  <path class="cls-1" d="M46.03,34.52c-.49-.49-1.28-.49-1.77,0-.49.49-.49,1.28,0,1.77l1.94,1.95c.24.25.57.37.89.37s.64-.12.88-.36c.49-.49.49-1.28,0-1.77l-1.94-1.95Z"/>
  <path class="cls-1" d="M31.95,4.16c-15.3,0-27.75,12.45-27.75,27.75s12.45,27.75,27.75,27.75,27.75-12.45,27.75-27.75S47.25,4.16,31.95,4.16ZM31.95,57.16c-13.92,0-25.25-11.33-25.25-25.25S18.03,6.66,31.95,6.66s25.25,11.33,25.25,25.25-11.33,25.25-25.25,25.25Z"/>
</svg>