<?xml version="1.0" encoding="UTF-8"?>
<svg id="Expanded_Icons" data-name="Expanded Icons" xmlns="http://www.w3.org/2000/svg" viewBox="0 0 64 64">
  <defs>
    <style>
      .cls-1 {
        fill: #29b5e8;
        stroke-width: 0px;
      }
    </style>
  </defs>
  <path class="cls-1" d="M15.12,27c.15,2.49,1.36,4.84,3.29,6.35.43.34.95.85,1.49,1.39,1.59,1.58,3.4,3.37,5.51,3.37s3.91-1.79,5.51-3.37c.54-.54,1.05-1.05,1.49-1.39,1.93-1.51,3.14-3.86,3.29-6.35l.06-.06c1.01-1.01,1.57-2.36,1.57-3.78v-.88c0-1.25-.42-2.43-1.2-3.38-.07-4.75-1.2-8.25-3.36-10.41-2.53-2.52-5.7-2.51-7.2-2.51h-.29c-1.51.01-4.67-.01-7.2,2.51-2.16,2.16-3.29,5.66-3.36,10.41-.78.95-1.2,2.13-1.2,3.38v.88c0,1.43.56,2.77,1.57,3.78l.06.06ZM15.99,22.27c0-.76.3-1.48.83-2.02.23-.23.37-.55.37-.88,0-4.31.89-7.38,2.63-9.12,1.72-1.72,3.96-1.78,5.26-1.78h.46c1.28,0,3.63,0,5.43,1.78,1.75,1.74,2.63,4.81,2.63,9.12,0,.33.13.65.37.88.54.54.83,1.25.83,2.02v.88c0,.76-.3,1.48-.83,2.02l-.41.41c-.23.23-.37.55-.37.88,0,1.93-.88,3.77-2.35,4.92-.55.43-1.11.99-1.71,1.58-1.19,1.18-2.67,2.65-3.75,2.65s-2.56-1.47-3.74-2.65c-.6-.59-1.16-1.15-1.71-1.58-1.47-1.15-2.35-2.99-2.35-4.92,0-.33-.13-.65-.37-.88l-.41-.41c-.54-.54-.84-1.25-.84-2.02v-.88Z"/>
  <path class="cls-1" d="M20.42,18.72c.17,0,.34-.03.5-.1,1.47-.64,2.27-1.71,2.66-2.79,1.55,1.16,3.92,2.48,6.73,2.48.69,0,1.25-.56,1.25-1.25s-.56-1.25-1.25-1.25c-3.78,0-6.74-3.32-6.77-3.35-.37-.42-.97-.54-1.48-.3-.51.24-.79.79-.69,1.35.04.21.3,2.07-1.45,2.83-.63.28-.92,1.01-.65,1.64.2.47.66.75,1.15.75Z"/>
  <path class="cls-1" d="M45.42,43.58c-.2-.48-.81-1.96-10.61-4.76-.41-.12-.85-.02-1.17.26l-3.67,3.23c-.52.46-.57,1.25-.11,1.76.46.52,1.25.57,1.76.11l3.16-2.77c3.62,1.07,7.62,2.54,8.37,3.22.33.89.5,2.5.63,3.69.05.51.1.97.16,1.34.09.62.62,1.07,1.24,1.07.06,0,.12,0,.18-.01.68-.1,1.16-.73,1.06-1.42-.05-.34-.09-.77-.15-1.25-.15-1.46-.35-3.28-.84-4.48Z"/>
  <path class="cls-1" d="M17.52,39.09c-.32-.28-.76-.38-1.17-.26-9.8,2.8-10.41,4.27-10.61,4.76-.48,1.16-.66,2.82-.81,4.29-.06.53-.11,1.03-.17,1.43-.11.68.36,1.32,1.04,1.43.07,0,.13.01.19.01.6,0,1.14-.44,1.23-1.06.07-.44.13-.97.19-1.55.13-1.18.28-2.64.6-3.49.75-.69,4.75-2.15,8.37-3.22l3.03,2.66c.52.46,1.31.4,1.76-.11s.4-1.31-.11-1.76l-3.54-3.11Z"/>
  <path class="cls-1" d="M58,7.7h-20.87c-.69,0-1.25.56-1.25,1.25s.56,1.25,1.25,1.25h19.62v27.5h-9.97c-.69,0-1.25.56-1.25,1.25s.56,1.25,1.25,1.25h11.22c.69,0,1.25-.56,1.25-1.25V8.95c0-.69-.56-1.25-1.25-1.25Z"/>
  <path class="cls-1" d="M39.59,33.27l4.25-6.35,2.79,1.48c.59.31,1.31.11,1.66-.46l6.1-10.17c.36-.59.16-1.36-.43-1.71-.59-.35-1.36-.16-1.71.43l-5.49,9.16-2.74-1.45c-.57-.3-1.27-.12-1.62.41l-4.88,7.29c-.38.57-.23,1.35.34,1.73.21.14.45.21.69.21.4,0,.8-.19,1.04-.55Z"/>
  <path class="cls-1" d="M26.82,41.17h-2.63c-.33,0-.65.15-.86.4-.21.25-.31.59-.25.92l.45,2.63c.09.54.56.94,1.11.94h1.74c.55,0,1.02-.4,1.11-.94l.45-2.63c.06-.33-.04-.66-.25-.92-.21-.25-.53-.4-.86-.4Z"/>
  <path class="cls-1" d="M25.49,47.91c-.69,0-1.25.56-1.25,1.25v7.63c0,.69.56,1.25,1.25,1.25s1.25-.56,1.25-1.25v-7.63c0-.69-.56-1.25-1.25-1.25Z"/>
</svg>