<?xml version="1.0" encoding="UTF-8"?>
<svg id="Expanded_Icons" data-name="Expanded Icons" xmlns="http://www.w3.org/2000/svg" viewBox="0 0 64 64">
  <defs>
    <style>
      .cls-1 {
        fill: #29b5e8;
        stroke-width: 0px;
      }
    </style>
  </defs>
  <path class="cls-1" d="M52.61,50.14c4.26-4.85,6.86-11.19,6.86-18.14s-2.79-13.78-7.35-18.69l4.23-4.23c.49-.49.49-1.28,0-1.77s-1.28-.49-1.77,0l-4.24,4.24c-4.87-4.38-11.31-7.06-18.37-7.06s-13.3,2.59-18.14,6.86l-4.04-4.04c-.49-.49-1.28-.49-1.77,0s-.49,1.28,0,1.77l4.01,4.01c-4.68,4.93-7.56,11.59-7.56,18.91s2.67,13.5,7.06,18.37l-3.51,3.51c-.49.49-.49,1.28,0,1.77.24.24.56.37.88.37s.64-.12.88-.37l3.5-3.5c4.91,4.56,11.48,7.35,18.69,7.35s13.97-2.88,18.91-7.56l3.71,3.71c.24.24.56.37.88.37s.64-.12.88-.37c.49-.49.49-1.28,0-1.77l-3.74-3.74ZM55.46,31.99c0,5.84-2.15,11.19-5.69,15.31l-4.83-4.83c2.31-2.86,3.7-6.49,3.7-10.45,0-4.24-1.6-8.1-4.21-11.04l4.86-4.86c3.83,4.18,6.18,9.75,6.18,15.86ZM19.31,32.03c0-3.24,1.23-6.18,3.23-8.42l7.87,7.87-8.38,8.38c-1.7-2.16-2.72-4.87-2.72-7.82ZM24.38,21.91c2.12-1.59,4.74-2.55,7.59-2.55s5.67,1.02,7.82,2.72l-7.62,7.62-7.79-7.79ZM32.18,33.24l8.22,8.22c-2.24,2-5.19,3.23-8.42,3.23s-6-1.15-8.21-3.04l8.41-8.41ZM33.95,31.47l7.66-7.66c1.89,2.21,3.04,5.08,3.04,8.21,0,2.85-.96,5.47-2.55,7.59l-8.15-8.15ZM31.96,8.49c5.95,0,11.39,2.23,15.54,5.89l-4.85,4.85c-2.89-2.42-6.61-3.88-10.67-3.88s-7.59,1.39-10.45,3.7l-4.87-4.87c4.12-3.54,9.46-5.69,15.31-5.69ZM8.46,31.99c0-6.22,2.43-11.87,6.39-16.08l4.86,4.86c-2.73,2.97-4.41,6.91-4.41,11.25,0,4.06,1.46,7.78,3.88,10.67l-4.83,4.83c-3.66-4.15-5.89-9.58-5.89-15.54ZM31.96,55.49c-6.11,0-11.68-2.34-15.86-6.18l4.83-4.83c2.94,2.61,6.8,4.21,11.04,4.21s8.28-1.68,11.25-4.41l4.82,4.82c-4.21,3.96-9.86,6.39-16.08,6.39Z"/>
</svg>