<?xml version="1.0" encoding="UTF-8"?>
<svg id="Expanded_Icons" data-name="Expanded Icons" xmlns="http://www.w3.org/2000/svg" viewBox="0 0 64 64">
  <defs>
    <style>
      .cls-1 {
        fill: #29b5e8;
        fill-rule: evenodd;
      }

      .cls-1, .cls-2, .cls-3 {
        stroke-width: 0px;
      }

      .cls-2 {
        fill: #11567f;
      }

      .cls-3 {
        fill: #fff;
      }
    </style>
  </defs>
  <rect class="cls-2" x="11.74" y="45.86" width="40.73" height="14.14" rx="3.96" ry="3.96"/>
  <path class="cls-3" d="M22.91,52.54c-.02-.16-.09-.29-.21-.38-.12-.09-.29-.13-.5-.13-.14,0-.26.02-.36.06-.1.04-.17.09-.23.16-.05.07-.08.15-.08.24,0,.07.01.14.05.19.03.05.08.1.14.14.06.04.13.07.21.1.08.03.16.05.25.07l.37.09c.18.04.34.09.49.16.15.07.28.15.39.25.11.1.19.21.26.35.06.13.09.28.09.46,0,.25-.07.47-.19.65-.13.18-.31.33-.55.43-.24.1-.52.15-.86.15s-.62-.05-.87-.15c-.25-.1-.44-.25-.57-.45-.14-.2-.21-.45-.21-.75h.84c0,.14.05.25.12.35.07.09.17.16.28.21.12.05.25.07.4.07s.28-.02.38-.06c.11-.04.19-.1.26-.18.06-.08.09-.16.09-.26,0-.09-.03-.17-.08-.23-.05-.06-.13-.12-.24-.16-.1-.04-.23-.08-.38-.12l-.45-.11c-.35-.08-.62-.22-.82-.4-.2-.18-.3-.42-.3-.73,0-.25.06-.47.2-.65.14-.19.32-.33.56-.44.24-.1.5-.16.8-.16s.57.05.8.16c.23.1.41.25.53.44.13.19.19.4.2.65h-.83Z"/>
  <path class="cls-3" d="M24.55,55.47v-4.11h2.77v.72h-1.9v.98h1.76v.72h-1.76v.98h1.91v.72h-2.78Z"/>
  <path class="cls-3" d="M31.81,52.8h-.88c-.02-.11-.05-.21-.1-.3-.05-.09-.11-.17-.19-.23-.08-.06-.17-.11-.27-.14-.1-.03-.21-.05-.33-.05-.21,0-.4.05-.56.16-.16.1-.28.26-.37.46-.09.2-.13.44-.13.73s.04.54.13.74c.09.2.21.35.37.45.16.1.34.15.55.15.12,0,.22-.02.32-.05.1-.03.19-.08.27-.13.08-.06.14-.13.19-.22.05-.09.09-.18.11-.29h.88c-.02.19-.08.37-.17.55-.09.17-.21.33-.36.47-.15.14-.33.25-.54.33-.21.08-.45.12-.71.12-.37,0-.7-.08-.98-.25-.29-.17-.52-.41-.68-.72-.17-.31-.25-.7-.25-1.14s.08-.83.25-1.14c.17-.31.4-.55.69-.72.29-.17.61-.25.98-.25.24,0,.46.03.66.1.2.07.39.16.54.29.16.13.29.28.39.47.1.18.16.4.19.63Z"/>
  <path class="cls-3" d="M35.15,51.36h.87v2.67c0,.3-.07.56-.21.79-.14.23-.34.4-.6.53-.26.12-.55.19-.89.19s-.64-.06-.9-.19c-.26-.13-.45-.3-.6-.53-.14-.22-.21-.49-.21-.79v-2.67h.87v2.6c0,.16.03.3.1.42.07.12.17.22.29.29.13.07.27.1.44.1s.32-.03.44-.1c.13-.07.22-.17.29-.29.07-.12.1-.26.1-.42v-2.6Z"/>
  <path class="cls-3" d="M36.9,55.47v-4.11h1.62c.31,0,.58.06.8.17.22.11.39.27.5.47.12.2.17.44.17.71s-.06.51-.18.71c-.12.2-.29.35-.51.45-.22.1-.49.16-.81.16h-1.09v-.7h.95c.17,0,.3-.02.41-.07.11-.05.19-.11.25-.2.05-.09.08-.2.08-.34s-.03-.25-.08-.35c-.05-.09-.14-.16-.25-.21-.11-.05-.25-.07-.42-.07h-.59v3.4h-.87ZM39.12,53.6l1.02,1.87h-.96l-1-1.87h.94Z"/>
  <path class="cls-3" d="M40.78,55.47v-4.11h2.77v.72h-1.9v.98h1.76v.72h-1.76v.98h1.91v.72h-2.78Z"/>
  <path class="cls-1" d="M8.91,11.35c0-4.06,3.29-7.35,7.35-7.35h21.6c4.06,0,7.35,3.29,7.35,7.35v2.52h2.52c4.06,0,7.35,3.29,7.35,7.35v15.02c0,4.06-3.29,7.35-7.35,7.35h-21.6c-4.06,0-7.35-3.29-7.35-7.35v-2.52h-2.52c-4.06,0-7.35-3.29-7.35-7.35v-15.02ZM41.82,11.35v2.52h-15.68c-4.06,0-7.35,3.29-7.35,7.35v9.1h-2.52c-2.19,0-3.96-1.77-3.96-3.96v-15.02c0-2.19,1.77-3.96,3.96-3.96h21.6c2.19,0,3.96,1.77,3.96,3.96ZM26.14,17.27c-2.19,0-3.96,1.77-3.96,3.96v1.39h29.52v-1.39c0-2.19-1.77-3.96-3.96-3.96h-21.6ZM51.69,26.01h-29.52v10.23c0,2.19,1.77,3.96,3.96,3.96h21.6c2.19,0,3.96-1.77,3.96-3.96v-10.23Z"/>
</svg>