<?xml version="1.0" encoding="UTF-8"?>
<svg id="Expanded_Icons" data-name="Expanded Icons" xmlns="http://www.w3.org/2000/svg" viewBox="0 0 64 64">
  <defs>
    <style>
      .cls-1 {
        fill: #29b5e8;
        stroke-width: 0px;
      }
    </style>
  </defs>
  <path class="cls-1" d="M41.43,7.2h.47c.69,0,1.25-.56,1.25-1.25s-.56-1.25-1.25-1.25h-.47c-.69,0-1.25.56-1.25,1.25s.56,1.25,1.25,1.25Z"/>
  <path class="cls-1" d="M26.63,56.76h-.96c-.69,0-1.25.56-1.25,1.25s.56,1.25,1.25,1.25h.96c.69,0,1.25-.56,1.25-1.25s-.56-1.25-1.25-1.25Z"/>
  <path class="cls-1" d="M33.37,56.76h-.96c-.69,0-1.25.56-1.25,1.25s.56,1.25,1.25,1.25h.96c.69,0,1.25-.56,1.25-1.25s-.56-1.25-1.25-1.25Z"/>
  <path class="cls-1" d="M19.88,56.76h-.96c-.69,0-1.25.56-1.25,1.25s.56,1.25,1.25,1.25h.96c.69,0,1.25-.56,1.25-1.25s-.56-1.25-1.25-1.25Z"/>
  <path class="cls-1" d="M13.14,56.76h-.55c-.11,0-.22,0-.33,0-.7-.06-1.28.48-1.33,1.17-.04.69.48,1.28,1.17,1.33.16.01.33.02.49.02h.55c.69,0,1.25-.56,1.25-1.25s-.56-1.25-1.25-1.25Z"/>
  <path class="cls-1" d="M46.85,56.76h-.96c-.69,0-1.25.56-1.25,1.25s.56,1.25,1.25,1.25h.96c.69,0,1.25-.56,1.25-1.25s-.56-1.25-1.25-1.25Z"/>
  <path class="cls-1" d="M7.08,48.93v-.96c0-.69-.56-1.25-1.25-1.25s-1.25.56-1.25,1.25v.96c0,.69.56,1.25,1.25,1.25s1.25-.56,1.25-1.25Z"/>
  <path class="cls-1" d="M47.68,7.2h.96c.69,0,1.25-.56,1.25-1.25s-.56-1.25-1.25-1.25h-.96c-.69,0-1.25.56-1.25,1.25s.56,1.25,1.25,1.25Z"/>
  <path class="cls-1" d="M7.8,53.93c-.34-.6-1.1-.81-1.7-.47-.6.34-.81,1.1-.47,1.7.19.33.4.65.63.95.25.32.62.49.99.49.27,0,.53-.08.76-.26.55-.42.65-1.21.23-1.75-.16-.21-.31-.43-.43-.66Z"/>
  <path class="cls-1" d="M40.11,56.76h-.96c-.69,0-1.25.56-1.25,1.25s.56,1.25,1.25,1.25h.96c.69,0,1.25-.56,1.25-1.25s-.56-1.25-1.25-1.25Z"/>
  <path class="cls-1" d="M57.88,24.36h0c-.69,0-1.25.56-1.25,1.25v.96c0,.69.55,1.25,1.24,1.25h0c.69,0,1.25-.56,1.25-1.25v-.96c0-.69-.55-1.25-1.24-1.25Z"/>
  <path class="cls-1" d="M59.12,12.01c-.06-.69-.67-1.18-1.36-1.13-.69.06-1.19.67-1.13,1.36.02.17.02.34.02.51v.33c0,.69.56,1.25,1.25,1.25h0c.69,0,1.25-.56,1.25-1.25v-.33c0-.25-.01-.5-.03-.75Z"/>
  <path class="cls-1" d="M57.86,31.1h0c-.69,0-1.25.56-1.25,1.25v.96c0,.69.55,1.25,1.24,1.25h0c.69,0,1.25-.56,1.25-1.25v-.96c0-.69-.55-1.25-1.24-1.25Z"/>
  <path class="cls-1" d="M57.89,17.61h0c-.69,0-1.25.56-1.25,1.25v.96c0,.69.55,1.25,1.24,1.25h0c.69,0,1.25-.56,1.25-1.25v-.96c0-.69-.55-1.25-1.24-1.25Z"/>
  <path class="cls-1" d="M57.84,37.84h0c-.69,0-1.25.56-1.25,1.25v.96c0,.69.56,1.25,1.25,1.25h0c.69,0,1.25-.56,1.25-1.25v-.96c0-.69-.56-1.25-1.25-1.25Z"/>
  <path class="cls-1" d="M53.07,56.37c-.24.1-.49.18-.75.24-.67.16-1.08.84-.92,1.51.14.57.65.96,1.21.96.1,0,.2-.01.3-.04.37-.09.73-.21,1.08-.35.64-.26.95-.98.7-1.62-.26-.64-.98-.95-1.62-.7Z"/>
  <path class="cls-1" d="M55.84,6.24c-.31-.22-.63-.43-.97-.61-.61-.32-1.37-.09-1.69.52-.32.61-.09,1.37.52,1.69.23.12.45.26.66.42.22.16.48.24.74.24.38,0,.76-.18,1.01-.51.41-.56.29-1.34-.27-1.75Z"/>
  <path class="cls-1" d="M57.83,44.58h0c-.69,0-1.25.56-1.25,1.25v.96c0,.69.55,1.25,1.24,1.25h0c.69,0,1.25-.56,1.25-1.25v-.96c0-.69-.55-1.25-1.24-1.25Z"/>
  <path class="cls-1" d="M57.92,51.34c-.67-.14-1.34.3-1.47.98-.05.25-.12.51-.21.76-.23.65.11,1.37.76,1.6.14.05.28.07.42.07.51,0,1-.32,1.18-.83.13-.36.23-.73.31-1.1.14-.68-.3-1.34-.98-1.47Z"/>
  <path class="cls-1" d="M5.83,40.4c-.69,0-1.25.56-1.25,1.25v.47c0,.69.56,1.25,1.25,1.25s1.25-.56,1.25-1.25v-.47c0-.69-.56-1.25-1.25-1.25Z"/>
  <path class="cls-1" d="M13.05,40.74h18.78c4.8,0,8.71-3.91,8.71-8.71V13.24c0-4.8-3.91-8.71-8.71-8.71H13.05c-4.8,0-8.71,3.91-8.71,8.71v18.79c0,4.8,3.91,8.71,8.71,8.71ZM8.34,13.24c0-2.6,2.11-4.71,4.71-4.71h18.78c2.6,0,4.71,2.11,4.71,4.71v18.79c0,2.6-2.11,4.71-4.71,4.71H13.05c-2.6,0-4.71-2.11-4.71-4.71V13.24Z"/>
  <path class="cls-1" d="M49.22,41.83c-.69,0-1.25.56-1.25,1.25v3.29l-6.2-6.27c-.49-.49-1.28-.5-1.77,0-.49.49-.49,1.28,0,1.77l6.17,6.24h-3.2c-.69,0-1.25.56-1.25,1.25s.56,1.25,1.25,1.25h6.26c.69,0,1.25-.56,1.25-1.25v-6.26c0-.69-.56-1.25-1.25-1.25Z"/>
</svg>