<?xml version="1.0" encoding="UTF-8"?>
<svg id="Expanded_Icons" data-name="Expanded Icons" xmlns="http://www.w3.org/2000/svg" viewBox="0 0 64 64">
  <defs>
    <style>
      .cls-1 {
        fill: #2ab5e8;
        fill-rule: evenodd;
        stroke-width: 0px;
      }
    </style>
  </defs>
  <path class="cls-1" d="M29.64,15.84c-3.21,0-6.17-1.21-8.84-2.31-4.07-1.67-6.7-2.6-9.38-.92-.83.52-1.93.28-2.46-.55-.4-.63-.36-1.44.09-2.03C15.35,1.65,22.16,3.97,27.62,5.84c4.55,1.55,8.49,2.89,12.45-.62.73-.65,1.86-.59,2.51.15.56.63.6,1.56.1,2.23-4.67,6.35-9.05,8.24-13.05,8.24ZM16.22,8.33c2.06.33,4.06,1.15,5.94,1.91,4.12,1.69,7.84,3.21,12.04.75-2.68-.08-5.28-.96-7.72-1.8-3.8-1.29-7.05-2.4-10.26-.87Z"/>
  <path class="cls-1" d="M25.29,45.86h-3.42c-.98,0-1.78-.8-1.78-1.78s.8-1.78,1.78-1.78h3.42c.98,0,1.78.8,1.78,1.78s-.8,1.78-1.78,1.78Z"/>
  <path class="cls-1" d="M25.29,52.68h-3.42c-.98,0-1.78-.8-1.78-1.78s.8-1.78,1.78-1.78h3.42c.98,0,1.78.8,1.78,1.78s-.8,1.78-1.78,1.78Z"/>
  <path class="cls-1" d="M38.97,45.86h-3.42c-.98,0-1.78-.8-1.78-1.78s.8-1.78,1.78-1.78h3.42c.98,0,1.78.8,1.78,1.78s-.8,1.78-1.78,1.78h0Z"/>
  <path class="cls-1" d="M38.97,52.68h-3.42c-.98,0-1.78-.8-1.78-1.78s.8-1.78,1.78-1.78h3.42c.98,0,1.78.8,1.78,1.78s-.8,1.78-1.78,1.78h0Z"/>
  <path class="cls-1" d="M52.65,45.86h-3.42c-.98,0-1.78-.8-1.78-1.78s.8-1.78,1.78-1.78h3.42c.98,0,1.78.8,1.78,1.78s-.8,1.78-1.78,1.78Z"/>
  <path class="cls-1" d="M52.65,52.68h-3.42c-.98,0-1.78-.8-1.78-1.78s.8-1.78,1.78-1.78h3.42c.98,0,1.78.8,1.78,1.78s-.8,1.78-1.78,1.78Z"/>
  <path class="cls-1" d="M58.36,59.5H5.92c-.98,0-1.78-.8-1.78-1.78v-17.73c0-.08,0-.16.02-.24l3.28-23.21c.12-.88.88-1.53,1.77-1.53h5.46c.84,0,1.57.58,1.74,1.41l3.84,18.46,9.79-6.34c.82-.53,1.93-.3,2.46.52.19.29.29.63.29.97v4.72l11.07-6.21c.86-.48,1.94-.18,2.43.67.15.27.23.57.23.87v4.69l10.97-6.28c.85-.49,1.94-.2,2.43.65.16.27.24.58.24.89v27.7c0,.98-.8,1.78-1.78,1.78ZM7.7,55.95h48.88v-22.86l-10.97,6.28c-.85.49-1.94.2-2.43-.65-.16-.27-.24-.58-.24-.89v-4.72l-11.07,6.21c-.86.48-1.94.18-2.43-.68-.15-.27-.23-.57-.23-.87v-4.48l-9.22,5.97c-.82.54-1.93.31-2.47-.51-.12-.19-.21-.4-.25-.61l-4.08-19.58h-2.45l-3.04,21.56v15.83Z"/>
</svg>