<?xml version="1.0" encoding="UTF-8"?>
<svg id="Expanded_Icons" data-name="Expanded Icons" xmlns="http://www.w3.org/2000/svg" viewBox="0 0 64 64">
  <defs>
    <style>
      .cls-1 {
        fill: #29b5e8;
        stroke-width: 0px;
      }
    </style>
  </defs>
  <path class="cls-1" d="M36.71,9.75c-.98-1.7-2.74-2.72-4.71-2.72s-3.73,1.02-4.71,2.72L4.74,48.81c-.98,1.7-.98,3.73,0,5.44.98,1.7,2.74,2.72,4.71,2.72h45.11c1.97,0,3.72-1.02,4.71-2.72.98-1.7.98-3.73,0-5.44L36.71,9.75ZM55.53,52.1c-.1.17-.39.56-.98.56H9.45c-.59,0-.88-.4-.98-.56-.1-.17-.29-.62,0-1.13L31.02,11.9c.29-.51.78-.57.98-.57s.68.06.98.57l22.55,39.06c.29.51.1.96,0,1.13Z"/>
  <path class="cls-1" d="M32.06,43.8c-1.19,0-2.16.99-2.16,2.2s.97,2.23,2.16,2.23,2.2-1,2.2-2.23-.99-2.2-2.2-2.2Z"/>
  <polygon class="cls-1" points="33.36 41.52 34.11 22.98 29.89 22.98 30.64 41.52 33.36 41.52"/>
</svg>