<?xml version="1.0" encoding="UTF-8"?>
<svg id="Expanded_Icons" data-name="Expanded Icons" xmlns="http://www.w3.org/2000/svg" viewBox="0 0 64 64">
  <defs>
    <style>
      .cls-1 {
        fill: #29b5e8;
        stroke-width: 0px;
      }
    </style>
  </defs>
  <path class="cls-1" d="M25.3,18.32l8.84,10.1c.24.27.58.43.94.43h.01c.36,0,.71-.17.94-.45l8.9-10.62c.07-.08.13-.17.17-.27.9-1.27,1.37-2.74,1.37-4.26,0-4.1-3.33-7.43-7.43-7.43-1.49,0-2.93.46-4.16,1.3-1.23-.84-2.67-1.3-4.16-1.3-4.1,0-7.43,3.33-7.43,7.43,0,1.83.68,3.59,1.92,4.96.03.04.05.07.09.11ZM30.73,8.32c1.22,0,2.4.46,3.32,1.31.48.44,1.21.44,1.69,0,.92-.85,2.1-1.31,3.32-1.31,2.72,0,4.93,2.21,4.93,4.93,0,1.06-.35,2.09-1.02,2.97-.04.05-.07.1-.1.15l-7.8,9.31-7.75-8.86c-.04-.06-.09-.12-.14-.18-.88-.93-1.37-2.13-1.37-3.39,0-2.72,2.21-4.93,4.93-4.93Z"/>
  <path class="cls-1" d="M57.71,27.53c-1.86-1.62-4.7-1.42-6.27.39l-6.37,6.55c-.82-.97-2.03-1.6-3.4-1.6h-11.75c-1.11-.45-5.44-1.97-9.83-.4-4.03,1.44-6.78,3.73-8.21,6.79-1.16-.12-2.37.25-3.26,1.14l-2.69,2.69c-.76.76-1.18,1.78-1.18,2.86s.42,2.09,1.18,2.86l8.19,8.19c.79.79,1.82,1.18,2.86,1.18s2.07-.39,2.86-1.18l2.69-2.69c.76-.76,1.18-1.78,1.18-2.86,0-.27-.03-.53-.08-.79l1.25-1.25c.69-.69,1.26-.92,3.24-.92h13.11c3.29,0,5.83-1.18,7.78-3.59l9.13-11.05c1.62-1.86,1.42-4.69-.44-6.31ZM20.76,52.54l-2.69,2.69c-.6.6-1.58.6-2.18,0l-8.19-8.19c-.29-.29-.45-.68-.45-1.09s.16-.8.45-1.09l2.69-2.69c.6-.6,1.58-.6,2.18,0l8.19,8.19c.29.29.45.68.45,1.09s-.16.8-.45,1.09ZM56.25,32.23l-9.16,11.08c-1.49,1.85-3.29,2.67-5.84,2.67h-13.11c-2.23,0-3.61.26-5.01,1.66l-.77.77-8.01-8.01c-.05-.05-.11-.09-.17-.14,1.16-2.41,3.42-4.25,6.77-5.44,4-1.43,8.17.41,8.21.43.16.08.34.11.52.11h12c1.09,0,1.98.89,1.98,1.97s-.89,1.98-1.98,1.98h-8.78c-.69,0-1.25.56-1.25,1.25s.56,1.25,1.25,1.25h8.78c2.47,0,4.48-2.01,4.48-4.48,0-.12-.03-.24-.04-.36l7.17-7.37c.71-.82,1.96-.91,2.79-.2s.91,1.96.18,2.81Z"/>
</svg>