<?xml version="1.0" encoding="UTF-8"?>
<svg id="Expanded_Icons" data-name="Expanded Icons" xmlns="http://www.w3.org/2000/svg" viewBox="0 0 64 64">
  <defs>
    <style>
      .cls-1 {
        fill: #29b5e8;
        stroke-width: 0px;
      }
    </style>
  </defs>
  <path class="cls-1" d="M38.54,27.89c-.2-.44-.65-.73-1.14-.73h-10.91c-.49,0-.93.28-1.14.73,0,0-4.09,8.88-6.34,13.77-.62,1.35-.56,2.9.17,4.04.64,1,1.73,1.57,2.99,1.57h19.53c1.26,0,2.35-.57,2.99-1.57.73-1.14.8-2.69.17-4.04-2.26-4.89-6.34-13.77-6.34-13.77ZM42.61,44.35c-.18.28-.47.42-.89.42h-19.53c-.42,0-.71-.14-.89-.42-.27-.42-.27-1.08,0-1.65,1.87-4.05,4.99-10.83,6.01-13.04h9.31c1.02,2.22,4.14,9,6.01,13.04.26.57.26,1.23,0,1.65Z"/>
  <path class="cls-1" d="M24.76,25.23c0,.41.34.75.75.75h13.05c.41,0,.75-.34.75-.75s-.34-.75-.75-.75h-13.05c-.41,0-.75.34-.75.75Z"/>
  <path class="cls-1" d="M28.05,23.47s.05,0,.08,0h2.61c.22,0,.44-.1.58-.27s.2-.4.16-.62c-.67-3.37-2.6-5.51-5.14-5.72-1.85-.15-3.55.81-4.12,2.34-.25.66-.19,1.32.17,1.9,1.14,1.84,5.22,2.32,5.68,2.37ZM23.61,19.73c.33-.89,1.42-1.46,2.6-1.37,1.62.13,2.92,1.46,3.57,3.62h-1.61c-1.57-.17-3.98-.79-4.52-1.66-.08-.13-.14-.3-.04-.58Z"/>
  <path class="cls-1" d="M33.25,23.48h2.61s.05,0,.08,0c.46-.05,4.54-.53,5.68-2.37.36-.58.41-1.24.17-1.9-.57-1.53-2.26-2.49-4.12-2.34-2.55.21-4.47,2.34-5.14,5.72-.04.22.01.45.16.62s.36.27.58.27ZM37.77,18.36c1.17-.09,2.26.48,2.6,1.37.11.29.04.46-.04.58-.54.87-2.95,1.49-4.52,1.66h-1.61c.65-2.15,1.95-3.49,3.57-3.62Z"/>
  <path class="cls-1" d="M32.81,36.66l-.73-.36c-1.3-.64-1.48-.77-1.48-1.41,0-1.07,1.16-1.15,1.51-1.15.45,0,1.48.11,1.48,1.15,0,.41.34.75.75.75s.75-.34.75-.75c0-1.35-.87-2.32-2.23-2.58v-.44c0-.41-.34-.75-.75-.75s-.75.34-.75.75v.45c-1.36.26-2.26,1.25-2.26,2.58,0,1.61,1.02,2.12,2.32,2.76l.73.36c1.3.64,1.48.77,1.48,1.41,0,1.03-1.06,1.14-1.52,1.14s-1.51-.11-1.51-1.14c0-.41-.34-.75-.75-.75s-.75.34-.75.75c0,1.35.89,2.31,2.26,2.56v.46c0,.41.34.75.75.75s.75-.34.75-.75v-.46c1.38-.26,2.27-1.22,2.27-2.56,0-1.61-1.02-2.12-2.32-2.76Z"/>
  <path class="cls-1" d="M31.95,4.16c-15.3,0-27.75,12.45-27.75,27.75s12.45,27.75,27.75,27.75,27.75-12.45,27.75-27.75S47.25,4.16,31.95,4.16ZM31.95,57.16c-13.92,0-25.25-11.33-25.25-25.25S18.03,6.66,31.95,6.66s25.25,11.33,25.25,25.25-11.33,25.25-25.25,25.25Z"/>
</svg>