<?xml version="1.0" encoding="UTF-8"?>
<svg id="Expanded_Icons" data-name="Expanded Icons" xmlns="http://www.w3.org/2000/svg" viewBox="0 0 64 64">
  <defs>
    <style>
      .cls-1 {
        fill: #29b5e8;
        stroke-width: 0px;
      }
    </style>
  </defs>
  <path class="cls-1" d="M43.24,25.39c0-7.62-6.2-13.82-13.82-13.82s-13.82,6.2-13.82,13.82,6.2,13.82,13.82,13.82,13.82-6.2,13.82-13.82ZM31.39,36.53c-.42.07-.84.12-1.27.15v-4.58c1.43.01,2.83.06,4.19.14-.73,1.95-1.74,3.47-2.91,4.29ZM24.54,32.24c1.32-.08,2.68-.12,4.07-.14v4.57c-.39-.03-.78-.07-1.16-.14-1.17-.82-2.19-2.34-2.91-4.29ZM18.14,26.14h3.77c.05,1.69.27,3.29.63,4.74-.97.08-1.91.18-2.82.3-.9-1.5-1.46-3.21-1.58-5.05ZM19.72,19.6c.91.12,1.85.22,2.82.3-.36,1.45-.58,3.05-.63,4.74h-3.77c.12-1.84.68-3.55,1.58-5.05ZM27.46,14.26c.38-.07.76-.11,1.16-.14v4.57c-1.39-.01-2.75-.06-4.07-.14.73-1.95,1.74-3.47,2.91-4.29ZM34.3,18.54c-1.36.08-2.76.13-4.19.14v-4.58c.43.03.86.07,1.27.15,1.17.82,2.19,2.34,2.91,4.29ZM40.7,24.64h-3.76c-.05-1.69-.27-3.29-.63-4.75.97-.08,1.91-.18,2.82-.3.9,1.5,1.46,3.21,1.58,5.05ZM35.44,24.64h-5.33v-4.46c1.59-.01,3.15-.06,4.66-.16.38,1.41.61,2.98.67,4.62ZM28.61,20.18v4.46h-5.21c.06-1.65.29-3.21.67-4.62,1.47.1,2.99.15,4.54.16ZM23.4,26.14h5.21v4.46c-1.55.01-3.07.06-4.54.16-.38-1.41-.61-2.98-.67-4.62ZM30.11,30.6v-4.46h5.33c-.06,1.65-.29,3.21-.67,4.62-1.51-.1-3.07-.15-4.66-.16ZM36.94,26.14h3.76c-.12,1.84-.68,3.55-1.58,5.05-.91-.12-1.84-.22-2.82-.3.36-1.45.58-3.05.63-4.75ZM38.16,18.21c-.74.09-1.5.16-2.29.22-.42-1.22-.94-2.31-1.55-3.22,1.48.72,2.8,1.74,3.83,3ZM24.52,15.2c-.61.92-1.13,2.01-1.55,3.23-.78-.06-1.55-.14-2.29-.22,1.04-1.26,2.35-2.29,3.84-3ZM20.68,32.58c.74-.09,1.51-.16,2.29-.22.42,1.22.94,2.31,1.55,3.23-1.49-.72-2.8-1.74-3.84-3ZM34.33,35.58c.61-.91,1.13-2,1.55-3.22.78.06,1.55.14,2.29.22-1.04,1.26-2.35,2.28-3.83,3Z"/>
  <path class="cls-1" d="M55,36.82c-1.84-3.61-3.84-7.65-4.21-8.58.35-6.75-1.76-12.89-5.94-17.33-4.03-4.27-9.68-6.63-15.91-6.63-10.91,0-20.84,9.61-20.84,20.16,0,7.38,2.13,11.25,4.21,14.05,2.6,3.5,2.51,5.2,2.42,7.01v.07c-.04.69.49,1.24,1.18,1.28.7.01,1.28-.53,1.31-1.22.11-2.07.23-4.42-2.91-8.63-1.93-2.6-3.72-5.92-3.72-12.56,0-9.08,8.92-17.66,18.34-17.66,5.54,0,10.54,2.07,14.09,5.84,3.75,3.98,5.62,9.56,5.25,15.7-.02.4-.04.74,4.5,9.67.52.95.42,1.31.42,1.31-.04.04-.3.17-.89.17h-2.75c-.69,0-1.25.56-1.25,1.25v7.79c0,1.52-1.21,1.75-1.69,1.78l-7.16.14c-.68.01-1.23.57-1.23,1.25v6.8c0,.69.56,1.25,1.25,1.25s1.25-.56,1.25-1.25v-5.57l5.98-.11c2.41-.14,4.09-1.9,4.09-4.28v-6.54h1.5c1.83,0,2.66-.75,3.04-1.39.59-.98.46-2.26-.35-3.76Z"/>
</svg>