<?xml version="1.0" encoding="UTF-8"?>
<svg id="Expanded_Icons" data-name="Expanded Icons" xmlns="http://www.w3.org/2000/svg" viewBox="0 0 64 64">
  <defs>
    <style>
      .cls-1 {
        fill: #29b5e8;
        stroke-width: 0px;
      }
    </style>
  </defs>
  <path class="cls-1" d="M17.13,32.02h29.74c.69,0,1.25-.56,1.25-1.25V11.45c0-.69-.56-1.25-1.25-1.25h-29.74c-.69,0-1.25.56-1.25,1.25v19.31c0,.69.56,1.25,1.25,1.25ZM18.38,12.7h27.24v16.81h-27.24V12.7Z"/>
  <path class="cls-1" d="M57.79,12.77h-3.78v-4.5c0-1.94-1.58-3.52-3.52-3.52H13.5c-1.94,0-3.52,1.58-3.52,3.52v4.5h-3.78c-.69,0-1.25.56-1.25,1.25v11.72c0,.69.56,1.25,1.25,1.25h3.78v21.74c0,1.94,1.25,3.58,2.98,4.2v3.9c0,1.33,1.08,2.41,2.41,2.41h3.6c1.33,0,2.41-1.08,2.41-2.41v-3.62h21.24v3.62c0,1.33,1.08,2.41,2.41,2.41h3.6c1.33,0,2.41-1.08,2.41-2.41v-3.9c1.73-.62,2.98-2.26,2.98-4.2v-21.74h3.78c.69,0,1.25-.56,1.25-1.25v-11.72c0-.69-.56-1.25-1.25-1.25ZM7.46,24.5v-9.22h2.53v9.22h-2.53ZM15.46,53.21h3.42v3.53h-3.42v-3.53ZM45.12,53.21h3.42v3.53h-3.42v-3.53ZM51.51,48.73c0,1.09-.89,1.97-1.97,1.97H14.46c-1.09,0-1.97-.89-1.97-1.97V8.28c0-.56.46-1.02,1.02-1.02h37c.56,0,1.02.46,1.02,1.02v40.45ZM56.54,24.5h-2.53v-9.22h2.53v9.22Z"/>
  <path class="cls-1" d="M23.89,39.83h-5.63c-2,0-3.62,1.62-3.62,3.62s1.62,3.62,3.62,3.62h5.63c.69,0,1.25-.56,1.25-1.25v-4.74c0-.69-.56-1.25-1.25-1.25ZM18.27,42.33h4.38v2.24h-4.38c-.62,0-1.12-.5-1.12-1.12s.5-1.12,1.12-1.12Z"/>
  <path class="cls-1" d="M45.73,39.83h-5.63c-.69,0-1.25.56-1.25,1.25v4.74c0,.69.56,1.25,1.25,1.25h5.63c2,0,3.62-1.62,3.62-3.62s-1.62-3.62-3.62-3.62ZM41.36,42.33h4.38c.62,0,1.12.5,1.12,1.12s-.5,1.12-1.12,1.12h-4.38v-2.24Z"/>
</svg>