<?xml version="1.0" encoding="UTF-8"?>
<svg id="Expanded_Icons" data-name="Expanded Icons" xmlns="http://www.w3.org/2000/svg" viewBox="0 0 64 64">
  <defs>
    <style>
      .cls-1 {
        fill-rule: evenodd;
      }

      .cls-1, .cls-2 {
        fill: #29b5e8;
      }

      .cls-1, .cls-2, .cls-3, .cls-4 {
        stroke-width: 0px;
      }

      .cls-3 {
        fill: #11567f;
      }

      .cls-4 {
        fill: #fff;
      }
    </style>
  </defs>
  <path class="cls-2" d="M41.75,28.04c.31,0,.57-.25.57-.57v-2.26c0-.31-.25-.57-.57-.57h-19.49c-.31,0-.57.25-.57.57v2.26c0,.31.25.57.57.57h19.49Z"/>
  <path class="cls-1" d="M56.04,30.98v-11.16c0-1.76-.63-3.45-1.77-4.79l-7.26-8.47c-1.4-1.63-3.44-2.57-5.58-2.57h-18.86c-2.15,0-4.19.94-5.58,2.57l-7.26,8.47c-1.14,1.33-1.77,3.03-1.77,4.79v11.16c0,4.06,3.29,7.35,7.35,7.35h33.37c4.06,0,7.35-3.29,7.35-7.35ZM22.57,7.39c-1.16,0-2.25.51-3.01,1.38l-4.76,5.55c.17-.01.34-.02.51-.02h33.37c.17,0,.34,0,.51.02l-4.76-5.55c-.75-.88-1.85-1.38-3.01-1.38h-18.86ZM11.35,21.67c0-2.19,1.77-3.96,3.96-3.96h33.37c2.19,0,3.96,1.77,3.96,3.96v9.31c0,2.19-1.77,3.96-3.96,3.96H15.31c-2.19,0-3.96-1.77-3.96-3.96v-9.31Z"/>
  <rect class="cls-3" x="9.66" y="43.03" width="44.69" height="16.97" rx="3.96" ry="3.96"/>
  <path class="cls-4" d="M16.45,53.78v-4.11h2.77v.72h-1.9v.98h1.76v.72h-1.76v.98h1.91v.72h-2.78Z"/>
  <path class="cls-4" d="M20.9,49.66l.83,1.4h.03l.83-1.4h.98l-1.26,2.06,1.28,2.06h-1l-.84-1.4h-.03l-.84,1.4h-1l1.29-2.06-1.26-2.06h.99Z"/>
  <path class="cls-4" d="M24.14,50.38v-.72h3.38v.72h-1.26v3.4h-.86v-3.4h-1.26Z"/>
  <path class="cls-4" d="M28.24,53.78v-4.11h2.77v.72h-1.9v.98h1.76v.72h-1.76v.98h1.91v.72h-2.78Z"/>
  <path class="cls-4" d="M31.88,53.78v-4.11h1.62c.31,0,.58.06.8.17.22.11.39.27.5.47.12.2.17.44.17.71s-.06.51-.18.71c-.12.2-.29.35-.51.45-.22.1-.49.16-.81.16h-1.09v-.7h.95c.17,0,.3-.02.41-.07.11-.05.19-.11.25-.2.05-.09.08-.2.08-.34s-.03-.25-.08-.35c-.05-.09-.14-.16-.25-.21-.11-.05-.25-.07-.42-.07h-.59v3.4h-.87ZM34.1,51.91l1.02,1.87h-.96l-1-1.87h.94Z"/>
  <path class="cls-4" d="M39.2,49.66v4.11h-.75l-1.79-2.59h-.03v2.59h-.87v-4.11h.76l1.78,2.59h.04v-2.59h.87Z"/>
  <path class="cls-4" d="M40.8,53.78h-.93l1.42-4.11h1.12l1.42,4.11h-.93l-1.03-3.17h-.03l-1.03,3.17ZM40.74,52.16h2.2v.68h-2.2v-.68Z"/>
  <path class="cls-4" d="M44.49,53.78v-4.11h.87v3.4h1.76v.72h-2.63Z"/>
</svg>