<?xml version="1.0" encoding="UTF-8"?>
<svg id="Expanded_Icons" data-name="Expanded Icons" xmlns="http://www.w3.org/2000/svg" viewBox="0 0 64 64">
  <defs>
    <style>
      .cls-1 {
        fill: #29b5e8;
        stroke-width: 0px;
      }
    </style>
  </defs>
  <path class="cls-1" d="M35.01,20.56c.64.27,1.37-.04,1.63-.68,1.33-3.25,3.95-3.25,5.39-3.25h.24c.98,0,2.81,0,4.18,1.36,1.35,1.35,2.04,3.75,2.04,7.14,0,.33.13.65.37.88.39.38.6.9.6,1.44v.71c0,.54-.21,1.06-.6,1.44l-.33.33c-.23.23-.36.55-.36.88,0,1.47-.67,2.87-1.79,3.75-.45.35-.91.81-1.39,1.28-.87.87-2.07,2.05-2.83,2.05s-1.96-1.19-2.83-2.05c-.48-.48-.94-.93-1.39-1.28-.54-.43-1.33-.33-1.75.21-.43.54-.33,1.33.21,1.75.34.26.74.67,1.17,1.09,1.31,1.3,2.8,2.78,4.59,2.78s3.28-1.48,4.59-2.78c.43-.43.83-.83,1.17-1.09,1.58-1.24,2.58-3.15,2.73-5.18.85-.85,1.31-1.99,1.31-3.19v-.71c0-1.03-.34-2.01-.97-2.8-.07-3.84-1-6.67-2.77-8.44-2.1-2.1-4.81-2.08-5.95-2.09h-.23c-1.55,0-5.74-.01-7.71,4.8-.26.64.04,1.37.68,1.63Z"/>
  <path class="cls-1" d="M36.66,22.88c-.63.28-.92,1.01-.65,1.64.2.47.66.75,1.15.75.17,0,.34-.03.5-.1,1.48-.64,2.28-1.72,2.67-2.8,1.55,1.17,3.93,2.49,6.75,2.49.69,0,1.25-.56,1.25-1.25s-.56-1.25-1.25-1.25c-3.79,0-6.76-3.33-6.79-3.36-.37-.42-.97-.54-1.48-.3-.51.24-.79.79-.69,1.35.04.21.3,2.08-1.46,2.84Z"/>
  <path class="cls-1" d="M59.12,48.46c-.13-1.19-.28-2.67-.69-3.66-.19-.46-.69-1.68-8.67-3.96-.41-.12-.85-.02-1.17.26l-7.06,6.21c-.52.46-.57,1.25-.11,1.76s1.24.57,1.76.11l6.55-5.75c2.74.82,5.76,1.92,6.44,2.46.24.7.37,1.92.47,2.83.04.41.08.79.13,1.09.09.62.62,1.07,1.24,1.07.06,0,.12,0,.18-.01.68-.1,1.16-.73,1.06-1.42-.04-.27-.08-.62-.12-.99Z"/>
  <path class="cls-1" d="M22.06,37.81c-.43.14-.89.12-1.31-.05-1.43-.61-4.79-2.68-5.25-8.78-.05-.69-.65-1.22-1.34-1.15-.69.05-1.2.65-1.15,1.34.56,7.47,4.92,10.1,6.77,10.89.54.23,1.12.35,1.7.35.46,0,.92-.07,1.37-.22,1.77-.59,6.05-2.68,7.49-9.4.15-.67-.29-1.34-.96-1.48-.2-.04-.4-.02-.58.03.07-.12.13-.25.16-.4.14-.68-.29-1.34-.97-1.48-5.18-1.08-7.17-4.87-7.25-5.03-.22-.45-.69-.69-1.2-.68-.5.03-.94.36-1.1.84-.03.07-.67,1.83-3.14,2.92-.63.28-.92,1.02-.64,1.65.28.63,1.02.92,1.65.64,1.62-.71,2.69-1.67,3.38-2.52,1.31,1.58,3.78,3.79,7.8,4.63.09.02.17.03.26.03.11,0,.22-.03.33-.06-.07.12-.14.25-.17.39-1.17,5.45-4.47,7.09-5.83,7.55Z"/>
  <path class="cls-1" d="M37.85,44.79c-.19-.46-.69-1.68-8.67-3.96-.41-.12-.85-.02-1.17.26l-6.3,5.54-6.3-5.54c-.32-.28-.76-.38-1.17-.26-7.98,2.28-8.48,3.5-8.67,3.96-.43,1.06-.59,2.53-.72,3.83-.03.3-.06.59-.09.85-.08.69.4,1.31,1.09,1.39.05,0,.1,0,.15,0,.62,0,1.16-.46,1.24-1.1.03-.27.06-.58.1-.9.1-1.01.23-2.25.49-2.99.69-.54,3.7-1.64,6.44-2.46l6.55,5.75c.24.21.54.3.84.3.02,0,.03,0,.05,0,.02,0,.04,0,.06,0,.29,0,.59-.09.83-.3l6.55-5.75c2.75.82,5.76,1.92,6.44,2.46.31.88.45,2.38.55,3.49l.03.36c.06.65.61,1.13,1.24,1.13.04,0,.08,0,.12,0,.69-.06,1.19-.67,1.13-1.36l-.03-.36c-.13-1.41-.29-3.16-.78-4.36Z"/>
  <path class="cls-1" d="M10.61,37.8c1.33,1.45,3.49,1.81,3.74,1.85.69.1,1.31-.37,1.42-1.05.1-.68-.36-1.32-1.04-1.42-.42-.07-1.65-.39-2.26-1.05-.33-.49-.26-2.85.14-4.96.03-.16.03-.32,0-.47-.02-.1-1.9-10.06,3.63-13.9,3.17-2.2,4.97-.68,5.15-.51.35.35.89.46,1.34.27.47-.18,4.61-1.66,6.7,3.1.73,1.68,1.34,7.8,1.57,11.56.23,2.13.1,4.49-.24,4.93-.77.71-2.41,1.28-2.98,1.44-.66.19-1.05.88-.87,1.54.15.55.66.91,1.2.91.11,0,.22-.01.34-.05.27-.07,2.65-.76,4-2.01,1.47-1.36,1.22-5.37,1.04-6.98-.06-.99-.62-9.74-1.77-12.35-2.26-5.16-6.68-5.37-9.22-4.65-1.47-.95-4.3-1.61-7.69.75-6.39,4.45-5,14.45-4.7,16.19-.32,1.76-.79,5.46.5,6.87Z"/>
</svg>