<?xml version="1.0" encoding="UTF-8"?>
<svg id="Expanded_Icons" data-name="Expanded Icons" xmlns="http://www.w3.org/2000/svg" viewBox="0 0 64 64">
  <defs>
    <style>
      .cls-1 {
        fill: #29b5e8;
      }

      .cls-1, .cls-2, .cls-3 {
        stroke-width: 0px;
      }

      .cls-2 {
        fill: #11567f;
      }

      .cls-3 {
        fill: #fff;
      }
    </style>
  </defs>
  <path class="cls-1" d="M24.84,9.74c.33-3.26,3.06-5.74,6.33-5.74h.33c3.19,0,5.79,2.48,6.02,5.6.02.32-.25.58-.57.57l-1.9-.04c-.32,0-.57-.28-.63-.59-.24-1.4-1.46-2.46-2.93-2.46h-.33c-1.69,0-3.11,1.29-3.28,2.97l-.56,5.61c-.03.34.24.64.58.64h5.36c2.17,0,4.25.93,5.7,2.55l3.22,3.59c.22.25.61.26.85.02l5.28-5.29c.23-.23.6-.23.83,0l1.35,1.35c.23.23.23.6,0,.82l-5.44,5.45c-.22.22-.23.57-.02.8l5.53,6.16c.21.24.2.61-.04.82l-1.41,1.28c-.24.22-.61.2-.82-.04l-5.38-5.99c-.22-.25-.61-.26-.85-.02l-6.08,6.09c-.23.23-.6.23-.83,0l-1.35-1.35c-.23-.23-.23-.6,0-.82l6.24-6.26c.22-.22.23-.57.02-.8l-3.37-3.76c-.87-.97-2.12-1.53-3.42-1.53h-5.78c-.3,0-.55.23-.58.53l-1.22,12.21c-.32,3.25-3.05,5.72-6.31,5.72h-.2c-3.19,0-5.82-2.44-6.11-5.57-.03-.32.23-.58.56-.58h1.9c.32,0,.58.26.64.58.27,1.42,1.52,2.5,3.01,2.5h.2c1.68,0,3.09-1.28,3.26-2.95l1.18-11.78c.03-.34-.24-.64-.58-.64h-3.52c-.32,0-.58-.26-.58-.58v-1.91c0-.32.26-.58.58-.58h3.94c.3,0,.55-.23.58-.53l.6-6.03Z"/>
  <rect class="cls-2" x="8.96" y="42.5" width="46.08" height="17.5" rx="4.08" ry="4.08"/>
  <path class="cls-3" d="M15.96,53.58v-4.24h2.86v.74h-1.96v1.01h1.81v.74h-1.81v1.01h1.97v.74h-2.87Z"/>
  <path class="cls-3" d="M20.55,49.34l.86,1.45h.03l.86-1.45h1.01l-1.29,2.12,1.32,2.12h-1.03l-.87-1.45h-.03l-.87,1.45h-1.03l1.33-2.12-1.3-2.12h1.02Z"/>
  <path class="cls-3" d="M23.89,50.08v-.74h3.48v.74h-1.3v3.5h-.89v-3.5h-1.3Z"/>
  <path class="cls-3" d="M28.13,53.58v-4.24h2.86v.74h-1.96v1.01h1.81v.74h-1.81v1.01h1.97v.74h-2.87Z"/>
  <path class="cls-3" d="M31.87,53.58v-4.24h1.67c.32,0,.59.06.82.17.23.11.4.27.52.48.12.21.18.45.18.73s-.06.52-.18.73c-.12.2-.3.36-.53.46-.23.11-.51.16-.83.16h-1.12v-.72h.98c.17,0,.31-.02.43-.07.11-.05.2-.12.25-.21.06-.09.08-.21.08-.35s-.03-.26-.08-.36c-.06-.1-.14-.17-.25-.22-.11-.05-.26-.08-.43-.08h-.6v3.51h-.9ZM34.17,51.65l1.05,1.93h-.99l-1.03-1.93h.97Z"/>
  <path class="cls-3" d="M39.43,49.34v4.24h-.77l-1.85-2.67h-.03v2.67h-.9v-4.24h.79l1.83,2.67h.04v-2.67h.89Z"/>
  <path class="cls-3" d="M41.07,53.58h-.96l1.46-4.24h1.16l1.46,4.24h-.96l-1.06-3.27h-.03l-1.06,3.27ZM41.01,51.92h2.27v.7h-2.27v-.7Z"/>
  <path class="cls-3" d="M44.88,53.58v-4.24h.9v3.5h1.82v.74h-2.72Z"/>
</svg>