<?xml version="1.0" encoding="UTF-8"?>
<svg id="Expanded_Icons" data-name="Expanded Icons" xmlns="http://www.w3.org/2000/svg" viewBox="0 0 64 64">
  <defs>
    <style>
      .cls-1 {
        fill: #29b5e8;
        stroke-width: 0px;
      }
    </style>
  </defs>
  <path class="cls-1" d="M52.21,10.84H11.79c-3.92,0-7.12,3.19-7.12,7.12v25.07c0,3.92,3.19,7.12,7.12,7.12h20.96c1.1,0,2-.9,2-2s-.9-2-2-2H11.79c-1.72,0-3.12-1.4-3.12-3.12v-18.55h46.65v10.5c0,1.1.9,2,2,2s2-.9,2-2v-17.02c0-3.92-3.19-7.12-7.12-7.12ZM8.68,21.97v-4.02c0-1.72,1.4-3.12,3.12-3.12h40.42c1.72,0,3.12,1.4,3.12,3.12v4.02H8.68Z"/>
  <path class="cls-1" d="M12.85,16.94c-.81,0-1.47.66-1.47,1.47s.66,1.47,1.47,1.47,1.47-.66,1.47-1.47-.66-1.47-1.47-1.47Z"/>
  <path class="cls-1" d="M17.47,16.94c-.81,0-1.47.66-1.47,1.47s.66,1.47,1.47,1.47,1.47-.66,1.47-1.47-.66-1.47-1.47-1.47Z"/>
  <path class="cls-1" d="M53.35,49.39c3.02-3.27,3.38-8.34.62-12.02-1.5-2-3.7-3.3-6.17-3.65-2.48-.35-4.94.29-6.94,1.8-4.12,3.12-4.95,9.01-1.85,13.15,1.5,2,3.7,3.3,6.17,3.64.44.06.88.09,1.32.09,1.08,0,2.15-.19,3.15-.56l4.98,6.63c.35.46.86.76,1.43.84.1.01.2.02.3.02.47,0,.94-.16,1.38-.49.95-.72,1.15-2.08.43-3.04l-4.82-6.43ZM45.53,49.84c-1.81-.25-3.42-1.2-4.52-2.67-2.28-3.03-1.67-7.36,1.36-9.65,1.2-.91,2.64-1.39,4.12-1.39.32,0,.64.02.96.07,1.81.25,3.42,1.2,4.52,2.67h0c2.28,3.03,1.67,7.36-1.36,9.65-1.46,1.11-3.26,1.58-5.08,1.32Z"/>
  <path class="cls-1" d="M12.68,30.79h34.68c.69,0,1.25-.56,1.25-1.25s-.56-1.25-1.25-1.25H12.68c-.69,0-1.25.56-1.25,1.25s.56,1.25,1.25,1.25Z"/>
  <path class="cls-1" d="M34.22,33.51H12.68c-.69,0-1.25.56-1.25,1.25s.56,1.25,1.25,1.25h21.54c.69,0,1.25-.56,1.25-1.25s-.56-1.25-1.25-1.25Z"/>
  <path class="cls-1" d="M12.68,38.74c-.69,0-1.25.56-1.25,1.25s.56,1.25,1.25,1.25h18.35c.69,0,1.25-.56,1.25-1.25s-.56-1.25-1.25-1.25H12.68Z"/>
</svg>