<?xml version="1.0" encoding="UTF-8"?>
<svg id="Expanded_Icons" data-name="Expanded Icons" xmlns="http://www.w3.org/2000/svg" viewBox="0 0 64 64">
  <defs>
    <style>
      .cls-1 {
        fill: #29b5e8;
        stroke-width: 0px;
      }
    </style>
  </defs>
  <path class="cls-1" d="M24.54,31.06c.5.22,1.06.36,1.69.33,1.33,0,2.45-.48,3.23-1.37.72-.83,1.1-1.97,1.1-3.3,0-1.82-1.9-4.11-3.32-5.68l-.18-.2s0,0,0,0c-.18-.2-.61-.74-1.14-1.38-.96-1.18-2.16-2.65-2.78-3.32-.29-.31-.87-.31-1.15,0-.61.67-1.81,2.14-2.77,3.33-.52.64-.95,1.18-1.13,1.38l-.18.2c-1.42,1.57-3.31,3.87-3.31,5.69,0,2.83,1.71,4.65,4.33,4.65h0c.63,0,1.19-.12,1.69-.34-.2,1.09-.54,1.88-1.04,2.44-.12.14-.19.31-.19.5v.13c0,.2.08.39.22.53.14.14.33.22.53.22h4.89c.41,0,.75-.34.75-.76v-.13c0-.18-.07-.36-.19-.5-.5-.56-.84-1.35-1.05-2.44ZM23.72,33.38h-2.26c.5-1,.78-2.31.87-4.04.01-.22-.09-.44-.25-.6-.14-.14-.33-.21-.52-.21-.03,0-.06,0-.09,0-.23.03-.43.15-.55.35-.43.68-1.08,1.01-1.99,1.01h0c-1.77,0-2.83-1.18-2.83-3.16,0-.96.98-2.54,2.92-4.69l.2-.22c.19-.21.63-.76,1.17-1.42.68-.84,1.55-1.91,2.19-2.66.64.74,1.51,1.81,2.19,2.65.54.66.99,1.21,1.17,1.42,0,0,0,0,0,0l.2.22c1.95,2.14,2.93,3.71,2.93,4.67,0,.96-.25,1.76-.73,2.31-.49.56-1.2.85-2.1.85h0c-.91,0-1.56-.33-1.99-1.01-.12-.19-.33-.31-.56-.33-.22-.03-.46.06-.62.22-.15.15-.23.36-.22.57.1,1.73.38,3.03.88,4.04Z"/>
  <path class="cls-1" d="M42.29,28.42c-1.06,0-2.09.11-3.09.31l.02-22.23c0-.53-.21-1.04-.58-1.41-.37-.38-.88-.59-1.41-.59l-28.78-.02h0c-1.1,0-2,.89-2,2l-.03,39.47c0,.53.21,1.04.58,1.41.37.38.88.59,1.41.59h18.74c1.74,6.76,7.86,11.78,15.15,11.78,8.63,0,15.66-7.02,15.66-15.66s-7.02-15.66-15.66-15.66ZM55.42,43.51h-1.99c-.13-2.52-1.08-4.83-2.62-6.64l1.4-1.4c1.89,2.18,3.07,4.97,3.2,8.04ZM35.09,52.6c1.78,1.51,4.05,2.46,6.53,2.61v1.99c-3.03-.15-5.78-1.33-7.93-3.2l1.4-1.4ZM43.12,55.21c2.46-.18,4.69-1.16,6.46-2.68l1.4,1.4c-2.13,1.88-4.86,3.07-7.86,3.26v-1.99ZM42.29,53.75c-5.33,0-9.67-4.34-9.67-9.67s4.34-9.67,9.67-9.67,9.67,4.34,9.67,9.67-4.34,9.67-9.67,9.67ZM31.15,43.51h-1.99c.13-3.11,1.34-5.93,3.27-8.12l1.4,1.4c-1.57,1.82-2.56,4.16-2.69,6.72ZM49.77,35.8c-1.79-1.62-4.1-2.66-6.65-2.85v-1.99c3.1.19,5.9,1.46,8.05,3.43l-1.4,1.4ZM41.62,32.94c-2.57.16-4.91,1.18-6.72,2.79l-1.4-1.4c2.18-1.97,5.01-3.21,8.13-3.37v1.99ZM10.43,8.49l24.78.02-.02,21.64c-5.04,2.58-8.52,7.8-8.56,13.83H10.41s.03-35.49.03-35.49ZM29.19,45.01h1.99c.21,2.51,1.25,4.78,2.85,6.54l-1.4,1.4c-1.95-2.13-3.21-4.89-3.43-7.94ZM52.04,52.88l-1.4-1.4c1.56-1.75,2.57-3.99,2.78-6.46h1.99c-.21,3.02-1.45,5.75-3.36,7.87Z"/>
  <path class="cls-1" d="M43.06,43.62l-.88-.43c-1.61-.79-1.87-.98-1.87-1.83,0-1.43,1.51-1.54,1.97-1.54s1.94.11,1.94,1.54c0,.41.34.75.75.75s.75-.34.75-.75c0-1.59-1.05-2.72-2.69-2.98v-.65c0-.41-.34-.75-.75-.75s-.75.34-.75.75v.65c-1.66.26-2.72,1.39-2.72,2.98,0,1.84,1.13,2.4,2.71,3.18l.88.43c1.61.79,1.87.98,1.87,1.83,0,1.41-1.51,1.52-1.98,1.52s-1.97-.11-1.97-1.52c0-.41-.34-.75-.75-.75s-.75.34-.75.75c0,1.58,1.07,2.71,2.72,2.96v.67c0,.41.34.75.75.75s.75-.34.75-.75v-.67c1.66-.26,2.73-1.38,2.73-2.96,0-1.84-1.13-2.4-2.7-3.18Z"/>
</svg>