<?xml version="1.0" encoding="UTF-8"?>
<svg id="Expanded_Icons" data-name="Expanded Icons" xmlns="http://www.w3.org/2000/svg" viewBox="0 0 64 64">
  <defs>
    <style>
      .cls-1 {
        fill-rule: evenodd;
      }

      .cls-1, .cls-2 {
        fill: #29b5e8;
      }

      .cls-1, .cls-2, .cls-3, .cls-4 {
        stroke-width: 0px;
      }

      .cls-3 {
        fill: #11567f;
      }

      .cls-4 {
        fill: #fff;
      }
    </style>
  </defs>
  <rect class="cls-3" x="9.89" y="43.2" width="44.23" height="16.8" rx="3.92" ry="3.92"/>
  <path class="cls-4" d="M20.57,49.76v4.07h-.74l-1.77-2.56h-.03v2.56h-.86v-4.07h.76l1.76,2.56h.04v-2.56h.86Z"/>
  <path class="cls-4" d="M21.45,53.83v-4.07h2.74v.71h-1.88v.97h1.74v.71h-1.74v.97h1.89v.71h-2.75Z"/>
  <path class="cls-4" d="M24.89,50.47v-.71h3.34v.71h-1.25v3.36h-.85v-3.36h-1.25Z"/>
  <path class="cls-4" d="M29.87,53.83l-1.17-4.07h.94l.67,2.83h.03l.74-2.83h.81l.74,2.84h.04l.67-2.84h.94l-1.17,4.07h-.84l-.78-2.66h-.03l-.77,2.66h-.84Z"/>
  <path class="cls-4" d="M38.43,51.79c0,.44-.08.82-.25,1.13-.17.31-.39.55-.68.71-.29.16-.61.24-.97.24s-.69-.08-.97-.25c-.29-.16-.51-.4-.68-.71-.17-.31-.25-.69-.25-1.13s.08-.82.25-1.13c.17-.31.39-.55.68-.71.29-.16.61-.25.97-.25s.68.08.97.25c.29.16.52.4.68.71.17.31.25.69.25,1.13ZM37.56,51.79c0-.29-.04-.53-.13-.73-.08-.2-.2-.35-.36-.45-.16-.1-.34-.15-.54-.15s-.39.05-.54.15c-.16.1-.28.25-.36.45-.08.2-.13.44-.13.73s.04.53.13.73c.09.2.21.35.36.45.16.1.34.15.54.15s.39-.05.54-.15c.16-.1.28-.25.36-.45.09-.2.13-.44.13-.73Z"/>
  <path class="cls-4" d="M39.24,53.83v-4.07h1.61c.31,0,.57.06.79.17.22.11.39.26.5.46.12.2.17.43.17.7s-.06.5-.17.7c-.12.19-.29.34-.51.45-.22.1-.49.16-.8.16h-1.08v-.69h.94c.16,0,.3-.02.41-.07s.19-.11.24-.2c.05-.09.08-.2.08-.34s-.03-.25-.08-.34c-.05-.09-.13-.16-.24-.21-.11-.05-.25-.07-.41-.07h-.58v3.37h-.86ZM41.44,51.97l1.01,1.85h-.95l-.99-1.85h.93Z"/>
  <path class="cls-4" d="M43.08,53.83v-4.07h.86v1.8h.05l1.47-1.8h1.03l-1.51,1.82,1.53,2.25h-1.03l-1.12-1.67-.42.52v1.16h-.86Z"/>
  <path class="cls-2" d="M39,14.09c.31,0,.56-.25.56-.56v-1.68c0-.31-.25-.56-.56-.56h-16.24c-.31,0-.56.25-.56.56v1.68c0,.31.25.56.56.56h16.24Z"/>
  <path class="cls-2" d="M39,20.25c.31,0,.56-.25.56-.56v-1.68c0-.31-.25-.56-.56-.56h-16.24c-.31,0-.56.25-.56.56v1.68c0,.31.25.56.56.56h16.24Z"/>
  <path class="cls-2" d="M31.16,25.85c0,.31-.25.56-.56.56h-7.84c-.31,0-.56-.25-.56-.56v-1.68c0-.31.25-.56.56-.56h7.84c.31,0,.56.25.56.56v1.68Z"/>
  <path class="cls-1" d="M46.83,11.67v14.69c.77.38,1.44.59,1.97.59.78,0,1.4.63,1.4,1.41,0,4.57-1.71,7.89-3.59,10.08-.93,1.09-1.91,1.89-2.75,2.44-.42.27-.82.49-1.17.64-.3.13-.73.29-1.16.29s-.86-.16-1.16-.29c-.35-.15-.75-.37-1.17-.64-.1-.06-.2-.13-.31-.21h-16.91c-3.88.02-7.03-3.42-7.03-7.66V11.7c-.01-4.24,3.13-7.68,7.01-7.68h17.85c3.88-.02,7.03,3.42,7.03,7.66ZM43.47,24.06c-.42-.36-.76-.67-.96-.88-.55-.55-1.44-.55-1.98,0-.46.47-1.56,1.45-2.84,2.31-1.34.9-2.6,1.46-3.44,1.46-.37,0-.73.15-.99.41-.26.26-.41.62-.41,1,0,3.84,1.21,6.81,2.71,8.95h-13.59c-1.75.01-3.66-1.63-3.67-4.31V11.7c-.01-2.67,1.9-4.32,3.65-4.32h17.85c1.75-.02,3.66,1.63,3.67,4.3v12.39ZM35.7,29.57c.26,3.17,1.52,5.47,2.86,7.02.75.88,1.53,1.51,2.15,1.91.31.2.57.34.76.42.02,0,.04.02.06.02.02,0,.04-.02.06-.02.19-.08.44-.22.76-.42.62-.4,1.4-1.04,2.15-1.91,1.33-1.55,2.6-3.85,2.86-7.02-1.28-.34-2.54-1.06-3.55-1.73-.86-.58-1.65-1.21-2.27-1.74-.62.54-1.41,1.16-2.27,1.74-1.01.67-2.26,1.39-3.55,1.73Z"/>
</svg>