<?xml version="1.0" encoding="UTF-8"?>
<svg id="Expanded_Icons" data-name="Expanded Icons" xmlns="http://www.w3.org/2000/svg" viewBox="0 0 64 64">
  <defs>
    <style>
      .cls-1 {
        fill-rule: evenodd;
      }

      .cls-1, .cls-2 {
        fill: #29b5e8;
        stroke-width: 0px;
      }
    </style>
  </defs>
  <path class="cls-2" d="M42.94,17.22c0,1.99,1.61,3.6,3.6,3.6s3.6-1.61,3.6-3.6-1.61-3.6-3.6-3.6-3.6,1.61-3.6,3.6Z"/>
  <path class="cls-1" d="M58,13.79c0-4.3-3.49-7.79-7.79-7.79h-13.66c-1.59,0-3.11.63-4.24,1.76L8.63,31.43c-3.51,3.51-3.51,9.2,0,12.71l11.22,11.22c3.51,3.51,9.2,3.51,12.71,0l23.68-23.68c1.12-1.12,1.76-2.65,1.76-4.24v-13.66ZM50.21,9.6c2.32,0,4.2,1.88,4.2,4.2v13.66c0,.64-.25,1.25-.7,1.7l-23.68,23.68c-2.11,2.11-5.52,2.11-7.63,0l-11.22-11.22c-2.11-2.11-2.11-5.52,0-7.63l23.68-23.68c.45-.45,1.06-.7,1.7-.7h13.66Z"/>
</svg>