<?xml version="1.0" encoding="UTF-8"?>
<svg id="Layer_2" data-name="Layer 2" xmlns="http://www.w3.org/2000/svg" width="43.58" height="52.45" viewBox="0 0 43.58 52.45">
  <defs>
    <style>
      .cls-1 {
        fill: #5ab2e3;
      }
    </style>
  </defs>
  <g id="outlined">
    <g id="adaptive_warehouse" data-name="adaptive warehouse">
      <path class="cls-1" d="M43.06,17.29L22.69.33c-.53-.44-1.29-.44-1.81,0L.51,17.29c-.32.27-.51.67-.51,1.09v25.49c0,.78.63,1.42,1.42,1.42h6.11v.99c0,4.01,7.35,6.17,14.26,6.17s14.26-2.16,14.26-6.17v-.99h6.11c.78,0,1.42-.63,1.42-1.42v-25.49c0-.42-.19-.82-.51-1.09ZM33.8,43.87v2.41c0,1.59-4.68,3.91-12.01,3.91s-12.01-2.32-12.01-3.91v-17.08c2.71,1.79,7.46,2.72,12.01,2.72s9.3-.93,12.01-2.72v14.67ZM9.78,25.75c0-1.59,4.68-3.91,12.01-3.91s12.01,2.32,12.01,3.91-4.68,3.92-12.01,3.92-12.01-2.33-12.01-3.92ZM40.74,42.45h-4.69v-16.7c0-4.01-7.35-6.18-14.26-6.18s-14.26,2.17-14.26,6.18v16.7H2.83v-23.41L21.79,3.26l18.95,15.78v23.41Z"/>
      <g>
        <path class="cls-1" d="M27.82,35.67h-1.3c-.2-.83-.95-1.44-1.84-1.44s-1.63.62-1.84,1.44h-7.09c-.25,0-.45.2-.45.45s.2.45.45.45h7.09c.2.83.95,1.45,1.84,1.45s1.63-.62,1.84-1.45h1.3c.25,0,.45-.2.45-.45s-.2-.45-.45-.45ZM24.68,37.12c-.55,0-1-.45-1-.99,0,0,0,0,0,0,0,0,0,0,0,0,0-.55.45-.99,1-.99s.99.44,1,.99c0,0,0,0,0,0,0,0,0,0,0,0,0,.55-.45.99-1,.99Z"/>
        <path class="cls-1" d="M27.82,40.1h-6.74c-.15-.9-.93-1.58-1.86-1.58s-1.71.69-1.86,1.58h-1.6c-.25,0-.45.2-.45.45s.2.45.45.45h1.67c.25.76.95,1.31,1.79,1.31s1.55-.55,1.79-1.31h6.81c.25,0,.45-.2.45-.45s-.2-.45-.45-.45ZM19.22,41.41c-.55,0-1-.45-1-1s.45-1,1-1,1,.45,1,1-.45,1-1,1Z"/>
        <path class="cls-1" d="M27.82,44.53h-4.19c-.2-.83-.95-1.45-1.84-1.45s-1.63.62-1.84,1.45h-4.19c-.25,0-.45.2-.45.45s.2.45.45.45h4.19c.2.83.95,1.44,1.84,1.44s1.63-.62,1.84-1.44h4.2c.25,0,.45-.2.45-.45s-.2-.45-.45-.45ZM21.79,45.98c-.55,0-1-.45-1-1s.45-1,1-1,1,.45,1,1-.45,1-1,1Z"/>
      </g>
    </g>
  </g>
</svg>