<?xml version="1.0" encoding="UTF-8"?>
<svg id="Expanded_Icons" data-name="Expanded Icons" xmlns="http://www.w3.org/2000/svg" viewBox="0 0 64 64">
  <defs>
    <style>
      .cls-1 {
        fill: #2ab5e8;
        stroke-width: 0px;
      }
    </style>
  </defs>
  <path id="_Compound_Path_" data-name="&amp;lt;Compound Path&amp;gt;" class="cls-1" d="M6.3,59.12h51.4c1.34,0,2.3-1.15,2.3-2.3s-1.15-2.3-2.3-2.3h-2.3V20.19c0-1.73-1.34-3.07-3.07-3.07h-7.48c-1.73,0-3.07,1.34-3.07,3.07v34.14h-2.88v-24.36c0-1.73-1.34-3.07-3.07-3.07h-7.48c-1.73,0-3.07,1.34-3.07,3.07v24.55h-3.07v-15.73c0-1.73-1.34-3.07-3.07-3.07h-7.67c-1.73,0-3.26,1.34-3.26,3.07v15.73h-1.92c-1.34,0-2.3,1.15-2.3,2.3s.96,2.3,2.3,2.3ZM44.85,20.19h7.48v34.14h-7.48V20.19ZM28.36,29.78h7.48v24.55h-7.67l.19-24.55ZM11.48,38.6h7.48v15.73h-7.48v-15.73ZM8.99,34.23c.24,0,.46-.07.66-.16h0S50.32,10.62,50.32,10.62l-.14.28c-.37.76-.06,1.68.7,2.05.48.23,1.02.2,1.44-.05.25-.15.47-.37.61-.65l2.35-4.8s.02-.1.04-.14c.04-.1.06-.19.08-.3,0-.03.02-.05.02-.08,0-.02.02-.03.02-.05,0,0,0,0,0,0,0-.05-.01-.1-.02-.15,0-.09-.02-.18-.04-.28-.01-.05,0-.11-.02-.16-.02-.05-.06-.09-.08-.14-.02-.04-.02-.09-.04-.13-.02-.04-.06-.07-.09-.1-.03-.04-.04-.1-.08-.14-.04-.04-.09-.07-.13-.1-.07-.06-.14-.12-.22-.17-.04-.03-.08-.07-.12-.09,0,0,0,0,0,0-.05-.02-.09-.02-.14-.04-.09-.04-.19-.06-.29-.08-.05,0-.09-.04-.14-.04l-5.33-.36c-.85-.06-1.58.58-1.64,1.43-.06.85.58,1.58,1.43,1.64l.31.02L8.12,31.41l.03.06c-.4.27-.69.71-.69,1.24,0,.84.68,1.52,1.52,1.52Z"/>
</svg>