<?xml version="1.0" encoding="UTF-8"?>
<svg id="Expanded_Icons" data-name="Expanded Icons" xmlns="http://www.w3.org/2000/svg" viewBox="0 0 64 64">
  <defs>
    <style>
      .cls-1 {
        fill: #29b5e8;
        stroke-width: 0px;
      }
    </style>
  </defs>
  <path class="cls-1" d="M29.82,23.82v.55c0,.07.03.17.07.2l1.81,1.81c.07.07.17.1.24.1h.55c.07,0,.17-.07.2-.1l1.81-1.81c.07-.03.1-.14.17-.2v-.55c0-.1-.03-.17-.1-.24l-1.81-1.81c-.07-.07-.17-.1-.24-.1h-.55c-.07,0-.17.03-.24.1l-1.81,1.81c-.07.07-.1.17-.1.24ZM31.46,23.85l.51-.51c.07-.07.17-.1.24-.1.1,0,.17.03.24.1l.51.51c.07.07.1.17.1.24s-.03.17-.1.24l-.51.51c-.07.07-.17.1-.24.1-.1,0-.17-.03-.24-.1l-.51-.51c-.07-.07-.1-.17-.1-.24s.03-.17.1-.24Z"/>
  <path class="cls-1" d="M29.89,34.37c.72,0,1.26-.58,1.26-1.26v-5.02c0-.68-.51-1.23-1.16-1.26-.24-.03-.51.03-.75.17l-4.34,2.49c-.61.34-.82,1.13-.48,1.74s1.13.82,1.74.48l2.42-1.4v2.8c0,.72.58,1.26,1.3,1.26Z"/>
  <path class="cls-1" d="M35.59,23.79c0,.1-.03.2-.03.31,0,.14.03.27.07.41.1.27.31.55.58.72l4.34,2.49c.61.34,1.4.14,1.74-.48s.14-1.4-.48-1.74l-2.42-1.4,2.42-1.4c.61-.34.85-1.13.44-1.67-.34-.61-1.13-.82-1.74-.48l-4.34,2.49c-.27.17-.48.44-.58.75Z"/>
  <path class="cls-1" d="M35.18,26.96c-.24-.14-.51-.17-.75-.14-.65.03-1.2.61-1.2,1.26v4.99c0,.72.58,1.26,1.26,1.26.72,0,1.3-.58,1.3-1.26v-2.8l2.42,1.4c.61.34,1.4.14,1.74-.48.38-.58.17-1.37-.44-1.74l-4.34-2.49Z"/>
  <path class="cls-1" d="M34.43,21.36c.24.03.51-.03.75-.17l4.34-2.49c.61-.34.82-1.13.48-1.74-.34-.61-1.13-.82-1.74-.48l-2.42,1.4v-2.77c0-.72-.58-1.26-1.3-1.26s-1.3.55-1.3,1.26v4.99c0,.68.55,1.23,1.2,1.26Z"/>
  <path class="cls-1" d="M22.14,27.27c.34.61,1.13.82,1.74.48l4.34-2.49c.31-.24.51-.48.58-.79.03-.14.07-.27.07-.41,0-.1-.03-.2-.03-.31-.1-.31-.27-.58-.58-.75l-4.37-2.49c-.61-.34-1.4-.14-1.74.48-.34.61-.14,1.4.48,1.74l2.42,1.4-2.42,1.4c-.61.34-.82,1.13-.48,1.74Z"/>
  <path class="cls-1" d="M24.9,18.7l4.34,2.49c.24.14.48.17.75.17.65-.03,1.2-.61,1.2-1.26v-4.99c0-.72-.58-1.26-1.26-1.26-.72,0-1.3.58-1.3,1.26v2.8l-2.42-1.4c-.61-.34-1.4-.14-1.74.48-.38.58-.17,1.37.44,1.71Z"/>
  <path class="cls-1" d="M58.5,47.47c-3.74,0-5.61-2.04-5.68-2.12-.24-.27-.58-.43-.94-.43-.36,0-.71.15-.95.42-.08.09-1.94,2.13-5.68,2.13s-5.61-2.04-5.68-2.12c-.23-.27-.58-.42-.94-.43-.34,0-.71.15-.95.42-.08.09-1.94,2.13-5.68,2.13s-5.61-2.04-5.68-2.12c-.24-.27-.58-.43-.94-.43-.38,0-.71.15-.95.42-.08.09-1.94,2.13-5.68,2.13s-5.61-2.04-5.68-2.12c-.24-.27-.58-.43-.94-.43-.36,0-.71.15-.95.42-.08.09-1.94,2.13-5.68,2.13-.69,0-1.25.56-1.25,1.25s.56,1.25,1.25,1.25c3.26,0,5.47-1.25,6.62-2.13,1.16.88,3.37,2.13,6.62,2.13s5.47-1.25,6.62-2.13c1.16.88,3.37,2.13,6.62,2.13s5.47-1.25,6.62-2.13c1.16.88,3.37,2.13,6.62,2.13s5.47-1.25,6.62-2.13c1.16.88,3.37,2.13,6.62,2.13.69,0,1.25-.56,1.25-1.25s-.56-1.25-1.25-1.25Z"/>
  <path class="cls-1" d="M58.5,39.02c-3.74,0-5.61-2.04-5.68-2.12-.24-.27-.58-.43-.94-.43-.36,0-.71.15-.95.42-.08.09-1.94,2.13-5.68,2.13s-5.61-2.04-5.68-2.12c-.23-.27-.58-.42-.94-.43-.34,0-.71.15-.95.42-.08.09-1.94,2.13-5.68,2.13s-5.61-2.04-5.68-2.12c-.24-.27-.58-.43-.94-.43-.38,0-.71.15-.95.42-.08.09-1.94,2.13-5.68,2.13s-5.61-2.04-5.68-2.12c-.24-.27-.58-.43-.94-.43-.36,0-.71.15-.95.42-.08.09-1.94,2.13-5.68,2.13-.69,0-1.25.56-1.25,1.25s.56,1.25,1.25,1.25c3.26,0,5.47-1.25,6.62-2.13,1.16.88,3.37,2.13,6.62,2.13s5.47-1.25,6.62-2.13c1.16.88,3.37,2.13,6.62,2.13s5.47-1.25,6.62-2.13c1.16.88,3.37,2.13,6.62,2.13s5.47-1.25,6.62-2.13c1.16.88,3.37,2.13,6.62,2.13.69,0,1.25-.56,1.25-1.25s-.56-1.25-1.25-1.25Z"/>
  <path class="cls-1" d="M45.26,33.07c3.26,0,5.47-1.25,6.62-2.13,1.16.88,3.37,2.13,6.62,2.13.69,0,1.25-.56,1.25-1.25s-.56-1.25-1.25-1.25c-3.74,0-5.61-2.04-5.68-2.12-.23-.27-.58-.42-.94-.43-.36-.02-.71.15-.95.42-.08.09-1.94,2.12-5.68,2.12-.69,0-1.25.56-1.25,1.25s.56,1.25,1.25,1.25Z"/>
  <path class="cls-1" d="M5.53,33.07c3.26,0,5.47-1.25,6.62-2.13,1.16.88,3.37,2.13,6.62,2.13.69,0,1.25-.56,1.25-1.25s-.56-1.25-1.25-1.25c-3.74,0-5.61-2.04-5.68-2.12-.47-.55-1.42-.55-1.89,0-.02.02-1.94,2.12-5.68,2.12-.69,0-1.25.56-1.25,1.25s.56,1.25,1.25,1.25Z"/>
</svg>