<?xml version="1.0" encoding="UTF-8"?>
<svg id="Expanded_Icons" data-name="Expanded Icons" xmlns="http://www.w3.org/2000/svg" viewBox="0 0 64 64">
  <defs>
    <style>
      .cls-1 {
        fill: #29b5e8;
        stroke-width: 0px;
      }
    </style>
  </defs>
  <circle class="cls-1" cx="22.33" cy="23.12" r="1.2"/>
  <path class="cls-1" d="M25.93,24.32c.67,0,1.2-.54,1.2-1.2s-.53-1.2-1.2-1.2-1.2.54-1.2,1.2.54,1.2,1.2,1.2Z"/>
  <path class="cls-1" d="M45.28,18.56h-26.76c-.69,0-1.25.56-1.25,1.25v22.05c0,.69.56,1.25,1.25,1.25h26.76c.69,0,1.25-.56,1.25-1.25v-22.05c0-.69-.56-1.25-1.25-1.25ZM44.03,21.06v4.14h-24.26v-4.14h24.26ZM19.77,40.62v-12.91h24.26v12.91h-24.26Z"/>
  <path class="cls-1" d="M54.34,11.66c-.4-.38-.93-.58-1.49-.54-10.42.6-14.93-1.68-19.59-6.11-.77-.73-1.98-.73-2.76,0-4.66,4.43-9.17,6.72-19.59,6.11-.56-.04-1.09.16-1.49.54-.4.38-.63.9-.63,1.45v23.3c0,5.8,2.82,11.27,8.14,15.8,4.14,3.53,9.58,6.23,14.54,7.25.13.03.27.04.4.04s.27-.01.4-.04c4.96-1.01,10.4-3.72,14.54-7.25,5.33-4.53,8.14-10,8.14-15.8V13.12c0-.55-.23-1.08-.63-1.45ZM50.97,36.42c0,10.17-11.24,17.28-19.08,19.04-7.84-1.76-19.08-8.87-19.08-19.04V15.2c9.44.22,14.48-2.04,19.08-6.04,4.61,4,9.63,6.26,19.08,6.04v21.22Z"/>
</svg>