<?xml version="1.0" encoding="UTF-8"?>
<svg id="Expanded_Icons" data-name="Expanded Icons" xmlns="http://www.w3.org/2000/svg" viewBox="0 0 64 64">
  <defs>
    <style>
      .cls-1 {
        fill: #29b5e8;
        stroke-width: 0px;
      }
    </style>
  </defs>
  <path class="cls-1" d="M28.37,8.79c1.1,0,2-.9,2-2s-.9-2-2-2c-15.12,0-23.19,4.92-23.61,9.91-.03.13-.04.27-.04.41v33.84c0,.09.01.17.03.26.26,5.04,8.35,10.06,23.63,10.06,1.1,0,2-.9,2-2s-.9-2-2-2c-12,0-19.65-3.74-19.65-6.32,0,0,0,0,0-.01v-5.38c3.85,2.56,10.44,4.39,19.65,4.39,1.1,0,2-.9,2-2s-.9-2-2-2c-12,0-19.65-3.74-19.65-6.32,0,0,0,0,0-.01v-5.31c3.85,2.56,10.44,4.39,19.65,4.39,1.1,0,2-.9,2-2s-.9-2-2-2c-12,0-19.65-3.74-19.65-6.32,0,0,0,0,0-.01v-5.35c3.85,2.56,10.44,4.39,19.65,4.39,1.1,0,2-.9,2-2s-.9-2-2-2c-12,0-19.65-3.74-19.65-6.31s7.66-6.32,19.65-6.32Z"/>
  <path class="cls-1" d="M52.91,33.84c-3.1,0-5.61,2.51-5.61,5.61s2.51,5.61,5.61,5.61,5.61-2.51,5.61-5.61-2.51-5.61-5.61-5.61Z"/>
  <path class="cls-1" d="M52.91,15.33c3.1,0,5.61-2.51,5.61-5.61s-2.51-5.61-5.61-5.61-5.61,2.51-5.61,5.61,2.51,5.61,5.61,5.61Z"/>
  <path class="cls-1" d="M38.39,4.11c-3.1,0-5.61,2.51-5.61,5.61s2.51,5.61,5.61,5.61,5.61-2.51,5.61-5.61-2.51-5.61-5.61-5.61Z"/>
  <path class="cls-1" d="M38.39,48.7c-3.1,0-5.61,2.51-5.61,5.61s2.51,5.61,5.61,5.61,5.61-2.51,5.61-5.61-2.51-5.61-5.61-5.61Z"/>
  <path class="cls-1" d="M38.39,33.84c-3.1,0-5.61,2.51-5.61,5.61s2.51,5.61,5.61,5.61,5.61-2.51,5.61-5.61-2.51-5.61-5.61-5.61Z"/>
  <path class="cls-1" d="M52.91,19.19c-2.98,0-5.4,2.42-5.4,5.4s2.42,5.4,5.4,5.4,5.4-2.42,5.4-5.4-2.42-5.4-5.4-5.4ZM52.91,27.48c-1.6,0-2.9-1.3-2.9-2.9s1.3-2.9,2.9-2.9,2.9,1.3,2.9,2.9-1.3,2.9-2.9,2.9Z"/>
  <path class="cls-1" d="M38.37,29.98c2.98,0,5.4-2.42,5.4-5.4s-2.42-5.4-5.4-5.4-5.4,2.42-5.4,5.4,2.42,5.4,5.4,5.4ZM38.37,21.69c1.6,0,2.9,1.3,2.9,2.9s-1.3,2.9-2.9,2.9-2.9-1.3-2.9-2.9,1.3-2.9,2.9-2.9Z"/>
  <path class="cls-1" d="M52.91,48.92c-2.98,0-5.4,2.42-5.4,5.4s2.42,5.4,5.4,5.4,5.4-2.42,5.4-5.4-2.42-5.4-5.4-5.4ZM52.91,57.21c-1.6,0-2.9-1.3-2.9-2.9s1.3-2.9,2.9-2.9,2.9,1.3,2.9,2.9-1.3,2.9-2.9,2.9Z"/>
</svg>