<?xml version="1.0" encoding="UTF-8"?>
<svg id="Expanded_Icons" data-name="Expanded Icons" xmlns="http://www.w3.org/2000/svg" viewBox="0 0 64 64">
  <defs>
    <style>
      .cls-1 {
        fill: #29b5e8;
        stroke-width: 0px;
      }
    </style>
  </defs>
  <path class="cls-1" d="M28.38,49.16H9.33c-3,0-5.44-2.44-5.44-5.39V11.17c0-3,2.44-5.39,5.44-5.39h32.6c2.95,0,5.39,2.39,5.39,5.39v11.96c0,.8-.66,1.45-1.45,1.45s-1.45-.66-1.45-1.45v-11.96c0-1.41-1.13-2.53-2.53-2.53H9.29c-1.36,0-2.53,1.13-2.53,2.53v32.6c0,1.36,1.17,2.53,2.53,2.53h19.09c.8,0,1.41.66,1.41,1.41.05.8-.61,1.45-1.41,1.45h0Z"/>
  <path class="cls-1" d="M58.91,40.99H25.61c-.52,0-.94-.47-.94-.98s.42-.94.94-.94h33.3c.56,0,.98.42.98.94s-.42.98-.98.98h0Z"/>
  <path class="cls-1" d="M53.89,40.29c-.33,0-.66-.14-.84-.47l-3.24-5.63-2.77-.38c-.28-.05-.56-.19-.7-.42l-3.52-5.49-2.95,2.91-1.45,4.22c-.09.28-.33.52-.61.61l-4.17,1.36-1.97,2.86c-.28.47-.89.56-1.31.28-.42-.33-.56-.89-.28-1.36l2.16-3.14c.09-.19.28-.28.52-.38l4.03-1.31,1.41-3.94c.05-.14.09-.28.19-.38l3.94-3.94c.19-.19.52-.28.8-.28.28.05.52.19.7.47l3.94,6.1,2.77.38c.33,0,.56.19.7.47l3.52,6.05c.23.42.09,1.03-.38,1.27-.14.09-.28.14-.47.14h0Z"/>
  <path class="cls-1" d="M44.32,58.77c-.19,0-.38-.05-.52-.14l-5.21-3.56c-.14-.14-.28-.28-.38-.52l-2.06-6.14-3.8-2.2c-.19-.09-.33-.23-.38-.42l-1.27-2.81c-.23-.47-.05-1.03.47-1.27.47-.19,1.03,0,1.27.52l1.13,2.53,3.85,2.2c.19.14.33.33.42.52l2.11,6.19,3.94,2.72,2.72-6.52c.14-.38.52-.61.89-.61h1.03l3.28-7.08c.23-.47.8-.66,1.31-.42.47.19.66.75.42,1.27l-3.56,7.6c-.14.38-.52.56-.89.56h-.94l-2.91,7.04c-.14.28-.38.47-.61.56h-.33Z"/>
  <path class="cls-1" d="M47.51,40.29c-.33,0-.66-.14-.8-.47l-1.31-2.2-2.86-5.39c-.05-.09-.05-.19-.09-.28l-.89-4.31c-.09-.52.23-1.03.75-1.13.52-.14,1.03.19,1.13.75l.89,4.17,2.77,5.25,1.27,2.16c.28.47.09,1.08-.33,1.31-.19.09-.33.14-.52.14h0Z"/>
  <path class="cls-1" d="M28.14,21.02h-5.07c-1.13,0-2.06-.94-2.06-2.06v-5.07c0-1.13.94-2.06,2.06-2.06h5.07c1.13,0,2.06.94,2.06,2.06v5.07c0,1.13-.94,2.06-2.06,2.06h0ZM23.08,13.75c-.09,0-.14.05-.14.14v5.07c0,.09.05.14.14.14h5.07c.09,0,.14-.05.14-.14v-5.07c0-.09-.05-.14-.14-.14h-5.07Z"/>
  <path class="cls-1" d="M28.14,31.99h-5.07c-1.13,0-2.06-.94-2.06-2.06v-5.07c0-1.17.94-2.06,2.06-2.06h5.07c1.13,0,2.06.89,2.06,2.06v5.07c0,1.13-.94,2.06-2.06,2.06h0ZM23.08,24.67c-.09,0-.14.09-.14.19v5.07s.05.14.14.14h5.07c.09,0,.14-.09.14-.14v-5.07c0-.09-.05-.19-.14-.19h-5.07Z"/>
  <path class="cls-1" d="M39.16,21.02h-5.07c-1.13,0-2.06-.94-2.06-2.06v-5.07c0-1.13.94-2.06,2.06-2.06h5.07c1.13,0,2.06.94,2.06,2.06v5.07c0,1.13-.94,2.06-2.06,2.06h0ZM34.1,13.75c-.09,0-.14.05-.14.14v5.07c0,.09.05.14.14.14h5.07c.09,0,.14-.05.14-.14v-5.07c0-.09-.05-.14-.14-.14h-5.07Z"/>
  <path class="cls-1" d="M17.12,21.02h-5.07c-1.13,0-2.06-.94-2.06-2.06v-5.07c0-1.13.94-2.06,2.06-2.06h5.07c1.13,0,2.06.94,2.06,2.06v5.07c0,1.13-.94,2.06-2.06,2.06h0ZM12.05,13.75c-.09,0-.14.05-.14.14v5.07c0,.09.05.14.14.14h5.07c.09,0,.14-.05.14-.14v-5.07c0-.09-.05-.14-.14-.14h-5.07Z"/>
  <path class="cls-1" d="M17.12,31.99h-5.07c-1.13,0-2.06-.94-2.06-2.06v-5.07c0-1.17.94-2.06,2.06-2.06h5.07c1.13,0,2.06.89,2.06,2.06v5.07c0,1.13-.94,2.06-2.06,2.06h0ZM12.05,24.67c-.09,0-.14.09-.14.19v5.07s.05.14.14.14h5.07c.09,0,.14-.09.14-.14v-5.07c0-.09-.05-.19-.14-.19h-5.07Z"/>
  <path class="cls-1" d="M17.12,43.06h-5.07c-1.13,0-2.06-.94-2.06-2.11v-5.02c0-1.17.94-2.06,2.06-2.06h5.07c1.13,0,2.06.89,2.06,2.06v5.02c0,1.17-.94,2.11-2.06,2.11h0ZM12.05,35.74c-.09,0-.14.09-.14.19v5.02c0,.09.05.19.14.19h5.07c.09,0,.14-.09.14-.19v-5.02c0-.09-.05-.19-.14-.19h-5.07Z"/>
</svg>