<?xml version="1.0" encoding="UTF-8"?>
<svg id="Expanded_Icons" data-name="Expanded Icons" xmlns="http://www.w3.org/2000/svg" xmlns:xlink="http://www.w3.org/1999/xlink" viewBox="0 0 64 64">
  <defs>
    <style>
      .cls-1 {
        clip-path: url(#clippath);
      }

      .cls-2 {
        fill: none;
      }

      .cls-2, .cls-3, .cls-4, .cls-5 {
        stroke-width: 0px;
      }

      .cls-3, .cls-4 {
        fill-rule: evenodd;
      }

      .cls-3, .cls-5 {
        fill: #29b5e8;
      }

      .cls-4 {
        fill: #fff;
      }
    </style>
    <clipPath id="clippath">
      <rect class="cls-2" x="33.57" y="37.36" width="16.38" height="16.38"/>
    </clipPath>
  </defs>
  <rect class="cls-5" x="29.16" y="33.58" width="24.57" height="23.94" rx="4.41" ry="4.41"/>
  <path class="cls-3" d="M10.26,16.46c0-4.36,3.65-6.81,7.27-8.11,3.77-1.35,8.48-1.86,12.57-1.86s8.79.45,12.56,1.78c3.66,1.29,7.28,3.74,7.28,8.2v13.97h-3.97v-7.34c-1.03.66-2.17,1.17-3.31,1.58-3.77,1.33-8.49,1.78-12.56,1.78s-8.79-.45-12.56-1.78c-1.14-.4-2.29-.92-3.31-1.58v19.31c0,2.9,1.7,4.83,4.75,6.15,2.03.87,4.49,1.39,7.03,1.64v4.01c-2.96-.27-5.99-.86-8.59-1.98-3.9-1.68-7.16-4.74-7.16-9.81v-25.94ZM49.95,33.58h-3.97v8.82c0,2.9-1.7,4.83-4.75,6.15-3.11,1.34-7.27,1.83-11.13,1.83-.31,0-.63,0-.94,0v3.99c.32,0,.63,0,.94,0,4.08,0,8.86-.51,12.69-2.16,3.9-1.68,7.16-4.74,7.16-9.81v-8.82ZM14.23,16.46c0-1.63,1.31-3.16,4.64-4.36,3.18-1.14,7.39-1.63,11.24-1.63s8.08.44,11.25,1.55c3.29,1.16,4.62,2.69,4.62,4.43s-1.34,3.28-4.62,4.43c-3.17,1.11-7.38,1.55-11.25,1.55s-8.08-.44-11.25-1.55c-3.29-1.16-4.62-2.69-4.62-4.43Z"/>
  <g class="cls-1">
    <g>
      <path class="cls-4" d="M42.36,45.67l-.5.5c-.07.07-.18.07-.24,0l-.5-.5c-.07-.07-.07-.18,0-.24l.5-.5c.07-.07.18-.07.24,0l.5.5c.07.07.07.18,0,.24M43.41,45.03l-1.16-1.16c-.28-.28-.74-.28-1.02,0l-1.16,1.16c-.28.28-.28.74,0,1.02l1.16,1.16c.28.28.74.28,1.02,0l1.16-1.16c.28-.28.28-.74,0-1.02"/>
      <path class="cls-4" d="M39.81,37.36c-.57,0-1.04.46-1.04,1.04v2.14l-1.87-1.08c-.5-.29-1.13-.12-1.41.38-.29.5-.12,1.13.38,1.41l3.28,1.9c.18.15.41.24.66.24.57,0,1.04-.46,1.04-1.04v-3.95c0-.57-.46-1.04-1.04-1.04"/>
      <path class="cls-4" d="M38.99,45.94s.01-.03.02-.05c0-.02.01-.04.02-.05,0-.01,0-.03.01-.04,0-.02,0-.04.01-.06,0-.01,0-.03,0-.04,0-.02,0-.04,0-.06,0-.02,0-.03,0-.05,0-.02,0-.03,0-.05s0-.03,0-.05c0-.02,0-.03,0-.05,0-.02,0-.04,0-.06,0-.01,0-.03,0-.04,0-.02,0-.04-.01-.06,0-.01,0-.03-.01-.04,0-.02-.01-.04-.02-.05,0-.02-.01-.03-.02-.05,0-.01-.01-.03-.02-.04,0-.02-.02-.04-.03-.06,0,0,0-.02-.01-.03,0,0,0,0,0,0-.01-.02-.02-.04-.04-.06,0-.01-.01-.02-.02-.03-.01-.02-.03-.03-.04-.05,0-.01-.02-.02-.03-.03-.01-.01-.02-.02-.04-.04-.01-.01-.02-.02-.04-.04-.01,0-.02-.02-.03-.03-.02-.01-.03-.03-.05-.04,0,0-.02-.01-.03-.02-.02-.01-.04-.03-.06-.04,0,0,0,0,0,0l-3.42-1.98c-.5-.29-1.13-.12-1.41.38-.29.5-.12,1.13.38,1.41l1.87,1.08-1.87,1.08c-.5.29-.66.92-.38,1.41.29.5.92.66,1.41.38l3.42-1.98s0,0,0,0c.02-.01.04-.02.06-.04.01,0,.02-.01.03-.02.02-.01.03-.03.05-.04.01,0,.02-.02.03-.03.01-.01.02-.02.04-.04.01-.01.02-.02.04-.04,0-.01.02-.02.03-.03.01-.02.03-.03.04-.05,0,0,.01-.02.02-.03.01-.02.03-.04.04-.06,0,0,0,0,0,0,0,0,0-.02.01-.03,0-.02.02-.04.03-.06,0-.01.01-.03.02-.04"/>
      <path class="cls-4" d="M39.81,47.71c-.25,0-.48.09-.66.24l-3.28,1.9c-.5.29-.66.92-.38,1.41.29.5.92.67,1.41.38l1.87-1.08v2.14c0,.57.46,1.04,1.04,1.04s1.04-.46,1.04-1.04v-3.95c0-.57-.46-1.04-1.04-1.04"/>
      <path class="cls-4" d="M47.61,49.84l-3.28-1.9c-.18-.15-.41-.24-.66-.24-.57,0-1.04.46-1.04,1.04v3.95c0,.57.46,1.04,1.04,1.04s1.04-.46,1.04-1.04v-2.14l1.87,1.08c.5.29,1.13.12,1.41-.38.29-.5.12-1.13-.38-1.41"/>
      <path class="cls-4" d="M49.38,46.63l-1.87-1.08,1.87-1.08c.5-.29.66-.92.38-1.41-.29-.5-.92-.67-1.41-.38l-3.42,1.98s0,0,0,0c-.02.01-.04.02-.06.04,0,0-.02.01-.03.02-.02.01-.03.03-.05.04-.01,0-.02.02-.03.03-.01.01-.02.02-.04.04-.01.01-.02.02-.04.04,0,.01-.02.02-.03.03-.01.02-.03.03-.04.05,0,0-.01.02-.02.03-.01.02-.03.04-.04.06,0,0,0,0,0,0,0,0,0,.02-.01.03,0,.02-.02.04-.03.06,0,.01-.01.03-.02.04,0,.02-.01.03-.02.05,0,.02-.01.04-.02.05,0,.01,0,.03-.01.04,0,.02,0,.04-.01.06,0,.01,0,.03,0,.04,0,.02,0,.04,0,.06,0,.01,0,.03,0,.05,0,.02,0,.03,0,.05s0,.03,0,.05c0,.02,0,.03,0,.05,0,.02,0,.04,0,.06,0,.01,0,.03,0,.04,0,.02,0,.04.01.06,0,.01,0,.03.01.04,0,.02.01.04.02.05,0,.02.01.03.02.05,0,.01.01.03.02.04,0,.02.02.04.03.06,0,0,0,.02.01.03,0,0,0,0,0,0,.01.02.02.04.04.06,0,.01.01.02.02.03.01.02.03.03.04.05,0,.01.02.02.03.03.01.01.02.02.04.04s.02.02.04.04c.01,0,.02.02.03.03.02.01.03.03.05.04,0,0,.02.01.03.02.02.01.04.03.06.04,0,0,0,0,0,0l3.42,1.98c.5.29,1.13.12,1.41-.38s.12-1.13-.38-1.41"/>
      <path class="cls-4" d="M47.99,39.83h0c-.29-.5-.92-.67-1.41-.38l-1.87,1.08v-2.14c0-.57-.46-1.04-1.04-1.04s-1.04.46-1.04,1.04v3.95c0,.57.46,1.04,1.04,1.04.25,0,.48-.09.66-.24l3.28-1.9c.5-.29.67-.92.38-1.41"/>
    </g>
  </g>
</svg>