<?xml version="1.0" encoding="UTF-8"?>
<svg id="Expanded_Icons" data-name="Expanded Icons" xmlns="http://www.w3.org/2000/svg" viewBox="0 0 64 64">
  <defs>
    <style>
      .cls-1 {
        fill: #29b5e8;
        stroke-width: 0px;
      }
    </style>
  </defs>
  <path class="cls-1" d="M31.98,16.2c-14.88,0-26.99,12.11-26.99,26.99,0,2.21,1.79,4,4,4h45.98c2.21,0,4-1.79,4-4,0-14.88-12.11-26.99-26.99-26.99ZM37.47,43.01c0,.06.03.12.04.18h-11.04c0-.06.04-.12.04-.18,0-3.02,2.46-5.49,5.49-5.49s5.49,2.46,5.49,5.49ZM39.93,43.19c0-.06.04-.12.04-.18,0-1.49-.42-2.88-1.13-4.07l4.43-3.54c.54-.43.63-1.22.2-1.76-.43-.54-1.22-.63-1.76-.2l-4.47,3.58c-1.41-1.23-3.24-1.99-5.26-1.99-4.4,0-7.99,3.58-7.99,7.99,0,.06.03.12.04.18h-15.04c0-12.7,10.29-22.99,22.99-22.99s22.99,10.29,22.99,22.99h-15.04Z"/>
  <path class="cls-1" d="M31.99,22.54c-.69,0-1.25.56-1.25,1.25v1.86c0,.69.56,1.25,1.25,1.25s1.25-.56,1.25-1.25v-1.86c0-.69-.56-1.25-1.25-1.25Z"/>
  <path class="cls-1" d="M24.88,25.04c-.29-.62-1.04-.89-1.66-.6s-.89,1.04-.6,1.66l.79,1.68c.21.45.66.72,1.13.72.18,0,.36-.04.53-.12.62-.29.89-1.04.6-1.66l-.79-1.68Z"/>
  <path class="cls-1" d="M17.85,29.73c-.53-.44-1.32-.37-1.76.16-.44.53-.37,1.32.16,1.76l1.43,1.18c.23.19.52.29.8.29.36,0,.72-.15.96-.45.44-.53.37-1.32-.16-1.76l-1.43-1.18Z"/>
  <path class="cls-1" d="M15.28,37.43l-1.8-.46c-.67-.17-1.35.23-1.52.9-.17.67.23,1.35.9,1.52l1.8.46c.11.03.21.04.31.04.56,0,1.06-.37,1.21-.94.17-.67-.23-1.35-.9-1.52Z"/>
  <path class="cls-1" d="M40.72,24.57c-.63-.29-1.37-.02-1.66.6l-.79,1.68c-.29.62-.02,1.37.6,1.66.17.08.35.12.53.12.47,0,.92-.27,1.13-.72l.79-1.68c.29-.62.02-1.37-.6-1.66Z"/>
  <path class="cls-1" d="M47.77,30.13c-.44-.53-1.23-.6-1.76-.16l-1.43,1.18c-.53.44-.61,1.23-.16,1.76.25.3.6.45.96.45.28,0,.56-.09.8-.29l1.43-1.18c.53-.44.61-1.23.16-1.76Z"/>
  <path class="cls-1" d="M47.57,39.24c.15.56.65.94,1.21.94.1,0,.21-.01.31-.04l1.8-.46c.67-.17,1.07-.85.9-1.52-.17-.67-.86-1.07-1.52-.9l-1.8.46c-.67.17-1.07.85-.9,1.52Z"/>
</svg>