<?xml version="1.0" encoding="UTF-8"?>
<svg id="Expanded_Icons" data-name="Expanded Icons" xmlns="http://www.w3.org/2000/svg" viewBox="0 0 64 64">
  <defs>
    <style>
      .cls-1 {
        fill: #29b5e8;
        stroke-width: 0px;
      }
    </style>
  </defs>
  <path class="cls-1" d="M14.46,6.83c-.84,0-1.64.13-2.39.38-.3.1-.63-.04-.75-.33l-.65-1.57c-.12-.29.02-.62.31-.72,1.09-.38,2.26-.59,3.48-.59h2.36c.31,0,.57.25.57.57v1.7c0,.31-.25.57-.57.57h-2.36Z"/>
  <path class="cls-1" d="M29.08,6.26c0,.31-.25.57-.57.57h-4.71c-.31,0-.57-.25-.57-.57v-1.7c0-.31.25-.57.57-.57h4.71c.31,0,.57.25.57.57v1.7Z"/>
  <path class="cls-1" d="M40.77,6.26c0,.31-.25.57-.57.57h-4.71c-.31,0-.57-.25-.57-.57v-1.7c0-.31.25-.57.57-.57h4.71c.31,0,.57.25.57.57v1.7Z"/>
  <path class="cls-1" d="M49.54,6.83h-2.36c-.31,0-.57-.25-.57-.57v-1.7c0-.31.25-.57.57-.57h2.36c1.22,0,2.39.21,3.48.59.29.1.43.44.31.72l-.65,1.57c-.12.29-.45.42-.75.33-.75-.25-1.56-.38-2.39-.38Z"/>
  <path class="cls-1" d="M6.88,11.33c.29.12.42.45.33.75-.25.75-.38,1.56-.38,2.39v2.36c0,.31-.25.57-.57.57h-1.7c-.31,0-.57-.25-.57-.57v-2.36c0-1.22.21-2.39.59-3.48.1-.29.44-.43.72-.31l1.57.65Z"/>
  <path class="cls-1" d="M57.17,14.46c0-.84-.13-1.64-.38-2.39-.1-.3.04-.63.33-.75l1.57-.65c.29-.12.62.02.72.31.38,1.09.59,2.26.59,3.48v2.36c0,.31-.25.57-.57.57h-1.7c-.31,0-.57-.25-.57-.57v-2.36Z"/>
  <path class="cls-1" d="M6.26,23.23c.31,0,.57.25.57.57v4.71c0,.31-.25.57-.57.57h-1.7c-.31,0-.57-.25-.57-.57v-4.71c0-.31.25-.57.57-.57h1.7Z"/>
  <path class="cls-1" d="M57.74,29.08c-.31,0-.57-.25-.57-.57v-4.71c0-.31.25-.57.57-.57h1.7c.31,0,.57.25.57.57v4.71c0,.31-.25.57-.57.57h-1.7Z"/>
  <path class="cls-1" d="M6.26,34.92c.31,0,.57.25.57.57v4.71c0,.31-.25.57-.57.57h-1.7c-.31,0-.57-.25-.57-.57v-4.71c0-.31.25-.57.57-.57h1.7Z"/>
  <path class="cls-1" d="M57.74,40.77c-.31,0-.57-.25-.57-.57v-4.71c0-.31.25-.57.57-.57h1.7c.31,0,.57.25.57.57v4.71c0,.31-.25.57-.57.57h-1.7Z"/>
  <path class="cls-1" d="M6.26,46.61c.31,0,.57.25.57.57v2.36c0,.84.13,1.64.38,2.39.1.3-.04.63-.33.75l-1.57.65c-.29.12-.62-.02-.72-.31-.38-1.09-.59-2.26-.59-3.48v-2.36c0-.31.25-.57.57-.57h1.7Z"/>
  <path class="cls-1" d="M57.17,49.54v-2.36c0-.31.25-.57.57-.57h1.7c.31,0,.57.25.57.57v2.36c0,1.22-.21,2.39-.59,3.48-.1.29-.44.43-.72.31l-1.57-.65c-.29-.12-.42-.45-.33-.75.25-.75.38-1.56.38-2.39Z"/>
  <path class="cls-1" d="M11.33,57.12c.12-.29.45-.42.75-.33.75.25,1.56.38,2.39.38h2.36c.31,0,.57.25.57.57v1.7c0,.31-.25.57-.57.57h-2.36c-1.22,0-2.39-.21-3.48-.59-.29-.1-.43-.44-.31-.72l.65-1.57Z"/>
  <path class="cls-1" d="M49.54,57.17c.84,0,1.64-.13,2.39-.38.3-.1.63.04.75.33l.65,1.57c.12.29-.02.62-.31.72-1.09.38-2.26.59-3.48.59h-2.36c-.31,0-.57-.25-.57-.57v-1.7c0-.31.25-.57.57-.57h2.36Z"/>
  <path class="cls-1" d="M23.23,57.74c0-.31.25-.57.57-.57h4.71c.31,0,.57.25.57.57v1.7c0,.31-.25.57-.57.57h-4.71c-.31,0-.57-.25-.57-.57v-1.7Z"/>
  <path class="cls-1" d="M34.92,57.74c0-.31.25-.57.57-.57h4.71c.31,0,.57.25.57.57v1.7c0,.31-.25.57-.57.57h-4.71c-.31,0-.57-.25-.57-.57v-1.7Z"/>
  <path class="cls-1" d="M15.6,15.6c0-.62.51-1.13,1.13-1.13h6.79c.62,0,1.13.51,1.13,1.13v6.22c0,.62-.51,1.13-1.13,1.13h-6.79c-.62,0-1.13-.51-1.13-1.13v-6.22Z"/>
  <path class="cls-1" d="M28.61,14.46c-.62,0-1.13.51-1.13,1.13v6.22c0,.62.51,1.13,1.13,1.13h6.79c.62,0,1.13-.51,1.13-1.13v-6.22c0-.62-.51-1.13-1.13-1.13h-6.79Z"/>
  <path class="cls-1" d="M39.35,15.6c0-.62.51-1.13,1.13-1.13h6.79c.62,0,1.13.51,1.13,1.13v6.22c0,.62-.51,1.13-1.13,1.13h-6.79c-.62,0-1.13-.51-1.13-1.13v-6.22Z"/>
  <path class="cls-1" d="M14.46,31.72c0-.52.46-1.15,1.58-1.69,1.09-.52,2.62-.86,4.36-.86s3.27.34,4.36.86c1.13.54,1.58,1.17,1.58,1.69s-.46,1.15-1.58,1.69c-1.09.52-2.62.86-4.36.86s-3.27-.34-4.36-.86c-1.13-.54-1.58-1.17-1.58-1.69Z"/>
  <path class="cls-1" d="M25.78,40.2c0-.52.46-1.15,1.58-1.69,1.09-.52,2.62-.86,4.36-.86s3.27.34,4.36.86c1.13.54,1.58,1.17,1.58,1.69s-.46,1.15-1.58,1.69c-1.09.52-2.62.86-4.36.86s-3.27-.34-4.36-.86c-1.13-.54-1.58-1.17-1.58-1.69Z"/>
  <path class="cls-1" d="M26.87,42.91c-.4-.19-.77-.42-1.1-.67v7.86c0,1.56,2.66,2.83,5.94,2.83s5.94-1.27,5.94-2.83v-7.86c-.32.26-.7.48-1.1.67-1.27.61-2.98.97-4.84.97s-3.57-.36-4.84-.97Z"/>
  <path class="cls-1" d="M15.56,34.43c-.4-.19-.77-.42-1.1-.67v7.86c0,1.56,2.66,2.83,5.94,2.83,1.67,0,3.18-.33,4.26-.86v-3.72s.02-.05.02-.05c.16-.84.81-1.53,1.66-2.04v-4.02c-.32.26-.7.48-1.1.67-1.27.61-2.98.97-4.84.97s-3.57-.36-4.84-.97Z"/>
  <path class="cls-1" d="M47.39,30.03c1.13.54,1.58,1.17,1.58,1.69s-.46,1.15-1.58,1.69c-1.09.52-2.62.86-4.36.86s-3.27-.34-4.36-.86c-1.13-.54-1.58-1.17-1.58-1.69s.46-1.15,1.58-1.69c1.09-.52,2.62-.86,4.36-.86s3.27.34,4.36.86Z"/>
  <path class="cls-1" d="M47.87,34.43c.4-.19.77-.42,1.1-.67v7.86c0,1.56-2.66,2.83-5.94,2.83-1.67,0-3.18-.33-4.26-.86v-3.72s-.02-.05-.02-.05c-.16-.84-.81-1.53-1.66-2.04v-4.02c.32.26.7.48,1.1.67,1.27.61,2.98.97,4.84.97s3.57-.36,4.84-.97Z"/>
</svg>