<?xml version="1.0" encoding="UTF-8"?>
<svg id="Expanded_Icons" data-name="Expanded Icons" xmlns="http://www.w3.org/2000/svg" viewBox="0 0 64 64">
  <defs>
    <style>
      .cls-1 {
        fill: #29b5e8;
        stroke-width: 0px;
      }
    </style>
  </defs>
  <path class="cls-1" d="M24.9,17.2c-.69,0-1.25.56-1.25,1.25v3.69l-8.32-8.32c-.49-.49-1.28-.49-1.77,0s-.49,1.28,0,1.77l8.16,8.17h-3.39c-.69,0-1.25.56-1.25,1.25s.56,1.25,1.25,1.25h6.56c.69,0,1.25-.56,1.25-1.25v-6.56c0-.69-.56-1.25-1.25-1.25Z"/>
  <path class="cls-1" d="M48.48,13.82l-8.32,8.32v-3.69c0-.69-.56-1.25-1.25-1.25s-1.25.56-1.25,1.25v6.56c0,.69.56,1.25,1.25,1.25h6.56c.69,0,1.25-.56,1.25-1.25s-.56-1.25-1.25-1.25h-3.39l8.16-8.17c.49-.49.49-1.28,0-1.77s-1.28-.49-1.77,0Z"/>
  <path class="cls-1" d="M24.9,37.77h-6.56c-.69,0-1.25.56-1.25,1.25s.56,1.25,1.25,1.25h3.39l-8.17,8.17c-.49.49-.49,1.28,0,1.77.24.24.56.37.88.37s.64-.12.88-.37l8.32-8.32v3.69c0,.69.56,1.25,1.25,1.25s1.25-.56,1.25-1.25v-6.56c0-.69-.56-1.25-1.25-1.25Z"/>
  <path class="cls-1" d="M42.08,40.27h3.39c.69,0,1.25-.56,1.25-1.25s-.56-1.25-1.25-1.25h-6.56c-.69,0-1.25.56-1.25,1.25v6.56c0,.69.56,1.25,1.25,1.25s1.25-.56,1.25-1.25v-3.69l8.32,8.32c.24.24.56.37.88.37s.64-.12.88-.37c.49-.49.49-1.28,0-1.77l-8.17-8.17Z"/>
  <path class="cls-1" d="M50.81,4.49H12.98c-4.73.01-8.58,3.86-8.58,8.59v37.82c0,4.73,3.85,8.58,8.58,8.58h37.83c4.73,0,8.58-3.85,8.58-8.58V13.07c0-4.73-3.85-8.58-8.58-8.58ZM55.4,50.91c0,2.53-2.06,4.58-4.58,4.58H12.98c-2.53,0-4.58-2.06-4.58-4.58V13.08c0-2.53,2.06-4.58,4.58-4.58h37.83c2.53-.01,4.58,2.04,4.58,4.57v37.83Z"/>
</svg>