<?xml version="1.0" encoding="UTF-8"?>
<svg id="Expanded_Icons" data-name="Expanded Icons" xmlns="http://www.w3.org/2000/svg" viewBox="0 0 64 64">
  <defs>
    <style>
      .cls-1 {
        fill: #29b5e8;
        stroke-width: 0px;
      }
    </style>
  </defs>
  <path class="cls-1" d="M31.96,4.56c-15.16,0-27.5,12.34-27.5,27.5s12.34,27.5,27.5,27.5,27.5-12.34,27.5-27.5S47.13,4.56,31.96,4.56ZM31.96,8.56c5.76,0,11.04,2.09,15.13,5.54L14,47.19c-3.45-4.09-5.54-9.37-5.54-15.13,0-12.96,10.54-23.5,23.5-23.5ZM31.96,55.56c-5.76,0-11.04-2.09-15.13-5.54L49.93,16.92c3.45,4.09,5.54,9.37,5.54,15.13,0,12.96-10.54,23.5-23.5,23.5Z"/>
</svg>