<?xml version="1.0" encoding="UTF-8"?>
<svg id="Expanded_Icons" data-name="Expanded Icons" xmlns="http://www.w3.org/2000/svg" viewBox="0 0 64 64">
  <defs>
    <style>
      .cls-1 {
        fill: #29b5e8;
        stroke-width: 0px;
      }
    </style>
  </defs>
  <path class="cls-1" d="M58.6,30.27c-.75-3-2.02-6.45-2.3-7.11-2.65-6.33-8.32-10.42-14.46-10.42-4.11,0-7.37,1.02-9.88,3.11-2.51-2.1-5.75-3.12-9.84-3.12-6.13,0-11.81,4.09-14.46,10.42-.26.61-1.57,3.82-2.32,6.83-.47,1.87-.72,4-.83,6.88-.18,4.95,1.29,9.67,3.84,12.31,1.37,1.42,2.97,2.17,4.63,2.17s3.21-.73,4.54-2.13l6.96-6.73h7.23c.06,0,.13,0,.19,0h7.56l6.96,6.73c1.33,1.39,2.9,2.13,4.54,2.13s3.27-.75,4.63-2.17c2.55-2.64,4.02-7.36,3.84-12.31-.1-2.68-.34-4.53-.86-6.61ZM52.74,46.42c-.42.43-1.06.95-1.75.95-.54,0-1.04-.32-1.42-.67-.02-.03-.05-.05-.08-.08l-.28-.28s-.08-.08-.12-.11l-7.31-7.06c-.37-.41-.9-.66-1.49-.66h-8.04c-.06,0-.13,0-.19,0h-8.37c-.58,0-1.11.25-1.48.65l-7.32,7.07s-.08.07-.12.11l-.28.28s-.05.05-.08.08c-.38.35-.88.67-1.42.67-.7,0-1.34-.51-1.75-.95-1.79-1.86-2.86-5.55-2.72-9.39.1-2.6.31-4.47.71-6.06.7-2.79,1.99-5.91,2.13-6.26,2.05-4.91,6.18-7.96,10.77-7.96,3.76,0,6.4,1.02,8.29,3.2.38.44.93.69,1.51.69h.07c.58,0,1.13-.25,1.51-.69,1.89-2.17,4.54-3.19,8.34-3.19,4.59,0,8.71,3.05,10.77,7.96.21.5,1.42,3.79,2.11,6.54.37,1.49.64,3.04.74,5.78.14,3.84-.93,7.53-2.72,9.39Z"/>
  <path class="cls-1" d="M20.78,22.73c-3.03,0-5.5,2.47-5.5,5.5,0,1.47.57,2.85,1.61,3.89,1.04,1.04,2.42,1.61,3.89,1.61,3.03,0,5.5-2.47,5.5-5.5s-2.47-5.5-5.5-5.5ZM20.78,31.23c-.8,0-1.56-.31-2.12-.88s-.88-1.32-.88-2.12c0-1.66,1.35-3,3-3s3,1.35,3,3-1.35,3-3,3Z"/>
  <path class="cls-1" d="M43.07,30.37c-1.18,0-2.13.95-2.13,2.13s.96,2.13,2.13,2.13c.59,0,1.12-.24,1.51-.62.39-.39.62-.92.62-1.51,0-1.18-.96-2.13-2.13-2.13Z"/>
  <path class="cls-1" d="M43.07,21.82c-1.18,0-2.13.96-2.13,2.13s.96,2.13,2.13,2.13c.59,0,1.12-.24,1.51-.62.39-.39.62-.92.62-1.51,0-1.18-.96-2.13-2.13-2.13Z"/>
  <path class="cls-1" d="M38.8,26.1c-1.18,0-2.13.96-2.13,2.13,0,.59.24,1.12.62,1.51.39.39.92.62,1.51.62,1.18,0,2.13-.96,2.13-2.13s-.96-2.13-2.13-2.13Z"/>
  <path class="cls-1" d="M47.35,26.1c-1.18,0-2.13.96-2.13,2.13,0,.59.24,1.12.62,1.51.39.39.92.62,1.51.62,1.18,0,2.13-.96,2.13-2.13s-.96-2.13-2.13-2.13Z"/>
</svg>