<?xml version="1.0" encoding="UTF-8"?>
<svg id="Expanded_Icons" data-name="Expanded Icons" xmlns="http://www.w3.org/2000/svg" viewBox="0 0 64 64">
  <defs>
    <style>
      .cls-1 {
        fill: #29b5e8;
        stroke-width: 0px;
      }
    </style>
  </defs>
  <path class="cls-1" d="M18.5,40.68c-1.23,0-2.46.47-3.4,1.41-1.88,1.88-1.88,4.93,0,6.81.94.94,2.17,1.41,3.4,1.41s2.46-.47,3.4-1.41c1.88-1.88,1.88-4.93,0-6.81-.94-.94-2.17-1.41-3.4-1.41ZM20.13,47.13c-.44.44-1.02.68-1.64.68s-1.2-.24-1.64-.68c-.9-.9-.9-2.37,0-3.27.44-.44,1.02-.68,1.64-.68s1.2.24,1.64.68c.9.9.9,2.37,0,3.27Z"/>
  <path class="cls-1" d="M58.9,5.1c-.39-.39-.92-.6-1.47-.58l-6.45.18c-.35,0-.69.11-.99.3-.23.14-.56.36-.8.61l-19.68,19.68c-6.63-2.91-14.57-1.47-19.77,3.73-2.11,2.11-3.66,4.72-4.5,7.56-1.86,6.27-.14,13.05,4.5,17.69,3.4,3.4,7.95,5.23,12.62,5.23,1.68,0,3.38-.24,5.05-.73,2.89-.86,5.44-2.38,7.57-4.51,5.19-5.19,6.63-13.12,3.74-19.75l5.17-5.17,3.61.41c.6.07,1.19-.14,1.62-.56.43-.42.65-1.01.59-1.61l-.2-2.23,2.16.23c.6.07,1.19-.14,1.62-.56.43-.42.64-1.01.59-1.61l-.2-2.23,2.16.23c.6.07,1.21-.15,1.64-.58.43-.43.64-1.04.57-1.64l-.43-3.66,1.17-1.25c.34-.36.53-.83.54-1.32l.15-6.4c.01-.55-.2-1.08-.59-1.46ZM55.35,12.1l-1.29,1.37c-.4.43-.6,1.01-.53,1.6l.24,2.09-2.1-.23c-.6-.06-1.19.14-1.62.56-.43.42-.64,1.01-.59,1.61l.2,2.23-2.16-.23c-.6-.06-1.19.14-1.62.56s-.64,1.01-.59,1.61l.2,2.21-2.12-.24c-.6-.07-1.21.14-1.64.57l-6.86,6.86c-.63.63-.77,1.59-.34,2.37,2.9,5.34,1.92,12.07-2.39,16.38-1.66,1.66-3.64,2.84-5.88,3.5-4.87,1.43-10.12.09-13.71-3.49-3.6-3.6-4.94-8.86-3.49-13.73.65-2.2,1.86-4.23,3.49-5.87,2.65-2.65,6.23-4.05,9.82-4.05,2.25,0,4.51.54,6.56,1.67.78.43,1.75.29,2.37-.34l20.44-20.44,3.67-.1-.08,3.53Z"/>
</svg>