<?xml version="1.0" encoding="UTF-8"?>
<svg id="Expanded_Icons" data-name="Expanded Icons" xmlns="http://www.w3.org/2000/svg" viewBox="0 0 64 64">
  <defs>
    <style>
      .cls-1 {
        fill: #29b5e8;
        stroke-width: 0px;
      }
    </style>
  </defs>
  <path class="cls-1" d="M49.43,19.16c-.37-.58-1.01-.94-1.7-.94h-12.56l4.7-10.96c.26-.62.2-1.33-.17-1.89-.37-.56-1-.9-1.67-.9h-15.53c-.98,0-1.81.71-1.97,1.67l-4.24,25.54c-.1.58.07,1.17.45,1.62.38.45.94.71,1.53.71h11.65l-2.44,23.27c-.1.96.5,1.86,1.44,2.13.18.05.37.08.55.08.75,0,1.45-.42,1.8-1.12l18.27-37.26c.3-.62.27-1.35-.1-1.94ZM32.63,46.48l1.5-14.27c.06-.56-.12-1.13-.5-1.55-.38-.42-.92-.66-1.49-.66h-11.52l3.57-21.54h10.8l-4.7,10.96c-.26.62-.2,1.33.17,1.89.37.56,1,.9,1.67.9h12.39l-11.89,24.26Z"/>
</svg>