<?xml version="1.0" encoding="UTF-8"?>
<svg id="Expanded_Icons" data-name="Expanded Icons" xmlns="http://www.w3.org/2000/svg" viewBox="0 0 64 64">
  <defs>
    <style>
      .cls-1 {
        fill: #29b5e8;
        stroke-width: 0px;
      }
    </style>
  </defs>
  <path class="cls-1" d="M56.5,37.6l-18.8-18.8s-.08-.08-.13-.12l-11.18-11.16s-.06-.05-.08-.08c-1.85-1.78-4.92-2.78-8.26-2.65-3.64.13-6.97,1.52-9.36,3.92-2.4,2.4-3.79,5.72-3.92,9.36-.12,3.39.9,6.51,2.74,8.34l18.8,18.8s.09.09.14.12l11.17,11.16s.05.05.08.08c1.9,1.85,4.6,2.66,7.41,2.66,3.8,0,7.79-1.49,10.22-3.92,4.25-4.25,5.63-13.26,1.18-17.71ZM8.76,18.21c.06-1.52.49-4.42,2.75-6.68,2.27-2.27,5.16-2.7,6.68-2.75,2.22-.08,4.34.53,5.37,1.57.02.02.05.05.07.07l11.24,11.22s.08.08.13.12l1.66,1.66c-3.03.45-6.34,1.9-8.85,4.41-2.51,2.51-3.96,5.8-4.41,8.82l-13.07-13.07c-1.03-1.03-1.65-3.14-1.57-5.37ZM52.49,52.48c-3.65,3.65-9.91,3.33-12.05,1.18-.02-.02-.05-.05-.07-.07l-11.24-11.22s-.09-.08-.13-.12l-1.26-1.26c-.9-.9-.97-6.46,2.9-10.33,3.87-3.87,9.44-3.8,10.33-2.9l.02-.02,12.69,12.69c1.03,1.03,1.65,3.14,1.57,5.37-.06,1.52-.49,4.42-2.75,6.68Z"/>
  <path class="cls-1" d="M41.08,32.56c-.49-.49-1.28-.49-1.77,0s-.49,1.28,0,1.77l8.53,8.53c1.04,1.04,1.17,4.2-.62,5.99-.49.49-.49,1.28,0,1.77.24.24.56.37.88.37s.64-.12.88-.37c2.81-2.81,2.63-7.51.62-9.52l-8.53-8.53Z"/>
</svg>