<?xml version="1.0" encoding="UTF-8"?>
<svg id="Expanded_Icons" data-name="Expanded Icons" xmlns="http://www.w3.org/2000/svg" viewBox="0 0 64 64">
  <defs>
    <style>
      .cls-1 {
        fill: #29b5e8;
        stroke-width: 0px;
      }
    </style>
  </defs>
  <path class="cls-1" d="M59.55,34.17c-.09-.9-.36-1.7-.79-2.37.97-1.01.97-2.65.97-3.34,0-5.36-4.38-5.36-6.25-5.36h-11.12c1.92-8.3-.22-12.54-3-13.74-2.08-.9-4.41-.11-5.65,1.93-.12.2-.18.42-.18.65v5.58c-.01.1-.17.37-.27.55-.14.25-.29.53-.41.84-1.1,3.15-3.42,6.09-7.09,8.98l-.12.1c-.22.16-.49.37-.71.63-.61.74-1.4,1.23-2.26,1.43v-1c0-1.1-.9-2-2-2H6.57c-1.1,0-2,.9-2,2v23.51c0,1.1.9,2,2,2h14.11c1.1,0,2-.9,2-2v-1.1h.11c.91,0,1.79.33,2.47.93.97.86,2.28,1.42,3.33,1.42h19.25c2.62,0,4.83-1.02,6.23-2.87.98-1.29,1.49-2.93,1.44-4.45.19-.14.34-.33.43-.56.84-.62,1.5-1.47,1.9-2.53.5-1.32.56-2.84.23-4.17.18-.22.3-.48.3-.79,0-.03-.01-.05-.01-.07.9-1.14,1.35-2.65,1.2-4.22ZM18.68,50.57h-10.11v-19.51h10.11v19.51ZM47.84,51.32h-19.25c-.32,0-1.07-.25-1.68-.79-1.14-1-2.6-1.56-4.13-1.56h-.11v-16.38c1.62-.23,3.09-1.04,4.19-2.37.08-.08.19-.16.29-.23l.16-.12c4.06-3.2,6.65-6.51,7.91-10.11.05-.15.14-.3.23-.45.26-.46.58-1.04.58-1.75v-5.21c.6-.76,1.5-1.04,2.34-.68,1.53.66,3.49,4.01,1.18,12.36-.1.38-.03.78.21,1.09s.6.49,1,.49h12.72c2.94,0,3.75.62,3.75,2.86,0,1.69-.27,1.69-.77,1.69h-8.75c-.69,0-1.25.56-1.25,1.25s.56,1.25,1.25,1.25h8.41c.5.3.86.94.94,1.75.08.85-.16,2.04-1.04,2.8h-8.31c-.69,0-1.25.56-1.25,1.25s.56,1.25,1.25,1.25h7.92c.22.78.24,1.84-.13,2.81-.23.6-.71,1.37-1.65,1.74h-6.13c-.69,0-1.25.56-1.25,1.25s.56,1.25,1.25,1.25h5.3c-.01.82-.28,1.81-.93,2.68-.65.86-1.91,1.88-4.24,1.88Z"/>
</svg>