<svg xmlns="http://www.w3.org/2000/svg" width="18" height="18" viewBox="0 0 24 24" fill="#E5EDF5">
  <path d="M12 5c-5 0-9 3.5-10 8 0 1.33.36 2.59 1 3.7l-1.65 1.65 1.41 1.41 18-18-1.41-1.41-2.27 2.27C15.37 5.23 13.75 5 12 5Zm0 2c1.11 0 2.19.16 3.2.46l-1.7 1.7A4 4 0 0 0 8.84 9.8l-1.56 1.56C7.43 9.78 9.52 7 12 7Zm6.93 2.07-1.51 1.51C17.79 10.34 18 10.66 18 11c0 2.21-1.79 4-4 4-.34 0-.66-.05-.97-.14l-1.51 1.51c.78.41 1.65.63 2.48.63 3.87 0 7.19-2.69 7.93-6-.23-1.05-.63-2.04-1.15-2.9-.09-.15-.19-.3-.29-.45l-.56.45Zm-2.94 2.94-1.41 1.41-1.49 1.49-1.41-1.41 1.49-1.49 1.41-1.41 1.41 1.41ZM3.41 2 2 3.41l2.36 2.36C2.59 7.57 1 9.94 1 12c0 4.5 4 8 11 8 2.05 0 3.95-.52 5.6-1.44l2.99 2.99L22 20.1 3.41 2Zm3.71 6.12 1.6 1.6c-.46.33-.75.88-.75 1.48 0 1.1.9 2 2 2 .61 0 1.15-.28 1.48-.75l1.6 1.6c-.94.82-2.17 1.32-3.53 1.32-2.21 0-4-1.79-4-4 0-1.36.51-2.59 1.32-3.53Z"/>
</svg>

